%
M48
M72
T01C0.01378
T02C0.02165
T03C0.02953
T04C0.03150
T05C0.03346
T06C0.03543
T07C0.04000
%
T01
X27500Y5000
X31250Y5000
X35000Y5000
X43750Y6250
X60097Y32597
X83750Y8750
X87500Y8750
X91250Y8750
X90000Y20000
X90000Y40000
X107500Y57500
X100000Y71250
X100000Y75000
X100000Y78750
X100000Y82500
X90000Y71250
X87500Y73750
X85000Y76250
X68750Y97500
X68750Y103750
X68750Y110000
X63750Y115000
X57500Y115000
X51250Y115000
X46250Y110000
X46250Y103750
X46250Y97500
X51250Y92500
X57500Y92500
X63750Y92500
X51250Y73750
X46250Y73750
X42500Y70000
X37500Y100000
X32500Y100000
X23750Y112500
X23750Y116250
X23750Y120000
X27500Y125000
X18750Y158750
X27500Y165000
X35000Y175000
X35000Y178750
X35000Y182500
X38750Y182500
X38750Y178750
X38750Y175000
X42500Y175000
X42500Y178750
X42500Y182500
X50000Y188750
X56250Y181250
X56250Y176250
X47500Y165000
X67500Y138750
X71250Y138750
X75000Y138750
X82500Y137500
X82500Y148750
X82500Y152500
X78750Y152500
X78750Y148750
X78750Y156250
X87500Y157500
X88750Y163750
X88750Y167500
X85000Y167500
X90000Y195000
X92322Y207500
X61250Y216250
X22500Y188750
X7500Y195000
X7500Y200000
X7500Y205000
X18750Y216250
X62500Y125000
X82500Y125000
X93750Y132500
X93750Y136250
X93750Y140000
X97500Y140000
X97500Y136250
X97500Y132500
X97500Y107500
X97500Y103750
X101250Y103750
X101250Y107500
X21250Y40000
X21250Y30000
X20000Y53750
X16250Y53750
X12500Y53750
T02
X74744Y215543
X105256Y215543
T03
X55000Y212087
X55000Y222913
X25000Y222913
X25000Y212087
T04
X80157Y204717
X99843Y204717
T05
X104665Y200583
X75335Y200583
T06
X56093Y158996
X46250Y158996
X36407Y158996
X36407Y146004
X46250Y146004
X56093Y146004
T07
X12500Y15000
X12500Y25000
X12500Y35000
X12500Y45000
M30
