G75*
%MOIN*%
%OFA0B0*%
%FSLAX25Y25*%
%IPPOS*%
%LPD*%
%AMOC8*
5,1,8,0,0,1.08239X$1,22.5*
%
%ADD10C,0.00600*%
%ADD11R,0.00111X0.01110*%
%ADD12R,0.00111X0.02670*%
%ADD13R,0.00111X0.01890*%
%ADD14R,0.00111X0.02560*%
%ADD15R,0.00112X0.02770*%
%ADD16R,0.00112X0.02450*%
%ADD17R,0.00112X0.03220*%
%ADD18R,0.00112X0.02440*%
%ADD19R,0.00112X0.00440*%
%ADD20R,0.00112X0.00670*%
%ADD21R,0.00111X0.02780*%
%ADD22R,0.00111X0.02890*%
%ADD23R,0.00111X0.03550*%
%ADD24R,0.00111X0.03110*%
%ADD25R,0.00111X0.00660*%
%ADD26R,0.00111X0.01340*%
%ADD27R,0.00111X0.02890*%
%ADD28R,0.00111X0.03330*%
%ADD29R,0.00111X0.03780*%
%ADD30R,0.00111X0.03340*%
%ADD31R,0.00111X0.01560*%
%ADD32R,0.00111X0.03000*%
%ADD33R,0.00111X0.03660*%
%ADD34R,0.00111X0.03890*%
%ADD35R,0.00111X0.03670*%
%ADD36R,0.00111X0.01890*%
%ADD37R,0.00111X0.00340*%
%ADD38R,0.00111X0.04000*%
%ADD39R,0.00111X0.02000*%
%ADD40R,0.00111X0.00450*%
%ADD41R,0.00111X0.04440*%
%ADD42R,0.00111X0.02220*%
%ADD43R,0.00111X0.03220*%
%ADD44R,0.00111X0.04770*%
%ADD45R,0.00111X0.01000*%
%ADD46R,0.00111X0.02330*%
%ADD47R,0.00111X0.00440*%
%ADD48R,0.00111X0.03440*%
%ADD49R,0.00111X0.05330*%
%ADD50R,0.00111X0.00890*%
%ADD51R,0.00111X0.00890*%
%ADD52R,0.00111X0.00780*%
%ADD53R,0.00111X0.00670*%
%ADD54R,0.00111X0.00550*%
%ADD55R,0.00111X0.10330*%
%ADD56R,0.00112X0.00550*%
%ADD57R,0.00112X0.10340*%
%ADD58R,0.00112X0.00780*%
%ADD59R,0.00112X0.00660*%
%ADD60R,0.00112X0.01110*%
%ADD61R,0.00112X0.00670*%
%ADD62R,0.00111X0.00670*%
%ADD63R,0.00111X0.08230*%
%ADD64R,0.00111X0.01230*%
%ADD65R,0.00111X0.07330*%
%ADD66R,0.00111X0.01120*%
%ADD67R,0.00111X0.06780*%
%ADD68R,0.00111X0.06220*%
%ADD69R,0.00111X0.05670*%
%ADD70R,0.00111X0.05110*%
%ADD71R,0.00111X0.00560*%
%ADD72R,0.00111X0.00770*%
%ADD73R,0.00111X0.04660*%
%ADD74R,0.00111X0.01770*%
%ADD75R,0.00111X0.04220*%
%ADD76R,0.00111X0.01550*%
%ADD77R,0.00112X0.03780*%
%ADD78R,0.00112X0.01340*%
%ADD79R,0.00112X0.03560*%
%ADD80R,0.00112X0.01440*%
%ADD81R,0.00111X0.03220*%
%ADD82R,0.00111X0.01440*%
%ADD83R,0.00111X0.03440*%
%ADD84R,0.00111X0.00110*%
%ADD85R,0.00111X0.01660*%
%ADD86R,0.00111X0.02670*%
%ADD87R,0.00111X0.00230*%
%ADD88R,0.00111X0.01780*%
%ADD89R,0.00111X0.02340*%
%ADD90R,0.00111X0.01670*%
%ADD91R,0.00111X0.01670*%
%ADD92R,0.00112X0.00890*%
%ADD93R,0.00112X0.01660*%
%ADD94R,0.00112X0.00220*%
%ADD95R,0.00112X0.01550*%
%ADD96R,0.00111X0.00220*%
%ADD97R,0.00111X0.01330*%
%ADD98R,0.00111X0.00330*%
%ADD99R,0.00111X0.00880*%
%ADD100R,0.00111X0.00440*%
%ADD101R,0.00112X0.01450*%
%ADD102R,0.00112X0.00560*%
%ADD103R,0.00112X0.01000*%
%ADD104R,0.00112X0.02000*%
%ADD105R,0.00111X0.02440*%
%ADD106R,0.00111X0.01450*%
%ADD107R,0.00111X0.02770*%
%ADD108R,0.00111X0.01220*%
%ADD109R,0.00111X0.03230*%
%ADD110R,0.00111X0.04890*%
%ADD111R,0.00111X0.02340*%
%ADD112R,0.00112X0.00890*%
%ADD113R,0.00112X0.08110*%
%ADD114R,0.00112X0.01670*%
%ADD115R,0.00112X0.03770*%
%ADD116R,0.00111X0.12230*%
%ADD117R,0.00111X0.14450*%
%ADD118R,0.00111X0.01440*%
%ADD119R,0.00111X0.22110*%
%ADD120R,0.00111X0.19890*%
%ADD121R,0.00111X0.18000*%
%ADD122R,0.00111X0.15890*%
%ADD123R,0.00111X0.12450*%
%ADD124R,0.00111X0.07890*%
%ADD125R,0.00112X0.02780*%
%ADD126R,0.00111X0.01340*%
%ADD127R,0.00111X0.04110*%
%ADD128R,0.00111X0.05440*%
%ADD129R,0.00111X0.06550*%
%ADD130R,0.00111X0.05000*%
%ADD131R,0.00111X0.07890*%
%ADD132R,0.00111X0.05890*%
%ADD133R,0.00111X0.09110*%
%ADD134R,0.00111X0.07110*%
%ADD135R,0.00111X0.08220*%
%ADD136R,0.00111X0.07670*%
%ADD137R,0.00112X0.07220*%
%ADD138R,0.00112X0.01330*%
%ADD139R,0.00112X0.07890*%
%ADD140R,0.00111X0.06110*%
%ADD141R,0.00111X0.07550*%
%ADD142R,0.00111X0.05220*%
%ADD143R,0.00111X0.06450*%
%ADD144R,0.00111X0.04670*%
%ADD145R,0.00111X0.05550*%
%ADD146R,0.00111X0.06770*%
%ADD147R,0.00111X0.09450*%
%ADD148R,0.00111X0.10560*%
%ADD149R,0.00111X0.10220*%
%ADD150R,0.00112X0.09000*%
%ADD151R,0.00111X0.02550*%
%ADD152R,0.00111X0.00220*%
%ADD153R,0.00112X0.01120*%
%ADD154R,0.00112X0.00110*%
%ADD155R,0.00111X0.04220*%
%ADD156R,0.00111X0.04890*%
%ADD157R,0.00111X0.06330*%
%ADD158R,0.00112X0.01220*%
%ADD159R,0.00112X0.07000*%
%ADD160R,0.00111X0.01220*%
%ADD161R,0.00111X0.03120*%
%ADD162R,0.00111X0.02220*%
%ADD163R,0.00111X0.05560*%
%ADD164R,0.00111X0.02230*%
%ADD165R,0.00111X0.04560*%
%ADD166R,0.00112X0.01780*%
%ADD167R,0.00112X0.03330*%
%ADD168R,0.00111X0.05340*%
%ADD169R,0.00111X0.04330*%
%ADD170R,0.00111X0.02110*%
%ADD171C,0.00598*%
%ADD172C,0.00000*%
%ADD173C,0.00400*%
%ADD174R,0.02953X0.05709*%
%ADD175R,0.02559X0.05512*%
%ADD176C,0.00197*%
%ADD177C,0.00394*%
%ADD178C,0.00787*%
D10*
X0000000Y0010000D02*
X0000000Y0215000D01*
X0000003Y0215242D01*
X0000012Y0215483D01*
X0000026Y0215724D01*
X0000047Y0215965D01*
X0000073Y0216205D01*
X0000105Y0216445D01*
X0000143Y0216684D01*
X0000186Y0216921D01*
X0000236Y0217158D01*
X0000291Y0217393D01*
X0000351Y0217627D01*
X0000418Y0217859D01*
X0000489Y0218090D01*
X0000567Y0218319D01*
X0000650Y0218546D01*
X0000738Y0218771D01*
X0000832Y0218994D01*
X0000931Y0219214D01*
X0001036Y0219432D01*
X0001145Y0219647D01*
X0001260Y0219860D01*
X0001380Y0220070D01*
X0001505Y0220276D01*
X0001635Y0220480D01*
X0001770Y0220681D01*
X0001910Y0220878D01*
X0002054Y0221072D01*
X0002203Y0221262D01*
X0002357Y0221448D01*
X0002515Y0221631D01*
X0002677Y0221810D01*
X0002844Y0221985D01*
X0003015Y0222156D01*
X0003190Y0222323D01*
X0003369Y0222485D01*
X0003552Y0222643D01*
X0003738Y0222797D01*
X0003928Y0222946D01*
X0004122Y0223090D01*
X0004319Y0223230D01*
X0004520Y0223365D01*
X0004724Y0223495D01*
X0004930Y0223620D01*
X0005140Y0223740D01*
X0005353Y0223855D01*
X0005568Y0223964D01*
X0005786Y0224069D01*
X0006006Y0224168D01*
X0006229Y0224262D01*
X0006454Y0224350D01*
X0006681Y0224433D01*
X0006910Y0224511D01*
X0007141Y0224582D01*
X0007373Y0224649D01*
X0007607Y0224709D01*
X0007842Y0224764D01*
X0008079Y0224814D01*
X0008316Y0224857D01*
X0008555Y0224895D01*
X0008795Y0224927D01*
X0009035Y0224953D01*
X0009276Y0224974D01*
X0009517Y0224988D01*
X0009758Y0224997D01*
X0010000Y0225000D01*
X0115000Y0225000D01*
X0115242Y0224997D01*
X0115483Y0224988D01*
X0115724Y0224974D01*
X0115965Y0224953D01*
X0116205Y0224927D01*
X0116445Y0224895D01*
X0116684Y0224857D01*
X0116921Y0224814D01*
X0117158Y0224764D01*
X0117393Y0224709D01*
X0117627Y0224649D01*
X0117859Y0224582D01*
X0118090Y0224511D01*
X0118319Y0224433D01*
X0118546Y0224350D01*
X0118771Y0224262D01*
X0118994Y0224168D01*
X0119214Y0224069D01*
X0119432Y0223964D01*
X0119647Y0223855D01*
X0119860Y0223740D01*
X0120070Y0223620D01*
X0120276Y0223495D01*
X0120480Y0223365D01*
X0120681Y0223230D01*
X0120878Y0223090D01*
X0121072Y0222946D01*
X0121262Y0222797D01*
X0121448Y0222643D01*
X0121631Y0222485D01*
X0121810Y0222323D01*
X0121985Y0222156D01*
X0122156Y0221985D01*
X0122323Y0221810D01*
X0122485Y0221631D01*
X0122643Y0221448D01*
X0122797Y0221262D01*
X0122946Y0221072D01*
X0123090Y0220878D01*
X0123230Y0220681D01*
X0123365Y0220480D01*
X0123495Y0220276D01*
X0123620Y0220070D01*
X0123740Y0219860D01*
X0123855Y0219647D01*
X0123964Y0219432D01*
X0124069Y0219214D01*
X0124168Y0218994D01*
X0124262Y0218771D01*
X0124350Y0218546D01*
X0124433Y0218319D01*
X0124511Y0218090D01*
X0124582Y0217859D01*
X0124649Y0217627D01*
X0124709Y0217393D01*
X0124764Y0217158D01*
X0124814Y0216921D01*
X0124857Y0216684D01*
X0124895Y0216445D01*
X0124927Y0216205D01*
X0124953Y0215965D01*
X0124974Y0215724D01*
X0124988Y0215483D01*
X0124997Y0215242D01*
X0125000Y0215000D01*
X0125000Y0207283D01*
X0125000Y0195472D02*
X0125000Y0010000D01*
X0124997Y0009758D01*
X0124988Y0009517D01*
X0124974Y0009276D01*
X0124953Y0009035D01*
X0124927Y0008795D01*
X0124895Y0008555D01*
X0124857Y0008316D01*
X0124814Y0008079D01*
X0124764Y0007842D01*
X0124709Y0007607D01*
X0124649Y0007373D01*
X0124582Y0007141D01*
X0124511Y0006910D01*
X0124433Y0006681D01*
X0124350Y0006454D01*
X0124262Y0006229D01*
X0124168Y0006006D01*
X0124069Y0005786D01*
X0123964Y0005568D01*
X0123855Y0005353D01*
X0123740Y0005140D01*
X0123620Y0004930D01*
X0123495Y0004724D01*
X0123365Y0004520D01*
X0123230Y0004319D01*
X0123090Y0004122D01*
X0122946Y0003928D01*
X0122797Y0003738D01*
X0122643Y0003552D01*
X0122485Y0003369D01*
X0122323Y0003190D01*
X0122156Y0003015D01*
X0121985Y0002844D01*
X0121810Y0002677D01*
X0121631Y0002515D01*
X0121448Y0002357D01*
X0121262Y0002203D01*
X0121072Y0002054D01*
X0120878Y0001910D01*
X0120681Y0001770D01*
X0120480Y0001635D01*
X0120276Y0001505D01*
X0120070Y0001380D01*
X0119860Y0001260D01*
X0119647Y0001145D01*
X0119432Y0001036D01*
X0119214Y0000931D01*
X0118994Y0000832D01*
X0118771Y0000738D01*
X0118546Y0000650D01*
X0118319Y0000567D01*
X0118090Y0000489D01*
X0117859Y0000418D01*
X0117627Y0000351D01*
X0117393Y0000291D01*
X0117158Y0000236D01*
X0116921Y0000186D01*
X0116684Y0000143D01*
X0116445Y0000105D01*
X0116205Y0000073D01*
X0115965Y0000047D01*
X0115724Y0000026D01*
X0115483Y0000012D01*
X0115242Y0000003D01*
X0115000Y0000000D01*
X0010000Y0000000D01*
X0009758Y0000003D01*
X0009517Y0000012D01*
X0009276Y0000026D01*
X0009035Y0000047D01*
X0008795Y0000073D01*
X0008555Y0000105D01*
X0008316Y0000143D01*
X0008079Y0000186D01*
X0007842Y0000236D01*
X0007607Y0000291D01*
X0007373Y0000351D01*
X0007141Y0000418D01*
X0006910Y0000489D01*
X0006681Y0000567D01*
X0006454Y0000650D01*
X0006229Y0000738D01*
X0006006Y0000832D01*
X0005786Y0000931D01*
X0005568Y0001036D01*
X0005353Y0001145D01*
X0005140Y0001260D01*
X0004930Y0001380D01*
X0004724Y0001505D01*
X0004520Y0001635D01*
X0004319Y0001770D01*
X0004122Y0001910D01*
X0003928Y0002054D01*
X0003738Y0002203D01*
X0003552Y0002357D01*
X0003369Y0002515D01*
X0003190Y0002677D01*
X0003015Y0002844D01*
X0002844Y0003015D01*
X0002677Y0003190D01*
X0002515Y0003369D01*
X0002357Y0003552D01*
X0002203Y0003738D01*
X0002054Y0003928D01*
X0001910Y0004122D01*
X0001770Y0004319D01*
X0001635Y0004520D01*
X0001505Y0004724D01*
X0001380Y0004930D01*
X0001260Y0005140D01*
X0001145Y0005353D01*
X0001036Y0005568D01*
X0000931Y0005786D01*
X0000832Y0006006D01*
X0000738Y0006229D01*
X0000650Y0006454D01*
X0000567Y0006681D01*
X0000489Y0006910D01*
X0000418Y0007141D01*
X0000351Y0007373D01*
X0000291Y0007607D01*
X0000236Y0007842D01*
X0000186Y0008079D01*
X0000143Y0008316D01*
X0000105Y0008555D01*
X0000073Y0008795D01*
X0000047Y0009035D01*
X0000026Y0009276D01*
X0000012Y0009517D01*
X0000003Y0009758D01*
X0000000Y0010000D01*
X0070886Y0122500D02*
X0074114Y0122500D01*
X0074114Y0127500D02*
X0070886Y0127500D01*
D11*
X0018327Y0066412D03*
X0018105Y0066182D03*
X0017884Y0066072D03*
X0017551Y0065852D03*
X0017327Y0065742D03*
X0017105Y0065632D03*
X0014105Y0079632D03*
X0013995Y0079632D03*
X0013884Y0079632D03*
X0013773Y0079632D03*
X0014216Y0079742D03*
X0014327Y0079742D03*
X0014551Y0079852D03*
X0014662Y0079852D03*
X0014773Y0079852D03*
X0014884Y0079962D03*
X0014995Y0079962D03*
X0015105Y0080072D03*
X0015216Y0080182D03*
X0015327Y0080182D03*
X0015551Y0080412D03*
X0013327Y0079522D03*
X0013216Y0079522D03*
X0013105Y0079522D03*
X0012995Y0079522D03*
X0009884Y0081412D03*
X0006216Y0082072D03*
X0007105Y0085852D03*
X0007105Y0090742D03*
X0008551Y0095632D03*
X0007884Y0096522D03*
X0007773Y0096632D03*
X0007662Y0096742D03*
X0007327Y0097182D03*
X0010105Y0103522D03*
X0011327Y0102852D03*
X0012884Y0089522D03*
X0012995Y0089522D03*
D12*
X0006327Y0071742D03*
D13*
X0006327Y0082022D03*
D14*
X0006327Y0087907D03*
X0019551Y0083907D03*
X0019551Y0072907D03*
D15*
X0006439Y0072242D03*
D16*
X0006439Y0081962D03*
D17*
X0006439Y0087687D03*
D18*
X0006439Y0092187D03*
X0019439Y0073187D03*
D19*
X0006439Y0095297D03*
D20*
X0006439Y0098522D03*
X0018439Y0086072D03*
X0011439Y0079632D03*
D21*
X0006551Y0072687D03*
X0011551Y0101907D03*
D22*
X0006551Y0081852D03*
X0006884Y0073852D03*
X0018662Y0080852D03*
D23*
X0006551Y0087632D03*
D24*
X0008662Y0087632D03*
X0006551Y0092182D03*
D25*
X0007551Y0090407D03*
X0007662Y0090407D03*
X0007773Y0090407D03*
X0007773Y0095297D03*
X0007884Y0095297D03*
X0007662Y0095297D03*
X0007551Y0095297D03*
X0007327Y0095297D03*
X0007216Y0095297D03*
X0007105Y0095297D03*
X0006995Y0095297D03*
X0006884Y0095297D03*
X0006773Y0095297D03*
X0006662Y0095297D03*
X0006551Y0095297D03*
X0009995Y0103407D03*
X0010995Y0103187D03*
X0011105Y0103187D03*
X0014995Y0084187D03*
D26*
X0007216Y0097407D03*
X0006551Y0098407D03*
D27*
X0006662Y0073072D03*
D28*
X0006662Y0081742D03*
X0017884Y0077962D03*
D29*
X0013773Y0076297D03*
X0008216Y0087407D03*
X0006662Y0087517D03*
X0008327Y0092077D03*
D30*
X0006662Y0092187D03*
D31*
X0006662Y0098297D03*
X0013662Y0089517D03*
X0010884Y0077517D03*
X0010551Y0077407D03*
X0010327Y0077297D03*
X0010216Y0077297D03*
X0010105Y0077187D03*
X0009884Y0077077D03*
X0019216Y0067297D03*
D32*
X0020551Y0070467D03*
X0019662Y0072467D03*
X0006995Y0074127D03*
X0006773Y0073467D03*
D33*
X0006773Y0081687D03*
X0018884Y0081907D03*
D34*
X0008216Y0092132D03*
X0006995Y0092132D03*
X0006773Y0087462D03*
X0006995Y0087242D03*
X0011662Y0101132D03*
X0012884Y0109352D03*
D35*
X0006884Y0092132D03*
X0006773Y0092132D03*
X0008327Y0087462D03*
D36*
X0008105Y0086352D03*
X0007995Y0093132D03*
X0008105Y0095912D03*
X0006773Y0098242D03*
X0019551Y0067912D03*
D37*
X0006884Y0067907D03*
X0015662Y0083907D03*
X0015773Y0083907D03*
X0015884Y0083907D03*
D38*
X0019327Y0083737D03*
X0008105Y0092077D03*
X0006884Y0087407D03*
X0006884Y0081517D03*
D39*
X0007995Y0095967D03*
X0006884Y0098187D03*
D40*
X0008551Y0098852D03*
X0013662Y0087962D03*
X0015327Y0083962D03*
X0015551Y0083852D03*
X0010105Y0079962D03*
X0009995Y0079962D03*
X0006995Y0067742D03*
X0007105Y0067632D03*
X0012551Y0110962D03*
D41*
X0011327Y0108407D03*
X0006995Y0081407D03*
D42*
X0019105Y0073967D03*
X0006995Y0098077D03*
D43*
X0008551Y0092127D03*
X0007105Y0074467D03*
D44*
X0007105Y0081242D03*
D45*
X0007773Y0083357D03*
X0007884Y0083467D03*
X0007995Y0083467D03*
X0008105Y0083467D03*
X0008216Y0083357D03*
X0007995Y0085907D03*
X0010105Y0081237D03*
X0010216Y0081127D03*
X0010327Y0081127D03*
X0010551Y0081017D03*
X0010884Y0081017D03*
X0012773Y0079577D03*
X0012884Y0079577D03*
X0013551Y0079577D03*
X0013662Y0079577D03*
X0015662Y0080467D03*
X0015773Y0080577D03*
X0014773Y0084467D03*
X0012773Y0089467D03*
X0012662Y0089467D03*
X0012551Y0089467D03*
X0007105Y0093577D03*
X0007551Y0096907D03*
X0018773Y0085687D03*
X0019662Y0083907D03*
X0017995Y0066127D03*
X0017773Y0066017D03*
X0017662Y0065907D03*
X0017216Y0065687D03*
X0016995Y0065577D03*
X0016773Y0065467D03*
X0016551Y0065357D03*
X0016327Y0065237D03*
X0016216Y0065237D03*
X0015995Y0065127D03*
X0015884Y0065127D03*
X0015662Y0065017D03*
X0015551Y0065017D03*
X0015216Y0064907D03*
X0015105Y0064907D03*
X0014773Y0064797D03*
X0014662Y0064797D03*
X0014551Y0064797D03*
X0014105Y0064687D03*
X0013995Y0064687D03*
X0013884Y0064687D03*
X0013773Y0064687D03*
X0013662Y0064687D03*
X0012884Y0064687D03*
X0012773Y0064687D03*
X0012662Y0064687D03*
X0012551Y0064687D03*
X0012327Y0064687D03*
X0012216Y0064687D03*
X0011662Y0064797D03*
X0011551Y0064797D03*
D46*
X0019327Y0073462D03*
X0018884Y0074572D03*
X0017773Y0078022D03*
X0008662Y0076572D03*
X0007105Y0098022D03*
X0012773Y0110132D03*
D47*
X0012216Y0094517D03*
X0014551Y0090077D03*
X0018216Y0086187D03*
X0009773Y0080077D03*
X0007216Y0067407D03*
D48*
X0007216Y0074797D03*
D49*
X0007216Y0081072D03*
X0011105Y0107742D03*
D50*
X0007884Y0085742D03*
X0007216Y0085742D03*
X0010662Y0080962D03*
X0010773Y0080962D03*
X0015884Y0080632D03*
X0016662Y0065412D03*
X0016105Y0065182D03*
X0015327Y0064962D03*
X0014995Y0064852D03*
X0014884Y0064852D03*
X0014327Y0064742D03*
X0014216Y0064742D03*
X0013551Y0064632D03*
X0013327Y0064632D03*
X0013216Y0064632D03*
X0013105Y0064632D03*
X0012995Y0064632D03*
X0012105Y0064742D03*
X0011995Y0064742D03*
X0011884Y0064742D03*
X0011773Y0064742D03*
X0011327Y0064852D03*
X0011216Y0064852D03*
X0011105Y0064852D03*
X0010995Y0064962D03*
X0010884Y0064962D03*
X0010773Y0064962D03*
X0010662Y0064962D03*
X0010216Y0065182D03*
X0010105Y0065182D03*
X0009662Y0065412D03*
X0009216Y0065632D03*
X0008995Y0065742D03*
X0008662Y0065962D03*
D51*
X0010327Y0065072D03*
X0010551Y0065072D03*
X0015773Y0065072D03*
X0016884Y0065522D03*
X0012662Y0079522D03*
X0012551Y0079522D03*
X0012327Y0079522D03*
X0012216Y0079522D03*
X0012105Y0079522D03*
X0007995Y0090522D03*
X0007216Y0090522D03*
D52*
X0007327Y0090467D03*
X0007884Y0090467D03*
X0007884Y0093797D03*
X0007773Y0093797D03*
X0007662Y0093797D03*
X0007551Y0093797D03*
X0007327Y0093797D03*
X0007216Y0093797D03*
X0008662Y0095577D03*
X0011216Y0103017D03*
X0007773Y0085687D03*
X0007551Y0085577D03*
X0007327Y0085577D03*
X0011105Y0079687D03*
X0011216Y0079687D03*
X0011551Y0079577D03*
X0011662Y0079577D03*
X0011773Y0079577D03*
X0011884Y0079577D03*
X0011995Y0079577D03*
X0015995Y0080687D03*
X0018662Y0085907D03*
X0007995Y0066577D03*
X0008105Y0066467D03*
X0008551Y0066017D03*
X0008773Y0065907D03*
X0008884Y0065797D03*
X0009105Y0065687D03*
X0009327Y0065577D03*
X0009551Y0065467D03*
D53*
X0007773Y0066742D03*
X0007662Y0066852D03*
X0010773Y0079742D03*
X0010884Y0079742D03*
X0010995Y0079742D03*
X0008327Y0098852D03*
X0008216Y0098852D03*
X0008105Y0098852D03*
X0007995Y0098852D03*
X0007884Y0098852D03*
X0007773Y0098852D03*
X0007662Y0098852D03*
X0007551Y0098852D03*
X0007327Y0098852D03*
X0007216Y0098852D03*
X0012105Y0110742D03*
D54*
X0010884Y0103242D03*
X0010773Y0103242D03*
X0018327Y0086132D03*
X0007327Y0067242D03*
D55*
X0007327Y0078572D03*
D56*
X0007439Y0067132D03*
D57*
X0007439Y0078687D03*
D58*
X0007439Y0085577D03*
X0007439Y0093797D03*
X0008439Y0066127D03*
D59*
X0007439Y0090407D03*
X0007439Y0095297D03*
D60*
X0007439Y0097072D03*
X0014439Y0079742D03*
D61*
X0008439Y0098852D03*
X0007439Y0098852D03*
D62*
X0011662Y0110522D03*
X0011884Y0110632D03*
X0007662Y0085632D03*
X0011327Y0079632D03*
X0015105Y0084072D03*
X0018551Y0085962D03*
X0007551Y0066962D03*
X0007884Y0066632D03*
D63*
X0007551Y0077852D03*
D64*
X0007551Y0083242D03*
X0008327Y0083242D03*
D65*
X0007662Y0077632D03*
D66*
X0009995Y0081297D03*
X0007662Y0083297D03*
X0018216Y0066297D03*
D67*
X0007773Y0077577D03*
D68*
X0007884Y0077517D03*
D69*
X0007995Y0077462D03*
X0019995Y0070462D03*
D70*
X0019105Y0083412D03*
X0008105Y0077412D03*
D71*
X0010216Y0079907D03*
X0010327Y0079907D03*
X0010551Y0079797D03*
X0010662Y0079797D03*
X0015216Y0084017D03*
X0016105Y0080907D03*
X0008105Y0088797D03*
X0011773Y0110577D03*
X0011995Y0110687D03*
X0012216Y0110797D03*
X0012327Y0110907D03*
X0012662Y0111017D03*
D72*
X0008216Y0066352D03*
X0008327Y0066242D03*
X0009773Y0065352D03*
X0009995Y0065242D03*
D73*
X0008216Y0077297D03*
X0013773Y0103407D03*
D74*
X0008216Y0095852D03*
X0009327Y0076742D03*
D75*
X0008327Y0077187D03*
D76*
X0009662Y0076962D03*
X0011216Y0077632D03*
X0011662Y0077742D03*
X0012216Y0077852D03*
X0012327Y0077852D03*
X0012662Y0077852D03*
X0008327Y0095742D03*
D77*
X0008439Y0077077D03*
X0020439Y0070407D03*
D78*
X0008439Y0083187D03*
D79*
X0008439Y0087517D03*
X0008439Y0092077D03*
D80*
X0008439Y0095687D03*
X0012439Y0077907D03*
X0011439Y0077687D03*
D81*
X0008551Y0076907D03*
D82*
X0010995Y0077577D03*
X0011105Y0077577D03*
X0011327Y0077687D03*
X0011551Y0077687D03*
X0012551Y0077907D03*
X0008551Y0083017D03*
X0014662Y0084687D03*
X0018995Y0067017D03*
X0010216Y0103687D03*
D83*
X0008551Y0087577D03*
D84*
X0009105Y0080352D03*
X0009216Y0080242D03*
X0009327Y0080242D03*
X0008662Y0077912D03*
X0016327Y0084352D03*
X0017551Y0086462D03*
D85*
X0008773Y0082797D03*
X0008662Y0082907D03*
X0009551Y0076907D03*
X0009216Y0076687D03*
X0010327Y0103797D03*
X0011551Y0109907D03*
D86*
X0010884Y0105522D03*
X0008662Y0092072D03*
X0018551Y0075522D03*
D87*
X0008662Y0098852D03*
D88*
X0008884Y0082627D03*
X0011216Y0081407D03*
X0008995Y0076517D03*
X0008884Y0076407D03*
X0008773Y0076407D03*
D89*
X0008773Y0087797D03*
X0018773Y0074797D03*
D90*
X0013884Y0076462D03*
X0009995Y0077132D03*
X0009773Y0077022D03*
X0009105Y0076572D03*
X0009327Y0082022D03*
X0009216Y0082132D03*
X0008995Y0082462D03*
X0019327Y0067462D03*
D91*
X0009105Y0082352D03*
X0018884Y0085352D03*
D92*
X0012439Y0079522D03*
X0009439Y0065522D03*
X0010439Y0065072D03*
D93*
X0009439Y0076797D03*
D94*
X0009439Y0080187D03*
D95*
X0009439Y0081852D03*
D96*
X0009551Y0080187D03*
X0016216Y0084187D03*
X0017662Y0086407D03*
D97*
X0013551Y0089522D03*
X0009551Y0081742D03*
X0009662Y0081632D03*
X0009773Y0081522D03*
X0018884Y0066852D03*
D98*
X0017662Y0078132D03*
X0015995Y0084022D03*
X0017773Y0086352D03*
X0017884Y0086352D03*
X0018105Y0086242D03*
X0014551Y0087242D03*
X0009884Y0080022D03*
X0009662Y0080132D03*
D99*
X0014884Y0084297D03*
X0009884Y0065297D03*
D100*
X0017995Y0086297D03*
X0009884Y0103297D03*
D101*
X0010439Y0077352D03*
D102*
X0010439Y0079797D03*
X0015439Y0083907D03*
X0012439Y0110907D03*
D103*
X0012439Y0089467D03*
X0010439Y0081017D03*
X0013439Y0079577D03*
X0017439Y0065797D03*
X0016439Y0065357D03*
X0012439Y0064687D03*
D104*
X0010439Y0103967D03*
D105*
X0010551Y0104187D03*
X0010773Y0105077D03*
X0018662Y0075187D03*
D106*
X0019105Y0067132D03*
X0010773Y0077462D03*
X0010662Y0077462D03*
X0011105Y0081242D03*
D107*
X0010662Y0104352D03*
D108*
X0013105Y0089467D03*
X0013216Y0089467D03*
X0013327Y0089467D03*
X0010995Y0081127D03*
X0018551Y0066577D03*
D109*
X0018551Y0080352D03*
X0010995Y0106242D03*
D110*
X0011216Y0108072D03*
D111*
X0011327Y0081687D03*
D112*
X0015439Y0064962D03*
X0014439Y0064742D03*
X0013439Y0064632D03*
X0011439Y0064852D03*
D113*
X0011439Y0084682D03*
D114*
X0011439Y0102462D03*
D115*
X0011439Y0108742D03*
D116*
X0011551Y0086742D03*
D117*
X0011662Y0087962D03*
D118*
X0011773Y0077797D03*
X0011884Y0077797D03*
X0011995Y0077797D03*
X0012105Y0077797D03*
D119*
X0011773Y0091912D03*
D120*
X0011884Y0090912D03*
D121*
X0011995Y0090077D03*
D122*
X0012105Y0089242D03*
D123*
X0012216Y0087852D03*
D124*
X0012327Y0086022D03*
D125*
X0012439Y0084017D03*
D126*
X0012662Y0076297D03*
D127*
X0012773Y0076572D03*
D128*
X0012884Y0075907D03*
D129*
X0012995Y0075352D03*
X0019773Y0070462D03*
D130*
X0012995Y0108907D03*
D131*
X0013105Y0074682D03*
D132*
X0013105Y0108462D03*
D133*
X0013216Y0074072D03*
D134*
X0013216Y0107852D03*
D135*
X0013327Y0074517D03*
D136*
X0013327Y0107352D03*
D137*
X0013439Y0075017D03*
D138*
X0013439Y0089522D03*
D139*
X0013439Y0106682D03*
D140*
X0013551Y0075462D03*
X0019884Y0070462D03*
D141*
X0013551Y0105852D03*
D142*
X0013662Y0075907D03*
D143*
X0013662Y0104632D03*
D144*
X0013773Y0088072D03*
D145*
X0013884Y0087962D03*
X0018216Y0077962D03*
D146*
X0013995Y0088242D03*
D147*
X0014105Y0089352D03*
D148*
X0014216Y0089687D03*
D149*
X0014327Y0089407D03*
D150*
X0014439Y0088687D03*
D151*
X0014551Y0085352D03*
D152*
X0016105Y0084077D03*
X0014551Y0088627D03*
D153*
X0015439Y0080297D03*
D154*
X0016439Y0084462D03*
D155*
X0017995Y0077967D03*
D156*
X0018105Y0077962D03*
X0020216Y0070412D03*
D157*
X0018327Y0078022D03*
D158*
X0018439Y0066467D03*
D159*
X0018439Y0078017D03*
D160*
X0018773Y0066797D03*
X0018662Y0066687D03*
D161*
X0018773Y0081297D03*
D162*
X0018995Y0074297D03*
X0019662Y0068187D03*
D163*
X0018995Y0083297D03*
D164*
X0019216Y0073742D03*
D165*
X0019216Y0083577D03*
D166*
X0019439Y0067627D03*
D167*
X0019439Y0083742D03*
D168*
X0020105Y0070407D03*
D169*
X0020327Y0070462D03*
D170*
X0020662Y0070462D03*
D171*
X0125000Y0195472D02*
X0124848Y0195474D01*
X0124696Y0195480D01*
X0124544Y0195490D01*
X0124393Y0195503D01*
X0124242Y0195521D01*
X0124091Y0195542D01*
X0123941Y0195568D01*
X0123792Y0195597D01*
X0123643Y0195630D01*
X0123496Y0195667D01*
X0123349Y0195707D01*
X0123204Y0195752D01*
X0123060Y0195800D01*
X0122917Y0195852D01*
X0122775Y0195907D01*
X0122635Y0195966D01*
X0122496Y0196029D01*
X0122359Y0196095D01*
X0122224Y0196165D01*
X0122091Y0196238D01*
X0121960Y0196315D01*
X0121830Y0196395D01*
X0121703Y0196478D01*
X0121578Y0196564D01*
X0121455Y0196654D01*
X0121335Y0196747D01*
X0121217Y0196843D01*
X0121101Y0196942D01*
X0120988Y0197044D01*
X0120878Y0197148D01*
X0120770Y0197256D01*
X0120666Y0197366D01*
X0120564Y0197479D01*
X0120465Y0197595D01*
X0120369Y0197713D01*
X0120276Y0197833D01*
X0120186Y0197956D01*
X0120100Y0198081D01*
X0120017Y0198208D01*
X0119937Y0198338D01*
X0119860Y0198469D01*
X0119787Y0198602D01*
X0119717Y0198737D01*
X0119651Y0198874D01*
X0119588Y0199013D01*
X0119529Y0199153D01*
X0119474Y0199295D01*
X0119422Y0199438D01*
X0119374Y0199582D01*
X0119329Y0199727D01*
X0119289Y0199874D01*
X0119252Y0200021D01*
X0119219Y0200170D01*
X0119190Y0200319D01*
X0119164Y0200469D01*
X0119143Y0200620D01*
X0119125Y0200771D01*
X0119112Y0200922D01*
X0119102Y0201074D01*
X0119096Y0201226D01*
X0119094Y0201378D01*
X0119096Y0201530D01*
X0119102Y0201682D01*
X0119112Y0201834D01*
X0119125Y0201985D01*
X0119143Y0202136D01*
X0119164Y0202287D01*
X0119190Y0202437D01*
X0119219Y0202586D01*
X0119252Y0202735D01*
X0119289Y0202882D01*
X0119329Y0203029D01*
X0119374Y0203174D01*
X0119422Y0203318D01*
X0119474Y0203461D01*
X0119529Y0203603D01*
X0119588Y0203743D01*
X0119651Y0203882D01*
X0119717Y0204019D01*
X0119787Y0204154D01*
X0119860Y0204287D01*
X0119937Y0204418D01*
X0120017Y0204548D01*
X0120100Y0204675D01*
X0120186Y0204800D01*
X0120276Y0204923D01*
X0120369Y0205043D01*
X0120465Y0205161D01*
X0120564Y0205277D01*
X0120666Y0205390D01*
X0120770Y0205500D01*
X0120878Y0205608D01*
X0120988Y0205712D01*
X0121101Y0205814D01*
X0121217Y0205913D01*
X0121335Y0206009D01*
X0121455Y0206102D01*
X0121578Y0206192D01*
X0121703Y0206278D01*
X0121830Y0206361D01*
X0121960Y0206441D01*
X0122091Y0206518D01*
X0122224Y0206591D01*
X0122359Y0206661D01*
X0122496Y0206727D01*
X0122635Y0206790D01*
X0122775Y0206849D01*
X0122917Y0206904D01*
X0123060Y0206956D01*
X0123204Y0207004D01*
X0123349Y0207049D01*
X0123496Y0207089D01*
X0123643Y0207126D01*
X0123792Y0207159D01*
X0123941Y0207188D01*
X0124091Y0207214D01*
X0124242Y0207235D01*
X0124393Y0207253D01*
X0124544Y0207266D01*
X0124696Y0207276D01*
X0124848Y0207282D01*
X0125000Y0207284D01*
D172*
X0098268Y0204717D02*
X0098270Y0204796D01*
X0098276Y0204875D01*
X0098286Y0204954D01*
X0098300Y0205032D01*
X0098317Y0205109D01*
X0098339Y0205185D01*
X0098364Y0205260D01*
X0098394Y0205333D01*
X0098426Y0205405D01*
X0098463Y0205476D01*
X0098503Y0205544D01*
X0098546Y0205610D01*
X0098592Y0205674D01*
X0098642Y0205736D01*
X0098695Y0205795D01*
X0098750Y0205851D01*
X0098809Y0205905D01*
X0098870Y0205955D01*
X0098933Y0206003D01*
X0098999Y0206047D01*
X0099067Y0206088D01*
X0099137Y0206125D01*
X0099208Y0206159D01*
X0099282Y0206189D01*
X0099356Y0206215D01*
X0099432Y0206237D01*
X0099509Y0206256D01*
X0099587Y0206271D01*
X0099665Y0206282D01*
X0099744Y0206289D01*
X0099823Y0206292D01*
X0099902Y0206291D01*
X0099981Y0206286D01*
X0100060Y0206277D01*
X0100138Y0206264D01*
X0100215Y0206247D01*
X0100292Y0206227D01*
X0100367Y0206202D01*
X0100441Y0206174D01*
X0100514Y0206142D01*
X0100584Y0206107D01*
X0100653Y0206068D01*
X0100720Y0206025D01*
X0100785Y0205979D01*
X0100847Y0205931D01*
X0100907Y0205879D01*
X0100964Y0205824D01*
X0101018Y0205766D01*
X0101069Y0205706D01*
X0101117Y0205643D01*
X0101162Y0205578D01*
X0101204Y0205510D01*
X0101242Y0205441D01*
X0101276Y0205370D01*
X0101307Y0205297D01*
X0101335Y0205222D01*
X0101358Y0205147D01*
X0101378Y0205070D01*
X0101394Y0204993D01*
X0101406Y0204914D01*
X0101414Y0204836D01*
X0101418Y0204757D01*
X0101418Y0204677D01*
X0101414Y0204598D01*
X0101406Y0204520D01*
X0101394Y0204441D01*
X0101378Y0204364D01*
X0101358Y0204287D01*
X0101335Y0204212D01*
X0101307Y0204137D01*
X0101276Y0204064D01*
X0101242Y0203993D01*
X0101204Y0203924D01*
X0101162Y0203856D01*
X0101117Y0203791D01*
X0101069Y0203728D01*
X0101018Y0203668D01*
X0100964Y0203610D01*
X0100907Y0203555D01*
X0100847Y0203503D01*
X0100785Y0203455D01*
X0100720Y0203409D01*
X0100653Y0203366D01*
X0100584Y0203327D01*
X0100514Y0203292D01*
X0100441Y0203260D01*
X0100367Y0203232D01*
X0100292Y0203207D01*
X0100215Y0203187D01*
X0100138Y0203170D01*
X0100060Y0203157D01*
X0099981Y0203148D01*
X0099902Y0203143D01*
X0099823Y0203142D01*
X0099744Y0203145D01*
X0099665Y0203152D01*
X0099587Y0203163D01*
X0099509Y0203178D01*
X0099432Y0203197D01*
X0099356Y0203219D01*
X0099282Y0203245D01*
X0099208Y0203275D01*
X0099137Y0203309D01*
X0099067Y0203346D01*
X0098999Y0203387D01*
X0098933Y0203431D01*
X0098870Y0203479D01*
X0098809Y0203529D01*
X0098750Y0203583D01*
X0098695Y0203639D01*
X0098642Y0203698D01*
X0098592Y0203760D01*
X0098546Y0203824D01*
X0098503Y0203890D01*
X0098463Y0203958D01*
X0098426Y0204029D01*
X0098394Y0204101D01*
X0098364Y0204174D01*
X0098339Y0204249D01*
X0098317Y0204325D01*
X0098300Y0204402D01*
X0098286Y0204480D01*
X0098276Y0204559D01*
X0098270Y0204638D01*
X0098268Y0204717D01*
X0078582Y0204717D02*
X0078584Y0204796D01*
X0078590Y0204875D01*
X0078600Y0204954D01*
X0078614Y0205032D01*
X0078631Y0205109D01*
X0078653Y0205185D01*
X0078678Y0205260D01*
X0078708Y0205333D01*
X0078740Y0205405D01*
X0078777Y0205476D01*
X0078817Y0205544D01*
X0078860Y0205610D01*
X0078906Y0205674D01*
X0078956Y0205736D01*
X0079009Y0205795D01*
X0079064Y0205851D01*
X0079123Y0205905D01*
X0079184Y0205955D01*
X0079247Y0206003D01*
X0079313Y0206047D01*
X0079381Y0206088D01*
X0079451Y0206125D01*
X0079522Y0206159D01*
X0079596Y0206189D01*
X0079670Y0206215D01*
X0079746Y0206237D01*
X0079823Y0206256D01*
X0079901Y0206271D01*
X0079979Y0206282D01*
X0080058Y0206289D01*
X0080137Y0206292D01*
X0080216Y0206291D01*
X0080295Y0206286D01*
X0080374Y0206277D01*
X0080452Y0206264D01*
X0080529Y0206247D01*
X0080606Y0206227D01*
X0080681Y0206202D01*
X0080755Y0206174D01*
X0080828Y0206142D01*
X0080898Y0206107D01*
X0080967Y0206068D01*
X0081034Y0206025D01*
X0081099Y0205979D01*
X0081161Y0205931D01*
X0081221Y0205879D01*
X0081278Y0205824D01*
X0081332Y0205766D01*
X0081383Y0205706D01*
X0081431Y0205643D01*
X0081476Y0205578D01*
X0081518Y0205510D01*
X0081556Y0205441D01*
X0081590Y0205370D01*
X0081621Y0205297D01*
X0081649Y0205222D01*
X0081672Y0205147D01*
X0081692Y0205070D01*
X0081708Y0204993D01*
X0081720Y0204914D01*
X0081728Y0204836D01*
X0081732Y0204757D01*
X0081732Y0204677D01*
X0081728Y0204598D01*
X0081720Y0204520D01*
X0081708Y0204441D01*
X0081692Y0204364D01*
X0081672Y0204287D01*
X0081649Y0204212D01*
X0081621Y0204137D01*
X0081590Y0204064D01*
X0081556Y0203993D01*
X0081518Y0203924D01*
X0081476Y0203856D01*
X0081431Y0203791D01*
X0081383Y0203728D01*
X0081332Y0203668D01*
X0081278Y0203610D01*
X0081221Y0203555D01*
X0081161Y0203503D01*
X0081099Y0203455D01*
X0081034Y0203409D01*
X0080967Y0203366D01*
X0080898Y0203327D01*
X0080828Y0203292D01*
X0080755Y0203260D01*
X0080681Y0203232D01*
X0080606Y0203207D01*
X0080529Y0203187D01*
X0080452Y0203170D01*
X0080374Y0203157D01*
X0080295Y0203148D01*
X0080216Y0203143D01*
X0080137Y0203142D01*
X0080058Y0203145D01*
X0079979Y0203152D01*
X0079901Y0203163D01*
X0079823Y0203178D01*
X0079746Y0203197D01*
X0079670Y0203219D01*
X0079596Y0203245D01*
X0079522Y0203275D01*
X0079451Y0203309D01*
X0079381Y0203346D01*
X0079313Y0203387D01*
X0079247Y0203431D01*
X0079184Y0203479D01*
X0079123Y0203529D01*
X0079064Y0203583D01*
X0079009Y0203639D01*
X0078956Y0203698D01*
X0078906Y0203760D01*
X0078860Y0203824D01*
X0078817Y0203890D01*
X0078777Y0203958D01*
X0078740Y0204029D01*
X0078708Y0204101D01*
X0078678Y0204174D01*
X0078653Y0204249D01*
X0078631Y0204325D01*
X0078614Y0204402D01*
X0078600Y0204480D01*
X0078590Y0204559D01*
X0078584Y0204638D01*
X0078582Y0204717D01*
X0053524Y0212087D02*
X0053526Y0212164D01*
X0053532Y0212240D01*
X0053542Y0212316D01*
X0053556Y0212391D01*
X0053573Y0212466D01*
X0053595Y0212539D01*
X0053620Y0212612D01*
X0053650Y0212683D01*
X0053682Y0212752D01*
X0053719Y0212819D01*
X0053758Y0212885D01*
X0053801Y0212948D01*
X0053848Y0213009D01*
X0053897Y0213068D01*
X0053950Y0213124D01*
X0054005Y0213177D01*
X0054063Y0213227D01*
X0054123Y0213274D01*
X0054186Y0213318D01*
X0054251Y0213359D01*
X0054318Y0213396D01*
X0054387Y0213430D01*
X0054457Y0213460D01*
X0054529Y0213486D01*
X0054603Y0213508D01*
X0054677Y0213527D01*
X0054752Y0213542D01*
X0054828Y0213553D01*
X0054904Y0213560D01*
X0054981Y0213563D01*
X0055057Y0213562D01*
X0055134Y0213557D01*
X0055210Y0213548D01*
X0055286Y0213535D01*
X0055360Y0213518D01*
X0055434Y0213498D01*
X0055507Y0213473D01*
X0055578Y0213445D01*
X0055648Y0213413D01*
X0055716Y0213378D01*
X0055782Y0213339D01*
X0055846Y0213297D01*
X0055907Y0213251D01*
X0055967Y0213202D01*
X0056023Y0213151D01*
X0056077Y0213096D01*
X0056128Y0213039D01*
X0056176Y0212979D01*
X0056221Y0212917D01*
X0056262Y0212852D01*
X0056300Y0212786D01*
X0056335Y0212718D01*
X0056365Y0212647D01*
X0056393Y0212576D01*
X0056416Y0212503D01*
X0056436Y0212429D01*
X0056452Y0212354D01*
X0056464Y0212278D01*
X0056472Y0212202D01*
X0056476Y0212125D01*
X0056476Y0212049D01*
X0056472Y0211972D01*
X0056464Y0211896D01*
X0056452Y0211820D01*
X0056436Y0211745D01*
X0056416Y0211671D01*
X0056393Y0211598D01*
X0056365Y0211527D01*
X0056335Y0211456D01*
X0056300Y0211388D01*
X0056262Y0211322D01*
X0056221Y0211257D01*
X0056176Y0211195D01*
X0056128Y0211135D01*
X0056077Y0211078D01*
X0056023Y0211023D01*
X0055967Y0210972D01*
X0055907Y0210923D01*
X0055846Y0210877D01*
X0055782Y0210835D01*
X0055716Y0210796D01*
X0055648Y0210761D01*
X0055578Y0210729D01*
X0055507Y0210701D01*
X0055434Y0210676D01*
X0055360Y0210656D01*
X0055286Y0210639D01*
X0055210Y0210626D01*
X0055134Y0210617D01*
X0055057Y0210612D01*
X0054981Y0210611D01*
X0054904Y0210614D01*
X0054828Y0210621D01*
X0054752Y0210632D01*
X0054677Y0210647D01*
X0054603Y0210666D01*
X0054529Y0210688D01*
X0054457Y0210714D01*
X0054387Y0210744D01*
X0054318Y0210778D01*
X0054251Y0210815D01*
X0054186Y0210856D01*
X0054123Y0210900D01*
X0054063Y0210947D01*
X0054005Y0210997D01*
X0053950Y0211050D01*
X0053897Y0211106D01*
X0053848Y0211165D01*
X0053801Y0211226D01*
X0053758Y0211289D01*
X0053719Y0211355D01*
X0053682Y0211422D01*
X0053650Y0211491D01*
X0053620Y0211562D01*
X0053595Y0211635D01*
X0053573Y0211708D01*
X0053556Y0211783D01*
X0053542Y0211858D01*
X0053532Y0211934D01*
X0053526Y0212010D01*
X0053524Y0212087D01*
X0053524Y0222913D02*
X0053526Y0222990D01*
X0053532Y0223066D01*
X0053542Y0223142D01*
X0053556Y0223217D01*
X0053573Y0223292D01*
X0053595Y0223365D01*
X0053620Y0223438D01*
X0053650Y0223509D01*
X0053682Y0223578D01*
X0053719Y0223645D01*
X0053758Y0223711D01*
X0053801Y0223774D01*
X0053848Y0223835D01*
X0053897Y0223894D01*
X0053950Y0223950D01*
X0054005Y0224003D01*
X0054063Y0224053D01*
X0054123Y0224100D01*
X0054186Y0224144D01*
X0054251Y0224185D01*
X0054318Y0224222D01*
X0054387Y0224256D01*
X0054457Y0224286D01*
X0054529Y0224312D01*
X0054603Y0224334D01*
X0054677Y0224353D01*
X0054752Y0224368D01*
X0054828Y0224379D01*
X0054904Y0224386D01*
X0054981Y0224389D01*
X0055057Y0224388D01*
X0055134Y0224383D01*
X0055210Y0224374D01*
X0055286Y0224361D01*
X0055360Y0224344D01*
X0055434Y0224324D01*
X0055507Y0224299D01*
X0055578Y0224271D01*
X0055648Y0224239D01*
X0055716Y0224204D01*
X0055782Y0224165D01*
X0055846Y0224123D01*
X0055907Y0224077D01*
X0055967Y0224028D01*
X0056023Y0223977D01*
X0056077Y0223922D01*
X0056128Y0223865D01*
X0056176Y0223805D01*
X0056221Y0223743D01*
X0056262Y0223678D01*
X0056300Y0223612D01*
X0056335Y0223544D01*
X0056365Y0223473D01*
X0056393Y0223402D01*
X0056416Y0223329D01*
X0056436Y0223255D01*
X0056452Y0223180D01*
X0056464Y0223104D01*
X0056472Y0223028D01*
X0056476Y0222951D01*
X0056476Y0222875D01*
X0056472Y0222798D01*
X0056464Y0222722D01*
X0056452Y0222646D01*
X0056436Y0222571D01*
X0056416Y0222497D01*
X0056393Y0222424D01*
X0056365Y0222353D01*
X0056335Y0222282D01*
X0056300Y0222214D01*
X0056262Y0222148D01*
X0056221Y0222083D01*
X0056176Y0222021D01*
X0056128Y0221961D01*
X0056077Y0221904D01*
X0056023Y0221849D01*
X0055967Y0221798D01*
X0055907Y0221749D01*
X0055846Y0221703D01*
X0055782Y0221661D01*
X0055716Y0221622D01*
X0055648Y0221587D01*
X0055578Y0221555D01*
X0055507Y0221527D01*
X0055434Y0221502D01*
X0055360Y0221482D01*
X0055286Y0221465D01*
X0055210Y0221452D01*
X0055134Y0221443D01*
X0055057Y0221438D01*
X0054981Y0221437D01*
X0054904Y0221440D01*
X0054828Y0221447D01*
X0054752Y0221458D01*
X0054677Y0221473D01*
X0054603Y0221492D01*
X0054529Y0221514D01*
X0054457Y0221540D01*
X0054387Y0221570D01*
X0054318Y0221604D01*
X0054251Y0221641D01*
X0054186Y0221682D01*
X0054123Y0221726D01*
X0054063Y0221773D01*
X0054005Y0221823D01*
X0053950Y0221876D01*
X0053897Y0221932D01*
X0053848Y0221991D01*
X0053801Y0222052D01*
X0053758Y0222115D01*
X0053719Y0222181D01*
X0053682Y0222248D01*
X0053650Y0222317D01*
X0053620Y0222388D01*
X0053595Y0222461D01*
X0053573Y0222534D01*
X0053556Y0222609D01*
X0053542Y0222684D01*
X0053532Y0222760D01*
X0053526Y0222836D01*
X0053524Y0222913D01*
X0023524Y0222913D02*
X0023526Y0222990D01*
X0023532Y0223066D01*
X0023542Y0223142D01*
X0023556Y0223217D01*
X0023573Y0223292D01*
X0023595Y0223365D01*
X0023620Y0223438D01*
X0023650Y0223509D01*
X0023682Y0223578D01*
X0023719Y0223645D01*
X0023758Y0223711D01*
X0023801Y0223774D01*
X0023848Y0223835D01*
X0023897Y0223894D01*
X0023950Y0223950D01*
X0024005Y0224003D01*
X0024063Y0224053D01*
X0024123Y0224100D01*
X0024186Y0224144D01*
X0024251Y0224185D01*
X0024318Y0224222D01*
X0024387Y0224256D01*
X0024457Y0224286D01*
X0024529Y0224312D01*
X0024603Y0224334D01*
X0024677Y0224353D01*
X0024752Y0224368D01*
X0024828Y0224379D01*
X0024904Y0224386D01*
X0024981Y0224389D01*
X0025057Y0224388D01*
X0025134Y0224383D01*
X0025210Y0224374D01*
X0025286Y0224361D01*
X0025360Y0224344D01*
X0025434Y0224324D01*
X0025507Y0224299D01*
X0025578Y0224271D01*
X0025648Y0224239D01*
X0025716Y0224204D01*
X0025782Y0224165D01*
X0025846Y0224123D01*
X0025907Y0224077D01*
X0025967Y0224028D01*
X0026023Y0223977D01*
X0026077Y0223922D01*
X0026128Y0223865D01*
X0026176Y0223805D01*
X0026221Y0223743D01*
X0026262Y0223678D01*
X0026300Y0223612D01*
X0026335Y0223544D01*
X0026365Y0223473D01*
X0026393Y0223402D01*
X0026416Y0223329D01*
X0026436Y0223255D01*
X0026452Y0223180D01*
X0026464Y0223104D01*
X0026472Y0223028D01*
X0026476Y0222951D01*
X0026476Y0222875D01*
X0026472Y0222798D01*
X0026464Y0222722D01*
X0026452Y0222646D01*
X0026436Y0222571D01*
X0026416Y0222497D01*
X0026393Y0222424D01*
X0026365Y0222353D01*
X0026335Y0222282D01*
X0026300Y0222214D01*
X0026262Y0222148D01*
X0026221Y0222083D01*
X0026176Y0222021D01*
X0026128Y0221961D01*
X0026077Y0221904D01*
X0026023Y0221849D01*
X0025967Y0221798D01*
X0025907Y0221749D01*
X0025846Y0221703D01*
X0025782Y0221661D01*
X0025716Y0221622D01*
X0025648Y0221587D01*
X0025578Y0221555D01*
X0025507Y0221527D01*
X0025434Y0221502D01*
X0025360Y0221482D01*
X0025286Y0221465D01*
X0025210Y0221452D01*
X0025134Y0221443D01*
X0025057Y0221438D01*
X0024981Y0221437D01*
X0024904Y0221440D01*
X0024828Y0221447D01*
X0024752Y0221458D01*
X0024677Y0221473D01*
X0024603Y0221492D01*
X0024529Y0221514D01*
X0024457Y0221540D01*
X0024387Y0221570D01*
X0024318Y0221604D01*
X0024251Y0221641D01*
X0024186Y0221682D01*
X0024123Y0221726D01*
X0024063Y0221773D01*
X0024005Y0221823D01*
X0023950Y0221876D01*
X0023897Y0221932D01*
X0023848Y0221991D01*
X0023801Y0222052D01*
X0023758Y0222115D01*
X0023719Y0222181D01*
X0023682Y0222248D01*
X0023650Y0222317D01*
X0023620Y0222388D01*
X0023595Y0222461D01*
X0023573Y0222534D01*
X0023556Y0222609D01*
X0023542Y0222684D01*
X0023532Y0222760D01*
X0023526Y0222836D01*
X0023524Y0222913D01*
X0023524Y0212087D02*
X0023526Y0212164D01*
X0023532Y0212240D01*
X0023542Y0212316D01*
X0023556Y0212391D01*
X0023573Y0212466D01*
X0023595Y0212539D01*
X0023620Y0212612D01*
X0023650Y0212683D01*
X0023682Y0212752D01*
X0023719Y0212819D01*
X0023758Y0212885D01*
X0023801Y0212948D01*
X0023848Y0213009D01*
X0023897Y0213068D01*
X0023950Y0213124D01*
X0024005Y0213177D01*
X0024063Y0213227D01*
X0024123Y0213274D01*
X0024186Y0213318D01*
X0024251Y0213359D01*
X0024318Y0213396D01*
X0024387Y0213430D01*
X0024457Y0213460D01*
X0024529Y0213486D01*
X0024603Y0213508D01*
X0024677Y0213527D01*
X0024752Y0213542D01*
X0024828Y0213553D01*
X0024904Y0213560D01*
X0024981Y0213563D01*
X0025057Y0213562D01*
X0025134Y0213557D01*
X0025210Y0213548D01*
X0025286Y0213535D01*
X0025360Y0213518D01*
X0025434Y0213498D01*
X0025507Y0213473D01*
X0025578Y0213445D01*
X0025648Y0213413D01*
X0025716Y0213378D01*
X0025782Y0213339D01*
X0025846Y0213297D01*
X0025907Y0213251D01*
X0025967Y0213202D01*
X0026023Y0213151D01*
X0026077Y0213096D01*
X0026128Y0213039D01*
X0026176Y0212979D01*
X0026221Y0212917D01*
X0026262Y0212852D01*
X0026300Y0212786D01*
X0026335Y0212718D01*
X0026365Y0212647D01*
X0026393Y0212576D01*
X0026416Y0212503D01*
X0026436Y0212429D01*
X0026452Y0212354D01*
X0026464Y0212278D01*
X0026472Y0212202D01*
X0026476Y0212125D01*
X0026476Y0212049D01*
X0026472Y0211972D01*
X0026464Y0211896D01*
X0026452Y0211820D01*
X0026436Y0211745D01*
X0026416Y0211671D01*
X0026393Y0211598D01*
X0026365Y0211527D01*
X0026335Y0211456D01*
X0026300Y0211388D01*
X0026262Y0211322D01*
X0026221Y0211257D01*
X0026176Y0211195D01*
X0026128Y0211135D01*
X0026077Y0211078D01*
X0026023Y0211023D01*
X0025967Y0210972D01*
X0025907Y0210923D01*
X0025846Y0210877D01*
X0025782Y0210835D01*
X0025716Y0210796D01*
X0025648Y0210761D01*
X0025578Y0210729D01*
X0025507Y0210701D01*
X0025434Y0210676D01*
X0025360Y0210656D01*
X0025286Y0210639D01*
X0025210Y0210626D01*
X0025134Y0210617D01*
X0025057Y0210612D01*
X0024981Y0210611D01*
X0024904Y0210614D01*
X0024828Y0210621D01*
X0024752Y0210632D01*
X0024677Y0210647D01*
X0024603Y0210666D01*
X0024529Y0210688D01*
X0024457Y0210714D01*
X0024387Y0210744D01*
X0024318Y0210778D01*
X0024251Y0210815D01*
X0024186Y0210856D01*
X0024123Y0210900D01*
X0024063Y0210947D01*
X0024005Y0210997D01*
X0023950Y0211050D01*
X0023897Y0211106D01*
X0023848Y0211165D01*
X0023801Y0211226D01*
X0023758Y0211289D01*
X0023719Y0211355D01*
X0023682Y0211422D01*
X0023650Y0211491D01*
X0023620Y0211562D01*
X0023595Y0211635D01*
X0023573Y0211708D01*
X0023556Y0211783D01*
X0023542Y0211858D01*
X0023532Y0211934D01*
X0023526Y0212010D01*
X0023524Y0212087D01*
D173*
X0051000Y0127598D02*
X0054000Y0127598D01*
X0053902Y0122402D02*
X0051000Y0122402D01*
X0109848Y0053848D02*
X0112750Y0053848D01*
X0112750Y0048652D02*
X0109750Y0048652D01*
X0109848Y0045098D02*
X0112750Y0045098D01*
X0112750Y0039902D02*
X0109750Y0039902D01*
X0109848Y0031348D02*
X0112750Y0031348D01*
X0112750Y0026152D02*
X0109750Y0026152D01*
X0100250Y0022598D02*
X0097348Y0022598D01*
X0097250Y0017402D02*
X0100250Y0017402D01*
D174*
X0101627Y0019995D03*
X0095927Y0019995D03*
X0108427Y0028745D03*
X0114127Y0028745D03*
X0114127Y0042495D03*
X0108427Y0042495D03*
X0108427Y0051245D03*
X0114127Y0051245D03*
X0055323Y0125005D03*
X0049623Y0125005D03*
D175*
X0069580Y0124994D03*
X0075380Y0124994D03*
D176*
X0080620Y0054567D02*
X0080620Y0025433D01*
X0101880Y0025433D01*
X0101880Y0054567D01*
X0080620Y0054567D01*
D177*
X0081604Y0047677D02*
X0081604Y0032323D01*
X0100896Y0032323D01*
X0100896Y0047677D01*
X0081604Y0047677D01*
X0095896Y0032323D02*
X0100896Y0037323D01*
D178*
X0100896Y0033701D02*
X0081604Y0033701D01*
X0081604Y0046299D01*
X0100896Y0046299D01*
X0100896Y0033701D01*
X0101407Y0032323D02*
X0101407Y0026417D01*
M02*
