G75*
%MOIN*%
%OFA0B0*%
%FSLAX25Y25*%
%IPPOS*%
%LPD*%
%AMOC8*
5,1,8,0,0,1.08239X$1,22.5*
%
%ADD10R,0.05906X0.05118*%
%ADD11R,0.05118X0.05906*%
%ADD12R,0.03937X0.01181*%
%ADD13R,0.01181X0.03937*%
%ADD14R,0.13189X0.13189*%
%ADD15R,0.02244X0.01654*%
%ADD16R,0.04724X0.04724*%
%ADD17R,0.05709X0.03740*%
%ADD18R,0.05709X0.12795*%
%ADD19R,0.04724X0.03937*%
%ADD20R,0.02362X0.04331*%
%ADD21R,0.01969X0.04232*%
%ADD22R,0.06300X0.04600*%
%ADD23R,0.01772X0.05118*%
%ADD24R,0.03543X0.05906*%
%ADD25R,0.05906X0.03543*%
%ADD26R,0.03543X0.03543*%
%ADD27R,0.02559X0.06016*%
%ADD28R,0.06299X0.04724*%
D10*
X0026250Y0012510D03*
X0026250Y0019990D03*
X0035000Y0019990D03*
X0035000Y0012510D03*
X0043750Y0012510D03*
X0043750Y0019990D03*
X0052500Y0023760D03*
X0052500Y0031240D03*
X0043750Y0038760D03*
X0043750Y0046240D03*
X0052500Y0014990D03*
X0052500Y0007510D03*
X0100000Y0117510D03*
X0100000Y0124990D03*
X0108750Y0124990D03*
X0108750Y0117510D03*
X0105000Y0150010D03*
X0105000Y0157490D03*
X0032500Y0196260D03*
X0032500Y0203740D03*
D11*
X0041260Y0205000D03*
X0041260Y0196250D03*
X0048740Y0196250D03*
X0048740Y0205000D03*
X0057510Y0205000D03*
X0064990Y0205000D03*
X0064990Y0196250D03*
X0057510Y0196250D03*
X0057510Y0187500D03*
X0064990Y0187500D03*
X0082510Y0185000D03*
X0089990Y0185000D03*
X0089990Y0176250D03*
X0082510Y0176250D03*
X0022490Y0171250D03*
X0015010Y0171250D03*
X0015010Y0195000D03*
X0015010Y0205000D03*
X0022490Y0205000D03*
X0022490Y0195000D03*
X0022490Y0146250D03*
X0015010Y0146250D03*
X0027510Y0046250D03*
X0027510Y0037500D03*
X0034990Y0037500D03*
X0034990Y0046250D03*
X0034990Y0028750D03*
X0027510Y0028750D03*
X0052510Y0046250D03*
X0059990Y0046250D03*
X0068760Y0046250D03*
X0076240Y0046250D03*
X0102510Y0063750D03*
X0109990Y0063750D03*
X0074990Y0008750D03*
X0067510Y0008750D03*
D12*
X0048002Y0172844D03*
X0048002Y0174813D03*
X0048002Y0176781D03*
X0048002Y0178750D03*
X0048002Y0180719D03*
X0048002Y0182687D03*
X0048002Y0184656D03*
X0029498Y0184656D03*
X0029498Y0182687D03*
X0029498Y0180719D03*
X0029498Y0178750D03*
X0029498Y0176781D03*
X0029498Y0174813D03*
X0029498Y0172844D03*
D13*
X0032844Y0169498D03*
X0034813Y0169498D03*
X0036781Y0169498D03*
X0038750Y0169498D03*
X0040719Y0169498D03*
X0042687Y0169498D03*
X0044656Y0169498D03*
X0044656Y0188002D03*
X0042687Y0188002D03*
X0040719Y0188002D03*
X0038750Y0188002D03*
X0036781Y0188002D03*
X0034813Y0188002D03*
X0032844Y0188002D03*
D14*
X0038750Y0178750D03*
D15*
X0059449Y0176250D03*
X0059449Y0181250D03*
X0065551Y0181250D03*
X0065551Y0176250D03*
X0096949Y0185000D03*
X0103051Y0185000D03*
D16*
X0073750Y0185384D03*
X0073750Y0177116D03*
D17*
X0095492Y0166516D03*
X0095492Y0157500D03*
X0095492Y0148484D03*
D18*
X0069508Y0157500D03*
D19*
X0066024Y0214154D03*
X0066024Y0220846D03*
X0043976Y0220846D03*
X0043976Y0214154D03*
X0036024Y0214154D03*
X0036024Y0220846D03*
X0013976Y0220846D03*
X0013976Y0214154D03*
D20*
X0018750Y0188081D03*
X0015010Y0179419D03*
X0022490Y0179419D03*
X0018750Y0163081D03*
X0015010Y0154419D03*
X0022490Y0154419D03*
D21*
X0105000Y0167925D03*
X0105000Y0177075D03*
D22*
X0105000Y0140500D03*
X0105000Y0134500D03*
X0100000Y0095500D03*
X0100000Y0089500D03*
D23*
X0095118Y0200583D03*
X0092559Y0200583D03*
X0090000Y0200583D03*
X0087441Y0200583D03*
X0084882Y0200583D03*
D24*
X0086594Y0131949D03*
X0081594Y0131949D03*
X0076594Y0131949D03*
X0071594Y0131949D03*
X0066594Y0131949D03*
X0061594Y0131949D03*
X0056594Y0131949D03*
X0051594Y0131949D03*
X0046594Y0131949D03*
X0041594Y0131949D03*
X0036594Y0131949D03*
X0031594Y0131949D03*
X0026594Y0131949D03*
X0021594Y0131949D03*
X0021594Y0063051D03*
X0026594Y0063051D03*
X0031594Y0063051D03*
X0036594Y0063051D03*
X0041594Y0063051D03*
X0046594Y0063051D03*
X0051594Y0063051D03*
X0056594Y0063051D03*
X0061594Y0063051D03*
X0066594Y0063051D03*
X0071594Y0063051D03*
X0076594Y0063051D03*
X0081594Y0063051D03*
X0086594Y0063051D03*
D25*
X0016673Y0075000D03*
X0016673Y0080000D03*
X0016673Y0085000D03*
X0016673Y0090000D03*
X0016673Y0095000D03*
X0016673Y0100000D03*
X0016673Y0105000D03*
X0016673Y0110000D03*
X0016673Y0115000D03*
X0016673Y0120000D03*
D26*
X0052185Y0108917D03*
X0052185Y0103406D03*
X0052185Y0097894D03*
X0057697Y0097894D03*
X0057697Y0103406D03*
X0057697Y0108917D03*
X0063209Y0108917D03*
X0063209Y0103406D03*
X0063209Y0097894D03*
D27*
X0065000Y0038173D03*
X0060000Y0038173D03*
X0070000Y0038173D03*
X0075000Y0038173D03*
X0075000Y0016827D03*
X0070000Y0016827D03*
X0065000Y0016827D03*
X0060000Y0016827D03*
D28*
X0112500Y0072844D03*
X0112500Y0084656D03*
M02*
