G75*
%MOIN*%
%OFA0B0*%
%FSLAX25Y25*%
%IPPOS*%
%LPD*%
%AMOC8*
5,1,8,0,0,1.08239X$1,22.5*
%
%ADD10C,0.00400*%
%ADD11C,0.06024*%
%ADD12C,0.04165*%
%ADD13C,0.00394*%
%ADD14C,0.00039*%
%ADD15R,0.05118X0.05906*%
%ADD16C,0.06378*%
%ADD17R,0.02559X0.05906*%
%ADD18C,0.07200*%
%ADD19C,0.02756*%
%ADD20C,0.01000*%
%ADD21C,0.03200*%
D10*
X0011652Y0005200D02*
X0011808Y0005200D01*
X0011849Y0005202D01*
X0011889Y0005207D01*
X0011929Y0005216D01*
X0011968Y0005228D01*
X0012005Y0005244D01*
X0012042Y0005263D01*
X0012076Y0005284D01*
X0012108Y0005309D01*
X0012138Y0005337D01*
X0012166Y0005367D01*
X0012191Y0005399D01*
X0012212Y0005433D01*
X0012231Y0005470D01*
X0012247Y0005507D01*
X0012259Y0005546D01*
X0012268Y0005586D01*
X0012273Y0005626D01*
X0012275Y0005667D01*
X0012274Y0005667D02*
X0012274Y0008000D01*
X0012585Y0007067D02*
X0011652Y0007067D01*
X0013579Y0006444D02*
X0013579Y0005822D01*
X0013581Y0005773D01*
X0013587Y0005725D01*
X0013596Y0005677D01*
X0013609Y0005630D01*
X0013626Y0005584D01*
X0013647Y0005540D01*
X0013671Y0005497D01*
X0013698Y0005456D01*
X0013728Y0005418D01*
X0013761Y0005382D01*
X0013797Y0005349D01*
X0013835Y0005319D01*
X0013876Y0005292D01*
X0013919Y0005268D01*
X0013963Y0005247D01*
X0014009Y0005230D01*
X0014056Y0005217D01*
X0014104Y0005208D01*
X0014152Y0005202D01*
X0014201Y0005200D01*
X0014250Y0005202D01*
X0014298Y0005208D01*
X0014346Y0005217D01*
X0014393Y0005230D01*
X0014439Y0005247D01*
X0014483Y0005268D01*
X0014526Y0005292D01*
X0014567Y0005319D01*
X0014605Y0005349D01*
X0014641Y0005382D01*
X0014674Y0005418D01*
X0014704Y0005456D01*
X0014731Y0005497D01*
X0014755Y0005540D01*
X0014776Y0005584D01*
X0014793Y0005630D01*
X0014806Y0005677D01*
X0014815Y0005725D01*
X0014821Y0005773D01*
X0014823Y0005822D01*
X0014823Y0006444D01*
X0014821Y0006493D01*
X0014815Y0006541D01*
X0014806Y0006589D01*
X0014793Y0006636D01*
X0014776Y0006682D01*
X0014755Y0006726D01*
X0014731Y0006769D01*
X0014704Y0006810D01*
X0014674Y0006848D01*
X0014641Y0006884D01*
X0014605Y0006917D01*
X0014567Y0006947D01*
X0014526Y0006974D01*
X0014483Y0006998D01*
X0014439Y0007019D01*
X0014393Y0007036D01*
X0014346Y0007049D01*
X0014298Y0007058D01*
X0014250Y0007064D01*
X0014201Y0007066D01*
X0014152Y0007064D01*
X0014104Y0007058D01*
X0014056Y0007049D01*
X0014009Y0007036D01*
X0013963Y0007019D01*
X0013919Y0006998D01*
X0013876Y0006974D01*
X0013835Y0006947D01*
X0013797Y0006917D01*
X0013761Y0006884D01*
X0013728Y0006848D01*
X0013698Y0006810D01*
X0013671Y0006769D01*
X0013647Y0006726D01*
X0013626Y0006682D01*
X0013609Y0006636D01*
X0013596Y0006589D01*
X0013587Y0006541D01*
X0013581Y0006493D01*
X0013579Y0006444D01*
X0016056Y0006600D02*
X0016056Y0005667D01*
X0016055Y0005667D02*
X0016057Y0005624D01*
X0016063Y0005581D01*
X0016073Y0005539D01*
X0016087Y0005498D01*
X0016104Y0005459D01*
X0016125Y0005421D01*
X0016149Y0005386D01*
X0016177Y0005352D01*
X0016207Y0005322D01*
X0016241Y0005294D01*
X0016276Y0005270D01*
X0016314Y0005249D01*
X0016353Y0005232D01*
X0016394Y0005218D01*
X0016436Y0005208D01*
X0016479Y0005202D01*
X0016522Y0005200D01*
X0017300Y0005200D01*
X0017300Y0008000D01*
X0017300Y0007067D02*
X0016522Y0007067D01*
X0016481Y0007065D01*
X0016441Y0007060D01*
X0016401Y0007051D01*
X0016362Y0007039D01*
X0016325Y0007023D01*
X0016289Y0007004D01*
X0016254Y0006983D01*
X0016222Y0006958D01*
X0016192Y0006930D01*
X0016164Y0006900D01*
X0016139Y0006868D01*
X0016118Y0006834D01*
X0016099Y0006797D01*
X0016083Y0006760D01*
X0016071Y0006721D01*
X0016062Y0006681D01*
X0016057Y0006641D01*
X0016055Y0006600D01*
X0009581Y0132200D02*
X0009581Y0135000D01*
X0008803Y0135000D01*
X0008754Y0134998D01*
X0008706Y0134992D01*
X0008658Y0134983D01*
X0008611Y0134970D01*
X0008565Y0134953D01*
X0008521Y0134932D01*
X0008478Y0134908D01*
X0008437Y0134881D01*
X0008399Y0134851D01*
X0008363Y0134818D01*
X0008330Y0134782D01*
X0008300Y0134744D01*
X0008273Y0134703D01*
X0008249Y0134660D01*
X0008228Y0134616D01*
X0008211Y0134570D01*
X0008198Y0134523D01*
X0008189Y0134475D01*
X0008183Y0134427D01*
X0008181Y0134378D01*
X0008183Y0134329D01*
X0008189Y0134281D01*
X0008198Y0134233D01*
X0008211Y0134186D01*
X0008228Y0134140D01*
X0008249Y0134096D01*
X0008273Y0134053D01*
X0008300Y0134012D01*
X0008330Y0133974D01*
X0008363Y0133938D01*
X0008399Y0133905D01*
X0008437Y0133875D01*
X0008478Y0133848D01*
X0008521Y0133824D01*
X0008565Y0133803D01*
X0008611Y0133786D01*
X0008658Y0133773D01*
X0008706Y0133764D01*
X0008754Y0133758D01*
X0008803Y0133756D01*
X0009581Y0133756D01*
X0008803Y0133756D02*
X0008747Y0133754D01*
X0008692Y0133748D01*
X0008638Y0133738D01*
X0008584Y0133724D01*
X0008531Y0133707D01*
X0008480Y0133686D01*
X0008430Y0133661D01*
X0008382Y0133632D01*
X0008337Y0133601D01*
X0008294Y0133566D01*
X0008253Y0133528D01*
X0008215Y0133487D01*
X0008180Y0133444D01*
X0008149Y0133399D01*
X0008120Y0133351D01*
X0008095Y0133301D01*
X0008074Y0133250D01*
X0008057Y0133197D01*
X0008043Y0133143D01*
X0008033Y0133089D01*
X0008027Y0133034D01*
X0008025Y0132978D01*
X0008027Y0132922D01*
X0008033Y0132867D01*
X0008043Y0132813D01*
X0008057Y0132759D01*
X0008074Y0132706D01*
X0008095Y0132655D01*
X0008120Y0132605D01*
X0008149Y0132557D01*
X0008180Y0132512D01*
X0008215Y0132469D01*
X0008253Y0132428D01*
X0008294Y0132390D01*
X0008337Y0132355D01*
X0008382Y0132324D01*
X0008430Y0132295D01*
X0008480Y0132270D01*
X0008531Y0132249D01*
X0008584Y0132232D01*
X0008638Y0132218D01*
X0008692Y0132208D01*
X0008747Y0132202D01*
X0008803Y0132200D01*
X0009581Y0132200D01*
X0011271Y0133367D02*
X0012127Y0133833D01*
X0011816Y0135000D02*
X0011753Y0134998D01*
X0011691Y0134993D01*
X0011629Y0134985D01*
X0011568Y0134973D01*
X0011507Y0134958D01*
X0011447Y0134940D01*
X0011388Y0134919D01*
X0011331Y0134894D01*
X0011274Y0134867D01*
X0011220Y0134836D01*
X0011167Y0134803D01*
X0011116Y0134767D01*
X0012127Y0133834D02*
X0012166Y0133859D01*
X0012204Y0133887D01*
X0012239Y0133918D01*
X0012272Y0133951D01*
X0012302Y0133987D01*
X0012330Y0134025D01*
X0012355Y0134064D01*
X0012376Y0134106D01*
X0012395Y0134149D01*
X0012410Y0134193D01*
X0012422Y0134239D01*
X0012431Y0134285D01*
X0012436Y0134331D01*
X0012438Y0134378D01*
X0012436Y0134427D01*
X0012430Y0134475D01*
X0012421Y0134523D01*
X0012408Y0134570D01*
X0012391Y0134616D01*
X0012370Y0134660D01*
X0012346Y0134703D01*
X0012319Y0134744D01*
X0012289Y0134782D01*
X0012256Y0134818D01*
X0012220Y0134851D01*
X0012182Y0134881D01*
X0012141Y0134908D01*
X0012098Y0134932D01*
X0012054Y0134953D01*
X0012008Y0134970D01*
X0011961Y0134983D01*
X0011913Y0134992D01*
X0011865Y0134998D01*
X0011816Y0135000D01*
X0012515Y0132589D02*
X0012465Y0132541D01*
X0012413Y0132496D01*
X0012358Y0132454D01*
X0012301Y0132414D01*
X0012242Y0132378D01*
X0012181Y0132345D01*
X0012119Y0132315D01*
X0012055Y0132288D01*
X0011990Y0132265D01*
X0011924Y0132245D01*
X0011857Y0132229D01*
X0011789Y0132216D01*
X0011720Y0132207D01*
X0011651Y0132202D01*
X0011582Y0132200D01*
X0011533Y0132202D01*
X0011485Y0132208D01*
X0011437Y0132217D01*
X0011390Y0132230D01*
X0011344Y0132247D01*
X0011300Y0132268D01*
X0011257Y0132292D01*
X0011216Y0132319D01*
X0011178Y0132349D01*
X0011142Y0132382D01*
X0011109Y0132418D01*
X0011079Y0132456D01*
X0011052Y0132497D01*
X0011028Y0132540D01*
X0011007Y0132584D01*
X0010990Y0132630D01*
X0010977Y0132677D01*
X0010968Y0132725D01*
X0010962Y0132773D01*
X0010960Y0132822D01*
X0010962Y0132869D01*
X0010967Y0132915D01*
X0010976Y0132961D01*
X0010988Y0133007D01*
X0011003Y0133051D01*
X0011022Y0133094D01*
X0011043Y0133136D01*
X0011068Y0133175D01*
X0011096Y0133213D01*
X0011126Y0133249D01*
X0011159Y0133282D01*
X0011194Y0133313D01*
X0011232Y0133341D01*
X0011271Y0133366D01*
X0012020Y0137000D02*
X0012020Y0139800D01*
X0012020Y0138556D02*
X0010464Y0138556D01*
X0010464Y0139800D02*
X0010464Y0137000D01*
X0008458Y0137000D02*
X0008458Y0139800D01*
X0009236Y0139800D02*
X0007680Y0139800D01*
X0006444Y0139800D02*
X0006444Y0137000D01*
X0005200Y0137000D01*
X0005200Y0135000D02*
X0006133Y0135000D01*
X0006182Y0134998D01*
X0006230Y0134992D01*
X0006278Y0134983D01*
X0006325Y0134970D01*
X0006371Y0134953D01*
X0006415Y0134932D01*
X0006458Y0134908D01*
X0006499Y0134881D01*
X0006537Y0134851D01*
X0006573Y0134818D01*
X0006606Y0134782D01*
X0006636Y0134744D01*
X0006663Y0134703D01*
X0006687Y0134660D01*
X0006708Y0134616D01*
X0006725Y0134570D01*
X0006738Y0134523D01*
X0006747Y0134475D01*
X0006753Y0134427D01*
X0006755Y0134378D01*
X0006756Y0134378D02*
X0006756Y0132822D01*
X0006755Y0132822D02*
X0006753Y0132773D01*
X0006747Y0132725D01*
X0006738Y0132677D01*
X0006725Y0132630D01*
X0006708Y0132584D01*
X0006687Y0132540D01*
X0006663Y0132497D01*
X0006636Y0132456D01*
X0006606Y0132418D01*
X0006573Y0132382D01*
X0006537Y0132349D01*
X0006499Y0132319D01*
X0006458Y0132292D01*
X0006415Y0132268D01*
X0006371Y0132247D01*
X0006325Y0132230D01*
X0006278Y0132217D01*
X0006230Y0132208D01*
X0006182Y0132202D01*
X0006133Y0132200D01*
X0005200Y0132200D01*
X0005200Y0133756D01*
X0005667Y0133756D01*
X0104800Y0154500D02*
X0106356Y0154500D01*
X0105034Y0156056D01*
X0105500Y0157300D02*
X0105556Y0157298D01*
X0105613Y0157293D01*
X0105669Y0157284D01*
X0105724Y0157272D01*
X0105778Y0157256D01*
X0105831Y0157237D01*
X0105883Y0157214D01*
X0105933Y0157189D01*
X0105982Y0157160D01*
X0106029Y0157128D01*
X0106073Y0157093D01*
X0106116Y0157056D01*
X0106156Y0157016D01*
X0106193Y0156974D01*
X0106228Y0156929D01*
X0106259Y0156882D01*
X0106288Y0156833D01*
X0106314Y0156783D01*
X0106336Y0156731D01*
X0106355Y0156678D01*
X0105033Y0156055D02*
X0104998Y0156092D01*
X0104965Y0156130D01*
X0104934Y0156171D01*
X0104907Y0156213D01*
X0104882Y0156258D01*
X0104861Y0156304D01*
X0104842Y0156351D01*
X0104827Y0156399D01*
X0104815Y0156449D01*
X0104807Y0156499D01*
X0104802Y0156549D01*
X0104800Y0156600D01*
X0104802Y0156650D01*
X0104807Y0156700D01*
X0104816Y0156749D01*
X0104828Y0156797D01*
X0104844Y0156845D01*
X0104863Y0156891D01*
X0104886Y0156935D01*
X0104911Y0156978D01*
X0104940Y0157019D01*
X0104971Y0157058D01*
X0105005Y0157095D01*
X0105042Y0157129D01*
X0105081Y0157160D01*
X0105122Y0157189D01*
X0105165Y0157214D01*
X0105209Y0157237D01*
X0105255Y0157256D01*
X0105303Y0157272D01*
X0105351Y0157284D01*
X0105400Y0157293D01*
X0105450Y0157298D01*
X0105500Y0157300D01*
X0107914Y0156056D02*
X0109236Y0154500D01*
X0107680Y0154500D01*
X0109235Y0156678D02*
X0109216Y0156731D01*
X0109194Y0156783D01*
X0109168Y0156833D01*
X0109139Y0156882D01*
X0109108Y0156929D01*
X0109073Y0156974D01*
X0109036Y0157016D01*
X0108996Y0157056D01*
X0108953Y0157093D01*
X0108909Y0157128D01*
X0108862Y0157160D01*
X0108813Y0157189D01*
X0108763Y0157214D01*
X0108711Y0157237D01*
X0108658Y0157256D01*
X0108604Y0157272D01*
X0108549Y0157284D01*
X0108493Y0157293D01*
X0108436Y0157298D01*
X0108380Y0157300D01*
X0108330Y0157298D01*
X0108280Y0157293D01*
X0108231Y0157284D01*
X0108183Y0157272D01*
X0108135Y0157256D01*
X0108089Y0157237D01*
X0108045Y0157214D01*
X0108002Y0157189D01*
X0107961Y0157160D01*
X0107922Y0157129D01*
X0107885Y0157095D01*
X0107851Y0157058D01*
X0107820Y0157019D01*
X0107791Y0156978D01*
X0107766Y0156935D01*
X0107743Y0156891D01*
X0107724Y0156845D01*
X0107708Y0156797D01*
X0107696Y0156749D01*
X0107687Y0156700D01*
X0107682Y0156650D01*
X0107680Y0156600D01*
X0107682Y0156549D01*
X0107687Y0156499D01*
X0107695Y0156449D01*
X0107707Y0156399D01*
X0107722Y0156351D01*
X0107741Y0156304D01*
X0107762Y0156258D01*
X0107787Y0156213D01*
X0107814Y0156171D01*
X0107845Y0156130D01*
X0107878Y0156092D01*
X0107913Y0156055D01*
X0110428Y0157611D02*
X0111672Y0154189D01*
X0112864Y0154500D02*
X0114420Y0154500D01*
X0113642Y0154500D02*
X0113642Y0157300D01*
X0114420Y0156678D01*
X0116522Y0157300D02*
X0116522Y0154500D01*
X0117300Y0154500D02*
X0115744Y0154500D01*
X0117300Y0156678D02*
X0116522Y0157300D01*
X0116195Y0162700D02*
X0116973Y0162700D01*
X0116973Y0165500D01*
X0116195Y0165500D01*
X0116146Y0165498D01*
X0116098Y0165492D01*
X0116050Y0165483D01*
X0116003Y0165470D01*
X0115957Y0165453D01*
X0115913Y0165432D01*
X0115870Y0165408D01*
X0115829Y0165381D01*
X0115791Y0165351D01*
X0115755Y0165318D01*
X0115722Y0165282D01*
X0115692Y0165244D01*
X0115665Y0165203D01*
X0115641Y0165160D01*
X0115620Y0165116D01*
X0115603Y0165070D01*
X0115590Y0165023D01*
X0115581Y0164975D01*
X0115575Y0164927D01*
X0115573Y0164878D01*
X0115575Y0164829D01*
X0115581Y0164781D01*
X0115590Y0164733D01*
X0115603Y0164686D01*
X0115620Y0164640D01*
X0115641Y0164596D01*
X0115665Y0164553D01*
X0115692Y0164512D01*
X0115722Y0164474D01*
X0115755Y0164438D01*
X0115791Y0164405D01*
X0115829Y0164375D01*
X0115870Y0164348D01*
X0115913Y0164324D01*
X0115957Y0164303D01*
X0116003Y0164286D01*
X0116050Y0164273D01*
X0116098Y0164264D01*
X0116146Y0164258D01*
X0116195Y0164256D01*
X0116973Y0164256D01*
X0116195Y0164256D02*
X0116139Y0164254D01*
X0116084Y0164248D01*
X0116030Y0164238D01*
X0115976Y0164224D01*
X0115923Y0164207D01*
X0115872Y0164186D01*
X0115822Y0164161D01*
X0115774Y0164132D01*
X0115729Y0164101D01*
X0115686Y0164066D01*
X0115645Y0164028D01*
X0115607Y0163987D01*
X0115572Y0163944D01*
X0115541Y0163899D01*
X0115512Y0163851D01*
X0115487Y0163801D01*
X0115466Y0163750D01*
X0115449Y0163697D01*
X0115435Y0163643D01*
X0115425Y0163589D01*
X0115419Y0163534D01*
X0115417Y0163478D01*
X0115419Y0163422D01*
X0115425Y0163367D01*
X0115435Y0163313D01*
X0115449Y0163259D01*
X0115466Y0163206D01*
X0115487Y0163155D01*
X0115512Y0163105D01*
X0115541Y0163057D01*
X0115572Y0163012D01*
X0115607Y0162969D01*
X0115645Y0162928D01*
X0115686Y0162890D01*
X0115729Y0162855D01*
X0115774Y0162824D01*
X0115822Y0162795D01*
X0115872Y0162770D01*
X0115923Y0162749D01*
X0115976Y0162732D01*
X0116030Y0162718D01*
X0116084Y0162708D01*
X0116139Y0162702D01*
X0116195Y0162700D01*
X0114163Y0162700D02*
X0114163Y0164567D01*
X0113229Y0164567D01*
X0113229Y0164256D01*
X0112128Y0164567D02*
X0111506Y0164567D01*
X0111465Y0164565D01*
X0111425Y0164560D01*
X0111385Y0164551D01*
X0111346Y0164539D01*
X0111309Y0164523D01*
X0111273Y0164504D01*
X0111238Y0164483D01*
X0111206Y0164458D01*
X0111176Y0164430D01*
X0111148Y0164400D01*
X0111123Y0164368D01*
X0111102Y0164334D01*
X0111083Y0164297D01*
X0111067Y0164260D01*
X0111055Y0164221D01*
X0111046Y0164181D01*
X0111041Y0164141D01*
X0111039Y0164100D01*
X0111039Y0162700D01*
X0111739Y0162700D01*
X0111784Y0162702D01*
X0111829Y0162707D01*
X0111873Y0162717D01*
X0111916Y0162729D01*
X0111958Y0162746D01*
X0111998Y0162766D01*
X0112037Y0162789D01*
X0112073Y0162815D01*
X0112107Y0162844D01*
X0112139Y0162876D01*
X0112168Y0162910D01*
X0112194Y0162946D01*
X0112217Y0162985D01*
X0112237Y0163025D01*
X0112254Y0163067D01*
X0112266Y0163110D01*
X0112276Y0163154D01*
X0112281Y0163199D01*
X0112283Y0163244D01*
X0112281Y0163289D01*
X0112276Y0163334D01*
X0112266Y0163378D01*
X0112254Y0163421D01*
X0112237Y0163463D01*
X0112217Y0163503D01*
X0112194Y0163542D01*
X0112168Y0163578D01*
X0112139Y0163612D01*
X0112107Y0163644D01*
X0112073Y0163673D01*
X0112037Y0163699D01*
X0111998Y0163722D01*
X0111958Y0163742D01*
X0111916Y0163759D01*
X0111873Y0163771D01*
X0111829Y0163781D01*
X0111784Y0163786D01*
X0111739Y0163788D01*
X0111739Y0163789D02*
X0111039Y0163789D01*
X0109540Y0162700D02*
X0108762Y0162700D01*
X0108706Y0162702D01*
X0108651Y0162708D01*
X0108597Y0162718D01*
X0108543Y0162732D01*
X0108490Y0162749D01*
X0108439Y0162770D01*
X0108389Y0162795D01*
X0108341Y0162824D01*
X0108296Y0162855D01*
X0108253Y0162890D01*
X0108212Y0162928D01*
X0108174Y0162969D01*
X0108139Y0163012D01*
X0108108Y0163057D01*
X0108079Y0163105D01*
X0108054Y0163155D01*
X0108033Y0163206D01*
X0108016Y0163259D01*
X0108002Y0163313D01*
X0107992Y0163367D01*
X0107986Y0163422D01*
X0107984Y0163478D01*
X0107984Y0164722D01*
X0107986Y0164778D01*
X0107992Y0164833D01*
X0108002Y0164887D01*
X0108016Y0164941D01*
X0108033Y0164994D01*
X0108054Y0165045D01*
X0108079Y0165095D01*
X0108108Y0165143D01*
X0108139Y0165188D01*
X0108174Y0165231D01*
X0108212Y0165272D01*
X0108253Y0165310D01*
X0108296Y0165345D01*
X0108341Y0165376D01*
X0108389Y0165405D01*
X0108439Y0165430D01*
X0108490Y0165451D01*
X0108543Y0165468D01*
X0108597Y0165482D01*
X0108651Y0165492D01*
X0108706Y0165498D01*
X0108762Y0165500D01*
X0109540Y0165500D01*
X0109540Y0162700D01*
X0109229Y0167500D02*
X0107984Y0167500D01*
X0109229Y0167500D02*
X0109229Y0170300D01*
X0110620Y0168744D02*
X0110620Y0168433D01*
X0111864Y0168433D01*
X0111864Y0168744D02*
X0111864Y0167967D01*
X0111865Y0167967D02*
X0111863Y0167926D01*
X0111858Y0167886D01*
X0111849Y0167846D01*
X0111837Y0167807D01*
X0111821Y0167770D01*
X0111802Y0167734D01*
X0111781Y0167699D01*
X0111756Y0167667D01*
X0111728Y0167637D01*
X0111698Y0167609D01*
X0111666Y0167584D01*
X0111632Y0167563D01*
X0111595Y0167544D01*
X0111558Y0167528D01*
X0111519Y0167516D01*
X0111479Y0167507D01*
X0111439Y0167502D01*
X0111398Y0167500D01*
X0110620Y0167500D01*
X0110620Y0168744D02*
X0110622Y0168793D01*
X0110628Y0168841D01*
X0110637Y0168889D01*
X0110650Y0168936D01*
X0110667Y0168982D01*
X0110688Y0169026D01*
X0110712Y0169069D01*
X0110739Y0169110D01*
X0110769Y0169148D01*
X0110802Y0169184D01*
X0110838Y0169217D01*
X0110876Y0169247D01*
X0110917Y0169274D01*
X0110960Y0169298D01*
X0111004Y0169319D01*
X0111050Y0169336D01*
X0111097Y0169349D01*
X0111145Y0169358D01*
X0111193Y0169364D01*
X0111242Y0169366D01*
X0111291Y0169364D01*
X0111339Y0169358D01*
X0111387Y0169349D01*
X0111434Y0169336D01*
X0111480Y0169319D01*
X0111524Y0169298D01*
X0111567Y0169274D01*
X0111608Y0169247D01*
X0111646Y0169217D01*
X0111682Y0169184D01*
X0111715Y0169148D01*
X0111745Y0169110D01*
X0111772Y0169069D01*
X0111796Y0169026D01*
X0111817Y0168982D01*
X0111834Y0168936D01*
X0111847Y0168889D01*
X0111856Y0168841D01*
X0111862Y0168793D01*
X0111864Y0168744D01*
X0113116Y0168744D02*
X0113116Y0168122D01*
X0113118Y0168073D01*
X0113124Y0168025D01*
X0113133Y0167977D01*
X0113146Y0167930D01*
X0113163Y0167884D01*
X0113184Y0167840D01*
X0113208Y0167797D01*
X0113235Y0167756D01*
X0113265Y0167718D01*
X0113298Y0167682D01*
X0113334Y0167649D01*
X0113372Y0167619D01*
X0113413Y0167592D01*
X0113456Y0167568D01*
X0113500Y0167547D01*
X0113546Y0167530D01*
X0113593Y0167517D01*
X0113641Y0167508D01*
X0113689Y0167502D01*
X0113738Y0167500D01*
X0113787Y0167502D01*
X0113835Y0167508D01*
X0113883Y0167517D01*
X0113930Y0167530D01*
X0113976Y0167547D01*
X0114020Y0167568D01*
X0114063Y0167592D01*
X0114104Y0167619D01*
X0114142Y0167649D01*
X0114178Y0167682D01*
X0114211Y0167718D01*
X0114241Y0167756D01*
X0114268Y0167797D01*
X0114292Y0167840D01*
X0114313Y0167884D01*
X0114330Y0167930D01*
X0114343Y0167977D01*
X0114352Y0168025D01*
X0114358Y0168073D01*
X0114360Y0168122D01*
X0114360Y0168744D01*
X0114358Y0168793D01*
X0114352Y0168841D01*
X0114343Y0168889D01*
X0114330Y0168936D01*
X0114313Y0168982D01*
X0114292Y0169026D01*
X0114268Y0169069D01*
X0114241Y0169110D01*
X0114211Y0169148D01*
X0114178Y0169184D01*
X0114142Y0169217D01*
X0114104Y0169247D01*
X0114063Y0169274D01*
X0114020Y0169298D01*
X0113976Y0169319D01*
X0113930Y0169336D01*
X0113883Y0169349D01*
X0113835Y0169358D01*
X0113787Y0169364D01*
X0113738Y0169366D01*
X0113689Y0169364D01*
X0113641Y0169358D01*
X0113593Y0169349D01*
X0113546Y0169336D01*
X0113500Y0169319D01*
X0113456Y0169298D01*
X0113413Y0169274D01*
X0113372Y0169247D01*
X0113334Y0169217D01*
X0113298Y0169184D01*
X0113265Y0169148D01*
X0113235Y0169110D01*
X0113208Y0169069D01*
X0113184Y0169026D01*
X0113163Y0168982D01*
X0113146Y0168936D01*
X0113133Y0168889D01*
X0113124Y0168841D01*
X0113118Y0168793D01*
X0113116Y0168744D01*
X0115744Y0169056D02*
X0117300Y0169056D01*
X0117300Y0170300D02*
X0117300Y0167500D01*
X0115744Y0167500D02*
X0115744Y0170300D01*
X0115568Y0172300D02*
X0116502Y0172300D01*
X0116551Y0172302D01*
X0116599Y0172308D01*
X0116647Y0172317D01*
X0116694Y0172330D01*
X0116740Y0172347D01*
X0116784Y0172368D01*
X0116827Y0172392D01*
X0116868Y0172419D01*
X0116906Y0172449D01*
X0116942Y0172482D01*
X0116975Y0172518D01*
X0117005Y0172556D01*
X0117032Y0172597D01*
X0117056Y0172640D01*
X0117077Y0172684D01*
X0117094Y0172730D01*
X0117107Y0172777D01*
X0117116Y0172825D01*
X0117122Y0172873D01*
X0117124Y0172922D01*
X0117124Y0174478D01*
X0117122Y0174527D01*
X0117116Y0174575D01*
X0117107Y0174623D01*
X0117094Y0174670D01*
X0117077Y0174716D01*
X0117056Y0174760D01*
X0117032Y0174803D01*
X0117005Y0174844D01*
X0116975Y0174882D01*
X0116942Y0174918D01*
X0116906Y0174951D01*
X0116868Y0174981D01*
X0116827Y0175008D01*
X0116784Y0175032D01*
X0116740Y0175053D01*
X0116694Y0175070D01*
X0116647Y0175083D01*
X0116599Y0175092D01*
X0116551Y0175098D01*
X0116502Y0175100D01*
X0115568Y0175100D01*
X0115568Y0173856D02*
X0115568Y0172300D01*
X0114067Y0172300D02*
X0114067Y0174167D01*
X0113134Y0174167D01*
X0113134Y0173856D01*
X0112072Y0174167D02*
X0112072Y0172767D01*
X0112073Y0172767D02*
X0112071Y0172726D01*
X0112066Y0172686D01*
X0112057Y0172646D01*
X0112045Y0172607D01*
X0112029Y0172570D01*
X0112010Y0172534D01*
X0111989Y0172499D01*
X0111964Y0172467D01*
X0111936Y0172437D01*
X0111906Y0172409D01*
X0111874Y0172384D01*
X0111840Y0172363D01*
X0111803Y0172344D01*
X0111766Y0172328D01*
X0111727Y0172316D01*
X0111687Y0172307D01*
X0111647Y0172302D01*
X0111606Y0172300D01*
X0110828Y0172300D01*
X0110828Y0174167D01*
X0109151Y0173933D02*
X0108295Y0173467D01*
X0108607Y0172300D02*
X0108676Y0172302D01*
X0108745Y0172307D01*
X0108814Y0172316D01*
X0108882Y0172329D01*
X0108949Y0172345D01*
X0109015Y0172365D01*
X0109080Y0172388D01*
X0109144Y0172415D01*
X0109206Y0172445D01*
X0109267Y0172478D01*
X0109326Y0172514D01*
X0109383Y0172554D01*
X0109438Y0172596D01*
X0109490Y0172641D01*
X0109540Y0172689D01*
X0108295Y0173466D02*
X0108256Y0173441D01*
X0108218Y0173413D01*
X0108183Y0173382D01*
X0108150Y0173349D01*
X0108120Y0173313D01*
X0108092Y0173275D01*
X0108067Y0173236D01*
X0108046Y0173194D01*
X0108027Y0173151D01*
X0108012Y0173107D01*
X0108000Y0173061D01*
X0107991Y0173015D01*
X0107986Y0172969D01*
X0107984Y0172922D01*
X0107985Y0172922D02*
X0107987Y0172873D01*
X0107993Y0172825D01*
X0108002Y0172777D01*
X0108015Y0172730D01*
X0108032Y0172684D01*
X0108053Y0172640D01*
X0108077Y0172597D01*
X0108104Y0172556D01*
X0108134Y0172518D01*
X0108167Y0172482D01*
X0108203Y0172449D01*
X0108241Y0172419D01*
X0108282Y0172392D01*
X0108325Y0172368D01*
X0108369Y0172347D01*
X0108415Y0172330D01*
X0108462Y0172317D01*
X0108510Y0172308D01*
X0108558Y0172302D01*
X0108607Y0172300D01*
X0108140Y0174867D02*
X0108191Y0174903D01*
X0108244Y0174936D01*
X0108298Y0174967D01*
X0108355Y0174994D01*
X0108412Y0175019D01*
X0108471Y0175040D01*
X0108531Y0175058D01*
X0108592Y0175073D01*
X0108653Y0175085D01*
X0108715Y0175093D01*
X0108777Y0175098D01*
X0108840Y0175100D01*
X0108889Y0175098D01*
X0108937Y0175092D01*
X0108985Y0175083D01*
X0109032Y0175070D01*
X0109078Y0175053D01*
X0109122Y0175032D01*
X0109165Y0175008D01*
X0109206Y0174981D01*
X0109244Y0174951D01*
X0109280Y0174918D01*
X0109313Y0174882D01*
X0109343Y0174844D01*
X0109370Y0174803D01*
X0109394Y0174760D01*
X0109415Y0174716D01*
X0109432Y0174670D01*
X0109445Y0174623D01*
X0109454Y0174575D01*
X0109460Y0174527D01*
X0109462Y0174478D01*
X0109460Y0174431D01*
X0109455Y0174385D01*
X0109446Y0174339D01*
X0109434Y0174293D01*
X0109419Y0174249D01*
X0109400Y0174206D01*
X0109379Y0174164D01*
X0109354Y0174125D01*
X0109326Y0174087D01*
X0109296Y0174051D01*
X0109263Y0174018D01*
X0109228Y0173987D01*
X0109190Y0173959D01*
X0109151Y0173934D01*
X0109709Y0179700D02*
X0110331Y0180944D01*
X0110487Y0180944D02*
X0111265Y0180944D01*
X0110487Y0180944D02*
X0110431Y0180946D01*
X0110376Y0180952D01*
X0110322Y0180962D01*
X0110268Y0180976D01*
X0110215Y0180993D01*
X0110164Y0181014D01*
X0110114Y0181039D01*
X0110066Y0181068D01*
X0110021Y0181099D01*
X0109978Y0181134D01*
X0109937Y0181172D01*
X0109899Y0181213D01*
X0109864Y0181256D01*
X0109833Y0181301D01*
X0109804Y0181349D01*
X0109779Y0181399D01*
X0109758Y0181450D01*
X0109741Y0181503D01*
X0109727Y0181557D01*
X0109717Y0181611D01*
X0109711Y0181666D01*
X0109709Y0181722D01*
X0109711Y0181778D01*
X0109717Y0181833D01*
X0109727Y0181887D01*
X0109741Y0181941D01*
X0109758Y0181994D01*
X0109779Y0182045D01*
X0109804Y0182095D01*
X0109833Y0182143D01*
X0109864Y0182188D01*
X0109899Y0182231D01*
X0109937Y0182272D01*
X0109978Y0182310D01*
X0110021Y0182345D01*
X0110066Y0182376D01*
X0110114Y0182405D01*
X0110164Y0182430D01*
X0110215Y0182451D01*
X0110268Y0182468D01*
X0110322Y0182482D01*
X0110376Y0182492D01*
X0110431Y0182498D01*
X0110487Y0182500D01*
X0111265Y0182500D01*
X0111265Y0179700D01*
X0112709Y0179700D02*
X0114264Y0179700D01*
X0113487Y0179700D02*
X0113487Y0182500D01*
X0114264Y0181878D01*
X0115433Y0182500D02*
X0116367Y0179700D01*
X0117300Y0182500D01*
X0116678Y0184500D02*
X0115744Y0184500D01*
X0115744Y0186056D01*
X0116211Y0186056D01*
X0117300Y0186678D02*
X0117298Y0186727D01*
X0117292Y0186775D01*
X0117283Y0186823D01*
X0117270Y0186870D01*
X0117253Y0186916D01*
X0117232Y0186960D01*
X0117208Y0187003D01*
X0117181Y0187044D01*
X0117151Y0187082D01*
X0117118Y0187118D01*
X0117082Y0187151D01*
X0117044Y0187181D01*
X0117003Y0187208D01*
X0116960Y0187232D01*
X0116916Y0187253D01*
X0116870Y0187270D01*
X0116823Y0187283D01*
X0116775Y0187292D01*
X0116727Y0187298D01*
X0116678Y0187300D01*
X0115744Y0187300D01*
X0114488Y0187300D02*
X0114332Y0187300D01*
X0114332Y0187144D01*
X0114488Y0187144D01*
X0114488Y0187300D01*
X0114410Y0186367D02*
X0114410Y0184500D01*
X0113156Y0184967D02*
X0113156Y0187300D01*
X0113467Y0186367D02*
X0112533Y0186367D01*
X0111359Y0186678D02*
X0111359Y0185122D01*
X0111357Y0185073D01*
X0111351Y0185025D01*
X0111342Y0184977D01*
X0111329Y0184930D01*
X0111312Y0184884D01*
X0111291Y0184840D01*
X0111267Y0184797D01*
X0111240Y0184756D01*
X0111210Y0184718D01*
X0111177Y0184682D01*
X0111141Y0184649D01*
X0111103Y0184619D01*
X0111062Y0184592D01*
X0111019Y0184568D01*
X0110975Y0184547D01*
X0110929Y0184530D01*
X0110882Y0184517D01*
X0110834Y0184508D01*
X0110786Y0184502D01*
X0110737Y0184500D01*
X0110114Y0184500D01*
X0108985Y0185122D02*
X0108985Y0185744D01*
X0108984Y0185744D02*
X0108982Y0185793D01*
X0108976Y0185841D01*
X0108967Y0185889D01*
X0108954Y0185936D01*
X0108937Y0185982D01*
X0108916Y0186026D01*
X0108892Y0186069D01*
X0108865Y0186110D01*
X0108835Y0186148D01*
X0108802Y0186184D01*
X0108766Y0186217D01*
X0108728Y0186247D01*
X0108687Y0186274D01*
X0108644Y0186298D01*
X0108600Y0186319D01*
X0108554Y0186336D01*
X0108507Y0186349D01*
X0108459Y0186358D01*
X0108411Y0186364D01*
X0108362Y0186366D01*
X0108313Y0186364D01*
X0108265Y0186358D01*
X0108217Y0186349D01*
X0108170Y0186336D01*
X0108124Y0186319D01*
X0108080Y0186298D01*
X0108037Y0186274D01*
X0107996Y0186247D01*
X0107958Y0186217D01*
X0107922Y0186184D01*
X0107889Y0186148D01*
X0107859Y0186110D01*
X0107832Y0186069D01*
X0107808Y0186026D01*
X0107787Y0185982D01*
X0107770Y0185936D01*
X0107757Y0185889D01*
X0107748Y0185841D01*
X0107742Y0185793D01*
X0107740Y0185744D01*
X0107740Y0185122D01*
X0107742Y0185073D01*
X0107748Y0185025D01*
X0107757Y0184977D01*
X0107770Y0184930D01*
X0107787Y0184884D01*
X0107808Y0184840D01*
X0107832Y0184797D01*
X0107859Y0184756D01*
X0107889Y0184718D01*
X0107922Y0184682D01*
X0107958Y0184649D01*
X0107996Y0184619D01*
X0108037Y0184592D01*
X0108080Y0184568D01*
X0108124Y0184547D01*
X0108170Y0184530D01*
X0108217Y0184517D01*
X0108265Y0184508D01*
X0108313Y0184502D01*
X0108362Y0184500D01*
X0108411Y0184502D01*
X0108459Y0184508D01*
X0108507Y0184517D01*
X0108554Y0184530D01*
X0108600Y0184547D01*
X0108644Y0184568D01*
X0108687Y0184592D01*
X0108728Y0184619D01*
X0108766Y0184649D01*
X0108802Y0184682D01*
X0108835Y0184718D01*
X0108865Y0184756D01*
X0108892Y0184797D01*
X0108916Y0184840D01*
X0108937Y0184884D01*
X0108954Y0184930D01*
X0108967Y0184977D01*
X0108976Y0185025D01*
X0108982Y0185073D01*
X0108984Y0185122D01*
X0110737Y0187300D02*
X0110786Y0187298D01*
X0110834Y0187292D01*
X0110882Y0187283D01*
X0110929Y0187270D01*
X0110975Y0187253D01*
X0111019Y0187232D01*
X0111062Y0187208D01*
X0111103Y0187181D01*
X0111141Y0187151D01*
X0111177Y0187118D01*
X0111210Y0187082D01*
X0111240Y0187044D01*
X0111267Y0187003D01*
X0111291Y0186960D01*
X0111312Y0186916D01*
X0111329Y0186870D01*
X0111342Y0186823D01*
X0111351Y0186775D01*
X0111357Y0186727D01*
X0111359Y0186678D01*
X0110737Y0187300D02*
X0110114Y0187300D01*
X0112689Y0184500D02*
X0112730Y0184502D01*
X0112770Y0184507D01*
X0112810Y0184516D01*
X0112849Y0184528D01*
X0112886Y0184544D01*
X0112923Y0184563D01*
X0112957Y0184584D01*
X0112989Y0184609D01*
X0113019Y0184637D01*
X0113047Y0184667D01*
X0113072Y0184699D01*
X0113093Y0184734D01*
X0113112Y0184770D01*
X0113128Y0184807D01*
X0113140Y0184846D01*
X0113149Y0184886D01*
X0113154Y0184926D01*
X0113156Y0184967D01*
X0112689Y0184500D02*
X0112533Y0184500D01*
X0116678Y0184500D02*
X0116727Y0184502D01*
X0116775Y0184508D01*
X0116823Y0184517D01*
X0116870Y0184530D01*
X0116916Y0184547D01*
X0116960Y0184568D01*
X0117003Y0184592D01*
X0117044Y0184619D01*
X0117082Y0184649D01*
X0117118Y0184682D01*
X0117151Y0184718D01*
X0117181Y0184756D01*
X0117208Y0184797D01*
X0117232Y0184840D01*
X0117253Y0184884D01*
X0117270Y0184930D01*
X0117283Y0184977D01*
X0117292Y0185025D01*
X0117298Y0185073D01*
X0117300Y0185122D01*
X0117300Y0186678D01*
X0106853Y0181100D02*
X0106855Y0181005D01*
X0106861Y0180910D01*
X0106871Y0180815D01*
X0106884Y0180721D01*
X0106902Y0180628D01*
X0106923Y0180535D01*
X0106948Y0180443D01*
X0106977Y0180353D01*
X0107010Y0180263D01*
X0107046Y0180175D01*
X0107086Y0180089D01*
X0107631Y0179700D02*
X0107676Y0179702D01*
X0107720Y0179707D01*
X0107764Y0179716D01*
X0107807Y0179727D01*
X0107849Y0179743D01*
X0107889Y0179761D01*
X0107928Y0179783D01*
X0107966Y0179807D01*
X0108001Y0179835D01*
X0108034Y0179865D01*
X0108065Y0179897D01*
X0108093Y0179932D01*
X0108118Y0179969D01*
X0108140Y0180007D01*
X0108160Y0180048D01*
X0108176Y0180089D01*
X0108253Y0180322D02*
X0107008Y0181878D01*
X0107086Y0182111D02*
X0107102Y0182152D01*
X0107122Y0182193D01*
X0107144Y0182231D01*
X0107169Y0182268D01*
X0107197Y0182303D01*
X0107228Y0182335D01*
X0107261Y0182365D01*
X0107296Y0182393D01*
X0107334Y0182417D01*
X0107373Y0182439D01*
X0107413Y0182457D01*
X0107455Y0182473D01*
X0107498Y0182484D01*
X0107542Y0182493D01*
X0107586Y0182498D01*
X0107631Y0182500D01*
X0107676Y0182498D01*
X0107720Y0182493D01*
X0107764Y0182484D01*
X0107807Y0182473D01*
X0107849Y0182457D01*
X0107889Y0182439D01*
X0107928Y0182417D01*
X0107966Y0182393D01*
X0108001Y0182365D01*
X0108034Y0182335D01*
X0108065Y0182303D01*
X0108093Y0182268D01*
X0108118Y0182231D01*
X0108140Y0182193D01*
X0108160Y0182152D01*
X0108176Y0182111D01*
X0107086Y0182111D02*
X0107046Y0182025D01*
X0107010Y0181937D01*
X0106977Y0181847D01*
X0106948Y0181757D01*
X0106923Y0181665D01*
X0106902Y0181572D01*
X0106884Y0181479D01*
X0106871Y0181385D01*
X0106861Y0181290D01*
X0106855Y0181195D01*
X0106853Y0181100D01*
X0108408Y0181100D02*
X0108406Y0181195D01*
X0108400Y0181290D01*
X0108390Y0181385D01*
X0108377Y0181479D01*
X0108359Y0181572D01*
X0108338Y0181665D01*
X0108313Y0181757D01*
X0108284Y0181847D01*
X0108251Y0181937D01*
X0108215Y0182025D01*
X0108175Y0182111D01*
X0107086Y0180089D02*
X0107102Y0180048D01*
X0107122Y0180007D01*
X0107144Y0179969D01*
X0107169Y0179932D01*
X0107197Y0179897D01*
X0107228Y0179865D01*
X0107261Y0179835D01*
X0107296Y0179807D01*
X0107334Y0179783D01*
X0107373Y0179761D01*
X0107413Y0179743D01*
X0107455Y0179727D01*
X0107498Y0179716D01*
X0107542Y0179707D01*
X0107586Y0179702D01*
X0107631Y0179700D01*
X0108175Y0180089D02*
X0108215Y0180175D01*
X0108251Y0180263D01*
X0108284Y0180353D01*
X0108313Y0180443D01*
X0108338Y0180535D01*
X0108359Y0180628D01*
X0108377Y0180721D01*
X0108390Y0180815D01*
X0108400Y0180910D01*
X0108406Y0181005D01*
X0108408Y0181100D01*
X0106393Y0184500D02*
X0106393Y0186367D01*
X0105615Y0186367D01*
X0105572Y0186365D01*
X0105529Y0186359D01*
X0105487Y0186349D01*
X0105446Y0186335D01*
X0105407Y0186318D01*
X0105369Y0186297D01*
X0105334Y0186273D01*
X0105300Y0186245D01*
X0105270Y0186215D01*
X0105242Y0186181D01*
X0105218Y0186146D01*
X0105197Y0186108D01*
X0105180Y0186069D01*
X0105166Y0186028D01*
X0105156Y0185986D01*
X0105150Y0185943D01*
X0105148Y0185900D01*
X0105148Y0184500D01*
X0115568Y0173856D02*
X0116035Y0173856D01*
D11*
X0104665Y0197571D02*
X0104665Y0203594D01*
X0075335Y0203594D02*
X0075335Y0197571D01*
D12*
X0074744Y0213461D02*
X0074744Y0217626D01*
X0105256Y0217626D02*
X0105256Y0213461D01*
D13*
X0104964Y0204504D02*
X0104367Y0204504D01*
X0103783Y0204380D01*
X0103238Y0204137D01*
X0102755Y0203787D01*
X0102356Y0203343D01*
X0102058Y0202826D01*
X0101873Y0202259D01*
X0101811Y0201665D01*
X0101811Y0199500D01*
X0101873Y0198907D01*
X0102058Y0198339D01*
X0102356Y0197822D01*
X0102755Y0197379D01*
X0103238Y0197028D01*
X0103783Y0196785D01*
X0104367Y0196661D01*
X0104964Y0196661D01*
X0105547Y0196785D01*
X0106093Y0197028D01*
X0106575Y0197379D01*
X0106975Y0197822D01*
X0107273Y0198339D01*
X0107457Y0198907D01*
X0107520Y0199500D01*
X0107520Y0201665D01*
X0107457Y0202259D01*
X0107273Y0202826D01*
X0106975Y0203343D01*
X0106575Y0203787D01*
X0106093Y0204137D01*
X0105547Y0204380D01*
X0104964Y0204504D01*
X0105632Y0204343D02*
X0103699Y0204343D01*
X0102981Y0203950D02*
X0106350Y0203950D01*
X0106781Y0203558D02*
X0102550Y0203558D01*
X0102254Y0203166D02*
X0107077Y0203166D01*
X0107290Y0202774D02*
X0102041Y0202774D01*
X0101913Y0202381D02*
X0107417Y0202381D01*
X0107486Y0201989D02*
X0101845Y0201989D01*
X0101811Y0201597D02*
X0107520Y0201597D01*
X0107520Y0201205D02*
X0101811Y0201205D01*
X0101811Y0200813D02*
X0107520Y0200813D01*
X0107520Y0200420D02*
X0101811Y0200420D01*
X0101811Y0200028D02*
X0107520Y0200028D01*
X0107520Y0199636D02*
X0101811Y0199636D01*
X0101838Y0199244D02*
X0107493Y0199244D01*
X0107439Y0198852D02*
X0101891Y0198852D01*
X0102019Y0198459D02*
X0107312Y0198459D01*
X0107116Y0198067D02*
X0102215Y0198067D01*
X0102489Y0197675D02*
X0106842Y0197675D01*
X0106443Y0197283D02*
X0102888Y0197283D01*
X0103547Y0196890D02*
X0105783Y0196890D01*
X0078189Y0199500D02*
X0078189Y0201665D01*
X0078127Y0202259D01*
X0077942Y0202826D01*
X0077644Y0203343D01*
X0077245Y0203787D01*
X0076762Y0204137D01*
X0076217Y0204380D01*
X0075633Y0204504D01*
X0075036Y0204504D01*
X0074453Y0204380D01*
X0073907Y0204137D01*
X0073425Y0203787D01*
X0073025Y0203343D01*
X0072727Y0202826D01*
X0072543Y0202259D01*
X0072480Y0201665D01*
X0072480Y0199500D01*
X0072543Y0198907D01*
X0072727Y0198339D01*
X0073025Y0197822D01*
X0073425Y0197379D01*
X0073907Y0197028D01*
X0074453Y0196785D01*
X0075036Y0196661D01*
X0075633Y0196661D01*
X0076217Y0196785D01*
X0076762Y0197028D01*
X0077245Y0197379D01*
X0077644Y0197822D01*
X0077942Y0198339D01*
X0078127Y0198907D01*
X0078189Y0199500D01*
X0078189Y0199636D02*
X0072480Y0199636D01*
X0072480Y0200028D02*
X0078189Y0200028D01*
X0078189Y0200420D02*
X0072480Y0200420D01*
X0072480Y0200813D02*
X0078189Y0200813D01*
X0078189Y0201205D02*
X0072480Y0201205D01*
X0072480Y0201597D02*
X0078189Y0201597D01*
X0078155Y0201989D02*
X0072514Y0201989D01*
X0072583Y0202381D02*
X0078087Y0202381D01*
X0077959Y0202774D02*
X0072710Y0202774D01*
X0072923Y0203166D02*
X0077746Y0203166D01*
X0077450Y0203558D02*
X0073219Y0203558D01*
X0073650Y0203950D02*
X0077019Y0203950D01*
X0076301Y0204343D02*
X0074368Y0204343D01*
X0072507Y0199244D02*
X0078162Y0199244D01*
X0078109Y0198852D02*
X0072561Y0198852D01*
X0072688Y0198459D02*
X0077981Y0198459D01*
X0077785Y0198067D02*
X0072884Y0198067D01*
X0073158Y0197675D02*
X0077511Y0197675D01*
X0077112Y0197283D02*
X0073557Y0197283D01*
X0074217Y0196890D02*
X0076453Y0196890D01*
D14*
X0074981Y0212012D02*
X0074507Y0212012D01*
X0074045Y0212111D01*
X0073612Y0212303D01*
X0073229Y0212581D01*
X0072913Y0212933D01*
X0072676Y0213343D01*
X0072530Y0213793D01*
X0072480Y0214264D01*
X0072480Y0216823D01*
X0072530Y0217294D01*
X0072676Y0217744D01*
X0072913Y0218153D01*
X0073229Y0218505D01*
X0073612Y0218783D01*
X0074045Y0218976D01*
X0074507Y0219074D01*
X0074981Y0219074D01*
X0075444Y0218976D01*
X0075876Y0218783D01*
X0076259Y0218505D01*
X0076576Y0218153D01*
X0076812Y0217744D01*
X0076958Y0217294D01*
X0077008Y0216823D01*
X0077008Y0214264D01*
X0076958Y0213793D01*
X0076812Y0213343D01*
X0076576Y0212933D01*
X0076259Y0212581D01*
X0075876Y0212303D01*
X0075444Y0212111D01*
X0074981Y0212012D01*
X0075027Y0212022D02*
X0074461Y0212022D01*
X0074283Y0212060D02*
X0075205Y0212060D01*
X0075383Y0212098D02*
X0074105Y0212098D01*
X0073988Y0212136D02*
X0075500Y0212136D01*
X0075585Y0212174D02*
X0073903Y0212174D01*
X0073818Y0212212D02*
X0075670Y0212212D01*
X0075755Y0212249D02*
X0073733Y0212249D01*
X0073648Y0212287D02*
X0075840Y0212287D01*
X0075906Y0212325D02*
X0073582Y0212325D01*
X0073530Y0212363D02*
X0075958Y0212363D01*
X0076010Y0212401D02*
X0073478Y0212401D01*
X0073426Y0212439D02*
X0076063Y0212439D01*
X0076115Y0212477D02*
X0073373Y0212477D01*
X0073321Y0212515D02*
X0076167Y0212515D01*
X0076219Y0212553D02*
X0073269Y0212553D01*
X0073221Y0212590D02*
X0076267Y0212590D01*
X0076301Y0212628D02*
X0073187Y0212628D01*
X0073153Y0212666D02*
X0076335Y0212666D01*
X0076369Y0212704D02*
X0073119Y0212704D01*
X0073085Y0212742D02*
X0076403Y0212742D01*
X0076437Y0212780D02*
X0073051Y0212780D01*
X0073017Y0212818D02*
X0076472Y0212818D01*
X0076506Y0212856D02*
X0072983Y0212856D01*
X0072948Y0212893D02*
X0076540Y0212893D01*
X0076574Y0212931D02*
X0072914Y0212931D01*
X0072892Y0212969D02*
X0076596Y0212969D01*
X0076618Y0213007D02*
X0072870Y0213007D01*
X0072848Y0213045D02*
X0076640Y0213045D01*
X0076662Y0213083D02*
X0072826Y0213083D01*
X0072804Y0213121D02*
X0076684Y0213121D01*
X0076706Y0213159D02*
X0072782Y0213159D01*
X0072761Y0213197D02*
X0076728Y0213197D01*
X0076749Y0213234D02*
X0072739Y0213234D01*
X0072717Y0213272D02*
X0076771Y0213272D01*
X0076793Y0213310D02*
X0072695Y0213310D01*
X0072674Y0213348D02*
X0076814Y0213348D01*
X0076826Y0213386D02*
X0072662Y0213386D01*
X0072650Y0213424D02*
X0076838Y0213424D01*
X0076851Y0213462D02*
X0072637Y0213462D01*
X0072625Y0213500D02*
X0076863Y0213500D01*
X0076875Y0213537D02*
X0072613Y0213537D01*
X0072601Y0213575D02*
X0076888Y0213575D01*
X0076900Y0213613D02*
X0072588Y0213613D01*
X0072576Y0213651D02*
X0076912Y0213651D01*
X0076925Y0213689D02*
X0072564Y0213689D01*
X0072551Y0213727D02*
X0076937Y0213727D01*
X0076949Y0213765D02*
X0072539Y0213765D01*
X0072529Y0213803D02*
X0076959Y0213803D01*
X0076963Y0213840D02*
X0072525Y0213840D01*
X0072521Y0213878D02*
X0076967Y0213878D01*
X0076971Y0213916D02*
X0072517Y0213916D01*
X0072513Y0213954D02*
X0076975Y0213954D01*
X0076979Y0213992D02*
X0072509Y0213992D01*
X0072505Y0214030D02*
X0076983Y0214030D01*
X0076987Y0214068D02*
X0072501Y0214068D01*
X0072497Y0214106D02*
X0076991Y0214106D01*
X0076995Y0214144D02*
X0072493Y0214144D01*
X0072489Y0214181D02*
X0076999Y0214181D01*
X0077003Y0214219D02*
X0072485Y0214219D01*
X0072481Y0214257D02*
X0077007Y0214257D01*
X0077008Y0214295D02*
X0072480Y0214295D01*
X0072480Y0214333D02*
X0077008Y0214333D01*
X0077008Y0214371D02*
X0072480Y0214371D01*
X0072480Y0214409D02*
X0077008Y0214409D01*
X0077008Y0214447D02*
X0072480Y0214447D01*
X0072480Y0214484D02*
X0077008Y0214484D01*
X0077008Y0214522D02*
X0072480Y0214522D01*
X0072480Y0214560D02*
X0077008Y0214560D01*
X0077008Y0214598D02*
X0072480Y0214598D01*
X0072480Y0214636D02*
X0077008Y0214636D01*
X0077008Y0214674D02*
X0072480Y0214674D01*
X0072480Y0214712D02*
X0077008Y0214712D01*
X0077008Y0214750D02*
X0072480Y0214750D01*
X0072480Y0214788D02*
X0077008Y0214788D01*
X0077008Y0214825D02*
X0072480Y0214825D01*
X0072480Y0214863D02*
X0077008Y0214863D01*
X0077008Y0214901D02*
X0072480Y0214901D01*
X0072480Y0214939D02*
X0077008Y0214939D01*
X0077008Y0214977D02*
X0072480Y0214977D01*
X0072480Y0215015D02*
X0077008Y0215015D01*
X0077008Y0215053D02*
X0072480Y0215053D01*
X0072480Y0215091D02*
X0077008Y0215091D01*
X0077008Y0215128D02*
X0072480Y0215128D01*
X0072480Y0215166D02*
X0077008Y0215166D01*
X0077008Y0215204D02*
X0072480Y0215204D01*
X0072480Y0215242D02*
X0077008Y0215242D01*
X0077008Y0215280D02*
X0072480Y0215280D01*
X0072480Y0215318D02*
X0077008Y0215318D01*
X0077008Y0215356D02*
X0072480Y0215356D01*
X0072480Y0215394D02*
X0077008Y0215394D01*
X0077008Y0215432D02*
X0072480Y0215432D01*
X0072480Y0215469D02*
X0077008Y0215469D01*
X0077008Y0215507D02*
X0072480Y0215507D01*
X0072480Y0215545D02*
X0077008Y0215545D01*
X0077008Y0215583D02*
X0072480Y0215583D01*
X0072480Y0215621D02*
X0077008Y0215621D01*
X0077008Y0215659D02*
X0072480Y0215659D01*
X0072480Y0215697D02*
X0077008Y0215697D01*
X0077008Y0215735D02*
X0072480Y0215735D01*
X0072480Y0215772D02*
X0077008Y0215772D01*
X0077008Y0215810D02*
X0072480Y0215810D01*
X0072480Y0215848D02*
X0077008Y0215848D01*
X0077008Y0215886D02*
X0072480Y0215886D01*
X0072480Y0215924D02*
X0077008Y0215924D01*
X0077008Y0215962D02*
X0072480Y0215962D01*
X0072480Y0216000D02*
X0077008Y0216000D01*
X0077008Y0216038D02*
X0072480Y0216038D01*
X0072480Y0216075D02*
X0077008Y0216075D01*
X0077008Y0216113D02*
X0072480Y0216113D01*
X0072480Y0216151D02*
X0077008Y0216151D01*
X0077008Y0216189D02*
X0072480Y0216189D01*
X0072480Y0216227D02*
X0077008Y0216227D01*
X0077008Y0216265D02*
X0072480Y0216265D01*
X0072480Y0216303D02*
X0077008Y0216303D01*
X0077008Y0216341D02*
X0072480Y0216341D01*
X0072480Y0216379D02*
X0077008Y0216379D01*
X0077008Y0216416D02*
X0072480Y0216416D01*
X0072480Y0216454D02*
X0077008Y0216454D01*
X0077008Y0216492D02*
X0072480Y0216492D01*
X0072480Y0216530D02*
X0077008Y0216530D01*
X0077008Y0216568D02*
X0072480Y0216568D01*
X0072480Y0216606D02*
X0077008Y0216606D01*
X0077008Y0216644D02*
X0072480Y0216644D01*
X0072480Y0216682D02*
X0077008Y0216682D01*
X0077008Y0216719D02*
X0072480Y0216719D01*
X0072480Y0216757D02*
X0077008Y0216757D01*
X0077008Y0216795D02*
X0072480Y0216795D01*
X0072481Y0216833D02*
X0077007Y0216833D01*
X0077003Y0216871D02*
X0072485Y0216871D01*
X0072489Y0216909D02*
X0076999Y0216909D01*
X0076995Y0216947D02*
X0072493Y0216947D01*
X0072497Y0216985D02*
X0076991Y0216985D01*
X0076987Y0217023D02*
X0072501Y0217023D01*
X0072505Y0217060D02*
X0076983Y0217060D01*
X0076979Y0217098D02*
X0072509Y0217098D01*
X0072513Y0217136D02*
X0076975Y0217136D01*
X0076971Y0217174D02*
X0072517Y0217174D01*
X0072521Y0217212D02*
X0076967Y0217212D01*
X0076963Y0217250D02*
X0072525Y0217250D01*
X0072529Y0217288D02*
X0076959Y0217288D01*
X0076948Y0217326D02*
X0072540Y0217326D01*
X0072553Y0217363D02*
X0076936Y0217363D01*
X0076923Y0217401D02*
X0072565Y0217401D01*
X0072577Y0217439D02*
X0076911Y0217439D01*
X0076899Y0217477D02*
X0072589Y0217477D01*
X0072602Y0217515D02*
X0076886Y0217515D01*
X0076874Y0217553D02*
X0072614Y0217553D01*
X0072626Y0217591D02*
X0076862Y0217591D01*
X0076850Y0217629D02*
X0072639Y0217629D01*
X0072651Y0217667D02*
X0076837Y0217667D01*
X0076825Y0217704D02*
X0072663Y0217704D01*
X0072676Y0217742D02*
X0076813Y0217742D01*
X0076791Y0217780D02*
X0072697Y0217780D01*
X0072719Y0217818D02*
X0076769Y0217818D01*
X0076747Y0217856D02*
X0072741Y0217856D01*
X0072763Y0217894D02*
X0076725Y0217894D01*
X0076704Y0217932D02*
X0072785Y0217932D01*
X0072806Y0217970D02*
X0076682Y0217970D01*
X0076660Y0218007D02*
X0072828Y0218007D01*
X0072850Y0218045D02*
X0076638Y0218045D01*
X0076616Y0218083D02*
X0072872Y0218083D01*
X0072894Y0218121D02*
X0076594Y0218121D01*
X0076571Y0218159D02*
X0072918Y0218159D01*
X0072952Y0218197D02*
X0076536Y0218197D01*
X0076502Y0218235D02*
X0072986Y0218235D01*
X0073020Y0218273D02*
X0076468Y0218273D01*
X0076434Y0218310D02*
X0073054Y0218310D01*
X0073088Y0218348D02*
X0076400Y0218348D01*
X0076366Y0218386D02*
X0073122Y0218386D01*
X0073156Y0218424D02*
X0076332Y0218424D01*
X0076298Y0218462D02*
X0073190Y0218462D01*
X0073225Y0218500D02*
X0076264Y0218500D01*
X0076214Y0218538D02*
X0073274Y0218538D01*
X0073326Y0218576D02*
X0076162Y0218576D01*
X0076110Y0218614D02*
X0073379Y0218614D01*
X0073431Y0218651D02*
X0076058Y0218651D01*
X0076005Y0218689D02*
X0073483Y0218689D01*
X0073535Y0218727D02*
X0075953Y0218727D01*
X0075901Y0218765D02*
X0073587Y0218765D01*
X0073656Y0218803D02*
X0075832Y0218803D01*
X0075747Y0218841D02*
X0073741Y0218841D01*
X0073826Y0218879D02*
X0075662Y0218879D01*
X0075577Y0218917D02*
X0073912Y0218917D01*
X0073997Y0218954D02*
X0075492Y0218954D01*
X0075366Y0218992D02*
X0074122Y0218992D01*
X0074301Y0219030D02*
X0075188Y0219030D01*
X0075009Y0219068D02*
X0074479Y0219068D01*
X0102992Y0216823D02*
X0102992Y0214264D01*
X0103042Y0213793D01*
X0103188Y0213343D01*
X0103424Y0212933D01*
X0103741Y0212581D01*
X0104124Y0212303D01*
X0104556Y0212111D01*
X0105019Y0212012D01*
X0105493Y0212012D01*
X0105955Y0212111D01*
X0106388Y0212303D01*
X0106771Y0212581D01*
X0107087Y0212933D01*
X0107324Y0213343D01*
X0107470Y0213793D01*
X0107520Y0214264D01*
X0107520Y0216823D01*
X0107470Y0217294D01*
X0107324Y0217744D01*
X0107087Y0218153D01*
X0106771Y0218505D01*
X0106388Y0218783D01*
X0105955Y0218976D01*
X0105493Y0219074D01*
X0105019Y0219074D01*
X0104556Y0218976D01*
X0104124Y0218783D01*
X0103741Y0218505D01*
X0103424Y0218153D01*
X0103188Y0217744D01*
X0103042Y0217294D01*
X0102992Y0216823D01*
X0102993Y0216833D02*
X0107519Y0216833D01*
X0107520Y0216795D02*
X0102992Y0216795D01*
X0102992Y0216757D02*
X0107520Y0216757D01*
X0107520Y0216719D02*
X0102992Y0216719D01*
X0102992Y0216682D02*
X0107520Y0216682D01*
X0107520Y0216644D02*
X0102992Y0216644D01*
X0102992Y0216606D02*
X0107520Y0216606D01*
X0107520Y0216568D02*
X0102992Y0216568D01*
X0102992Y0216530D02*
X0107520Y0216530D01*
X0107520Y0216492D02*
X0102992Y0216492D01*
X0102992Y0216454D02*
X0107520Y0216454D01*
X0107520Y0216416D02*
X0102992Y0216416D01*
X0102992Y0216379D02*
X0107520Y0216379D01*
X0107520Y0216341D02*
X0102992Y0216341D01*
X0102992Y0216303D02*
X0107520Y0216303D01*
X0107520Y0216265D02*
X0102992Y0216265D01*
X0102992Y0216227D02*
X0107520Y0216227D01*
X0107520Y0216189D02*
X0102992Y0216189D01*
X0102992Y0216151D02*
X0107520Y0216151D01*
X0107520Y0216113D02*
X0102992Y0216113D01*
X0102992Y0216075D02*
X0107520Y0216075D01*
X0107520Y0216038D02*
X0102992Y0216038D01*
X0102992Y0216000D02*
X0107520Y0216000D01*
X0107520Y0215962D02*
X0102992Y0215962D01*
X0102992Y0215924D02*
X0107520Y0215924D01*
X0107520Y0215886D02*
X0102992Y0215886D01*
X0102992Y0215848D02*
X0107520Y0215848D01*
X0107520Y0215810D02*
X0102992Y0215810D01*
X0102992Y0215772D02*
X0107520Y0215772D01*
X0107520Y0215735D02*
X0102992Y0215735D01*
X0102992Y0215697D02*
X0107520Y0215697D01*
X0107520Y0215659D02*
X0102992Y0215659D01*
X0102992Y0215621D02*
X0107520Y0215621D01*
X0107520Y0215583D02*
X0102992Y0215583D01*
X0102992Y0215545D02*
X0107520Y0215545D01*
X0107520Y0215507D02*
X0102992Y0215507D01*
X0102992Y0215469D02*
X0107520Y0215469D01*
X0107520Y0215432D02*
X0102992Y0215432D01*
X0102992Y0215394D02*
X0107520Y0215394D01*
X0107520Y0215356D02*
X0102992Y0215356D01*
X0102992Y0215318D02*
X0107520Y0215318D01*
X0107520Y0215280D02*
X0102992Y0215280D01*
X0102992Y0215242D02*
X0107520Y0215242D01*
X0107520Y0215204D02*
X0102992Y0215204D01*
X0102992Y0215166D02*
X0107520Y0215166D01*
X0107520Y0215128D02*
X0102992Y0215128D01*
X0102992Y0215091D02*
X0107520Y0215091D01*
X0107520Y0215053D02*
X0102992Y0215053D01*
X0102992Y0215015D02*
X0107520Y0215015D01*
X0107520Y0214977D02*
X0102992Y0214977D01*
X0102992Y0214939D02*
X0107520Y0214939D01*
X0107520Y0214901D02*
X0102992Y0214901D01*
X0102992Y0214863D02*
X0107520Y0214863D01*
X0107520Y0214825D02*
X0102992Y0214825D01*
X0102992Y0214788D02*
X0107520Y0214788D01*
X0107520Y0214750D02*
X0102992Y0214750D01*
X0102992Y0214712D02*
X0107520Y0214712D01*
X0107520Y0214674D02*
X0102992Y0214674D01*
X0102992Y0214636D02*
X0107520Y0214636D01*
X0107520Y0214598D02*
X0102992Y0214598D01*
X0102992Y0214560D02*
X0107520Y0214560D01*
X0107520Y0214522D02*
X0102992Y0214522D01*
X0102992Y0214484D02*
X0107520Y0214484D01*
X0107520Y0214447D02*
X0102992Y0214447D01*
X0102992Y0214409D02*
X0107520Y0214409D01*
X0107520Y0214371D02*
X0102992Y0214371D01*
X0102992Y0214333D02*
X0107520Y0214333D01*
X0107520Y0214295D02*
X0102992Y0214295D01*
X0102993Y0214257D02*
X0107519Y0214257D01*
X0107515Y0214219D02*
X0102997Y0214219D01*
X0103001Y0214181D02*
X0107511Y0214181D01*
X0107507Y0214144D02*
X0103005Y0214144D01*
X0103009Y0214106D02*
X0107503Y0214106D01*
X0107499Y0214068D02*
X0103013Y0214068D01*
X0103017Y0214030D02*
X0107495Y0214030D01*
X0107491Y0213992D02*
X0103021Y0213992D01*
X0103025Y0213954D02*
X0107487Y0213954D01*
X0107483Y0213916D02*
X0103029Y0213916D01*
X0103033Y0213878D02*
X0107479Y0213878D01*
X0107475Y0213840D02*
X0103037Y0213840D01*
X0103041Y0213803D02*
X0107471Y0213803D01*
X0107461Y0213765D02*
X0103051Y0213765D01*
X0103063Y0213727D02*
X0107449Y0213727D01*
X0107436Y0213689D02*
X0103075Y0213689D01*
X0103088Y0213651D02*
X0107424Y0213651D01*
X0107412Y0213613D02*
X0103100Y0213613D01*
X0103112Y0213575D02*
X0107399Y0213575D01*
X0107387Y0213537D02*
X0103125Y0213537D01*
X0103137Y0213500D02*
X0107375Y0213500D01*
X0107363Y0213462D02*
X0103149Y0213462D01*
X0103162Y0213424D02*
X0107350Y0213424D01*
X0107338Y0213386D02*
X0103174Y0213386D01*
X0103186Y0213348D02*
X0107326Y0213348D01*
X0107305Y0213310D02*
X0103207Y0213310D01*
X0103229Y0213272D02*
X0107283Y0213272D01*
X0107261Y0213234D02*
X0103251Y0213234D01*
X0103272Y0213197D02*
X0107239Y0213197D01*
X0107218Y0213159D02*
X0103294Y0213159D01*
X0103316Y0213121D02*
X0107196Y0213121D01*
X0107174Y0213083D02*
X0103338Y0213083D01*
X0103360Y0213045D02*
X0107152Y0213045D01*
X0107130Y0213007D02*
X0103382Y0213007D01*
X0103404Y0212969D02*
X0107108Y0212969D01*
X0107086Y0212931D02*
X0103426Y0212931D01*
X0103460Y0212893D02*
X0107052Y0212893D01*
X0107017Y0212856D02*
X0103494Y0212856D01*
X0103528Y0212818D02*
X0106983Y0212818D01*
X0106949Y0212780D02*
X0103563Y0212780D01*
X0103597Y0212742D02*
X0106915Y0212742D01*
X0106881Y0212704D02*
X0103631Y0212704D01*
X0103665Y0212666D02*
X0106847Y0212666D01*
X0106813Y0212628D02*
X0103699Y0212628D01*
X0103733Y0212590D02*
X0106779Y0212590D01*
X0106731Y0212553D02*
X0103781Y0212553D01*
X0103833Y0212515D02*
X0106679Y0212515D01*
X0106627Y0212477D02*
X0103885Y0212477D01*
X0103937Y0212439D02*
X0106574Y0212439D01*
X0106522Y0212401D02*
X0103990Y0212401D01*
X0104042Y0212363D02*
X0106470Y0212363D01*
X0106418Y0212325D02*
X0104094Y0212325D01*
X0104160Y0212287D02*
X0106352Y0212287D01*
X0106267Y0212249D02*
X0104245Y0212249D01*
X0104330Y0212212D02*
X0106182Y0212212D01*
X0106097Y0212174D02*
X0104415Y0212174D01*
X0104500Y0212136D02*
X0106012Y0212136D01*
X0105895Y0212098D02*
X0104617Y0212098D01*
X0104795Y0212060D02*
X0105717Y0212060D01*
X0105539Y0212022D02*
X0104973Y0212022D01*
X0102997Y0216871D02*
X0107515Y0216871D01*
X0107511Y0216909D02*
X0103001Y0216909D01*
X0103005Y0216947D02*
X0107507Y0216947D01*
X0107503Y0216985D02*
X0103009Y0216985D01*
X0103013Y0217023D02*
X0107499Y0217023D01*
X0107495Y0217060D02*
X0103017Y0217060D01*
X0103021Y0217098D02*
X0107491Y0217098D01*
X0107487Y0217136D02*
X0103025Y0217136D01*
X0103029Y0217174D02*
X0107483Y0217174D01*
X0107479Y0217212D02*
X0103033Y0217212D01*
X0103037Y0217250D02*
X0107475Y0217250D01*
X0107471Y0217288D02*
X0103041Y0217288D01*
X0103052Y0217326D02*
X0107460Y0217326D01*
X0107447Y0217363D02*
X0103064Y0217363D01*
X0103077Y0217401D02*
X0107435Y0217401D01*
X0107423Y0217439D02*
X0103089Y0217439D01*
X0103101Y0217477D02*
X0107411Y0217477D01*
X0107398Y0217515D02*
X0103114Y0217515D01*
X0103126Y0217553D02*
X0107386Y0217553D01*
X0107374Y0217591D02*
X0103138Y0217591D01*
X0103150Y0217629D02*
X0107361Y0217629D01*
X0107349Y0217667D02*
X0103163Y0217667D01*
X0103175Y0217704D02*
X0107337Y0217704D01*
X0107324Y0217742D02*
X0103187Y0217742D01*
X0103209Y0217780D02*
X0107303Y0217780D01*
X0107281Y0217818D02*
X0103231Y0217818D01*
X0103253Y0217856D02*
X0107259Y0217856D01*
X0107237Y0217894D02*
X0103275Y0217894D01*
X0103296Y0217932D02*
X0107215Y0217932D01*
X0107194Y0217970D02*
X0103318Y0217970D01*
X0103340Y0218007D02*
X0107172Y0218007D01*
X0107150Y0218045D02*
X0103362Y0218045D01*
X0103384Y0218083D02*
X0107128Y0218083D01*
X0107106Y0218121D02*
X0103406Y0218121D01*
X0103429Y0218159D02*
X0107082Y0218159D01*
X0107048Y0218197D02*
X0103464Y0218197D01*
X0103498Y0218235D02*
X0107014Y0218235D01*
X0106980Y0218273D02*
X0103532Y0218273D01*
X0103566Y0218310D02*
X0106946Y0218310D01*
X0106912Y0218348D02*
X0103600Y0218348D01*
X0103634Y0218386D02*
X0106878Y0218386D01*
X0106844Y0218424D02*
X0103668Y0218424D01*
X0103702Y0218462D02*
X0106809Y0218462D01*
X0106775Y0218500D02*
X0103736Y0218500D01*
X0103786Y0218538D02*
X0106726Y0218538D01*
X0106674Y0218576D02*
X0103838Y0218576D01*
X0103890Y0218614D02*
X0106621Y0218614D01*
X0106569Y0218651D02*
X0103942Y0218651D01*
X0103995Y0218689D02*
X0106517Y0218689D01*
X0106465Y0218727D02*
X0104047Y0218727D01*
X0104099Y0218765D02*
X0106413Y0218765D01*
X0106344Y0218803D02*
X0104168Y0218803D01*
X0104253Y0218841D02*
X0106259Y0218841D01*
X0106174Y0218879D02*
X0104338Y0218879D01*
X0104423Y0218917D02*
X0106088Y0218917D01*
X0106003Y0218954D02*
X0104508Y0218954D01*
X0104634Y0218992D02*
X0105878Y0218992D01*
X0105699Y0219030D02*
X0104812Y0219030D01*
X0104991Y0219068D02*
X0105521Y0219068D01*
D15*
X0076240Y0125000D03*
X0068760Y0125000D03*
X0056240Y0125000D03*
X0048760Y0125000D03*
X0107510Y0051250D03*
X0114990Y0051250D03*
X0114990Y0042500D03*
X0107510Y0042500D03*
X0107510Y0028750D03*
X0114990Y0028750D03*
X0102490Y0020000D03*
X0095010Y0020000D03*
D16*
X0056093Y0146004D03*
X0046250Y0146004D03*
X0036407Y0146004D03*
X0036407Y0158996D03*
X0046250Y0158996D03*
X0056093Y0158996D03*
D17*
X0083750Y0050630D03*
X0088750Y0050630D03*
X0093750Y0050630D03*
X0098750Y0050630D03*
X0098750Y0029370D03*
X0093750Y0029370D03*
X0088750Y0029370D03*
X0083750Y0029370D03*
D18*
X0016100Y0025000D02*
X0008900Y0025000D01*
X0008900Y0015000D02*
X0016100Y0015000D01*
X0016100Y0035000D02*
X0008900Y0035000D01*
X0008900Y0045000D02*
X0016100Y0045000D01*
D19*
X0021250Y0040000D03*
X0021250Y0030000D03*
X0020000Y0053750D03*
X0016250Y0053750D03*
X0012500Y0053750D03*
X0042500Y0070000D03*
X0046250Y0073750D03*
X0051250Y0073750D03*
X0051250Y0092500D03*
X0046250Y0097500D03*
X0046250Y0103750D03*
X0046250Y0110000D03*
X0051250Y0115000D03*
X0057500Y0115000D03*
X0063750Y0115000D03*
X0068750Y0110000D03*
X0068750Y0103750D03*
X0068750Y0097500D03*
X0063750Y0092500D03*
X0057500Y0092500D03*
X0037500Y0100000D03*
X0032500Y0100000D03*
X0023750Y0112500D03*
X0023750Y0116250D03*
X0023750Y0120000D03*
X0027500Y0125000D03*
X0018750Y0158750D03*
X0027500Y0165000D03*
X0035000Y0175000D03*
X0035000Y0178750D03*
X0035000Y0182500D03*
X0038750Y0182500D03*
X0038750Y0178750D03*
X0038750Y0175000D03*
X0042500Y0175000D03*
X0042500Y0178750D03*
X0042500Y0182500D03*
X0050000Y0188750D03*
X0056250Y0181250D03*
X0056250Y0176250D03*
X0047500Y0165000D03*
X0067500Y0138750D03*
X0071250Y0138750D03*
X0075000Y0138750D03*
X0082500Y0137500D03*
X0082500Y0148750D03*
X0082500Y0152500D03*
X0078750Y0152500D03*
X0078750Y0148750D03*
X0078750Y0156250D03*
X0087500Y0157500D03*
X0088750Y0163750D03*
X0088750Y0167500D03*
X0085000Y0167500D03*
X0090000Y0195000D03*
X0092322Y0207500D03*
X0061250Y0216250D03*
X0022500Y0188750D03*
X0007500Y0195000D03*
X0007500Y0200000D03*
X0007500Y0205000D03*
X0018750Y0216250D03*
X0062500Y0125000D03*
X0082500Y0125000D03*
X0093750Y0132500D03*
X0093750Y0136250D03*
X0093750Y0140000D03*
X0097500Y0140000D03*
X0097500Y0136250D03*
X0097500Y0132500D03*
X0097500Y0107500D03*
X0097500Y0103750D03*
X0101250Y0103750D03*
X0101250Y0107500D03*
X0100000Y0082500D03*
X0100000Y0078750D03*
X0100000Y0075000D03*
X0100000Y0071250D03*
X0090000Y0071250D03*
X0087500Y0073750D03*
X0085000Y0076250D03*
X0107500Y0057500D03*
X0090000Y0040000D03*
X0090000Y0020000D03*
X0091250Y0008750D03*
X0087500Y0008750D03*
X0083750Y0008750D03*
X0060097Y0032597D03*
X0043750Y0006250D03*
X0035000Y0005000D03*
X0031250Y0005000D03*
X0027500Y0005000D03*
D20*
X0004202Y0004202D02*
X0002694Y0006277D01*
X0001901Y0008717D01*
X0001800Y0010000D01*
X0001800Y0057500D01*
X0079672Y0057500D01*
X0081750Y0055422D01*
X0081750Y0054984D01*
X0080970Y0054204D01*
X0080970Y0047056D01*
X0081849Y0046177D01*
X0085651Y0046177D01*
X0086250Y0046776D01*
X0086849Y0046177D01*
X0090651Y0046177D01*
X0091250Y0046776D01*
X0091849Y0046177D01*
X0095651Y0046177D01*
X0096250Y0046776D01*
X0096849Y0046177D01*
X0100651Y0046177D01*
X0101530Y0047056D01*
X0101530Y0047530D01*
X0103597Y0047530D01*
X0104252Y0046875D01*
X0103451Y0046074D01*
X0103451Y0038926D01*
X0104329Y0038047D01*
X0104410Y0038047D01*
X0104410Y0033203D01*
X0104329Y0033203D01*
X0103451Y0032324D01*
X0103451Y0031850D01*
X0101530Y0031850D01*
X0101530Y0032944D01*
X0100651Y0033823D01*
X0096849Y0033823D01*
X0096250Y0033224D01*
X0095651Y0033823D01*
X0091849Y0033823D01*
X0091245Y0033218D01*
X0091230Y0033244D01*
X0090951Y0033523D01*
X0090609Y0033721D01*
X0090227Y0033823D01*
X0088890Y0033823D01*
X0088890Y0029510D01*
X0088610Y0029510D01*
X0088610Y0029230D01*
X0088890Y0029230D01*
X0088890Y0024917D01*
X0090227Y0024917D01*
X0090609Y0025020D01*
X0090650Y0025044D01*
X0090650Y0023100D01*
X0089383Y0023100D01*
X0088244Y0022628D01*
X0087372Y0021756D01*
X0086900Y0020617D01*
X0086900Y0019383D01*
X0087372Y0018244D01*
X0088244Y0017372D01*
X0089383Y0016900D01*
X0090951Y0016900D01*
X0090951Y0016426D01*
X0091829Y0015547D01*
X0098190Y0015547D01*
X0098750Y0016107D01*
X0099010Y0015847D01*
X0099352Y0015649D01*
X0099734Y0015547D01*
X0101990Y0015547D01*
X0101990Y0019500D01*
X0102990Y0019500D01*
X0102990Y0015547D01*
X0105247Y0015547D01*
X0105628Y0015649D01*
X0105970Y0015847D01*
X0106249Y0016126D01*
X0106447Y0016468D01*
X0106549Y0016850D01*
X0106549Y0019500D01*
X0102990Y0019500D01*
X0102990Y0020500D01*
X0101990Y0020500D01*
X0101990Y0024453D01*
X0099734Y0024453D01*
X0099352Y0024351D01*
X0099010Y0024153D01*
X0098750Y0023893D01*
X0098190Y0024453D01*
X0096850Y0024453D01*
X0096850Y0024917D01*
X0100651Y0024917D01*
X0101384Y0025650D01*
X0103451Y0025650D01*
X0103451Y0025176D01*
X0104174Y0024453D01*
X0102990Y0024453D01*
X0102990Y0020500D01*
X0106549Y0020500D01*
X0106549Y0023150D01*
X0106447Y0023532D01*
X0106249Y0023874D01*
X0105970Y0024153D01*
X0105720Y0024297D01*
X0110690Y0024297D01*
X0111250Y0024857D01*
X0111510Y0024597D01*
X0111852Y0024399D01*
X0112234Y0024297D01*
X0114490Y0024297D01*
X0114490Y0028250D01*
X0115490Y0028250D01*
X0115490Y0024297D01*
X0117747Y0024297D01*
X0118128Y0024399D01*
X0118470Y0024597D01*
X0118749Y0024876D01*
X0118947Y0025218D01*
X0119049Y0025600D01*
X0119049Y0028250D01*
X0115490Y0028250D01*
X0115490Y0029250D01*
X0114490Y0029250D01*
X0114490Y0033203D01*
X0112234Y0033203D01*
X0111852Y0033101D01*
X0111510Y0032903D01*
X0111250Y0032643D01*
X0110690Y0033203D01*
X0110610Y0033203D01*
X0110610Y0038047D01*
X0110690Y0038047D01*
X0111250Y0038607D01*
X0111510Y0038347D01*
X0111852Y0038149D01*
X0112234Y0038047D01*
X0114490Y0038047D01*
X0114490Y0042000D01*
X0115490Y0042000D01*
X0115490Y0038047D01*
X0117747Y0038047D01*
X0118128Y0038149D01*
X0118470Y0038347D01*
X0118749Y0038626D01*
X0118947Y0038968D01*
X0119049Y0039350D01*
X0119049Y0042000D01*
X0115490Y0042000D01*
X0115490Y0043000D01*
X0114490Y0043000D01*
X0114490Y0050750D01*
X0115490Y0050750D01*
X0115490Y0046797D01*
X0115490Y0043000D01*
X0119049Y0043000D01*
X0119049Y0045650D01*
X0118947Y0046032D01*
X0118749Y0046374D01*
X0118470Y0046653D01*
X0118128Y0046851D01*
X0118037Y0046875D01*
X0118128Y0046899D01*
X0118470Y0047097D01*
X0118749Y0047376D01*
X0118947Y0047718D01*
X0119049Y0048100D01*
X0119049Y0050750D01*
X0115490Y0050750D01*
X0115490Y0051750D01*
X0114490Y0051750D01*
X0114490Y0055703D01*
X0112234Y0055703D01*
X0111852Y0055601D01*
X0111510Y0055403D01*
X0111250Y0055143D01*
X0110690Y0055703D01*
X0110610Y0055703D01*
X0110610Y0058107D01*
X0110138Y0059246D01*
X0109256Y0060128D01*
X0108117Y0060600D01*
X0106883Y0060600D01*
X0105744Y0060128D01*
X0104872Y0059256D01*
X0104400Y0058117D01*
X0104400Y0056883D01*
X0104410Y0056860D01*
X0104410Y0055703D01*
X0104329Y0055703D01*
X0103451Y0054824D01*
X0103451Y0053730D01*
X0101530Y0053730D01*
X0101530Y0054204D01*
X0100651Y0055083D01*
X0096849Y0055083D01*
X0096250Y0054484D01*
X0095750Y0054984D01*
X0095750Y0062078D01*
X0094578Y0063250D01*
X0094500Y0063328D01*
X0094500Y0090750D01*
X0095000Y0091250D01*
X0123200Y0091250D01*
X0123200Y0010000D01*
X0123099Y0008717D01*
X0122306Y0006277D01*
X0120798Y0004202D01*
X0118723Y0002694D01*
X0116283Y0001901D01*
X0115000Y0001800D01*
X0010000Y0001800D01*
X0008717Y0001901D01*
X0006277Y0002694D01*
X0004202Y0004202D01*
X0004488Y0003994D02*
X0010454Y0003994D01*
X0010948Y0003500D02*
X0012512Y0003500D01*
X0012681Y0003669D01*
X0012908Y0003800D01*
X0014201Y0003380D01*
X0015366Y0003759D01*
X0015625Y0003500D01*
X0018004Y0003500D01*
X0019000Y0004496D01*
X0019000Y0007771D01*
X0019000Y0008704D01*
X0018004Y0009700D01*
X0016596Y0009700D01*
X0015600Y0008704D01*
X0015600Y0008569D01*
X0015447Y0008481D01*
X0014201Y0008886D01*
X0014201Y0008886D01*
X0013892Y0008786D01*
X0012978Y0009700D01*
X0011570Y0009700D01*
X0010574Y0008704D01*
X0010574Y0008393D01*
X0009952Y0007771D01*
X0009952Y0006362D01*
X0010181Y0006133D01*
X0009952Y0005904D01*
X0009952Y0004496D01*
X0010948Y0003500D01*
X0009952Y0004993D02*
X0003627Y0004993D01*
X0002902Y0005991D02*
X0010039Y0005991D01*
X0009952Y0006990D02*
X0002462Y0006990D01*
X0002138Y0007988D02*
X0010169Y0007988D01*
X0010857Y0008987D02*
X0001880Y0008987D01*
X0001801Y0009985D02*
X0007680Y0009985D01*
X0007886Y0009900D02*
X0017114Y0009900D01*
X0018989Y0010676D01*
X0020424Y0012111D01*
X0021200Y0013986D01*
X0021200Y0016014D01*
X0020424Y0017889D01*
X0018989Y0019324D01*
X0017356Y0020000D01*
X0018989Y0020676D01*
X0020424Y0022111D01*
X0021200Y0023986D01*
X0021200Y0026014D01*
X0020424Y0027889D01*
X0018989Y0029324D01*
X0017294Y0030026D01*
X0017294Y0030026D01*
X0018058Y0030274D01*
X0018773Y0030638D01*
X0019422Y0031110D01*
X0019990Y0031678D01*
X0020462Y0032327D01*
X0020826Y0033042D01*
X0021074Y0033806D01*
X0021184Y0034500D01*
X0013000Y0034500D01*
X0013000Y0035500D01*
X0021184Y0035500D01*
X0021074Y0036194D01*
X0020826Y0036958D01*
X0020462Y0037673D01*
X0019990Y0038322D01*
X0019422Y0038890D01*
X0018773Y0039362D01*
X0018058Y0039726D01*
X0017294Y0039974D01*
X0017133Y0040000D01*
X0017294Y0040026D01*
X0018058Y0040274D01*
X0018773Y0040638D01*
X0019422Y0041110D01*
X0019990Y0041678D01*
X0020462Y0042327D01*
X0020826Y0043042D01*
X0021074Y0043806D01*
X0021184Y0044500D01*
X0013000Y0044500D01*
X0013000Y0045500D01*
X0012000Y0045500D01*
X0012000Y0050100D01*
X0008499Y0050100D01*
X0007706Y0049974D01*
X0006942Y0049726D01*
X0006227Y0049362D01*
X0005578Y0048890D01*
X0005010Y0048322D01*
X0004538Y0047673D01*
X0004174Y0046958D01*
X0003926Y0046194D01*
X0003816Y0045500D01*
X0012000Y0045500D01*
X0012000Y0044500D01*
X0003816Y0044500D01*
X0003926Y0043806D01*
X0004174Y0043042D01*
X0004538Y0042327D01*
X0005010Y0041678D01*
X0005578Y0041110D01*
X0006227Y0040638D01*
X0006942Y0040274D01*
X0007706Y0040026D01*
X0007867Y0040000D01*
X0007706Y0039974D01*
X0006942Y0039726D01*
X0006227Y0039362D01*
X0005578Y0038890D01*
X0005010Y0038322D01*
X0004538Y0037673D01*
X0004174Y0036958D01*
X0003926Y0036194D01*
X0003816Y0035500D01*
X0012000Y0035500D01*
X0012000Y0039900D01*
X0012000Y0044500D01*
X0013000Y0044500D01*
X0013000Y0035500D01*
X0012000Y0035500D01*
X0012000Y0034500D01*
X0003816Y0034500D01*
X0003926Y0033806D01*
X0004174Y0033042D01*
X0004538Y0032327D01*
X0005010Y0031678D01*
X0005578Y0031110D01*
X0006227Y0030638D01*
X0006942Y0030274D01*
X0007706Y0030026D01*
X0006011Y0029324D01*
X0004576Y0027889D01*
X0003800Y0026014D01*
X0003800Y0023986D01*
X0004576Y0022111D01*
X0006011Y0020676D01*
X0007644Y0020000D01*
X0006011Y0019324D01*
X0004576Y0017889D01*
X0003800Y0016014D01*
X0003800Y0013986D01*
X0004576Y0012111D01*
X0006011Y0010676D01*
X0007886Y0009900D01*
X0005704Y0010984D02*
X0001800Y0010984D01*
X0001800Y0011982D02*
X0004705Y0011982D01*
X0004216Y0012981D02*
X0001800Y0012981D01*
X0001800Y0013979D02*
X0003803Y0013979D01*
X0003800Y0014978D02*
X0001800Y0014978D01*
X0001800Y0015976D02*
X0003800Y0015976D01*
X0004198Y0016975D02*
X0001800Y0016975D01*
X0001800Y0017973D02*
X0004661Y0017973D01*
X0005659Y0018972D02*
X0001800Y0018972D01*
X0001800Y0019970D02*
X0007572Y0019970D01*
X0005719Y0020969D02*
X0001800Y0020969D01*
X0001800Y0021967D02*
X0004720Y0021967D01*
X0004222Y0022966D02*
X0001800Y0022966D01*
X0001800Y0023964D02*
X0003809Y0023964D01*
X0003800Y0024963D02*
X0001800Y0024963D01*
X0001800Y0025961D02*
X0003800Y0025961D01*
X0004192Y0026960D02*
X0001800Y0026960D01*
X0001800Y0027958D02*
X0004646Y0027958D01*
X0005644Y0028957D02*
X0001800Y0028957D01*
X0001800Y0029955D02*
X0007536Y0029955D01*
X0007706Y0030026D02*
X0007706Y0030026D01*
X0005792Y0030954D02*
X0001800Y0030954D01*
X0001800Y0031952D02*
X0004810Y0031952D01*
X0004220Y0032951D02*
X0001800Y0032951D01*
X0001800Y0033949D02*
X0003903Y0033949D01*
X0003886Y0035946D02*
X0001800Y0035946D01*
X0001800Y0034948D02*
X0012000Y0034948D01*
X0012000Y0035946D02*
X0013000Y0035946D01*
X0013000Y0034948D02*
X0058064Y0034948D01*
X0057469Y0034353D02*
X0041994Y0018878D01*
X0041122Y0018006D01*
X0040650Y0016867D01*
X0040650Y0005633D01*
X0041122Y0004494D01*
X0041994Y0003622D01*
X0043133Y0003150D01*
X0044367Y0003150D01*
X0045506Y0003622D01*
X0046378Y0004494D01*
X0046850Y0005633D01*
X0046850Y0014966D01*
X0061853Y0029969D01*
X0068784Y0036900D01*
X0090617Y0036900D01*
X0091756Y0037372D01*
X0092628Y0038244D01*
X0093100Y0039383D01*
X0093100Y0040617D01*
X0092628Y0041756D01*
X0091756Y0042628D01*
X0090617Y0043100D01*
X0066883Y0043100D01*
X0065744Y0042628D01*
X0057469Y0034353D01*
X0057065Y0033949D02*
X0021097Y0033949D01*
X0020780Y0032951D02*
X0056067Y0032951D01*
X0055068Y0031952D02*
X0020190Y0031952D01*
X0019208Y0030954D02*
X0054070Y0030954D01*
X0053071Y0029955D02*
X0017464Y0029955D01*
X0019356Y0028957D02*
X0052073Y0028957D01*
X0051074Y0027958D02*
X0020354Y0027958D01*
X0020808Y0026960D02*
X0050076Y0026960D01*
X0049077Y0025961D02*
X0021200Y0025961D01*
X0021200Y0024963D02*
X0048079Y0024963D01*
X0047080Y0023964D02*
X0021191Y0023964D01*
X0020778Y0022966D02*
X0046082Y0022966D01*
X0045083Y0021967D02*
X0020280Y0021967D01*
X0019281Y0020969D02*
X0044085Y0020969D01*
X0043086Y0019970D02*
X0017428Y0019970D01*
X0019341Y0018972D02*
X0042088Y0018972D01*
X0041108Y0017973D02*
X0020339Y0017973D01*
X0020802Y0016975D02*
X0040695Y0016975D01*
X0040650Y0015976D02*
X0021200Y0015976D01*
X0021200Y0014978D02*
X0040650Y0014978D01*
X0040650Y0013979D02*
X0021197Y0013979D01*
X0020784Y0012981D02*
X0040650Y0012981D01*
X0040650Y0011982D02*
X0020295Y0011982D01*
X0019296Y0010984D02*
X0040650Y0010984D01*
X0040650Y0009985D02*
X0017320Y0009985D01*
X0018718Y0008987D02*
X0040650Y0008987D01*
X0040650Y0007988D02*
X0019000Y0007988D01*
X0019000Y0006990D02*
X0040650Y0006990D01*
X0040650Y0005991D02*
X0019000Y0005991D01*
X0019000Y0004993D02*
X0040915Y0004993D01*
X0041622Y0003994D02*
X0018498Y0003994D01*
X0015882Y0008987D02*
X0013692Y0008987D01*
X0014201Y0003380D02*
X0014201Y0003380D01*
X0008422Y0001997D02*
X0116578Y0001997D01*
X0119138Y0002996D02*
X0005862Y0002996D01*
X0021114Y0035946D02*
X0059062Y0035946D01*
X0060061Y0036945D02*
X0020830Y0036945D01*
X0020265Y0037943D02*
X0061059Y0037943D01*
X0062058Y0038942D02*
X0019351Y0038942D01*
X0019187Y0040939D02*
X0064055Y0040939D01*
X0065053Y0041937D02*
X0020179Y0041937D01*
X0020772Y0042936D02*
X0066487Y0042936D01*
X0063056Y0039940D02*
X0017399Y0039940D01*
X0013000Y0039940D02*
X0012000Y0039940D01*
X0012000Y0038942D02*
X0013000Y0038942D01*
X0013000Y0037943D02*
X0012000Y0037943D01*
X0012000Y0036945D02*
X0013000Y0036945D01*
X0013000Y0040939D02*
X0012000Y0040939D01*
X0012000Y0041937D02*
X0013000Y0041937D01*
X0013000Y0042936D02*
X0012000Y0042936D01*
X0012000Y0043934D02*
X0013000Y0043934D01*
X0013000Y0044933D02*
X0103451Y0044933D01*
X0103451Y0043934D02*
X0021095Y0043934D01*
X0021184Y0045500D02*
X0021074Y0046194D01*
X0020826Y0046958D01*
X0020462Y0047673D01*
X0019990Y0048322D01*
X0019422Y0048890D01*
X0018773Y0049362D01*
X0018058Y0049726D01*
X0017294Y0049974D01*
X0016501Y0050100D01*
X0013000Y0050100D01*
X0013000Y0045500D01*
X0021184Y0045500D01*
X0021116Y0045932D02*
X0103451Y0045932D01*
X0104197Y0046930D02*
X0101404Y0046930D01*
X0101530Y0053920D02*
X0103451Y0053920D01*
X0103545Y0054918D02*
X0100815Y0054918D01*
X0104410Y0055917D02*
X0095750Y0055917D01*
X0095750Y0056915D02*
X0104400Y0056915D01*
X0104400Y0057914D02*
X0095750Y0057914D01*
X0095750Y0058912D02*
X0104730Y0058912D01*
X0105527Y0059911D02*
X0095750Y0059911D01*
X0095750Y0060909D02*
X0123200Y0060909D01*
X0123200Y0059911D02*
X0109473Y0059911D01*
X0110276Y0058912D02*
X0123200Y0058912D01*
X0123200Y0057914D02*
X0110610Y0057914D01*
X0110610Y0056915D02*
X0123200Y0056915D01*
X0123200Y0055917D02*
X0110610Y0055917D01*
X0114490Y0054918D02*
X0115490Y0054918D01*
X0115490Y0055703D02*
X0117747Y0055703D01*
X0118128Y0055601D01*
X0118470Y0055403D01*
X0118749Y0055124D01*
X0118947Y0054782D01*
X0119049Y0054400D01*
X0119049Y0051750D01*
X0115490Y0051750D01*
X0115490Y0055703D01*
X0115490Y0053920D02*
X0114490Y0053920D01*
X0114490Y0052921D02*
X0115490Y0052921D01*
X0115490Y0051923D02*
X0114490Y0051923D01*
X0115490Y0050924D02*
X0123200Y0050924D01*
X0123200Y0049926D02*
X0119049Y0049926D01*
X0119049Y0048927D02*
X0123200Y0048927D01*
X0123200Y0047929D02*
X0119003Y0047929D01*
X0118181Y0046930D02*
X0123200Y0046930D01*
X0123200Y0045932D02*
X0118974Y0045932D01*
X0119049Y0044933D02*
X0123200Y0044933D01*
X0123200Y0043934D02*
X0119049Y0043934D01*
X0119049Y0041937D02*
X0123200Y0041937D01*
X0123200Y0040939D02*
X0119049Y0040939D01*
X0119049Y0039940D02*
X0123200Y0039940D01*
X0123200Y0038942D02*
X0118932Y0038942D01*
X0115490Y0038942D02*
X0114490Y0038942D01*
X0114490Y0039940D02*
X0115490Y0039940D01*
X0115490Y0040939D02*
X0114490Y0040939D01*
X0114490Y0041937D02*
X0115490Y0041937D01*
X0115490Y0042936D02*
X0123200Y0042936D01*
X0123200Y0037943D02*
X0110610Y0037943D01*
X0110610Y0036945D02*
X0123200Y0036945D01*
X0123200Y0035946D02*
X0110610Y0035946D01*
X0110610Y0034948D02*
X0123200Y0034948D01*
X0123200Y0033949D02*
X0110610Y0033949D01*
X0110942Y0032951D02*
X0111593Y0032951D01*
X0114490Y0032951D02*
X0115490Y0032951D01*
X0115490Y0033203D02*
X0115490Y0029250D01*
X0119049Y0029250D01*
X0119049Y0031900D01*
X0118947Y0032282D01*
X0118749Y0032624D01*
X0118470Y0032903D01*
X0118128Y0033101D01*
X0117747Y0033203D01*
X0115490Y0033203D01*
X0115490Y0031952D02*
X0114490Y0031952D01*
X0114490Y0030954D02*
X0115490Y0030954D01*
X0115490Y0029955D02*
X0114490Y0029955D01*
X0115490Y0028957D02*
X0123200Y0028957D01*
X0123200Y0029955D02*
X0119049Y0029955D01*
X0119049Y0030954D02*
X0123200Y0030954D01*
X0123200Y0031952D02*
X0119035Y0031952D01*
X0118387Y0032951D02*
X0123200Y0032951D01*
X0123200Y0027958D02*
X0119049Y0027958D01*
X0119049Y0026960D02*
X0123200Y0026960D01*
X0123200Y0025961D02*
X0119049Y0025961D01*
X0118799Y0024963D02*
X0123200Y0024963D01*
X0123200Y0023964D02*
X0106159Y0023964D01*
X0106549Y0022966D02*
X0123200Y0022966D01*
X0123200Y0021967D02*
X0106549Y0021967D01*
X0106549Y0020969D02*
X0123200Y0020969D01*
X0123200Y0019970D02*
X0102990Y0019970D01*
X0102990Y0018972D02*
X0101990Y0018972D01*
X0101990Y0017973D02*
X0102990Y0017973D01*
X0102990Y0016975D02*
X0101990Y0016975D01*
X0101990Y0015976D02*
X0102990Y0015976D01*
X0106099Y0015976D02*
X0123200Y0015976D01*
X0123200Y0014978D02*
X0046862Y0014978D01*
X0046850Y0013979D02*
X0123200Y0013979D01*
X0123200Y0012981D02*
X0046850Y0012981D01*
X0046850Y0011982D02*
X0123200Y0011982D01*
X0123200Y0010984D02*
X0046850Y0010984D01*
X0046850Y0009985D02*
X0123199Y0009985D01*
X0123120Y0008987D02*
X0046850Y0008987D01*
X0046850Y0007988D02*
X0122862Y0007988D01*
X0122538Y0006990D02*
X0046850Y0006990D01*
X0046850Y0005991D02*
X0122098Y0005991D01*
X0121373Y0004993D02*
X0046585Y0004993D01*
X0045878Y0003994D02*
X0120512Y0003994D01*
X0123200Y0016975D02*
X0106549Y0016975D01*
X0106549Y0017973D02*
X0123200Y0017973D01*
X0123200Y0018972D02*
X0106549Y0018972D01*
X0102990Y0020969D02*
X0101990Y0020969D01*
X0101990Y0021967D02*
X0102990Y0021967D01*
X0102990Y0022966D02*
X0101990Y0022966D01*
X0101990Y0023964D02*
X0102990Y0023964D01*
X0103664Y0024963D02*
X0100696Y0024963D01*
X0098821Y0023964D02*
X0098679Y0023964D01*
X0098619Y0015976D02*
X0098881Y0015976D01*
X0091401Y0015976D02*
X0047860Y0015976D01*
X0048859Y0016975D02*
X0089203Y0016975D01*
X0087643Y0017973D02*
X0049857Y0017973D01*
X0050856Y0018972D02*
X0087071Y0018972D01*
X0086900Y0019970D02*
X0051854Y0019970D01*
X0052853Y0020969D02*
X0087046Y0020969D01*
X0087583Y0021967D02*
X0053851Y0021967D01*
X0054850Y0022966D02*
X0089059Y0022966D01*
X0090650Y0023964D02*
X0055848Y0023964D01*
X0056847Y0024963D02*
X0082103Y0024963D01*
X0082273Y0024917D02*
X0083610Y0024917D01*
X0083610Y0029230D01*
X0083890Y0029230D01*
X0083890Y0024917D01*
X0085227Y0024917D01*
X0085609Y0025020D01*
X0085951Y0025217D01*
X0086230Y0025496D01*
X0086250Y0025531D01*
X0086270Y0025496D01*
X0086549Y0025217D01*
X0086891Y0025020D01*
X0087273Y0024917D01*
X0088610Y0024917D01*
X0088610Y0029230D01*
X0083890Y0029230D01*
X0083890Y0029510D01*
X0086530Y0029510D01*
X0088610Y0029510D01*
X0088610Y0033823D01*
X0087273Y0033823D01*
X0086891Y0033721D01*
X0086549Y0033523D01*
X0086270Y0033244D01*
X0086250Y0033209D01*
X0086230Y0033244D01*
X0085951Y0033523D01*
X0085609Y0033721D01*
X0085227Y0033823D01*
X0083890Y0033823D01*
X0083890Y0029510D01*
X0083610Y0029510D01*
X0083610Y0029230D01*
X0080970Y0029230D01*
X0080970Y0026220D01*
X0081073Y0025838D01*
X0081270Y0025496D01*
X0081549Y0025217D01*
X0081891Y0025020D01*
X0082273Y0024917D01*
X0083610Y0024963D02*
X0083890Y0024963D01*
X0083890Y0025961D02*
X0083610Y0025961D01*
X0083610Y0026960D02*
X0083890Y0026960D01*
X0083890Y0027958D02*
X0083610Y0027958D01*
X0083610Y0028957D02*
X0083890Y0028957D01*
X0083610Y0029510D02*
X0080970Y0029510D01*
X0080970Y0032520D01*
X0081073Y0032902D01*
X0081270Y0033244D01*
X0081549Y0033523D01*
X0081891Y0033721D01*
X0082273Y0033823D01*
X0083610Y0033823D01*
X0083610Y0029510D01*
X0083610Y0029955D02*
X0083890Y0029955D01*
X0083890Y0030954D02*
X0083610Y0030954D01*
X0083610Y0031952D02*
X0083890Y0031952D01*
X0083890Y0032951D02*
X0083610Y0032951D01*
X0081101Y0032951D02*
X0064835Y0032951D01*
X0065833Y0033949D02*
X0104410Y0033949D01*
X0104410Y0034948D02*
X0066832Y0034948D01*
X0067830Y0035946D02*
X0104410Y0035946D01*
X0104410Y0036945D02*
X0090725Y0036945D01*
X0092327Y0037943D02*
X0104410Y0037943D01*
X0103451Y0038942D02*
X0092917Y0038942D01*
X0093100Y0039940D02*
X0103451Y0039940D01*
X0103451Y0040939D02*
X0092966Y0040939D01*
X0092447Y0041937D02*
X0103451Y0041937D01*
X0103451Y0042936D02*
X0091013Y0042936D01*
X0088890Y0032951D02*
X0088610Y0032951D01*
X0088610Y0031952D02*
X0088890Y0031952D01*
X0088890Y0030954D02*
X0088610Y0030954D01*
X0088610Y0029955D02*
X0088890Y0029955D01*
X0088890Y0028957D02*
X0088610Y0028957D01*
X0088610Y0027958D02*
X0088890Y0027958D01*
X0088890Y0026960D02*
X0088610Y0026960D01*
X0088610Y0025961D02*
X0088890Y0025961D01*
X0088890Y0024963D02*
X0088610Y0024963D01*
X0087103Y0024963D02*
X0085397Y0024963D01*
X0081040Y0025961D02*
X0057845Y0025961D01*
X0058844Y0026960D02*
X0080970Y0026960D01*
X0080970Y0027958D02*
X0059842Y0027958D01*
X0060841Y0028957D02*
X0080970Y0028957D01*
X0080970Y0029955D02*
X0061839Y0029955D01*
X0062838Y0030954D02*
X0080970Y0030954D01*
X0080970Y0031952D02*
X0063836Y0031952D01*
X0080970Y0047929D02*
X0020276Y0047929D01*
X0020835Y0046930D02*
X0081096Y0046930D01*
X0080970Y0048927D02*
X0019371Y0048927D01*
X0017445Y0049926D02*
X0080970Y0049926D01*
X0080970Y0050924D02*
X0001800Y0050924D01*
X0001800Y0049926D02*
X0007555Y0049926D01*
X0005629Y0048927D02*
X0001800Y0048927D01*
X0001800Y0047929D02*
X0004724Y0047929D01*
X0004165Y0046930D02*
X0001800Y0046930D01*
X0001800Y0045932D02*
X0003884Y0045932D01*
X0003905Y0043934D02*
X0001800Y0043934D01*
X0001800Y0042936D02*
X0004228Y0042936D01*
X0004821Y0041937D02*
X0001800Y0041937D01*
X0001800Y0040939D02*
X0005813Y0040939D01*
X0005649Y0038942D02*
X0001800Y0038942D01*
X0001800Y0039940D02*
X0007601Y0039940D01*
X0012000Y0044933D02*
X0001800Y0044933D01*
X0001800Y0037943D02*
X0004735Y0037943D01*
X0004170Y0036945D02*
X0001800Y0036945D01*
X0012000Y0045932D02*
X0013000Y0045932D01*
X0013000Y0046930D02*
X0012000Y0046930D01*
X0012000Y0047929D02*
X0013000Y0047929D01*
X0013000Y0048927D02*
X0012000Y0048927D01*
X0012000Y0049926D02*
X0013000Y0049926D01*
X0001800Y0051923D02*
X0080970Y0051923D01*
X0080970Y0052921D02*
X0001800Y0052921D01*
X0001800Y0053920D02*
X0080970Y0053920D01*
X0081685Y0054918D02*
X0001800Y0054918D01*
X0001800Y0055917D02*
X0081255Y0055917D01*
X0080256Y0056915D02*
X0001800Y0056915D01*
X0001800Y0060000D02*
X0001800Y0142500D01*
X0021750Y0142500D01*
X0021750Y0127922D01*
X0024622Y0125050D01*
X0024622Y0124428D01*
X0025060Y0123370D01*
X0025870Y0122560D01*
X0026928Y0122122D01*
X0028072Y0122122D01*
X0029130Y0122560D01*
X0029940Y0123370D01*
X0030378Y0124428D01*
X0030378Y0125572D01*
X0029940Y0126630D01*
X0029130Y0127440D01*
X0028072Y0127878D01*
X0027450Y0127878D01*
X0025750Y0129578D01*
X0025750Y0142500D01*
X0028000Y0142500D01*
X0028000Y0141672D01*
X0029172Y0140500D01*
X0030500Y0139172D01*
X0030500Y0102070D01*
X0030060Y0101630D01*
X0029622Y0100572D01*
X0029622Y0099428D01*
X0030060Y0098370D01*
X0030870Y0097560D01*
X0031928Y0097122D01*
X0033072Y0097122D01*
X0034130Y0097560D01*
X0034940Y0098370D01*
X0035000Y0098515D01*
X0035060Y0098370D01*
X0035870Y0097560D01*
X0036928Y0097122D01*
X0038072Y0097122D01*
X0039130Y0097560D01*
X0039940Y0098370D01*
X0040378Y0099428D01*
X0040378Y0100572D01*
X0039940Y0101630D01*
X0039500Y0102070D01*
X0039500Y0142465D01*
X0039535Y0142500D01*
X0043123Y0142500D01*
X0043594Y0142029D01*
X0045317Y0141315D01*
X0047183Y0141315D01*
X0048906Y0142029D01*
X0049377Y0142500D01*
X0052965Y0142500D01*
X0053436Y0142029D01*
X0055160Y0141315D01*
X0057025Y0141315D01*
X0058749Y0142029D01*
X0059220Y0142500D01*
X0083116Y0142500D01*
X0079872Y0139256D01*
X0079400Y0138117D01*
X0079400Y0136883D01*
X0079872Y0135744D01*
X0080744Y0134872D01*
X0081883Y0134400D01*
X0083117Y0134400D01*
X0084256Y0134872D01*
X0089256Y0139872D01*
X0090128Y0140744D01*
X0090600Y0141883D01*
X0090600Y0142500D01*
X0100000Y0142500D01*
X0102500Y0140000D01*
X0102500Y0120000D01*
X0092500Y0110000D01*
X0092500Y0065328D01*
X0078328Y0079500D01*
X0049172Y0079500D01*
X0048000Y0078328D01*
X0046300Y0076628D01*
X0045678Y0076628D01*
X0044620Y0076190D01*
X0043810Y0075380D01*
X0043372Y0074322D01*
X0043372Y0073178D01*
X0043584Y0072666D01*
X0043072Y0072878D01*
X0041928Y0072878D01*
X0040870Y0072440D01*
X0040060Y0071630D01*
X0039622Y0070572D01*
X0039622Y0069428D01*
X0040060Y0068370D01*
X0040870Y0067560D01*
X0041928Y0067122D01*
X0043072Y0067122D01*
X0044130Y0067560D01*
X0044570Y0068000D01*
X0069172Y0068000D01*
X0077172Y0060000D01*
X0001800Y0060000D01*
X0001800Y0060909D02*
X0076262Y0060909D01*
X0075264Y0061908D02*
X0001800Y0061908D01*
X0001800Y0062906D02*
X0074265Y0062906D01*
X0073267Y0063905D02*
X0001800Y0063905D01*
X0001800Y0064903D02*
X0072268Y0064903D01*
X0071270Y0065902D02*
X0001800Y0065902D01*
X0001800Y0066900D02*
X0070271Y0066900D01*
X0069273Y0067899D02*
X0044469Y0067899D01*
X0042500Y0070000D02*
X0070000Y0070000D01*
X0083750Y0056250D01*
X0083750Y0050630D01*
X0088750Y0050630D02*
X0088750Y0058750D01*
X0073750Y0073750D01*
X0051250Y0073750D01*
X0050000Y0077500D02*
X0077500Y0077500D01*
X0093750Y0061250D01*
X0093750Y0050630D01*
X0095815Y0054918D02*
X0096685Y0054918D01*
X0095750Y0061908D02*
X0123200Y0061908D01*
X0123200Y0062906D02*
X0094922Y0062906D01*
X0094500Y0063905D02*
X0123200Y0063905D01*
X0123200Y0064903D02*
X0094500Y0064903D01*
X0094500Y0065902D02*
X0123200Y0065902D01*
X0123200Y0066900D02*
X0094500Y0066900D01*
X0094500Y0067899D02*
X0123200Y0067899D01*
X0123200Y0068897D02*
X0094500Y0068897D01*
X0094500Y0069896D02*
X0123200Y0069896D01*
X0123200Y0070894D02*
X0094500Y0070894D01*
X0094500Y0071893D02*
X0123200Y0071893D01*
X0123200Y0072891D02*
X0094500Y0072891D01*
X0094500Y0073890D02*
X0123200Y0073890D01*
X0123200Y0074888D02*
X0094500Y0074888D01*
X0094500Y0075887D02*
X0123200Y0075887D01*
X0123200Y0076885D02*
X0094500Y0076885D01*
X0094500Y0077884D02*
X0123200Y0077884D01*
X0123200Y0078882D02*
X0094500Y0078882D01*
X0094500Y0079881D02*
X0123200Y0079881D01*
X0123200Y0080879D02*
X0094500Y0080879D01*
X0094500Y0081878D02*
X0123200Y0081878D01*
X0123200Y0082876D02*
X0094500Y0082876D01*
X0094500Y0083875D02*
X0123200Y0083875D01*
X0123200Y0084873D02*
X0094500Y0084873D01*
X0094500Y0085872D02*
X0123200Y0085872D01*
X0123200Y0086870D02*
X0094500Y0086870D01*
X0094500Y0087869D02*
X0123200Y0087869D01*
X0123200Y0088868D02*
X0094500Y0088868D01*
X0094500Y0089866D02*
X0123200Y0089866D01*
X0123200Y0090865D02*
X0094615Y0090865D01*
X0092500Y0090865D02*
X0001800Y0090865D01*
X0001800Y0091863D02*
X0092500Y0091863D01*
X0092500Y0092862D02*
X0001800Y0092862D01*
X0001800Y0093860D02*
X0092500Y0093860D01*
X0092500Y0094859D02*
X0001800Y0094859D01*
X0001800Y0095857D02*
X0092500Y0095857D01*
X0092500Y0096856D02*
X0001800Y0096856D01*
X0001800Y0097854D02*
X0030576Y0097854D01*
X0029860Y0098853D02*
X0001800Y0098853D01*
X0001800Y0099851D02*
X0029622Y0099851D01*
X0029737Y0100850D02*
X0001800Y0100850D01*
X0001800Y0101848D02*
X0030278Y0101848D01*
X0030500Y0102847D02*
X0001800Y0102847D01*
X0001800Y0103845D02*
X0030500Y0103845D01*
X0030500Y0104844D02*
X0001800Y0104844D01*
X0001800Y0105842D02*
X0030500Y0105842D01*
X0030500Y0106841D02*
X0001800Y0106841D01*
X0001800Y0107839D02*
X0030500Y0107839D01*
X0030500Y0108838D02*
X0001800Y0108838D01*
X0001800Y0109836D02*
X0030500Y0109836D01*
X0030500Y0110835D02*
X0001800Y0110835D01*
X0001800Y0111833D02*
X0030500Y0111833D01*
X0030500Y0112832D02*
X0001800Y0112832D01*
X0001800Y0113830D02*
X0030500Y0113830D01*
X0030500Y0114829D02*
X0001800Y0114829D01*
X0001800Y0115827D02*
X0030500Y0115827D01*
X0030500Y0116826D02*
X0001800Y0116826D01*
X0001800Y0117824D02*
X0030500Y0117824D01*
X0030500Y0118823D02*
X0001800Y0118823D01*
X0001800Y0119821D02*
X0030500Y0119821D01*
X0030500Y0120820D02*
X0001800Y0120820D01*
X0001800Y0121818D02*
X0030500Y0121818D01*
X0030500Y0122817D02*
X0029387Y0122817D01*
X0030124Y0123815D02*
X0030500Y0123815D01*
X0030500Y0124814D02*
X0030378Y0124814D01*
X0030279Y0125812D02*
X0030500Y0125812D01*
X0030500Y0126811D02*
X0029759Y0126811D01*
X0030500Y0127809D02*
X0028238Y0127809D01*
X0026520Y0128808D02*
X0030500Y0128808D01*
X0030500Y0129806D02*
X0025750Y0129806D01*
X0025750Y0130805D02*
X0030500Y0130805D01*
X0030500Y0131803D02*
X0025750Y0131803D01*
X0025750Y0132802D02*
X0030500Y0132802D01*
X0030500Y0133801D02*
X0025750Y0133801D01*
X0025750Y0134799D02*
X0030500Y0134799D01*
X0030500Y0135798D02*
X0025750Y0135798D01*
X0025750Y0136796D02*
X0030500Y0136796D01*
X0030500Y0137795D02*
X0025750Y0137795D01*
X0025750Y0138793D02*
X0030500Y0138793D01*
X0029880Y0139792D02*
X0025750Y0139792D01*
X0025750Y0140790D02*
X0028881Y0140790D01*
X0029172Y0140500D02*
X0029172Y0140500D01*
X0028000Y0141789D02*
X0025750Y0141789D01*
X0025750Y0145000D02*
X0025750Y0154578D01*
X0024578Y0155750D01*
X0021628Y0158700D01*
X0021628Y0159322D01*
X0021190Y0160380D01*
X0020380Y0161190D01*
X0019322Y0161628D01*
X0018700Y0161628D01*
X0015750Y0164578D01*
X0015750Y0210422D01*
X0018700Y0213372D01*
X0019322Y0213372D01*
X0020380Y0213810D01*
X0021190Y0214620D01*
X0021628Y0215678D01*
X0046600Y0215678D01*
X0045602Y0214680D02*
X0026517Y0214680D01*
X0026686Y0214610D02*
X0025592Y0215063D01*
X0024408Y0215063D01*
X0023314Y0214610D01*
X0022477Y0213773D01*
X0022024Y0212679D01*
X0022024Y0211495D01*
X0022477Y0210401D01*
X0023314Y0209563D01*
X0024408Y0209110D01*
X0025592Y0209110D01*
X0026686Y0209563D01*
X0027523Y0210401D01*
X0027976Y0211495D01*
X0027976Y0212679D01*
X0027523Y0213773D01*
X0026686Y0214610D01*
X0027561Y0213681D02*
X0044603Y0213681D01*
X0043604Y0212683D02*
X0027975Y0212683D01*
X0027976Y0211684D02*
X0042606Y0211684D01*
X0041607Y0210686D02*
X0027641Y0210686D01*
X0026810Y0209687D02*
X0040609Y0209687D01*
X0039610Y0208689D02*
X0015750Y0208689D01*
X0015750Y0209687D02*
X0023190Y0209687D01*
X0022359Y0210686D02*
X0016014Y0210686D01*
X0017013Y0211684D02*
X0022024Y0211684D01*
X0022025Y0212683D02*
X0018011Y0212683D01*
X0020069Y0213681D02*
X0022439Y0213681D01*
X0023483Y0214680D02*
X0021215Y0214680D01*
X0021628Y0215678D02*
X0021628Y0216822D01*
X0021190Y0217880D01*
X0020380Y0218690D01*
X0019322Y0219128D01*
X0018178Y0219128D01*
X0017120Y0218690D01*
X0016310Y0217880D01*
X0015872Y0216822D01*
X0015872Y0216200D01*
X0012922Y0213250D01*
X0011750Y0212078D01*
X0011750Y0162922D01*
X0015872Y0158800D01*
X0015872Y0158178D01*
X0016310Y0157120D01*
X0017120Y0156310D01*
X0018178Y0155872D01*
X0018800Y0155872D01*
X0021750Y0152922D01*
X0021750Y0145000D01*
X0001800Y0145000D01*
X0001800Y0215000D01*
X0001901Y0216283D01*
X0002694Y0218723D01*
X0004202Y0220798D01*
X0006277Y0222306D01*
X0008717Y0223099D01*
X0010000Y0223200D01*
X0022024Y0223200D01*
X0022024Y0222321D01*
X0022477Y0221227D01*
X0023314Y0220390D01*
X0024408Y0219937D01*
X0025592Y0219937D01*
X0026686Y0220390D01*
X0027523Y0221227D01*
X0027976Y0222321D01*
X0027976Y0223200D01*
X0052024Y0223200D01*
X0052024Y0222321D01*
X0052477Y0221227D01*
X0053314Y0220390D01*
X0054408Y0219937D01*
X0055592Y0219937D01*
X0056686Y0220390D01*
X0057523Y0221227D01*
X0057976Y0222321D01*
X0057976Y0223200D01*
X0115000Y0223200D01*
X0116283Y0223099D01*
X0118723Y0222306D01*
X0120798Y0220798D01*
X0122306Y0218723D01*
X0123099Y0216283D01*
X0123200Y0215000D01*
X0123200Y0208972D01*
X0120636Y0207910D01*
X0118468Y0205742D01*
X0117295Y0202911D01*
X0117295Y0199845D01*
X0118468Y0197014D01*
X0118468Y0197014D01*
X0120636Y0194846D01*
X0123200Y0193784D01*
X0123200Y0093750D01*
X0095000Y0093750D01*
X0094500Y0094250D01*
X0094500Y0109172D01*
X0103328Y0118000D01*
X0104500Y0119172D01*
X0104500Y0140828D01*
X0102000Y0143328D01*
X0100828Y0144500D01*
X0100500Y0144500D01*
X0100000Y0145000D01*
X0090600Y0145000D01*
X0090600Y0156883D01*
X0090600Y0158117D01*
X0090128Y0159256D01*
X0077628Y0171756D01*
X0076756Y0172628D01*
X0075617Y0173100D01*
X0055034Y0173100D01*
X0053100Y0175034D01*
X0053100Y0189367D01*
X0052628Y0190506D01*
X0051756Y0191378D01*
X0050617Y0191850D01*
X0049383Y0191850D01*
X0048244Y0191378D01*
X0047372Y0190506D01*
X0046900Y0189367D01*
X0046900Y0173133D01*
X0047372Y0171994D01*
X0051994Y0167372D01*
X0053133Y0166900D01*
X0073716Y0166900D01*
X0084400Y0156216D01*
X0084400Y0145000D01*
X0060752Y0145000D01*
X0060781Y0145071D01*
X0060781Y0146937D01*
X0060068Y0148660D01*
X0058749Y0149979D01*
X0057025Y0150693D01*
X0055160Y0150693D01*
X0053436Y0149979D01*
X0052117Y0148660D01*
X0051404Y0146937D01*
X0051404Y0145071D01*
X0051433Y0145000D01*
X0050909Y0145000D01*
X0050939Y0145071D01*
X0050939Y0146937D01*
X0050225Y0148660D01*
X0048906Y0149979D01*
X0047183Y0150693D01*
X0045317Y0150693D01*
X0043594Y0149979D01*
X0042275Y0148660D01*
X0041561Y0146937D01*
X0041561Y0145071D01*
X0041591Y0145000D01*
X0041067Y0145000D01*
X0041096Y0145071D01*
X0041096Y0146937D01*
X0040383Y0148660D01*
X0039064Y0149979D01*
X0037340Y0150693D01*
X0035475Y0150693D01*
X0033751Y0149979D01*
X0032432Y0148660D01*
X0032000Y0147616D01*
X0032000Y0151760D01*
X0034819Y0154579D01*
X0035475Y0154307D01*
X0037340Y0154307D01*
X0039064Y0155021D01*
X0040383Y0156340D01*
X0041096Y0158063D01*
X0041096Y0159929D01*
X0040383Y0161652D01*
X0039064Y0162971D01*
X0038994Y0163000D01*
X0043664Y0163000D01*
X0043594Y0162971D01*
X0042275Y0161652D01*
X0041561Y0159929D01*
X0041561Y0158063D01*
X0042275Y0156340D01*
X0043594Y0155021D01*
X0045317Y0154307D01*
X0047183Y0154307D01*
X0048906Y0155021D01*
X0050225Y0156340D01*
X0050939Y0158063D01*
X0050939Y0159929D01*
X0050225Y0161652D01*
X0049224Y0162654D01*
X0049940Y0163370D01*
X0050378Y0164428D01*
X0050378Y0165572D01*
X0049940Y0166630D01*
X0049130Y0167440D01*
X0048072Y0167878D01*
X0046928Y0167878D01*
X0045870Y0167440D01*
X0045430Y0167000D01*
X0029570Y0167000D01*
X0029130Y0167440D01*
X0028072Y0167878D01*
X0026928Y0167878D01*
X0025870Y0167440D01*
X0025060Y0166630D01*
X0024622Y0165572D01*
X0024622Y0164428D01*
X0025060Y0163370D01*
X0025870Y0162560D01*
X0026928Y0162122D01*
X0028072Y0162122D01*
X0029130Y0162560D01*
X0029570Y0163000D01*
X0033821Y0163000D01*
X0033751Y0162971D01*
X0032432Y0161652D01*
X0031719Y0159929D01*
X0031719Y0158063D01*
X0031990Y0157407D01*
X0028000Y0153417D01*
X0028000Y0145000D01*
X0025750Y0145000D01*
X0025750Y0145783D02*
X0028000Y0145783D01*
X0028000Y0146781D02*
X0025750Y0146781D01*
X0025750Y0147780D02*
X0028000Y0147780D01*
X0028000Y0148778D02*
X0025750Y0148778D01*
X0025750Y0149777D02*
X0028000Y0149777D01*
X0028000Y0150775D02*
X0025750Y0150775D01*
X0025750Y0151774D02*
X0028000Y0151774D01*
X0028000Y0152772D02*
X0025750Y0152772D01*
X0025750Y0153771D02*
X0028354Y0153771D01*
X0029352Y0154769D02*
X0025559Y0154769D01*
X0024561Y0155768D02*
X0030351Y0155768D01*
X0031349Y0156766D02*
X0023562Y0156766D01*
X0022564Y0157765D02*
X0031842Y0157765D01*
X0031719Y0158763D02*
X0021628Y0158763D01*
X0021446Y0159762D02*
X0031719Y0159762D01*
X0032063Y0160760D02*
X0020810Y0160760D01*
X0018570Y0161759D02*
X0032539Y0161759D01*
X0033538Y0162757D02*
X0029327Y0162757D01*
X0027500Y0165000D02*
X0047500Y0165000D01*
X0050100Y0163756D02*
X0076860Y0163756D01*
X0075862Y0164754D02*
X0050378Y0164754D01*
X0050303Y0165753D02*
X0074863Y0165753D01*
X0073865Y0166751D02*
X0049819Y0166751D01*
X0048382Y0167750D02*
X0051616Y0167750D01*
X0050618Y0168748D02*
X0015750Y0168748D01*
X0015750Y0167750D02*
X0026618Y0167750D01*
X0025181Y0166751D02*
X0015750Y0166751D01*
X0015750Y0165753D02*
X0024697Y0165753D01*
X0024622Y0164754D02*
X0015750Y0164754D01*
X0016573Y0163756D02*
X0024900Y0163756D01*
X0025673Y0162757D02*
X0017571Y0162757D01*
X0013750Y0163750D02*
X0018750Y0158750D01*
X0023750Y0153750D01*
X0023750Y0128750D01*
X0027500Y0125000D01*
X0024876Y0123815D02*
X0001800Y0123815D01*
X0001800Y0122817D02*
X0025613Y0122817D01*
X0024622Y0124814D02*
X0001800Y0124814D01*
X0001800Y0125812D02*
X0023859Y0125812D01*
X0022861Y0126811D02*
X0001800Y0126811D01*
X0001800Y0127809D02*
X0021862Y0127809D01*
X0021750Y0128808D02*
X0001800Y0128808D01*
X0001800Y0129806D02*
X0021750Y0129806D01*
X0021750Y0130805D02*
X0012917Y0130805D01*
X0013298Y0130964D02*
X0013298Y0130964D01*
X0013723Y0131392D01*
X0014218Y0131892D01*
X0014213Y0133300D01*
X0013998Y0133513D01*
X0014025Y0133560D01*
X0014138Y0133674D01*
X0014138Y0135082D01*
X0014026Y0135194D01*
X0013516Y0136078D01*
X0013516Y0136078D01*
X0013516Y0136078D01*
X0013507Y0136083D01*
X0013720Y0136296D01*
X0013720Y0140504D01*
X0012724Y0141500D01*
X0011316Y0141500D01*
X0011242Y0141426D01*
X0011168Y0141500D01*
X0005740Y0141500D01*
X0004744Y0140504D01*
X0004744Y0138700D01*
X0004496Y0138700D01*
X0003500Y0137704D01*
X0003500Y0136296D01*
X0003796Y0136000D01*
X0003500Y0135704D01*
X0003500Y0131496D01*
X0004496Y0130500D01*
X0006837Y0130500D01*
X0006949Y0130612D01*
X0007448Y0130900D01*
X0007998Y0130500D01*
X0009507Y0130500D01*
X0009507Y0130500D01*
X0010285Y0130500D01*
X0010532Y0130747D01*
X0010766Y0130612D01*
X0010878Y0130500D01*
X0012286Y0130500D01*
X0012359Y0130572D01*
X0013298Y0130964D01*
X0013723Y0131392D02*
X0013723Y0131392D01*
X0014131Y0131803D02*
X0021750Y0131803D01*
X0021750Y0132802D02*
X0014215Y0132802D01*
X0014138Y0133801D02*
X0021750Y0133801D01*
X0021750Y0134799D02*
X0014138Y0134799D01*
X0013677Y0135798D02*
X0021750Y0135798D01*
X0021750Y0136796D02*
X0013720Y0136796D01*
X0013720Y0137795D02*
X0021750Y0137795D01*
X0021750Y0138793D02*
X0013720Y0138793D01*
X0013720Y0139792D02*
X0021750Y0139792D01*
X0021750Y0140790D02*
X0013434Y0140790D01*
X0021750Y0141789D02*
X0001800Y0141789D01*
X0001800Y0140790D02*
X0005030Y0140790D01*
X0004744Y0139792D02*
X0001800Y0139792D01*
X0001800Y0138793D02*
X0004744Y0138793D01*
X0003590Y0137795D02*
X0001800Y0137795D01*
X0001800Y0136796D02*
X0003500Y0136796D01*
X0003593Y0135798D02*
X0001800Y0135798D01*
X0001800Y0134799D02*
X0003500Y0134799D01*
X0003500Y0133801D02*
X0001800Y0133801D01*
X0001800Y0132802D02*
X0003500Y0132802D01*
X0003500Y0131803D02*
X0001800Y0131803D01*
X0001800Y0130805D02*
X0004191Y0130805D01*
X0007284Y0130805D02*
X0007578Y0130805D01*
X0001800Y0145783D02*
X0021750Y0145783D01*
X0021750Y0146781D02*
X0001800Y0146781D01*
X0001800Y0147780D02*
X0021750Y0147780D01*
X0021750Y0148778D02*
X0001800Y0148778D01*
X0001800Y0149777D02*
X0021750Y0149777D01*
X0021750Y0150775D02*
X0001800Y0150775D01*
X0001800Y0151774D02*
X0021750Y0151774D01*
X0021750Y0152772D02*
X0001800Y0152772D01*
X0001800Y0153771D02*
X0020901Y0153771D01*
X0019902Y0154769D02*
X0001800Y0154769D01*
X0001800Y0155768D02*
X0018904Y0155768D01*
X0016664Y0156766D02*
X0001800Y0156766D01*
X0001800Y0157765D02*
X0016043Y0157765D01*
X0015872Y0158763D02*
X0001800Y0158763D01*
X0001800Y0159762D02*
X0014910Y0159762D01*
X0013911Y0160760D02*
X0001800Y0160760D01*
X0001800Y0161759D02*
X0012913Y0161759D01*
X0011914Y0162757D02*
X0001800Y0162757D01*
X0001800Y0163756D02*
X0011750Y0163756D01*
X0011750Y0164754D02*
X0001800Y0164754D01*
X0001800Y0165753D02*
X0011750Y0165753D01*
X0011750Y0166751D02*
X0001800Y0166751D01*
X0001800Y0167750D02*
X0011750Y0167750D01*
X0011750Y0168748D02*
X0001800Y0168748D01*
X0001800Y0169747D02*
X0011750Y0169747D01*
X0011750Y0170745D02*
X0001800Y0170745D01*
X0001800Y0171744D02*
X0011750Y0171744D01*
X0011750Y0172742D02*
X0001800Y0172742D01*
X0001800Y0173741D02*
X0011750Y0173741D01*
X0011750Y0174739D02*
X0001800Y0174739D01*
X0001800Y0175738D02*
X0011750Y0175738D01*
X0011750Y0176737D02*
X0001800Y0176737D01*
X0001800Y0177735D02*
X0011750Y0177735D01*
X0011750Y0178734D02*
X0001800Y0178734D01*
X0001800Y0179732D02*
X0011750Y0179732D01*
X0011750Y0180731D02*
X0001800Y0180731D01*
X0001800Y0181729D02*
X0011750Y0181729D01*
X0011750Y0182728D02*
X0001800Y0182728D01*
X0001800Y0183726D02*
X0011750Y0183726D01*
X0011750Y0184725D02*
X0001800Y0184725D01*
X0001800Y0185723D02*
X0011750Y0185723D01*
X0011750Y0186722D02*
X0001800Y0186722D01*
X0001800Y0187720D02*
X0011750Y0187720D01*
X0011750Y0188719D02*
X0001800Y0188719D01*
X0001800Y0189717D02*
X0011750Y0189717D01*
X0011750Y0190716D02*
X0001800Y0190716D01*
X0001800Y0191714D02*
X0011750Y0191714D01*
X0011750Y0192713D02*
X0001800Y0192713D01*
X0001800Y0193711D02*
X0011750Y0193711D01*
X0011750Y0194710D02*
X0001800Y0194710D01*
X0001800Y0195708D02*
X0011750Y0195708D01*
X0011750Y0196707D02*
X0001800Y0196707D01*
X0001800Y0197705D02*
X0011750Y0197705D01*
X0011750Y0198704D02*
X0001800Y0198704D01*
X0001800Y0199702D02*
X0011750Y0199702D01*
X0011750Y0200701D02*
X0001800Y0200701D01*
X0001800Y0201699D02*
X0011750Y0201699D01*
X0011750Y0202698D02*
X0001800Y0202698D01*
X0001800Y0203696D02*
X0011750Y0203696D01*
X0011750Y0204695D02*
X0001800Y0204695D01*
X0001800Y0205693D02*
X0011750Y0205693D01*
X0011750Y0206692D02*
X0001800Y0206692D01*
X0001800Y0207690D02*
X0011750Y0207690D01*
X0011750Y0208689D02*
X0001800Y0208689D01*
X0001800Y0209687D02*
X0011750Y0209687D01*
X0011750Y0210686D02*
X0001800Y0210686D01*
X0001800Y0211684D02*
X0011750Y0211684D01*
X0012354Y0212683D02*
X0001800Y0212683D01*
X0001800Y0213681D02*
X0013353Y0213681D01*
X0014352Y0214680D02*
X0001800Y0214680D01*
X0001853Y0215678D02*
X0015350Y0215678D01*
X0015872Y0216677D02*
X0002029Y0216677D01*
X0002353Y0217675D02*
X0016225Y0217675D01*
X0017104Y0218674D02*
X0002678Y0218674D01*
X0003384Y0219672D02*
X0071803Y0219672D01*
X0071961Y0219910D02*
X0071569Y0219323D01*
X0071299Y0218671D01*
X0071216Y0218255D01*
X0071141Y0218124D01*
X0071084Y0218078D01*
X0071077Y0218014D01*
X0071045Y0217958D01*
X0071064Y0217888D01*
X0071035Y0217611D01*
X0070995Y0217486D01*
X0070961Y0217452D01*
X0070961Y0217382D01*
X0070890Y0217164D01*
X0070961Y0217026D01*
X0070961Y0216902D01*
X0070903Y0216356D01*
X0070961Y0216285D01*
X0070961Y0214802D01*
X0070903Y0214731D01*
X0070961Y0214184D01*
X0070961Y0214061D01*
X0070890Y0213922D01*
X0070961Y0213705D01*
X0070961Y0213634D01*
X0070994Y0213600D01*
X0071035Y0213475D01*
X0071064Y0213199D01*
X0071045Y0213128D01*
X0071077Y0213072D01*
X0071084Y0213008D01*
X0071141Y0212962D01*
X0071216Y0212832D01*
X0071299Y0212416D01*
X0071569Y0211764D01*
X0071961Y0211177D01*
X0072388Y0210750D01*
X0071494Y0210750D01*
X0070322Y0209578D01*
X0054250Y0193506D01*
X0054250Y0183320D01*
X0053810Y0182880D01*
X0053372Y0181822D01*
X0053372Y0180678D01*
X0053810Y0179620D01*
X0054620Y0178810D01*
X0054765Y0178750D01*
X0054620Y0178690D01*
X0053810Y0177880D01*
X0053372Y0176822D01*
X0053372Y0175678D01*
X0053810Y0174620D01*
X0054620Y0173810D01*
X0055678Y0173372D01*
X0056822Y0173372D01*
X0057880Y0173810D01*
X0058320Y0174250D01*
X0072078Y0174250D01*
X0073250Y0175422D01*
X0089950Y0192122D01*
X0090572Y0192122D01*
X0091630Y0192560D01*
X0092440Y0193370D01*
X0092878Y0194428D01*
X0092878Y0195572D01*
X0092440Y0196630D01*
X0091630Y0197440D01*
X0090572Y0197878D01*
X0089428Y0197878D01*
X0088370Y0197440D01*
X0087560Y0196630D01*
X0087122Y0195572D01*
X0087122Y0194950D01*
X0070422Y0178250D01*
X0058320Y0178250D01*
X0057880Y0178690D01*
X0057735Y0178750D01*
X0057880Y0178810D01*
X0058690Y0179620D01*
X0059128Y0180678D01*
X0059128Y0181822D01*
X0058690Y0182880D01*
X0058250Y0183320D01*
X0058250Y0191850D01*
X0070912Y0204511D01*
X0070823Y0203950D01*
X0070823Y0202457D01*
X0070799Y0202384D01*
X0070783Y0202368D01*
X0070783Y0202336D01*
X0070712Y0202115D01*
X0070783Y0201974D01*
X0070783Y0201754D01*
X0070719Y0201144D01*
X0070783Y0201064D01*
X0070783Y0200101D01*
X0070719Y0200022D01*
X0070783Y0199411D01*
X0070783Y0199191D01*
X0070712Y0199051D01*
X0070783Y0198830D01*
X0070783Y0198797D01*
X0070799Y0198781D01*
X0070823Y0198709D01*
X0070823Y0197216D01*
X0070934Y0196514D01*
X0071153Y0195839D01*
X0071476Y0195206D01*
X0071893Y0194632D01*
X0072395Y0194129D01*
X0072970Y0193712D01*
X0073603Y0193390D01*
X0074278Y0193170D01*
X0074980Y0193059D01*
X0074998Y0193059D01*
X0074998Y0194935D01*
X0075263Y0194878D01*
X0075298Y0194855D01*
X0075335Y0194863D01*
X0075371Y0194855D01*
X0075406Y0194878D01*
X0075671Y0194935D01*
X0075671Y0193059D01*
X0075690Y0193059D01*
X0076391Y0193170D01*
X0077067Y0193390D01*
X0077699Y0193712D01*
X0078274Y0194129D01*
X0078776Y0194632D01*
X0079193Y0195206D01*
X0079516Y0195839D01*
X0079735Y0196514D01*
X0079846Y0197216D01*
X0079846Y0198709D01*
X0079870Y0198781D01*
X0079886Y0198797D01*
X0079886Y0198830D01*
X0079958Y0199051D01*
X0079886Y0199191D01*
X0079886Y0199411D01*
X0079950Y0200022D01*
X0079886Y0200101D01*
X0079886Y0201064D01*
X0079950Y0201144D01*
X0079898Y0201642D01*
X0080769Y0201642D01*
X0081899Y0202110D01*
X0082764Y0202975D01*
X0083232Y0204105D01*
X0083232Y0205328D01*
X0082764Y0206458D01*
X0082472Y0206750D01*
X0089518Y0206750D01*
X0089882Y0205870D01*
X0090692Y0205060D01*
X0091750Y0204622D01*
X0092895Y0204622D01*
X0093952Y0205060D01*
X0094762Y0205870D01*
X0095200Y0206928D01*
X0095200Y0208072D01*
X0094762Y0209130D01*
X0093952Y0209940D01*
X0092895Y0210378D01*
X0092273Y0210378D01*
X0091900Y0210750D01*
X0077100Y0210750D01*
X0077527Y0211177D01*
X0077919Y0211764D01*
X0078189Y0212416D01*
X0078272Y0212832D01*
X0078347Y0212962D01*
X0078404Y0213008D01*
X0078411Y0213072D01*
X0078443Y0213128D01*
X0078424Y0213199D01*
X0078453Y0213475D01*
X0078494Y0213600D01*
X0078528Y0213634D01*
X0078528Y0213705D01*
X0078598Y0213922D01*
X0078528Y0214061D01*
X0078528Y0214184D01*
X0078585Y0214731D01*
X0078528Y0214802D01*
X0078528Y0216285D01*
X0078585Y0216356D01*
X0078528Y0216902D01*
X0078528Y0217026D01*
X0078598Y0217164D01*
X0078528Y0217382D01*
X0078528Y0217452D01*
X0078494Y0217486D01*
X0078453Y0217611D01*
X0078424Y0217888D01*
X0078443Y0217958D01*
X0078411Y0218014D01*
X0078404Y0218078D01*
X0078347Y0218124D01*
X0078272Y0218255D01*
X0078189Y0218671D01*
X0077919Y0219323D01*
X0077527Y0219910D01*
X0077028Y0220409D01*
X0076441Y0220801D01*
X0075789Y0221071D01*
X0075097Y0221209D01*
X0074785Y0221209D01*
X0074785Y0220687D01*
X0074744Y0220678D01*
X0074703Y0220687D01*
X0074703Y0221209D01*
X0074391Y0221209D01*
X0073699Y0221071D01*
X0073047Y0220801D01*
X0072460Y0220409D01*
X0071961Y0219910D01*
X0072853Y0220671D02*
X0056967Y0220671D01*
X0057706Y0221670D02*
X0119599Y0221670D01*
X0120891Y0220671D02*
X0107147Y0220671D01*
X0106953Y0220801D02*
X0106301Y0221071D01*
X0105609Y0221209D01*
X0105297Y0221209D01*
X0105297Y0220687D01*
X0105256Y0220678D01*
X0105215Y0220687D01*
X0105215Y0221209D01*
X0104903Y0221209D01*
X0104211Y0221071D01*
X0103559Y0220801D01*
X0102972Y0220409D01*
X0102473Y0219910D01*
X0102081Y0219323D01*
X0101811Y0218671D01*
X0101728Y0218255D01*
X0101653Y0218124D01*
X0101596Y0218078D01*
X0101589Y0218014D01*
X0101557Y0217958D01*
X0101576Y0217888D01*
X0101547Y0217611D01*
X0101506Y0217486D01*
X0101472Y0217452D01*
X0101472Y0217382D01*
X0101402Y0217164D01*
X0101472Y0217026D01*
X0101472Y0216902D01*
X0101415Y0216356D01*
X0101472Y0216285D01*
X0101472Y0214802D01*
X0101415Y0214731D01*
X0101472Y0214184D01*
X0101472Y0214061D01*
X0101402Y0213922D01*
X0101472Y0213705D01*
X0101472Y0213634D01*
X0101506Y0213600D01*
X0101547Y0213475D01*
X0101576Y0213199D01*
X0101557Y0213128D01*
X0101589Y0213072D01*
X0101596Y0213008D01*
X0101653Y0212962D01*
X0101728Y0212832D01*
X0101811Y0212416D01*
X0102081Y0211764D01*
X0102473Y0211177D01*
X0102972Y0210678D01*
X0103559Y0210286D01*
X0104211Y0210016D01*
X0104903Y0209878D01*
X0105215Y0209878D01*
X0105215Y0210400D01*
X0105256Y0210408D01*
X0105297Y0210400D01*
X0105297Y0209878D01*
X0105609Y0209878D01*
X0106301Y0210016D01*
X0106953Y0210286D01*
X0107540Y0210678D01*
X0108039Y0211177D01*
X0108431Y0211764D01*
X0108701Y0212416D01*
X0108784Y0212832D01*
X0108859Y0212962D01*
X0108916Y0213008D01*
X0108923Y0213072D01*
X0108955Y0213128D01*
X0108936Y0213199D01*
X0108965Y0213475D01*
X0109005Y0213600D01*
X0109039Y0213634D01*
X0109039Y0213705D01*
X0109110Y0213922D01*
X0109039Y0214061D01*
X0109039Y0214184D01*
X0109097Y0214731D01*
X0109039Y0214802D01*
X0109039Y0216285D01*
X0109097Y0216356D01*
X0109039Y0216902D01*
X0109039Y0217026D01*
X0109110Y0217164D01*
X0109039Y0217382D01*
X0109039Y0217452D01*
X0109005Y0217486D01*
X0108965Y0217611D01*
X0108936Y0217888D01*
X0108955Y0217958D01*
X0108923Y0218014D01*
X0108916Y0218078D01*
X0108859Y0218124D01*
X0108784Y0218255D01*
X0108701Y0218671D01*
X0108431Y0219323D01*
X0108039Y0219910D01*
X0107540Y0220409D01*
X0106953Y0220801D01*
X0108197Y0219672D02*
X0121616Y0219672D01*
X0122322Y0218674D02*
X0108700Y0218674D01*
X0108958Y0217675D02*
X0122647Y0217675D01*
X0122971Y0216677D02*
X0109063Y0216677D01*
X0109039Y0215678D02*
X0123147Y0215678D01*
X0123200Y0214680D02*
X0109091Y0214680D01*
X0109039Y0213681D02*
X0123200Y0213681D01*
X0123200Y0212683D02*
X0108754Y0212683D01*
X0108378Y0211684D02*
X0123200Y0211684D01*
X0123200Y0210686D02*
X0107548Y0210686D01*
X0106397Y0207776D02*
X0105722Y0207995D01*
X0105020Y0208106D01*
X0105002Y0208106D01*
X0105002Y0206231D01*
X0104737Y0206287D01*
X0104702Y0206310D01*
X0104665Y0206302D01*
X0104629Y0206310D01*
X0104594Y0206287D01*
X0104329Y0206231D01*
X0104329Y0208106D01*
X0104310Y0208106D01*
X0103609Y0207995D01*
X0102933Y0207776D01*
X0102301Y0207453D01*
X0101810Y0207097D01*
X0101584Y0207323D01*
X0100454Y0207791D01*
X0099231Y0207791D01*
X0098101Y0207323D01*
X0097236Y0206458D01*
X0096768Y0205328D01*
X0096768Y0204105D01*
X0097236Y0202975D01*
X0098101Y0202110D01*
X0099231Y0201642D01*
X0100102Y0201642D01*
X0100050Y0201144D01*
X0100114Y0201064D01*
X0100114Y0200101D01*
X0100050Y0200022D01*
X0100114Y0199411D01*
X0100114Y0199191D01*
X0100042Y0199051D01*
X0100114Y0198830D01*
X0100114Y0198797D01*
X0100130Y0198781D01*
X0100154Y0198709D01*
X0100154Y0197216D01*
X0100265Y0196514D01*
X0100484Y0195839D01*
X0100807Y0195206D01*
X0101224Y0194632D01*
X0101726Y0194129D01*
X0102301Y0193712D01*
X0102933Y0193390D01*
X0103609Y0193170D01*
X0104310Y0193059D01*
X0104329Y0193059D01*
X0104329Y0194935D01*
X0104594Y0194878D01*
X0104629Y0194855D01*
X0104665Y0194863D01*
X0104702Y0194855D01*
X0104737Y0194878D01*
X0105002Y0194935D01*
X0105002Y0193059D01*
X0105020Y0193059D01*
X0105722Y0193170D01*
X0106397Y0193390D01*
X0107030Y0193712D01*
X0107605Y0194129D01*
X0108107Y0194632D01*
X0108524Y0195206D01*
X0108847Y0195839D01*
X0109066Y0196514D01*
X0109177Y0197216D01*
X0109177Y0198709D01*
X0109201Y0198781D01*
X0109217Y0198797D01*
X0109217Y0198830D01*
X0109288Y0199051D01*
X0109217Y0199191D01*
X0109217Y0199411D01*
X0109281Y0200022D01*
X0109217Y0200101D01*
X0109217Y0201064D01*
X0109281Y0201144D01*
X0109217Y0201754D01*
X0109217Y0201974D01*
X0109288Y0202115D01*
X0109217Y0202336D01*
X0109217Y0202368D01*
X0109201Y0202384D01*
X0109177Y0202457D01*
X0109177Y0203950D01*
X0109066Y0204651D01*
X0108847Y0205326D01*
X0108524Y0205959D01*
X0108107Y0206534D01*
X0107605Y0207036D01*
X0107030Y0207453D01*
X0106397Y0207776D01*
X0106565Y0207690D02*
X0120416Y0207690D01*
X0120636Y0207910D02*
X0120636Y0207910D01*
X0119418Y0206692D02*
X0107949Y0206692D01*
X0108660Y0205693D02*
X0118448Y0205693D01*
X0118468Y0205742D02*
X0118468Y0205742D01*
X0118034Y0204695D02*
X0109052Y0204695D01*
X0109177Y0203696D02*
X0117621Y0203696D01*
X0117295Y0202698D02*
X0109177Y0202698D01*
X0109222Y0201699D02*
X0117295Y0201699D01*
X0117295Y0200701D02*
X0109217Y0200701D01*
X0109247Y0199702D02*
X0117355Y0199702D01*
X0117768Y0198704D02*
X0109177Y0198704D01*
X0109177Y0197705D02*
X0118182Y0197705D01*
X0118775Y0196707D02*
X0109097Y0196707D01*
X0108780Y0195708D02*
X0119774Y0195708D01*
X0120636Y0194846D02*
X0120636Y0194846D01*
X0120965Y0194710D02*
X0108163Y0194710D01*
X0107028Y0193711D02*
X0123200Y0193711D01*
X0123200Y0192713D02*
X0091783Y0192713D01*
X0092581Y0193711D02*
X0102302Y0193711D01*
X0101167Y0194710D02*
X0092878Y0194710D01*
X0092822Y0195708D02*
X0100551Y0195708D01*
X0100234Y0196707D02*
X0092363Y0196707D01*
X0090989Y0197705D02*
X0100154Y0197705D01*
X0100154Y0198704D02*
X0079846Y0198704D01*
X0079846Y0197705D02*
X0089011Y0197705D01*
X0087637Y0196707D02*
X0079766Y0196707D01*
X0079449Y0195708D02*
X0087178Y0195708D01*
X0086881Y0194710D02*
X0078833Y0194710D01*
X0077698Y0193711D02*
X0085883Y0193711D01*
X0084884Y0192713D02*
X0059113Y0192713D01*
X0058250Y0191714D02*
X0083886Y0191714D01*
X0082887Y0190716D02*
X0058250Y0190716D01*
X0058250Y0189717D02*
X0081889Y0189717D01*
X0080890Y0188719D02*
X0058250Y0188719D01*
X0058250Y0187720D02*
X0079892Y0187720D01*
X0078893Y0186722D02*
X0058250Y0186722D01*
X0058250Y0185723D02*
X0077895Y0185723D01*
X0076896Y0184725D02*
X0058250Y0184725D01*
X0058250Y0183726D02*
X0075898Y0183726D01*
X0074899Y0182728D02*
X0058753Y0182728D01*
X0059128Y0181729D02*
X0073901Y0181729D01*
X0072902Y0180731D02*
X0059128Y0180731D01*
X0058736Y0179732D02*
X0071904Y0179732D01*
X0070905Y0178734D02*
X0057775Y0178734D01*
X0056250Y0176250D02*
X0071250Y0176250D01*
X0090000Y0195000D01*
X0089543Y0191714D02*
X0123200Y0191714D01*
X0123200Y0190716D02*
X0088544Y0190716D01*
X0087546Y0189717D02*
X0123200Y0189717D01*
X0123200Y0188719D02*
X0117787Y0188719D01*
X0117494Y0188888D02*
X0118378Y0188378D01*
X0118378Y0188378D01*
X0118378Y0188378D01*
X0118888Y0187494D01*
X0119000Y0187382D01*
X0119000Y0184418D01*
X0118888Y0184306D01*
X0118572Y0183758D01*
X0119135Y0182630D01*
X0118159Y0179700D01*
X0118202Y0179570D01*
X0117941Y0179048D01*
X0117757Y0178494D01*
X0117634Y0178433D01*
X0117572Y0178310D01*
X0117019Y0178125D01*
X0116497Y0177865D01*
X0116367Y0177908D01*
X0116236Y0177865D01*
X0115714Y0178125D01*
X0115249Y0178281D01*
X0114969Y0178000D01*
X0112005Y0178000D01*
X0111987Y0178018D01*
X0111969Y0178000D01*
X0110561Y0178000D01*
X0110417Y0178144D01*
X0109579Y0177865D01*
X0108750Y0178279D01*
X0108360Y0178000D01*
X0106901Y0178000D01*
X0105943Y0178685D01*
X0105867Y0178711D01*
X0105846Y0178754D01*
X0105715Y0178848D01*
X0105715Y0178848D01*
X0105512Y0179438D01*
X0105153Y0180175D01*
X0105153Y0182025D01*
X0105362Y0182454D01*
X0105397Y0182765D01*
X0105440Y0182800D01*
X0104444Y0182800D01*
X0103448Y0183796D01*
X0103448Y0185196D01*
X0103448Y0185196D01*
X0103448Y0185900D01*
X0103448Y0186110D01*
X0103448Y0186604D01*
X0103448Y0186604D01*
X0103448Y0186798D01*
X0104717Y0188067D01*
X0107097Y0188067D01*
X0107317Y0187846D01*
X0108362Y0188186D01*
X0108362Y0188186D01*
X0108539Y0188129D01*
X0109410Y0189000D01*
X0111441Y0189000D01*
X0111553Y0188888D01*
X0112052Y0188600D01*
X0112451Y0189000D01*
X0117382Y0189000D01*
X0117494Y0188888D01*
X0118757Y0187720D02*
X0123200Y0187720D01*
X0123200Y0186722D02*
X0119000Y0186722D01*
X0119000Y0185723D02*
X0123200Y0185723D01*
X0123200Y0184725D02*
X0119000Y0184725D01*
X0118588Y0183726D02*
X0123200Y0183726D01*
X0123200Y0182728D02*
X0119087Y0182728D01*
X0118835Y0181729D02*
X0123200Y0181729D01*
X0123200Y0180731D02*
X0118502Y0180731D01*
X0118169Y0179732D02*
X0123200Y0179732D01*
X0123200Y0178734D02*
X0117836Y0178734D01*
X0117206Y0176800D02*
X0117318Y0176688D01*
X0118202Y0176178D01*
X0118202Y0176178D01*
X0118202Y0176178D01*
X0118712Y0175294D01*
X0118824Y0175182D01*
X0118824Y0172218D01*
X0118712Y0172106D01*
X0118414Y0171590D01*
X0119000Y0171004D01*
X0119000Y0166796D01*
X0118541Y0166337D01*
X0118673Y0166204D01*
X0118673Y0161996D01*
X0117677Y0161000D01*
X0116900Y0161000D01*
X0116900Y0161000D01*
X0115390Y0161000D01*
X0115087Y0161220D01*
X0114867Y0161000D01*
X0113459Y0161000D01*
X0113042Y0161417D01*
X0112468Y0161000D01*
X0110335Y0161000D01*
X0110289Y0161045D01*
X0110244Y0161000D01*
X0109466Y0161000D01*
X0109466Y0161000D01*
X0108098Y0161000D01*
X0108098Y0161000D01*
X0108058Y0161000D01*
X0108003Y0161055D01*
X0106948Y0161664D01*
X0106948Y0161664D01*
X0106948Y0161664D01*
X0106339Y0162719D01*
X0106284Y0162774D01*
X0106284Y0165426D01*
X0106339Y0165481D01*
X0106800Y0166280D01*
X0106284Y0166796D01*
X0106284Y0168204D01*
X0107280Y0169200D01*
X0107529Y0169200D01*
X0107529Y0170863D01*
X0106907Y0171222D01*
X0106907Y0171222D01*
X0106907Y0171222D01*
X0106396Y0172106D01*
X0106284Y0172218D01*
X0106284Y0173626D01*
X0106397Y0173740D01*
X0106598Y0174090D01*
X0106357Y0174410D01*
X0106556Y0175804D01*
X0107120Y0176227D01*
X0107884Y0176800D01*
X0109544Y0176800D01*
X0109656Y0176688D01*
X0110540Y0176178D01*
X0110540Y0176178D01*
X0110540Y0176178D01*
X0110719Y0175867D01*
X0113931Y0175867D01*
X0114864Y0176800D01*
X0117206Y0176800D01*
X0117269Y0176737D02*
X0123200Y0176737D01*
X0123200Y0177735D02*
X0075563Y0177735D01*
X0074565Y0176737D02*
X0107800Y0176737D01*
X0106547Y0175738D02*
X0073566Y0175738D01*
X0072568Y0174739D02*
X0106404Y0174739D01*
X0106398Y0173741D02*
X0057713Y0173741D01*
X0054787Y0173741D02*
X0054393Y0173741D01*
X0053761Y0174739D02*
X0053395Y0174739D01*
X0053372Y0175738D02*
X0053100Y0175738D01*
X0053100Y0176737D02*
X0053372Y0176737D01*
X0053100Y0177735D02*
X0053750Y0177735D01*
X0053100Y0178734D02*
X0054725Y0178734D01*
X0053764Y0179732D02*
X0053100Y0179732D01*
X0053100Y0180731D02*
X0053372Y0180731D01*
X0053372Y0181729D02*
X0053100Y0181729D01*
X0053100Y0182728D02*
X0053747Y0182728D01*
X0054250Y0183726D02*
X0053100Y0183726D01*
X0053100Y0184725D02*
X0054250Y0184725D01*
X0054250Y0185723D02*
X0053100Y0185723D01*
X0053100Y0186722D02*
X0054250Y0186722D01*
X0054250Y0187720D02*
X0053100Y0187720D01*
X0053100Y0188719D02*
X0054250Y0188719D01*
X0054250Y0189717D02*
X0052955Y0189717D01*
X0052418Y0190716D02*
X0054250Y0190716D01*
X0054250Y0191714D02*
X0050945Y0191714D01*
X0049055Y0191714D02*
X0028293Y0191714D01*
X0029291Y0192713D02*
X0054250Y0192713D01*
X0054455Y0193711D02*
X0030290Y0193711D01*
X0031288Y0194710D02*
X0055453Y0194710D01*
X0056452Y0195708D02*
X0032287Y0195708D01*
X0033285Y0196707D02*
X0057450Y0196707D01*
X0058449Y0197705D02*
X0034284Y0197705D01*
X0035282Y0198704D02*
X0059447Y0198704D01*
X0060446Y0199702D02*
X0036281Y0199702D01*
X0037279Y0200701D02*
X0061444Y0200701D01*
X0062443Y0201699D02*
X0038278Y0201699D01*
X0039276Y0202698D02*
X0063441Y0202698D01*
X0064440Y0203696D02*
X0040275Y0203696D01*
X0041273Y0204695D02*
X0065438Y0204695D01*
X0066437Y0205693D02*
X0042272Y0205693D01*
X0043270Y0206692D02*
X0067435Y0206692D01*
X0068434Y0207690D02*
X0044269Y0207690D01*
X0045267Y0208689D02*
X0069433Y0208689D01*
X0070322Y0209578D02*
X0070322Y0209578D01*
X0070431Y0209687D02*
X0056810Y0209687D01*
X0056686Y0209563D02*
X0057523Y0210401D01*
X0057976Y0211495D01*
X0057976Y0212679D01*
X0057523Y0213773D01*
X0057046Y0214250D01*
X0059180Y0214250D01*
X0059620Y0213810D01*
X0060678Y0213372D01*
X0061822Y0213372D01*
X0062880Y0213810D01*
X0063690Y0214620D01*
X0064128Y0215678D01*
X0070961Y0215678D01*
X0070937Y0216677D02*
X0064128Y0216677D01*
X0064128Y0216822D02*
X0063690Y0217880D01*
X0062880Y0218690D01*
X0061822Y0219128D01*
X0060678Y0219128D01*
X0059620Y0218690D01*
X0059180Y0218250D01*
X0049172Y0218250D01*
X0022550Y0191628D01*
X0021928Y0191628D01*
X0020870Y0191190D01*
X0020060Y0190380D01*
X0019622Y0189322D01*
X0019622Y0188178D01*
X0020060Y0187120D01*
X0020870Y0186310D01*
X0021928Y0185872D01*
X0023072Y0185872D01*
X0024130Y0186310D01*
X0024940Y0187120D01*
X0025378Y0188178D01*
X0025378Y0188800D01*
X0050828Y0214250D01*
X0052954Y0214250D01*
X0052477Y0213773D01*
X0052024Y0212679D01*
X0052024Y0211495D01*
X0052477Y0210401D01*
X0053314Y0209563D01*
X0054408Y0209110D01*
X0055592Y0209110D01*
X0056686Y0209563D01*
X0057641Y0210686D02*
X0071430Y0210686D01*
X0071622Y0211684D02*
X0057976Y0211684D01*
X0057975Y0212683D02*
X0071246Y0212683D01*
X0070961Y0213681D02*
X0062569Y0213681D01*
X0063715Y0214680D02*
X0070909Y0214680D01*
X0071042Y0217675D02*
X0063775Y0217675D01*
X0064128Y0216822D02*
X0064128Y0215678D01*
X0061250Y0216250D02*
X0050000Y0216250D01*
X0022500Y0188750D01*
X0024542Y0186722D02*
X0046900Y0186722D01*
X0046900Y0187720D02*
X0025188Y0187720D01*
X0025378Y0188719D02*
X0046900Y0188719D01*
X0047045Y0189717D02*
X0026296Y0189717D01*
X0027294Y0190716D02*
X0047582Y0190716D01*
X0046900Y0185723D02*
X0015750Y0185723D01*
X0015750Y0184725D02*
X0046900Y0184725D01*
X0046900Y0183726D02*
X0015750Y0183726D01*
X0015750Y0182728D02*
X0046900Y0182728D01*
X0046900Y0181729D02*
X0015750Y0181729D01*
X0015750Y0180731D02*
X0046900Y0180731D01*
X0046900Y0179732D02*
X0015750Y0179732D01*
X0015750Y0178734D02*
X0046900Y0178734D01*
X0046900Y0177735D02*
X0015750Y0177735D01*
X0015750Y0176737D02*
X0046900Y0176737D01*
X0046900Y0175738D02*
X0015750Y0175738D01*
X0015750Y0174739D02*
X0046900Y0174739D01*
X0046900Y0173741D02*
X0015750Y0173741D01*
X0015750Y0172742D02*
X0047062Y0172742D01*
X0047622Y0171744D02*
X0015750Y0171744D01*
X0015750Y0170745D02*
X0048620Y0170745D01*
X0049619Y0169747D02*
X0015750Y0169747D01*
X0013750Y0163750D02*
X0013750Y0211250D01*
X0018750Y0216250D01*
X0021275Y0217675D02*
X0048597Y0217675D01*
X0047599Y0216677D02*
X0021628Y0216677D01*
X0020396Y0218674D02*
X0059604Y0218674D01*
X0057976Y0222668D02*
X0117609Y0222668D01*
X0123200Y0209687D02*
X0094205Y0209687D01*
X0094945Y0208689D02*
X0122517Y0208689D01*
X0112170Y0188719D02*
X0111846Y0188719D01*
X0109129Y0188719D02*
X0086547Y0188719D01*
X0085549Y0187720D02*
X0104371Y0187720D01*
X0103448Y0186722D02*
X0084550Y0186722D01*
X0083552Y0185723D02*
X0103448Y0185723D01*
X0103448Y0184725D02*
X0082553Y0184725D01*
X0081555Y0183726D02*
X0103518Y0183726D01*
X0105392Y0182728D02*
X0080556Y0182728D01*
X0079557Y0181729D02*
X0105153Y0181729D01*
X0105153Y0180731D02*
X0078559Y0180731D01*
X0077560Y0179732D02*
X0105369Y0179732D01*
X0105856Y0178734D02*
X0076562Y0178734D01*
X0076480Y0172742D02*
X0106284Y0172742D01*
X0106605Y0171744D02*
X0077640Y0171744D01*
X0078639Y0170745D02*
X0107529Y0170745D01*
X0107529Y0169747D02*
X0079637Y0169747D01*
X0080636Y0168748D02*
X0106829Y0168748D01*
X0106284Y0167750D02*
X0081634Y0167750D01*
X0082633Y0166751D02*
X0106329Y0166751D01*
X0106496Y0165753D02*
X0083631Y0165753D01*
X0084630Y0164754D02*
X0106284Y0164754D01*
X0106284Y0163756D02*
X0085628Y0163756D01*
X0086627Y0162757D02*
X0106301Y0162757D01*
X0106893Y0161759D02*
X0087625Y0161759D01*
X0088624Y0160760D02*
X0123200Y0160760D01*
X0123200Y0159762D02*
X0089622Y0159762D01*
X0090332Y0158763D02*
X0104447Y0158763D01*
X0104713Y0158917D02*
X0103744Y0158357D01*
X0103744Y0158357D01*
X0103184Y0157388D01*
X0103100Y0157304D01*
X0103100Y0155896D01*
X0103251Y0155745D01*
X0103295Y0155643D01*
X0103282Y0155491D01*
X0103331Y0155434D01*
X0103100Y0155204D01*
X0103100Y0153796D01*
X0104096Y0152800D01*
X0106287Y0152800D01*
X0106920Y0152749D01*
X0106981Y0152800D01*
X0109167Y0152800D01*
X0109800Y0152749D01*
X0109861Y0152800D01*
X0109940Y0152800D01*
X0110254Y0153114D01*
X0110315Y0152946D01*
X0111592Y0152351D01*
X0112827Y0152800D01*
X0118004Y0152800D01*
X0119000Y0153796D01*
X0119000Y0155204D01*
X0118610Y0155594D01*
X0119067Y0156166D01*
X0118912Y0157565D01*
X0117658Y0158569D01*
X0117226Y0159000D01*
X0117119Y0159000D01*
X0117034Y0159067D01*
X0116428Y0159000D01*
X0115818Y0159000D01*
X0115742Y0158924D01*
X0115635Y0158912D01*
X0115254Y0158436D01*
X0115116Y0158298D01*
X0114778Y0158569D01*
X0114346Y0159000D01*
X0114239Y0159000D01*
X0114154Y0159067D01*
X0113548Y0159000D01*
X0112938Y0159000D01*
X0112862Y0158924D01*
X0112755Y0158912D01*
X0112374Y0158436D01*
X0112054Y0158115D01*
X0111785Y0158854D01*
X0110509Y0159449D01*
X0109241Y0158989D01*
X0109226Y0159000D01*
X0107676Y0159000D01*
X0107593Y0158917D01*
X0106962Y0158552D01*
X0106346Y0159000D01*
X0104796Y0159000D01*
X0104713Y0158917D01*
X0103744Y0158357D02*
X0103744Y0158357D01*
X0103402Y0157765D02*
X0090600Y0157765D01*
X0090600Y0156766D02*
X0103100Y0156766D01*
X0103229Y0155768D02*
X0090600Y0155768D01*
X0090600Y0154769D02*
X0103100Y0154769D01*
X0103126Y0153771D02*
X0090600Y0153771D01*
X0090600Y0152772D02*
X0106630Y0152772D01*
X0106948Y0152772D02*
X0109510Y0152772D01*
X0109828Y0152772D02*
X0110688Y0152772D01*
X0112751Y0152772D02*
X0123200Y0152772D01*
X0123200Y0151774D02*
X0090600Y0151774D01*
X0090600Y0150775D02*
X0123200Y0150775D01*
X0123200Y0149777D02*
X0090600Y0149777D01*
X0090600Y0148778D02*
X0123200Y0148778D01*
X0123200Y0147780D02*
X0090600Y0147780D01*
X0090600Y0146781D02*
X0123200Y0146781D01*
X0123200Y0145783D02*
X0090600Y0145783D01*
X0090561Y0141789D02*
X0100711Y0141789D01*
X0101710Y0140790D02*
X0090147Y0140790D01*
X0089176Y0139792D02*
X0102500Y0139792D01*
X0102500Y0138793D02*
X0088177Y0138793D01*
X0087179Y0137795D02*
X0102500Y0137795D01*
X0102500Y0136796D02*
X0086180Y0136796D01*
X0085182Y0135798D02*
X0102500Y0135798D01*
X0102500Y0134799D02*
X0084080Y0134799D01*
X0080920Y0134799D02*
X0039500Y0134799D01*
X0039500Y0133801D02*
X0102500Y0133801D01*
X0102500Y0132802D02*
X0039500Y0132802D01*
X0039500Y0131803D02*
X0102500Y0131803D01*
X0102500Y0130805D02*
X0039500Y0130805D01*
X0039500Y0129806D02*
X0102500Y0129806D01*
X0102500Y0128808D02*
X0080065Y0128808D01*
X0080299Y0128574D02*
X0079421Y0129453D01*
X0073060Y0129453D01*
X0072500Y0128893D01*
X0071940Y0129453D01*
X0065579Y0129453D01*
X0064701Y0128574D01*
X0064701Y0128100D01*
X0060299Y0128100D01*
X0060299Y0128574D01*
X0059421Y0129453D01*
X0053060Y0129453D01*
X0052500Y0128893D01*
X0052240Y0129153D01*
X0051898Y0129351D01*
X0051516Y0129453D01*
X0049260Y0129453D01*
X0049260Y0125500D01*
X0048260Y0125500D01*
X0048260Y0129453D01*
X0046003Y0129453D01*
X0045622Y0129351D01*
X0045280Y0129153D01*
X0045000Y0128874D01*
X0044803Y0128532D01*
X0044701Y0128150D01*
X0044701Y0125500D01*
X0048260Y0125500D01*
X0048260Y0124500D01*
X0049260Y0124500D01*
X0049260Y0120547D01*
X0051516Y0120547D01*
X0051898Y0120649D01*
X0052240Y0120847D01*
X0052500Y0121107D01*
X0053060Y0120547D01*
X0059421Y0120547D01*
X0060299Y0121426D01*
X0060299Y0121900D01*
X0064701Y0121900D01*
X0064701Y0121426D01*
X0065579Y0120547D01*
X0071940Y0120547D01*
X0072500Y0121107D01*
X0073060Y0120547D01*
X0079421Y0120547D01*
X0080299Y0121426D01*
X0080299Y0121900D01*
X0083117Y0121900D01*
X0084256Y0122372D01*
X0085128Y0123244D01*
X0085600Y0124383D01*
X0085600Y0125617D01*
X0085128Y0126756D01*
X0084256Y0127628D01*
X0083117Y0128100D01*
X0080299Y0128100D01*
X0080299Y0128574D01*
X0083818Y0127809D02*
X0102500Y0127809D01*
X0102500Y0126811D02*
X0085073Y0126811D01*
X0085519Y0125812D02*
X0102500Y0125812D01*
X0102500Y0124814D02*
X0085600Y0124814D01*
X0085365Y0123815D02*
X0102500Y0123815D01*
X0102500Y0122817D02*
X0084701Y0122817D01*
X0080299Y0121818D02*
X0102500Y0121818D01*
X0102500Y0120820D02*
X0079693Y0120820D01*
X0072787Y0120820D02*
X0072213Y0120820D01*
X0065307Y0120820D02*
X0059693Y0120820D01*
X0060299Y0121818D02*
X0064701Y0121818D01*
X0064935Y0128808D02*
X0060065Y0128808D01*
X0052787Y0120820D02*
X0052193Y0120820D01*
X0049260Y0120820D02*
X0048260Y0120820D01*
X0048260Y0120547D02*
X0048260Y0124500D01*
X0044701Y0124500D01*
X0044701Y0121850D01*
X0044803Y0121468D01*
X0045000Y0121126D01*
X0045280Y0120847D01*
X0045622Y0120649D01*
X0046003Y0120547D01*
X0048260Y0120547D01*
X0048260Y0121818D02*
X0049260Y0121818D01*
X0049260Y0122817D02*
X0048260Y0122817D01*
X0048260Y0123815D02*
X0049260Y0123815D01*
X0048260Y0124814D02*
X0039500Y0124814D01*
X0039500Y0125812D02*
X0044701Y0125812D01*
X0044701Y0126811D02*
X0039500Y0126811D01*
X0039500Y0127809D02*
X0044701Y0127809D01*
X0044962Y0128808D02*
X0039500Y0128808D01*
X0039500Y0123815D02*
X0044701Y0123815D01*
X0044701Y0122817D02*
X0039500Y0122817D01*
X0039500Y0121818D02*
X0044709Y0121818D01*
X0045327Y0120820D02*
X0039500Y0120820D01*
X0039500Y0119821D02*
X0102321Y0119821D01*
X0101323Y0118823D02*
X0039500Y0118823D01*
X0039500Y0117824D02*
X0100324Y0117824D01*
X0099326Y0116826D02*
X0039500Y0116826D01*
X0039500Y0115827D02*
X0098327Y0115827D01*
X0097329Y0114829D02*
X0039500Y0114829D01*
X0039500Y0113830D02*
X0096330Y0113830D01*
X0095332Y0112832D02*
X0039500Y0112832D01*
X0039500Y0111833D02*
X0094333Y0111833D01*
X0093335Y0110835D02*
X0039500Y0110835D01*
X0039500Y0109836D02*
X0092500Y0109836D01*
X0092500Y0108838D02*
X0039500Y0108838D01*
X0039500Y0107839D02*
X0092500Y0107839D01*
X0092500Y0106841D02*
X0039500Y0106841D01*
X0039500Y0105842D02*
X0092500Y0105842D01*
X0092500Y0104844D02*
X0039500Y0104844D01*
X0039500Y0103845D02*
X0092500Y0103845D01*
X0092500Y0102847D02*
X0039500Y0102847D01*
X0039722Y0101848D02*
X0092500Y0101848D01*
X0092500Y0100850D02*
X0040263Y0100850D01*
X0040378Y0099851D02*
X0092500Y0099851D01*
X0092500Y0098853D02*
X0040140Y0098853D01*
X0039424Y0097854D02*
X0092500Y0097854D01*
X0094500Y0097854D02*
X0123200Y0097854D01*
X0123200Y0096856D02*
X0094500Y0096856D01*
X0094500Y0095857D02*
X0123200Y0095857D01*
X0123200Y0094859D02*
X0094500Y0094859D01*
X0094890Y0093860D02*
X0123200Y0093860D01*
X0123200Y0098853D02*
X0094500Y0098853D01*
X0094500Y0099851D02*
X0123200Y0099851D01*
X0123200Y0100850D02*
X0094500Y0100850D01*
X0094500Y0101848D02*
X0123200Y0101848D01*
X0123200Y0102847D02*
X0094500Y0102847D01*
X0094500Y0103845D02*
X0123200Y0103845D01*
X0123200Y0104844D02*
X0094500Y0104844D01*
X0094500Y0105842D02*
X0123200Y0105842D01*
X0123200Y0106841D02*
X0094500Y0106841D01*
X0094500Y0107839D02*
X0123200Y0107839D01*
X0123200Y0108838D02*
X0094500Y0108838D01*
X0095165Y0109836D02*
X0123200Y0109836D01*
X0123200Y0110835D02*
X0096163Y0110835D01*
X0097162Y0111833D02*
X0123200Y0111833D01*
X0123200Y0112832D02*
X0098160Y0112832D01*
X0099159Y0113830D02*
X0123200Y0113830D01*
X0123200Y0114829D02*
X0100157Y0114829D01*
X0101156Y0115827D02*
X0123200Y0115827D01*
X0123200Y0116826D02*
X0102154Y0116826D01*
X0103153Y0117824D02*
X0123200Y0117824D01*
X0123200Y0118823D02*
X0104151Y0118823D01*
X0104500Y0119821D02*
X0123200Y0119821D01*
X0123200Y0120820D02*
X0104500Y0120820D01*
X0104500Y0121818D02*
X0123200Y0121818D01*
X0123200Y0122817D02*
X0104500Y0122817D01*
X0104500Y0123815D02*
X0123200Y0123815D01*
X0123200Y0124814D02*
X0104500Y0124814D01*
X0104500Y0125812D02*
X0123200Y0125812D01*
X0123200Y0126811D02*
X0104500Y0126811D01*
X0104500Y0127809D02*
X0123200Y0127809D01*
X0123200Y0128808D02*
X0104500Y0128808D01*
X0104500Y0129806D02*
X0123200Y0129806D01*
X0123200Y0130805D02*
X0104500Y0130805D01*
X0104500Y0131803D02*
X0123200Y0131803D01*
X0123200Y0132802D02*
X0104500Y0132802D01*
X0104500Y0133801D02*
X0123200Y0133801D01*
X0123200Y0134799D02*
X0104500Y0134799D01*
X0104500Y0135798D02*
X0123200Y0135798D01*
X0123200Y0136796D02*
X0104500Y0136796D01*
X0104500Y0137795D02*
X0123200Y0137795D01*
X0123200Y0138793D02*
X0104500Y0138793D01*
X0104500Y0139792D02*
X0123200Y0139792D01*
X0123200Y0140790D02*
X0104500Y0140790D01*
X0103540Y0141789D02*
X0123200Y0141789D01*
X0123200Y0142787D02*
X0102541Y0142787D01*
X0101543Y0143786D02*
X0123200Y0143786D01*
X0123200Y0144784D02*
X0100216Y0144784D01*
X0106671Y0158763D02*
X0107327Y0158763D01*
X0111818Y0158763D02*
X0112636Y0158763D01*
X0114583Y0158763D02*
X0115516Y0158763D01*
X0117463Y0158763D02*
X0123200Y0158763D01*
X0123200Y0157765D02*
X0118663Y0157765D01*
X0119001Y0156766D02*
X0123200Y0156766D01*
X0123200Y0155768D02*
X0118749Y0155768D01*
X0119000Y0154769D02*
X0123200Y0154769D01*
X0123200Y0153771D02*
X0118975Y0153771D01*
X0118436Y0161759D02*
X0123200Y0161759D01*
X0123200Y0162757D02*
X0118673Y0162757D01*
X0118673Y0163756D02*
X0123200Y0163756D01*
X0123200Y0164754D02*
X0118673Y0164754D01*
X0118673Y0165753D02*
X0123200Y0165753D01*
X0123200Y0166751D02*
X0118956Y0166751D01*
X0119000Y0167750D02*
X0123200Y0167750D01*
X0123200Y0168748D02*
X0119000Y0168748D01*
X0119000Y0169747D02*
X0123200Y0169747D01*
X0123200Y0170745D02*
X0119000Y0170745D01*
X0118503Y0171744D02*
X0123200Y0171744D01*
X0123200Y0172742D02*
X0118824Y0172742D01*
X0118824Y0173741D02*
X0123200Y0173741D01*
X0123200Y0174739D02*
X0118824Y0174739D01*
X0118455Y0175738D02*
X0123200Y0175738D01*
X0114801Y0176737D02*
X0109607Y0176737D01*
X0105002Y0193711D02*
X0104329Y0193711D01*
X0104329Y0194710D02*
X0105002Y0194710D01*
X0100084Y0199702D02*
X0079916Y0199702D01*
X0079886Y0200701D02*
X0100114Y0200701D01*
X0099092Y0201699D02*
X0080908Y0201699D01*
X0082487Y0202698D02*
X0097513Y0202698D01*
X0096937Y0203696D02*
X0083063Y0203696D01*
X0083232Y0204695D02*
X0091574Y0204695D01*
X0093070Y0204695D02*
X0096768Y0204695D01*
X0096919Y0205693D02*
X0094585Y0205693D01*
X0095102Y0206692D02*
X0097469Y0206692D01*
X0098987Y0207690D02*
X0095200Y0207690D01*
X0092322Y0207500D02*
X0091072Y0208750D01*
X0072322Y0208750D01*
X0056250Y0192678D01*
X0056250Y0181250D01*
X0060112Y0193711D02*
X0072972Y0193711D01*
X0071836Y0194710D02*
X0061110Y0194710D01*
X0062109Y0195708D02*
X0071220Y0195708D01*
X0070903Y0196707D02*
X0063107Y0196707D01*
X0064106Y0197705D02*
X0070823Y0197705D01*
X0070823Y0198704D02*
X0065104Y0198704D01*
X0066103Y0199702D02*
X0070753Y0199702D01*
X0070783Y0200701D02*
X0067101Y0200701D01*
X0068100Y0201699D02*
X0070778Y0201699D01*
X0070823Y0202698D02*
X0069098Y0202698D01*
X0070097Y0203696D02*
X0070823Y0203696D01*
X0077866Y0211684D02*
X0102134Y0211684D01*
X0101758Y0212683D02*
X0078242Y0212683D01*
X0078528Y0213681D02*
X0101472Y0213681D01*
X0101420Y0214680D02*
X0078580Y0214680D01*
X0078528Y0215678D02*
X0101472Y0215678D01*
X0101449Y0216677D02*
X0078551Y0216677D01*
X0078446Y0217675D02*
X0101554Y0217675D01*
X0101812Y0218674D02*
X0078188Y0218674D01*
X0077686Y0219672D02*
X0102314Y0219672D01*
X0103364Y0220671D02*
X0076636Y0220671D01*
X0071300Y0218674D02*
X0062896Y0218674D01*
X0059931Y0213681D02*
X0057561Y0213681D01*
X0052439Y0213681D02*
X0050260Y0213681D01*
X0049261Y0212683D02*
X0052025Y0212683D01*
X0052024Y0211684D02*
X0048263Y0211684D01*
X0047264Y0210686D02*
X0052359Y0210686D01*
X0053190Y0209687D02*
X0046266Y0209687D01*
X0038612Y0207690D02*
X0015750Y0207690D01*
X0015750Y0206692D02*
X0037613Y0206692D01*
X0036615Y0205693D02*
X0015750Y0205693D01*
X0015750Y0204695D02*
X0035616Y0204695D01*
X0034618Y0203696D02*
X0015750Y0203696D01*
X0015750Y0202698D02*
X0033619Y0202698D01*
X0032621Y0201699D02*
X0015750Y0201699D01*
X0015750Y0200701D02*
X0031622Y0200701D01*
X0030624Y0199702D02*
X0015750Y0199702D01*
X0015750Y0198704D02*
X0029625Y0198704D01*
X0028627Y0197705D02*
X0015750Y0197705D01*
X0015750Y0196707D02*
X0027628Y0196707D01*
X0026630Y0195708D02*
X0015750Y0195708D01*
X0015750Y0194710D02*
X0025631Y0194710D01*
X0024633Y0193711D02*
X0015750Y0193711D01*
X0015750Y0192713D02*
X0023634Y0192713D01*
X0022636Y0191714D02*
X0015750Y0191714D01*
X0015750Y0190716D02*
X0020396Y0190716D01*
X0019786Y0189717D02*
X0015750Y0189717D01*
X0015750Y0188719D02*
X0019622Y0188719D01*
X0019812Y0187720D02*
X0015750Y0187720D01*
X0015750Y0186722D02*
X0020458Y0186722D01*
X0028382Y0167750D02*
X0046618Y0167750D01*
X0049327Y0162757D02*
X0053223Y0162757D01*
X0053436Y0162971D02*
X0052117Y0161652D01*
X0051404Y0159929D01*
X0051404Y0158063D01*
X0052117Y0156340D01*
X0053436Y0155021D01*
X0055160Y0154307D01*
X0057025Y0154307D01*
X0058749Y0155021D01*
X0060068Y0156340D01*
X0060781Y0158063D01*
X0060781Y0159929D01*
X0060068Y0161652D01*
X0058749Y0162971D01*
X0057025Y0163685D01*
X0055160Y0163685D01*
X0053436Y0162971D01*
X0052224Y0161759D02*
X0050118Y0161759D01*
X0050595Y0160760D02*
X0051748Y0160760D01*
X0051404Y0159762D02*
X0050939Y0159762D01*
X0050939Y0158763D02*
X0051404Y0158763D01*
X0051527Y0157765D02*
X0050815Y0157765D01*
X0050402Y0156766D02*
X0051941Y0156766D01*
X0052690Y0155768D02*
X0049653Y0155768D01*
X0048298Y0154769D02*
X0054044Y0154769D01*
X0053234Y0149777D02*
X0049108Y0149777D01*
X0050107Y0148778D02*
X0052236Y0148778D01*
X0051753Y0147780D02*
X0050590Y0147780D01*
X0050939Y0146781D02*
X0051404Y0146781D01*
X0051404Y0145783D02*
X0050939Y0145783D01*
X0048326Y0141789D02*
X0054016Y0141789D01*
X0058169Y0141789D02*
X0082405Y0141789D01*
X0081406Y0140790D02*
X0039500Y0140790D01*
X0039500Y0139792D02*
X0080408Y0139792D01*
X0079680Y0138793D02*
X0039500Y0138793D01*
X0039500Y0137795D02*
X0079400Y0137795D01*
X0079436Y0136796D02*
X0039500Y0136796D01*
X0039500Y0135798D02*
X0079850Y0135798D01*
X0084400Y0145783D02*
X0060781Y0145783D01*
X0060781Y0146781D02*
X0084400Y0146781D01*
X0084400Y0147780D02*
X0060432Y0147780D01*
X0059949Y0148778D02*
X0084400Y0148778D01*
X0084400Y0149777D02*
X0058951Y0149777D01*
X0058141Y0154769D02*
X0084400Y0154769D01*
X0084400Y0153771D02*
X0034011Y0153771D01*
X0033012Y0152772D02*
X0084400Y0152772D01*
X0084400Y0151774D02*
X0032014Y0151774D01*
X0032000Y0150775D02*
X0084400Y0150775D01*
X0084400Y0155768D02*
X0059495Y0155768D01*
X0060244Y0156766D02*
X0083850Y0156766D01*
X0082851Y0157765D02*
X0060658Y0157765D01*
X0060781Y0158763D02*
X0081853Y0158763D01*
X0080854Y0159762D02*
X0060781Y0159762D01*
X0060437Y0160760D02*
X0079856Y0160760D01*
X0078857Y0161759D02*
X0059961Y0161759D01*
X0058962Y0162757D02*
X0077859Y0162757D01*
X0075671Y0193711D02*
X0074998Y0193711D01*
X0074998Y0194710D02*
X0075671Y0194710D01*
X0083081Y0205693D02*
X0090059Y0205693D01*
X0089542Y0206692D02*
X0082531Y0206692D01*
X0091965Y0210686D02*
X0102964Y0210686D01*
X0102766Y0207690D02*
X0100698Y0207690D01*
X0104329Y0207690D02*
X0105002Y0207690D01*
X0105002Y0206692D02*
X0104329Y0206692D01*
X0053033Y0220671D02*
X0026967Y0220671D01*
X0027706Y0221670D02*
X0052294Y0221670D01*
X0052024Y0222668D02*
X0027976Y0222668D01*
X0023033Y0220671D02*
X0004109Y0220671D01*
X0005401Y0221670D02*
X0022294Y0221670D01*
X0022024Y0222668D02*
X0007391Y0222668D01*
X0039277Y0162757D02*
X0043380Y0162757D01*
X0042382Y0161759D02*
X0040276Y0161759D01*
X0040752Y0160760D02*
X0041905Y0160760D01*
X0041561Y0159762D02*
X0041096Y0159762D01*
X0041096Y0158763D02*
X0041561Y0158763D01*
X0041685Y0157765D02*
X0040973Y0157765D01*
X0040559Y0156766D02*
X0042098Y0156766D01*
X0042847Y0155768D02*
X0039810Y0155768D01*
X0038456Y0154769D02*
X0044202Y0154769D01*
X0043392Y0149777D02*
X0039266Y0149777D01*
X0040264Y0148778D02*
X0042393Y0148778D01*
X0041910Y0147780D02*
X0040747Y0147780D01*
X0041096Y0146781D02*
X0041561Y0146781D01*
X0041561Y0145783D02*
X0041096Y0145783D01*
X0037500Y0144911D02*
X0036407Y0146004D01*
X0037500Y0144911D02*
X0037500Y0100000D01*
X0035576Y0097854D02*
X0034424Y0097854D01*
X0032500Y0100000D02*
X0032500Y0140000D01*
X0030000Y0142500D01*
X0030000Y0152589D01*
X0036407Y0158996D01*
X0033549Y0149777D02*
X0032000Y0149777D01*
X0032000Y0148778D02*
X0032551Y0148778D01*
X0032068Y0147780D02*
X0032000Y0147780D01*
X0039500Y0141789D02*
X0044174Y0141789D01*
X0048260Y0128808D02*
X0049260Y0128808D01*
X0049260Y0127809D02*
X0048260Y0127809D01*
X0048260Y0126811D02*
X0049260Y0126811D01*
X0049260Y0125812D02*
X0048260Y0125812D01*
X0048554Y0078882D02*
X0001800Y0078882D01*
X0001800Y0077884D02*
X0047555Y0077884D01*
X0046557Y0076885D02*
X0001800Y0076885D01*
X0001800Y0075887D02*
X0044317Y0075887D01*
X0043606Y0074888D02*
X0001800Y0074888D01*
X0001800Y0073890D02*
X0043372Y0073890D01*
X0043491Y0072891D02*
X0001800Y0072891D01*
X0001800Y0071893D02*
X0040323Y0071893D01*
X0039755Y0070894D02*
X0001800Y0070894D01*
X0001800Y0069896D02*
X0039622Y0069896D01*
X0039842Y0068897D02*
X0001800Y0068897D01*
X0001800Y0067899D02*
X0040531Y0067899D01*
X0046250Y0073750D02*
X0050000Y0077500D01*
X0078946Y0078882D02*
X0092500Y0078882D01*
X0092500Y0077884D02*
X0079945Y0077884D01*
X0080943Y0076885D02*
X0092500Y0076885D01*
X0092500Y0075887D02*
X0081942Y0075887D01*
X0082940Y0074888D02*
X0092500Y0074888D01*
X0092500Y0073890D02*
X0083939Y0073890D01*
X0084937Y0072891D02*
X0092500Y0072891D01*
X0092500Y0071893D02*
X0085936Y0071893D01*
X0086934Y0070894D02*
X0092500Y0070894D01*
X0092500Y0069896D02*
X0087933Y0069896D01*
X0088931Y0068897D02*
X0092500Y0068897D01*
X0092500Y0067899D02*
X0089930Y0067899D01*
X0090928Y0066900D02*
X0092500Y0066900D01*
X0092500Y0065902D02*
X0091927Y0065902D01*
X0092500Y0079881D02*
X0001800Y0079881D01*
X0001800Y0080879D02*
X0092500Y0080879D01*
X0092500Y0081878D02*
X0001800Y0081878D01*
X0001800Y0082876D02*
X0092500Y0082876D01*
X0092500Y0083875D02*
X0001800Y0083875D01*
X0001800Y0084873D02*
X0092500Y0084873D01*
X0092500Y0085872D02*
X0001800Y0085872D01*
X0001800Y0086870D02*
X0092500Y0086870D01*
X0092500Y0087869D02*
X0001800Y0087869D01*
X0001800Y0088868D02*
X0092500Y0088868D01*
X0092500Y0089866D02*
X0001800Y0089866D01*
X0090397Y0024963D02*
X0090650Y0024963D01*
X0101530Y0031952D02*
X0103451Y0031952D01*
X0104078Y0032951D02*
X0101523Y0032951D01*
X0114490Y0027958D02*
X0115490Y0027958D01*
X0115490Y0026960D02*
X0114490Y0026960D01*
X0114490Y0025961D02*
X0115490Y0025961D01*
X0115490Y0024963D02*
X0114490Y0024963D01*
X0114490Y0043934D02*
X0115490Y0043934D01*
X0115490Y0044933D02*
X0114490Y0044933D01*
X0114490Y0045932D02*
X0115490Y0045932D01*
X0115490Y0046930D02*
X0114490Y0046930D01*
X0114490Y0047929D02*
X0115490Y0047929D01*
X0115490Y0048927D02*
X0114490Y0048927D01*
X0114490Y0049926D02*
X0115490Y0049926D01*
X0119049Y0051923D02*
X0123200Y0051923D01*
X0123200Y0052921D02*
X0119049Y0052921D01*
X0119049Y0053920D02*
X0123200Y0053920D01*
X0123200Y0054918D02*
X0118868Y0054918D01*
D21*
X0107510Y0057490D02*
X0107510Y0051250D01*
X0107510Y0042500D01*
X0107510Y0028750D01*
X0099370Y0028750D01*
X0098750Y0029370D01*
X0093750Y0029370D02*
X0093750Y0021260D01*
X0095010Y0020000D01*
X0090000Y0020000D01*
X0090000Y0040000D02*
X0067500Y0040000D01*
X0060097Y0032597D01*
X0043750Y0016250D01*
X0043750Y0006250D01*
X0098750Y0050630D02*
X0106890Y0050630D01*
X0107510Y0051250D01*
X0107510Y0057490D02*
X0107500Y0057500D01*
X0082500Y0125000D02*
X0076240Y0125000D01*
X0068760Y0125000D02*
X0062500Y0125000D01*
X0056240Y0125000D01*
X0082500Y0137500D02*
X0087500Y0142500D01*
X0087500Y0157500D01*
X0075000Y0170000D01*
X0053750Y0170000D01*
X0050000Y0173750D01*
X0050000Y0188750D01*
M02*
