G75*
%MOIN*%
%OFA0B0*%
%FSLAX25Y25*%
%IPPOS*%
%LPD*%
%AMOC8*
5,1,8,0,0,1.08239X$1,22.5*
%
%ADD10C,0.00400*%
%ADD11C,0.06024*%
%ADD12C,0.04165*%
%ADD13C,0.00394*%
%ADD14C,0.00039*%
%ADD15C,0.00205*%
%ADD16C,0.06378*%
%ADD17C,0.07200*%
%ADD18C,0.00220*%
%ADD19C,0.02953*%
%ADD20C,0.01000*%
%ADD21C,0.03200*%
%ADD22C,0.01600*%
%ADD23C,0.02400*%
D10*
X0026652Y0065200D02*
X0026808Y0065200D01*
X0026849Y0065202D01*
X0026889Y0065207D01*
X0026929Y0065216D01*
X0026968Y0065228D01*
X0027005Y0065244D01*
X0027042Y0065263D01*
X0027076Y0065284D01*
X0027108Y0065309D01*
X0027138Y0065337D01*
X0027166Y0065367D01*
X0027191Y0065399D01*
X0027212Y0065434D01*
X0027231Y0065470D01*
X0027247Y0065507D01*
X0027259Y0065546D01*
X0027268Y0065586D01*
X0027273Y0065626D01*
X0027275Y0065667D01*
X0027274Y0065667D02*
X0027274Y0068000D01*
X0027585Y0067067D02*
X0026652Y0067067D01*
X0028579Y0066444D02*
X0028579Y0065822D01*
X0028581Y0065773D01*
X0028587Y0065725D01*
X0028596Y0065677D01*
X0028609Y0065630D01*
X0028626Y0065584D01*
X0028647Y0065540D01*
X0028671Y0065497D01*
X0028698Y0065456D01*
X0028728Y0065418D01*
X0028761Y0065382D01*
X0028797Y0065349D01*
X0028835Y0065319D01*
X0028876Y0065292D01*
X0028919Y0065268D01*
X0028963Y0065247D01*
X0029009Y0065230D01*
X0029056Y0065217D01*
X0029104Y0065208D01*
X0029152Y0065202D01*
X0029201Y0065200D01*
X0029250Y0065202D01*
X0029298Y0065208D01*
X0029346Y0065217D01*
X0029393Y0065230D01*
X0029439Y0065247D01*
X0029483Y0065268D01*
X0029526Y0065292D01*
X0029567Y0065319D01*
X0029605Y0065349D01*
X0029641Y0065382D01*
X0029674Y0065418D01*
X0029704Y0065456D01*
X0029731Y0065497D01*
X0029755Y0065540D01*
X0029776Y0065584D01*
X0029793Y0065630D01*
X0029806Y0065677D01*
X0029815Y0065725D01*
X0029821Y0065773D01*
X0029823Y0065822D01*
X0029823Y0066444D01*
X0029821Y0066493D01*
X0029815Y0066541D01*
X0029806Y0066589D01*
X0029793Y0066636D01*
X0029776Y0066682D01*
X0029755Y0066726D01*
X0029731Y0066769D01*
X0029704Y0066810D01*
X0029674Y0066848D01*
X0029641Y0066884D01*
X0029605Y0066917D01*
X0029567Y0066947D01*
X0029526Y0066974D01*
X0029483Y0066998D01*
X0029439Y0067019D01*
X0029393Y0067036D01*
X0029346Y0067049D01*
X0029298Y0067058D01*
X0029250Y0067064D01*
X0029201Y0067066D01*
X0029152Y0067064D01*
X0029104Y0067058D01*
X0029056Y0067049D01*
X0029009Y0067036D01*
X0028963Y0067019D01*
X0028919Y0066998D01*
X0028876Y0066974D01*
X0028835Y0066947D01*
X0028797Y0066917D01*
X0028761Y0066884D01*
X0028728Y0066848D01*
X0028698Y0066810D01*
X0028671Y0066769D01*
X0028647Y0066726D01*
X0028626Y0066682D01*
X0028609Y0066636D01*
X0028596Y0066589D01*
X0028587Y0066541D01*
X0028581Y0066493D01*
X0028579Y0066444D01*
X0031056Y0066600D02*
X0031056Y0065667D01*
X0031055Y0065667D02*
X0031057Y0065624D01*
X0031063Y0065581D01*
X0031073Y0065539D01*
X0031087Y0065498D01*
X0031104Y0065459D01*
X0031125Y0065421D01*
X0031149Y0065386D01*
X0031177Y0065352D01*
X0031207Y0065322D01*
X0031241Y0065294D01*
X0031276Y0065270D01*
X0031314Y0065249D01*
X0031353Y0065232D01*
X0031394Y0065218D01*
X0031436Y0065208D01*
X0031479Y0065202D01*
X0031522Y0065200D01*
X0032300Y0065200D01*
X0032300Y0068000D01*
X0032300Y0067067D02*
X0031522Y0067067D01*
X0031481Y0067065D01*
X0031441Y0067060D01*
X0031401Y0067051D01*
X0031362Y0067039D01*
X0031325Y0067023D01*
X0031289Y0067004D01*
X0031254Y0066983D01*
X0031222Y0066958D01*
X0031192Y0066930D01*
X0031164Y0066900D01*
X0031139Y0066868D01*
X0031118Y0066834D01*
X0031099Y0066797D01*
X0031083Y0066760D01*
X0031071Y0066721D01*
X0031062Y0066681D01*
X0031057Y0066641D01*
X0031055Y0066600D01*
X0010960Y0122822D02*
X0010962Y0122869D01*
X0010967Y0122915D01*
X0010976Y0122961D01*
X0010988Y0123007D01*
X0011003Y0123051D01*
X0011022Y0123094D01*
X0011043Y0123136D01*
X0011068Y0123175D01*
X0011096Y0123213D01*
X0011126Y0123249D01*
X0011159Y0123282D01*
X0011194Y0123313D01*
X0011232Y0123341D01*
X0011271Y0123366D01*
X0011271Y0123367D02*
X0012127Y0123833D01*
X0011816Y0125000D02*
X0011753Y0124998D01*
X0011691Y0124993D01*
X0011629Y0124985D01*
X0011568Y0124973D01*
X0011507Y0124958D01*
X0011447Y0124940D01*
X0011388Y0124919D01*
X0011331Y0124894D01*
X0011274Y0124867D01*
X0011220Y0124836D01*
X0011167Y0124803D01*
X0011116Y0124767D01*
X0012127Y0123834D02*
X0012166Y0123859D01*
X0012204Y0123887D01*
X0012239Y0123918D01*
X0012272Y0123951D01*
X0012302Y0123987D01*
X0012330Y0124025D01*
X0012355Y0124064D01*
X0012376Y0124106D01*
X0012395Y0124149D01*
X0012410Y0124193D01*
X0012422Y0124239D01*
X0012431Y0124285D01*
X0012436Y0124331D01*
X0012438Y0124378D01*
X0012436Y0124427D01*
X0012430Y0124475D01*
X0012421Y0124523D01*
X0012408Y0124570D01*
X0012391Y0124616D01*
X0012370Y0124660D01*
X0012346Y0124703D01*
X0012319Y0124744D01*
X0012289Y0124782D01*
X0012256Y0124818D01*
X0012220Y0124851D01*
X0012182Y0124881D01*
X0012141Y0124908D01*
X0012098Y0124932D01*
X0012054Y0124953D01*
X0012008Y0124970D01*
X0011961Y0124983D01*
X0011913Y0124992D01*
X0011865Y0124998D01*
X0011816Y0125000D01*
X0012515Y0122589D02*
X0012465Y0122541D01*
X0012413Y0122496D01*
X0012358Y0122454D01*
X0012301Y0122414D01*
X0012242Y0122378D01*
X0012181Y0122345D01*
X0012119Y0122315D01*
X0012055Y0122288D01*
X0011990Y0122265D01*
X0011924Y0122245D01*
X0011857Y0122229D01*
X0011789Y0122216D01*
X0011720Y0122207D01*
X0011651Y0122202D01*
X0011582Y0122200D01*
X0011533Y0122202D01*
X0011485Y0122208D01*
X0011437Y0122217D01*
X0011390Y0122230D01*
X0011344Y0122247D01*
X0011300Y0122268D01*
X0011257Y0122292D01*
X0011216Y0122319D01*
X0011178Y0122349D01*
X0011142Y0122382D01*
X0011109Y0122418D01*
X0011079Y0122456D01*
X0011052Y0122497D01*
X0011028Y0122540D01*
X0011007Y0122584D01*
X0010990Y0122630D01*
X0010977Y0122677D01*
X0010968Y0122725D01*
X0010962Y0122773D01*
X0010960Y0122822D01*
X0009581Y0122200D02*
X0009581Y0125000D01*
X0008803Y0125000D01*
X0008754Y0124998D01*
X0008706Y0124992D01*
X0008658Y0124983D01*
X0008611Y0124970D01*
X0008565Y0124953D01*
X0008521Y0124932D01*
X0008478Y0124908D01*
X0008437Y0124881D01*
X0008399Y0124851D01*
X0008363Y0124818D01*
X0008330Y0124782D01*
X0008300Y0124744D01*
X0008273Y0124703D01*
X0008249Y0124660D01*
X0008228Y0124616D01*
X0008211Y0124570D01*
X0008198Y0124523D01*
X0008189Y0124475D01*
X0008183Y0124427D01*
X0008181Y0124378D01*
X0008183Y0124329D01*
X0008189Y0124281D01*
X0008198Y0124233D01*
X0008211Y0124186D01*
X0008228Y0124140D01*
X0008249Y0124096D01*
X0008273Y0124053D01*
X0008300Y0124012D01*
X0008330Y0123974D01*
X0008363Y0123938D01*
X0008399Y0123905D01*
X0008437Y0123875D01*
X0008478Y0123848D01*
X0008521Y0123824D01*
X0008565Y0123803D01*
X0008611Y0123786D01*
X0008658Y0123773D01*
X0008706Y0123764D01*
X0008754Y0123758D01*
X0008803Y0123756D01*
X0009581Y0123756D01*
X0008803Y0123756D02*
X0008747Y0123754D01*
X0008692Y0123748D01*
X0008638Y0123738D01*
X0008584Y0123724D01*
X0008531Y0123707D01*
X0008480Y0123686D01*
X0008430Y0123661D01*
X0008382Y0123632D01*
X0008337Y0123601D01*
X0008294Y0123566D01*
X0008253Y0123528D01*
X0008215Y0123487D01*
X0008180Y0123444D01*
X0008149Y0123399D01*
X0008120Y0123351D01*
X0008095Y0123301D01*
X0008074Y0123250D01*
X0008057Y0123197D01*
X0008043Y0123143D01*
X0008033Y0123089D01*
X0008027Y0123034D01*
X0008025Y0122978D01*
X0008027Y0122922D01*
X0008033Y0122867D01*
X0008043Y0122813D01*
X0008057Y0122759D01*
X0008074Y0122706D01*
X0008095Y0122655D01*
X0008120Y0122605D01*
X0008149Y0122557D01*
X0008180Y0122512D01*
X0008215Y0122469D01*
X0008253Y0122428D01*
X0008294Y0122390D01*
X0008337Y0122355D01*
X0008382Y0122324D01*
X0008430Y0122295D01*
X0008480Y0122270D01*
X0008531Y0122249D01*
X0008584Y0122232D01*
X0008638Y0122218D01*
X0008692Y0122208D01*
X0008747Y0122202D01*
X0008803Y0122200D01*
X0009581Y0122200D01*
X0006756Y0122822D02*
X0006756Y0124378D01*
X0006755Y0124378D02*
X0006753Y0124427D01*
X0006747Y0124475D01*
X0006738Y0124523D01*
X0006725Y0124570D01*
X0006708Y0124616D01*
X0006687Y0124660D01*
X0006663Y0124703D01*
X0006636Y0124744D01*
X0006606Y0124782D01*
X0006573Y0124818D01*
X0006537Y0124851D01*
X0006499Y0124881D01*
X0006458Y0124908D01*
X0006415Y0124932D01*
X0006371Y0124953D01*
X0006325Y0124970D01*
X0006278Y0124983D01*
X0006230Y0124992D01*
X0006182Y0124998D01*
X0006133Y0125000D01*
X0005200Y0125000D01*
X0005200Y0123756D02*
X0005200Y0122200D01*
X0006133Y0122200D01*
X0006182Y0122202D01*
X0006230Y0122208D01*
X0006278Y0122217D01*
X0006325Y0122230D01*
X0006371Y0122247D01*
X0006415Y0122268D01*
X0006458Y0122292D01*
X0006499Y0122319D01*
X0006537Y0122349D01*
X0006573Y0122382D01*
X0006606Y0122418D01*
X0006636Y0122456D01*
X0006663Y0122497D01*
X0006687Y0122540D01*
X0006708Y0122584D01*
X0006725Y0122630D01*
X0006738Y0122677D01*
X0006747Y0122725D01*
X0006753Y0122773D01*
X0006755Y0122822D01*
X0005667Y0123756D02*
X0005200Y0123756D01*
X0005200Y0127000D02*
X0006444Y0127000D01*
X0006444Y0129800D01*
X0007680Y0129800D02*
X0009236Y0129800D01*
X0008458Y0129800D02*
X0008458Y0127000D01*
X0010464Y0127000D02*
X0010464Y0129800D01*
X0010464Y0128556D02*
X0012020Y0128556D01*
X0012020Y0129800D02*
X0012020Y0127000D01*
X0104800Y0144500D02*
X0106356Y0144500D01*
X0105034Y0146056D01*
X0105500Y0147300D02*
X0105556Y0147298D01*
X0105613Y0147293D01*
X0105669Y0147284D01*
X0105724Y0147272D01*
X0105778Y0147256D01*
X0105831Y0147237D01*
X0105883Y0147214D01*
X0105933Y0147189D01*
X0105982Y0147160D01*
X0106029Y0147128D01*
X0106073Y0147093D01*
X0106116Y0147056D01*
X0106156Y0147016D01*
X0106193Y0146974D01*
X0106228Y0146929D01*
X0106259Y0146882D01*
X0106288Y0146833D01*
X0106314Y0146783D01*
X0106336Y0146731D01*
X0106355Y0146678D01*
X0105033Y0146055D02*
X0104998Y0146092D01*
X0104965Y0146130D01*
X0104934Y0146171D01*
X0104907Y0146213D01*
X0104882Y0146258D01*
X0104861Y0146304D01*
X0104842Y0146351D01*
X0104827Y0146399D01*
X0104815Y0146449D01*
X0104807Y0146499D01*
X0104802Y0146549D01*
X0104800Y0146600D01*
X0104802Y0146650D01*
X0104807Y0146700D01*
X0104816Y0146749D01*
X0104828Y0146797D01*
X0104844Y0146845D01*
X0104863Y0146891D01*
X0104886Y0146935D01*
X0104911Y0146978D01*
X0104940Y0147019D01*
X0104971Y0147058D01*
X0105005Y0147095D01*
X0105042Y0147129D01*
X0105081Y0147160D01*
X0105122Y0147189D01*
X0105165Y0147214D01*
X0105209Y0147237D01*
X0105255Y0147256D01*
X0105303Y0147272D01*
X0105351Y0147284D01*
X0105400Y0147293D01*
X0105450Y0147298D01*
X0105500Y0147300D01*
X0107914Y0146056D02*
X0109236Y0144500D01*
X0107680Y0144500D01*
X0109235Y0146678D02*
X0109216Y0146731D01*
X0109194Y0146783D01*
X0109168Y0146833D01*
X0109139Y0146882D01*
X0109108Y0146929D01*
X0109073Y0146974D01*
X0109036Y0147016D01*
X0108996Y0147056D01*
X0108953Y0147093D01*
X0108909Y0147128D01*
X0108862Y0147160D01*
X0108813Y0147189D01*
X0108763Y0147214D01*
X0108711Y0147237D01*
X0108658Y0147256D01*
X0108604Y0147272D01*
X0108549Y0147284D01*
X0108493Y0147293D01*
X0108436Y0147298D01*
X0108380Y0147300D01*
X0108330Y0147298D01*
X0108280Y0147293D01*
X0108231Y0147284D01*
X0108183Y0147272D01*
X0108135Y0147256D01*
X0108089Y0147237D01*
X0108045Y0147214D01*
X0108002Y0147189D01*
X0107961Y0147160D01*
X0107922Y0147129D01*
X0107885Y0147095D01*
X0107851Y0147058D01*
X0107820Y0147019D01*
X0107791Y0146978D01*
X0107766Y0146935D01*
X0107743Y0146891D01*
X0107724Y0146845D01*
X0107708Y0146797D01*
X0107696Y0146749D01*
X0107687Y0146700D01*
X0107682Y0146650D01*
X0107680Y0146600D01*
X0107682Y0146549D01*
X0107687Y0146499D01*
X0107695Y0146449D01*
X0107707Y0146399D01*
X0107722Y0146351D01*
X0107741Y0146304D01*
X0107762Y0146258D01*
X0107787Y0146213D01*
X0107814Y0146171D01*
X0107845Y0146130D01*
X0107878Y0146092D01*
X0107913Y0146055D01*
X0110428Y0147611D02*
X0111672Y0144189D01*
X0112864Y0144500D02*
X0114420Y0144500D01*
X0113642Y0144500D02*
X0113642Y0147300D01*
X0114420Y0146678D01*
X0116522Y0147300D02*
X0116522Y0144500D01*
X0117300Y0144500D02*
X0115744Y0144500D01*
X0117300Y0146678D02*
X0116522Y0147300D01*
X0116195Y0152700D02*
X0116973Y0152700D01*
X0116973Y0155500D01*
X0116195Y0155500D01*
X0116146Y0155498D01*
X0116098Y0155492D01*
X0116050Y0155483D01*
X0116003Y0155470D01*
X0115957Y0155453D01*
X0115913Y0155432D01*
X0115870Y0155408D01*
X0115829Y0155381D01*
X0115791Y0155351D01*
X0115755Y0155318D01*
X0115722Y0155282D01*
X0115692Y0155244D01*
X0115665Y0155203D01*
X0115641Y0155160D01*
X0115620Y0155116D01*
X0115603Y0155070D01*
X0115590Y0155023D01*
X0115581Y0154975D01*
X0115575Y0154927D01*
X0115573Y0154878D01*
X0115575Y0154829D01*
X0115581Y0154781D01*
X0115590Y0154733D01*
X0115603Y0154686D01*
X0115620Y0154640D01*
X0115641Y0154596D01*
X0115665Y0154553D01*
X0115692Y0154512D01*
X0115722Y0154474D01*
X0115755Y0154438D01*
X0115791Y0154405D01*
X0115829Y0154375D01*
X0115870Y0154348D01*
X0115913Y0154324D01*
X0115957Y0154303D01*
X0116003Y0154286D01*
X0116050Y0154273D01*
X0116098Y0154264D01*
X0116146Y0154258D01*
X0116195Y0154256D01*
X0116973Y0154256D01*
X0116195Y0154256D02*
X0116139Y0154254D01*
X0116084Y0154248D01*
X0116030Y0154238D01*
X0115976Y0154224D01*
X0115923Y0154207D01*
X0115872Y0154186D01*
X0115822Y0154161D01*
X0115774Y0154132D01*
X0115729Y0154101D01*
X0115686Y0154066D01*
X0115645Y0154028D01*
X0115607Y0153987D01*
X0115572Y0153944D01*
X0115541Y0153899D01*
X0115512Y0153851D01*
X0115487Y0153801D01*
X0115466Y0153750D01*
X0115449Y0153697D01*
X0115435Y0153643D01*
X0115425Y0153589D01*
X0115419Y0153534D01*
X0115417Y0153478D01*
X0115419Y0153422D01*
X0115425Y0153367D01*
X0115435Y0153313D01*
X0115449Y0153259D01*
X0115466Y0153206D01*
X0115487Y0153155D01*
X0115512Y0153105D01*
X0115541Y0153057D01*
X0115572Y0153012D01*
X0115607Y0152969D01*
X0115645Y0152928D01*
X0115686Y0152890D01*
X0115729Y0152855D01*
X0115774Y0152824D01*
X0115822Y0152795D01*
X0115872Y0152770D01*
X0115923Y0152749D01*
X0115976Y0152732D01*
X0116030Y0152718D01*
X0116084Y0152708D01*
X0116139Y0152702D01*
X0116195Y0152700D01*
X0114163Y0152700D02*
X0114163Y0154567D01*
X0113229Y0154567D01*
X0113229Y0154256D01*
X0112128Y0154567D02*
X0111506Y0154567D01*
X0111465Y0154565D01*
X0111425Y0154560D01*
X0111385Y0154551D01*
X0111346Y0154539D01*
X0111309Y0154523D01*
X0111273Y0154504D01*
X0111238Y0154483D01*
X0111206Y0154458D01*
X0111176Y0154430D01*
X0111148Y0154400D01*
X0111123Y0154368D01*
X0111102Y0154334D01*
X0111083Y0154297D01*
X0111067Y0154260D01*
X0111055Y0154221D01*
X0111046Y0154181D01*
X0111041Y0154141D01*
X0111039Y0154100D01*
X0111039Y0152700D01*
X0111739Y0152700D01*
X0111784Y0152702D01*
X0111829Y0152707D01*
X0111873Y0152717D01*
X0111916Y0152729D01*
X0111958Y0152746D01*
X0111998Y0152766D01*
X0112037Y0152789D01*
X0112073Y0152815D01*
X0112107Y0152844D01*
X0112139Y0152876D01*
X0112168Y0152910D01*
X0112194Y0152946D01*
X0112217Y0152985D01*
X0112237Y0153025D01*
X0112254Y0153067D01*
X0112266Y0153110D01*
X0112276Y0153154D01*
X0112281Y0153199D01*
X0112283Y0153244D01*
X0112281Y0153289D01*
X0112276Y0153334D01*
X0112266Y0153378D01*
X0112254Y0153421D01*
X0112237Y0153463D01*
X0112217Y0153503D01*
X0112194Y0153542D01*
X0112168Y0153578D01*
X0112139Y0153612D01*
X0112107Y0153644D01*
X0112073Y0153673D01*
X0112037Y0153699D01*
X0111998Y0153722D01*
X0111958Y0153742D01*
X0111916Y0153759D01*
X0111873Y0153771D01*
X0111829Y0153781D01*
X0111784Y0153786D01*
X0111739Y0153788D01*
X0111739Y0153789D02*
X0111039Y0153789D01*
X0109540Y0152700D02*
X0108762Y0152700D01*
X0108706Y0152702D01*
X0108651Y0152708D01*
X0108597Y0152718D01*
X0108543Y0152732D01*
X0108490Y0152749D01*
X0108439Y0152770D01*
X0108389Y0152795D01*
X0108341Y0152824D01*
X0108296Y0152855D01*
X0108253Y0152890D01*
X0108212Y0152928D01*
X0108174Y0152969D01*
X0108139Y0153012D01*
X0108108Y0153057D01*
X0108079Y0153105D01*
X0108054Y0153155D01*
X0108033Y0153206D01*
X0108016Y0153259D01*
X0108002Y0153313D01*
X0107992Y0153367D01*
X0107986Y0153422D01*
X0107984Y0153478D01*
X0107984Y0154722D01*
X0107986Y0154778D01*
X0107992Y0154833D01*
X0108002Y0154887D01*
X0108016Y0154941D01*
X0108033Y0154994D01*
X0108054Y0155045D01*
X0108079Y0155095D01*
X0108108Y0155143D01*
X0108139Y0155188D01*
X0108174Y0155231D01*
X0108212Y0155272D01*
X0108253Y0155310D01*
X0108296Y0155345D01*
X0108341Y0155376D01*
X0108389Y0155405D01*
X0108439Y0155430D01*
X0108490Y0155451D01*
X0108543Y0155468D01*
X0108597Y0155482D01*
X0108651Y0155492D01*
X0108706Y0155498D01*
X0108762Y0155500D01*
X0109540Y0155500D01*
X0109540Y0152700D01*
X0109229Y0157500D02*
X0107984Y0157500D01*
X0109229Y0157500D02*
X0109229Y0160300D01*
X0110620Y0158744D02*
X0110620Y0158433D01*
X0111864Y0158433D01*
X0111864Y0158744D02*
X0111864Y0157967D01*
X0111865Y0157967D02*
X0111863Y0157926D01*
X0111858Y0157886D01*
X0111849Y0157846D01*
X0111837Y0157807D01*
X0111821Y0157770D01*
X0111802Y0157734D01*
X0111781Y0157699D01*
X0111756Y0157667D01*
X0111728Y0157637D01*
X0111698Y0157609D01*
X0111666Y0157584D01*
X0111632Y0157563D01*
X0111595Y0157544D01*
X0111558Y0157528D01*
X0111519Y0157516D01*
X0111479Y0157507D01*
X0111439Y0157502D01*
X0111398Y0157500D01*
X0110620Y0157500D01*
X0110620Y0158744D02*
X0110622Y0158793D01*
X0110628Y0158841D01*
X0110637Y0158889D01*
X0110650Y0158936D01*
X0110667Y0158982D01*
X0110688Y0159026D01*
X0110712Y0159069D01*
X0110739Y0159110D01*
X0110769Y0159148D01*
X0110802Y0159184D01*
X0110838Y0159217D01*
X0110876Y0159247D01*
X0110917Y0159274D01*
X0110960Y0159298D01*
X0111004Y0159319D01*
X0111050Y0159336D01*
X0111097Y0159349D01*
X0111145Y0159358D01*
X0111193Y0159364D01*
X0111242Y0159366D01*
X0111291Y0159364D01*
X0111339Y0159358D01*
X0111387Y0159349D01*
X0111434Y0159336D01*
X0111480Y0159319D01*
X0111524Y0159298D01*
X0111567Y0159274D01*
X0111608Y0159247D01*
X0111646Y0159217D01*
X0111682Y0159184D01*
X0111715Y0159148D01*
X0111745Y0159110D01*
X0111772Y0159069D01*
X0111796Y0159026D01*
X0111817Y0158982D01*
X0111834Y0158936D01*
X0111847Y0158889D01*
X0111856Y0158841D01*
X0111862Y0158793D01*
X0111864Y0158744D01*
X0113116Y0158744D02*
X0113116Y0158122D01*
X0113118Y0158073D01*
X0113124Y0158025D01*
X0113133Y0157977D01*
X0113146Y0157930D01*
X0113163Y0157884D01*
X0113184Y0157840D01*
X0113208Y0157797D01*
X0113235Y0157756D01*
X0113265Y0157718D01*
X0113298Y0157682D01*
X0113334Y0157649D01*
X0113372Y0157619D01*
X0113413Y0157592D01*
X0113456Y0157568D01*
X0113500Y0157547D01*
X0113546Y0157530D01*
X0113593Y0157517D01*
X0113641Y0157508D01*
X0113689Y0157502D01*
X0113738Y0157500D01*
X0113787Y0157502D01*
X0113835Y0157508D01*
X0113883Y0157517D01*
X0113930Y0157530D01*
X0113976Y0157547D01*
X0114020Y0157568D01*
X0114063Y0157592D01*
X0114104Y0157619D01*
X0114142Y0157649D01*
X0114178Y0157682D01*
X0114211Y0157718D01*
X0114241Y0157756D01*
X0114268Y0157797D01*
X0114292Y0157840D01*
X0114313Y0157884D01*
X0114330Y0157930D01*
X0114343Y0157977D01*
X0114352Y0158025D01*
X0114358Y0158073D01*
X0114360Y0158122D01*
X0114360Y0158744D01*
X0114358Y0158793D01*
X0114352Y0158841D01*
X0114343Y0158889D01*
X0114330Y0158936D01*
X0114313Y0158982D01*
X0114292Y0159026D01*
X0114268Y0159069D01*
X0114241Y0159110D01*
X0114211Y0159148D01*
X0114178Y0159184D01*
X0114142Y0159217D01*
X0114104Y0159247D01*
X0114063Y0159274D01*
X0114020Y0159298D01*
X0113976Y0159319D01*
X0113930Y0159336D01*
X0113883Y0159349D01*
X0113835Y0159358D01*
X0113787Y0159364D01*
X0113738Y0159366D01*
X0113689Y0159364D01*
X0113641Y0159358D01*
X0113593Y0159349D01*
X0113546Y0159336D01*
X0113500Y0159319D01*
X0113456Y0159298D01*
X0113413Y0159274D01*
X0113372Y0159247D01*
X0113334Y0159217D01*
X0113298Y0159184D01*
X0113265Y0159148D01*
X0113235Y0159110D01*
X0113208Y0159069D01*
X0113184Y0159026D01*
X0113163Y0158982D01*
X0113146Y0158936D01*
X0113133Y0158889D01*
X0113124Y0158841D01*
X0113118Y0158793D01*
X0113116Y0158744D01*
X0115744Y0159056D02*
X0117300Y0159056D01*
X0117300Y0160300D02*
X0117300Y0157500D01*
X0115744Y0157500D02*
X0115744Y0160300D01*
X0115568Y0162300D02*
X0116502Y0162300D01*
X0116551Y0162302D01*
X0116599Y0162308D01*
X0116647Y0162317D01*
X0116694Y0162330D01*
X0116740Y0162347D01*
X0116784Y0162368D01*
X0116827Y0162392D01*
X0116868Y0162419D01*
X0116906Y0162449D01*
X0116942Y0162482D01*
X0116975Y0162518D01*
X0117005Y0162556D01*
X0117032Y0162597D01*
X0117056Y0162640D01*
X0117077Y0162684D01*
X0117094Y0162730D01*
X0117107Y0162777D01*
X0117116Y0162825D01*
X0117122Y0162873D01*
X0117124Y0162922D01*
X0117124Y0164478D01*
X0117122Y0164527D01*
X0117116Y0164575D01*
X0117107Y0164623D01*
X0117094Y0164670D01*
X0117077Y0164716D01*
X0117056Y0164760D01*
X0117032Y0164803D01*
X0117005Y0164844D01*
X0116975Y0164882D01*
X0116942Y0164918D01*
X0116906Y0164951D01*
X0116868Y0164981D01*
X0116827Y0165008D01*
X0116784Y0165032D01*
X0116740Y0165053D01*
X0116694Y0165070D01*
X0116647Y0165083D01*
X0116599Y0165092D01*
X0116551Y0165098D01*
X0116502Y0165100D01*
X0115568Y0165100D01*
X0115568Y0163856D02*
X0115568Y0162300D01*
X0114067Y0162300D02*
X0114067Y0164167D01*
X0113134Y0164167D01*
X0113134Y0163856D01*
X0112072Y0164167D02*
X0112072Y0162767D01*
X0112073Y0162767D02*
X0112071Y0162726D01*
X0112066Y0162686D01*
X0112057Y0162646D01*
X0112045Y0162607D01*
X0112029Y0162570D01*
X0112010Y0162534D01*
X0111989Y0162499D01*
X0111964Y0162467D01*
X0111936Y0162437D01*
X0111906Y0162409D01*
X0111874Y0162384D01*
X0111840Y0162363D01*
X0111803Y0162344D01*
X0111766Y0162328D01*
X0111727Y0162316D01*
X0111687Y0162307D01*
X0111647Y0162302D01*
X0111606Y0162300D01*
X0110828Y0162300D01*
X0110828Y0164167D01*
X0109151Y0163933D02*
X0108295Y0163467D01*
X0108607Y0162300D02*
X0108676Y0162302D01*
X0108745Y0162307D01*
X0108814Y0162316D01*
X0108882Y0162329D01*
X0108949Y0162345D01*
X0109015Y0162365D01*
X0109080Y0162388D01*
X0109144Y0162415D01*
X0109206Y0162445D01*
X0109267Y0162478D01*
X0109326Y0162514D01*
X0109383Y0162554D01*
X0109438Y0162596D01*
X0109490Y0162641D01*
X0109540Y0162689D01*
X0108295Y0163466D02*
X0108256Y0163441D01*
X0108218Y0163413D01*
X0108183Y0163382D01*
X0108150Y0163349D01*
X0108120Y0163313D01*
X0108092Y0163275D01*
X0108067Y0163236D01*
X0108046Y0163194D01*
X0108027Y0163151D01*
X0108012Y0163107D01*
X0108000Y0163061D01*
X0107991Y0163015D01*
X0107986Y0162969D01*
X0107984Y0162922D01*
X0107985Y0162922D02*
X0107987Y0162873D01*
X0107993Y0162825D01*
X0108002Y0162777D01*
X0108015Y0162730D01*
X0108032Y0162684D01*
X0108053Y0162640D01*
X0108077Y0162597D01*
X0108104Y0162556D01*
X0108134Y0162518D01*
X0108167Y0162482D01*
X0108203Y0162449D01*
X0108241Y0162419D01*
X0108282Y0162392D01*
X0108325Y0162368D01*
X0108369Y0162347D01*
X0108415Y0162330D01*
X0108462Y0162317D01*
X0108510Y0162308D01*
X0108558Y0162302D01*
X0108607Y0162300D01*
X0108140Y0164867D02*
X0108191Y0164903D01*
X0108244Y0164936D01*
X0108298Y0164967D01*
X0108355Y0164994D01*
X0108412Y0165019D01*
X0108471Y0165040D01*
X0108531Y0165058D01*
X0108592Y0165073D01*
X0108653Y0165085D01*
X0108715Y0165093D01*
X0108777Y0165098D01*
X0108840Y0165100D01*
X0108889Y0165098D01*
X0108937Y0165092D01*
X0108985Y0165083D01*
X0109032Y0165070D01*
X0109078Y0165053D01*
X0109122Y0165032D01*
X0109165Y0165008D01*
X0109206Y0164981D01*
X0109244Y0164951D01*
X0109280Y0164918D01*
X0109313Y0164882D01*
X0109343Y0164844D01*
X0109370Y0164803D01*
X0109394Y0164760D01*
X0109415Y0164716D01*
X0109432Y0164670D01*
X0109445Y0164623D01*
X0109454Y0164575D01*
X0109460Y0164527D01*
X0109462Y0164478D01*
X0109460Y0164431D01*
X0109455Y0164385D01*
X0109446Y0164339D01*
X0109434Y0164293D01*
X0109419Y0164249D01*
X0109400Y0164206D01*
X0109379Y0164164D01*
X0109354Y0164125D01*
X0109326Y0164087D01*
X0109296Y0164051D01*
X0109263Y0164018D01*
X0109228Y0163987D01*
X0109190Y0163959D01*
X0109151Y0163934D01*
X0109709Y0169700D02*
X0110331Y0170944D01*
X0110487Y0170944D02*
X0111265Y0170944D01*
X0110487Y0170944D02*
X0110431Y0170946D01*
X0110376Y0170952D01*
X0110322Y0170962D01*
X0110268Y0170976D01*
X0110215Y0170993D01*
X0110164Y0171014D01*
X0110114Y0171039D01*
X0110066Y0171068D01*
X0110021Y0171099D01*
X0109978Y0171134D01*
X0109937Y0171172D01*
X0109899Y0171213D01*
X0109864Y0171256D01*
X0109833Y0171301D01*
X0109804Y0171349D01*
X0109779Y0171399D01*
X0109758Y0171450D01*
X0109741Y0171503D01*
X0109727Y0171557D01*
X0109717Y0171611D01*
X0109711Y0171666D01*
X0109709Y0171722D01*
X0109711Y0171778D01*
X0109717Y0171833D01*
X0109727Y0171887D01*
X0109741Y0171941D01*
X0109758Y0171994D01*
X0109779Y0172045D01*
X0109804Y0172095D01*
X0109833Y0172143D01*
X0109864Y0172188D01*
X0109899Y0172231D01*
X0109937Y0172272D01*
X0109978Y0172310D01*
X0110021Y0172345D01*
X0110066Y0172376D01*
X0110114Y0172405D01*
X0110164Y0172430D01*
X0110215Y0172451D01*
X0110268Y0172468D01*
X0110322Y0172482D01*
X0110376Y0172492D01*
X0110431Y0172498D01*
X0110487Y0172500D01*
X0111265Y0172500D01*
X0111265Y0169700D01*
X0112709Y0169700D02*
X0114264Y0169700D01*
X0113487Y0169700D02*
X0113487Y0172500D01*
X0114264Y0171878D01*
X0115433Y0172500D02*
X0116367Y0169700D01*
X0117300Y0172500D01*
X0116678Y0174500D02*
X0115744Y0174500D01*
X0115744Y0176056D01*
X0116211Y0176056D01*
X0117300Y0176678D02*
X0117298Y0176727D01*
X0117292Y0176775D01*
X0117283Y0176823D01*
X0117270Y0176870D01*
X0117253Y0176916D01*
X0117232Y0176960D01*
X0117208Y0177003D01*
X0117181Y0177044D01*
X0117151Y0177082D01*
X0117118Y0177118D01*
X0117082Y0177151D01*
X0117044Y0177181D01*
X0117003Y0177208D01*
X0116960Y0177232D01*
X0116916Y0177253D01*
X0116870Y0177270D01*
X0116823Y0177283D01*
X0116775Y0177292D01*
X0116727Y0177298D01*
X0116678Y0177300D01*
X0115744Y0177300D01*
X0114488Y0177300D02*
X0114332Y0177300D01*
X0114332Y0177144D01*
X0114488Y0177144D01*
X0114488Y0177300D01*
X0114410Y0176367D02*
X0114410Y0174500D01*
X0113156Y0174967D02*
X0113156Y0177300D01*
X0113467Y0176367D02*
X0112533Y0176367D01*
X0111359Y0176678D02*
X0111359Y0175122D01*
X0111357Y0175073D01*
X0111351Y0175025D01*
X0111342Y0174977D01*
X0111329Y0174930D01*
X0111312Y0174884D01*
X0111291Y0174840D01*
X0111267Y0174797D01*
X0111240Y0174756D01*
X0111210Y0174718D01*
X0111177Y0174682D01*
X0111141Y0174649D01*
X0111103Y0174619D01*
X0111062Y0174592D01*
X0111019Y0174568D01*
X0110975Y0174547D01*
X0110929Y0174530D01*
X0110882Y0174517D01*
X0110834Y0174508D01*
X0110786Y0174502D01*
X0110737Y0174500D01*
X0110114Y0174500D01*
X0108985Y0175122D02*
X0108985Y0175744D01*
X0108984Y0175744D02*
X0108982Y0175793D01*
X0108976Y0175841D01*
X0108967Y0175889D01*
X0108954Y0175936D01*
X0108937Y0175982D01*
X0108916Y0176026D01*
X0108892Y0176069D01*
X0108865Y0176110D01*
X0108835Y0176148D01*
X0108802Y0176184D01*
X0108766Y0176217D01*
X0108728Y0176247D01*
X0108687Y0176274D01*
X0108644Y0176298D01*
X0108600Y0176319D01*
X0108554Y0176336D01*
X0108507Y0176349D01*
X0108459Y0176358D01*
X0108411Y0176364D01*
X0108362Y0176366D01*
X0108313Y0176364D01*
X0108265Y0176358D01*
X0108217Y0176349D01*
X0108170Y0176336D01*
X0108124Y0176319D01*
X0108080Y0176298D01*
X0108037Y0176274D01*
X0107996Y0176247D01*
X0107958Y0176217D01*
X0107922Y0176184D01*
X0107889Y0176148D01*
X0107859Y0176110D01*
X0107832Y0176069D01*
X0107808Y0176026D01*
X0107787Y0175982D01*
X0107770Y0175936D01*
X0107757Y0175889D01*
X0107748Y0175841D01*
X0107742Y0175793D01*
X0107740Y0175744D01*
X0107740Y0175122D01*
X0107742Y0175073D01*
X0107748Y0175025D01*
X0107757Y0174977D01*
X0107770Y0174930D01*
X0107787Y0174884D01*
X0107808Y0174840D01*
X0107832Y0174797D01*
X0107859Y0174756D01*
X0107889Y0174718D01*
X0107922Y0174682D01*
X0107958Y0174649D01*
X0107996Y0174619D01*
X0108037Y0174592D01*
X0108080Y0174568D01*
X0108124Y0174547D01*
X0108170Y0174530D01*
X0108217Y0174517D01*
X0108265Y0174508D01*
X0108313Y0174502D01*
X0108362Y0174500D01*
X0108411Y0174502D01*
X0108459Y0174508D01*
X0108507Y0174517D01*
X0108554Y0174530D01*
X0108600Y0174547D01*
X0108644Y0174568D01*
X0108687Y0174592D01*
X0108728Y0174619D01*
X0108766Y0174649D01*
X0108802Y0174682D01*
X0108835Y0174718D01*
X0108865Y0174756D01*
X0108892Y0174797D01*
X0108916Y0174840D01*
X0108937Y0174884D01*
X0108954Y0174930D01*
X0108967Y0174977D01*
X0108976Y0175025D01*
X0108982Y0175073D01*
X0108984Y0175122D01*
X0110737Y0177300D02*
X0110786Y0177298D01*
X0110834Y0177292D01*
X0110882Y0177283D01*
X0110929Y0177270D01*
X0110975Y0177253D01*
X0111019Y0177232D01*
X0111062Y0177208D01*
X0111103Y0177181D01*
X0111141Y0177151D01*
X0111177Y0177118D01*
X0111210Y0177082D01*
X0111240Y0177044D01*
X0111267Y0177003D01*
X0111291Y0176960D01*
X0111312Y0176916D01*
X0111329Y0176870D01*
X0111342Y0176823D01*
X0111351Y0176775D01*
X0111357Y0176727D01*
X0111359Y0176678D01*
X0110737Y0177300D02*
X0110114Y0177300D01*
X0112689Y0174500D02*
X0112730Y0174502D01*
X0112770Y0174507D01*
X0112810Y0174516D01*
X0112849Y0174528D01*
X0112886Y0174544D01*
X0112923Y0174563D01*
X0112957Y0174584D01*
X0112989Y0174609D01*
X0113019Y0174637D01*
X0113047Y0174667D01*
X0113072Y0174699D01*
X0113093Y0174734D01*
X0113112Y0174770D01*
X0113128Y0174807D01*
X0113140Y0174846D01*
X0113149Y0174886D01*
X0113154Y0174926D01*
X0113156Y0174967D01*
X0112689Y0174500D02*
X0112533Y0174500D01*
X0106853Y0171100D02*
X0106855Y0171005D01*
X0106861Y0170910D01*
X0106871Y0170815D01*
X0106884Y0170721D01*
X0106902Y0170628D01*
X0106923Y0170535D01*
X0106948Y0170443D01*
X0106977Y0170353D01*
X0107010Y0170263D01*
X0107046Y0170175D01*
X0107086Y0170089D01*
X0107631Y0169700D02*
X0107676Y0169702D01*
X0107720Y0169707D01*
X0107764Y0169716D01*
X0107807Y0169727D01*
X0107849Y0169743D01*
X0107889Y0169761D01*
X0107928Y0169783D01*
X0107966Y0169807D01*
X0108001Y0169835D01*
X0108034Y0169865D01*
X0108065Y0169897D01*
X0108093Y0169932D01*
X0108118Y0169969D01*
X0108140Y0170007D01*
X0108160Y0170048D01*
X0108176Y0170089D01*
X0108253Y0170322D02*
X0107008Y0171878D01*
X0107086Y0172111D02*
X0107102Y0172152D01*
X0107122Y0172193D01*
X0107144Y0172231D01*
X0107169Y0172268D01*
X0107197Y0172303D01*
X0107228Y0172335D01*
X0107261Y0172365D01*
X0107296Y0172393D01*
X0107334Y0172417D01*
X0107373Y0172439D01*
X0107413Y0172457D01*
X0107455Y0172473D01*
X0107498Y0172484D01*
X0107542Y0172493D01*
X0107586Y0172498D01*
X0107631Y0172500D01*
X0107676Y0172498D01*
X0107720Y0172493D01*
X0107764Y0172484D01*
X0107807Y0172473D01*
X0107849Y0172457D01*
X0107889Y0172439D01*
X0107928Y0172417D01*
X0107966Y0172393D01*
X0108001Y0172365D01*
X0108034Y0172335D01*
X0108065Y0172303D01*
X0108093Y0172268D01*
X0108118Y0172231D01*
X0108140Y0172193D01*
X0108160Y0172152D01*
X0108176Y0172111D01*
X0107086Y0172111D02*
X0107046Y0172025D01*
X0107010Y0171937D01*
X0106977Y0171847D01*
X0106948Y0171757D01*
X0106923Y0171665D01*
X0106902Y0171572D01*
X0106884Y0171479D01*
X0106871Y0171385D01*
X0106861Y0171290D01*
X0106855Y0171195D01*
X0106853Y0171100D01*
X0108408Y0171100D02*
X0108406Y0171195D01*
X0108400Y0171290D01*
X0108390Y0171385D01*
X0108377Y0171479D01*
X0108359Y0171572D01*
X0108338Y0171665D01*
X0108313Y0171757D01*
X0108284Y0171847D01*
X0108251Y0171937D01*
X0108215Y0172025D01*
X0108175Y0172111D01*
X0107086Y0170089D02*
X0107102Y0170048D01*
X0107122Y0170007D01*
X0107144Y0169969D01*
X0107169Y0169932D01*
X0107197Y0169897D01*
X0107228Y0169865D01*
X0107261Y0169835D01*
X0107296Y0169807D01*
X0107334Y0169783D01*
X0107373Y0169761D01*
X0107413Y0169743D01*
X0107455Y0169727D01*
X0107498Y0169716D01*
X0107542Y0169707D01*
X0107586Y0169702D01*
X0107631Y0169700D01*
X0108175Y0170089D02*
X0108215Y0170175D01*
X0108251Y0170263D01*
X0108284Y0170353D01*
X0108313Y0170443D01*
X0108338Y0170535D01*
X0108359Y0170628D01*
X0108377Y0170721D01*
X0108390Y0170815D01*
X0108400Y0170910D01*
X0108406Y0171005D01*
X0108408Y0171100D01*
X0106393Y0174500D02*
X0106393Y0176367D01*
X0105615Y0176367D01*
X0105572Y0176365D01*
X0105529Y0176359D01*
X0105487Y0176349D01*
X0105446Y0176335D01*
X0105407Y0176318D01*
X0105369Y0176297D01*
X0105334Y0176273D01*
X0105300Y0176245D01*
X0105270Y0176215D01*
X0105242Y0176181D01*
X0105218Y0176146D01*
X0105197Y0176108D01*
X0105180Y0176069D01*
X0105166Y0176028D01*
X0105156Y0175986D01*
X0105150Y0175943D01*
X0105148Y0175900D01*
X0105148Y0174500D01*
X0115568Y0163856D02*
X0116035Y0163856D01*
X0116678Y0174500D02*
X0116727Y0174502D01*
X0116775Y0174508D01*
X0116823Y0174517D01*
X0116870Y0174530D01*
X0116916Y0174547D01*
X0116960Y0174568D01*
X0117003Y0174592D01*
X0117044Y0174619D01*
X0117082Y0174649D01*
X0117118Y0174682D01*
X0117151Y0174718D01*
X0117181Y0174756D01*
X0117208Y0174797D01*
X0117232Y0174840D01*
X0117253Y0174884D01*
X0117270Y0174930D01*
X0117283Y0174977D01*
X0117292Y0175025D01*
X0117298Y0175073D01*
X0117300Y0175122D01*
X0117300Y0176678D01*
D11*
X0104665Y0190071D02*
X0104665Y0196094D01*
X0075335Y0196094D02*
X0075335Y0190071D01*
D12*
X0074744Y0205961D02*
X0074744Y0210126D01*
X0105256Y0210126D02*
X0105256Y0205961D01*
D13*
X0104964Y0197004D02*
X0105547Y0196880D01*
X0106093Y0196637D01*
X0106575Y0196287D01*
X0106975Y0195843D01*
X0107273Y0195326D01*
X0107457Y0194759D01*
X0107520Y0194165D01*
X0107520Y0192000D01*
X0107457Y0191407D01*
X0107273Y0190839D01*
X0106975Y0190322D01*
X0106575Y0189879D01*
X0106093Y0189528D01*
X0105547Y0189285D01*
X0104964Y0189161D01*
X0104367Y0189161D01*
X0103783Y0189285D01*
X0103238Y0189528D01*
X0102755Y0189879D01*
X0102356Y0190322D01*
X0102058Y0190839D01*
X0101873Y0191407D01*
X0101811Y0192000D01*
X0101811Y0194165D01*
X0101873Y0194759D01*
X0102058Y0195326D01*
X0102356Y0195843D01*
X0102755Y0196287D01*
X0103238Y0196637D01*
X0103783Y0196880D01*
X0104367Y0197004D01*
X0104964Y0197004D01*
X0105498Y0196890D02*
X0103833Y0196890D01*
X0103047Y0196498D02*
X0106284Y0196498D01*
X0106738Y0196106D02*
X0102593Y0196106D01*
X0102282Y0195714D02*
X0107049Y0195714D01*
X0107274Y0195322D02*
X0102056Y0195322D01*
X0101929Y0194929D02*
X0107402Y0194929D01*
X0107481Y0194537D02*
X0101850Y0194537D01*
X0101811Y0194145D02*
X0107520Y0194145D01*
X0107520Y0193753D02*
X0101811Y0193753D01*
X0101811Y0193361D02*
X0107520Y0193361D01*
X0107520Y0192968D02*
X0101811Y0192968D01*
X0101811Y0192576D02*
X0107520Y0192576D01*
X0107520Y0192184D02*
X0101811Y0192184D01*
X0101833Y0191792D02*
X0107498Y0191792D01*
X0107455Y0191400D02*
X0101876Y0191400D01*
X0102003Y0191007D02*
X0107328Y0191007D01*
X0107144Y0190615D02*
X0102187Y0190615D01*
X0102446Y0190223D02*
X0106885Y0190223D01*
X0106509Y0189831D02*
X0102822Y0189831D01*
X0103440Y0189438D02*
X0105891Y0189438D01*
X0078189Y0192000D02*
X0078189Y0194165D01*
X0078127Y0194759D01*
X0077942Y0195326D01*
X0077644Y0195843D01*
X0077245Y0196287D01*
X0076762Y0196637D01*
X0076217Y0196880D01*
X0075633Y0197004D01*
X0075036Y0197004D01*
X0074453Y0196880D01*
X0073907Y0196637D01*
X0073425Y0196287D01*
X0073025Y0195843D01*
X0072727Y0195326D01*
X0072543Y0194759D01*
X0072480Y0194165D01*
X0072480Y0192000D01*
X0072543Y0191407D01*
X0072727Y0190839D01*
X0073025Y0190322D01*
X0073425Y0189879D01*
X0073907Y0189528D01*
X0074453Y0189285D01*
X0075036Y0189161D01*
X0075633Y0189161D01*
X0076217Y0189285D01*
X0076762Y0189528D01*
X0077245Y0189879D01*
X0077644Y0190322D01*
X0077942Y0190839D01*
X0078127Y0191407D01*
X0078189Y0192000D01*
X0078189Y0192184D02*
X0072480Y0192184D01*
X0072480Y0192576D02*
X0078189Y0192576D01*
X0078189Y0192968D02*
X0072480Y0192968D01*
X0072480Y0193361D02*
X0078189Y0193361D01*
X0078189Y0193753D02*
X0072480Y0193753D01*
X0072480Y0194145D02*
X0078189Y0194145D01*
X0078150Y0194537D02*
X0072519Y0194537D01*
X0072598Y0194929D02*
X0078071Y0194929D01*
X0077944Y0195322D02*
X0072726Y0195322D01*
X0072951Y0195714D02*
X0077718Y0195714D01*
X0077407Y0196106D02*
X0073262Y0196106D01*
X0073716Y0196498D02*
X0076953Y0196498D01*
X0076167Y0196890D02*
X0074502Y0196890D01*
X0072502Y0191792D02*
X0078167Y0191792D01*
X0078124Y0191400D02*
X0072545Y0191400D01*
X0072672Y0191007D02*
X0077997Y0191007D01*
X0077813Y0190615D02*
X0072856Y0190615D01*
X0073115Y0190223D02*
X0077554Y0190223D01*
X0077178Y0189831D02*
X0073491Y0189831D01*
X0074109Y0189438D02*
X0076560Y0189438D01*
D14*
X0074981Y0204512D02*
X0074507Y0204512D01*
X0074045Y0204611D01*
X0073612Y0204803D01*
X0073229Y0205081D01*
X0072913Y0205433D01*
X0072676Y0205843D01*
X0072530Y0206293D01*
X0072480Y0206764D01*
X0072480Y0209323D01*
X0072530Y0209794D01*
X0072676Y0210244D01*
X0072913Y0210653D01*
X0073229Y0211005D01*
X0073612Y0211283D01*
X0074045Y0211476D01*
X0074507Y0211574D01*
X0074981Y0211574D01*
X0075444Y0211476D01*
X0075876Y0211283D01*
X0076259Y0211005D01*
X0076576Y0210653D01*
X0076812Y0210244D01*
X0076958Y0209794D01*
X0077008Y0209323D01*
X0077008Y0206764D01*
X0076958Y0206293D01*
X0076812Y0205843D01*
X0076576Y0205433D01*
X0076259Y0205081D01*
X0075876Y0204803D01*
X0075444Y0204611D01*
X0074981Y0204512D01*
X0075024Y0204522D02*
X0074464Y0204522D01*
X0074286Y0204560D02*
X0075203Y0204560D01*
X0075381Y0204597D02*
X0074107Y0204597D01*
X0073990Y0204635D02*
X0075499Y0204635D01*
X0075584Y0204673D02*
X0073904Y0204673D01*
X0073819Y0204711D02*
X0075669Y0204711D01*
X0075754Y0204749D02*
X0073734Y0204749D01*
X0073649Y0204787D02*
X0075839Y0204787D01*
X0075905Y0204825D02*
X0073583Y0204825D01*
X0073531Y0204863D02*
X0075958Y0204863D01*
X0076010Y0204900D02*
X0073478Y0204900D01*
X0073426Y0204938D02*
X0076062Y0204938D01*
X0076114Y0204976D02*
X0073374Y0204976D01*
X0073322Y0205014D02*
X0076166Y0205014D01*
X0076218Y0205052D02*
X0073270Y0205052D01*
X0073222Y0205090D02*
X0076266Y0205090D01*
X0076301Y0205128D02*
X0073188Y0205128D01*
X0073154Y0205166D02*
X0076335Y0205166D01*
X0076369Y0205204D02*
X0073119Y0205204D01*
X0073085Y0205241D02*
X0076403Y0205241D01*
X0076437Y0205279D02*
X0073051Y0205279D01*
X0073017Y0205317D02*
X0076471Y0205317D01*
X0076505Y0205355D02*
X0072983Y0205355D01*
X0072949Y0205393D02*
X0076539Y0205393D01*
X0076573Y0205431D02*
X0072915Y0205431D01*
X0072892Y0205469D02*
X0076596Y0205469D01*
X0076618Y0205507D02*
X0072870Y0205507D01*
X0072848Y0205544D02*
X0076640Y0205544D01*
X0076662Y0205582D02*
X0072827Y0205582D01*
X0072805Y0205620D02*
X0076684Y0205620D01*
X0076705Y0205658D02*
X0072783Y0205658D01*
X0072761Y0205696D02*
X0076727Y0205696D01*
X0076749Y0205734D02*
X0072739Y0205734D01*
X0072717Y0205772D02*
X0076771Y0205772D01*
X0076793Y0205810D02*
X0072695Y0205810D01*
X0072675Y0205848D02*
X0076814Y0205848D01*
X0076826Y0205885D02*
X0072662Y0205885D01*
X0072650Y0205923D02*
X0076838Y0205923D01*
X0076851Y0205961D02*
X0072638Y0205961D01*
X0072625Y0205999D02*
X0076863Y0205999D01*
X0076875Y0206037D02*
X0072613Y0206037D01*
X0072601Y0206075D02*
X0076887Y0206075D01*
X0076900Y0206113D02*
X0072588Y0206113D01*
X0072576Y0206151D02*
X0076912Y0206151D01*
X0076924Y0206188D02*
X0072564Y0206188D01*
X0072551Y0206226D02*
X0076937Y0206226D01*
X0076949Y0206264D02*
X0072539Y0206264D01*
X0072529Y0206302D02*
X0076959Y0206302D01*
X0076963Y0206340D02*
X0072525Y0206340D01*
X0072521Y0206378D02*
X0076967Y0206378D01*
X0076971Y0206416D02*
X0072517Y0206416D01*
X0072513Y0206454D02*
X0076975Y0206454D01*
X0076979Y0206491D02*
X0072509Y0206491D01*
X0072505Y0206529D02*
X0076983Y0206529D01*
X0076987Y0206567D02*
X0072501Y0206567D01*
X0072497Y0206605D02*
X0076991Y0206605D01*
X0076995Y0206643D02*
X0072493Y0206643D01*
X0072489Y0206681D02*
X0076999Y0206681D01*
X0077003Y0206719D02*
X0072485Y0206719D01*
X0072481Y0206757D02*
X0077007Y0206757D01*
X0077008Y0206795D02*
X0072480Y0206795D01*
X0072480Y0206832D02*
X0077008Y0206832D01*
X0077008Y0206870D02*
X0072480Y0206870D01*
X0072480Y0206908D02*
X0077008Y0206908D01*
X0077008Y0206946D02*
X0072480Y0206946D01*
X0072480Y0206984D02*
X0077008Y0206984D01*
X0077008Y0207022D02*
X0072480Y0207022D01*
X0072480Y0207060D02*
X0077008Y0207060D01*
X0077008Y0207098D02*
X0072480Y0207098D01*
X0072480Y0207135D02*
X0077008Y0207135D01*
X0077008Y0207173D02*
X0072480Y0207173D01*
X0072480Y0207211D02*
X0077008Y0207211D01*
X0077008Y0207249D02*
X0072480Y0207249D01*
X0072480Y0207287D02*
X0077008Y0207287D01*
X0077008Y0207325D02*
X0072480Y0207325D01*
X0072480Y0207363D02*
X0077008Y0207363D01*
X0077008Y0207401D02*
X0072480Y0207401D01*
X0072480Y0207439D02*
X0077008Y0207439D01*
X0077008Y0207476D02*
X0072480Y0207476D01*
X0072480Y0207514D02*
X0077008Y0207514D01*
X0077008Y0207552D02*
X0072480Y0207552D01*
X0072480Y0207590D02*
X0077008Y0207590D01*
X0077008Y0207628D02*
X0072480Y0207628D01*
X0072480Y0207666D02*
X0077008Y0207666D01*
X0077008Y0207704D02*
X0072480Y0207704D01*
X0072480Y0207742D02*
X0077008Y0207742D01*
X0077008Y0207779D02*
X0072480Y0207779D01*
X0072480Y0207817D02*
X0077008Y0207817D01*
X0077008Y0207855D02*
X0072480Y0207855D01*
X0072480Y0207893D02*
X0077008Y0207893D01*
X0077008Y0207931D02*
X0072480Y0207931D01*
X0072480Y0207969D02*
X0077008Y0207969D01*
X0077008Y0208007D02*
X0072480Y0208007D01*
X0072480Y0208045D02*
X0077008Y0208045D01*
X0077008Y0208083D02*
X0072480Y0208083D01*
X0072480Y0208120D02*
X0077008Y0208120D01*
X0077008Y0208158D02*
X0072480Y0208158D01*
X0072480Y0208196D02*
X0077008Y0208196D01*
X0077008Y0208234D02*
X0072480Y0208234D01*
X0072480Y0208272D02*
X0077008Y0208272D01*
X0077008Y0208310D02*
X0072480Y0208310D01*
X0072480Y0208348D02*
X0077008Y0208348D01*
X0077008Y0208386D02*
X0072480Y0208386D01*
X0072480Y0208423D02*
X0077008Y0208423D01*
X0077008Y0208461D02*
X0072480Y0208461D01*
X0072480Y0208499D02*
X0077008Y0208499D01*
X0077008Y0208537D02*
X0072480Y0208537D01*
X0072480Y0208575D02*
X0077008Y0208575D01*
X0077008Y0208613D02*
X0072480Y0208613D01*
X0072480Y0208651D02*
X0077008Y0208651D01*
X0077008Y0208689D02*
X0072480Y0208689D01*
X0072480Y0208727D02*
X0077008Y0208727D01*
X0077008Y0208764D02*
X0072480Y0208764D01*
X0072480Y0208802D02*
X0077008Y0208802D01*
X0077008Y0208840D02*
X0072480Y0208840D01*
X0072480Y0208878D02*
X0077008Y0208878D01*
X0077008Y0208916D02*
X0072480Y0208916D01*
X0072480Y0208954D02*
X0077008Y0208954D01*
X0077008Y0208992D02*
X0072480Y0208992D01*
X0072480Y0209030D02*
X0077008Y0209030D01*
X0077008Y0209067D02*
X0072480Y0209067D01*
X0072480Y0209105D02*
X0077008Y0209105D01*
X0077008Y0209143D02*
X0072480Y0209143D01*
X0072480Y0209181D02*
X0077008Y0209181D01*
X0077008Y0209219D02*
X0072480Y0209219D01*
X0072480Y0209257D02*
X0077008Y0209257D01*
X0077008Y0209295D02*
X0072480Y0209295D01*
X0072481Y0209333D02*
X0077007Y0209333D01*
X0077003Y0209370D02*
X0072485Y0209370D01*
X0072489Y0209408D02*
X0076999Y0209408D01*
X0076995Y0209446D02*
X0072493Y0209446D01*
X0072497Y0209484D02*
X0076991Y0209484D01*
X0076987Y0209522D02*
X0072501Y0209522D01*
X0072505Y0209560D02*
X0076983Y0209560D01*
X0076979Y0209598D02*
X0072509Y0209598D01*
X0072513Y0209636D02*
X0076975Y0209636D01*
X0076971Y0209674D02*
X0072517Y0209674D01*
X0072521Y0209711D02*
X0076967Y0209711D01*
X0076963Y0209749D02*
X0072525Y0209749D01*
X0072529Y0209787D02*
X0076959Y0209787D01*
X0076948Y0209825D02*
X0072540Y0209825D01*
X0072552Y0209863D02*
X0076936Y0209863D01*
X0076924Y0209901D02*
X0072565Y0209901D01*
X0072577Y0209939D02*
X0076911Y0209939D01*
X0076899Y0209977D02*
X0072589Y0209977D01*
X0072602Y0210014D02*
X0076887Y0210014D01*
X0076874Y0210052D02*
X0072614Y0210052D01*
X0072626Y0210090D02*
X0076862Y0210090D01*
X0076850Y0210128D02*
X0072638Y0210128D01*
X0072651Y0210166D02*
X0076837Y0210166D01*
X0076825Y0210204D02*
X0072663Y0210204D01*
X0072675Y0210242D02*
X0076813Y0210242D01*
X0076791Y0210280D02*
X0072697Y0210280D01*
X0072719Y0210318D02*
X0076769Y0210318D01*
X0076748Y0210355D02*
X0072741Y0210355D01*
X0072762Y0210393D02*
X0076726Y0210393D01*
X0076704Y0210431D02*
X0072784Y0210431D01*
X0072806Y0210469D02*
X0076682Y0210469D01*
X0076660Y0210507D02*
X0072828Y0210507D01*
X0072850Y0210545D02*
X0076638Y0210545D01*
X0076616Y0210583D02*
X0072872Y0210583D01*
X0072894Y0210621D02*
X0076595Y0210621D01*
X0076571Y0210658D02*
X0072917Y0210658D01*
X0072951Y0210696D02*
X0076537Y0210696D01*
X0076503Y0210734D02*
X0072985Y0210734D01*
X0073019Y0210772D02*
X0076469Y0210772D01*
X0076435Y0210810D02*
X0073054Y0210810D01*
X0073088Y0210848D02*
X0076400Y0210848D01*
X0076366Y0210886D02*
X0073122Y0210886D01*
X0073156Y0210924D02*
X0076332Y0210924D01*
X0076298Y0210962D02*
X0073190Y0210962D01*
X0073224Y0210999D02*
X0076264Y0210999D01*
X0076215Y0211037D02*
X0073274Y0211037D01*
X0073326Y0211075D02*
X0076163Y0211075D01*
X0076110Y0211113D02*
X0073378Y0211113D01*
X0073430Y0211151D02*
X0076058Y0211151D01*
X0076006Y0211189D02*
X0073482Y0211189D01*
X0073534Y0211227D02*
X0075954Y0211227D01*
X0075902Y0211265D02*
X0073586Y0211265D01*
X0073655Y0211302D02*
X0075833Y0211302D01*
X0075748Y0211340D02*
X0073740Y0211340D01*
X0073825Y0211378D02*
X0075663Y0211378D01*
X0075578Y0211416D02*
X0073910Y0211416D01*
X0073995Y0211454D02*
X0075493Y0211454D01*
X0075368Y0211492D02*
X0074120Y0211492D01*
X0074298Y0211530D02*
X0075190Y0211530D01*
X0075012Y0211568D02*
X0074476Y0211568D01*
X0102992Y0209323D02*
X0102992Y0206764D01*
X0103042Y0206293D01*
X0103188Y0205843D01*
X0103424Y0205433D01*
X0103741Y0205081D01*
X0104124Y0204803D01*
X0104556Y0204611D01*
X0105019Y0204512D01*
X0105493Y0204512D01*
X0105955Y0204611D01*
X0106388Y0204803D01*
X0106771Y0205081D01*
X0107087Y0205433D01*
X0107324Y0205843D01*
X0107470Y0206293D01*
X0107520Y0206764D01*
X0107520Y0209323D01*
X0107470Y0209794D01*
X0107324Y0210244D01*
X0107087Y0210653D01*
X0106771Y0211005D01*
X0106388Y0211283D01*
X0105955Y0211476D01*
X0105493Y0211574D01*
X0105019Y0211574D01*
X0104556Y0211476D01*
X0104124Y0211283D01*
X0103741Y0211005D01*
X0103424Y0210653D01*
X0103188Y0210244D01*
X0103042Y0209794D01*
X0102992Y0209323D01*
X0102993Y0209333D02*
X0107519Y0209333D01*
X0107515Y0209370D02*
X0102997Y0209370D01*
X0103001Y0209408D02*
X0107511Y0209408D01*
X0107507Y0209446D02*
X0103005Y0209446D01*
X0103009Y0209484D02*
X0107503Y0209484D01*
X0107499Y0209522D02*
X0103013Y0209522D01*
X0103017Y0209560D02*
X0107495Y0209560D01*
X0107491Y0209598D02*
X0103021Y0209598D01*
X0103025Y0209636D02*
X0107487Y0209636D01*
X0107483Y0209674D02*
X0103029Y0209674D01*
X0103033Y0209711D02*
X0107479Y0209711D01*
X0107475Y0209749D02*
X0103037Y0209749D01*
X0103041Y0209787D02*
X0107471Y0209787D01*
X0107460Y0209825D02*
X0103052Y0209825D01*
X0103064Y0209863D02*
X0107448Y0209863D01*
X0107435Y0209901D02*
X0103076Y0209901D01*
X0103089Y0209939D02*
X0107423Y0209939D01*
X0107411Y0209977D02*
X0103101Y0209977D01*
X0103113Y0210014D02*
X0107398Y0210014D01*
X0107386Y0210052D02*
X0103126Y0210052D01*
X0103138Y0210090D02*
X0107374Y0210090D01*
X0107361Y0210128D02*
X0103150Y0210128D01*
X0103163Y0210166D02*
X0107349Y0210166D01*
X0107337Y0210204D02*
X0103175Y0210204D01*
X0103187Y0210242D02*
X0107325Y0210242D01*
X0107303Y0210280D02*
X0103209Y0210280D01*
X0103231Y0210318D02*
X0107281Y0210318D01*
X0107259Y0210355D02*
X0103252Y0210355D01*
X0103274Y0210393D02*
X0107238Y0210393D01*
X0107216Y0210431D02*
X0103296Y0210431D01*
X0103318Y0210469D02*
X0107194Y0210469D01*
X0107172Y0210507D02*
X0103340Y0210507D01*
X0103362Y0210545D02*
X0107150Y0210545D01*
X0107128Y0210583D02*
X0103384Y0210583D01*
X0103405Y0210621D02*
X0107106Y0210621D01*
X0107083Y0210658D02*
X0103429Y0210658D01*
X0103463Y0210696D02*
X0107049Y0210696D01*
X0107015Y0210734D02*
X0103497Y0210734D01*
X0103531Y0210772D02*
X0106980Y0210772D01*
X0106946Y0210810D02*
X0103565Y0210810D01*
X0103600Y0210848D02*
X0106912Y0210848D01*
X0106878Y0210886D02*
X0103634Y0210886D01*
X0103668Y0210924D02*
X0106844Y0210924D01*
X0106810Y0210962D02*
X0103702Y0210962D01*
X0103736Y0210999D02*
X0106776Y0210999D01*
X0106726Y0211037D02*
X0103785Y0211037D01*
X0103837Y0211075D02*
X0106674Y0211075D01*
X0106622Y0211113D02*
X0103890Y0211113D01*
X0103942Y0211151D02*
X0106570Y0211151D01*
X0106518Y0211189D02*
X0103994Y0211189D01*
X0104046Y0211227D02*
X0106466Y0211227D01*
X0106414Y0211265D02*
X0104098Y0211265D01*
X0104167Y0211302D02*
X0106345Y0211302D01*
X0106260Y0211340D02*
X0104252Y0211340D01*
X0104337Y0211378D02*
X0106175Y0211378D01*
X0106090Y0211416D02*
X0104422Y0211416D01*
X0104507Y0211454D02*
X0106005Y0211454D01*
X0105880Y0211492D02*
X0104632Y0211492D01*
X0104810Y0211530D02*
X0105702Y0211530D01*
X0105524Y0211568D02*
X0104988Y0211568D01*
X0102992Y0209295D02*
X0107520Y0209295D01*
X0107520Y0209257D02*
X0102992Y0209257D01*
X0102992Y0209219D02*
X0107520Y0209219D01*
X0107520Y0209181D02*
X0102992Y0209181D01*
X0102992Y0209143D02*
X0107520Y0209143D01*
X0107520Y0209105D02*
X0102992Y0209105D01*
X0102992Y0209067D02*
X0107520Y0209067D01*
X0107520Y0209030D02*
X0102992Y0209030D01*
X0102992Y0208992D02*
X0107520Y0208992D01*
X0107520Y0208954D02*
X0102992Y0208954D01*
X0102992Y0208916D02*
X0107520Y0208916D01*
X0107520Y0208878D02*
X0102992Y0208878D01*
X0102992Y0208840D02*
X0107520Y0208840D01*
X0107520Y0208802D02*
X0102992Y0208802D01*
X0102992Y0208764D02*
X0107520Y0208764D01*
X0107520Y0208727D02*
X0102992Y0208727D01*
X0102992Y0208689D02*
X0107520Y0208689D01*
X0107520Y0208651D02*
X0102992Y0208651D01*
X0102992Y0208613D02*
X0107520Y0208613D01*
X0107520Y0208575D02*
X0102992Y0208575D01*
X0102992Y0208537D02*
X0107520Y0208537D01*
X0107520Y0208499D02*
X0102992Y0208499D01*
X0102992Y0208461D02*
X0107520Y0208461D01*
X0107520Y0208423D02*
X0102992Y0208423D01*
X0102992Y0208386D02*
X0107520Y0208386D01*
X0107520Y0208348D02*
X0102992Y0208348D01*
X0102992Y0208310D02*
X0107520Y0208310D01*
X0107520Y0208272D02*
X0102992Y0208272D01*
X0102992Y0208234D02*
X0107520Y0208234D01*
X0107520Y0208196D02*
X0102992Y0208196D01*
X0102992Y0208158D02*
X0107520Y0208158D01*
X0107520Y0208120D02*
X0102992Y0208120D01*
X0102992Y0208083D02*
X0107520Y0208083D01*
X0107520Y0208045D02*
X0102992Y0208045D01*
X0102992Y0208007D02*
X0107520Y0208007D01*
X0107520Y0207969D02*
X0102992Y0207969D01*
X0102992Y0207931D02*
X0107520Y0207931D01*
X0107520Y0207893D02*
X0102992Y0207893D01*
X0102992Y0207855D02*
X0107520Y0207855D01*
X0107520Y0207817D02*
X0102992Y0207817D01*
X0102992Y0207779D02*
X0107520Y0207779D01*
X0107520Y0207742D02*
X0102992Y0207742D01*
X0102992Y0207704D02*
X0107520Y0207704D01*
X0107520Y0207666D02*
X0102992Y0207666D01*
X0102992Y0207628D02*
X0107520Y0207628D01*
X0107520Y0207590D02*
X0102992Y0207590D01*
X0102992Y0207552D02*
X0107520Y0207552D01*
X0107520Y0207514D02*
X0102992Y0207514D01*
X0102992Y0207476D02*
X0107520Y0207476D01*
X0107520Y0207439D02*
X0102992Y0207439D01*
X0102992Y0207401D02*
X0107520Y0207401D01*
X0107520Y0207363D02*
X0102992Y0207363D01*
X0102992Y0207325D02*
X0107520Y0207325D01*
X0107520Y0207287D02*
X0102992Y0207287D01*
X0102992Y0207249D02*
X0107520Y0207249D01*
X0107520Y0207211D02*
X0102992Y0207211D01*
X0102992Y0207173D02*
X0107520Y0207173D01*
X0107520Y0207135D02*
X0102992Y0207135D01*
X0102992Y0207098D02*
X0107520Y0207098D01*
X0107520Y0207060D02*
X0102992Y0207060D01*
X0102992Y0207022D02*
X0107520Y0207022D01*
X0107520Y0206984D02*
X0102992Y0206984D01*
X0102992Y0206946D02*
X0107520Y0206946D01*
X0107520Y0206908D02*
X0102992Y0206908D01*
X0102992Y0206870D02*
X0107520Y0206870D01*
X0107520Y0206832D02*
X0102992Y0206832D01*
X0102992Y0206795D02*
X0107520Y0206795D01*
X0107519Y0206757D02*
X0102993Y0206757D01*
X0102997Y0206719D02*
X0107515Y0206719D01*
X0107511Y0206681D02*
X0103001Y0206681D01*
X0103005Y0206643D02*
X0107507Y0206643D01*
X0107503Y0206605D02*
X0103009Y0206605D01*
X0103013Y0206567D02*
X0107499Y0206567D01*
X0107495Y0206529D02*
X0103017Y0206529D01*
X0103021Y0206491D02*
X0107491Y0206491D01*
X0107487Y0206454D02*
X0103025Y0206454D01*
X0103029Y0206416D02*
X0107483Y0206416D01*
X0107479Y0206378D02*
X0103033Y0206378D01*
X0103037Y0206340D02*
X0107475Y0206340D01*
X0107471Y0206302D02*
X0103041Y0206302D01*
X0103051Y0206264D02*
X0107461Y0206264D01*
X0107449Y0206226D02*
X0103063Y0206226D01*
X0103076Y0206188D02*
X0107436Y0206188D01*
X0107424Y0206151D02*
X0103088Y0206151D01*
X0103100Y0206113D02*
X0107412Y0206113D01*
X0107399Y0206075D02*
X0103113Y0206075D01*
X0103125Y0206037D02*
X0107387Y0206037D01*
X0107375Y0205999D02*
X0103137Y0205999D01*
X0103149Y0205961D02*
X0107362Y0205961D01*
X0107350Y0205923D02*
X0103162Y0205923D01*
X0103174Y0205885D02*
X0107338Y0205885D01*
X0107325Y0205848D02*
X0103186Y0205848D01*
X0103207Y0205810D02*
X0107305Y0205810D01*
X0107283Y0205772D02*
X0103229Y0205772D01*
X0103251Y0205734D02*
X0107261Y0205734D01*
X0107239Y0205696D02*
X0103273Y0205696D01*
X0103295Y0205658D02*
X0107217Y0205658D01*
X0107195Y0205620D02*
X0103316Y0205620D01*
X0103338Y0205582D02*
X0107173Y0205582D01*
X0107152Y0205544D02*
X0103360Y0205544D01*
X0103382Y0205507D02*
X0107130Y0205507D01*
X0107108Y0205469D02*
X0103404Y0205469D01*
X0103427Y0205431D02*
X0107085Y0205431D01*
X0107051Y0205393D02*
X0103461Y0205393D01*
X0103495Y0205355D02*
X0107017Y0205355D01*
X0106983Y0205317D02*
X0103529Y0205317D01*
X0103563Y0205279D02*
X0106949Y0205279D01*
X0106915Y0205241D02*
X0103597Y0205241D01*
X0103631Y0205204D02*
X0106881Y0205204D01*
X0106846Y0205166D02*
X0103665Y0205166D01*
X0103699Y0205128D02*
X0106812Y0205128D01*
X0106778Y0205090D02*
X0103734Y0205090D01*
X0103782Y0205052D02*
X0106730Y0205052D01*
X0106678Y0205014D02*
X0103834Y0205014D01*
X0103886Y0204976D02*
X0106626Y0204976D01*
X0106574Y0204938D02*
X0103938Y0204938D01*
X0103990Y0204900D02*
X0106522Y0204900D01*
X0106469Y0204863D02*
X0104042Y0204863D01*
X0104095Y0204825D02*
X0106417Y0204825D01*
X0106351Y0204787D02*
X0104161Y0204787D01*
X0104246Y0204749D02*
X0106266Y0204749D01*
X0106181Y0204711D02*
X0104331Y0204711D01*
X0104416Y0204673D02*
X0106096Y0204673D01*
X0106011Y0204635D02*
X0104501Y0204635D01*
X0104619Y0204597D02*
X0105893Y0204597D01*
X0105714Y0204560D02*
X0104797Y0204560D01*
X0104976Y0204522D02*
X0105536Y0204522D01*
D15*
X0078697Y0112149D02*
X0073783Y0112149D01*
X0073783Y0117851D01*
X0078697Y0117851D01*
X0078697Y0112149D01*
X0078697Y0112344D02*
X0073783Y0112344D01*
X0073783Y0112539D02*
X0078697Y0112539D01*
X0078697Y0112734D02*
X0073783Y0112734D01*
X0073783Y0112929D02*
X0078697Y0112929D01*
X0078697Y0113124D02*
X0073783Y0113124D01*
X0073783Y0113319D02*
X0078697Y0113319D01*
X0078697Y0113514D02*
X0073783Y0113514D01*
X0073783Y0113709D02*
X0078697Y0113709D01*
X0078697Y0113904D02*
X0073783Y0113904D01*
X0073783Y0114099D02*
X0078697Y0114099D01*
X0078697Y0114294D02*
X0073783Y0114294D01*
X0073783Y0114489D02*
X0078697Y0114489D01*
X0078697Y0114684D02*
X0073783Y0114684D01*
X0073783Y0114879D02*
X0078697Y0114879D01*
X0078697Y0115074D02*
X0073783Y0115074D01*
X0073783Y0115269D02*
X0078697Y0115269D01*
X0078697Y0115464D02*
X0073783Y0115464D01*
X0073783Y0115659D02*
X0078697Y0115659D01*
X0078697Y0115854D02*
X0073783Y0115854D01*
X0073783Y0116049D02*
X0078697Y0116049D01*
X0078697Y0116244D02*
X0073783Y0116244D01*
X0073783Y0116439D02*
X0078697Y0116439D01*
X0078697Y0116634D02*
X0073783Y0116634D01*
X0073783Y0116829D02*
X0078697Y0116829D01*
X0078697Y0117024D02*
X0073783Y0117024D01*
X0073783Y0117219D02*
X0078697Y0117219D01*
X0078697Y0117414D02*
X0073783Y0117414D01*
X0073783Y0117609D02*
X0078697Y0117609D01*
X0078697Y0117804D02*
X0073783Y0117804D01*
X0071217Y0112149D02*
X0066303Y0112149D01*
X0066303Y0117851D01*
X0071217Y0117851D01*
X0071217Y0112149D01*
X0071217Y0112344D02*
X0066303Y0112344D01*
X0066303Y0112539D02*
X0071217Y0112539D01*
X0071217Y0112734D02*
X0066303Y0112734D01*
X0066303Y0112929D02*
X0071217Y0112929D01*
X0071217Y0113124D02*
X0066303Y0113124D01*
X0066303Y0113319D02*
X0071217Y0113319D01*
X0071217Y0113514D02*
X0066303Y0113514D01*
X0066303Y0113709D02*
X0071217Y0113709D01*
X0071217Y0113904D02*
X0066303Y0113904D01*
X0066303Y0114099D02*
X0071217Y0114099D01*
X0071217Y0114294D02*
X0066303Y0114294D01*
X0066303Y0114489D02*
X0071217Y0114489D01*
X0071217Y0114684D02*
X0066303Y0114684D01*
X0066303Y0114879D02*
X0071217Y0114879D01*
X0071217Y0115074D02*
X0066303Y0115074D01*
X0066303Y0115269D02*
X0071217Y0115269D01*
X0071217Y0115464D02*
X0066303Y0115464D01*
X0066303Y0115659D02*
X0071217Y0115659D01*
X0071217Y0115854D02*
X0066303Y0115854D01*
X0066303Y0116049D02*
X0071217Y0116049D01*
X0071217Y0116244D02*
X0066303Y0116244D01*
X0066303Y0116439D02*
X0071217Y0116439D01*
X0071217Y0116634D02*
X0066303Y0116634D01*
X0066303Y0116829D02*
X0071217Y0116829D01*
X0071217Y0117024D02*
X0066303Y0117024D01*
X0066303Y0117219D02*
X0071217Y0117219D01*
X0071217Y0117414D02*
X0066303Y0117414D01*
X0066303Y0117609D02*
X0071217Y0117609D01*
X0071217Y0117804D02*
X0066303Y0117804D01*
X0058697Y0117851D02*
X0053783Y0117851D01*
X0058697Y0117851D02*
X0058697Y0112149D01*
X0053783Y0112149D01*
X0053783Y0117851D01*
X0053783Y0112344D02*
X0058697Y0112344D01*
X0058697Y0112539D02*
X0053783Y0112539D01*
X0053783Y0112734D02*
X0058697Y0112734D01*
X0058697Y0112929D02*
X0053783Y0112929D01*
X0053783Y0113124D02*
X0058697Y0113124D01*
X0058697Y0113319D02*
X0053783Y0113319D01*
X0053783Y0113514D02*
X0058697Y0113514D01*
X0058697Y0113709D02*
X0053783Y0113709D01*
X0053783Y0113904D02*
X0058697Y0113904D01*
X0058697Y0114099D02*
X0053783Y0114099D01*
X0053783Y0114294D02*
X0058697Y0114294D01*
X0058697Y0114489D02*
X0053783Y0114489D01*
X0053783Y0114684D02*
X0058697Y0114684D01*
X0058697Y0114879D02*
X0053783Y0114879D01*
X0053783Y0115074D02*
X0058697Y0115074D01*
X0058697Y0115269D02*
X0053783Y0115269D01*
X0053783Y0115464D02*
X0058697Y0115464D01*
X0058697Y0115659D02*
X0053783Y0115659D01*
X0053783Y0115854D02*
X0058697Y0115854D01*
X0058697Y0116049D02*
X0053783Y0116049D01*
X0053783Y0116244D02*
X0058697Y0116244D01*
X0058697Y0116439D02*
X0053783Y0116439D01*
X0053783Y0116634D02*
X0058697Y0116634D01*
X0058697Y0116829D02*
X0053783Y0116829D01*
X0053783Y0117024D02*
X0058697Y0117024D01*
X0058697Y0117219D02*
X0053783Y0117219D01*
X0053783Y0117414D02*
X0058697Y0117414D01*
X0058697Y0117609D02*
X0053783Y0117609D01*
X0053783Y0117804D02*
X0058697Y0117804D01*
X0051217Y0117851D02*
X0046303Y0117851D01*
X0051217Y0117851D02*
X0051217Y0112149D01*
X0046303Y0112149D01*
X0046303Y0117851D01*
X0046303Y0112344D02*
X0051217Y0112344D01*
X0051217Y0112539D02*
X0046303Y0112539D01*
X0046303Y0112734D02*
X0051217Y0112734D01*
X0051217Y0112929D02*
X0046303Y0112929D01*
X0046303Y0113124D02*
X0051217Y0113124D01*
X0051217Y0113319D02*
X0046303Y0113319D01*
X0046303Y0113514D02*
X0051217Y0113514D01*
X0051217Y0113709D02*
X0046303Y0113709D01*
X0046303Y0113904D02*
X0051217Y0113904D01*
X0051217Y0114099D02*
X0046303Y0114099D01*
X0046303Y0114294D02*
X0051217Y0114294D01*
X0051217Y0114489D02*
X0046303Y0114489D01*
X0046303Y0114684D02*
X0051217Y0114684D01*
X0051217Y0114879D02*
X0046303Y0114879D01*
X0046303Y0115074D02*
X0051217Y0115074D01*
X0051217Y0115269D02*
X0046303Y0115269D01*
X0046303Y0115464D02*
X0051217Y0115464D01*
X0051217Y0115659D02*
X0046303Y0115659D01*
X0046303Y0115854D02*
X0051217Y0115854D01*
X0051217Y0116049D02*
X0046303Y0116049D01*
X0046303Y0116244D02*
X0051217Y0116244D01*
X0051217Y0116439D02*
X0046303Y0116439D01*
X0046303Y0116634D02*
X0051217Y0116634D01*
X0051217Y0116829D02*
X0046303Y0116829D01*
X0046303Y0117024D02*
X0051217Y0117024D01*
X0051217Y0117219D02*
X0046303Y0117219D01*
X0046303Y0117414D02*
X0051217Y0117414D01*
X0051217Y0117609D02*
X0046303Y0117609D01*
X0046303Y0117804D02*
X0051217Y0117804D01*
X0084927Y0043481D02*
X0084927Y0037779D01*
X0082573Y0037779D01*
X0082573Y0043481D01*
X0084927Y0043481D01*
X0084927Y0037974D02*
X0082573Y0037974D01*
X0082573Y0038169D02*
X0084927Y0038169D01*
X0084927Y0038364D02*
X0082573Y0038364D01*
X0082573Y0038559D02*
X0084927Y0038559D01*
X0084927Y0038754D02*
X0082573Y0038754D01*
X0082573Y0038949D02*
X0084927Y0038949D01*
X0084927Y0039144D02*
X0082573Y0039144D01*
X0082573Y0039339D02*
X0084927Y0039339D01*
X0084927Y0039534D02*
X0082573Y0039534D01*
X0082573Y0039729D02*
X0084927Y0039729D01*
X0084927Y0039924D02*
X0082573Y0039924D01*
X0082573Y0040119D02*
X0084927Y0040119D01*
X0084927Y0040314D02*
X0082573Y0040314D01*
X0082573Y0040509D02*
X0084927Y0040509D01*
X0084927Y0040704D02*
X0082573Y0040704D01*
X0082573Y0040899D02*
X0084927Y0040899D01*
X0084927Y0041094D02*
X0082573Y0041094D01*
X0082573Y0041289D02*
X0084927Y0041289D01*
X0084927Y0041484D02*
X0082573Y0041484D01*
X0082573Y0041679D02*
X0084927Y0041679D01*
X0084927Y0041874D02*
X0082573Y0041874D01*
X0082573Y0042069D02*
X0084927Y0042069D01*
X0084927Y0042264D02*
X0082573Y0042264D01*
X0082573Y0042459D02*
X0084927Y0042459D01*
X0084927Y0042654D02*
X0082573Y0042654D01*
X0082573Y0042849D02*
X0084927Y0042849D01*
X0084927Y0043044D02*
X0082573Y0043044D01*
X0082573Y0043239D02*
X0084927Y0043239D01*
X0084927Y0043434D02*
X0082573Y0043434D01*
X0089927Y0043481D02*
X0089927Y0037779D01*
X0087573Y0037779D01*
X0087573Y0043481D01*
X0089927Y0043481D01*
X0089927Y0037974D02*
X0087573Y0037974D01*
X0087573Y0038169D02*
X0089927Y0038169D01*
X0089927Y0038364D02*
X0087573Y0038364D01*
X0087573Y0038559D02*
X0089927Y0038559D01*
X0089927Y0038754D02*
X0087573Y0038754D01*
X0087573Y0038949D02*
X0089927Y0038949D01*
X0089927Y0039144D02*
X0087573Y0039144D01*
X0087573Y0039339D02*
X0089927Y0039339D01*
X0089927Y0039534D02*
X0087573Y0039534D01*
X0087573Y0039729D02*
X0089927Y0039729D01*
X0089927Y0039924D02*
X0087573Y0039924D01*
X0087573Y0040119D02*
X0089927Y0040119D01*
X0089927Y0040314D02*
X0087573Y0040314D01*
X0087573Y0040509D02*
X0089927Y0040509D01*
X0089927Y0040704D02*
X0087573Y0040704D01*
X0087573Y0040899D02*
X0089927Y0040899D01*
X0089927Y0041094D02*
X0087573Y0041094D01*
X0087573Y0041289D02*
X0089927Y0041289D01*
X0089927Y0041484D02*
X0087573Y0041484D01*
X0087573Y0041679D02*
X0089927Y0041679D01*
X0089927Y0041874D02*
X0087573Y0041874D01*
X0087573Y0042069D02*
X0089927Y0042069D01*
X0089927Y0042264D02*
X0087573Y0042264D01*
X0087573Y0042459D02*
X0089927Y0042459D01*
X0089927Y0042654D02*
X0087573Y0042654D01*
X0087573Y0042849D02*
X0089927Y0042849D01*
X0089927Y0043044D02*
X0087573Y0043044D01*
X0087573Y0043239D02*
X0089927Y0043239D01*
X0089927Y0043434D02*
X0087573Y0043434D01*
X0094927Y0043481D02*
X0094927Y0037779D01*
X0092573Y0037779D01*
X0092573Y0043481D01*
X0094927Y0043481D01*
X0094927Y0037974D02*
X0092573Y0037974D01*
X0092573Y0038169D02*
X0094927Y0038169D01*
X0094927Y0038364D02*
X0092573Y0038364D01*
X0092573Y0038559D02*
X0094927Y0038559D01*
X0094927Y0038754D02*
X0092573Y0038754D01*
X0092573Y0038949D02*
X0094927Y0038949D01*
X0094927Y0039144D02*
X0092573Y0039144D01*
X0092573Y0039339D02*
X0094927Y0039339D01*
X0094927Y0039534D02*
X0092573Y0039534D01*
X0092573Y0039729D02*
X0094927Y0039729D01*
X0094927Y0039924D02*
X0092573Y0039924D01*
X0092573Y0040119D02*
X0094927Y0040119D01*
X0094927Y0040314D02*
X0092573Y0040314D01*
X0092573Y0040509D02*
X0094927Y0040509D01*
X0094927Y0040704D02*
X0092573Y0040704D01*
X0092573Y0040899D02*
X0094927Y0040899D01*
X0094927Y0041094D02*
X0092573Y0041094D01*
X0092573Y0041289D02*
X0094927Y0041289D01*
X0094927Y0041484D02*
X0092573Y0041484D01*
X0092573Y0041679D02*
X0094927Y0041679D01*
X0094927Y0041874D02*
X0092573Y0041874D01*
X0092573Y0042069D02*
X0094927Y0042069D01*
X0094927Y0042264D02*
X0092573Y0042264D01*
X0092573Y0042459D02*
X0094927Y0042459D01*
X0094927Y0042654D02*
X0092573Y0042654D01*
X0092573Y0042849D02*
X0094927Y0042849D01*
X0094927Y0043044D02*
X0092573Y0043044D01*
X0092573Y0043239D02*
X0094927Y0043239D01*
X0094927Y0043434D02*
X0092573Y0043434D01*
X0099927Y0043481D02*
X0099927Y0037779D01*
X0097573Y0037779D01*
X0097573Y0043481D01*
X0099927Y0043481D01*
X0099927Y0037974D02*
X0097573Y0037974D01*
X0097573Y0038169D02*
X0099927Y0038169D01*
X0099927Y0038364D02*
X0097573Y0038364D01*
X0097573Y0038559D02*
X0099927Y0038559D01*
X0099927Y0038754D02*
X0097573Y0038754D01*
X0097573Y0038949D02*
X0099927Y0038949D01*
X0099927Y0039144D02*
X0097573Y0039144D01*
X0097573Y0039339D02*
X0099927Y0039339D01*
X0099927Y0039534D02*
X0097573Y0039534D01*
X0097573Y0039729D02*
X0099927Y0039729D01*
X0099927Y0039924D02*
X0097573Y0039924D01*
X0097573Y0040119D02*
X0099927Y0040119D01*
X0099927Y0040314D02*
X0097573Y0040314D01*
X0097573Y0040509D02*
X0099927Y0040509D01*
X0099927Y0040704D02*
X0097573Y0040704D01*
X0097573Y0040899D02*
X0099927Y0040899D01*
X0099927Y0041094D02*
X0097573Y0041094D01*
X0097573Y0041289D02*
X0099927Y0041289D01*
X0099927Y0041484D02*
X0097573Y0041484D01*
X0097573Y0041679D02*
X0099927Y0041679D01*
X0099927Y0041874D02*
X0097573Y0041874D01*
X0097573Y0042069D02*
X0099927Y0042069D01*
X0099927Y0042264D02*
X0097573Y0042264D01*
X0097573Y0042459D02*
X0099927Y0042459D01*
X0099927Y0042654D02*
X0097573Y0042654D01*
X0097573Y0042849D02*
X0099927Y0042849D01*
X0099927Y0043044D02*
X0097573Y0043044D01*
X0097573Y0043239D02*
X0099927Y0043239D01*
X0099927Y0043434D02*
X0097573Y0043434D01*
X0105053Y0038399D02*
X0109967Y0038399D01*
X0105053Y0038399D02*
X0105053Y0044101D01*
X0109967Y0044101D01*
X0109967Y0038399D01*
X0109967Y0038594D02*
X0105053Y0038594D01*
X0105053Y0038789D02*
X0109967Y0038789D01*
X0109967Y0038984D02*
X0105053Y0038984D01*
X0105053Y0039179D02*
X0109967Y0039179D01*
X0109967Y0039374D02*
X0105053Y0039374D01*
X0105053Y0039569D02*
X0109967Y0039569D01*
X0109967Y0039764D02*
X0105053Y0039764D01*
X0105053Y0039959D02*
X0109967Y0039959D01*
X0109967Y0040154D02*
X0105053Y0040154D01*
X0105053Y0040349D02*
X0109967Y0040349D01*
X0109967Y0040544D02*
X0105053Y0040544D01*
X0105053Y0040739D02*
X0109967Y0040739D01*
X0109967Y0040934D02*
X0105053Y0040934D01*
X0105053Y0041129D02*
X0109967Y0041129D01*
X0109967Y0041324D02*
X0105053Y0041324D01*
X0105053Y0041519D02*
X0109967Y0041519D01*
X0109967Y0041714D02*
X0105053Y0041714D01*
X0105053Y0041909D02*
X0109967Y0041909D01*
X0109967Y0042104D02*
X0105053Y0042104D01*
X0105053Y0042299D02*
X0109967Y0042299D01*
X0109967Y0042494D02*
X0105053Y0042494D01*
X0105053Y0042689D02*
X0109967Y0042689D01*
X0109967Y0042884D02*
X0105053Y0042884D01*
X0105053Y0043079D02*
X0109967Y0043079D01*
X0109967Y0043274D02*
X0105053Y0043274D01*
X0105053Y0043469D02*
X0109967Y0043469D01*
X0109967Y0043664D02*
X0105053Y0043664D01*
X0105053Y0043859D02*
X0109967Y0043859D01*
X0109967Y0044054D02*
X0105053Y0044054D01*
X0105053Y0029649D02*
X0109967Y0029649D01*
X0105053Y0029649D02*
X0105053Y0035351D01*
X0109967Y0035351D01*
X0109967Y0029649D01*
X0109967Y0029844D02*
X0105053Y0029844D01*
X0105053Y0030039D02*
X0109967Y0030039D01*
X0109967Y0030234D02*
X0105053Y0030234D01*
X0105053Y0030429D02*
X0109967Y0030429D01*
X0109967Y0030624D02*
X0105053Y0030624D01*
X0105053Y0030819D02*
X0109967Y0030819D01*
X0109967Y0031014D02*
X0105053Y0031014D01*
X0105053Y0031209D02*
X0109967Y0031209D01*
X0109967Y0031404D02*
X0105053Y0031404D01*
X0105053Y0031599D02*
X0109967Y0031599D01*
X0109967Y0031794D02*
X0105053Y0031794D01*
X0105053Y0031989D02*
X0109967Y0031989D01*
X0109967Y0032184D02*
X0105053Y0032184D01*
X0105053Y0032379D02*
X0109967Y0032379D01*
X0109967Y0032574D02*
X0105053Y0032574D01*
X0105053Y0032769D02*
X0109967Y0032769D01*
X0109967Y0032964D02*
X0105053Y0032964D01*
X0105053Y0033159D02*
X0109967Y0033159D01*
X0109967Y0033354D02*
X0105053Y0033354D01*
X0105053Y0033549D02*
X0109967Y0033549D01*
X0109967Y0033744D02*
X0105053Y0033744D01*
X0105053Y0033939D02*
X0109967Y0033939D01*
X0109967Y0034134D02*
X0105053Y0034134D01*
X0105053Y0034329D02*
X0109967Y0034329D01*
X0109967Y0034524D02*
X0105053Y0034524D01*
X0105053Y0034719D02*
X0109967Y0034719D01*
X0109967Y0034914D02*
X0105053Y0034914D01*
X0105053Y0035109D02*
X0109967Y0035109D01*
X0109967Y0035304D02*
X0105053Y0035304D01*
X0112533Y0029649D02*
X0117447Y0029649D01*
X0112533Y0029649D02*
X0112533Y0035351D01*
X0117447Y0035351D01*
X0117447Y0029649D01*
X0117447Y0029844D02*
X0112533Y0029844D01*
X0112533Y0030039D02*
X0117447Y0030039D01*
X0117447Y0030234D02*
X0112533Y0030234D01*
X0112533Y0030429D02*
X0117447Y0030429D01*
X0117447Y0030624D02*
X0112533Y0030624D01*
X0112533Y0030819D02*
X0117447Y0030819D01*
X0117447Y0031014D02*
X0112533Y0031014D01*
X0112533Y0031209D02*
X0117447Y0031209D01*
X0117447Y0031404D02*
X0112533Y0031404D01*
X0112533Y0031599D02*
X0117447Y0031599D01*
X0117447Y0031794D02*
X0112533Y0031794D01*
X0112533Y0031989D02*
X0117447Y0031989D01*
X0117447Y0032184D02*
X0112533Y0032184D01*
X0112533Y0032379D02*
X0117447Y0032379D01*
X0117447Y0032574D02*
X0112533Y0032574D01*
X0112533Y0032769D02*
X0117447Y0032769D01*
X0117447Y0032964D02*
X0112533Y0032964D01*
X0112533Y0033159D02*
X0117447Y0033159D01*
X0117447Y0033354D02*
X0112533Y0033354D01*
X0112533Y0033549D02*
X0117447Y0033549D01*
X0117447Y0033744D02*
X0112533Y0033744D01*
X0112533Y0033939D02*
X0117447Y0033939D01*
X0117447Y0034134D02*
X0112533Y0034134D01*
X0112533Y0034329D02*
X0117447Y0034329D01*
X0117447Y0034524D02*
X0112533Y0034524D01*
X0112533Y0034719D02*
X0117447Y0034719D01*
X0117447Y0034914D02*
X0112533Y0034914D01*
X0112533Y0035109D02*
X0117447Y0035109D01*
X0117447Y0035304D02*
X0112533Y0035304D01*
X0112533Y0038399D02*
X0117447Y0038399D01*
X0112533Y0038399D02*
X0112533Y0044101D01*
X0117447Y0044101D01*
X0117447Y0038399D01*
X0117447Y0038594D02*
X0112533Y0038594D01*
X0112533Y0038789D02*
X0117447Y0038789D01*
X0117447Y0038984D02*
X0112533Y0038984D01*
X0112533Y0039179D02*
X0117447Y0039179D01*
X0117447Y0039374D02*
X0112533Y0039374D01*
X0112533Y0039569D02*
X0117447Y0039569D01*
X0117447Y0039764D02*
X0112533Y0039764D01*
X0112533Y0039959D02*
X0117447Y0039959D01*
X0117447Y0040154D02*
X0112533Y0040154D01*
X0112533Y0040349D02*
X0117447Y0040349D01*
X0117447Y0040544D02*
X0112533Y0040544D01*
X0112533Y0040739D02*
X0117447Y0040739D01*
X0117447Y0040934D02*
X0112533Y0040934D01*
X0112533Y0041129D02*
X0117447Y0041129D01*
X0117447Y0041324D02*
X0112533Y0041324D01*
X0112533Y0041519D02*
X0117447Y0041519D01*
X0117447Y0041714D02*
X0112533Y0041714D01*
X0112533Y0041909D02*
X0117447Y0041909D01*
X0117447Y0042104D02*
X0112533Y0042104D01*
X0112533Y0042299D02*
X0117447Y0042299D01*
X0117447Y0042494D02*
X0112533Y0042494D01*
X0112533Y0042689D02*
X0117447Y0042689D01*
X0117447Y0042884D02*
X0112533Y0042884D01*
X0112533Y0043079D02*
X0117447Y0043079D01*
X0117447Y0043274D02*
X0112533Y0043274D01*
X0112533Y0043469D02*
X0117447Y0043469D01*
X0117447Y0043664D02*
X0112533Y0043664D01*
X0112533Y0043859D02*
X0117447Y0043859D01*
X0117447Y0044054D02*
X0112533Y0044054D01*
X0112533Y0015899D02*
X0117447Y0015899D01*
X0112533Y0015899D02*
X0112533Y0021601D01*
X0117447Y0021601D01*
X0117447Y0015899D01*
X0117447Y0016094D02*
X0112533Y0016094D01*
X0112533Y0016289D02*
X0117447Y0016289D01*
X0117447Y0016484D02*
X0112533Y0016484D01*
X0112533Y0016679D02*
X0117447Y0016679D01*
X0117447Y0016874D02*
X0112533Y0016874D01*
X0112533Y0017069D02*
X0117447Y0017069D01*
X0117447Y0017264D02*
X0112533Y0017264D01*
X0112533Y0017459D02*
X0117447Y0017459D01*
X0117447Y0017654D02*
X0112533Y0017654D01*
X0112533Y0017849D02*
X0117447Y0017849D01*
X0117447Y0018044D02*
X0112533Y0018044D01*
X0112533Y0018239D02*
X0117447Y0018239D01*
X0117447Y0018434D02*
X0112533Y0018434D01*
X0112533Y0018629D02*
X0117447Y0018629D01*
X0117447Y0018824D02*
X0112533Y0018824D01*
X0112533Y0019019D02*
X0117447Y0019019D01*
X0117447Y0019214D02*
X0112533Y0019214D01*
X0112533Y0019409D02*
X0117447Y0019409D01*
X0117447Y0019604D02*
X0112533Y0019604D01*
X0112533Y0019799D02*
X0117447Y0019799D01*
X0117447Y0019994D02*
X0112533Y0019994D01*
X0112533Y0020189D02*
X0117447Y0020189D01*
X0117447Y0020384D02*
X0112533Y0020384D01*
X0112533Y0020579D02*
X0117447Y0020579D01*
X0117447Y0020774D02*
X0112533Y0020774D01*
X0112533Y0020969D02*
X0117447Y0020969D01*
X0117447Y0021164D02*
X0112533Y0021164D01*
X0112533Y0021359D02*
X0117447Y0021359D01*
X0117447Y0021554D02*
X0112533Y0021554D01*
X0109967Y0015899D02*
X0105053Y0015899D01*
X0105053Y0021601D01*
X0109967Y0021601D01*
X0109967Y0015899D01*
X0109967Y0016094D02*
X0105053Y0016094D01*
X0105053Y0016289D02*
X0109967Y0016289D01*
X0109967Y0016484D02*
X0105053Y0016484D01*
X0105053Y0016679D02*
X0109967Y0016679D01*
X0109967Y0016874D02*
X0105053Y0016874D01*
X0105053Y0017069D02*
X0109967Y0017069D01*
X0109967Y0017264D02*
X0105053Y0017264D01*
X0105053Y0017459D02*
X0109967Y0017459D01*
X0109967Y0017654D02*
X0105053Y0017654D01*
X0105053Y0017849D02*
X0109967Y0017849D01*
X0109967Y0018044D02*
X0105053Y0018044D01*
X0105053Y0018239D02*
X0109967Y0018239D01*
X0109967Y0018434D02*
X0105053Y0018434D01*
X0105053Y0018629D02*
X0109967Y0018629D01*
X0109967Y0018824D02*
X0105053Y0018824D01*
X0105053Y0019019D02*
X0109967Y0019019D01*
X0109967Y0019214D02*
X0105053Y0019214D01*
X0105053Y0019409D02*
X0109967Y0019409D01*
X0109967Y0019604D02*
X0105053Y0019604D01*
X0105053Y0019799D02*
X0109967Y0019799D01*
X0109967Y0019994D02*
X0105053Y0019994D01*
X0105053Y0020189D02*
X0109967Y0020189D01*
X0109967Y0020384D02*
X0105053Y0020384D01*
X0105053Y0020579D02*
X0109967Y0020579D01*
X0109967Y0020774D02*
X0105053Y0020774D01*
X0105053Y0020969D02*
X0109967Y0020969D01*
X0109967Y0021164D02*
X0105053Y0021164D01*
X0105053Y0021359D02*
X0109967Y0021359D01*
X0109967Y0021554D02*
X0105053Y0021554D01*
X0099927Y0022221D02*
X0099927Y0016519D01*
X0097573Y0016519D01*
X0097573Y0022221D01*
X0099927Y0022221D01*
X0099927Y0016714D02*
X0097573Y0016714D01*
X0097573Y0016909D02*
X0099927Y0016909D01*
X0099927Y0017104D02*
X0097573Y0017104D01*
X0097573Y0017299D02*
X0099927Y0017299D01*
X0099927Y0017494D02*
X0097573Y0017494D01*
X0097573Y0017689D02*
X0099927Y0017689D01*
X0099927Y0017884D02*
X0097573Y0017884D01*
X0097573Y0018079D02*
X0099927Y0018079D01*
X0099927Y0018274D02*
X0097573Y0018274D01*
X0097573Y0018469D02*
X0099927Y0018469D01*
X0099927Y0018664D02*
X0097573Y0018664D01*
X0097573Y0018859D02*
X0099927Y0018859D01*
X0099927Y0019054D02*
X0097573Y0019054D01*
X0097573Y0019249D02*
X0099927Y0019249D01*
X0099927Y0019444D02*
X0097573Y0019444D01*
X0097573Y0019639D02*
X0099927Y0019639D01*
X0099927Y0019834D02*
X0097573Y0019834D01*
X0097573Y0020029D02*
X0099927Y0020029D01*
X0099927Y0020224D02*
X0097573Y0020224D01*
X0097573Y0020419D02*
X0099927Y0020419D01*
X0099927Y0020614D02*
X0097573Y0020614D01*
X0097573Y0020809D02*
X0099927Y0020809D01*
X0099927Y0021004D02*
X0097573Y0021004D01*
X0097573Y0021199D02*
X0099927Y0021199D01*
X0099927Y0021394D02*
X0097573Y0021394D01*
X0097573Y0021589D02*
X0099927Y0021589D01*
X0099927Y0021784D02*
X0097573Y0021784D01*
X0097573Y0021979D02*
X0099927Y0021979D01*
X0099927Y0022174D02*
X0097573Y0022174D01*
X0094927Y0022221D02*
X0094927Y0016519D01*
X0092573Y0016519D01*
X0092573Y0022221D01*
X0094927Y0022221D01*
X0094927Y0016714D02*
X0092573Y0016714D01*
X0092573Y0016909D02*
X0094927Y0016909D01*
X0094927Y0017104D02*
X0092573Y0017104D01*
X0092573Y0017299D02*
X0094927Y0017299D01*
X0094927Y0017494D02*
X0092573Y0017494D01*
X0092573Y0017689D02*
X0094927Y0017689D01*
X0094927Y0017884D02*
X0092573Y0017884D01*
X0092573Y0018079D02*
X0094927Y0018079D01*
X0094927Y0018274D02*
X0092573Y0018274D01*
X0092573Y0018469D02*
X0094927Y0018469D01*
X0094927Y0018664D02*
X0092573Y0018664D01*
X0092573Y0018859D02*
X0094927Y0018859D01*
X0094927Y0019054D02*
X0092573Y0019054D01*
X0092573Y0019249D02*
X0094927Y0019249D01*
X0094927Y0019444D02*
X0092573Y0019444D01*
X0092573Y0019639D02*
X0094927Y0019639D01*
X0094927Y0019834D02*
X0092573Y0019834D01*
X0092573Y0020029D02*
X0094927Y0020029D01*
X0094927Y0020224D02*
X0092573Y0020224D01*
X0092573Y0020419D02*
X0094927Y0020419D01*
X0094927Y0020614D02*
X0092573Y0020614D01*
X0092573Y0020809D02*
X0094927Y0020809D01*
X0094927Y0021004D02*
X0092573Y0021004D01*
X0092573Y0021199D02*
X0094927Y0021199D01*
X0094927Y0021394D02*
X0092573Y0021394D01*
X0092573Y0021589D02*
X0094927Y0021589D01*
X0094927Y0021784D02*
X0092573Y0021784D01*
X0092573Y0021979D02*
X0094927Y0021979D01*
X0094927Y0022174D02*
X0092573Y0022174D01*
X0089927Y0022221D02*
X0089927Y0016519D01*
X0087573Y0016519D01*
X0087573Y0022221D01*
X0089927Y0022221D01*
X0089927Y0016714D02*
X0087573Y0016714D01*
X0087573Y0016909D02*
X0089927Y0016909D01*
X0089927Y0017104D02*
X0087573Y0017104D01*
X0087573Y0017299D02*
X0089927Y0017299D01*
X0089927Y0017494D02*
X0087573Y0017494D01*
X0087573Y0017689D02*
X0089927Y0017689D01*
X0089927Y0017884D02*
X0087573Y0017884D01*
X0087573Y0018079D02*
X0089927Y0018079D01*
X0089927Y0018274D02*
X0087573Y0018274D01*
X0087573Y0018469D02*
X0089927Y0018469D01*
X0089927Y0018664D02*
X0087573Y0018664D01*
X0087573Y0018859D02*
X0089927Y0018859D01*
X0089927Y0019054D02*
X0087573Y0019054D01*
X0087573Y0019249D02*
X0089927Y0019249D01*
X0089927Y0019444D02*
X0087573Y0019444D01*
X0087573Y0019639D02*
X0089927Y0019639D01*
X0089927Y0019834D02*
X0087573Y0019834D01*
X0087573Y0020029D02*
X0089927Y0020029D01*
X0089927Y0020224D02*
X0087573Y0020224D01*
X0087573Y0020419D02*
X0089927Y0020419D01*
X0089927Y0020614D02*
X0087573Y0020614D01*
X0087573Y0020809D02*
X0089927Y0020809D01*
X0089927Y0021004D02*
X0087573Y0021004D01*
X0087573Y0021199D02*
X0089927Y0021199D01*
X0089927Y0021394D02*
X0087573Y0021394D01*
X0087573Y0021589D02*
X0089927Y0021589D01*
X0089927Y0021784D02*
X0087573Y0021784D01*
X0087573Y0021979D02*
X0089927Y0021979D01*
X0089927Y0022174D02*
X0087573Y0022174D01*
X0084927Y0022221D02*
X0084927Y0016519D01*
X0082573Y0016519D01*
X0082573Y0022221D01*
X0084927Y0022221D01*
X0084927Y0016714D02*
X0082573Y0016714D01*
X0082573Y0016909D02*
X0084927Y0016909D01*
X0084927Y0017104D02*
X0082573Y0017104D01*
X0082573Y0017299D02*
X0084927Y0017299D01*
X0084927Y0017494D02*
X0082573Y0017494D01*
X0082573Y0017689D02*
X0084927Y0017689D01*
X0084927Y0017884D02*
X0082573Y0017884D01*
X0082573Y0018079D02*
X0084927Y0018079D01*
X0084927Y0018274D02*
X0082573Y0018274D01*
X0082573Y0018469D02*
X0084927Y0018469D01*
X0084927Y0018664D02*
X0082573Y0018664D01*
X0082573Y0018859D02*
X0084927Y0018859D01*
X0084927Y0019054D02*
X0082573Y0019054D01*
X0082573Y0019249D02*
X0084927Y0019249D01*
X0084927Y0019444D02*
X0082573Y0019444D01*
X0082573Y0019639D02*
X0084927Y0019639D01*
X0084927Y0019834D02*
X0082573Y0019834D01*
X0082573Y0020029D02*
X0084927Y0020029D01*
X0084927Y0020224D02*
X0082573Y0020224D01*
X0082573Y0020419D02*
X0084927Y0020419D01*
X0084927Y0020614D02*
X0082573Y0020614D01*
X0082573Y0020809D02*
X0084927Y0020809D01*
X0084927Y0021004D02*
X0082573Y0021004D01*
X0082573Y0021199D02*
X0084927Y0021199D01*
X0084927Y0021394D02*
X0082573Y0021394D01*
X0082573Y0021589D02*
X0084927Y0021589D01*
X0084927Y0021784D02*
X0082573Y0021784D01*
X0082573Y0021979D02*
X0084927Y0021979D01*
X0084927Y0022174D02*
X0082573Y0022174D01*
X0092553Y0007149D02*
X0097467Y0007149D01*
X0092553Y0007149D02*
X0092553Y0012851D01*
X0097467Y0012851D01*
X0097467Y0007149D01*
X0097467Y0007344D02*
X0092553Y0007344D01*
X0092553Y0007539D02*
X0097467Y0007539D01*
X0097467Y0007734D02*
X0092553Y0007734D01*
X0092553Y0007929D02*
X0097467Y0007929D01*
X0097467Y0008124D02*
X0092553Y0008124D01*
X0092553Y0008319D02*
X0097467Y0008319D01*
X0097467Y0008514D02*
X0092553Y0008514D01*
X0092553Y0008709D02*
X0097467Y0008709D01*
X0097467Y0008904D02*
X0092553Y0008904D01*
X0092553Y0009099D02*
X0097467Y0009099D01*
X0097467Y0009294D02*
X0092553Y0009294D01*
X0092553Y0009489D02*
X0097467Y0009489D01*
X0097467Y0009684D02*
X0092553Y0009684D01*
X0092553Y0009879D02*
X0097467Y0009879D01*
X0097467Y0010074D02*
X0092553Y0010074D01*
X0092553Y0010269D02*
X0097467Y0010269D01*
X0097467Y0010464D02*
X0092553Y0010464D01*
X0092553Y0010659D02*
X0097467Y0010659D01*
X0097467Y0010854D02*
X0092553Y0010854D01*
X0092553Y0011049D02*
X0097467Y0011049D01*
X0097467Y0011244D02*
X0092553Y0011244D01*
X0092553Y0011439D02*
X0097467Y0011439D01*
X0097467Y0011634D02*
X0092553Y0011634D01*
X0092553Y0011829D02*
X0097467Y0011829D01*
X0097467Y0012024D02*
X0092553Y0012024D01*
X0092553Y0012219D02*
X0097467Y0012219D01*
X0097467Y0012414D02*
X0092553Y0012414D01*
X0092553Y0012609D02*
X0097467Y0012609D01*
X0097467Y0012804D02*
X0092553Y0012804D01*
X0100033Y0007149D02*
X0104947Y0007149D01*
X0100033Y0007149D02*
X0100033Y0012851D01*
X0104947Y0012851D01*
X0104947Y0007149D01*
X0104947Y0007344D02*
X0100033Y0007344D01*
X0100033Y0007539D02*
X0104947Y0007539D01*
X0104947Y0007734D02*
X0100033Y0007734D01*
X0100033Y0007929D02*
X0104947Y0007929D01*
X0104947Y0008124D02*
X0100033Y0008124D01*
X0100033Y0008319D02*
X0104947Y0008319D01*
X0104947Y0008514D02*
X0100033Y0008514D01*
X0100033Y0008709D02*
X0104947Y0008709D01*
X0104947Y0008904D02*
X0100033Y0008904D01*
X0100033Y0009099D02*
X0104947Y0009099D01*
X0104947Y0009294D02*
X0100033Y0009294D01*
X0100033Y0009489D02*
X0104947Y0009489D01*
X0104947Y0009684D02*
X0100033Y0009684D01*
X0100033Y0009879D02*
X0104947Y0009879D01*
X0104947Y0010074D02*
X0100033Y0010074D01*
X0100033Y0010269D02*
X0104947Y0010269D01*
X0104947Y0010464D02*
X0100033Y0010464D01*
X0100033Y0010659D02*
X0104947Y0010659D01*
X0104947Y0010854D02*
X0100033Y0010854D01*
X0100033Y0011049D02*
X0104947Y0011049D01*
X0104947Y0011244D02*
X0100033Y0011244D01*
X0100033Y0011439D02*
X0104947Y0011439D01*
X0104947Y0011634D02*
X0100033Y0011634D01*
X0100033Y0011829D02*
X0104947Y0011829D01*
X0104947Y0012024D02*
X0100033Y0012024D01*
X0100033Y0012219D02*
X0104947Y0012219D01*
X0104947Y0012414D02*
X0100033Y0012414D01*
X0100033Y0012609D02*
X0104947Y0012609D01*
X0104947Y0012804D02*
X0100033Y0012804D01*
D16*
X0056093Y0136004D03*
X0056093Y0148996D03*
X0046250Y0148996D03*
X0036407Y0148996D03*
X0036407Y0136004D03*
X0046250Y0136004D03*
D17*
X0038750Y0018600D02*
X0038750Y0011400D01*
X0028750Y0011400D02*
X0028750Y0018600D01*
X0018750Y0018600D02*
X0018750Y0011400D01*
X0008750Y0011400D02*
X0008750Y0018600D01*
D18*
X0055780Y0057646D02*
X0064220Y0057646D01*
X0064220Y0052354D01*
X0055780Y0052354D01*
X0055780Y0057646D01*
X0055780Y0052563D02*
X0064220Y0052563D01*
X0064220Y0052772D02*
X0055780Y0052772D01*
X0055780Y0052981D02*
X0064220Y0052981D01*
X0064220Y0053190D02*
X0055780Y0053190D01*
X0055780Y0053399D02*
X0064220Y0053399D01*
X0064220Y0053608D02*
X0055780Y0053608D01*
X0055780Y0053817D02*
X0064220Y0053817D01*
X0064220Y0054026D02*
X0055780Y0054026D01*
X0055780Y0054235D02*
X0064220Y0054235D01*
X0064220Y0054444D02*
X0055780Y0054444D01*
X0055780Y0054653D02*
X0064220Y0054653D01*
X0064220Y0054862D02*
X0055780Y0054862D01*
X0055780Y0055071D02*
X0064220Y0055071D01*
X0064220Y0055280D02*
X0055780Y0055280D01*
X0055780Y0055489D02*
X0064220Y0055489D01*
X0064220Y0055698D02*
X0055780Y0055698D01*
X0055780Y0055907D02*
X0064220Y0055907D01*
X0064220Y0056116D02*
X0055780Y0056116D01*
X0055780Y0056325D02*
X0064220Y0056325D01*
X0064220Y0056534D02*
X0055780Y0056534D01*
X0055780Y0056743D02*
X0064220Y0056743D01*
X0064220Y0056952D02*
X0055780Y0056952D01*
X0055780Y0057161D02*
X0064220Y0057161D01*
X0064220Y0057370D02*
X0055780Y0057370D01*
X0055780Y0057579D02*
X0064220Y0057579D01*
X0068280Y0065146D02*
X0076720Y0065146D01*
X0076720Y0059854D01*
X0068280Y0059854D01*
X0068280Y0065146D01*
X0068280Y0060063D02*
X0076720Y0060063D01*
X0076720Y0060272D02*
X0068280Y0060272D01*
X0068280Y0060481D02*
X0076720Y0060481D01*
X0076720Y0060690D02*
X0068280Y0060690D01*
X0068280Y0060899D02*
X0076720Y0060899D01*
X0076720Y0061108D02*
X0068280Y0061108D01*
X0068280Y0061317D02*
X0076720Y0061317D01*
X0076720Y0061526D02*
X0068280Y0061526D01*
X0068280Y0061735D02*
X0076720Y0061735D01*
X0076720Y0061944D02*
X0068280Y0061944D01*
X0068280Y0062153D02*
X0076720Y0062153D01*
X0076720Y0062362D02*
X0068280Y0062362D01*
X0068280Y0062571D02*
X0076720Y0062571D01*
X0076720Y0062780D02*
X0068280Y0062780D01*
X0068280Y0062989D02*
X0076720Y0062989D01*
X0076720Y0063198D02*
X0068280Y0063198D01*
X0068280Y0063407D02*
X0076720Y0063407D01*
X0076720Y0063616D02*
X0068280Y0063616D01*
X0068280Y0063825D02*
X0076720Y0063825D01*
X0076720Y0064034D02*
X0068280Y0064034D01*
X0068280Y0064243D02*
X0076720Y0064243D01*
X0076720Y0064452D02*
X0068280Y0064452D01*
X0068280Y0064661D02*
X0076720Y0064661D01*
X0076720Y0064870D02*
X0068280Y0064870D01*
X0068280Y0065079D02*
X0076720Y0065079D01*
X0064220Y0072646D02*
X0055780Y0072646D01*
X0064220Y0072646D02*
X0064220Y0067354D01*
X0055780Y0067354D01*
X0055780Y0072646D01*
X0055780Y0067563D02*
X0064220Y0067563D01*
X0064220Y0067772D02*
X0055780Y0067772D01*
X0055780Y0067981D02*
X0064220Y0067981D01*
X0064220Y0068190D02*
X0055780Y0068190D01*
X0055780Y0068399D02*
X0064220Y0068399D01*
X0064220Y0068608D02*
X0055780Y0068608D01*
X0055780Y0068817D02*
X0064220Y0068817D01*
X0064220Y0069026D02*
X0055780Y0069026D01*
X0055780Y0069235D02*
X0064220Y0069235D01*
X0064220Y0069444D02*
X0055780Y0069444D01*
X0055780Y0069653D02*
X0064220Y0069653D01*
X0064220Y0069862D02*
X0055780Y0069862D01*
X0055780Y0070071D02*
X0064220Y0070071D01*
X0064220Y0070280D02*
X0055780Y0070280D01*
X0055780Y0070489D02*
X0064220Y0070489D01*
X0064220Y0070698D02*
X0055780Y0070698D01*
X0055780Y0070907D02*
X0064220Y0070907D01*
X0064220Y0071116D02*
X0055780Y0071116D01*
X0055780Y0071325D02*
X0064220Y0071325D01*
X0064220Y0071534D02*
X0055780Y0071534D01*
X0055780Y0071743D02*
X0064220Y0071743D01*
X0064220Y0071952D02*
X0055780Y0071952D01*
X0055780Y0072161D02*
X0064220Y0072161D01*
X0064220Y0072370D02*
X0055780Y0072370D01*
X0055780Y0072579D02*
X0064220Y0072579D01*
D19*
X0063750Y0082500D03*
X0057500Y0082500D03*
X0051250Y0082500D03*
X0046250Y0087500D03*
X0046250Y0093750D03*
X0046250Y0100000D03*
X0051250Y0105000D03*
X0057500Y0105000D03*
X0063750Y0105000D03*
X0068750Y0100000D03*
X0068750Y0093750D03*
X0068750Y0087500D03*
X0062500Y0115000D03*
X0071250Y0128750D03*
X0075000Y0128750D03*
X0082500Y0127500D03*
X0082500Y0138750D03*
X0082500Y0142500D03*
X0078750Y0142500D03*
X0078750Y0138750D03*
X0078750Y0146250D03*
X0086250Y0156250D03*
X0083750Y0158750D03*
X0088750Y0153750D03*
X0087500Y0147500D03*
X0093750Y0130000D03*
X0093750Y0126250D03*
X0093750Y0122500D03*
X0097500Y0122500D03*
X0097500Y0126250D03*
X0097500Y0130000D03*
X0082500Y0115000D03*
X0097500Y0097500D03*
X0097500Y0093750D03*
X0101250Y0093750D03*
X0101250Y0097500D03*
X0100000Y0072500D03*
X0100000Y0068750D03*
X0100000Y0065000D03*
X0100000Y0061250D03*
X0105000Y0047500D03*
X0087500Y0030000D03*
X0078750Y0041250D03*
X0075000Y0041250D03*
X0051250Y0062500D03*
X0046250Y0067500D03*
X0042500Y0060000D03*
X0037500Y0090000D03*
X0032500Y0090000D03*
X0023750Y0102500D03*
X0023750Y0106250D03*
X0023750Y0110000D03*
X0027500Y0115000D03*
X0018750Y0148750D03*
X0028750Y0157500D03*
X0036250Y0168750D03*
X0038750Y0166250D03*
X0041250Y0168750D03*
X0038750Y0171250D03*
X0047500Y0177500D03*
X0046250Y0157500D03*
X0067500Y0165000D03*
X0072500Y0165000D03*
X0085000Y0182500D03*
X0090000Y0182500D03*
X0061250Y0206250D03*
X0040000Y0197500D03*
X0022500Y0178750D03*
X0007500Y0185000D03*
X0007500Y0190000D03*
X0007500Y0195000D03*
X0018750Y0206250D03*
X0015000Y0026250D03*
X0011250Y0026250D03*
X0007500Y0026250D03*
X0043750Y0026250D03*
X0058750Y0007500D03*
X0062500Y0007500D03*
X0066250Y0007500D03*
X0090000Y0010000D03*
D20*
X0088750Y0040630D02*
X0088750Y0048750D01*
X0075000Y0062500D01*
X0072500Y0062500D01*
X0051250Y0062500D01*
X0053459Y0064500D02*
X0052936Y0065023D01*
X0051842Y0065476D01*
X0050658Y0065476D01*
X0049564Y0065023D01*
X0048727Y0064186D01*
X0048274Y0063092D01*
X0048274Y0061908D01*
X0048727Y0060814D01*
X0049564Y0059977D01*
X0050658Y0059524D01*
X0051842Y0059524D01*
X0052936Y0059977D01*
X0053459Y0060500D01*
X0066669Y0060500D01*
X0066669Y0059187D01*
X0067613Y0058244D01*
X0076427Y0058244D01*
X0086750Y0047922D01*
X0086750Y0047500D01*
X0082828Y0047500D01*
X0074500Y0055828D01*
X0073328Y0057000D01*
X0065831Y0057000D01*
X0065831Y0058313D01*
X0064887Y0059256D01*
X0055113Y0059256D01*
X0054169Y0058313D01*
X0054169Y0057000D01*
X0048328Y0057000D01*
X0045476Y0059852D01*
X0045476Y0060592D01*
X0045023Y0061686D01*
X0044186Y0062523D01*
X0043092Y0062976D01*
X0041908Y0062976D01*
X0040814Y0062523D01*
X0039977Y0061686D01*
X0039524Y0060592D01*
X0039524Y0059408D01*
X0039977Y0058314D01*
X0040814Y0057477D01*
X0041908Y0057024D01*
X0042648Y0057024D01*
X0045500Y0054172D01*
X0046672Y0053000D01*
X0054169Y0053000D01*
X0054169Y0051687D01*
X0055113Y0050744D01*
X0064887Y0050744D01*
X0065831Y0051687D01*
X0065831Y0053000D01*
X0071672Y0053000D01*
X0077172Y0047500D01*
X0001800Y0047500D01*
X0001800Y0132500D01*
X0016750Y0132500D01*
X0016750Y0122922D01*
X0017922Y0121750D01*
X0024524Y0115148D01*
X0024524Y0114408D01*
X0024977Y0113314D01*
X0025814Y0112477D01*
X0026908Y0112024D01*
X0028092Y0112024D01*
X0029186Y0112477D01*
X0030023Y0113314D01*
X0030476Y0114408D01*
X0030476Y0115592D01*
X0030023Y0116686D01*
X0029186Y0117523D01*
X0028092Y0117976D01*
X0027352Y0117976D01*
X0020750Y0124578D01*
X0020750Y0132500D01*
X0028000Y0132500D01*
X0028000Y0131672D01*
X0029172Y0130500D01*
X0030500Y0129172D01*
X0030500Y0092209D01*
X0029977Y0091686D01*
X0029524Y0090592D01*
X0029524Y0089408D01*
X0029977Y0088314D01*
X0030814Y0087477D01*
X0031908Y0087024D01*
X0033092Y0087024D01*
X0034186Y0087477D01*
X0035000Y0088291D01*
X0035814Y0087477D01*
X0036908Y0087024D01*
X0038092Y0087024D01*
X0039186Y0087477D01*
X0040023Y0088314D01*
X0040476Y0089408D01*
X0040476Y0090592D01*
X0040023Y0091686D01*
X0039500Y0092209D01*
X0039500Y0132465D01*
X0039535Y0132500D01*
X0043123Y0132500D01*
X0043594Y0132029D01*
X0045317Y0131315D01*
X0047183Y0131315D01*
X0048906Y0132029D01*
X0049377Y0132500D01*
X0052965Y0132500D01*
X0053436Y0132029D01*
X0055160Y0131315D01*
X0057025Y0131315D01*
X0058749Y0132029D01*
X0059220Y0132500D01*
X0083116Y0132500D01*
X0079872Y0129256D01*
X0079400Y0128117D01*
X0079400Y0126883D01*
X0079872Y0125744D01*
X0080744Y0124872D01*
X0081883Y0124400D01*
X0083117Y0124400D01*
X0084256Y0124872D01*
X0089256Y0129872D01*
X0090128Y0130744D01*
X0090600Y0131883D01*
X0090600Y0132500D01*
X0100000Y0132500D01*
X0102500Y0130000D01*
X0102500Y0110000D01*
X0092500Y0100000D01*
X0092500Y0057828D01*
X0079500Y0070828D01*
X0078328Y0072000D01*
X0065831Y0072000D01*
X0065831Y0073313D01*
X0064887Y0074256D01*
X0055113Y0074256D01*
X0054169Y0073313D01*
X0054169Y0072000D01*
X0047922Y0072000D01*
X0046750Y0070828D01*
X0046398Y0070476D01*
X0045658Y0070476D01*
X0044564Y0070023D01*
X0043727Y0069186D01*
X0043274Y0068092D01*
X0043274Y0066908D01*
X0043727Y0065814D01*
X0044564Y0064977D01*
X0045658Y0064524D01*
X0046842Y0064524D01*
X0047936Y0064977D01*
X0048773Y0065814D01*
X0049226Y0066908D01*
X0049226Y0067648D01*
X0049578Y0068000D01*
X0054169Y0068000D01*
X0054169Y0066687D01*
X0055113Y0065744D01*
X0064887Y0065744D01*
X0065831Y0066687D01*
X0065831Y0068000D01*
X0076672Y0068000D01*
X0091750Y0052922D01*
X0091750Y0051750D01*
X0090164Y0050164D01*
X0078331Y0061998D01*
X0078331Y0065813D01*
X0077387Y0066756D01*
X0067613Y0066756D01*
X0066669Y0065813D01*
X0066669Y0064500D01*
X0053459Y0064500D01*
X0053056Y0064903D02*
X0066669Y0064903D01*
X0066758Y0065902D02*
X0065045Y0065902D01*
X0065831Y0066900D02*
X0077771Y0066900D01*
X0078242Y0065902D02*
X0078770Y0065902D01*
X0078331Y0064903D02*
X0079768Y0064903D01*
X0080767Y0063905D02*
X0078331Y0063905D01*
X0078331Y0062906D02*
X0081765Y0062906D01*
X0082764Y0061908D02*
X0078421Y0061908D01*
X0079419Y0060909D02*
X0083762Y0060909D01*
X0084761Y0059911D02*
X0080418Y0059911D01*
X0081416Y0058912D02*
X0085759Y0058912D01*
X0086758Y0057914D02*
X0082415Y0057914D01*
X0083413Y0056915D02*
X0087756Y0056915D01*
X0088755Y0055917D02*
X0084412Y0055917D01*
X0085410Y0054918D02*
X0089753Y0054918D01*
X0090752Y0053920D02*
X0086409Y0053920D01*
X0087407Y0052921D02*
X0091750Y0052921D01*
X0091750Y0051923D02*
X0088406Y0051923D01*
X0089404Y0050924D02*
X0090924Y0050924D01*
X0093750Y0053750D02*
X0077500Y0070000D01*
X0060000Y0070000D01*
X0048750Y0070000D01*
X0046250Y0067500D01*
X0043607Y0068897D02*
X0033807Y0068897D01*
X0034000Y0068704D02*
X0034000Y0067771D01*
X0034000Y0064496D01*
X0033004Y0063500D01*
X0030625Y0063500D01*
X0030366Y0063759D01*
X0029201Y0063380D01*
X0029201Y0063380D01*
X0027908Y0063800D01*
X0027681Y0063669D01*
X0027512Y0063500D01*
X0025948Y0063500D01*
X0024952Y0064496D01*
X0024952Y0065904D01*
X0025181Y0066133D01*
X0024952Y0066362D01*
X0024952Y0067771D01*
X0025574Y0068393D01*
X0025574Y0068704D01*
X0026570Y0069700D01*
X0027978Y0069700D01*
X0028892Y0068786D01*
X0029201Y0068886D01*
X0029201Y0068886D01*
X0030447Y0068481D01*
X0030600Y0068569D01*
X0030600Y0068704D01*
X0031596Y0069700D01*
X0033004Y0069700D01*
X0034000Y0068704D01*
X0034000Y0067899D02*
X0043274Y0067899D01*
X0043277Y0066900D02*
X0034000Y0066900D01*
X0034000Y0065902D02*
X0043690Y0065902D01*
X0044741Y0064903D02*
X0034000Y0064903D01*
X0033409Y0063905D02*
X0048610Y0063905D01*
X0048274Y0062906D02*
X0043261Y0062906D01*
X0041739Y0062906D02*
X0001800Y0062906D01*
X0001800Y0061908D02*
X0040198Y0061908D01*
X0039655Y0060909D02*
X0001800Y0060909D01*
X0001800Y0059911D02*
X0039524Y0059911D01*
X0039729Y0058912D02*
X0001800Y0058912D01*
X0001800Y0057914D02*
X0040377Y0057914D01*
X0042756Y0056915D02*
X0001800Y0056915D01*
X0001800Y0055917D02*
X0043755Y0055917D01*
X0044753Y0054918D02*
X0001800Y0054918D01*
X0001800Y0053920D02*
X0045752Y0053920D01*
X0047500Y0055000D02*
X0060000Y0055000D01*
X0072500Y0055000D01*
X0083750Y0043750D01*
X0083750Y0040630D01*
X0082400Y0047929D02*
X0086743Y0047929D01*
X0085745Y0048927D02*
X0081401Y0048927D01*
X0080403Y0049926D02*
X0084746Y0049926D01*
X0083747Y0050924D02*
X0079404Y0050924D01*
X0078406Y0051923D02*
X0082749Y0051923D01*
X0081750Y0052921D02*
X0077407Y0052921D01*
X0076409Y0053920D02*
X0080752Y0053920D01*
X0079753Y0054918D02*
X0075410Y0054918D01*
X0074412Y0055917D02*
X0078755Y0055917D01*
X0077756Y0056915D02*
X0073413Y0056915D01*
X0071750Y0052921D02*
X0065831Y0052921D01*
X0065831Y0051923D02*
X0072749Y0051923D01*
X0073747Y0050924D02*
X0065067Y0050924D01*
X0065831Y0057914D02*
X0076758Y0057914D01*
X0076773Y0067899D02*
X0065831Y0067899D01*
X0065831Y0072891D02*
X0092500Y0072891D01*
X0092500Y0071893D02*
X0078436Y0071893D01*
X0079434Y0070894D02*
X0092500Y0070894D01*
X0092500Y0069896D02*
X0080433Y0069896D01*
X0081431Y0068897D02*
X0092500Y0068897D01*
X0092500Y0067899D02*
X0082430Y0067899D01*
X0083428Y0066900D02*
X0092500Y0066900D01*
X0092500Y0065902D02*
X0084427Y0065902D01*
X0085425Y0064903D02*
X0092500Y0064903D01*
X0092500Y0063905D02*
X0086424Y0063905D01*
X0087422Y0062906D02*
X0092500Y0062906D01*
X0092500Y0061908D02*
X0088421Y0061908D01*
X0089419Y0060909D02*
X0092500Y0060909D01*
X0092500Y0059911D02*
X0090418Y0059911D01*
X0091416Y0058912D02*
X0092500Y0058912D01*
X0092500Y0057914D02*
X0092415Y0057914D01*
X0093750Y0053750D02*
X0093750Y0040630D01*
X0076743Y0047929D02*
X0001800Y0047929D01*
X0001800Y0048927D02*
X0075745Y0048927D01*
X0074746Y0049926D02*
X0001800Y0049926D01*
X0001800Y0050924D02*
X0054933Y0050924D01*
X0054169Y0051923D02*
X0001800Y0051923D01*
X0001800Y0052921D02*
X0054169Y0052921D01*
X0054169Y0057914D02*
X0047415Y0057914D01*
X0046416Y0058912D02*
X0054769Y0058912D01*
X0052776Y0059911D02*
X0066669Y0059911D01*
X0066944Y0058912D02*
X0065231Y0058912D01*
X0054955Y0065902D02*
X0048810Y0065902D01*
X0049223Y0066900D02*
X0054169Y0066900D01*
X0054169Y0067899D02*
X0049477Y0067899D01*
X0049444Y0064903D02*
X0047759Y0064903D01*
X0048274Y0061908D02*
X0044802Y0061908D01*
X0045345Y0060909D02*
X0048687Y0060909D01*
X0049724Y0059911D02*
X0045476Y0059911D01*
X0042500Y0060000D02*
X0047500Y0055000D01*
X0044437Y0069896D02*
X0001800Y0069896D01*
X0001800Y0070894D02*
X0046816Y0070894D01*
X0047814Y0071893D02*
X0001800Y0071893D01*
X0001800Y0072891D02*
X0054169Y0072891D01*
X0054746Y0073890D02*
X0001800Y0073890D01*
X0001800Y0074888D02*
X0092500Y0074888D01*
X0092500Y0073890D02*
X0065254Y0073890D01*
X0040252Y0088868D02*
X0092500Y0088868D01*
X0092500Y0089866D02*
X0040476Y0089866D01*
X0040363Y0090865D02*
X0092500Y0090865D01*
X0092500Y0091863D02*
X0039846Y0091863D01*
X0039500Y0092862D02*
X0092500Y0092862D01*
X0092500Y0093860D02*
X0039500Y0093860D01*
X0039500Y0094859D02*
X0092500Y0094859D01*
X0092500Y0095857D02*
X0039500Y0095857D01*
X0039500Y0096856D02*
X0092500Y0096856D01*
X0092500Y0097854D02*
X0039500Y0097854D01*
X0039500Y0098853D02*
X0092500Y0098853D01*
X0092500Y0099851D02*
X0039500Y0099851D01*
X0039500Y0100850D02*
X0093350Y0100850D01*
X0094348Y0101848D02*
X0039500Y0101848D01*
X0039500Y0102847D02*
X0095347Y0102847D01*
X0096345Y0103845D02*
X0039500Y0103845D01*
X0039500Y0104844D02*
X0097344Y0104844D01*
X0098342Y0105842D02*
X0039500Y0105842D01*
X0039500Y0106841D02*
X0099341Y0106841D01*
X0100339Y0107839D02*
X0039500Y0107839D01*
X0039500Y0108838D02*
X0101338Y0108838D01*
X0102336Y0109836D02*
X0039500Y0109836D01*
X0039500Y0110835D02*
X0045376Y0110835D01*
X0045319Y0110867D02*
X0045685Y0110656D01*
X0046092Y0110547D01*
X0048260Y0110547D01*
X0048260Y0114500D01*
X0049260Y0114500D01*
X0049260Y0110547D01*
X0051427Y0110547D01*
X0051835Y0110656D01*
X0052200Y0110867D01*
X0052499Y0111166D01*
X0052500Y0111167D01*
X0053120Y0110547D01*
X0059361Y0110547D01*
X0060299Y0111486D01*
X0060299Y0111900D01*
X0064701Y0111900D01*
X0064701Y0111486D01*
X0065639Y0110547D01*
X0071880Y0110547D01*
X0072500Y0111167D01*
X0073120Y0110547D01*
X0079361Y0110547D01*
X0080299Y0111486D01*
X0080299Y0111900D01*
X0083117Y0111900D01*
X0084256Y0112372D01*
X0085128Y0113244D01*
X0085600Y0114383D01*
X0085600Y0115617D01*
X0085128Y0116756D01*
X0084256Y0117628D01*
X0083117Y0118100D01*
X0080299Y0118100D01*
X0080299Y0118514D01*
X0079361Y0119453D01*
X0073120Y0119453D01*
X0072500Y0118833D01*
X0071880Y0119453D01*
X0065639Y0119453D01*
X0064701Y0118514D01*
X0064701Y0118100D01*
X0060299Y0118100D01*
X0060299Y0118514D01*
X0059361Y0119453D01*
X0053120Y0119453D01*
X0052500Y0118833D01*
X0052499Y0118834D01*
X0052200Y0119133D01*
X0051835Y0119344D01*
X0051427Y0119453D01*
X0049260Y0119453D01*
X0049260Y0115500D01*
X0048260Y0115500D01*
X0048260Y0119453D01*
X0046092Y0119453D01*
X0045685Y0119344D01*
X0045319Y0119133D01*
X0045021Y0118834D01*
X0044810Y0118469D01*
X0044701Y0118061D01*
X0044701Y0115500D01*
X0048260Y0115500D01*
X0048260Y0114500D01*
X0044701Y0114500D01*
X0044701Y0111939D01*
X0044810Y0111531D01*
X0045021Y0111166D01*
X0045319Y0110867D01*
X0044729Y0111833D02*
X0039500Y0111833D01*
X0039500Y0112832D02*
X0044701Y0112832D01*
X0044701Y0113830D02*
X0039500Y0113830D01*
X0039500Y0114829D02*
X0048260Y0114829D01*
X0048260Y0115827D02*
X0049260Y0115827D01*
X0049260Y0116826D02*
X0048260Y0116826D01*
X0048260Y0117824D02*
X0049260Y0117824D01*
X0049260Y0118823D02*
X0048260Y0118823D01*
X0045014Y0118823D02*
X0039500Y0118823D01*
X0039500Y0119821D02*
X0102500Y0119821D01*
X0102500Y0118823D02*
X0079990Y0118823D01*
X0083782Y0117824D02*
X0102500Y0117824D01*
X0102500Y0116826D02*
X0085058Y0116826D01*
X0085513Y0115827D02*
X0102500Y0115827D01*
X0102500Y0114829D02*
X0085600Y0114829D01*
X0085371Y0113830D02*
X0102500Y0113830D01*
X0102500Y0112832D02*
X0084716Y0112832D01*
X0080299Y0111833D02*
X0102500Y0111833D01*
X0102500Y0110835D02*
X0079648Y0110835D01*
X0072832Y0110835D02*
X0072168Y0110835D01*
X0065352Y0110835D02*
X0059648Y0110835D01*
X0060299Y0111833D02*
X0064701Y0111833D01*
X0065010Y0118823D02*
X0059990Y0118823D01*
X0052832Y0110835D02*
X0052144Y0110835D01*
X0049260Y0110835D02*
X0048260Y0110835D01*
X0048260Y0111833D02*
X0049260Y0111833D01*
X0049260Y0112832D02*
X0048260Y0112832D01*
X0048260Y0113830D02*
X0049260Y0113830D01*
X0044701Y0115827D02*
X0039500Y0115827D01*
X0039500Y0116826D02*
X0044701Y0116826D01*
X0044701Y0117824D02*
X0039500Y0117824D01*
X0039500Y0120820D02*
X0102500Y0120820D01*
X0102500Y0121818D02*
X0039500Y0121818D01*
X0039500Y0122817D02*
X0102500Y0122817D01*
X0102500Y0123815D02*
X0039500Y0123815D01*
X0039500Y0124814D02*
X0080884Y0124814D01*
X0079844Y0125812D02*
X0039500Y0125812D01*
X0039500Y0126811D02*
X0079430Y0126811D01*
X0079400Y0127809D02*
X0039500Y0127809D01*
X0039500Y0128808D02*
X0079686Y0128808D01*
X0080422Y0129806D02*
X0039500Y0129806D01*
X0039500Y0130805D02*
X0081421Y0130805D01*
X0082419Y0131803D02*
X0058205Y0131803D01*
X0060545Y0134500D02*
X0060781Y0135071D01*
X0060781Y0136937D01*
X0060068Y0138660D01*
X0058749Y0139979D01*
X0057025Y0140693D01*
X0055160Y0140693D01*
X0053436Y0139979D01*
X0052117Y0138660D01*
X0051404Y0136937D01*
X0051404Y0135071D01*
X0051640Y0134500D01*
X0050702Y0134500D01*
X0050939Y0135071D01*
X0050939Y0136937D01*
X0050225Y0138660D01*
X0048906Y0139979D01*
X0047183Y0140693D01*
X0045317Y0140693D01*
X0043594Y0139979D01*
X0042275Y0138660D01*
X0041561Y0136937D01*
X0041561Y0135071D01*
X0041798Y0134500D01*
X0040860Y0134500D01*
X0041096Y0135071D01*
X0041096Y0136937D01*
X0040383Y0138660D01*
X0039064Y0139979D01*
X0037340Y0140693D01*
X0035475Y0140693D01*
X0033751Y0139979D01*
X0032432Y0138660D01*
X0032000Y0137616D01*
X0032000Y0141760D01*
X0034819Y0144579D01*
X0035475Y0144307D01*
X0037340Y0144307D01*
X0039064Y0145021D01*
X0040383Y0146340D01*
X0041096Y0148063D01*
X0041096Y0149929D01*
X0040383Y0151652D01*
X0039064Y0152971D01*
X0037340Y0153685D01*
X0035475Y0153685D01*
X0033751Y0152971D01*
X0032432Y0151652D01*
X0031719Y0149929D01*
X0031719Y0148063D01*
X0031990Y0147407D01*
X0028000Y0143417D01*
X0028000Y0134500D01*
X0020750Y0134500D01*
X0020750Y0146541D01*
X0021273Y0147064D01*
X0021726Y0148158D01*
X0021726Y0149342D01*
X0021273Y0150436D01*
X0020436Y0151273D01*
X0019342Y0151726D01*
X0018602Y0151726D01*
X0015750Y0154578D01*
X0015750Y0200422D01*
X0018602Y0203274D01*
X0019342Y0203274D01*
X0020436Y0203727D01*
X0021273Y0204564D01*
X0021726Y0205658D01*
X0021726Y0206842D01*
X0021273Y0207936D01*
X0020436Y0208773D01*
X0019342Y0209226D01*
X0018158Y0209226D01*
X0017064Y0208773D01*
X0016227Y0207936D01*
X0015774Y0206842D01*
X0015774Y0206102D01*
X0012922Y0203250D01*
X0011750Y0202078D01*
X0011750Y0152922D01*
X0015774Y0148898D01*
X0015774Y0148158D01*
X0016227Y0147064D01*
X0016750Y0146541D01*
X0016750Y0134500D01*
X0001800Y0134500D01*
X0001800Y0205000D01*
X0001901Y0206283D01*
X0002694Y0208723D01*
X0004202Y0210798D01*
X0006277Y0212306D01*
X0008717Y0213099D01*
X0010000Y0213200D01*
X0022024Y0213200D01*
X0022024Y0212321D01*
X0022477Y0211227D01*
X0023314Y0210390D01*
X0024408Y0209937D01*
X0025592Y0209937D01*
X0026686Y0210390D01*
X0027523Y0211227D01*
X0027976Y0212321D01*
X0027976Y0213200D01*
X0052024Y0213200D01*
X0052024Y0212321D01*
X0052477Y0211227D01*
X0053314Y0210390D01*
X0054408Y0209937D01*
X0055592Y0209937D01*
X0056686Y0210390D01*
X0057523Y0211227D01*
X0057976Y0212321D01*
X0057976Y0213200D01*
X0072896Y0213200D01*
X0072460Y0212909D01*
X0071961Y0212410D01*
X0071569Y0211823D01*
X0071299Y0211171D01*
X0071216Y0210755D01*
X0071141Y0210624D01*
X0071084Y0210578D01*
X0071077Y0210514D01*
X0071045Y0210458D01*
X0071064Y0210388D01*
X0071035Y0210111D01*
X0070995Y0209986D01*
X0070961Y0209952D01*
X0070961Y0209882D01*
X0070890Y0209664D01*
X0070961Y0209526D01*
X0070961Y0209402D01*
X0070903Y0208856D01*
X0070961Y0208785D01*
X0070961Y0207302D01*
X0070903Y0207231D01*
X0070961Y0206684D01*
X0070961Y0206561D01*
X0070890Y0206422D01*
X0070961Y0206205D01*
X0070961Y0206134D01*
X0070994Y0206100D01*
X0071035Y0205975D01*
X0071064Y0205699D01*
X0071045Y0205628D01*
X0071077Y0205572D01*
X0071084Y0205508D01*
X0071141Y0205462D01*
X0071216Y0205332D01*
X0071299Y0204916D01*
X0071569Y0204264D01*
X0071961Y0203677D01*
X0072460Y0203178D01*
X0073047Y0202786D01*
X0073699Y0202516D01*
X0074391Y0202378D01*
X0074703Y0202378D01*
X0074703Y0202900D01*
X0074744Y0202908D01*
X0074785Y0202900D01*
X0074785Y0202378D01*
X0075097Y0202378D01*
X0075789Y0202516D01*
X0076441Y0202786D01*
X0077028Y0203178D01*
X0077527Y0203677D01*
X0077919Y0204264D01*
X0078189Y0204916D01*
X0078272Y0205332D01*
X0078347Y0205462D01*
X0078404Y0205508D01*
X0078411Y0205572D01*
X0078443Y0205628D01*
X0078424Y0205699D01*
X0078453Y0205975D01*
X0078494Y0206100D01*
X0078528Y0206134D01*
X0078528Y0206205D01*
X0078598Y0206422D01*
X0078528Y0206561D01*
X0078528Y0206684D01*
X0078585Y0207231D01*
X0078528Y0207302D01*
X0078528Y0208785D01*
X0078585Y0208856D01*
X0078528Y0209402D01*
X0078528Y0209526D01*
X0078598Y0209664D01*
X0078528Y0209882D01*
X0078528Y0209952D01*
X0078494Y0209986D01*
X0078453Y0210111D01*
X0078424Y0210388D01*
X0078443Y0210458D01*
X0078411Y0210514D01*
X0078404Y0210578D01*
X0078347Y0210624D01*
X0078272Y0210755D01*
X0078189Y0211171D01*
X0077919Y0211823D01*
X0077527Y0212410D01*
X0077028Y0212909D01*
X0076592Y0213200D01*
X0103408Y0213200D01*
X0102972Y0212909D01*
X0102473Y0212410D01*
X0102081Y0211823D01*
X0101811Y0211171D01*
X0101728Y0210755D01*
X0101653Y0210624D01*
X0101596Y0210578D01*
X0101589Y0210514D01*
X0101557Y0210458D01*
X0101576Y0210388D01*
X0101547Y0210111D01*
X0101506Y0209986D01*
X0101472Y0209952D01*
X0101472Y0209882D01*
X0101402Y0209664D01*
X0101472Y0209526D01*
X0101472Y0209402D01*
X0101415Y0208856D01*
X0101472Y0208785D01*
X0101472Y0207302D01*
X0101415Y0207231D01*
X0101472Y0206684D01*
X0101472Y0206561D01*
X0101402Y0206422D01*
X0101472Y0206205D01*
X0101472Y0206134D01*
X0101506Y0206100D01*
X0101547Y0205975D01*
X0101576Y0205699D01*
X0101557Y0205628D01*
X0101589Y0205572D01*
X0101596Y0205508D01*
X0101653Y0205462D01*
X0101728Y0205332D01*
X0101811Y0204916D01*
X0102081Y0204264D01*
X0102473Y0203677D01*
X0102972Y0203178D01*
X0103559Y0202786D01*
X0104211Y0202516D01*
X0104903Y0202378D01*
X0105215Y0202378D01*
X0105215Y0202900D01*
X0105256Y0202908D01*
X0105297Y0202900D01*
X0105297Y0202378D01*
X0105609Y0202378D01*
X0106301Y0202516D01*
X0106953Y0202786D01*
X0107540Y0203178D01*
X0108039Y0203677D01*
X0108431Y0204264D01*
X0108701Y0204916D01*
X0108784Y0205332D01*
X0108859Y0205462D01*
X0108916Y0205508D01*
X0108923Y0205572D01*
X0108955Y0205628D01*
X0108936Y0205699D01*
X0108965Y0205975D01*
X0109005Y0206100D01*
X0109039Y0206134D01*
X0109039Y0206205D01*
X0109110Y0206422D01*
X0109039Y0206561D01*
X0109039Y0206684D01*
X0109097Y0207231D01*
X0109039Y0207302D01*
X0109039Y0208785D01*
X0109097Y0208856D01*
X0109039Y0209402D01*
X0109039Y0209526D01*
X0109110Y0209664D01*
X0109039Y0209882D01*
X0109039Y0209952D01*
X0109005Y0209986D01*
X0108965Y0210111D01*
X0108936Y0210388D01*
X0108955Y0210458D01*
X0108923Y0210514D01*
X0108916Y0210578D01*
X0108859Y0210624D01*
X0108784Y0210755D01*
X0108701Y0211171D01*
X0108431Y0211823D01*
X0108039Y0212410D01*
X0107540Y0212909D01*
X0107104Y0213200D01*
X0115000Y0213200D01*
X0116283Y0213099D01*
X0118723Y0212306D01*
X0120798Y0210798D01*
X0122306Y0208723D01*
X0123099Y0206283D01*
X0123200Y0205000D01*
X0123200Y0201473D01*
X0120635Y0200410D01*
X0118468Y0198243D01*
X0118468Y0198243D01*
X0117294Y0195411D01*
X0117294Y0192345D01*
X0118468Y0189513D01*
X0120635Y0187346D01*
X0123200Y0186283D01*
X0123200Y0083750D01*
X0095000Y0083750D01*
X0094500Y0084250D01*
X0094500Y0099172D01*
X0103328Y0108000D01*
X0104500Y0109172D01*
X0104500Y0130828D01*
X0102000Y0133328D01*
X0100828Y0134500D01*
X0090600Y0134500D01*
X0090600Y0148117D01*
X0090128Y0149256D01*
X0089256Y0150128D01*
X0082628Y0156756D01*
X0081756Y0157628D01*
X0080617Y0158100D01*
X0071284Y0158100D01*
X0067360Y0162024D01*
X0068092Y0162024D01*
X0069186Y0162477D01*
X0070000Y0163291D01*
X0070814Y0162477D01*
X0071908Y0162024D01*
X0073092Y0162024D01*
X0074186Y0162477D01*
X0075023Y0163314D01*
X0075476Y0164408D01*
X0075476Y0165148D01*
X0089852Y0179524D01*
X0090592Y0179524D01*
X0091686Y0179977D01*
X0092523Y0180814D01*
X0092976Y0181908D01*
X0092976Y0183092D01*
X0092523Y0184186D01*
X0091686Y0185023D01*
X0090592Y0185476D01*
X0089408Y0185476D01*
X0088314Y0185023D01*
X0087500Y0184209D01*
X0086686Y0185023D01*
X0085592Y0185476D01*
X0084408Y0185476D01*
X0083314Y0185023D01*
X0082477Y0184186D01*
X0082024Y0183092D01*
X0082024Y0182352D01*
X0081704Y0182033D01*
X0081685Y0182052D01*
X0081618Y0182120D01*
X0081618Y0182120D01*
X0081611Y0182126D01*
X0079994Y0182560D01*
X0079994Y0182560D01*
X0078376Y0182126D01*
X0077784Y0181534D01*
X0077784Y0181534D01*
X0077351Y0181101D01*
X0077016Y0180766D01*
X0076478Y0180228D01*
X0076430Y0180180D01*
X0076424Y0180174D01*
X0075990Y0178556D01*
X0076252Y0177580D01*
X0075276Y0177842D01*
X0075276Y0177842D01*
X0073658Y0177408D01*
X0073652Y0177402D01*
X0073638Y0177388D01*
X0073066Y0176816D01*
X0072632Y0176382D01*
X0072298Y0176048D01*
X0071783Y0175533D01*
X0071712Y0175462D01*
X0071706Y0175456D01*
X0071273Y0173839D01*
X0071273Y0173839D01*
X0071706Y0172221D01*
X0071706Y0172221D01*
X0071799Y0172128D01*
X0067648Y0167976D01*
X0066908Y0167976D01*
X0065814Y0167523D01*
X0064977Y0166686D01*
X0064524Y0165592D01*
X0064524Y0164860D01*
X0050128Y0179256D01*
X0043100Y0186284D01*
X0043100Y0198117D01*
X0042628Y0199256D01*
X0041756Y0200128D01*
X0040617Y0200600D01*
X0039383Y0200600D01*
X0038244Y0200128D01*
X0037372Y0199256D01*
X0036900Y0198117D01*
X0036900Y0184383D01*
X0037372Y0183244D01*
X0045744Y0174872D01*
X0068244Y0152372D01*
X0069383Y0151900D01*
X0078716Y0151900D01*
X0084400Y0146216D01*
X0084400Y0134500D01*
X0060545Y0134500D01*
X0060669Y0134799D02*
X0084400Y0134799D01*
X0084400Y0135798D02*
X0060781Y0135798D01*
X0060781Y0136796D02*
X0084400Y0136796D01*
X0084400Y0137795D02*
X0060426Y0137795D01*
X0059935Y0138793D02*
X0084400Y0138793D01*
X0084400Y0139792D02*
X0058936Y0139792D01*
X0057025Y0144307D02*
X0058749Y0145021D01*
X0060068Y0146340D01*
X0060781Y0148063D01*
X0060781Y0149929D01*
X0060068Y0151652D01*
X0058749Y0152971D01*
X0057025Y0153685D01*
X0055160Y0153685D01*
X0053436Y0152971D01*
X0052117Y0151652D01*
X0051404Y0149929D01*
X0051404Y0148063D01*
X0052117Y0146340D01*
X0053436Y0145021D01*
X0055160Y0144307D01*
X0057025Y0144307D01*
X0058177Y0144784D02*
X0084400Y0144784D01*
X0084400Y0143786D02*
X0034025Y0143786D01*
X0033027Y0142787D02*
X0084400Y0142787D01*
X0084400Y0141789D02*
X0032028Y0141789D01*
X0032000Y0140790D02*
X0084400Y0140790D01*
X0084400Y0145783D02*
X0059510Y0145783D01*
X0060250Y0146781D02*
X0083835Y0146781D01*
X0082836Y0147780D02*
X0060664Y0147780D01*
X0060781Y0148778D02*
X0081838Y0148778D01*
X0080839Y0149777D02*
X0060781Y0149777D01*
X0060431Y0150775D02*
X0079841Y0150775D01*
X0078842Y0151774D02*
X0059946Y0151774D01*
X0058948Y0152772D02*
X0067844Y0152772D01*
X0066845Y0153771D02*
X0016558Y0153771D01*
X0015750Y0154769D02*
X0027565Y0154769D01*
X0027064Y0154977D02*
X0028158Y0154524D01*
X0029342Y0154524D01*
X0030436Y0154977D01*
X0030959Y0155500D01*
X0044041Y0155500D01*
X0044564Y0154977D01*
X0045658Y0154524D01*
X0046842Y0154524D01*
X0047936Y0154977D01*
X0048773Y0155814D01*
X0049226Y0156908D01*
X0049226Y0158092D01*
X0048773Y0159186D01*
X0047936Y0160023D01*
X0046842Y0160476D01*
X0045658Y0160476D01*
X0044564Y0160023D01*
X0044041Y0159500D01*
X0030959Y0159500D01*
X0030436Y0160023D01*
X0029342Y0160476D01*
X0028158Y0160476D01*
X0027064Y0160023D01*
X0026227Y0159186D01*
X0025774Y0158092D01*
X0025774Y0156908D01*
X0026227Y0155814D01*
X0027064Y0154977D01*
X0026273Y0155768D02*
X0015750Y0155768D01*
X0015750Y0156766D02*
X0025832Y0156766D01*
X0025774Y0157765D02*
X0015750Y0157765D01*
X0015750Y0158763D02*
X0026052Y0158763D01*
X0026803Y0159762D02*
X0015750Y0159762D01*
X0015750Y0160760D02*
X0059856Y0160760D01*
X0060854Y0159762D02*
X0048197Y0159762D01*
X0048948Y0158763D02*
X0061853Y0158763D01*
X0062851Y0157765D02*
X0049226Y0157765D01*
X0049168Y0156766D02*
X0063850Y0156766D01*
X0064848Y0155768D02*
X0048727Y0155768D01*
X0047435Y0154769D02*
X0065847Y0154769D01*
X0070621Y0158763D02*
X0106843Y0158763D01*
X0107280Y0159200D02*
X0106284Y0158204D01*
X0106284Y0156796D01*
X0106800Y0156280D01*
X0106339Y0155481D01*
X0106284Y0155426D01*
X0106284Y0152774D01*
X0106339Y0152719D01*
X0106948Y0151664D01*
X0106948Y0151664D01*
X0106948Y0151664D01*
X0108003Y0151055D01*
X0108058Y0151000D01*
X0108098Y0151000D01*
X0108098Y0151000D01*
X0109466Y0151000D01*
X0109466Y0151000D01*
X0110244Y0151000D01*
X0110289Y0151045D01*
X0110335Y0151000D01*
X0112468Y0151000D01*
X0113042Y0151417D01*
X0113459Y0151000D01*
X0114867Y0151000D01*
X0115087Y0151220D01*
X0115390Y0151000D01*
X0116900Y0151000D01*
X0117677Y0151000D01*
X0118673Y0151996D01*
X0118673Y0156204D01*
X0118541Y0156337D01*
X0119000Y0156796D01*
X0119000Y0161004D01*
X0118414Y0161590D01*
X0118712Y0162106D01*
X0118824Y0162218D01*
X0118824Y0165182D01*
X0118712Y0165294D01*
X0118202Y0166178D01*
X0118202Y0166178D01*
X0118202Y0166178D01*
X0117318Y0166688D01*
X0117206Y0166800D01*
X0114864Y0166800D01*
X0113931Y0165867D01*
X0110719Y0165867D01*
X0110540Y0166178D01*
X0110540Y0166178D01*
X0110540Y0166178D01*
X0109656Y0166688D01*
X0109544Y0166800D01*
X0107884Y0166800D01*
X0107120Y0166227D01*
X0106556Y0165804D01*
X0106357Y0164410D01*
X0106598Y0164090D01*
X0106397Y0163740D01*
X0106284Y0163626D01*
X0106284Y0162218D01*
X0106396Y0162106D01*
X0106907Y0161222D01*
X0107529Y0160863D01*
X0107529Y0159200D01*
X0107280Y0159200D01*
X0107529Y0159762D02*
X0069622Y0159762D01*
X0068624Y0160760D02*
X0107529Y0160760D01*
X0106907Y0161222D02*
X0106907Y0161222D01*
X0106907Y0161222D01*
X0106597Y0161759D02*
X0067625Y0161759D01*
X0069467Y0162757D02*
X0070533Y0162757D01*
X0072500Y0165000D02*
X0090000Y0182500D01*
X0091095Y0179732D02*
X0123200Y0179732D01*
X0123200Y0178734D02*
X0117762Y0178734D01*
X0117494Y0178888D02*
X0117382Y0179000D01*
X0112451Y0179000D01*
X0112052Y0178600D01*
X0111553Y0178888D01*
X0111441Y0179000D01*
X0109410Y0179000D01*
X0108539Y0178129D01*
X0108362Y0178186D01*
X0107317Y0177846D01*
X0107097Y0178067D01*
X0104717Y0178067D01*
X0103448Y0176798D01*
X0103448Y0176604D01*
X0103448Y0176110D01*
X0103448Y0175900D01*
X0103448Y0175196D01*
X0103448Y0175196D01*
X0103448Y0173796D01*
X0104444Y0172800D01*
X0105440Y0172800D01*
X0105397Y0172765D01*
X0105362Y0172454D01*
X0105153Y0172025D01*
X0105153Y0170175D01*
X0105512Y0169438D01*
X0105715Y0168848D01*
X0105715Y0168848D01*
X0105846Y0168754D01*
X0105867Y0168711D01*
X0105943Y0168685D01*
X0106901Y0168000D01*
X0108360Y0168000D01*
X0108750Y0168279D01*
X0109579Y0167865D01*
X0110417Y0168144D01*
X0110561Y0168000D01*
X0111969Y0168000D01*
X0111987Y0168018D01*
X0112005Y0168000D01*
X0114969Y0168000D01*
X0115249Y0168281D01*
X0115714Y0168125D01*
X0116236Y0167865D01*
X0116367Y0167908D01*
X0116497Y0167865D01*
X0117019Y0168125D01*
X0117572Y0168310D01*
X0117634Y0168433D01*
X0117757Y0168494D01*
X0117941Y0169048D01*
X0118202Y0169570D01*
X0118159Y0169700D01*
X0119135Y0172630D01*
X0118572Y0173758D01*
X0118888Y0174306D01*
X0119000Y0174418D01*
X0119000Y0177382D01*
X0118888Y0177494D01*
X0118378Y0178378D01*
X0117494Y0178888D01*
X0118378Y0178378D02*
X0118378Y0178378D01*
X0118378Y0178378D01*
X0118749Y0177735D02*
X0123200Y0177735D01*
X0123200Y0176737D02*
X0119000Y0176737D01*
X0119000Y0175738D02*
X0123200Y0175738D01*
X0123200Y0174739D02*
X0119000Y0174739D01*
X0118580Y0173741D02*
X0123200Y0173741D01*
X0123200Y0172742D02*
X0119079Y0172742D01*
X0118840Y0171744D02*
X0123200Y0171744D01*
X0123200Y0170745D02*
X0118507Y0170745D01*
X0118174Y0169747D02*
X0123200Y0169747D01*
X0123200Y0168748D02*
X0117841Y0168748D01*
X0117254Y0166751D02*
X0123200Y0166751D01*
X0123200Y0165753D02*
X0118447Y0165753D01*
X0118824Y0164754D02*
X0123200Y0164754D01*
X0123200Y0163756D02*
X0118824Y0163756D01*
X0118824Y0162757D02*
X0123200Y0162757D01*
X0123200Y0161759D02*
X0118511Y0161759D01*
X0119000Y0160760D02*
X0123200Y0160760D01*
X0123200Y0159762D02*
X0119000Y0159762D01*
X0119000Y0158763D02*
X0123200Y0158763D01*
X0123200Y0157765D02*
X0119000Y0157765D01*
X0118970Y0156766D02*
X0123200Y0156766D01*
X0123200Y0155768D02*
X0118673Y0155768D01*
X0118673Y0154769D02*
X0123200Y0154769D01*
X0123200Y0153771D02*
X0118673Y0153771D01*
X0118673Y0152772D02*
X0123200Y0152772D01*
X0123200Y0151774D02*
X0118451Y0151774D01*
X0116900Y0151000D02*
X0116900Y0151000D01*
X0117034Y0149067D02*
X0116428Y0149000D01*
X0115818Y0149000D01*
X0115742Y0148924D01*
X0115635Y0148912D01*
X0115254Y0148436D01*
X0115116Y0148298D01*
X0114778Y0148569D01*
X0114346Y0149000D01*
X0114239Y0149000D01*
X0114154Y0149067D01*
X0113548Y0149000D01*
X0112938Y0149000D01*
X0112862Y0148924D01*
X0112755Y0148912D01*
X0112374Y0148436D01*
X0112054Y0148115D01*
X0111785Y0148854D01*
X0110509Y0149449D01*
X0109241Y0148989D01*
X0109226Y0149000D01*
X0107676Y0149000D01*
X0107593Y0148917D01*
X0106962Y0148552D01*
X0106346Y0149000D01*
X0104796Y0149000D01*
X0104713Y0148917D01*
X0103744Y0148357D01*
X0103744Y0148357D01*
X0103184Y0147388D01*
X0103100Y0147304D01*
X0103100Y0145896D01*
X0103251Y0145745D01*
X0103295Y0145643D01*
X0103282Y0145491D01*
X0103331Y0145434D01*
X0103100Y0145204D01*
X0103100Y0143796D01*
X0104096Y0142800D01*
X0106287Y0142800D01*
X0106920Y0142749D01*
X0106981Y0142800D01*
X0109167Y0142800D01*
X0109800Y0142749D01*
X0109861Y0142800D01*
X0109940Y0142800D01*
X0110254Y0143114D01*
X0110315Y0142946D01*
X0111592Y0142351D01*
X0112827Y0142800D01*
X0118004Y0142800D01*
X0119000Y0143796D01*
X0119000Y0145204D01*
X0118610Y0145594D01*
X0119067Y0146166D01*
X0118912Y0147565D01*
X0117658Y0148569D01*
X0117226Y0149000D01*
X0117119Y0149000D01*
X0117034Y0149067D01*
X0117448Y0148778D02*
X0123200Y0148778D01*
X0123200Y0147780D02*
X0118644Y0147780D01*
X0118999Y0146781D02*
X0123200Y0146781D01*
X0123200Y0145783D02*
X0118761Y0145783D01*
X0119000Y0144784D02*
X0123200Y0144784D01*
X0123200Y0143786D02*
X0118990Y0143786D01*
X0123200Y0142787D02*
X0112792Y0142787D01*
X0110656Y0142787D02*
X0109846Y0142787D01*
X0109326Y0142787D02*
X0106966Y0142787D01*
X0106446Y0142787D02*
X0090600Y0142787D01*
X0090600Y0141789D02*
X0123200Y0141789D01*
X0123200Y0140790D02*
X0090600Y0140790D01*
X0090600Y0139792D02*
X0123200Y0139792D01*
X0123200Y0138793D02*
X0090600Y0138793D01*
X0090600Y0137795D02*
X0123200Y0137795D01*
X0123200Y0136796D02*
X0090600Y0136796D01*
X0090600Y0135798D02*
X0123200Y0135798D01*
X0123200Y0134799D02*
X0090600Y0134799D01*
X0090567Y0131803D02*
X0100697Y0131803D01*
X0101695Y0130805D02*
X0090153Y0130805D01*
X0089191Y0129806D02*
X0102500Y0129806D01*
X0102500Y0128808D02*
X0088192Y0128808D01*
X0087194Y0127809D02*
X0102500Y0127809D01*
X0102500Y0126811D02*
X0086195Y0126811D01*
X0085196Y0125812D02*
X0102500Y0125812D01*
X0102500Y0124814D02*
X0084116Y0124814D01*
X0090600Y0143786D02*
X0103111Y0143786D01*
X0103100Y0144784D02*
X0090600Y0144784D01*
X0090600Y0145783D02*
X0103214Y0145783D01*
X0103100Y0146781D02*
X0090600Y0146781D01*
X0090600Y0147780D02*
X0103410Y0147780D01*
X0103744Y0148357D02*
X0103744Y0148357D01*
X0104473Y0148778D02*
X0090326Y0148778D01*
X0089607Y0149777D02*
X0123200Y0149777D01*
X0123200Y0150775D02*
X0088609Y0150775D01*
X0089256Y0150128D02*
X0089256Y0150128D01*
X0087610Y0151774D02*
X0106885Y0151774D01*
X0106286Y0152772D02*
X0086612Y0152772D01*
X0085613Y0153771D02*
X0106284Y0153771D01*
X0106284Y0154769D02*
X0084615Y0154769D01*
X0083616Y0155768D02*
X0106505Y0155768D01*
X0106314Y0156766D02*
X0082618Y0156766D01*
X0081426Y0157765D02*
X0106284Y0157765D01*
X0106284Y0162757D02*
X0074467Y0162757D01*
X0075206Y0163756D02*
X0106407Y0163756D01*
X0106407Y0164754D02*
X0075476Y0164754D01*
X0076081Y0165753D02*
X0106549Y0165753D01*
X0107819Y0166751D02*
X0077080Y0166751D01*
X0078078Y0167750D02*
X0123200Y0167750D01*
X0114816Y0166751D02*
X0109593Y0166751D01*
X0105848Y0168748D02*
X0079077Y0168748D01*
X0080075Y0169747D02*
X0105362Y0169747D01*
X0105153Y0170745D02*
X0081074Y0170745D01*
X0082072Y0171744D02*
X0105153Y0171744D01*
X0105394Y0172742D02*
X0083071Y0172742D01*
X0084069Y0173741D02*
X0103503Y0173741D01*
X0103448Y0174739D02*
X0085068Y0174739D01*
X0086066Y0175738D02*
X0103448Y0175738D01*
X0103448Y0176604D02*
X0103448Y0176604D01*
X0103448Y0176737D02*
X0087065Y0176737D01*
X0088063Y0177735D02*
X0104386Y0177735D01*
X0108362Y0178186D02*
X0108362Y0178186D01*
X0109144Y0178734D02*
X0089062Y0178734D01*
X0085000Y0182500D02*
X0082500Y0180000D01*
X0082453Y0179955D01*
X0082403Y0179913D01*
X0082350Y0179873D01*
X0082296Y0179837D01*
X0082239Y0179805D01*
X0082180Y0179775D01*
X0082120Y0179749D01*
X0082059Y0179727D01*
X0081996Y0179708D01*
X0081932Y0179693D01*
X0081868Y0179682D01*
X0081803Y0179674D01*
X0081738Y0179670D01*
X0081672Y0179670D01*
X0081607Y0179674D01*
X0081542Y0179682D01*
X0081478Y0179693D01*
X0081414Y0179708D01*
X0081351Y0179727D01*
X0081290Y0179749D01*
X0081230Y0179775D01*
X0081171Y0179805D01*
X0081114Y0179837D01*
X0081060Y0179873D01*
X0081007Y0179913D01*
X0080957Y0179955D01*
X0080910Y0180000D01*
X0080909Y0180000D02*
X0080789Y0180120D01*
X0080789Y0180119D02*
X0080742Y0180164D01*
X0080692Y0180206D01*
X0080639Y0180246D01*
X0080585Y0180282D01*
X0080528Y0180314D01*
X0080469Y0180344D01*
X0080409Y0180370D01*
X0080348Y0180392D01*
X0080285Y0180411D01*
X0080221Y0180426D01*
X0080157Y0180437D01*
X0080092Y0180445D01*
X0080027Y0180449D01*
X0079961Y0180449D01*
X0079896Y0180445D01*
X0079831Y0180437D01*
X0079767Y0180426D01*
X0079703Y0180411D01*
X0079640Y0180392D01*
X0079579Y0180370D01*
X0079519Y0180344D01*
X0079460Y0180314D01*
X0079403Y0180282D01*
X0079349Y0180246D01*
X0079296Y0180206D01*
X0079246Y0180164D01*
X0079199Y0180119D01*
X0079198Y0180120D02*
X0078430Y0179352D01*
X0078431Y0179351D02*
X0078386Y0179304D01*
X0078344Y0179254D01*
X0078304Y0179201D01*
X0078268Y0179147D01*
X0078236Y0179090D01*
X0078206Y0179031D01*
X0078180Y0178971D01*
X0078158Y0178910D01*
X0078139Y0178847D01*
X0078124Y0178783D01*
X0078113Y0178719D01*
X0078105Y0178654D01*
X0078101Y0178589D01*
X0078101Y0178523D01*
X0078105Y0178458D01*
X0078113Y0178393D01*
X0078124Y0178329D01*
X0078139Y0178265D01*
X0078158Y0178202D01*
X0078180Y0178141D01*
X0078206Y0178081D01*
X0078236Y0178022D01*
X0078268Y0177965D01*
X0078304Y0177911D01*
X0078344Y0177858D01*
X0078386Y0177808D01*
X0078431Y0177761D01*
X0078430Y0177761D02*
X0078550Y0177641D01*
X0078595Y0177594D01*
X0078637Y0177544D01*
X0078677Y0177491D01*
X0078713Y0177437D01*
X0078745Y0177380D01*
X0078775Y0177321D01*
X0078801Y0177261D01*
X0078823Y0177200D01*
X0078842Y0177137D01*
X0078857Y0177073D01*
X0078868Y0177009D01*
X0078876Y0176944D01*
X0078880Y0176879D01*
X0078880Y0176813D01*
X0078876Y0176748D01*
X0078868Y0176683D01*
X0078857Y0176619D01*
X0078842Y0176555D01*
X0078823Y0176492D01*
X0078801Y0176431D01*
X0078775Y0176371D01*
X0078745Y0176312D01*
X0078713Y0176255D01*
X0078677Y0176201D01*
X0078637Y0176148D01*
X0078595Y0176098D01*
X0078550Y0176051D01*
X0078550Y0176050D02*
X0077782Y0175282D01*
X0077782Y0175283D02*
X0077735Y0175238D01*
X0077685Y0175196D01*
X0077632Y0175156D01*
X0077578Y0175120D01*
X0077521Y0175088D01*
X0077462Y0175058D01*
X0077402Y0175032D01*
X0077341Y0175010D01*
X0077278Y0174991D01*
X0077214Y0174976D01*
X0077150Y0174965D01*
X0077085Y0174957D01*
X0077020Y0174953D01*
X0076954Y0174953D01*
X0076889Y0174957D01*
X0076824Y0174965D01*
X0076760Y0174976D01*
X0076696Y0174991D01*
X0076633Y0175010D01*
X0076572Y0175032D01*
X0076512Y0175058D01*
X0076453Y0175088D01*
X0076396Y0175120D01*
X0076342Y0175156D01*
X0076289Y0175196D01*
X0076239Y0175238D01*
X0076192Y0175283D01*
X0076191Y0175282D02*
X0076071Y0175402D01*
X0076024Y0175447D01*
X0075974Y0175489D01*
X0075921Y0175529D01*
X0075867Y0175565D01*
X0075810Y0175597D01*
X0075751Y0175627D01*
X0075691Y0175653D01*
X0075630Y0175675D01*
X0075567Y0175694D01*
X0075503Y0175709D01*
X0075439Y0175720D01*
X0075374Y0175728D01*
X0075309Y0175732D01*
X0075243Y0175732D01*
X0075178Y0175728D01*
X0075113Y0175720D01*
X0075049Y0175709D01*
X0074985Y0175694D01*
X0074922Y0175675D01*
X0074861Y0175653D01*
X0074801Y0175627D01*
X0074742Y0175597D01*
X0074685Y0175565D01*
X0074631Y0175529D01*
X0074578Y0175489D01*
X0074528Y0175447D01*
X0074481Y0175402D01*
X0074480Y0175402D02*
X0073712Y0174634D01*
X0073713Y0174634D02*
X0073668Y0174587D01*
X0073626Y0174537D01*
X0073586Y0174484D01*
X0073550Y0174430D01*
X0073518Y0174373D01*
X0073488Y0174314D01*
X0073462Y0174254D01*
X0073440Y0174193D01*
X0073421Y0174130D01*
X0073406Y0174066D01*
X0073395Y0174002D01*
X0073387Y0173937D01*
X0073383Y0173872D01*
X0073383Y0173806D01*
X0073387Y0173741D01*
X0073395Y0173676D01*
X0073406Y0173612D01*
X0073421Y0173548D01*
X0073440Y0173485D01*
X0073462Y0173424D01*
X0073488Y0173364D01*
X0073518Y0173305D01*
X0073550Y0173248D01*
X0073586Y0173194D01*
X0073626Y0173141D01*
X0073668Y0173091D01*
X0073713Y0173044D01*
X0073712Y0173043D02*
X0073832Y0172923D01*
X0073877Y0172876D01*
X0073919Y0172826D01*
X0073959Y0172773D01*
X0073995Y0172719D01*
X0074027Y0172662D01*
X0074057Y0172603D01*
X0074083Y0172543D01*
X0074105Y0172482D01*
X0074124Y0172419D01*
X0074139Y0172355D01*
X0074150Y0172291D01*
X0074158Y0172226D01*
X0074162Y0172161D01*
X0074162Y0172095D01*
X0074158Y0172030D01*
X0074150Y0171965D01*
X0074139Y0171901D01*
X0074124Y0171837D01*
X0074105Y0171774D01*
X0074083Y0171713D01*
X0074057Y0171653D01*
X0074027Y0171594D01*
X0073995Y0171537D01*
X0073959Y0171483D01*
X0073919Y0171430D01*
X0073877Y0171380D01*
X0073832Y0171333D01*
X0073832Y0171332D02*
X0067500Y0165000D01*
X0066361Y0167750D02*
X0061634Y0167750D01*
X0060636Y0168748D02*
X0068420Y0168748D01*
X0069419Y0169747D02*
X0059637Y0169747D01*
X0058639Y0170745D02*
X0070417Y0170745D01*
X0071416Y0171744D02*
X0057640Y0171744D01*
X0056642Y0172742D02*
X0071566Y0172742D01*
X0071299Y0173741D02*
X0055643Y0173741D01*
X0054645Y0174739D02*
X0071514Y0174739D01*
X0071706Y0175456D02*
X0071706Y0175456D01*
X0071712Y0175462D02*
X0071712Y0175462D01*
X0071988Y0175738D02*
X0053646Y0175738D01*
X0052648Y0176737D02*
X0072986Y0176737D01*
X0073658Y0177408D02*
X0073658Y0177408D01*
X0074877Y0177735D02*
X0051649Y0177735D01*
X0050651Y0178734D02*
X0076038Y0178734D01*
X0075990Y0178556D02*
X0075990Y0178556D01*
X0076211Y0177735D02*
X0075674Y0177735D01*
X0076305Y0179732D02*
X0049652Y0179732D01*
X0050128Y0179256D02*
X0050128Y0179256D01*
X0048653Y0180731D02*
X0076980Y0180731D01*
X0077016Y0180766D02*
X0077016Y0180766D01*
X0076430Y0180180D02*
X0076430Y0180180D01*
X0076424Y0180174D02*
X0076424Y0180174D01*
X0076424Y0180174D01*
X0077979Y0181729D02*
X0047655Y0181729D01*
X0046656Y0182728D02*
X0082024Y0182728D01*
X0081611Y0182126D02*
X0081611Y0182126D01*
X0082286Y0183726D02*
X0045658Y0183726D01*
X0044659Y0184725D02*
X0083015Y0184725D01*
X0079193Y0187706D02*
X0079516Y0188339D01*
X0079735Y0189014D01*
X0079846Y0189716D01*
X0079846Y0191209D01*
X0079870Y0191281D01*
X0079886Y0191297D01*
X0079886Y0191330D01*
X0079958Y0191551D01*
X0079886Y0191691D01*
X0079886Y0191911D01*
X0079950Y0192522D01*
X0079886Y0192601D01*
X0079886Y0193564D01*
X0079950Y0193644D01*
X0079898Y0194142D01*
X0080769Y0194142D01*
X0081899Y0194610D01*
X0082764Y0195475D01*
X0083232Y0196605D01*
X0083232Y0197828D01*
X0082764Y0198958D01*
X0081899Y0199823D01*
X0080769Y0200291D01*
X0079546Y0200291D01*
X0078416Y0199823D01*
X0078190Y0199597D01*
X0077699Y0199953D01*
X0077067Y0200276D01*
X0076391Y0200495D01*
X0075690Y0200606D01*
X0075671Y0200606D01*
X0075671Y0198731D01*
X0075406Y0198787D01*
X0075371Y0198810D01*
X0075335Y0198802D01*
X0075298Y0198810D01*
X0075263Y0198787D01*
X0074998Y0198731D01*
X0074998Y0200606D01*
X0074980Y0200606D01*
X0074278Y0200495D01*
X0073603Y0200276D01*
X0072970Y0199953D01*
X0072395Y0199536D01*
X0071893Y0199034D01*
X0071476Y0198459D01*
X0071153Y0197826D01*
X0070934Y0197151D01*
X0070823Y0196450D01*
X0070823Y0194957D01*
X0070799Y0194884D01*
X0070783Y0194868D01*
X0070783Y0194836D01*
X0070712Y0194615D01*
X0070783Y0194474D01*
X0070783Y0194254D01*
X0070719Y0193644D01*
X0070783Y0193564D01*
X0070783Y0192601D01*
X0070719Y0192522D01*
X0070783Y0191911D01*
X0070783Y0191691D01*
X0070712Y0191551D01*
X0070783Y0191330D01*
X0070783Y0191297D01*
X0070799Y0191281D01*
X0070823Y0191209D01*
X0070823Y0189716D01*
X0070934Y0189014D01*
X0071153Y0188339D01*
X0071476Y0187706D01*
X0071893Y0187132D01*
X0072395Y0186629D01*
X0072970Y0186212D01*
X0073603Y0185890D01*
X0074278Y0185670D01*
X0074980Y0185559D01*
X0074998Y0185559D01*
X0074998Y0187435D01*
X0075263Y0187378D01*
X0075298Y0187355D01*
X0075335Y0187363D01*
X0075371Y0187355D01*
X0075406Y0187378D01*
X0075671Y0187435D01*
X0075671Y0185559D01*
X0075690Y0185559D01*
X0076391Y0185670D01*
X0077067Y0185890D01*
X0077699Y0186212D01*
X0078274Y0186629D01*
X0078776Y0187132D01*
X0079193Y0187706D01*
X0079201Y0187720D02*
X0100799Y0187720D01*
X0100807Y0187706D02*
X0101224Y0187132D01*
X0101726Y0186629D01*
X0102301Y0186212D01*
X0102933Y0185890D01*
X0103609Y0185670D01*
X0104310Y0185559D01*
X0104329Y0185559D01*
X0104329Y0187435D01*
X0104594Y0187378D01*
X0104629Y0187355D01*
X0104665Y0187363D01*
X0104702Y0187355D01*
X0104737Y0187378D01*
X0105002Y0187435D01*
X0105002Y0185559D01*
X0105020Y0185559D01*
X0105722Y0185670D01*
X0106397Y0185890D01*
X0107030Y0186212D01*
X0107605Y0186629D01*
X0108107Y0187132D01*
X0108524Y0187706D01*
X0108847Y0188339D01*
X0109066Y0189014D01*
X0109177Y0189716D01*
X0109177Y0191209D01*
X0109201Y0191281D01*
X0109217Y0191297D01*
X0109217Y0191330D01*
X0109288Y0191551D01*
X0109217Y0191691D01*
X0109217Y0191911D01*
X0109281Y0192522D01*
X0109217Y0192601D01*
X0109217Y0193564D01*
X0109281Y0193644D01*
X0109217Y0194254D01*
X0109217Y0194474D01*
X0109288Y0194615D01*
X0109217Y0194836D01*
X0109217Y0194868D01*
X0109201Y0194884D01*
X0109177Y0194957D01*
X0109177Y0196450D01*
X0109066Y0197151D01*
X0108847Y0197826D01*
X0108524Y0198459D01*
X0108107Y0199034D01*
X0107605Y0199536D01*
X0107030Y0199953D01*
X0106397Y0200276D01*
X0105722Y0200495D01*
X0105020Y0200606D01*
X0105002Y0200606D01*
X0105002Y0198731D01*
X0104737Y0198787D01*
X0104702Y0198810D01*
X0104665Y0198802D01*
X0104629Y0198810D01*
X0104594Y0198787D01*
X0104329Y0198731D01*
X0104329Y0200606D01*
X0104310Y0200606D01*
X0103609Y0200495D01*
X0102933Y0200276D01*
X0102301Y0199953D01*
X0101810Y0199597D01*
X0101584Y0199823D01*
X0100454Y0200291D01*
X0099231Y0200291D01*
X0098101Y0199823D01*
X0097236Y0198958D01*
X0096768Y0197828D01*
X0096768Y0196605D01*
X0097236Y0195475D01*
X0098101Y0194610D01*
X0099231Y0194142D01*
X0100102Y0194142D01*
X0100050Y0193644D01*
X0100114Y0193564D01*
X0100114Y0192601D01*
X0100050Y0192522D01*
X0100114Y0191911D01*
X0100114Y0191691D01*
X0100042Y0191551D01*
X0100114Y0191330D01*
X0100114Y0191297D01*
X0100130Y0191281D01*
X0100154Y0191209D01*
X0100154Y0189716D01*
X0100265Y0189014D01*
X0100484Y0188339D01*
X0100807Y0187706D01*
X0100361Y0188719D02*
X0079639Y0188719D01*
X0079846Y0189717D02*
X0100154Y0189717D01*
X0100154Y0190716D02*
X0079846Y0190716D01*
X0079886Y0191714D02*
X0100114Y0191714D01*
X0100114Y0192713D02*
X0079886Y0192713D01*
X0079943Y0193711D02*
X0100057Y0193711D01*
X0098001Y0194710D02*
X0081999Y0194710D01*
X0082861Y0195708D02*
X0097139Y0195708D01*
X0096768Y0196707D02*
X0083232Y0196707D01*
X0083232Y0197705D02*
X0096768Y0197705D01*
X0097130Y0198704D02*
X0082870Y0198704D01*
X0082020Y0199702D02*
X0097980Y0199702D01*
X0101705Y0199702D02*
X0101955Y0199702D01*
X0104329Y0199702D02*
X0105002Y0199702D01*
X0107376Y0199702D02*
X0119927Y0199702D01*
X0120635Y0200410D02*
X0120635Y0200410D01*
X0121336Y0200701D02*
X0057648Y0200701D01*
X0057523Y0200401D02*
X0057976Y0201495D01*
X0057976Y0202679D01*
X0057523Y0203773D01*
X0057046Y0204250D01*
X0059041Y0204250D01*
X0059564Y0203727D01*
X0060658Y0203274D01*
X0061842Y0203274D01*
X0062936Y0203727D01*
X0063773Y0204564D01*
X0064226Y0205658D01*
X0064226Y0206842D01*
X0063773Y0207936D01*
X0062936Y0208773D01*
X0061842Y0209226D01*
X0060658Y0209226D01*
X0059564Y0208773D01*
X0059041Y0208250D01*
X0039172Y0208250D01*
X0021672Y0190750D01*
X0020500Y0189578D01*
X0020500Y0180959D01*
X0019977Y0180436D01*
X0019524Y0179342D01*
X0019524Y0178158D01*
X0019977Y0177064D01*
X0020814Y0176227D01*
X0021908Y0175774D01*
X0023092Y0175774D01*
X0024186Y0176227D01*
X0025023Y0177064D01*
X0025476Y0178158D01*
X0025476Y0179342D01*
X0025023Y0180436D01*
X0024500Y0180959D01*
X0024500Y0187922D01*
X0040828Y0204250D01*
X0052954Y0204250D01*
X0052477Y0203773D01*
X0052024Y0202679D01*
X0052024Y0201495D01*
X0052477Y0200401D01*
X0053314Y0199563D01*
X0054408Y0199110D01*
X0055592Y0199110D01*
X0056686Y0199563D01*
X0057523Y0200401D01*
X0056825Y0199702D02*
X0072624Y0199702D01*
X0071653Y0198704D02*
X0042857Y0198704D01*
X0043100Y0197705D02*
X0071114Y0197705D01*
X0070864Y0196707D02*
X0043100Y0196707D01*
X0043100Y0195708D02*
X0070823Y0195708D01*
X0070743Y0194710D02*
X0043100Y0194710D01*
X0043100Y0193711D02*
X0070726Y0193711D01*
X0070783Y0192713D02*
X0043100Y0192713D01*
X0043100Y0191714D02*
X0070783Y0191714D01*
X0070823Y0190716D02*
X0043100Y0190716D01*
X0043100Y0189717D02*
X0070823Y0189717D01*
X0071030Y0188719D02*
X0043100Y0188719D01*
X0043100Y0187720D02*
X0071469Y0187720D01*
X0072303Y0186722D02*
X0043100Y0186722D01*
X0043661Y0185723D02*
X0074115Y0185723D01*
X0074998Y0185723D02*
X0075671Y0185723D01*
X0076554Y0185723D02*
X0103446Y0185723D01*
X0104329Y0185723D02*
X0105002Y0185723D01*
X0105885Y0185723D02*
X0123200Y0185723D01*
X0123200Y0184725D02*
X0091985Y0184725D01*
X0092714Y0183726D02*
X0123200Y0183726D01*
X0123200Y0182728D02*
X0092976Y0182728D01*
X0092902Y0181729D02*
X0123200Y0181729D01*
X0123200Y0180731D02*
X0092440Y0180731D01*
X0088015Y0184725D02*
X0086985Y0184725D01*
X0078366Y0186722D02*
X0101634Y0186722D01*
X0104329Y0186722D02*
X0105002Y0186722D01*
X0107697Y0186722D02*
X0122141Y0186722D01*
X0120635Y0187346D02*
X0120635Y0187346D01*
X0120261Y0187720D02*
X0108531Y0187720D01*
X0108970Y0188719D02*
X0119262Y0188719D01*
X0118468Y0189513D02*
X0118468Y0189513D01*
X0118383Y0189717D02*
X0109177Y0189717D01*
X0109177Y0190716D02*
X0117969Y0190716D01*
X0117556Y0191714D02*
X0109217Y0191714D01*
X0109217Y0192713D02*
X0117294Y0192713D01*
X0117294Y0193711D02*
X0109274Y0193711D01*
X0109257Y0194710D02*
X0117294Y0194710D01*
X0117418Y0195708D02*
X0109177Y0195708D01*
X0109136Y0196707D02*
X0117831Y0196707D01*
X0118245Y0197705D02*
X0108886Y0197705D01*
X0108347Y0198704D02*
X0118929Y0198704D01*
X0123200Y0201699D02*
X0057976Y0201699D01*
X0057968Y0202698D02*
X0073259Y0202698D01*
X0074703Y0202698D02*
X0074785Y0202698D01*
X0076229Y0202698D02*
X0103771Y0202698D01*
X0105215Y0202698D02*
X0105297Y0202698D01*
X0106741Y0202698D02*
X0123200Y0202698D01*
X0123200Y0203696D02*
X0108052Y0203696D01*
X0108609Y0204695D02*
X0123200Y0204695D01*
X0123145Y0205693D02*
X0108937Y0205693D01*
X0109040Y0206692D02*
X0122966Y0206692D01*
X0122642Y0207690D02*
X0109039Y0207690D01*
X0109039Y0208689D02*
X0122317Y0208689D01*
X0121605Y0209687D02*
X0109103Y0209687D01*
X0108823Y0210686D02*
X0120880Y0210686D01*
X0119579Y0211684D02*
X0108488Y0211684D01*
X0107766Y0212683D02*
X0117563Y0212683D01*
X0116283Y0213099D02*
X0116283Y0213099D01*
X0102746Y0212683D02*
X0077254Y0212683D01*
X0077976Y0211684D02*
X0102024Y0211684D01*
X0101688Y0210686D02*
X0078312Y0210686D01*
X0078591Y0209687D02*
X0101409Y0209687D01*
X0101472Y0208689D02*
X0078528Y0208689D01*
X0078528Y0207690D02*
X0101472Y0207690D01*
X0101472Y0206692D02*
X0078528Y0206692D01*
X0078426Y0205693D02*
X0101574Y0205693D01*
X0101902Y0204695D02*
X0078098Y0204695D01*
X0077540Y0203696D02*
X0102460Y0203696D01*
X0111820Y0178734D02*
X0112185Y0178734D01*
X0111813Y0148778D02*
X0112648Y0148778D01*
X0114568Y0148778D02*
X0115528Y0148778D01*
X0107353Y0148778D02*
X0106651Y0148778D01*
X0101528Y0133801D02*
X0123200Y0133801D01*
X0123200Y0132802D02*
X0102526Y0132802D01*
X0103525Y0131803D02*
X0123200Y0131803D01*
X0123200Y0130805D02*
X0104500Y0130805D01*
X0104500Y0129806D02*
X0123200Y0129806D01*
X0123200Y0128808D02*
X0104500Y0128808D01*
X0104500Y0127809D02*
X0123200Y0127809D01*
X0123200Y0126811D02*
X0104500Y0126811D01*
X0104500Y0125812D02*
X0123200Y0125812D01*
X0123200Y0124814D02*
X0104500Y0124814D01*
X0104500Y0123815D02*
X0123200Y0123815D01*
X0123200Y0122817D02*
X0104500Y0122817D01*
X0104500Y0121818D02*
X0123200Y0121818D01*
X0123200Y0120820D02*
X0104500Y0120820D01*
X0104500Y0119821D02*
X0123200Y0119821D01*
X0123200Y0118823D02*
X0104500Y0118823D01*
X0104500Y0117824D02*
X0123200Y0117824D01*
X0123200Y0116826D02*
X0104500Y0116826D01*
X0104500Y0115827D02*
X0123200Y0115827D01*
X0123200Y0114829D02*
X0104500Y0114829D01*
X0104500Y0113830D02*
X0123200Y0113830D01*
X0123200Y0112832D02*
X0104500Y0112832D01*
X0104500Y0111833D02*
X0123200Y0111833D01*
X0123200Y0110835D02*
X0104500Y0110835D01*
X0104500Y0109836D02*
X0123200Y0109836D01*
X0123200Y0108838D02*
X0104166Y0108838D01*
X0103168Y0107839D02*
X0123200Y0107839D01*
X0123200Y0106841D02*
X0102169Y0106841D01*
X0101171Y0105842D02*
X0123200Y0105842D01*
X0123200Y0104844D02*
X0100172Y0104844D01*
X0099174Y0103845D02*
X0123200Y0103845D01*
X0123200Y0102847D02*
X0098175Y0102847D01*
X0097177Y0101848D02*
X0123200Y0101848D01*
X0123200Y0100850D02*
X0096178Y0100850D01*
X0095180Y0099851D02*
X0123200Y0099851D01*
X0123200Y0098853D02*
X0094500Y0098853D01*
X0094500Y0097854D02*
X0123200Y0097854D01*
X0123200Y0096856D02*
X0094500Y0096856D01*
X0094500Y0095857D02*
X0123200Y0095857D01*
X0123200Y0094859D02*
X0094500Y0094859D01*
X0094500Y0093860D02*
X0123200Y0093860D01*
X0123200Y0092862D02*
X0094500Y0092862D01*
X0094500Y0091863D02*
X0123200Y0091863D01*
X0123200Y0090865D02*
X0094500Y0090865D01*
X0094500Y0089866D02*
X0123200Y0089866D01*
X0123200Y0088868D02*
X0094500Y0088868D01*
X0094500Y0087869D02*
X0123200Y0087869D01*
X0123200Y0086870D02*
X0094500Y0086870D01*
X0094500Y0085872D02*
X0123200Y0085872D01*
X0123200Y0084873D02*
X0094500Y0084873D01*
X0094875Y0083875D02*
X0123200Y0083875D01*
X0092500Y0083875D02*
X0001800Y0083875D01*
X0001800Y0084873D02*
X0092500Y0084873D01*
X0092500Y0085872D02*
X0001800Y0085872D01*
X0001800Y0086870D02*
X0092500Y0086870D01*
X0092500Y0087869D02*
X0039578Y0087869D01*
X0037500Y0090000D02*
X0037500Y0134911D01*
X0036407Y0136004D01*
X0040741Y0137795D02*
X0041916Y0137795D01*
X0041561Y0136796D02*
X0041096Y0136796D01*
X0041096Y0135798D02*
X0041561Y0135798D01*
X0041674Y0134799D02*
X0040984Y0134799D01*
X0039500Y0131803D02*
X0044138Y0131803D01*
X0048362Y0131803D02*
X0053980Y0131803D01*
X0051516Y0134799D02*
X0050826Y0134799D01*
X0050939Y0135798D02*
X0051404Y0135798D01*
X0051404Y0136796D02*
X0050939Y0136796D01*
X0050584Y0137795D02*
X0051759Y0137795D01*
X0052250Y0138793D02*
X0050092Y0138793D01*
X0049094Y0139792D02*
X0053249Y0139792D01*
X0054008Y0144784D02*
X0048334Y0144784D01*
X0048906Y0145021D02*
X0050225Y0146340D01*
X0050939Y0148063D01*
X0050939Y0149929D01*
X0050225Y0151652D01*
X0048906Y0152971D01*
X0047183Y0153685D01*
X0045317Y0153685D01*
X0043594Y0152971D01*
X0042275Y0151652D01*
X0041561Y0149929D01*
X0041561Y0148063D01*
X0042275Y0146340D01*
X0043594Y0145021D01*
X0045317Y0144307D01*
X0047183Y0144307D01*
X0048906Y0145021D01*
X0049668Y0145783D02*
X0052675Y0145783D01*
X0051935Y0146781D02*
X0050408Y0146781D01*
X0050821Y0147780D02*
X0051521Y0147780D01*
X0051404Y0148778D02*
X0050939Y0148778D01*
X0050939Y0149777D02*
X0051404Y0149777D01*
X0051754Y0150775D02*
X0050588Y0150775D01*
X0050104Y0151774D02*
X0052239Y0151774D01*
X0053237Y0152772D02*
X0049105Y0152772D01*
X0045065Y0154769D02*
X0029935Y0154769D01*
X0028750Y0157500D02*
X0046250Y0157500D01*
X0044303Y0159762D02*
X0030697Y0159762D01*
X0033552Y0152772D02*
X0017556Y0152772D01*
X0018555Y0151774D02*
X0032554Y0151774D01*
X0032069Y0150775D02*
X0020934Y0150775D01*
X0021546Y0149777D02*
X0031719Y0149777D01*
X0031719Y0148778D02*
X0021726Y0148778D01*
X0021570Y0147780D02*
X0031836Y0147780D01*
X0031364Y0146781D02*
X0020990Y0146781D01*
X0020750Y0145783D02*
X0030366Y0145783D01*
X0029367Y0144784D02*
X0020750Y0144784D01*
X0020750Y0143786D02*
X0028369Y0143786D01*
X0028000Y0142787D02*
X0020750Y0142787D01*
X0020750Y0141789D02*
X0028000Y0141789D01*
X0028000Y0140790D02*
X0020750Y0140790D01*
X0020750Y0139792D02*
X0028000Y0139792D01*
X0028000Y0138793D02*
X0020750Y0138793D01*
X0020750Y0137795D02*
X0028000Y0137795D01*
X0028000Y0136796D02*
X0020750Y0136796D01*
X0020750Y0135798D02*
X0028000Y0135798D01*
X0028000Y0134799D02*
X0020750Y0134799D01*
X0020750Y0131803D02*
X0028000Y0131803D01*
X0028867Y0130805D02*
X0020750Y0130805D01*
X0020750Y0129806D02*
X0029865Y0129806D01*
X0030500Y0128808D02*
X0020750Y0128808D01*
X0020750Y0127809D02*
X0030500Y0127809D01*
X0030500Y0126811D02*
X0020750Y0126811D01*
X0020750Y0125812D02*
X0030500Y0125812D01*
X0030500Y0124814D02*
X0020750Y0124814D01*
X0021513Y0123815D02*
X0030500Y0123815D01*
X0030500Y0122817D02*
X0022512Y0122817D01*
X0023510Y0121818D02*
X0030500Y0121818D01*
X0030500Y0120820D02*
X0024509Y0120820D01*
X0025507Y0119821D02*
X0030500Y0119821D01*
X0030500Y0118823D02*
X0026506Y0118823D01*
X0028459Y0117824D02*
X0030500Y0117824D01*
X0030500Y0116826D02*
X0029883Y0116826D01*
X0030379Y0115827D02*
X0030500Y0115827D01*
X0030476Y0114829D02*
X0030500Y0114829D01*
X0030500Y0113830D02*
X0030237Y0113830D01*
X0030500Y0112832D02*
X0029541Y0112832D01*
X0030500Y0111833D02*
X0001800Y0111833D01*
X0001800Y0110835D02*
X0030500Y0110835D01*
X0030500Y0109836D02*
X0001800Y0109836D01*
X0001800Y0108838D02*
X0030500Y0108838D01*
X0030500Y0107839D02*
X0001800Y0107839D01*
X0001800Y0106841D02*
X0030500Y0106841D01*
X0030500Y0105842D02*
X0001800Y0105842D01*
X0001800Y0104844D02*
X0030500Y0104844D01*
X0030500Y0103845D02*
X0001800Y0103845D01*
X0001800Y0102847D02*
X0030500Y0102847D01*
X0030500Y0101848D02*
X0001800Y0101848D01*
X0001800Y0100850D02*
X0030500Y0100850D01*
X0030500Y0099851D02*
X0001800Y0099851D01*
X0001800Y0098853D02*
X0030500Y0098853D01*
X0030500Y0097854D02*
X0001800Y0097854D01*
X0001800Y0096856D02*
X0030500Y0096856D01*
X0030500Y0095857D02*
X0001800Y0095857D01*
X0001800Y0094859D02*
X0030500Y0094859D01*
X0030500Y0093860D02*
X0001800Y0093860D01*
X0001800Y0092862D02*
X0030500Y0092862D01*
X0030154Y0091863D02*
X0001800Y0091863D01*
X0001800Y0090865D02*
X0029637Y0090865D01*
X0029524Y0089866D02*
X0001800Y0089866D01*
X0001800Y0088868D02*
X0029747Y0088868D01*
X0030422Y0087869D02*
X0001800Y0087869D01*
X0001800Y0082876D02*
X0092500Y0082876D01*
X0092500Y0081878D02*
X0001800Y0081878D01*
X0001800Y0080879D02*
X0092500Y0080879D01*
X0092500Y0079881D02*
X0001800Y0079881D01*
X0001800Y0078882D02*
X0092500Y0078882D01*
X0092500Y0077884D02*
X0001800Y0077884D01*
X0001800Y0076885D02*
X0092500Y0076885D01*
X0092500Y0075887D02*
X0001800Y0075887D01*
X0001800Y0068897D02*
X0025767Y0068897D01*
X0025080Y0067899D02*
X0001800Y0067899D01*
X0001800Y0066900D02*
X0024952Y0066900D01*
X0024952Y0065902D02*
X0001800Y0065902D01*
X0001800Y0064903D02*
X0024952Y0064903D01*
X0025543Y0063905D02*
X0001800Y0063905D01*
X0028781Y0068897D02*
X0030793Y0068897D01*
X0034578Y0087869D02*
X0035422Y0087869D01*
X0032500Y0090000D02*
X0032500Y0130000D01*
X0030000Y0132500D01*
X0030000Y0142589D01*
X0036407Y0148996D01*
X0040746Y0150775D02*
X0041912Y0150775D01*
X0041561Y0149777D02*
X0041096Y0149777D01*
X0041096Y0148778D02*
X0041561Y0148778D01*
X0041679Y0147780D02*
X0040979Y0147780D01*
X0040565Y0146781D02*
X0042092Y0146781D01*
X0042832Y0145783D02*
X0039825Y0145783D01*
X0038492Y0144784D02*
X0044166Y0144784D01*
X0043406Y0139792D02*
X0039251Y0139792D01*
X0040250Y0138793D02*
X0042408Y0138793D01*
X0033564Y0139792D02*
X0032000Y0139792D01*
X0032000Y0138793D02*
X0032565Y0138793D01*
X0032074Y0137795D02*
X0032000Y0137795D01*
X0040261Y0151774D02*
X0042396Y0151774D01*
X0043395Y0152772D02*
X0039263Y0152772D01*
X0051868Y0168748D02*
X0015750Y0168748D01*
X0015750Y0167750D02*
X0052866Y0167750D01*
X0053865Y0166751D02*
X0015750Y0166751D01*
X0015750Y0165753D02*
X0054863Y0165753D01*
X0055862Y0164754D02*
X0015750Y0164754D01*
X0015750Y0163756D02*
X0056860Y0163756D01*
X0057859Y0162757D02*
X0015750Y0162757D01*
X0015750Y0161759D02*
X0058857Y0161759D01*
X0062633Y0166751D02*
X0065042Y0166751D01*
X0064590Y0165753D02*
X0063631Y0165753D01*
X0072298Y0176048D02*
X0072298Y0176048D01*
X0078376Y0182126D02*
X0078376Y0182126D01*
X0075671Y0186722D02*
X0074998Y0186722D01*
X0074998Y0199702D02*
X0075671Y0199702D01*
X0078045Y0199702D02*
X0078295Y0199702D01*
X0071948Y0203696D02*
X0062862Y0203696D01*
X0063827Y0204695D02*
X0071391Y0204695D01*
X0071063Y0205693D02*
X0064226Y0205693D01*
X0064226Y0206692D02*
X0070960Y0206692D01*
X0070961Y0207690D02*
X0063875Y0207690D01*
X0063020Y0208689D02*
X0070961Y0208689D01*
X0070897Y0209687D02*
X0003395Y0209687D01*
X0002683Y0208689D02*
X0016980Y0208689D01*
X0016125Y0207690D02*
X0002358Y0207690D01*
X0002034Y0206692D02*
X0015774Y0206692D01*
X0015365Y0205693D02*
X0001855Y0205693D01*
X0001800Y0204695D02*
X0014366Y0204695D01*
X0013368Y0203696D02*
X0001800Y0203696D01*
X0001800Y0202698D02*
X0012369Y0202698D01*
X0011750Y0201699D02*
X0001800Y0201699D01*
X0001800Y0200701D02*
X0011750Y0200701D01*
X0011750Y0199702D02*
X0001800Y0199702D01*
X0001800Y0198704D02*
X0011750Y0198704D01*
X0011750Y0197705D02*
X0001800Y0197705D01*
X0001800Y0196707D02*
X0011750Y0196707D01*
X0011750Y0195708D02*
X0001800Y0195708D01*
X0001800Y0194710D02*
X0011750Y0194710D01*
X0011750Y0193711D02*
X0001800Y0193711D01*
X0001800Y0192713D02*
X0011750Y0192713D01*
X0011750Y0191714D02*
X0001800Y0191714D01*
X0001800Y0190716D02*
X0011750Y0190716D01*
X0011750Y0189717D02*
X0001800Y0189717D01*
X0001800Y0188719D02*
X0011750Y0188719D01*
X0011750Y0187720D02*
X0001800Y0187720D01*
X0001800Y0186722D02*
X0011750Y0186722D01*
X0011750Y0185723D02*
X0001800Y0185723D01*
X0001800Y0184725D02*
X0011750Y0184725D01*
X0011750Y0183726D02*
X0001800Y0183726D01*
X0001800Y0182728D02*
X0011750Y0182728D01*
X0011750Y0181729D02*
X0001800Y0181729D01*
X0001800Y0180731D02*
X0011750Y0180731D01*
X0011750Y0179732D02*
X0001800Y0179732D01*
X0001800Y0178734D02*
X0011750Y0178734D01*
X0011750Y0177735D02*
X0001800Y0177735D01*
X0001800Y0176737D02*
X0011750Y0176737D01*
X0011750Y0175738D02*
X0001800Y0175738D01*
X0001800Y0174739D02*
X0011750Y0174739D01*
X0011750Y0173741D02*
X0001800Y0173741D01*
X0001800Y0172742D02*
X0011750Y0172742D01*
X0011750Y0171744D02*
X0001800Y0171744D01*
X0001800Y0170745D02*
X0011750Y0170745D01*
X0011750Y0169747D02*
X0001800Y0169747D01*
X0001800Y0168748D02*
X0011750Y0168748D01*
X0011750Y0167750D02*
X0001800Y0167750D01*
X0001800Y0166751D02*
X0011750Y0166751D01*
X0011750Y0165753D02*
X0001800Y0165753D01*
X0001800Y0164754D02*
X0011750Y0164754D01*
X0011750Y0163756D02*
X0001800Y0163756D01*
X0001800Y0162757D02*
X0011750Y0162757D01*
X0011750Y0161759D02*
X0001800Y0161759D01*
X0001800Y0160760D02*
X0011750Y0160760D01*
X0011750Y0159762D02*
X0001800Y0159762D01*
X0001800Y0158763D02*
X0011750Y0158763D01*
X0011750Y0157765D02*
X0001800Y0157765D01*
X0001800Y0156766D02*
X0011750Y0156766D01*
X0011750Y0155768D02*
X0001800Y0155768D01*
X0001800Y0154769D02*
X0011750Y0154769D01*
X0011750Y0153771D02*
X0001800Y0153771D01*
X0001800Y0152772D02*
X0011899Y0152772D01*
X0012898Y0151774D02*
X0001800Y0151774D01*
X0001800Y0150775D02*
X0013896Y0150775D01*
X0014895Y0149777D02*
X0001800Y0149777D01*
X0001800Y0148778D02*
X0015774Y0148778D01*
X0015930Y0147780D02*
X0001800Y0147780D01*
X0001800Y0146781D02*
X0016510Y0146781D01*
X0016750Y0145783D02*
X0001800Y0145783D01*
X0001800Y0144784D02*
X0016750Y0144784D01*
X0016750Y0143786D02*
X0001800Y0143786D01*
X0001800Y0142787D02*
X0016750Y0142787D01*
X0016750Y0141789D02*
X0001800Y0141789D01*
X0001800Y0140790D02*
X0016750Y0140790D01*
X0016750Y0139792D02*
X0001800Y0139792D01*
X0001800Y0138793D02*
X0016750Y0138793D01*
X0016750Y0137795D02*
X0001800Y0137795D01*
X0001800Y0136796D02*
X0016750Y0136796D01*
X0016750Y0135798D02*
X0001800Y0135798D01*
X0001800Y0134799D02*
X0016750Y0134799D01*
X0016750Y0131803D02*
X0001800Y0131803D01*
X0001800Y0130805D02*
X0005045Y0130805D01*
X0004744Y0130504D02*
X0005740Y0131500D01*
X0011168Y0131500D01*
X0011242Y0131426D01*
X0011316Y0131500D01*
X0012724Y0131500D01*
X0013720Y0130504D01*
X0013720Y0126296D01*
X0013507Y0126083D01*
X0013516Y0126078D01*
X0013516Y0126078D01*
X0013516Y0126078D01*
X0014026Y0125194D01*
X0014138Y0125082D01*
X0014138Y0123674D01*
X0014025Y0123560D01*
X0013998Y0123513D01*
X0014213Y0123300D01*
X0014218Y0121892D01*
X0013723Y0121392D01*
X0013723Y0121392D01*
X0013298Y0120964D01*
X0013298Y0120964D01*
X0012359Y0120572D01*
X0012286Y0120500D01*
X0010878Y0120500D01*
X0010766Y0120612D01*
X0010532Y0120747D01*
X0010285Y0120500D01*
X0009507Y0120500D01*
X0009507Y0120500D01*
X0007998Y0120500D01*
X0007448Y0120900D01*
X0006949Y0120612D01*
X0006837Y0120500D01*
X0004496Y0120500D01*
X0003500Y0121496D01*
X0003500Y0125704D01*
X0003796Y0126000D01*
X0003500Y0126296D01*
X0003500Y0127704D01*
X0004496Y0128700D01*
X0004744Y0128700D01*
X0004744Y0130504D01*
X0004744Y0129806D02*
X0001800Y0129806D01*
X0001800Y0128808D02*
X0004744Y0128808D01*
X0003605Y0127809D02*
X0001800Y0127809D01*
X0001800Y0126811D02*
X0003500Y0126811D01*
X0003608Y0125812D02*
X0001800Y0125812D01*
X0001800Y0124814D02*
X0003500Y0124814D01*
X0003500Y0123815D02*
X0001800Y0123815D01*
X0001800Y0122817D02*
X0003500Y0122817D01*
X0003500Y0121818D02*
X0001800Y0121818D01*
X0001800Y0120820D02*
X0004176Y0120820D01*
X0001800Y0119821D02*
X0019850Y0119821D01*
X0020849Y0118823D02*
X0001800Y0118823D01*
X0001800Y0117824D02*
X0021847Y0117824D01*
X0022846Y0116826D02*
X0001800Y0116826D01*
X0001800Y0115827D02*
X0023844Y0115827D01*
X0024524Y0114829D02*
X0001800Y0114829D01*
X0001800Y0113830D02*
X0024763Y0113830D01*
X0025459Y0112832D02*
X0001800Y0112832D01*
X0007310Y0120820D02*
X0007558Y0120820D01*
X0012953Y0120820D02*
X0018852Y0120820D01*
X0017922Y0121750D02*
X0017922Y0121750D01*
X0017853Y0121818D02*
X0014146Y0121818D01*
X0014215Y0122817D02*
X0016855Y0122817D01*
X0016750Y0123815D02*
X0014138Y0123815D01*
X0014138Y0124814D02*
X0016750Y0124814D01*
X0016750Y0125812D02*
X0013669Y0125812D01*
X0013720Y0126811D02*
X0016750Y0126811D01*
X0016750Y0127809D02*
X0013720Y0127809D01*
X0013720Y0128808D02*
X0016750Y0128808D01*
X0016750Y0129806D02*
X0013720Y0129806D01*
X0013419Y0130805D02*
X0016750Y0130805D01*
X0018750Y0123750D02*
X0027500Y0115000D01*
X0018750Y0123750D02*
X0018750Y0148750D01*
X0013750Y0153750D01*
X0013750Y0201250D01*
X0018750Y0206250D01*
X0021375Y0207690D02*
X0038612Y0207690D01*
X0037613Y0206692D02*
X0021726Y0206692D01*
X0021726Y0205693D02*
X0036615Y0205693D01*
X0035616Y0204695D02*
X0026481Y0204695D01*
X0026686Y0204610D02*
X0025592Y0205063D01*
X0024408Y0205063D01*
X0023314Y0204610D01*
X0022477Y0203773D01*
X0022024Y0202679D01*
X0022024Y0201495D01*
X0022477Y0200401D01*
X0023314Y0199563D01*
X0024408Y0199110D01*
X0025592Y0199110D01*
X0026686Y0199563D01*
X0027523Y0200401D01*
X0027976Y0201495D01*
X0027976Y0202679D01*
X0027523Y0203773D01*
X0026686Y0204610D01*
X0027555Y0203696D02*
X0034618Y0203696D01*
X0033619Y0202698D02*
X0027968Y0202698D01*
X0027976Y0201699D02*
X0032621Y0201699D01*
X0031622Y0200701D02*
X0027648Y0200701D01*
X0026825Y0199702D02*
X0030624Y0199702D01*
X0029625Y0198704D02*
X0015750Y0198704D01*
X0015750Y0199702D02*
X0023175Y0199702D01*
X0022352Y0200701D02*
X0016029Y0200701D01*
X0017028Y0201699D02*
X0022024Y0201699D01*
X0022032Y0202698D02*
X0018026Y0202698D01*
X0020362Y0203696D02*
X0022445Y0203696D01*
X0023519Y0204695D02*
X0021327Y0204695D01*
X0020520Y0208689D02*
X0059480Y0208689D01*
X0061250Y0206250D02*
X0040000Y0206250D01*
X0022500Y0188750D01*
X0022500Y0178750D01*
X0019524Y0178734D02*
X0015750Y0178734D01*
X0015750Y0179732D02*
X0019685Y0179732D01*
X0020271Y0180731D02*
X0015750Y0180731D01*
X0015750Y0181729D02*
X0020500Y0181729D01*
X0020500Y0182728D02*
X0015750Y0182728D01*
X0015750Y0183726D02*
X0020500Y0183726D01*
X0020500Y0184725D02*
X0015750Y0184725D01*
X0015750Y0185723D02*
X0020500Y0185723D01*
X0020500Y0186722D02*
X0015750Y0186722D01*
X0015750Y0187720D02*
X0020500Y0187720D01*
X0020500Y0188719D02*
X0015750Y0188719D01*
X0015750Y0189717D02*
X0020639Y0189717D01*
X0021637Y0190716D02*
X0015750Y0190716D01*
X0015750Y0191714D02*
X0022636Y0191714D01*
X0023634Y0192713D02*
X0015750Y0192713D01*
X0015750Y0193711D02*
X0024633Y0193711D01*
X0025631Y0194710D02*
X0015750Y0194710D01*
X0015750Y0195708D02*
X0026630Y0195708D01*
X0027628Y0196707D02*
X0015750Y0196707D01*
X0015750Y0197705D02*
X0028627Y0197705D01*
X0031288Y0194710D02*
X0036900Y0194710D01*
X0036900Y0195708D02*
X0032287Y0195708D01*
X0033285Y0196707D02*
X0036900Y0196707D01*
X0036900Y0197705D02*
X0034284Y0197705D01*
X0035282Y0198704D02*
X0037143Y0198704D01*
X0037818Y0199702D02*
X0036281Y0199702D01*
X0037279Y0200701D02*
X0052352Y0200701D01*
X0052024Y0201699D02*
X0038278Y0201699D01*
X0039276Y0202698D02*
X0052032Y0202698D01*
X0052445Y0203696D02*
X0040275Y0203696D01*
X0042182Y0199702D02*
X0053175Y0199702D01*
X0057555Y0203696D02*
X0059637Y0203696D01*
X0056982Y0210686D02*
X0071177Y0210686D01*
X0071512Y0211684D02*
X0057713Y0211684D01*
X0057976Y0212683D02*
X0072234Y0212683D01*
X0053018Y0210686D02*
X0026982Y0210686D01*
X0027713Y0211684D02*
X0052287Y0211684D01*
X0052024Y0212683D02*
X0027976Y0212683D01*
X0023018Y0210686D02*
X0004120Y0210686D01*
X0005421Y0211684D02*
X0022287Y0211684D01*
X0022024Y0212683D02*
X0007437Y0212683D01*
X0027294Y0190716D02*
X0036900Y0190716D01*
X0036900Y0191714D02*
X0028293Y0191714D01*
X0029291Y0192713D02*
X0036900Y0192713D01*
X0036900Y0193711D02*
X0030290Y0193711D01*
X0026296Y0189717D02*
X0036900Y0189717D01*
X0036900Y0188719D02*
X0025297Y0188719D01*
X0024500Y0187720D02*
X0036900Y0187720D01*
X0036900Y0186722D02*
X0024500Y0186722D01*
X0024500Y0185723D02*
X0036900Y0185723D01*
X0036900Y0184725D02*
X0024500Y0184725D01*
X0024500Y0183726D02*
X0037172Y0183726D01*
X0037888Y0182728D02*
X0024500Y0182728D01*
X0024500Y0181729D02*
X0038887Y0181729D01*
X0039885Y0180731D02*
X0024729Y0180731D01*
X0025315Y0179732D02*
X0040884Y0179732D01*
X0041882Y0178734D02*
X0025476Y0178734D01*
X0025301Y0177735D02*
X0042881Y0177735D01*
X0043879Y0176737D02*
X0024696Y0176737D01*
X0020304Y0176737D02*
X0015750Y0176737D01*
X0015750Y0177735D02*
X0019699Y0177735D01*
X0015750Y0175738D02*
X0044878Y0175738D01*
X0045744Y0174872D02*
X0045744Y0174872D01*
X0045876Y0174739D02*
X0015750Y0174739D01*
X0015750Y0173741D02*
X0046875Y0173741D01*
X0047873Y0172742D02*
X0015750Y0172742D01*
X0015750Y0171744D02*
X0048872Y0171744D01*
X0049870Y0170745D02*
X0015750Y0170745D01*
X0015750Y0169747D02*
X0050869Y0169747D01*
D21*
X0047500Y0177500D02*
X0040000Y0185000D01*
X0040000Y0197500D01*
X0047500Y0177500D02*
X0070000Y0155000D01*
X0080000Y0155000D01*
X0087500Y0147500D01*
X0087500Y0132500D01*
X0082500Y0127500D01*
X0082500Y0115000D02*
X0076240Y0115000D01*
X0068760Y0115000D02*
X0062500Y0115000D01*
X0056240Y0115000D01*
X0105000Y0047500D02*
X0105000Y0046250D01*
X0107510Y0043740D01*
X0107510Y0041250D01*
X0107510Y0032500D01*
X0107510Y0018750D01*
X0095010Y0010000D02*
X0090000Y0010000D01*
X0093750Y0011260D02*
X0095010Y0010000D01*
X0093750Y0011260D02*
X0093750Y0019370D01*
X0087500Y0030000D02*
X0047500Y0030000D01*
X0043750Y0026250D01*
X0098750Y0040630D02*
X0106890Y0040630D01*
X0107510Y0041250D01*
D22*
X0004414Y0004414D02*
X0002961Y0006413D01*
X0002197Y0008764D01*
X0002100Y0010000D01*
X0002100Y0045200D01*
X0079047Y0045200D01*
X0080670Y0043577D01*
X0080670Y0036992D01*
X0081785Y0035877D01*
X0085715Y0035877D01*
X0086250Y0036412D01*
X0086785Y0035877D01*
X0090715Y0035877D01*
X0091250Y0036412D01*
X0091785Y0035877D01*
X0095715Y0035877D01*
X0096250Y0036412D01*
X0096785Y0035877D01*
X0100715Y0035877D01*
X0101830Y0036992D01*
X0101830Y0037230D01*
X0103532Y0037230D01*
X0103887Y0036875D01*
X0103151Y0036138D01*
X0103151Y0028862D01*
X0104110Y0027903D01*
X0104110Y0023347D01*
X0103151Y0022388D01*
X0103151Y0022370D01*
X0101830Y0022370D01*
X0101830Y0023008D01*
X0100715Y0024123D01*
X0096785Y0024123D01*
X0096250Y0023588D01*
X0095715Y0024123D01*
X0091785Y0024123D01*
X0091250Y0023588D01*
X0091095Y0023743D01*
X0090661Y0023993D01*
X0090178Y0024123D01*
X0088750Y0024123D01*
X0088750Y0019370D01*
X0088750Y0014617D01*
X0090178Y0014617D01*
X0090350Y0014664D01*
X0090350Y0013400D01*
X0089324Y0013400D01*
X0088074Y0012882D01*
X0087118Y0011926D01*
X0086600Y0010676D01*
X0086600Y0009324D01*
X0087118Y0008074D01*
X0088074Y0007118D01*
X0089324Y0006600D01*
X0090651Y0006600D01*
X0090651Y0006362D01*
X0091765Y0005247D01*
X0098255Y0005247D01*
X0098750Y0005743D01*
X0098865Y0005627D01*
X0099299Y0005377D01*
X0099783Y0005247D01*
X0102011Y0005247D01*
X0102011Y0009520D01*
X0102970Y0009520D01*
X0102970Y0005247D01*
X0105197Y0005247D01*
X0105681Y0005377D01*
X0106115Y0005627D01*
X0106469Y0005982D01*
X0106720Y0006415D01*
X0106849Y0006899D01*
X0106849Y0009520D01*
X0102970Y0009520D01*
X0102970Y0010480D01*
X0102011Y0010480D01*
X0102011Y0014753D01*
X0100851Y0014753D01*
X0101830Y0015732D01*
X0101830Y0016370D01*
X0103151Y0016370D01*
X0103151Y0015112D01*
X0103510Y0014753D01*
X0102970Y0014753D01*
X0102970Y0010480D01*
X0106849Y0010480D01*
X0106849Y0013101D01*
X0106720Y0013585D01*
X0106481Y0013997D01*
X0110755Y0013997D01*
X0111250Y0014493D01*
X0111365Y0014377D01*
X0111799Y0014127D01*
X0112283Y0013997D01*
X0114511Y0013997D01*
X0114511Y0018270D01*
X0115470Y0018270D01*
X0115470Y0013997D01*
X0117697Y0013997D01*
X0118181Y0014127D01*
X0118615Y0014377D01*
X0118969Y0014732D01*
X0119220Y0015165D01*
X0119349Y0015649D01*
X0119349Y0018270D01*
X0115470Y0018270D01*
X0115470Y0019230D01*
X0114511Y0019230D01*
X0114511Y0023503D01*
X0112283Y0023503D01*
X0111799Y0023373D01*
X0111365Y0023123D01*
X0111250Y0023007D01*
X0110910Y0023347D01*
X0110910Y0027903D01*
X0111250Y0028243D01*
X0111365Y0028127D01*
X0111799Y0027877D01*
X0112283Y0027747D01*
X0114511Y0027747D01*
X0114511Y0032020D01*
X0115470Y0032020D01*
X0115470Y0027747D01*
X0117697Y0027747D01*
X0118181Y0027877D01*
X0118615Y0028127D01*
X0118969Y0028482D01*
X0119220Y0028915D01*
X0119349Y0029399D01*
X0119349Y0032020D01*
X0115470Y0032020D01*
X0115470Y0032980D01*
X0114511Y0032980D01*
X0114511Y0040770D01*
X0115470Y0040770D01*
X0115470Y0037253D01*
X0115470Y0032980D01*
X0119349Y0032980D01*
X0119349Y0035601D01*
X0119220Y0036085D01*
X0118969Y0036518D01*
X0118615Y0036873D01*
X0118611Y0036875D01*
X0118615Y0036877D01*
X0118969Y0037232D01*
X0119220Y0037665D01*
X0119349Y0038149D01*
X0119349Y0040770D01*
X0115470Y0040770D01*
X0115470Y0041730D01*
X0114511Y0041730D01*
X0114511Y0046003D01*
X0112283Y0046003D01*
X0111799Y0045873D01*
X0111365Y0045623D01*
X0111250Y0045507D01*
X0110755Y0046003D01*
X0110056Y0046003D01*
X0109436Y0046623D01*
X0108400Y0047658D01*
X0108400Y0048176D01*
X0107882Y0049426D01*
X0106926Y0050382D01*
X0105676Y0050900D01*
X0104324Y0050900D01*
X0103074Y0050382D01*
X0102118Y0049426D01*
X0101600Y0048176D01*
X0101600Y0045574D01*
X0102118Y0044324D01*
X0102412Y0044030D01*
X0101830Y0044030D01*
X0101830Y0044268D01*
X0100715Y0045383D01*
X0096785Y0045383D01*
X0096250Y0044848D01*
X0096050Y0045048D01*
X0096050Y0054703D01*
X0094800Y0055953D01*
X0094800Y0081050D01*
X0095000Y0081250D01*
X0122900Y0081250D01*
X0122900Y0010000D01*
X0122803Y0008764D01*
X0122039Y0006413D01*
X0120586Y0004414D01*
X0118587Y0002961D01*
X0116236Y0002197D01*
X0115000Y0002100D01*
X0010000Y0002100D01*
X0008764Y0002197D01*
X0006413Y0002961D01*
X0004414Y0004414D01*
X0004137Y0004796D02*
X0120863Y0004796D01*
X0122025Y0006394D02*
X0106707Y0006394D01*
X0106849Y0007993D02*
X0122552Y0007993D01*
X0122868Y0009591D02*
X0102970Y0009591D01*
X0102970Y0007993D02*
X0102011Y0007993D01*
X0102011Y0006394D02*
X0102970Y0006394D01*
X0102970Y0011190D02*
X0102011Y0011190D01*
X0102011Y0012788D02*
X0102970Y0012788D01*
X0102970Y0014387D02*
X0102011Y0014387D01*
X0101830Y0015985D02*
X0103151Y0015985D01*
X0106849Y0012788D02*
X0122900Y0012788D01*
X0122900Y0011190D02*
X0106849Y0011190D01*
X0111144Y0014387D02*
X0111356Y0014387D01*
X0114511Y0014387D02*
X0115470Y0014387D01*
X0115470Y0015985D02*
X0114511Y0015985D01*
X0114511Y0017584D02*
X0115470Y0017584D01*
X0115470Y0019182D02*
X0122900Y0019182D01*
X0122900Y0017584D02*
X0119349Y0017584D01*
X0119349Y0015985D02*
X0122900Y0015985D01*
X0122900Y0014387D02*
X0118624Y0014387D01*
X0119349Y0019230D02*
X0115470Y0019230D01*
X0115470Y0023503D01*
X0117697Y0023503D01*
X0118181Y0023373D01*
X0118615Y0023123D01*
X0118969Y0022768D01*
X0119220Y0022335D01*
X0119349Y0021851D01*
X0119349Y0019230D01*
X0119349Y0020781D02*
X0122900Y0020781D01*
X0122900Y0022379D02*
X0119194Y0022379D01*
X0122900Y0023978D02*
X0110910Y0023978D01*
X0110910Y0025576D02*
X0122900Y0025576D01*
X0122900Y0027175D02*
X0110910Y0027175D01*
X0114511Y0028773D02*
X0115470Y0028773D01*
X0115470Y0030372D02*
X0114511Y0030372D01*
X0114511Y0031970D02*
X0115470Y0031970D01*
X0115470Y0033569D02*
X0114511Y0033569D01*
X0114511Y0035167D02*
X0115470Y0035167D01*
X0115470Y0036766D02*
X0114511Y0036766D01*
X0114511Y0038364D02*
X0115470Y0038364D01*
X0115470Y0039963D02*
X0114511Y0039963D01*
X0115470Y0041561D02*
X0122900Y0041561D01*
X0122900Y0039963D02*
X0119349Y0039963D01*
X0119349Y0038364D02*
X0122900Y0038364D01*
X0122900Y0036766D02*
X0118722Y0036766D01*
X0119349Y0035167D02*
X0122900Y0035167D01*
X0122900Y0033569D02*
X0119349Y0033569D01*
X0119349Y0031970D02*
X0122900Y0031970D01*
X0122900Y0030372D02*
X0119349Y0030372D01*
X0119137Y0028773D02*
X0122900Y0028773D01*
X0115470Y0022379D02*
X0114511Y0022379D01*
X0114511Y0020781D02*
X0115470Y0020781D01*
X0104110Y0023978D02*
X0100860Y0023978D01*
X0101830Y0022379D02*
X0103151Y0022379D01*
X0104110Y0025576D02*
X0047884Y0025576D01*
X0048908Y0026600D02*
X0088176Y0026600D01*
X0089426Y0027118D01*
X0090382Y0028074D01*
X0090900Y0029324D01*
X0090900Y0030676D01*
X0090382Y0031926D01*
X0089426Y0032882D01*
X0088176Y0033400D01*
X0046824Y0033400D01*
X0045574Y0032882D01*
X0040868Y0028176D01*
X0040350Y0026926D01*
X0040350Y0025574D01*
X0040868Y0024324D01*
X0041824Y0023368D01*
X0043074Y0022850D01*
X0044426Y0022850D01*
X0045676Y0023368D01*
X0048908Y0026600D01*
X0046286Y0023978D02*
X0081812Y0023978D01*
X0081839Y0023993D02*
X0081405Y0023743D01*
X0081051Y0023389D01*
X0080800Y0022955D01*
X0080670Y0022471D01*
X0080670Y0019370D01*
X0080670Y0016269D01*
X0080800Y0015785D01*
X0081051Y0015352D01*
X0081405Y0014997D01*
X0081839Y0014747D01*
X0082322Y0014617D01*
X0083750Y0014617D01*
X0085178Y0014617D01*
X0085661Y0014747D01*
X0086095Y0014997D01*
X0086250Y0015152D01*
X0086405Y0014997D01*
X0086839Y0014747D01*
X0087322Y0014617D01*
X0088750Y0014617D01*
X0088750Y0019370D01*
X0088750Y0019370D01*
X0083750Y0019370D01*
X0083750Y0014617D01*
X0083750Y0019370D01*
X0083750Y0019370D01*
X0083750Y0019370D01*
X0080670Y0019370D01*
X0083750Y0019370D01*
X0083750Y0019370D01*
X0086830Y0019370D01*
X0088750Y0019370D01*
X0088750Y0019370D01*
X0088750Y0019370D01*
X0088750Y0024123D01*
X0087322Y0024123D01*
X0086839Y0023993D01*
X0086405Y0023743D01*
X0086250Y0023588D01*
X0086095Y0023743D01*
X0085661Y0023993D01*
X0085178Y0024123D01*
X0083750Y0024123D01*
X0083750Y0019370D01*
X0083750Y0019370D01*
X0083750Y0024123D01*
X0082322Y0024123D01*
X0081839Y0023993D01*
X0083750Y0023978D02*
X0083750Y0023978D01*
X0083750Y0022379D02*
X0083750Y0022379D01*
X0083750Y0020781D02*
X0083750Y0020781D01*
X0083750Y0019182D02*
X0083750Y0019182D01*
X0083750Y0017584D02*
X0083750Y0017584D01*
X0083750Y0015985D02*
X0083750Y0015985D01*
X0080747Y0015985D02*
X0044150Y0015985D01*
X0044150Y0015200D02*
X0044150Y0019025D01*
X0044017Y0019865D01*
X0043754Y0020673D01*
X0043368Y0021430D01*
X0042869Y0022118D01*
X0042268Y0022719D01*
X0041580Y0023218D01*
X0040823Y0023604D01*
X0040015Y0023867D01*
X0039175Y0024000D01*
X0038950Y0024000D01*
X0038950Y0015200D01*
X0038550Y0015200D01*
X0038550Y0024000D01*
X0038325Y0024000D01*
X0037485Y0023867D01*
X0036677Y0023604D01*
X0035920Y0023218D01*
X0035232Y0022719D01*
X0034631Y0022118D01*
X0034132Y0021430D01*
X0033750Y0020681D01*
X0033368Y0021430D01*
X0032869Y0022118D01*
X0032268Y0022719D01*
X0031580Y0023218D01*
X0030823Y0023604D01*
X0030015Y0023867D01*
X0029175Y0024000D01*
X0028950Y0024000D01*
X0028950Y0015200D01*
X0028550Y0015200D01*
X0028550Y0024000D01*
X0028325Y0024000D01*
X0027485Y0023867D01*
X0026677Y0023604D01*
X0025920Y0023218D01*
X0025232Y0022719D01*
X0024631Y0022118D01*
X0024132Y0021430D01*
X0023746Y0020673D01*
X0023742Y0020660D01*
X0023328Y0021659D01*
X0021809Y0023178D01*
X0019824Y0024000D01*
X0017676Y0024000D01*
X0015691Y0023178D01*
X0014172Y0021659D01*
X0013750Y0020640D01*
X0013328Y0021659D01*
X0011809Y0023178D01*
X0009824Y0024000D01*
X0007676Y0024000D01*
X0005691Y0023178D01*
X0004172Y0021659D01*
X0003350Y0019674D01*
X0003350Y0010326D01*
X0004172Y0008341D01*
X0005691Y0006822D01*
X0007676Y0006000D01*
X0009824Y0006000D01*
X0011809Y0006822D01*
X0013328Y0008341D01*
X0013750Y0009360D01*
X0014172Y0008341D01*
X0015691Y0006822D01*
X0017676Y0006000D01*
X0019824Y0006000D01*
X0021809Y0006822D01*
X0023328Y0008341D01*
X0023742Y0009340D01*
X0023746Y0009327D01*
X0024132Y0008570D01*
X0024631Y0007882D01*
X0025232Y0007281D01*
X0025920Y0006782D01*
X0026677Y0006396D01*
X0027485Y0006133D01*
X0028325Y0006000D01*
X0028550Y0006000D01*
X0028550Y0014800D01*
X0028950Y0014800D01*
X0028950Y0015200D01*
X0034150Y0015200D01*
X0038550Y0015200D01*
X0038550Y0014800D01*
X0038950Y0014800D01*
X0038950Y0015200D01*
X0044150Y0015200D01*
X0044150Y0014800D02*
X0038950Y0014800D01*
X0038950Y0006000D01*
X0039175Y0006000D01*
X0040015Y0006133D01*
X0040823Y0006396D01*
X0041580Y0006782D01*
X0042268Y0007281D01*
X0042869Y0007882D01*
X0043368Y0008570D01*
X0043754Y0009327D01*
X0044017Y0010135D01*
X0044150Y0010975D01*
X0044150Y0014800D01*
X0044150Y0014387D02*
X0090350Y0014387D01*
X0088750Y0015985D02*
X0088750Y0015985D01*
X0088750Y0017584D02*
X0088750Y0017584D01*
X0088750Y0019182D02*
X0088750Y0019182D01*
X0088750Y0020781D02*
X0088750Y0020781D01*
X0088750Y0022379D02*
X0088750Y0022379D01*
X0088750Y0023978D02*
X0088750Y0023978D01*
X0086812Y0023978D02*
X0085688Y0023978D01*
X0089483Y0027175D02*
X0104110Y0027175D01*
X0103239Y0028773D02*
X0090672Y0028773D01*
X0090900Y0030372D02*
X0103151Y0030372D01*
X0103151Y0031970D02*
X0090338Y0031970D01*
X0090688Y0023978D02*
X0091640Y0023978D01*
X0095860Y0023978D02*
X0096640Y0023978D01*
X0103151Y0033569D02*
X0002100Y0033569D01*
X0002100Y0035167D02*
X0103151Y0035167D01*
X0103778Y0036766D02*
X0101604Y0036766D01*
X0101339Y0044758D02*
X0101938Y0044758D01*
X0101600Y0046357D02*
X0096050Y0046357D01*
X0096050Y0047955D02*
X0101600Y0047955D01*
X0102246Y0049554D02*
X0096050Y0049554D01*
X0096050Y0051152D02*
X0122900Y0051152D01*
X0122900Y0049554D02*
X0107754Y0049554D01*
X0108400Y0047955D02*
X0122900Y0047955D01*
X0122900Y0046357D02*
X0109701Y0046357D01*
X0114511Y0044758D02*
X0115470Y0044758D01*
X0115470Y0046003D02*
X0115470Y0041730D01*
X0119349Y0041730D01*
X0119349Y0044351D01*
X0119220Y0044835D01*
X0118969Y0045268D01*
X0118615Y0045623D01*
X0118181Y0045873D01*
X0117697Y0046003D01*
X0115470Y0046003D01*
X0115470Y0043160D02*
X0114511Y0043160D01*
X0119349Y0043160D02*
X0122900Y0043160D01*
X0122900Y0044758D02*
X0119240Y0044758D01*
X0122900Y0052751D02*
X0096050Y0052751D01*
X0096050Y0054349D02*
X0122900Y0054349D01*
X0122900Y0055948D02*
X0094805Y0055948D01*
X0094800Y0057546D02*
X0122900Y0057546D01*
X0122900Y0059145D02*
X0094800Y0059145D01*
X0094800Y0060743D02*
X0122900Y0060743D01*
X0122900Y0062342D02*
X0094800Y0062342D01*
X0094800Y0063940D02*
X0122900Y0063940D01*
X0122900Y0065539D02*
X0094800Y0065539D01*
X0094800Y0067137D02*
X0122900Y0067137D01*
X0122900Y0068736D02*
X0094800Y0068736D01*
X0094800Y0070334D02*
X0122900Y0070334D01*
X0122900Y0071933D02*
X0094800Y0071933D01*
X0094800Y0073532D02*
X0122900Y0073532D01*
X0122900Y0075130D02*
X0094800Y0075130D01*
X0094800Y0076729D02*
X0122900Y0076729D01*
X0122900Y0078327D02*
X0094800Y0078327D01*
X0094800Y0079926D02*
X0122900Y0079926D01*
X0079489Y0044758D02*
X0002100Y0044758D01*
X0002100Y0043160D02*
X0080670Y0043160D01*
X0080670Y0041561D02*
X0002100Y0041561D01*
X0002100Y0039963D02*
X0080670Y0039963D01*
X0080670Y0038364D02*
X0002100Y0038364D01*
X0002100Y0036766D02*
X0080896Y0036766D01*
X0080670Y0022379D02*
X0042608Y0022379D01*
X0043699Y0020781D02*
X0080670Y0020781D01*
X0080670Y0019182D02*
X0044125Y0019182D01*
X0044150Y0017584D02*
X0080670Y0017584D01*
X0086813Y0011190D02*
X0044150Y0011190D01*
X0044150Y0012788D02*
X0087980Y0012788D01*
X0086600Y0009591D02*
X0043840Y0009591D01*
X0042949Y0007993D02*
X0087199Y0007993D01*
X0090651Y0006394D02*
X0040818Y0006394D01*
X0038950Y0006394D02*
X0038550Y0006394D01*
X0038550Y0006000D02*
X0038550Y0014800D01*
X0028950Y0014800D01*
X0028950Y0006000D01*
X0029175Y0006000D01*
X0030015Y0006133D01*
X0030823Y0006396D01*
X0031580Y0006782D01*
X0032268Y0007281D01*
X0032869Y0007882D01*
X0033368Y0008570D01*
X0033750Y0009319D01*
X0034132Y0008570D01*
X0034631Y0007882D01*
X0035232Y0007281D01*
X0035920Y0006782D01*
X0036677Y0006396D01*
X0037485Y0006133D01*
X0038325Y0006000D01*
X0038550Y0006000D01*
X0036682Y0006394D02*
X0030818Y0006394D01*
X0028950Y0006394D02*
X0028550Y0006394D01*
X0028550Y0007993D02*
X0028950Y0007993D01*
X0028950Y0009591D02*
X0028550Y0009591D01*
X0028550Y0011190D02*
X0028950Y0011190D01*
X0028950Y0012788D02*
X0028550Y0012788D01*
X0028550Y0014387D02*
X0028950Y0014387D01*
X0028950Y0015985D02*
X0028550Y0015985D01*
X0028550Y0017584D02*
X0028950Y0017584D01*
X0028950Y0019182D02*
X0028550Y0019182D01*
X0028550Y0020781D02*
X0028950Y0020781D01*
X0028950Y0022379D02*
X0028550Y0022379D01*
X0028550Y0023978D02*
X0028950Y0023978D01*
X0029316Y0023978D02*
X0038184Y0023978D01*
X0038550Y0023978D02*
X0038950Y0023978D01*
X0039316Y0023978D02*
X0041214Y0023978D01*
X0040350Y0025576D02*
X0002100Y0025576D01*
X0002100Y0023978D02*
X0007622Y0023978D01*
X0009878Y0023978D02*
X0017622Y0023978D01*
X0019878Y0023978D02*
X0028184Y0023978D01*
X0032608Y0022379D02*
X0034892Y0022379D01*
X0033801Y0020781D02*
X0033699Y0020781D01*
X0038550Y0020781D02*
X0038950Y0020781D01*
X0038950Y0022379D02*
X0038550Y0022379D01*
X0038550Y0019182D02*
X0038950Y0019182D01*
X0038950Y0017584D02*
X0038550Y0017584D01*
X0038550Y0015985D02*
X0038950Y0015985D01*
X0038950Y0014387D02*
X0038550Y0014387D01*
X0038550Y0012788D02*
X0038950Y0012788D01*
X0038950Y0011190D02*
X0038550Y0011190D01*
X0038550Y0009591D02*
X0038950Y0009591D01*
X0038950Y0007993D02*
X0038550Y0007993D01*
X0034551Y0007993D02*
X0032949Y0007993D01*
X0026682Y0006394D02*
X0020775Y0006394D01*
X0022979Y0007993D02*
X0024551Y0007993D01*
X0016725Y0006394D02*
X0010775Y0006394D01*
X0012979Y0007993D02*
X0014521Y0007993D01*
X0006725Y0006394D02*
X0002975Y0006394D01*
X0002448Y0007993D02*
X0004521Y0007993D01*
X0003654Y0009591D02*
X0002132Y0009591D01*
X0002100Y0011190D02*
X0003350Y0011190D01*
X0003350Y0012788D02*
X0002100Y0012788D01*
X0002100Y0014387D02*
X0003350Y0014387D01*
X0003350Y0015985D02*
X0002100Y0015985D01*
X0002100Y0017584D02*
X0003350Y0017584D01*
X0003350Y0019182D02*
X0002100Y0019182D01*
X0002100Y0020781D02*
X0003808Y0020781D01*
X0004892Y0022379D02*
X0002100Y0022379D01*
X0002100Y0027175D02*
X0040453Y0027175D01*
X0041465Y0028773D02*
X0002100Y0028773D01*
X0002100Y0030372D02*
X0043063Y0030372D01*
X0044662Y0031970D02*
X0002100Y0031970D01*
X0012608Y0022379D02*
X0014892Y0022379D01*
X0013808Y0020781D02*
X0013692Y0020781D01*
X0022608Y0022379D02*
X0024892Y0022379D01*
X0023801Y0020781D02*
X0023692Y0020781D01*
X0006089Y0003197D02*
X0118911Y0003197D01*
D23*
X0107510Y0018750D02*
X0106890Y0019370D01*
X0098750Y0019370D01*
M02*
