G75*
%MOIN*%
%OFA0B0*%
%FSLAX25Y25*%
%IPPOS*%
%LPD*%
%AMOC8*
5,1,8,0,0,1.08239X$1,22.5*
%
%ADD10C,0.00000*%
%ADD11C,0.00600*%
%ADD12C,0.00400*%
%ADD13R,0.05709X0.02953*%
%ADD14R,0.02953X0.05709*%
%ADD15C,0.00197*%
%ADD16C,0.00394*%
%ADD17C,0.00787*%
%ADD18R,0.00591X0.01181*%
%ADD19R,0.01181X0.01181*%
%ADD20R,0.05315X0.02362*%
%ADD21R,0.02559X0.05512*%
%ADD22C,0.00500*%
%ADD23C,0.05000*%
%ADD24R,0.05512X0.02559*%
%ADD25R,0.02000X0.02000*%
%ADD26R,0.07480X0.01969*%
D10*
X0078582Y0197217D02*
X0078584Y0197296D01*
X0078590Y0197375D01*
X0078600Y0197454D01*
X0078614Y0197532D01*
X0078631Y0197609D01*
X0078653Y0197685D01*
X0078678Y0197760D01*
X0078708Y0197833D01*
X0078740Y0197905D01*
X0078777Y0197976D01*
X0078817Y0198044D01*
X0078860Y0198110D01*
X0078906Y0198174D01*
X0078956Y0198236D01*
X0079009Y0198295D01*
X0079064Y0198351D01*
X0079123Y0198405D01*
X0079184Y0198455D01*
X0079247Y0198503D01*
X0079313Y0198547D01*
X0079381Y0198588D01*
X0079451Y0198625D01*
X0079522Y0198659D01*
X0079596Y0198689D01*
X0079670Y0198715D01*
X0079746Y0198737D01*
X0079823Y0198756D01*
X0079901Y0198771D01*
X0079979Y0198782D01*
X0080058Y0198789D01*
X0080137Y0198792D01*
X0080216Y0198791D01*
X0080295Y0198786D01*
X0080374Y0198777D01*
X0080452Y0198764D01*
X0080529Y0198747D01*
X0080606Y0198727D01*
X0080681Y0198702D01*
X0080755Y0198674D01*
X0080828Y0198642D01*
X0080898Y0198607D01*
X0080967Y0198568D01*
X0081034Y0198525D01*
X0081099Y0198479D01*
X0081161Y0198431D01*
X0081221Y0198379D01*
X0081278Y0198324D01*
X0081332Y0198266D01*
X0081383Y0198206D01*
X0081431Y0198143D01*
X0081476Y0198078D01*
X0081518Y0198010D01*
X0081556Y0197941D01*
X0081590Y0197870D01*
X0081621Y0197797D01*
X0081649Y0197722D01*
X0081672Y0197647D01*
X0081692Y0197570D01*
X0081708Y0197493D01*
X0081720Y0197414D01*
X0081728Y0197336D01*
X0081732Y0197257D01*
X0081732Y0197177D01*
X0081728Y0197098D01*
X0081720Y0197020D01*
X0081708Y0196941D01*
X0081692Y0196864D01*
X0081672Y0196787D01*
X0081649Y0196712D01*
X0081621Y0196637D01*
X0081590Y0196564D01*
X0081556Y0196493D01*
X0081518Y0196424D01*
X0081476Y0196356D01*
X0081431Y0196291D01*
X0081383Y0196228D01*
X0081332Y0196168D01*
X0081278Y0196110D01*
X0081221Y0196055D01*
X0081161Y0196003D01*
X0081099Y0195955D01*
X0081034Y0195909D01*
X0080967Y0195866D01*
X0080898Y0195827D01*
X0080828Y0195792D01*
X0080755Y0195760D01*
X0080681Y0195732D01*
X0080606Y0195707D01*
X0080529Y0195687D01*
X0080452Y0195670D01*
X0080374Y0195657D01*
X0080295Y0195648D01*
X0080216Y0195643D01*
X0080137Y0195642D01*
X0080058Y0195645D01*
X0079979Y0195652D01*
X0079901Y0195663D01*
X0079823Y0195678D01*
X0079746Y0195697D01*
X0079670Y0195719D01*
X0079596Y0195745D01*
X0079522Y0195775D01*
X0079451Y0195809D01*
X0079381Y0195846D01*
X0079313Y0195887D01*
X0079247Y0195931D01*
X0079184Y0195979D01*
X0079123Y0196029D01*
X0079064Y0196083D01*
X0079009Y0196139D01*
X0078956Y0196198D01*
X0078906Y0196260D01*
X0078860Y0196324D01*
X0078817Y0196390D01*
X0078777Y0196458D01*
X0078740Y0196529D01*
X0078708Y0196601D01*
X0078678Y0196674D01*
X0078653Y0196749D01*
X0078631Y0196825D01*
X0078614Y0196902D01*
X0078600Y0196980D01*
X0078590Y0197059D01*
X0078584Y0197138D01*
X0078582Y0197217D01*
X0098268Y0197217D02*
X0098270Y0197296D01*
X0098276Y0197375D01*
X0098286Y0197454D01*
X0098300Y0197532D01*
X0098317Y0197609D01*
X0098339Y0197685D01*
X0098364Y0197760D01*
X0098394Y0197833D01*
X0098426Y0197905D01*
X0098463Y0197976D01*
X0098503Y0198044D01*
X0098546Y0198110D01*
X0098592Y0198174D01*
X0098642Y0198236D01*
X0098695Y0198295D01*
X0098750Y0198351D01*
X0098809Y0198405D01*
X0098870Y0198455D01*
X0098933Y0198503D01*
X0098999Y0198547D01*
X0099067Y0198588D01*
X0099137Y0198625D01*
X0099208Y0198659D01*
X0099282Y0198689D01*
X0099356Y0198715D01*
X0099432Y0198737D01*
X0099509Y0198756D01*
X0099587Y0198771D01*
X0099665Y0198782D01*
X0099744Y0198789D01*
X0099823Y0198792D01*
X0099902Y0198791D01*
X0099981Y0198786D01*
X0100060Y0198777D01*
X0100138Y0198764D01*
X0100215Y0198747D01*
X0100292Y0198727D01*
X0100367Y0198702D01*
X0100441Y0198674D01*
X0100514Y0198642D01*
X0100584Y0198607D01*
X0100653Y0198568D01*
X0100720Y0198525D01*
X0100785Y0198479D01*
X0100847Y0198431D01*
X0100907Y0198379D01*
X0100964Y0198324D01*
X0101018Y0198266D01*
X0101069Y0198206D01*
X0101117Y0198143D01*
X0101162Y0198078D01*
X0101204Y0198010D01*
X0101242Y0197941D01*
X0101276Y0197870D01*
X0101307Y0197797D01*
X0101335Y0197722D01*
X0101358Y0197647D01*
X0101378Y0197570D01*
X0101394Y0197493D01*
X0101406Y0197414D01*
X0101414Y0197336D01*
X0101418Y0197257D01*
X0101418Y0197177D01*
X0101414Y0197098D01*
X0101406Y0197020D01*
X0101394Y0196941D01*
X0101378Y0196864D01*
X0101358Y0196787D01*
X0101335Y0196712D01*
X0101307Y0196637D01*
X0101276Y0196564D01*
X0101242Y0196493D01*
X0101204Y0196424D01*
X0101162Y0196356D01*
X0101117Y0196291D01*
X0101069Y0196228D01*
X0101018Y0196168D01*
X0100964Y0196110D01*
X0100907Y0196055D01*
X0100847Y0196003D01*
X0100785Y0195955D01*
X0100720Y0195909D01*
X0100653Y0195866D01*
X0100584Y0195827D01*
X0100514Y0195792D01*
X0100441Y0195760D01*
X0100367Y0195732D01*
X0100292Y0195707D01*
X0100215Y0195687D01*
X0100138Y0195670D01*
X0100060Y0195657D01*
X0099981Y0195648D01*
X0099902Y0195643D01*
X0099823Y0195642D01*
X0099744Y0195645D01*
X0099665Y0195652D01*
X0099587Y0195663D01*
X0099509Y0195678D01*
X0099432Y0195697D01*
X0099356Y0195719D01*
X0099282Y0195745D01*
X0099208Y0195775D01*
X0099137Y0195809D01*
X0099067Y0195846D01*
X0098999Y0195887D01*
X0098933Y0195931D01*
X0098870Y0195979D01*
X0098809Y0196029D01*
X0098750Y0196083D01*
X0098695Y0196139D01*
X0098642Y0196198D01*
X0098592Y0196260D01*
X0098546Y0196324D01*
X0098503Y0196390D01*
X0098463Y0196458D01*
X0098426Y0196529D01*
X0098394Y0196601D01*
X0098364Y0196674D01*
X0098339Y0196749D01*
X0098317Y0196825D01*
X0098300Y0196902D01*
X0098286Y0196980D01*
X0098276Y0197059D01*
X0098270Y0197138D01*
X0098268Y0197217D01*
X0053524Y0202087D02*
X0053526Y0202164D01*
X0053532Y0202240D01*
X0053542Y0202316D01*
X0053556Y0202391D01*
X0053573Y0202466D01*
X0053595Y0202539D01*
X0053620Y0202612D01*
X0053650Y0202683D01*
X0053682Y0202752D01*
X0053719Y0202819D01*
X0053758Y0202885D01*
X0053801Y0202948D01*
X0053848Y0203009D01*
X0053897Y0203068D01*
X0053950Y0203124D01*
X0054005Y0203177D01*
X0054063Y0203227D01*
X0054123Y0203274D01*
X0054186Y0203318D01*
X0054251Y0203359D01*
X0054318Y0203396D01*
X0054387Y0203430D01*
X0054457Y0203460D01*
X0054529Y0203486D01*
X0054603Y0203508D01*
X0054677Y0203527D01*
X0054752Y0203542D01*
X0054828Y0203553D01*
X0054904Y0203560D01*
X0054981Y0203563D01*
X0055057Y0203562D01*
X0055134Y0203557D01*
X0055210Y0203548D01*
X0055286Y0203535D01*
X0055360Y0203518D01*
X0055434Y0203498D01*
X0055507Y0203473D01*
X0055578Y0203445D01*
X0055648Y0203413D01*
X0055716Y0203378D01*
X0055782Y0203339D01*
X0055846Y0203297D01*
X0055907Y0203251D01*
X0055967Y0203202D01*
X0056023Y0203151D01*
X0056077Y0203096D01*
X0056128Y0203039D01*
X0056176Y0202979D01*
X0056221Y0202917D01*
X0056262Y0202852D01*
X0056300Y0202786D01*
X0056335Y0202718D01*
X0056365Y0202647D01*
X0056393Y0202576D01*
X0056416Y0202503D01*
X0056436Y0202429D01*
X0056452Y0202354D01*
X0056464Y0202278D01*
X0056472Y0202202D01*
X0056476Y0202125D01*
X0056476Y0202049D01*
X0056472Y0201972D01*
X0056464Y0201896D01*
X0056452Y0201820D01*
X0056436Y0201745D01*
X0056416Y0201671D01*
X0056393Y0201598D01*
X0056365Y0201527D01*
X0056335Y0201456D01*
X0056300Y0201388D01*
X0056262Y0201322D01*
X0056221Y0201257D01*
X0056176Y0201195D01*
X0056128Y0201135D01*
X0056077Y0201078D01*
X0056023Y0201023D01*
X0055967Y0200972D01*
X0055907Y0200923D01*
X0055846Y0200877D01*
X0055782Y0200835D01*
X0055716Y0200796D01*
X0055648Y0200761D01*
X0055578Y0200729D01*
X0055507Y0200701D01*
X0055434Y0200676D01*
X0055360Y0200656D01*
X0055286Y0200639D01*
X0055210Y0200626D01*
X0055134Y0200617D01*
X0055057Y0200612D01*
X0054981Y0200611D01*
X0054904Y0200614D01*
X0054828Y0200621D01*
X0054752Y0200632D01*
X0054677Y0200647D01*
X0054603Y0200666D01*
X0054529Y0200688D01*
X0054457Y0200714D01*
X0054387Y0200744D01*
X0054318Y0200778D01*
X0054251Y0200815D01*
X0054186Y0200856D01*
X0054123Y0200900D01*
X0054063Y0200947D01*
X0054005Y0200997D01*
X0053950Y0201050D01*
X0053897Y0201106D01*
X0053848Y0201165D01*
X0053801Y0201226D01*
X0053758Y0201289D01*
X0053719Y0201355D01*
X0053682Y0201422D01*
X0053650Y0201491D01*
X0053620Y0201562D01*
X0053595Y0201635D01*
X0053573Y0201708D01*
X0053556Y0201783D01*
X0053542Y0201858D01*
X0053532Y0201934D01*
X0053526Y0202010D01*
X0053524Y0202087D01*
X0053526Y0202164D01*
X0053532Y0202240D01*
X0053542Y0202316D01*
X0053556Y0202391D01*
X0053573Y0202466D01*
X0053595Y0202539D01*
X0053620Y0202612D01*
X0053650Y0202683D01*
X0053682Y0202752D01*
X0053719Y0202819D01*
X0053758Y0202885D01*
X0053801Y0202948D01*
X0053848Y0203009D01*
X0053897Y0203068D01*
X0053950Y0203124D01*
X0054005Y0203177D01*
X0054063Y0203227D01*
X0054123Y0203274D01*
X0054186Y0203318D01*
X0054251Y0203359D01*
X0054318Y0203396D01*
X0054387Y0203430D01*
X0054457Y0203460D01*
X0054529Y0203486D01*
X0054603Y0203508D01*
X0054677Y0203527D01*
X0054752Y0203542D01*
X0054828Y0203553D01*
X0054904Y0203560D01*
X0054981Y0203563D01*
X0055057Y0203562D01*
X0055134Y0203557D01*
X0055210Y0203548D01*
X0055286Y0203535D01*
X0055360Y0203518D01*
X0055434Y0203498D01*
X0055507Y0203473D01*
X0055578Y0203445D01*
X0055648Y0203413D01*
X0055716Y0203378D01*
X0055782Y0203339D01*
X0055846Y0203297D01*
X0055907Y0203251D01*
X0055967Y0203202D01*
X0056023Y0203151D01*
X0056077Y0203096D01*
X0056128Y0203039D01*
X0056176Y0202979D01*
X0056221Y0202917D01*
X0056262Y0202852D01*
X0056300Y0202786D01*
X0056335Y0202718D01*
X0056365Y0202647D01*
X0056393Y0202576D01*
X0056416Y0202503D01*
X0056436Y0202429D01*
X0056452Y0202354D01*
X0056464Y0202278D01*
X0056472Y0202202D01*
X0056476Y0202125D01*
X0056476Y0202049D01*
X0056472Y0201972D01*
X0056464Y0201896D01*
X0056452Y0201820D01*
X0056436Y0201745D01*
X0056416Y0201671D01*
X0056393Y0201598D01*
X0056365Y0201527D01*
X0056335Y0201456D01*
X0056300Y0201388D01*
X0056262Y0201322D01*
X0056221Y0201257D01*
X0056176Y0201195D01*
X0056128Y0201135D01*
X0056077Y0201078D01*
X0056023Y0201023D01*
X0055967Y0200972D01*
X0055907Y0200923D01*
X0055846Y0200877D01*
X0055782Y0200835D01*
X0055716Y0200796D01*
X0055648Y0200761D01*
X0055578Y0200729D01*
X0055507Y0200701D01*
X0055434Y0200676D01*
X0055360Y0200656D01*
X0055286Y0200639D01*
X0055210Y0200626D01*
X0055134Y0200617D01*
X0055057Y0200612D01*
X0054981Y0200611D01*
X0054904Y0200614D01*
X0054828Y0200621D01*
X0054752Y0200632D01*
X0054677Y0200647D01*
X0054603Y0200666D01*
X0054529Y0200688D01*
X0054457Y0200714D01*
X0054387Y0200744D01*
X0054318Y0200778D01*
X0054251Y0200815D01*
X0054186Y0200856D01*
X0054123Y0200900D01*
X0054063Y0200947D01*
X0054005Y0200997D01*
X0053950Y0201050D01*
X0053897Y0201106D01*
X0053848Y0201165D01*
X0053801Y0201226D01*
X0053758Y0201289D01*
X0053719Y0201355D01*
X0053682Y0201422D01*
X0053650Y0201491D01*
X0053620Y0201562D01*
X0053595Y0201635D01*
X0053573Y0201708D01*
X0053556Y0201783D01*
X0053542Y0201858D01*
X0053532Y0201934D01*
X0053526Y0202010D01*
X0053524Y0202087D01*
X0053524Y0212913D02*
X0053526Y0212990D01*
X0053532Y0213066D01*
X0053542Y0213142D01*
X0053556Y0213217D01*
X0053573Y0213292D01*
X0053595Y0213365D01*
X0053620Y0213438D01*
X0053650Y0213509D01*
X0053682Y0213578D01*
X0053719Y0213645D01*
X0053758Y0213711D01*
X0053801Y0213774D01*
X0053848Y0213835D01*
X0053897Y0213894D01*
X0053950Y0213950D01*
X0054005Y0214003D01*
X0054063Y0214053D01*
X0054123Y0214100D01*
X0054186Y0214144D01*
X0054251Y0214185D01*
X0054318Y0214222D01*
X0054387Y0214256D01*
X0054457Y0214286D01*
X0054529Y0214312D01*
X0054603Y0214334D01*
X0054677Y0214353D01*
X0054752Y0214368D01*
X0054828Y0214379D01*
X0054904Y0214386D01*
X0054981Y0214389D01*
X0055057Y0214388D01*
X0055134Y0214383D01*
X0055210Y0214374D01*
X0055286Y0214361D01*
X0055360Y0214344D01*
X0055434Y0214324D01*
X0055507Y0214299D01*
X0055578Y0214271D01*
X0055648Y0214239D01*
X0055716Y0214204D01*
X0055782Y0214165D01*
X0055846Y0214123D01*
X0055907Y0214077D01*
X0055967Y0214028D01*
X0056023Y0213977D01*
X0056077Y0213922D01*
X0056128Y0213865D01*
X0056176Y0213805D01*
X0056221Y0213743D01*
X0056262Y0213678D01*
X0056300Y0213612D01*
X0056335Y0213544D01*
X0056365Y0213473D01*
X0056393Y0213402D01*
X0056416Y0213329D01*
X0056436Y0213255D01*
X0056452Y0213180D01*
X0056464Y0213104D01*
X0056472Y0213028D01*
X0056476Y0212951D01*
X0056476Y0212875D01*
X0056472Y0212798D01*
X0056464Y0212722D01*
X0056452Y0212646D01*
X0056436Y0212571D01*
X0056416Y0212497D01*
X0056393Y0212424D01*
X0056365Y0212353D01*
X0056335Y0212282D01*
X0056300Y0212214D01*
X0056262Y0212148D01*
X0056221Y0212083D01*
X0056176Y0212021D01*
X0056128Y0211961D01*
X0056077Y0211904D01*
X0056023Y0211849D01*
X0055967Y0211798D01*
X0055907Y0211749D01*
X0055846Y0211703D01*
X0055782Y0211661D01*
X0055716Y0211622D01*
X0055648Y0211587D01*
X0055578Y0211555D01*
X0055507Y0211527D01*
X0055434Y0211502D01*
X0055360Y0211482D01*
X0055286Y0211465D01*
X0055210Y0211452D01*
X0055134Y0211443D01*
X0055057Y0211438D01*
X0054981Y0211437D01*
X0054904Y0211440D01*
X0054828Y0211447D01*
X0054752Y0211458D01*
X0054677Y0211473D01*
X0054603Y0211492D01*
X0054529Y0211514D01*
X0054457Y0211540D01*
X0054387Y0211570D01*
X0054318Y0211604D01*
X0054251Y0211641D01*
X0054186Y0211682D01*
X0054123Y0211726D01*
X0054063Y0211773D01*
X0054005Y0211823D01*
X0053950Y0211876D01*
X0053897Y0211932D01*
X0053848Y0211991D01*
X0053801Y0212052D01*
X0053758Y0212115D01*
X0053719Y0212181D01*
X0053682Y0212248D01*
X0053650Y0212317D01*
X0053620Y0212388D01*
X0053595Y0212461D01*
X0053573Y0212534D01*
X0053556Y0212609D01*
X0053542Y0212684D01*
X0053532Y0212760D01*
X0053526Y0212836D01*
X0053524Y0212913D01*
X0053526Y0212990D01*
X0053532Y0213066D01*
X0053542Y0213142D01*
X0053556Y0213217D01*
X0053573Y0213292D01*
X0053595Y0213365D01*
X0053620Y0213438D01*
X0053650Y0213509D01*
X0053682Y0213578D01*
X0053719Y0213645D01*
X0053758Y0213711D01*
X0053801Y0213774D01*
X0053848Y0213835D01*
X0053897Y0213894D01*
X0053950Y0213950D01*
X0054005Y0214003D01*
X0054063Y0214053D01*
X0054123Y0214100D01*
X0054186Y0214144D01*
X0054251Y0214185D01*
X0054318Y0214222D01*
X0054387Y0214256D01*
X0054457Y0214286D01*
X0054529Y0214312D01*
X0054603Y0214334D01*
X0054677Y0214353D01*
X0054752Y0214368D01*
X0054828Y0214379D01*
X0054904Y0214386D01*
X0054981Y0214389D01*
X0055057Y0214388D01*
X0055134Y0214383D01*
X0055210Y0214374D01*
X0055286Y0214361D01*
X0055360Y0214344D01*
X0055434Y0214324D01*
X0055507Y0214299D01*
X0055578Y0214271D01*
X0055648Y0214239D01*
X0055716Y0214204D01*
X0055782Y0214165D01*
X0055846Y0214123D01*
X0055907Y0214077D01*
X0055967Y0214028D01*
X0056023Y0213977D01*
X0056077Y0213922D01*
X0056128Y0213865D01*
X0056176Y0213805D01*
X0056221Y0213743D01*
X0056262Y0213678D01*
X0056300Y0213612D01*
X0056335Y0213544D01*
X0056365Y0213473D01*
X0056393Y0213402D01*
X0056416Y0213329D01*
X0056436Y0213255D01*
X0056452Y0213180D01*
X0056464Y0213104D01*
X0056472Y0213028D01*
X0056476Y0212951D01*
X0056476Y0212875D01*
X0056472Y0212798D01*
X0056464Y0212722D01*
X0056452Y0212646D01*
X0056436Y0212571D01*
X0056416Y0212497D01*
X0056393Y0212424D01*
X0056365Y0212353D01*
X0056335Y0212282D01*
X0056300Y0212214D01*
X0056262Y0212148D01*
X0056221Y0212083D01*
X0056176Y0212021D01*
X0056128Y0211961D01*
X0056077Y0211904D01*
X0056023Y0211849D01*
X0055967Y0211798D01*
X0055907Y0211749D01*
X0055846Y0211703D01*
X0055782Y0211661D01*
X0055716Y0211622D01*
X0055648Y0211587D01*
X0055578Y0211555D01*
X0055507Y0211527D01*
X0055434Y0211502D01*
X0055360Y0211482D01*
X0055286Y0211465D01*
X0055210Y0211452D01*
X0055134Y0211443D01*
X0055057Y0211438D01*
X0054981Y0211437D01*
X0054904Y0211440D01*
X0054828Y0211447D01*
X0054752Y0211458D01*
X0054677Y0211473D01*
X0054603Y0211492D01*
X0054529Y0211514D01*
X0054457Y0211540D01*
X0054387Y0211570D01*
X0054318Y0211604D01*
X0054251Y0211641D01*
X0054186Y0211682D01*
X0054123Y0211726D01*
X0054063Y0211773D01*
X0054005Y0211823D01*
X0053950Y0211876D01*
X0053897Y0211932D01*
X0053848Y0211991D01*
X0053801Y0212052D01*
X0053758Y0212115D01*
X0053719Y0212181D01*
X0053682Y0212248D01*
X0053650Y0212317D01*
X0053620Y0212388D01*
X0053595Y0212461D01*
X0053573Y0212534D01*
X0053556Y0212609D01*
X0053542Y0212684D01*
X0053532Y0212760D01*
X0053526Y0212836D01*
X0053524Y0212913D01*
X0023524Y0212913D02*
X0023526Y0212990D01*
X0023532Y0213066D01*
X0023542Y0213142D01*
X0023556Y0213217D01*
X0023573Y0213292D01*
X0023595Y0213365D01*
X0023620Y0213438D01*
X0023650Y0213509D01*
X0023682Y0213578D01*
X0023719Y0213645D01*
X0023758Y0213711D01*
X0023801Y0213774D01*
X0023848Y0213835D01*
X0023897Y0213894D01*
X0023950Y0213950D01*
X0024005Y0214003D01*
X0024063Y0214053D01*
X0024123Y0214100D01*
X0024186Y0214144D01*
X0024251Y0214185D01*
X0024318Y0214222D01*
X0024387Y0214256D01*
X0024457Y0214286D01*
X0024529Y0214312D01*
X0024603Y0214334D01*
X0024677Y0214353D01*
X0024752Y0214368D01*
X0024828Y0214379D01*
X0024904Y0214386D01*
X0024981Y0214389D01*
X0025057Y0214388D01*
X0025134Y0214383D01*
X0025210Y0214374D01*
X0025286Y0214361D01*
X0025360Y0214344D01*
X0025434Y0214324D01*
X0025507Y0214299D01*
X0025578Y0214271D01*
X0025648Y0214239D01*
X0025716Y0214204D01*
X0025782Y0214165D01*
X0025846Y0214123D01*
X0025907Y0214077D01*
X0025967Y0214028D01*
X0026023Y0213977D01*
X0026077Y0213922D01*
X0026128Y0213865D01*
X0026176Y0213805D01*
X0026221Y0213743D01*
X0026262Y0213678D01*
X0026300Y0213612D01*
X0026335Y0213544D01*
X0026365Y0213473D01*
X0026393Y0213402D01*
X0026416Y0213329D01*
X0026436Y0213255D01*
X0026452Y0213180D01*
X0026464Y0213104D01*
X0026472Y0213028D01*
X0026476Y0212951D01*
X0026476Y0212875D01*
X0026472Y0212798D01*
X0026464Y0212722D01*
X0026452Y0212646D01*
X0026436Y0212571D01*
X0026416Y0212497D01*
X0026393Y0212424D01*
X0026365Y0212353D01*
X0026335Y0212282D01*
X0026300Y0212214D01*
X0026262Y0212148D01*
X0026221Y0212083D01*
X0026176Y0212021D01*
X0026128Y0211961D01*
X0026077Y0211904D01*
X0026023Y0211849D01*
X0025967Y0211798D01*
X0025907Y0211749D01*
X0025846Y0211703D01*
X0025782Y0211661D01*
X0025716Y0211622D01*
X0025648Y0211587D01*
X0025578Y0211555D01*
X0025507Y0211527D01*
X0025434Y0211502D01*
X0025360Y0211482D01*
X0025286Y0211465D01*
X0025210Y0211452D01*
X0025134Y0211443D01*
X0025057Y0211438D01*
X0024981Y0211437D01*
X0024904Y0211440D01*
X0024828Y0211447D01*
X0024752Y0211458D01*
X0024677Y0211473D01*
X0024603Y0211492D01*
X0024529Y0211514D01*
X0024457Y0211540D01*
X0024387Y0211570D01*
X0024318Y0211604D01*
X0024251Y0211641D01*
X0024186Y0211682D01*
X0024123Y0211726D01*
X0024063Y0211773D01*
X0024005Y0211823D01*
X0023950Y0211876D01*
X0023897Y0211932D01*
X0023848Y0211991D01*
X0023801Y0212052D01*
X0023758Y0212115D01*
X0023719Y0212181D01*
X0023682Y0212248D01*
X0023650Y0212317D01*
X0023620Y0212388D01*
X0023595Y0212461D01*
X0023573Y0212534D01*
X0023556Y0212609D01*
X0023542Y0212684D01*
X0023532Y0212760D01*
X0023526Y0212836D01*
X0023524Y0212913D01*
X0023526Y0212990D01*
X0023532Y0213066D01*
X0023542Y0213142D01*
X0023556Y0213217D01*
X0023573Y0213292D01*
X0023595Y0213365D01*
X0023620Y0213438D01*
X0023650Y0213509D01*
X0023682Y0213578D01*
X0023719Y0213645D01*
X0023758Y0213711D01*
X0023801Y0213774D01*
X0023848Y0213835D01*
X0023897Y0213894D01*
X0023950Y0213950D01*
X0024005Y0214003D01*
X0024063Y0214053D01*
X0024123Y0214100D01*
X0024186Y0214144D01*
X0024251Y0214185D01*
X0024318Y0214222D01*
X0024387Y0214256D01*
X0024457Y0214286D01*
X0024529Y0214312D01*
X0024603Y0214334D01*
X0024677Y0214353D01*
X0024752Y0214368D01*
X0024828Y0214379D01*
X0024904Y0214386D01*
X0024981Y0214389D01*
X0025057Y0214388D01*
X0025134Y0214383D01*
X0025210Y0214374D01*
X0025286Y0214361D01*
X0025360Y0214344D01*
X0025434Y0214324D01*
X0025507Y0214299D01*
X0025578Y0214271D01*
X0025648Y0214239D01*
X0025716Y0214204D01*
X0025782Y0214165D01*
X0025846Y0214123D01*
X0025907Y0214077D01*
X0025967Y0214028D01*
X0026023Y0213977D01*
X0026077Y0213922D01*
X0026128Y0213865D01*
X0026176Y0213805D01*
X0026221Y0213743D01*
X0026262Y0213678D01*
X0026300Y0213612D01*
X0026335Y0213544D01*
X0026365Y0213473D01*
X0026393Y0213402D01*
X0026416Y0213329D01*
X0026436Y0213255D01*
X0026452Y0213180D01*
X0026464Y0213104D01*
X0026472Y0213028D01*
X0026476Y0212951D01*
X0026476Y0212875D01*
X0026472Y0212798D01*
X0026464Y0212722D01*
X0026452Y0212646D01*
X0026436Y0212571D01*
X0026416Y0212497D01*
X0026393Y0212424D01*
X0026365Y0212353D01*
X0026335Y0212282D01*
X0026300Y0212214D01*
X0026262Y0212148D01*
X0026221Y0212083D01*
X0026176Y0212021D01*
X0026128Y0211961D01*
X0026077Y0211904D01*
X0026023Y0211849D01*
X0025967Y0211798D01*
X0025907Y0211749D01*
X0025846Y0211703D01*
X0025782Y0211661D01*
X0025716Y0211622D01*
X0025648Y0211587D01*
X0025578Y0211555D01*
X0025507Y0211527D01*
X0025434Y0211502D01*
X0025360Y0211482D01*
X0025286Y0211465D01*
X0025210Y0211452D01*
X0025134Y0211443D01*
X0025057Y0211438D01*
X0024981Y0211437D01*
X0024904Y0211440D01*
X0024828Y0211447D01*
X0024752Y0211458D01*
X0024677Y0211473D01*
X0024603Y0211492D01*
X0024529Y0211514D01*
X0024457Y0211540D01*
X0024387Y0211570D01*
X0024318Y0211604D01*
X0024251Y0211641D01*
X0024186Y0211682D01*
X0024123Y0211726D01*
X0024063Y0211773D01*
X0024005Y0211823D01*
X0023950Y0211876D01*
X0023897Y0211932D01*
X0023848Y0211991D01*
X0023801Y0212052D01*
X0023758Y0212115D01*
X0023719Y0212181D01*
X0023682Y0212248D01*
X0023650Y0212317D01*
X0023620Y0212388D01*
X0023595Y0212461D01*
X0023573Y0212534D01*
X0023556Y0212609D01*
X0023542Y0212684D01*
X0023532Y0212760D01*
X0023526Y0212836D01*
X0023524Y0212913D01*
X0023524Y0202087D02*
X0023526Y0202164D01*
X0023532Y0202240D01*
X0023542Y0202316D01*
X0023556Y0202391D01*
X0023573Y0202466D01*
X0023595Y0202539D01*
X0023620Y0202612D01*
X0023650Y0202683D01*
X0023682Y0202752D01*
X0023719Y0202819D01*
X0023758Y0202885D01*
X0023801Y0202948D01*
X0023848Y0203009D01*
X0023897Y0203068D01*
X0023950Y0203124D01*
X0024005Y0203177D01*
X0024063Y0203227D01*
X0024123Y0203274D01*
X0024186Y0203318D01*
X0024251Y0203359D01*
X0024318Y0203396D01*
X0024387Y0203430D01*
X0024457Y0203460D01*
X0024529Y0203486D01*
X0024603Y0203508D01*
X0024677Y0203527D01*
X0024752Y0203542D01*
X0024828Y0203553D01*
X0024904Y0203560D01*
X0024981Y0203563D01*
X0025057Y0203562D01*
X0025134Y0203557D01*
X0025210Y0203548D01*
X0025286Y0203535D01*
X0025360Y0203518D01*
X0025434Y0203498D01*
X0025507Y0203473D01*
X0025578Y0203445D01*
X0025648Y0203413D01*
X0025716Y0203378D01*
X0025782Y0203339D01*
X0025846Y0203297D01*
X0025907Y0203251D01*
X0025967Y0203202D01*
X0026023Y0203151D01*
X0026077Y0203096D01*
X0026128Y0203039D01*
X0026176Y0202979D01*
X0026221Y0202917D01*
X0026262Y0202852D01*
X0026300Y0202786D01*
X0026335Y0202718D01*
X0026365Y0202647D01*
X0026393Y0202576D01*
X0026416Y0202503D01*
X0026436Y0202429D01*
X0026452Y0202354D01*
X0026464Y0202278D01*
X0026472Y0202202D01*
X0026476Y0202125D01*
X0026476Y0202049D01*
X0026472Y0201972D01*
X0026464Y0201896D01*
X0026452Y0201820D01*
X0026436Y0201745D01*
X0026416Y0201671D01*
X0026393Y0201598D01*
X0026365Y0201527D01*
X0026335Y0201456D01*
X0026300Y0201388D01*
X0026262Y0201322D01*
X0026221Y0201257D01*
X0026176Y0201195D01*
X0026128Y0201135D01*
X0026077Y0201078D01*
X0026023Y0201023D01*
X0025967Y0200972D01*
X0025907Y0200923D01*
X0025846Y0200877D01*
X0025782Y0200835D01*
X0025716Y0200796D01*
X0025648Y0200761D01*
X0025578Y0200729D01*
X0025507Y0200701D01*
X0025434Y0200676D01*
X0025360Y0200656D01*
X0025286Y0200639D01*
X0025210Y0200626D01*
X0025134Y0200617D01*
X0025057Y0200612D01*
X0024981Y0200611D01*
X0024904Y0200614D01*
X0024828Y0200621D01*
X0024752Y0200632D01*
X0024677Y0200647D01*
X0024603Y0200666D01*
X0024529Y0200688D01*
X0024457Y0200714D01*
X0024387Y0200744D01*
X0024318Y0200778D01*
X0024251Y0200815D01*
X0024186Y0200856D01*
X0024123Y0200900D01*
X0024063Y0200947D01*
X0024005Y0200997D01*
X0023950Y0201050D01*
X0023897Y0201106D01*
X0023848Y0201165D01*
X0023801Y0201226D01*
X0023758Y0201289D01*
X0023719Y0201355D01*
X0023682Y0201422D01*
X0023650Y0201491D01*
X0023620Y0201562D01*
X0023595Y0201635D01*
X0023573Y0201708D01*
X0023556Y0201783D01*
X0023542Y0201858D01*
X0023532Y0201934D01*
X0023526Y0202010D01*
X0023524Y0202087D01*
X0023526Y0202164D01*
X0023532Y0202240D01*
X0023542Y0202316D01*
X0023556Y0202391D01*
X0023573Y0202466D01*
X0023595Y0202539D01*
X0023620Y0202612D01*
X0023650Y0202683D01*
X0023682Y0202752D01*
X0023719Y0202819D01*
X0023758Y0202885D01*
X0023801Y0202948D01*
X0023848Y0203009D01*
X0023897Y0203068D01*
X0023950Y0203124D01*
X0024005Y0203177D01*
X0024063Y0203227D01*
X0024123Y0203274D01*
X0024186Y0203318D01*
X0024251Y0203359D01*
X0024318Y0203396D01*
X0024387Y0203430D01*
X0024457Y0203460D01*
X0024529Y0203486D01*
X0024603Y0203508D01*
X0024677Y0203527D01*
X0024752Y0203542D01*
X0024828Y0203553D01*
X0024904Y0203560D01*
X0024981Y0203563D01*
X0025057Y0203562D01*
X0025134Y0203557D01*
X0025210Y0203548D01*
X0025286Y0203535D01*
X0025360Y0203518D01*
X0025434Y0203498D01*
X0025507Y0203473D01*
X0025578Y0203445D01*
X0025648Y0203413D01*
X0025716Y0203378D01*
X0025782Y0203339D01*
X0025846Y0203297D01*
X0025907Y0203251D01*
X0025967Y0203202D01*
X0026023Y0203151D01*
X0026077Y0203096D01*
X0026128Y0203039D01*
X0026176Y0202979D01*
X0026221Y0202917D01*
X0026262Y0202852D01*
X0026300Y0202786D01*
X0026335Y0202718D01*
X0026365Y0202647D01*
X0026393Y0202576D01*
X0026416Y0202503D01*
X0026436Y0202429D01*
X0026452Y0202354D01*
X0026464Y0202278D01*
X0026472Y0202202D01*
X0026476Y0202125D01*
X0026476Y0202049D01*
X0026472Y0201972D01*
X0026464Y0201896D01*
X0026452Y0201820D01*
X0026436Y0201745D01*
X0026416Y0201671D01*
X0026393Y0201598D01*
X0026365Y0201527D01*
X0026335Y0201456D01*
X0026300Y0201388D01*
X0026262Y0201322D01*
X0026221Y0201257D01*
X0026176Y0201195D01*
X0026128Y0201135D01*
X0026077Y0201078D01*
X0026023Y0201023D01*
X0025967Y0200972D01*
X0025907Y0200923D01*
X0025846Y0200877D01*
X0025782Y0200835D01*
X0025716Y0200796D01*
X0025648Y0200761D01*
X0025578Y0200729D01*
X0025507Y0200701D01*
X0025434Y0200676D01*
X0025360Y0200656D01*
X0025286Y0200639D01*
X0025210Y0200626D01*
X0025134Y0200617D01*
X0025057Y0200612D01*
X0024981Y0200611D01*
X0024904Y0200614D01*
X0024828Y0200621D01*
X0024752Y0200632D01*
X0024677Y0200647D01*
X0024603Y0200666D01*
X0024529Y0200688D01*
X0024457Y0200714D01*
X0024387Y0200744D01*
X0024318Y0200778D01*
X0024251Y0200815D01*
X0024186Y0200856D01*
X0024123Y0200900D01*
X0024063Y0200947D01*
X0024005Y0200997D01*
X0023950Y0201050D01*
X0023897Y0201106D01*
X0023848Y0201165D01*
X0023801Y0201226D01*
X0023758Y0201289D01*
X0023719Y0201355D01*
X0023682Y0201422D01*
X0023650Y0201491D01*
X0023620Y0201562D01*
X0023595Y0201635D01*
X0023573Y0201708D01*
X0023556Y0201783D01*
X0023542Y0201858D01*
X0023532Y0201934D01*
X0023526Y0202010D01*
X0023524Y0202087D01*
D11*
X0000000Y0205000D02*
X0000000Y0010000D01*
X0003750Y0012500D02*
X0003750Y0017500D01*
X0006250Y0020000D01*
X0011250Y0020000D01*
X0013750Y0017500D01*
X0016250Y0020000D01*
X0021250Y0020000D01*
X0023750Y0017500D01*
X0026250Y0020000D01*
X0031250Y0020000D01*
X0033750Y0017500D01*
X0036250Y0020000D01*
X0041250Y0020000D01*
X0043750Y0017500D01*
X0043750Y0012500D01*
X0041250Y0010000D01*
X0036250Y0010000D01*
X0033750Y0012500D01*
X0031250Y0010000D01*
X0026250Y0010000D01*
X0023750Y0012500D01*
X0021250Y0010000D01*
X0016250Y0010000D01*
X0013750Y0012500D01*
X0011250Y0010000D01*
X0006250Y0010000D01*
X0003750Y0012500D01*
X0000000Y0010000D02*
X0000003Y0009758D01*
X0000012Y0009517D01*
X0000026Y0009276D01*
X0000047Y0009035D01*
X0000073Y0008795D01*
X0000105Y0008555D01*
X0000143Y0008316D01*
X0000186Y0008079D01*
X0000236Y0007842D01*
X0000291Y0007607D01*
X0000351Y0007373D01*
X0000418Y0007141D01*
X0000489Y0006910D01*
X0000567Y0006681D01*
X0000650Y0006454D01*
X0000738Y0006229D01*
X0000832Y0006006D01*
X0000931Y0005786D01*
X0001036Y0005568D01*
X0001145Y0005353D01*
X0001260Y0005140D01*
X0001380Y0004930D01*
X0001505Y0004724D01*
X0001635Y0004520D01*
X0001770Y0004319D01*
X0001910Y0004122D01*
X0002054Y0003928D01*
X0002203Y0003738D01*
X0002357Y0003552D01*
X0002515Y0003369D01*
X0002677Y0003190D01*
X0002844Y0003015D01*
X0003015Y0002844D01*
X0003190Y0002677D01*
X0003369Y0002515D01*
X0003552Y0002357D01*
X0003738Y0002203D01*
X0003928Y0002054D01*
X0004122Y0001910D01*
X0004319Y0001770D01*
X0004520Y0001635D01*
X0004724Y0001505D01*
X0004930Y0001380D01*
X0005140Y0001260D01*
X0005353Y0001145D01*
X0005568Y0001036D01*
X0005786Y0000931D01*
X0006006Y0000832D01*
X0006229Y0000738D01*
X0006454Y0000650D01*
X0006681Y0000567D01*
X0006910Y0000489D01*
X0007141Y0000418D01*
X0007373Y0000351D01*
X0007607Y0000291D01*
X0007842Y0000236D01*
X0008079Y0000186D01*
X0008316Y0000143D01*
X0008555Y0000105D01*
X0008795Y0000073D01*
X0009035Y0000047D01*
X0009276Y0000026D01*
X0009517Y0000012D01*
X0009758Y0000003D01*
X0010000Y0000000D01*
X0115000Y0000000D01*
X0115242Y0000003D01*
X0115483Y0000012D01*
X0115724Y0000026D01*
X0115965Y0000047D01*
X0116205Y0000073D01*
X0116445Y0000105D01*
X0116684Y0000143D01*
X0116921Y0000186D01*
X0117158Y0000236D01*
X0117393Y0000291D01*
X0117627Y0000351D01*
X0117859Y0000418D01*
X0118090Y0000489D01*
X0118319Y0000567D01*
X0118546Y0000650D01*
X0118771Y0000738D01*
X0118994Y0000832D01*
X0119214Y0000931D01*
X0119432Y0001036D01*
X0119647Y0001145D01*
X0119860Y0001260D01*
X0120070Y0001380D01*
X0120276Y0001505D01*
X0120480Y0001635D01*
X0120681Y0001770D01*
X0120878Y0001910D01*
X0121072Y0002054D01*
X0121262Y0002203D01*
X0121448Y0002357D01*
X0121631Y0002515D01*
X0121810Y0002677D01*
X0121985Y0002844D01*
X0122156Y0003015D01*
X0122323Y0003190D01*
X0122485Y0003369D01*
X0122643Y0003552D01*
X0122797Y0003738D01*
X0122946Y0003928D01*
X0123090Y0004122D01*
X0123230Y0004319D01*
X0123365Y0004520D01*
X0123495Y0004724D01*
X0123620Y0004930D01*
X0123740Y0005140D01*
X0123855Y0005353D01*
X0123964Y0005568D01*
X0124069Y0005786D01*
X0124168Y0006006D01*
X0124262Y0006229D01*
X0124350Y0006454D01*
X0124433Y0006681D01*
X0124511Y0006910D01*
X0124582Y0007141D01*
X0124649Y0007373D01*
X0124709Y0007607D01*
X0124764Y0007842D01*
X0124814Y0008079D01*
X0124857Y0008316D01*
X0124895Y0008555D01*
X0124927Y0008795D01*
X0124953Y0009035D01*
X0124974Y0009276D01*
X0124988Y0009517D01*
X0124997Y0009758D01*
X0125000Y0010000D01*
X0125000Y0187972D01*
X0124848Y0187974D01*
X0124696Y0187980D01*
X0124544Y0187990D01*
X0124393Y0188003D01*
X0124242Y0188021D01*
X0124091Y0188042D01*
X0123941Y0188068D01*
X0123792Y0188097D01*
X0123643Y0188130D01*
X0123496Y0188167D01*
X0123349Y0188207D01*
X0123204Y0188252D01*
X0123060Y0188300D01*
X0122917Y0188352D01*
X0122775Y0188407D01*
X0122635Y0188466D01*
X0122496Y0188529D01*
X0122359Y0188595D01*
X0122224Y0188665D01*
X0122091Y0188738D01*
X0121960Y0188815D01*
X0121830Y0188895D01*
X0121703Y0188978D01*
X0121578Y0189064D01*
X0121455Y0189154D01*
X0121335Y0189247D01*
X0121217Y0189343D01*
X0121101Y0189442D01*
X0120988Y0189544D01*
X0120878Y0189648D01*
X0120770Y0189756D01*
X0120666Y0189866D01*
X0120564Y0189979D01*
X0120465Y0190095D01*
X0120369Y0190213D01*
X0120276Y0190333D01*
X0120186Y0190456D01*
X0120100Y0190581D01*
X0120017Y0190708D01*
X0119937Y0190838D01*
X0119860Y0190969D01*
X0119787Y0191102D01*
X0119717Y0191237D01*
X0119651Y0191374D01*
X0119588Y0191513D01*
X0119529Y0191653D01*
X0119474Y0191795D01*
X0119422Y0191938D01*
X0119374Y0192082D01*
X0119329Y0192227D01*
X0119289Y0192374D01*
X0119252Y0192521D01*
X0119219Y0192670D01*
X0119190Y0192819D01*
X0119164Y0192969D01*
X0119143Y0193120D01*
X0119125Y0193271D01*
X0119112Y0193422D01*
X0119102Y0193574D01*
X0119096Y0193726D01*
X0119094Y0193878D01*
X0119096Y0194030D01*
X0119102Y0194182D01*
X0119112Y0194334D01*
X0119125Y0194485D01*
X0119143Y0194636D01*
X0119164Y0194787D01*
X0119190Y0194937D01*
X0119219Y0195086D01*
X0119252Y0195235D01*
X0119289Y0195382D01*
X0119329Y0195529D01*
X0119374Y0195674D01*
X0119422Y0195818D01*
X0119474Y0195961D01*
X0119529Y0196103D01*
X0119588Y0196243D01*
X0119651Y0196382D01*
X0119717Y0196519D01*
X0119787Y0196654D01*
X0119860Y0196787D01*
X0119937Y0196918D01*
X0120017Y0197048D01*
X0120100Y0197175D01*
X0120186Y0197300D01*
X0120276Y0197423D01*
X0120369Y0197543D01*
X0120465Y0197661D01*
X0120564Y0197777D01*
X0120666Y0197890D01*
X0120770Y0198000D01*
X0120878Y0198108D01*
X0120988Y0198212D01*
X0121101Y0198314D01*
X0121217Y0198413D01*
X0121335Y0198509D01*
X0121455Y0198602D01*
X0121578Y0198692D01*
X0121703Y0198778D01*
X0121830Y0198861D01*
X0121960Y0198941D01*
X0122091Y0199018D01*
X0122224Y0199091D01*
X0122359Y0199161D01*
X0122496Y0199227D01*
X0122635Y0199290D01*
X0122775Y0199349D01*
X0122917Y0199404D01*
X0123060Y0199456D01*
X0123204Y0199504D01*
X0123349Y0199549D01*
X0123496Y0199589D01*
X0123643Y0199626D01*
X0123792Y0199659D01*
X0123941Y0199688D01*
X0124091Y0199714D01*
X0124242Y0199735D01*
X0124393Y0199753D01*
X0124544Y0199766D01*
X0124696Y0199776D01*
X0124848Y0199782D01*
X0125000Y0199784D01*
X0125000Y0199783D02*
X0125000Y0205000D01*
X0124997Y0205242D01*
X0124988Y0205483D01*
X0124974Y0205724D01*
X0124953Y0205965D01*
X0124927Y0206205D01*
X0124895Y0206445D01*
X0124857Y0206684D01*
X0124814Y0206921D01*
X0124764Y0207158D01*
X0124709Y0207393D01*
X0124649Y0207627D01*
X0124582Y0207859D01*
X0124511Y0208090D01*
X0124433Y0208319D01*
X0124350Y0208546D01*
X0124262Y0208771D01*
X0124168Y0208994D01*
X0124069Y0209214D01*
X0123964Y0209432D01*
X0123855Y0209647D01*
X0123740Y0209860D01*
X0123620Y0210070D01*
X0123495Y0210276D01*
X0123365Y0210480D01*
X0123230Y0210681D01*
X0123090Y0210878D01*
X0122946Y0211072D01*
X0122797Y0211262D01*
X0122643Y0211448D01*
X0122485Y0211631D01*
X0122323Y0211810D01*
X0122156Y0211985D01*
X0121985Y0212156D01*
X0121810Y0212323D01*
X0121631Y0212485D01*
X0121448Y0212643D01*
X0121262Y0212797D01*
X0121072Y0212946D01*
X0120878Y0213090D01*
X0120681Y0213230D01*
X0120480Y0213365D01*
X0120276Y0213495D01*
X0120070Y0213620D01*
X0119860Y0213740D01*
X0119647Y0213855D01*
X0119432Y0213964D01*
X0119214Y0214069D01*
X0118994Y0214168D01*
X0118771Y0214262D01*
X0118546Y0214350D01*
X0118319Y0214433D01*
X0118090Y0214511D01*
X0117859Y0214582D01*
X0117627Y0214649D01*
X0117393Y0214709D01*
X0117158Y0214764D01*
X0116921Y0214814D01*
X0116684Y0214857D01*
X0116445Y0214895D01*
X0116205Y0214927D01*
X0115965Y0214953D01*
X0115724Y0214974D01*
X0115483Y0214988D01*
X0115242Y0214997D01*
X0115000Y0215000D01*
X0010000Y0215000D01*
X0009758Y0214997D01*
X0009517Y0214988D01*
X0009276Y0214974D01*
X0009035Y0214953D01*
X0008795Y0214927D01*
X0008555Y0214895D01*
X0008316Y0214857D01*
X0008079Y0214814D01*
X0007842Y0214764D01*
X0007607Y0214709D01*
X0007373Y0214649D01*
X0007141Y0214582D01*
X0006910Y0214511D01*
X0006681Y0214433D01*
X0006454Y0214350D01*
X0006229Y0214262D01*
X0006006Y0214168D01*
X0005786Y0214069D01*
X0005568Y0213964D01*
X0005353Y0213855D01*
X0005140Y0213740D01*
X0004930Y0213620D01*
X0004724Y0213495D01*
X0004520Y0213365D01*
X0004319Y0213230D01*
X0004122Y0213090D01*
X0003928Y0212946D01*
X0003738Y0212797D01*
X0003552Y0212643D01*
X0003369Y0212485D01*
X0003190Y0212323D01*
X0003015Y0212156D01*
X0002844Y0211985D01*
X0002677Y0211810D01*
X0002515Y0211631D01*
X0002357Y0211448D01*
X0002203Y0211262D01*
X0002054Y0211072D01*
X0001910Y0210878D01*
X0001770Y0210681D01*
X0001635Y0210480D01*
X0001505Y0210276D01*
X0001380Y0210070D01*
X0001260Y0209860D01*
X0001145Y0209647D01*
X0001036Y0209432D01*
X0000931Y0209214D01*
X0000832Y0208994D01*
X0000738Y0208771D01*
X0000650Y0208546D01*
X0000567Y0208319D01*
X0000489Y0208090D01*
X0000418Y0207859D01*
X0000351Y0207627D01*
X0000291Y0207393D01*
X0000236Y0207158D01*
X0000186Y0206921D01*
X0000143Y0206684D01*
X0000105Y0206445D01*
X0000073Y0206205D01*
X0000047Y0205965D01*
X0000026Y0205724D01*
X0000012Y0205483D01*
X0000003Y0205242D01*
X0000000Y0205000D01*
X0028750Y0190364D02*
X0028750Y0187136D01*
X0033750Y0187136D02*
X0033750Y0190364D01*
X0037500Y0190364D02*
X0037500Y0187136D01*
X0042500Y0187136D02*
X0042500Y0190364D01*
X0046250Y0190364D02*
X0046250Y0187136D01*
X0051250Y0187136D02*
X0051250Y0190364D01*
X0059636Y0192500D02*
X0062864Y0192500D01*
X0062864Y0197500D02*
X0059636Y0197500D01*
X0088563Y0172362D02*
X0088563Y0167638D01*
X0096437Y0167638D01*
X0096437Y0172362D01*
X0088563Y0172362D01*
X0108386Y0168750D02*
X0111614Y0168750D01*
X0111614Y0163750D02*
X0108386Y0163750D01*
X0111063Y0149862D02*
X0118937Y0149862D01*
X0118937Y0145138D01*
X0111063Y0145138D01*
X0111063Y0149862D01*
X0108000Y0134000D02*
X0102000Y0134000D01*
X0101940Y0133998D01*
X0101879Y0133993D01*
X0101820Y0133984D01*
X0101761Y0133971D01*
X0101702Y0133955D01*
X0101645Y0133935D01*
X0101590Y0133912D01*
X0101535Y0133885D01*
X0101483Y0133856D01*
X0101432Y0133823D01*
X0101383Y0133787D01*
X0101337Y0133749D01*
X0101293Y0133707D01*
X0101251Y0133663D01*
X0101213Y0133617D01*
X0101177Y0133568D01*
X0101144Y0133517D01*
X0101115Y0133465D01*
X0101088Y0133410D01*
X0101065Y0133355D01*
X0101045Y0133298D01*
X0101029Y0133239D01*
X0101016Y0133180D01*
X0101007Y0133121D01*
X0101002Y0133060D01*
X0101000Y0133000D01*
X0101000Y0122000D01*
X0101002Y0121940D01*
X0101007Y0121879D01*
X0101016Y0121820D01*
X0101029Y0121761D01*
X0101045Y0121702D01*
X0101065Y0121645D01*
X0101088Y0121590D01*
X0101115Y0121535D01*
X0101144Y0121483D01*
X0101177Y0121432D01*
X0101213Y0121383D01*
X0101251Y0121337D01*
X0101293Y0121293D01*
X0101337Y0121251D01*
X0101383Y0121213D01*
X0101432Y0121177D01*
X0101483Y0121144D01*
X0101535Y0121115D01*
X0101590Y0121088D01*
X0101645Y0121065D01*
X0101702Y0121045D01*
X0101761Y0121029D01*
X0101820Y0121016D01*
X0101879Y0121007D01*
X0101940Y0121002D01*
X0102000Y0121000D01*
X0108000Y0121000D01*
X0108060Y0121002D01*
X0108121Y0121007D01*
X0108180Y0121016D01*
X0108239Y0121029D01*
X0108298Y0121045D01*
X0108355Y0121065D01*
X0108410Y0121088D01*
X0108465Y0121115D01*
X0108517Y0121144D01*
X0108568Y0121177D01*
X0108617Y0121213D01*
X0108663Y0121251D01*
X0108707Y0121293D01*
X0108749Y0121337D01*
X0108787Y0121383D01*
X0108823Y0121432D01*
X0108856Y0121483D01*
X0108885Y0121535D01*
X0108912Y0121590D01*
X0108935Y0121645D01*
X0108955Y0121702D01*
X0108971Y0121761D01*
X0108984Y0121820D01*
X0108993Y0121879D01*
X0108998Y0121940D01*
X0109000Y0122000D01*
X0109000Y0133000D01*
X0108998Y0133060D01*
X0108993Y0133121D01*
X0108984Y0133180D01*
X0108971Y0133239D01*
X0108955Y0133298D01*
X0108935Y0133355D01*
X0108912Y0133410D01*
X0108885Y0133465D01*
X0108856Y0133517D01*
X0108823Y0133568D01*
X0108787Y0133617D01*
X0108749Y0133663D01*
X0108707Y0133707D01*
X0108663Y0133749D01*
X0108617Y0133787D01*
X0108568Y0133823D01*
X0108517Y0133856D01*
X0108465Y0133885D01*
X0108410Y0133912D01*
X0108355Y0133935D01*
X0108298Y0133955D01*
X0108239Y0133971D01*
X0108180Y0133984D01*
X0108121Y0133993D01*
X0108060Y0133998D01*
X0108000Y0134000D01*
X0105000Y0133500D02*
X0105000Y0131500D01*
X0105000Y0123500D02*
X0105000Y0121500D01*
X0103000Y0089000D02*
X0097000Y0089000D01*
X0096940Y0088998D01*
X0096879Y0088993D01*
X0096820Y0088984D01*
X0096761Y0088971D01*
X0096702Y0088955D01*
X0096645Y0088935D01*
X0096590Y0088912D01*
X0096535Y0088885D01*
X0096483Y0088856D01*
X0096432Y0088823D01*
X0096383Y0088787D01*
X0096337Y0088749D01*
X0096293Y0088707D01*
X0096251Y0088663D01*
X0096213Y0088617D01*
X0096177Y0088568D01*
X0096144Y0088517D01*
X0096115Y0088465D01*
X0096088Y0088410D01*
X0096065Y0088355D01*
X0096045Y0088298D01*
X0096029Y0088239D01*
X0096016Y0088180D01*
X0096007Y0088121D01*
X0096002Y0088060D01*
X0096000Y0088000D01*
X0096000Y0077000D01*
X0096002Y0076940D01*
X0096007Y0076879D01*
X0096016Y0076820D01*
X0096029Y0076761D01*
X0096045Y0076702D01*
X0096065Y0076645D01*
X0096088Y0076590D01*
X0096115Y0076535D01*
X0096144Y0076483D01*
X0096177Y0076432D01*
X0096213Y0076383D01*
X0096251Y0076337D01*
X0096293Y0076293D01*
X0096337Y0076251D01*
X0096383Y0076213D01*
X0096432Y0076177D01*
X0096483Y0076144D01*
X0096535Y0076115D01*
X0096590Y0076088D01*
X0096645Y0076065D01*
X0096702Y0076045D01*
X0096761Y0076029D01*
X0096820Y0076016D01*
X0096879Y0076007D01*
X0096940Y0076002D01*
X0097000Y0076000D01*
X0103000Y0076000D01*
X0103060Y0076002D01*
X0103121Y0076007D01*
X0103180Y0076016D01*
X0103239Y0076029D01*
X0103298Y0076045D01*
X0103355Y0076065D01*
X0103410Y0076088D01*
X0103465Y0076115D01*
X0103517Y0076144D01*
X0103568Y0076177D01*
X0103617Y0076213D01*
X0103663Y0076251D01*
X0103707Y0076293D01*
X0103749Y0076337D01*
X0103787Y0076383D01*
X0103823Y0076432D01*
X0103856Y0076483D01*
X0103885Y0076535D01*
X0103912Y0076590D01*
X0103935Y0076645D01*
X0103955Y0076702D01*
X0103971Y0076761D01*
X0103984Y0076820D01*
X0103993Y0076879D01*
X0103998Y0076940D01*
X0104000Y0077000D01*
X0104000Y0088000D01*
X0103998Y0088060D01*
X0103993Y0088121D01*
X0103984Y0088180D01*
X0103971Y0088239D01*
X0103955Y0088298D01*
X0103935Y0088355D01*
X0103912Y0088410D01*
X0103885Y0088465D01*
X0103856Y0088517D01*
X0103823Y0088568D01*
X0103787Y0088617D01*
X0103749Y0088663D01*
X0103707Y0088707D01*
X0103663Y0088749D01*
X0103617Y0088787D01*
X0103568Y0088823D01*
X0103517Y0088856D01*
X0103465Y0088885D01*
X0103410Y0088912D01*
X0103355Y0088935D01*
X0103298Y0088955D01*
X0103239Y0088971D01*
X0103180Y0088984D01*
X0103121Y0088993D01*
X0103060Y0088998D01*
X0103000Y0089000D01*
X0100000Y0088500D02*
X0100000Y0086500D01*
X0100000Y0078500D02*
X0100000Y0076500D01*
X0098937Y0039862D02*
X0091063Y0039862D01*
X0091063Y0035138D01*
X0098937Y0035138D01*
X0098937Y0039862D01*
X0108563Y0039862D02*
X0108563Y0035138D01*
X0116437Y0035138D01*
X0116437Y0039862D01*
X0108563Y0039862D01*
X0086437Y0016112D02*
X0086437Y0011388D01*
X0078563Y0011388D01*
X0078563Y0016112D01*
X0086437Y0016112D01*
X0070000Y0018386D02*
X0070000Y0021614D01*
X0065000Y0021614D02*
X0065000Y0018386D01*
X0061250Y0018386D02*
X0061250Y0021614D01*
X0056250Y0021614D02*
X0056250Y0018386D01*
X0055364Y0038750D02*
X0052136Y0038750D01*
X0052136Y0043750D02*
X0055364Y0043750D01*
X0039114Y0043750D02*
X0035886Y0043750D01*
X0035886Y0038750D02*
X0039114Y0038750D01*
X0039114Y0035000D02*
X0035886Y0035000D01*
X0035886Y0030000D02*
X0039114Y0030000D01*
X0018750Y0035886D02*
X0018750Y0039114D01*
X0013750Y0039114D02*
X0013750Y0035886D01*
X0009862Y0036063D02*
X0005138Y0036063D01*
X0005138Y0043937D01*
X0009862Y0043937D01*
X0009862Y0036063D01*
X0017136Y0133750D02*
X0020364Y0133750D01*
X0020364Y0138750D02*
X0017136Y0138750D01*
X0017136Y0158750D02*
X0020364Y0158750D01*
X0020364Y0163750D02*
X0017136Y0163750D01*
D12*
X0017250Y0182402D02*
X0020250Y0182402D01*
X0020152Y0187598D02*
X0017250Y0187598D01*
X0017348Y0192402D02*
X0020250Y0192402D01*
X0020250Y0197598D02*
X0017250Y0197598D01*
X0017914Y0201913D02*
X0020469Y0201913D01*
X0019192Y0201913D02*
X0019192Y0206513D01*
X0017914Y0205490D01*
X0047914Y0205490D02*
X0049192Y0206513D01*
X0049192Y0201913D01*
X0050469Y0201913D02*
X0047914Y0201913D01*
X0059750Y0188848D02*
X0062750Y0188848D01*
X0062750Y0183652D02*
X0059848Y0183652D01*
X0059750Y0180098D02*
X0062750Y0180098D01*
X0062750Y0174902D02*
X0059848Y0174902D01*
X0102402Y0145152D02*
X0102402Y0142250D01*
X0107598Y0142250D02*
X0107598Y0145250D01*
X0108598Y0154902D02*
X0111500Y0154902D01*
X0111500Y0160098D02*
X0108500Y0160098D01*
X0111289Y0175728D02*
X0111289Y0179272D01*
X0116211Y0179272D02*
X0116211Y0175630D01*
X0111348Y0112750D02*
X0111348Y0109848D01*
X0106152Y0109750D02*
X0106152Y0112750D01*
X0102598Y0112750D02*
X0102598Y0109848D01*
X0097402Y0109750D02*
X0097402Y0112750D01*
X0109024Y0073750D02*
X0109024Y0063750D01*
X0109024Y0065750D02*
X0109024Y0071750D01*
X0116028Y0071750D02*
X0116028Y0065750D01*
X0116028Y0063750D02*
X0116028Y0073750D01*
X0105152Y0056348D02*
X0102250Y0056348D01*
X0102250Y0051152D02*
X0105250Y0051152D01*
X0070098Y0039000D02*
X0070098Y0036098D01*
X0064902Y0036000D02*
X0064902Y0039000D01*
X0055152Y0035098D02*
X0052250Y0035098D01*
X0052250Y0029902D02*
X0055250Y0029902D01*
X0052598Y0021500D02*
X0052598Y0018500D01*
X0047402Y0018500D02*
X0047402Y0021402D01*
X0027598Y0036000D02*
X0027598Y0039000D01*
X0022402Y0038902D02*
X0022402Y0036000D01*
D13*
X0025005Y0034623D03*
X0025005Y0040323D03*
X0050005Y0022823D03*
X0050005Y0017123D03*
X0067495Y0034677D03*
X0067495Y0040377D03*
X0099995Y0108427D03*
X0099995Y0114127D03*
X0108745Y0114127D03*
X0108745Y0108427D03*
X0105005Y0140873D03*
X0105005Y0146573D03*
D14*
X0107177Y0157505D03*
X0112877Y0157505D03*
X0064127Y0177505D03*
X0058427Y0177505D03*
X0058427Y0186255D03*
X0064127Y0186255D03*
X0021573Y0184995D03*
X0015873Y0184995D03*
X0015927Y0195005D03*
X0021627Y0195005D03*
X0100873Y0053745D03*
X0106573Y0053745D03*
X0056573Y0032495D03*
X0050873Y0032495D03*
D15*
X0071762Y0037018D02*
X0071762Y0020482D01*
X0085738Y0020482D01*
X0085738Y0037018D01*
X0071762Y0037018D01*
X0065669Y0133307D02*
X0065669Y0161693D01*
X0099331Y0161693D01*
X0099331Y0133307D01*
X0065669Y0133307D01*
X0049085Y0158415D02*
X0049085Y0179085D01*
X0028415Y0179085D01*
X0028415Y0158415D01*
X0049085Y0158415D01*
X0025640Y0156230D02*
X0025640Y0141270D01*
X0011860Y0141270D01*
X0011860Y0156230D01*
X0025640Y0156230D01*
X0025640Y0166270D02*
X0011860Y0166270D01*
X0011860Y0181230D01*
X0025640Y0181230D01*
X0025640Y0166270D01*
X0085138Y0177736D02*
X0085138Y0187264D01*
X0089862Y0187264D01*
X0089862Y0177736D01*
X0085138Y0177736D01*
X0090138Y0177736D02*
X0090138Y0187264D01*
X0094862Y0187264D01*
X0094862Y0177736D01*
X0090138Y0177736D01*
X0095138Y0177736D02*
X0095138Y0187264D01*
X0099862Y0187264D01*
X0099862Y0177736D01*
X0095138Y0177736D01*
X0101722Y0170974D02*
X0101722Y0186526D01*
X0110778Y0186526D01*
X0110778Y0170974D01*
X0101722Y0170974D01*
D16*
X0103691Y0175404D02*
X0103691Y0182096D01*
X0108809Y0182096D01*
X0108809Y0175404D01*
X0103691Y0175404D01*
X0099075Y0180138D02*
X0099075Y0184862D01*
X0095925Y0184862D01*
X0095925Y0180138D01*
X0099075Y0180138D01*
X0099075Y0183740D02*
X0097953Y0184862D01*
X0094075Y0184862D02*
X0094075Y0180138D01*
X0090925Y0180138D01*
X0090925Y0184862D01*
X0094075Y0184862D01*
X0092953Y0184862D02*
X0094075Y0183740D01*
X0089075Y0183740D02*
X0087953Y0184862D01*
X0089075Y0184862D02*
X0085925Y0184862D01*
X0085925Y0180138D01*
X0089075Y0180138D01*
X0089075Y0184862D01*
X0074252Y0191508D02*
X0105748Y0191508D01*
X0105748Y0215130D01*
X0074252Y0215130D01*
X0074252Y0191508D01*
X0074252Y0215130D02*
X0074252Y0217492D01*
X0105748Y0217492D01*
X0105748Y0215130D01*
X0106691Y0182096D02*
X0108809Y0179978D01*
X0089398Y0160303D02*
X0089398Y0134697D01*
X0075602Y0134697D01*
X0075602Y0160303D01*
X0089398Y0160303D01*
X0089398Y0143713D02*
X0080382Y0134697D01*
X0086594Y0127264D02*
X0086594Y0127264D01*
X0086567Y0127262D01*
X0086541Y0127257D01*
X0086516Y0127248D01*
X0086492Y0127235D01*
X0086470Y0127220D01*
X0086450Y0127201D01*
X0086433Y0127181D01*
X0086419Y0127158D01*
X0086408Y0127133D01*
X0086401Y0127107D01*
X0086397Y0127080D01*
X0086397Y0127054D01*
X0086401Y0127027D01*
X0086408Y0127001D01*
X0086419Y0126976D01*
X0086433Y0126953D01*
X0086450Y0126933D01*
X0086470Y0126914D01*
X0086492Y0126899D01*
X0086516Y0126886D01*
X0086541Y0126877D01*
X0086567Y0126872D01*
X0086594Y0126870D01*
X0086594Y0126870D01*
X0086621Y0126872D01*
X0086647Y0126877D01*
X0086672Y0126886D01*
X0086696Y0126899D01*
X0086718Y0126914D01*
X0086738Y0126933D01*
X0086755Y0126953D01*
X0086769Y0126976D01*
X0086780Y0127001D01*
X0086787Y0127027D01*
X0086791Y0127054D01*
X0086791Y0127080D01*
X0086787Y0127107D01*
X0086780Y0127133D01*
X0086769Y0127158D01*
X0086755Y0127181D01*
X0086738Y0127201D01*
X0086718Y0127220D01*
X0086696Y0127235D01*
X0086672Y0127248D01*
X0086647Y0127257D01*
X0086621Y0127262D01*
X0086594Y0127264D01*
X0091280Y0122933D02*
X0015689Y0122933D01*
X0015689Y0052067D01*
X0091280Y0052067D01*
X0091280Y0122933D01*
X0095217Y0128839D02*
X0009783Y0128839D01*
X0009783Y0046161D01*
X0095217Y0046161D01*
X0095217Y0128839D01*
X0063967Y0135610D02*
X0063967Y0149390D01*
X0028533Y0149390D01*
X0028533Y0135610D01*
X0063967Y0135610D01*
X0046624Y0160876D02*
X0046624Y0176624D01*
X0030876Y0176624D01*
X0030876Y0160876D01*
X0046624Y0160876D01*
X0046624Y0162844D02*
X0044656Y0160876D01*
X0024459Y0151309D02*
X0024459Y0146191D01*
X0013041Y0146191D01*
X0013041Y0151309D01*
X0024459Y0151309D01*
X0016781Y0146191D02*
X0013041Y0149931D01*
X0013041Y0171191D02*
X0024459Y0171191D01*
X0024459Y0176309D01*
X0013041Y0176309D01*
X0013041Y0171191D01*
X0016781Y0171191D02*
X0013041Y0174931D01*
X0073041Y0031900D02*
X0084459Y0031900D01*
X0084459Y0025600D01*
X0073041Y0025600D01*
X0073041Y0031900D01*
X0080719Y0031900D02*
X0084459Y0028159D01*
D17*
X0084459Y0027569D02*
X0073041Y0027569D01*
X0073041Y0029931D01*
X0084459Y0029931D01*
X0084459Y0027569D01*
X0084656Y0031309D02*
X0084656Y0036033D01*
X0089705Y0052067D02*
X0091280Y0052067D01*
X0091280Y0122933D01*
X0089705Y0122933D01*
X0089398Y0134697D02*
X0089398Y0160303D01*
X0075602Y0160303D01*
X0075602Y0134697D01*
X0089398Y0134697D01*
X0092638Y0135236D02*
X0098346Y0135236D01*
X0103691Y0175404D02*
X0103691Y0182096D01*
X0099075Y0180138D02*
X0099075Y0186673D01*
X0095925Y0184862D02*
X0095925Y0180138D01*
X0094075Y0180138D02*
X0094075Y0186673D01*
X0090925Y0184862D02*
X0090925Y0180138D01*
X0089075Y0180138D02*
X0089075Y0186673D01*
X0085925Y0184862D02*
X0085925Y0180138D01*
X0082520Y0191114D02*
X0079764Y0191114D01*
X0073858Y0198988D02*
X0073858Y0202925D01*
X0073858Y0212768D02*
X0073858Y0217886D01*
X0106142Y0217886D01*
X0106142Y0212768D01*
X0106142Y0202925D02*
X0106142Y0198988D01*
X0100236Y0191114D02*
X0097480Y0191114D01*
X0097480Y0193280D02*
X0097482Y0193319D01*
X0097488Y0193358D01*
X0097498Y0193396D01*
X0097511Y0193433D01*
X0097528Y0193468D01*
X0097548Y0193502D01*
X0097572Y0193533D01*
X0097599Y0193562D01*
X0097628Y0193588D01*
X0097660Y0193611D01*
X0097694Y0193631D01*
X0097730Y0193647D01*
X0097767Y0193659D01*
X0097806Y0193668D01*
X0097845Y0193673D01*
X0097884Y0193674D01*
X0097923Y0193671D01*
X0097962Y0193664D01*
X0097999Y0193653D01*
X0098036Y0193639D01*
X0098071Y0193621D01*
X0098104Y0193600D01*
X0098135Y0193575D01*
X0098163Y0193548D01*
X0098188Y0193518D01*
X0098210Y0193485D01*
X0098229Y0193451D01*
X0098244Y0193415D01*
X0098256Y0193377D01*
X0098264Y0193339D01*
X0098268Y0193300D01*
X0098268Y0193260D01*
X0098264Y0193221D01*
X0098256Y0193183D01*
X0098244Y0193145D01*
X0098229Y0193109D01*
X0098210Y0193075D01*
X0098188Y0193042D01*
X0098163Y0193012D01*
X0098135Y0192985D01*
X0098104Y0192960D01*
X0098071Y0192939D01*
X0098036Y0192921D01*
X0097999Y0192907D01*
X0097962Y0192896D01*
X0097923Y0192889D01*
X0097884Y0192886D01*
X0097845Y0192887D01*
X0097806Y0192892D01*
X0097767Y0192901D01*
X0097730Y0192913D01*
X0097694Y0192929D01*
X0097660Y0192949D01*
X0097628Y0192972D01*
X0097599Y0192998D01*
X0097572Y0193027D01*
X0097548Y0193058D01*
X0097528Y0193092D01*
X0097511Y0193127D01*
X0097498Y0193164D01*
X0097488Y0193202D01*
X0097482Y0193241D01*
X0097480Y0193280D01*
X0108809Y0185443D02*
X0108809Y0175404D01*
X0064360Y0149783D02*
X0064360Y0135217D01*
X0060030Y0135217D01*
X0052156Y0135217D02*
X0050187Y0135217D01*
X0042313Y0135217D02*
X0040344Y0135217D01*
X0032470Y0135217D02*
X0028140Y0135217D01*
X0028140Y0149783D01*
X0032864Y0149783D01*
X0040344Y0149783D02*
X0042313Y0149783D01*
X0050187Y0149783D02*
X0052156Y0149783D01*
X0059636Y0149783D02*
X0064360Y0149783D01*
X0032273Y0139547D02*
X0032275Y0139586D01*
X0032281Y0139625D01*
X0032291Y0139663D01*
X0032304Y0139700D01*
X0032321Y0139735D01*
X0032341Y0139769D01*
X0032365Y0139800D01*
X0032392Y0139829D01*
X0032421Y0139855D01*
X0032453Y0139878D01*
X0032487Y0139898D01*
X0032523Y0139914D01*
X0032560Y0139926D01*
X0032599Y0139935D01*
X0032638Y0139940D01*
X0032677Y0139941D01*
X0032716Y0139938D01*
X0032755Y0139931D01*
X0032792Y0139920D01*
X0032829Y0139906D01*
X0032864Y0139888D01*
X0032897Y0139867D01*
X0032928Y0139842D01*
X0032956Y0139815D01*
X0032981Y0139785D01*
X0033003Y0139752D01*
X0033022Y0139718D01*
X0033037Y0139682D01*
X0033049Y0139644D01*
X0033057Y0139606D01*
X0033061Y0139567D01*
X0033061Y0139527D01*
X0033057Y0139488D01*
X0033049Y0139450D01*
X0033037Y0139412D01*
X0033022Y0139376D01*
X0033003Y0139342D01*
X0032981Y0139309D01*
X0032956Y0139279D01*
X0032928Y0139252D01*
X0032897Y0139227D01*
X0032864Y0139206D01*
X0032829Y0139188D01*
X0032792Y0139174D01*
X0032755Y0139163D01*
X0032716Y0139156D01*
X0032677Y0139153D01*
X0032638Y0139154D01*
X0032599Y0139159D01*
X0032560Y0139168D01*
X0032523Y0139180D01*
X0032487Y0139196D01*
X0032453Y0139216D01*
X0032421Y0139239D01*
X0032392Y0139265D01*
X0032365Y0139294D01*
X0032341Y0139325D01*
X0032321Y0139359D01*
X0032304Y0139394D01*
X0032291Y0139431D01*
X0032281Y0139469D01*
X0032275Y0139508D01*
X0032273Y0139547D01*
X0024459Y0147963D02*
X0024459Y0149537D01*
X0013041Y0149537D01*
X0013041Y0147963D01*
X0024459Y0147963D01*
X0012844Y0146585D02*
X0012844Y0142254D01*
X0015689Y0122933D02*
X0015689Y0112697D01*
X0015689Y0122933D02*
X0018839Y0122933D01*
X0012844Y0167254D02*
X0012844Y0171585D01*
X0013041Y0172963D02*
X0024459Y0172963D01*
X0024459Y0174537D01*
X0013041Y0174537D01*
X0013041Y0172963D01*
X0015689Y0062303D02*
X0015689Y0052067D01*
X0018839Y0052067D01*
D18*
X0111388Y0178091D03*
X0116112Y0178091D03*
D19*
X0113750Y0178091D03*
D20*
X0113750Y0180453D03*
X0113750Y0174547D03*
D21*
X0112920Y0166244D03*
X0107120Y0166244D03*
X0064170Y0194994D03*
X0058370Y0194994D03*
X0021670Y0161244D03*
X0015870Y0161244D03*
X0015870Y0136244D03*
X0021670Y0136244D03*
X0034580Y0041256D03*
X0040380Y0041256D03*
X0040380Y0032506D03*
X0034580Y0032506D03*
X0050830Y0041256D03*
X0056630Y0041256D03*
D22*
X0046750Y0017250D02*
X0046750Y0012750D01*
X0045500Y0012750D02*
X0048000Y0012750D01*
X0045500Y0016250D02*
X0046750Y0017250D01*
X0002500Y0013750D02*
X0000000Y0013750D01*
X0001000Y0017250D01*
X0001750Y0014750D02*
X0001750Y0012750D01*
X0010827Y0200610D02*
X0039173Y0200610D01*
X0039173Y0216358D01*
X0010827Y0216358D01*
X0010827Y0200610D01*
X0015748Y0200610D02*
X0034252Y0200610D01*
X0034252Y0214390D01*
X0029134Y0214390D01*
X0029134Y0216358D01*
X0020866Y0216358D01*
X0020866Y0214390D01*
X0029134Y0214390D01*
X0020866Y0214390D02*
X0015748Y0214390D01*
X0015748Y0200610D01*
X0040827Y0200610D02*
X0069173Y0200610D01*
X0069173Y0216358D01*
X0040827Y0216358D01*
X0040827Y0200610D01*
X0045748Y0200610D02*
X0064252Y0200610D01*
X0064252Y0214390D01*
X0059134Y0214390D01*
X0059134Y0216358D01*
X0050866Y0216358D01*
X0050866Y0214390D01*
X0059134Y0214390D01*
X0050866Y0214390D02*
X0045748Y0214390D01*
X0045748Y0200610D01*
D23*
X0104500Y0128500D02*
X0104502Y0128544D01*
X0104508Y0128587D01*
X0104517Y0128629D01*
X0104530Y0128671D01*
X0104547Y0128711D01*
X0104567Y0128750D01*
X0104590Y0128787D01*
X0104617Y0128821D01*
X0104646Y0128854D01*
X0104679Y0128883D01*
X0104713Y0128910D01*
X0104750Y0128933D01*
X0104789Y0128953D01*
X0104829Y0128970D01*
X0104871Y0128983D01*
X0104913Y0128992D01*
X0104956Y0128998D01*
X0105000Y0129000D01*
X0105044Y0128998D01*
X0105087Y0128992D01*
X0105129Y0128983D01*
X0105171Y0128970D01*
X0105211Y0128953D01*
X0105250Y0128933D01*
X0105287Y0128910D01*
X0105321Y0128883D01*
X0105354Y0128854D01*
X0105383Y0128821D01*
X0105410Y0128787D01*
X0105433Y0128750D01*
X0105453Y0128711D01*
X0105470Y0128671D01*
X0105483Y0128629D01*
X0105492Y0128587D01*
X0105498Y0128544D01*
X0105500Y0128500D01*
X0105500Y0126500D02*
X0105498Y0126456D01*
X0105492Y0126413D01*
X0105483Y0126371D01*
X0105470Y0126329D01*
X0105453Y0126289D01*
X0105433Y0126250D01*
X0105410Y0126213D01*
X0105383Y0126179D01*
X0105354Y0126146D01*
X0105321Y0126117D01*
X0105287Y0126090D01*
X0105250Y0126067D01*
X0105211Y0126047D01*
X0105171Y0126030D01*
X0105129Y0126017D01*
X0105087Y0126008D01*
X0105044Y0126002D01*
X0105000Y0126000D01*
X0104956Y0126002D01*
X0104913Y0126008D01*
X0104871Y0126017D01*
X0104829Y0126030D01*
X0104789Y0126047D01*
X0104750Y0126067D01*
X0104713Y0126090D01*
X0104679Y0126117D01*
X0104646Y0126146D01*
X0104617Y0126179D01*
X0104590Y0126213D01*
X0104567Y0126250D01*
X0104547Y0126289D01*
X0104530Y0126329D01*
X0104517Y0126371D01*
X0104508Y0126413D01*
X0104502Y0126456D01*
X0104500Y0126500D01*
X0100500Y0083500D02*
X0100498Y0083544D01*
X0100492Y0083587D01*
X0100483Y0083629D01*
X0100470Y0083671D01*
X0100453Y0083711D01*
X0100433Y0083750D01*
X0100410Y0083787D01*
X0100383Y0083821D01*
X0100354Y0083854D01*
X0100321Y0083883D01*
X0100287Y0083910D01*
X0100250Y0083933D01*
X0100211Y0083953D01*
X0100171Y0083970D01*
X0100129Y0083983D01*
X0100087Y0083992D01*
X0100044Y0083998D01*
X0100000Y0084000D01*
X0099956Y0083998D01*
X0099913Y0083992D01*
X0099871Y0083983D01*
X0099829Y0083970D01*
X0099789Y0083953D01*
X0099750Y0083933D01*
X0099713Y0083910D01*
X0099679Y0083883D01*
X0099646Y0083854D01*
X0099617Y0083821D01*
X0099590Y0083787D01*
X0099567Y0083750D01*
X0099547Y0083711D01*
X0099530Y0083671D01*
X0099517Y0083629D01*
X0099508Y0083587D01*
X0099502Y0083544D01*
X0099500Y0083500D01*
X0099500Y0081500D02*
X0099502Y0081456D01*
X0099508Y0081413D01*
X0099517Y0081371D01*
X0099530Y0081329D01*
X0099547Y0081289D01*
X0099567Y0081250D01*
X0099590Y0081213D01*
X0099617Y0081179D01*
X0099646Y0081146D01*
X0099679Y0081117D01*
X0099713Y0081090D01*
X0099750Y0081067D01*
X0099789Y0081047D01*
X0099829Y0081030D01*
X0099871Y0081017D01*
X0099913Y0081008D01*
X0099956Y0081002D01*
X0100000Y0081000D01*
X0100044Y0081002D01*
X0100087Y0081008D01*
X0100129Y0081017D01*
X0100171Y0081030D01*
X0100211Y0081047D01*
X0100250Y0081067D01*
X0100287Y0081090D01*
X0100321Y0081117D01*
X0100354Y0081146D01*
X0100383Y0081179D01*
X0100410Y0081213D01*
X0100433Y0081250D01*
X0100453Y0081289D01*
X0100470Y0081329D01*
X0100483Y0081371D01*
X0100492Y0081413D01*
X0100498Y0081456D01*
X0100500Y0081500D01*
D24*
X0067494Y0022880D03*
X0067494Y0017080D03*
X0058756Y0017120D03*
X0058756Y0022920D03*
X0016244Y0034580D03*
X0016244Y0040380D03*
X0031256Y0185870D03*
X0031256Y0191670D03*
X0040006Y0191670D03*
X0040006Y0185870D03*
X0048756Y0185870D03*
X0048756Y0191670D03*
D25*
X0038750Y0015000D03*
X0028750Y0015000D03*
X0018750Y0015000D03*
X0008750Y0015000D03*
D26*
X0112490Y0062866D03*
X0112490Y0074666D03*
M02*
