G75*
%MOIN*%
%OFA0B0*%
%FSLAX25Y25*%
%IPPOS*%
%LPD*%
%AMOC8*
5,1,8,0,0,1.08239X$1,22.5*
%
%ADD10C,0.00000*%
%ADD11C,0.00600*%
D10*
X0078582Y0197217D02*
X0078584Y0197296D01*
X0078590Y0197375D01*
X0078600Y0197454D01*
X0078614Y0197532D01*
X0078631Y0197609D01*
X0078653Y0197685D01*
X0078678Y0197760D01*
X0078708Y0197833D01*
X0078740Y0197905D01*
X0078777Y0197976D01*
X0078817Y0198044D01*
X0078860Y0198110D01*
X0078906Y0198174D01*
X0078956Y0198236D01*
X0079009Y0198295D01*
X0079064Y0198351D01*
X0079123Y0198405D01*
X0079184Y0198455D01*
X0079247Y0198503D01*
X0079313Y0198547D01*
X0079381Y0198588D01*
X0079451Y0198625D01*
X0079522Y0198659D01*
X0079596Y0198689D01*
X0079670Y0198715D01*
X0079746Y0198737D01*
X0079823Y0198756D01*
X0079901Y0198771D01*
X0079979Y0198782D01*
X0080058Y0198789D01*
X0080137Y0198792D01*
X0080216Y0198791D01*
X0080295Y0198786D01*
X0080374Y0198777D01*
X0080452Y0198764D01*
X0080529Y0198747D01*
X0080606Y0198727D01*
X0080681Y0198702D01*
X0080755Y0198674D01*
X0080828Y0198642D01*
X0080898Y0198607D01*
X0080967Y0198568D01*
X0081034Y0198525D01*
X0081099Y0198479D01*
X0081161Y0198431D01*
X0081221Y0198379D01*
X0081278Y0198324D01*
X0081332Y0198266D01*
X0081383Y0198206D01*
X0081431Y0198143D01*
X0081476Y0198078D01*
X0081518Y0198010D01*
X0081556Y0197941D01*
X0081590Y0197870D01*
X0081621Y0197797D01*
X0081649Y0197722D01*
X0081672Y0197647D01*
X0081692Y0197570D01*
X0081708Y0197493D01*
X0081720Y0197414D01*
X0081728Y0197336D01*
X0081732Y0197257D01*
X0081732Y0197177D01*
X0081728Y0197098D01*
X0081720Y0197020D01*
X0081708Y0196941D01*
X0081692Y0196864D01*
X0081672Y0196787D01*
X0081649Y0196712D01*
X0081621Y0196637D01*
X0081590Y0196564D01*
X0081556Y0196493D01*
X0081518Y0196424D01*
X0081476Y0196356D01*
X0081431Y0196291D01*
X0081383Y0196228D01*
X0081332Y0196168D01*
X0081278Y0196110D01*
X0081221Y0196055D01*
X0081161Y0196003D01*
X0081099Y0195955D01*
X0081034Y0195909D01*
X0080967Y0195866D01*
X0080898Y0195827D01*
X0080828Y0195792D01*
X0080755Y0195760D01*
X0080681Y0195732D01*
X0080606Y0195707D01*
X0080529Y0195687D01*
X0080452Y0195670D01*
X0080374Y0195657D01*
X0080295Y0195648D01*
X0080216Y0195643D01*
X0080137Y0195642D01*
X0080058Y0195645D01*
X0079979Y0195652D01*
X0079901Y0195663D01*
X0079823Y0195678D01*
X0079746Y0195697D01*
X0079670Y0195719D01*
X0079596Y0195745D01*
X0079522Y0195775D01*
X0079451Y0195809D01*
X0079381Y0195846D01*
X0079313Y0195887D01*
X0079247Y0195931D01*
X0079184Y0195979D01*
X0079123Y0196029D01*
X0079064Y0196083D01*
X0079009Y0196139D01*
X0078956Y0196198D01*
X0078906Y0196260D01*
X0078860Y0196324D01*
X0078817Y0196390D01*
X0078777Y0196458D01*
X0078740Y0196529D01*
X0078708Y0196601D01*
X0078678Y0196674D01*
X0078653Y0196749D01*
X0078631Y0196825D01*
X0078614Y0196902D01*
X0078600Y0196980D01*
X0078590Y0197059D01*
X0078584Y0197138D01*
X0078582Y0197217D01*
X0098268Y0197217D02*
X0098270Y0197296D01*
X0098276Y0197375D01*
X0098286Y0197454D01*
X0098300Y0197532D01*
X0098317Y0197609D01*
X0098339Y0197685D01*
X0098364Y0197760D01*
X0098394Y0197833D01*
X0098426Y0197905D01*
X0098463Y0197976D01*
X0098503Y0198044D01*
X0098546Y0198110D01*
X0098592Y0198174D01*
X0098642Y0198236D01*
X0098695Y0198295D01*
X0098750Y0198351D01*
X0098809Y0198405D01*
X0098870Y0198455D01*
X0098933Y0198503D01*
X0098999Y0198547D01*
X0099067Y0198588D01*
X0099137Y0198625D01*
X0099208Y0198659D01*
X0099282Y0198689D01*
X0099356Y0198715D01*
X0099432Y0198737D01*
X0099509Y0198756D01*
X0099587Y0198771D01*
X0099665Y0198782D01*
X0099744Y0198789D01*
X0099823Y0198792D01*
X0099902Y0198791D01*
X0099981Y0198786D01*
X0100060Y0198777D01*
X0100138Y0198764D01*
X0100215Y0198747D01*
X0100292Y0198727D01*
X0100367Y0198702D01*
X0100441Y0198674D01*
X0100514Y0198642D01*
X0100584Y0198607D01*
X0100653Y0198568D01*
X0100720Y0198525D01*
X0100785Y0198479D01*
X0100847Y0198431D01*
X0100907Y0198379D01*
X0100964Y0198324D01*
X0101018Y0198266D01*
X0101069Y0198206D01*
X0101117Y0198143D01*
X0101162Y0198078D01*
X0101204Y0198010D01*
X0101242Y0197941D01*
X0101276Y0197870D01*
X0101307Y0197797D01*
X0101335Y0197722D01*
X0101358Y0197647D01*
X0101378Y0197570D01*
X0101394Y0197493D01*
X0101406Y0197414D01*
X0101414Y0197336D01*
X0101418Y0197257D01*
X0101418Y0197177D01*
X0101414Y0197098D01*
X0101406Y0197020D01*
X0101394Y0196941D01*
X0101378Y0196864D01*
X0101358Y0196787D01*
X0101335Y0196712D01*
X0101307Y0196637D01*
X0101276Y0196564D01*
X0101242Y0196493D01*
X0101204Y0196424D01*
X0101162Y0196356D01*
X0101117Y0196291D01*
X0101069Y0196228D01*
X0101018Y0196168D01*
X0100964Y0196110D01*
X0100907Y0196055D01*
X0100847Y0196003D01*
X0100785Y0195955D01*
X0100720Y0195909D01*
X0100653Y0195866D01*
X0100584Y0195827D01*
X0100514Y0195792D01*
X0100441Y0195760D01*
X0100367Y0195732D01*
X0100292Y0195707D01*
X0100215Y0195687D01*
X0100138Y0195670D01*
X0100060Y0195657D01*
X0099981Y0195648D01*
X0099902Y0195643D01*
X0099823Y0195642D01*
X0099744Y0195645D01*
X0099665Y0195652D01*
X0099587Y0195663D01*
X0099509Y0195678D01*
X0099432Y0195697D01*
X0099356Y0195719D01*
X0099282Y0195745D01*
X0099208Y0195775D01*
X0099137Y0195809D01*
X0099067Y0195846D01*
X0098999Y0195887D01*
X0098933Y0195931D01*
X0098870Y0195979D01*
X0098809Y0196029D01*
X0098750Y0196083D01*
X0098695Y0196139D01*
X0098642Y0196198D01*
X0098592Y0196260D01*
X0098546Y0196324D01*
X0098503Y0196390D01*
X0098463Y0196458D01*
X0098426Y0196529D01*
X0098394Y0196601D01*
X0098364Y0196674D01*
X0098339Y0196749D01*
X0098317Y0196825D01*
X0098300Y0196902D01*
X0098286Y0196980D01*
X0098276Y0197059D01*
X0098270Y0197138D01*
X0098268Y0197217D01*
X0053524Y0202087D02*
X0053526Y0202164D01*
X0053532Y0202240D01*
X0053542Y0202316D01*
X0053556Y0202391D01*
X0053573Y0202466D01*
X0053595Y0202539D01*
X0053620Y0202612D01*
X0053650Y0202683D01*
X0053682Y0202752D01*
X0053719Y0202819D01*
X0053758Y0202885D01*
X0053801Y0202948D01*
X0053848Y0203009D01*
X0053897Y0203068D01*
X0053950Y0203124D01*
X0054005Y0203177D01*
X0054063Y0203227D01*
X0054123Y0203274D01*
X0054186Y0203318D01*
X0054251Y0203359D01*
X0054318Y0203396D01*
X0054387Y0203430D01*
X0054457Y0203460D01*
X0054529Y0203486D01*
X0054603Y0203508D01*
X0054677Y0203527D01*
X0054752Y0203542D01*
X0054828Y0203553D01*
X0054904Y0203560D01*
X0054981Y0203563D01*
X0055057Y0203562D01*
X0055134Y0203557D01*
X0055210Y0203548D01*
X0055286Y0203535D01*
X0055360Y0203518D01*
X0055434Y0203498D01*
X0055507Y0203473D01*
X0055578Y0203445D01*
X0055648Y0203413D01*
X0055716Y0203378D01*
X0055782Y0203339D01*
X0055846Y0203297D01*
X0055907Y0203251D01*
X0055967Y0203202D01*
X0056023Y0203151D01*
X0056077Y0203096D01*
X0056128Y0203039D01*
X0056176Y0202979D01*
X0056221Y0202917D01*
X0056262Y0202852D01*
X0056300Y0202786D01*
X0056335Y0202718D01*
X0056365Y0202647D01*
X0056393Y0202576D01*
X0056416Y0202503D01*
X0056436Y0202429D01*
X0056452Y0202354D01*
X0056464Y0202278D01*
X0056472Y0202202D01*
X0056476Y0202125D01*
X0056476Y0202049D01*
X0056472Y0201972D01*
X0056464Y0201896D01*
X0056452Y0201820D01*
X0056436Y0201745D01*
X0056416Y0201671D01*
X0056393Y0201598D01*
X0056365Y0201527D01*
X0056335Y0201456D01*
X0056300Y0201388D01*
X0056262Y0201322D01*
X0056221Y0201257D01*
X0056176Y0201195D01*
X0056128Y0201135D01*
X0056077Y0201078D01*
X0056023Y0201023D01*
X0055967Y0200972D01*
X0055907Y0200923D01*
X0055846Y0200877D01*
X0055782Y0200835D01*
X0055716Y0200796D01*
X0055648Y0200761D01*
X0055578Y0200729D01*
X0055507Y0200701D01*
X0055434Y0200676D01*
X0055360Y0200656D01*
X0055286Y0200639D01*
X0055210Y0200626D01*
X0055134Y0200617D01*
X0055057Y0200612D01*
X0054981Y0200611D01*
X0054904Y0200614D01*
X0054828Y0200621D01*
X0054752Y0200632D01*
X0054677Y0200647D01*
X0054603Y0200666D01*
X0054529Y0200688D01*
X0054457Y0200714D01*
X0054387Y0200744D01*
X0054318Y0200778D01*
X0054251Y0200815D01*
X0054186Y0200856D01*
X0054123Y0200900D01*
X0054063Y0200947D01*
X0054005Y0200997D01*
X0053950Y0201050D01*
X0053897Y0201106D01*
X0053848Y0201165D01*
X0053801Y0201226D01*
X0053758Y0201289D01*
X0053719Y0201355D01*
X0053682Y0201422D01*
X0053650Y0201491D01*
X0053620Y0201562D01*
X0053595Y0201635D01*
X0053573Y0201708D01*
X0053556Y0201783D01*
X0053542Y0201858D01*
X0053532Y0201934D01*
X0053526Y0202010D01*
X0053524Y0202087D01*
X0053526Y0202164D01*
X0053532Y0202240D01*
X0053542Y0202316D01*
X0053556Y0202391D01*
X0053573Y0202466D01*
X0053595Y0202539D01*
X0053620Y0202612D01*
X0053650Y0202683D01*
X0053682Y0202752D01*
X0053719Y0202819D01*
X0053758Y0202885D01*
X0053801Y0202948D01*
X0053848Y0203009D01*
X0053897Y0203068D01*
X0053950Y0203124D01*
X0054005Y0203177D01*
X0054063Y0203227D01*
X0054123Y0203274D01*
X0054186Y0203318D01*
X0054251Y0203359D01*
X0054318Y0203396D01*
X0054387Y0203430D01*
X0054457Y0203460D01*
X0054529Y0203486D01*
X0054603Y0203508D01*
X0054677Y0203527D01*
X0054752Y0203542D01*
X0054828Y0203553D01*
X0054904Y0203560D01*
X0054981Y0203563D01*
X0055057Y0203562D01*
X0055134Y0203557D01*
X0055210Y0203548D01*
X0055286Y0203535D01*
X0055360Y0203518D01*
X0055434Y0203498D01*
X0055507Y0203473D01*
X0055578Y0203445D01*
X0055648Y0203413D01*
X0055716Y0203378D01*
X0055782Y0203339D01*
X0055846Y0203297D01*
X0055907Y0203251D01*
X0055967Y0203202D01*
X0056023Y0203151D01*
X0056077Y0203096D01*
X0056128Y0203039D01*
X0056176Y0202979D01*
X0056221Y0202917D01*
X0056262Y0202852D01*
X0056300Y0202786D01*
X0056335Y0202718D01*
X0056365Y0202647D01*
X0056393Y0202576D01*
X0056416Y0202503D01*
X0056436Y0202429D01*
X0056452Y0202354D01*
X0056464Y0202278D01*
X0056472Y0202202D01*
X0056476Y0202125D01*
X0056476Y0202049D01*
X0056472Y0201972D01*
X0056464Y0201896D01*
X0056452Y0201820D01*
X0056436Y0201745D01*
X0056416Y0201671D01*
X0056393Y0201598D01*
X0056365Y0201527D01*
X0056335Y0201456D01*
X0056300Y0201388D01*
X0056262Y0201322D01*
X0056221Y0201257D01*
X0056176Y0201195D01*
X0056128Y0201135D01*
X0056077Y0201078D01*
X0056023Y0201023D01*
X0055967Y0200972D01*
X0055907Y0200923D01*
X0055846Y0200877D01*
X0055782Y0200835D01*
X0055716Y0200796D01*
X0055648Y0200761D01*
X0055578Y0200729D01*
X0055507Y0200701D01*
X0055434Y0200676D01*
X0055360Y0200656D01*
X0055286Y0200639D01*
X0055210Y0200626D01*
X0055134Y0200617D01*
X0055057Y0200612D01*
X0054981Y0200611D01*
X0054904Y0200614D01*
X0054828Y0200621D01*
X0054752Y0200632D01*
X0054677Y0200647D01*
X0054603Y0200666D01*
X0054529Y0200688D01*
X0054457Y0200714D01*
X0054387Y0200744D01*
X0054318Y0200778D01*
X0054251Y0200815D01*
X0054186Y0200856D01*
X0054123Y0200900D01*
X0054063Y0200947D01*
X0054005Y0200997D01*
X0053950Y0201050D01*
X0053897Y0201106D01*
X0053848Y0201165D01*
X0053801Y0201226D01*
X0053758Y0201289D01*
X0053719Y0201355D01*
X0053682Y0201422D01*
X0053650Y0201491D01*
X0053620Y0201562D01*
X0053595Y0201635D01*
X0053573Y0201708D01*
X0053556Y0201783D01*
X0053542Y0201858D01*
X0053532Y0201934D01*
X0053526Y0202010D01*
X0053524Y0202087D01*
X0053526Y0202164D01*
X0053532Y0202240D01*
X0053542Y0202316D01*
X0053556Y0202391D01*
X0053573Y0202466D01*
X0053595Y0202539D01*
X0053620Y0202612D01*
X0053650Y0202683D01*
X0053682Y0202752D01*
X0053719Y0202819D01*
X0053758Y0202885D01*
X0053801Y0202948D01*
X0053848Y0203009D01*
X0053897Y0203068D01*
X0053950Y0203124D01*
X0054005Y0203177D01*
X0054063Y0203227D01*
X0054123Y0203274D01*
X0054186Y0203318D01*
X0054251Y0203359D01*
X0054318Y0203396D01*
X0054387Y0203430D01*
X0054457Y0203460D01*
X0054529Y0203486D01*
X0054603Y0203508D01*
X0054677Y0203527D01*
X0054752Y0203542D01*
X0054828Y0203553D01*
X0054904Y0203560D01*
X0054981Y0203563D01*
X0055057Y0203562D01*
X0055134Y0203557D01*
X0055210Y0203548D01*
X0055286Y0203535D01*
X0055360Y0203518D01*
X0055434Y0203498D01*
X0055507Y0203473D01*
X0055578Y0203445D01*
X0055648Y0203413D01*
X0055716Y0203378D01*
X0055782Y0203339D01*
X0055846Y0203297D01*
X0055907Y0203251D01*
X0055967Y0203202D01*
X0056023Y0203151D01*
X0056077Y0203096D01*
X0056128Y0203039D01*
X0056176Y0202979D01*
X0056221Y0202917D01*
X0056262Y0202852D01*
X0056300Y0202786D01*
X0056335Y0202718D01*
X0056365Y0202647D01*
X0056393Y0202576D01*
X0056416Y0202503D01*
X0056436Y0202429D01*
X0056452Y0202354D01*
X0056464Y0202278D01*
X0056472Y0202202D01*
X0056476Y0202125D01*
X0056476Y0202049D01*
X0056472Y0201972D01*
X0056464Y0201896D01*
X0056452Y0201820D01*
X0056436Y0201745D01*
X0056416Y0201671D01*
X0056393Y0201598D01*
X0056365Y0201527D01*
X0056335Y0201456D01*
X0056300Y0201388D01*
X0056262Y0201322D01*
X0056221Y0201257D01*
X0056176Y0201195D01*
X0056128Y0201135D01*
X0056077Y0201078D01*
X0056023Y0201023D01*
X0055967Y0200972D01*
X0055907Y0200923D01*
X0055846Y0200877D01*
X0055782Y0200835D01*
X0055716Y0200796D01*
X0055648Y0200761D01*
X0055578Y0200729D01*
X0055507Y0200701D01*
X0055434Y0200676D01*
X0055360Y0200656D01*
X0055286Y0200639D01*
X0055210Y0200626D01*
X0055134Y0200617D01*
X0055057Y0200612D01*
X0054981Y0200611D01*
X0054904Y0200614D01*
X0054828Y0200621D01*
X0054752Y0200632D01*
X0054677Y0200647D01*
X0054603Y0200666D01*
X0054529Y0200688D01*
X0054457Y0200714D01*
X0054387Y0200744D01*
X0054318Y0200778D01*
X0054251Y0200815D01*
X0054186Y0200856D01*
X0054123Y0200900D01*
X0054063Y0200947D01*
X0054005Y0200997D01*
X0053950Y0201050D01*
X0053897Y0201106D01*
X0053848Y0201165D01*
X0053801Y0201226D01*
X0053758Y0201289D01*
X0053719Y0201355D01*
X0053682Y0201422D01*
X0053650Y0201491D01*
X0053620Y0201562D01*
X0053595Y0201635D01*
X0053573Y0201708D01*
X0053556Y0201783D01*
X0053542Y0201858D01*
X0053532Y0201934D01*
X0053526Y0202010D01*
X0053524Y0202087D01*
X0053526Y0202164D01*
X0053532Y0202240D01*
X0053542Y0202316D01*
X0053556Y0202391D01*
X0053573Y0202466D01*
X0053595Y0202539D01*
X0053620Y0202612D01*
X0053650Y0202683D01*
X0053682Y0202752D01*
X0053719Y0202819D01*
X0053758Y0202885D01*
X0053801Y0202948D01*
X0053848Y0203009D01*
X0053897Y0203068D01*
X0053950Y0203124D01*
X0054005Y0203177D01*
X0054063Y0203227D01*
X0054123Y0203274D01*
X0054186Y0203318D01*
X0054251Y0203359D01*
X0054318Y0203396D01*
X0054387Y0203430D01*
X0054457Y0203460D01*
X0054529Y0203486D01*
X0054603Y0203508D01*
X0054677Y0203527D01*
X0054752Y0203542D01*
X0054828Y0203553D01*
X0054904Y0203560D01*
X0054981Y0203563D01*
X0055057Y0203562D01*
X0055134Y0203557D01*
X0055210Y0203548D01*
X0055286Y0203535D01*
X0055360Y0203518D01*
X0055434Y0203498D01*
X0055507Y0203473D01*
X0055578Y0203445D01*
X0055648Y0203413D01*
X0055716Y0203378D01*
X0055782Y0203339D01*
X0055846Y0203297D01*
X0055907Y0203251D01*
X0055967Y0203202D01*
X0056023Y0203151D01*
X0056077Y0203096D01*
X0056128Y0203039D01*
X0056176Y0202979D01*
X0056221Y0202917D01*
X0056262Y0202852D01*
X0056300Y0202786D01*
X0056335Y0202718D01*
X0056365Y0202647D01*
X0056393Y0202576D01*
X0056416Y0202503D01*
X0056436Y0202429D01*
X0056452Y0202354D01*
X0056464Y0202278D01*
X0056472Y0202202D01*
X0056476Y0202125D01*
X0056476Y0202049D01*
X0056472Y0201972D01*
X0056464Y0201896D01*
X0056452Y0201820D01*
X0056436Y0201745D01*
X0056416Y0201671D01*
X0056393Y0201598D01*
X0056365Y0201527D01*
X0056335Y0201456D01*
X0056300Y0201388D01*
X0056262Y0201322D01*
X0056221Y0201257D01*
X0056176Y0201195D01*
X0056128Y0201135D01*
X0056077Y0201078D01*
X0056023Y0201023D01*
X0055967Y0200972D01*
X0055907Y0200923D01*
X0055846Y0200877D01*
X0055782Y0200835D01*
X0055716Y0200796D01*
X0055648Y0200761D01*
X0055578Y0200729D01*
X0055507Y0200701D01*
X0055434Y0200676D01*
X0055360Y0200656D01*
X0055286Y0200639D01*
X0055210Y0200626D01*
X0055134Y0200617D01*
X0055057Y0200612D01*
X0054981Y0200611D01*
X0054904Y0200614D01*
X0054828Y0200621D01*
X0054752Y0200632D01*
X0054677Y0200647D01*
X0054603Y0200666D01*
X0054529Y0200688D01*
X0054457Y0200714D01*
X0054387Y0200744D01*
X0054318Y0200778D01*
X0054251Y0200815D01*
X0054186Y0200856D01*
X0054123Y0200900D01*
X0054063Y0200947D01*
X0054005Y0200997D01*
X0053950Y0201050D01*
X0053897Y0201106D01*
X0053848Y0201165D01*
X0053801Y0201226D01*
X0053758Y0201289D01*
X0053719Y0201355D01*
X0053682Y0201422D01*
X0053650Y0201491D01*
X0053620Y0201562D01*
X0053595Y0201635D01*
X0053573Y0201708D01*
X0053556Y0201783D01*
X0053542Y0201858D01*
X0053532Y0201934D01*
X0053526Y0202010D01*
X0053524Y0202087D01*
X0053526Y0202164D01*
X0053532Y0202240D01*
X0053542Y0202316D01*
X0053556Y0202391D01*
X0053573Y0202466D01*
X0053595Y0202539D01*
X0053620Y0202612D01*
X0053650Y0202683D01*
X0053682Y0202752D01*
X0053719Y0202819D01*
X0053758Y0202885D01*
X0053801Y0202948D01*
X0053848Y0203009D01*
X0053897Y0203068D01*
X0053950Y0203124D01*
X0054005Y0203177D01*
X0054063Y0203227D01*
X0054123Y0203274D01*
X0054186Y0203318D01*
X0054251Y0203359D01*
X0054318Y0203396D01*
X0054387Y0203430D01*
X0054457Y0203460D01*
X0054529Y0203486D01*
X0054603Y0203508D01*
X0054677Y0203527D01*
X0054752Y0203542D01*
X0054828Y0203553D01*
X0054904Y0203560D01*
X0054981Y0203563D01*
X0055057Y0203562D01*
X0055134Y0203557D01*
X0055210Y0203548D01*
X0055286Y0203535D01*
X0055360Y0203518D01*
X0055434Y0203498D01*
X0055507Y0203473D01*
X0055578Y0203445D01*
X0055648Y0203413D01*
X0055716Y0203378D01*
X0055782Y0203339D01*
X0055846Y0203297D01*
X0055907Y0203251D01*
X0055967Y0203202D01*
X0056023Y0203151D01*
X0056077Y0203096D01*
X0056128Y0203039D01*
X0056176Y0202979D01*
X0056221Y0202917D01*
X0056262Y0202852D01*
X0056300Y0202786D01*
X0056335Y0202718D01*
X0056365Y0202647D01*
X0056393Y0202576D01*
X0056416Y0202503D01*
X0056436Y0202429D01*
X0056452Y0202354D01*
X0056464Y0202278D01*
X0056472Y0202202D01*
X0056476Y0202125D01*
X0056476Y0202049D01*
X0056472Y0201972D01*
X0056464Y0201896D01*
X0056452Y0201820D01*
X0056436Y0201745D01*
X0056416Y0201671D01*
X0056393Y0201598D01*
X0056365Y0201527D01*
X0056335Y0201456D01*
X0056300Y0201388D01*
X0056262Y0201322D01*
X0056221Y0201257D01*
X0056176Y0201195D01*
X0056128Y0201135D01*
X0056077Y0201078D01*
X0056023Y0201023D01*
X0055967Y0200972D01*
X0055907Y0200923D01*
X0055846Y0200877D01*
X0055782Y0200835D01*
X0055716Y0200796D01*
X0055648Y0200761D01*
X0055578Y0200729D01*
X0055507Y0200701D01*
X0055434Y0200676D01*
X0055360Y0200656D01*
X0055286Y0200639D01*
X0055210Y0200626D01*
X0055134Y0200617D01*
X0055057Y0200612D01*
X0054981Y0200611D01*
X0054904Y0200614D01*
X0054828Y0200621D01*
X0054752Y0200632D01*
X0054677Y0200647D01*
X0054603Y0200666D01*
X0054529Y0200688D01*
X0054457Y0200714D01*
X0054387Y0200744D01*
X0054318Y0200778D01*
X0054251Y0200815D01*
X0054186Y0200856D01*
X0054123Y0200900D01*
X0054063Y0200947D01*
X0054005Y0200997D01*
X0053950Y0201050D01*
X0053897Y0201106D01*
X0053848Y0201165D01*
X0053801Y0201226D01*
X0053758Y0201289D01*
X0053719Y0201355D01*
X0053682Y0201422D01*
X0053650Y0201491D01*
X0053620Y0201562D01*
X0053595Y0201635D01*
X0053573Y0201708D01*
X0053556Y0201783D01*
X0053542Y0201858D01*
X0053532Y0201934D01*
X0053526Y0202010D01*
X0053524Y0202087D01*
X0053526Y0202164D01*
X0053532Y0202240D01*
X0053542Y0202316D01*
X0053556Y0202391D01*
X0053573Y0202466D01*
X0053595Y0202539D01*
X0053620Y0202612D01*
X0053650Y0202683D01*
X0053682Y0202752D01*
X0053719Y0202819D01*
X0053758Y0202885D01*
X0053801Y0202948D01*
X0053848Y0203009D01*
X0053897Y0203068D01*
X0053950Y0203124D01*
X0054005Y0203177D01*
X0054063Y0203227D01*
X0054123Y0203274D01*
X0054186Y0203318D01*
X0054251Y0203359D01*
X0054318Y0203396D01*
X0054387Y0203430D01*
X0054457Y0203460D01*
X0054529Y0203486D01*
X0054603Y0203508D01*
X0054677Y0203527D01*
X0054752Y0203542D01*
X0054828Y0203553D01*
X0054904Y0203560D01*
X0054981Y0203563D01*
X0055057Y0203562D01*
X0055134Y0203557D01*
X0055210Y0203548D01*
X0055286Y0203535D01*
X0055360Y0203518D01*
X0055434Y0203498D01*
X0055507Y0203473D01*
X0055578Y0203445D01*
X0055648Y0203413D01*
X0055716Y0203378D01*
X0055782Y0203339D01*
X0055846Y0203297D01*
X0055907Y0203251D01*
X0055967Y0203202D01*
X0056023Y0203151D01*
X0056077Y0203096D01*
X0056128Y0203039D01*
X0056176Y0202979D01*
X0056221Y0202917D01*
X0056262Y0202852D01*
X0056300Y0202786D01*
X0056335Y0202718D01*
X0056365Y0202647D01*
X0056393Y0202576D01*
X0056416Y0202503D01*
X0056436Y0202429D01*
X0056452Y0202354D01*
X0056464Y0202278D01*
X0056472Y0202202D01*
X0056476Y0202125D01*
X0056476Y0202049D01*
X0056472Y0201972D01*
X0056464Y0201896D01*
X0056452Y0201820D01*
X0056436Y0201745D01*
X0056416Y0201671D01*
X0056393Y0201598D01*
X0056365Y0201527D01*
X0056335Y0201456D01*
X0056300Y0201388D01*
X0056262Y0201322D01*
X0056221Y0201257D01*
X0056176Y0201195D01*
X0056128Y0201135D01*
X0056077Y0201078D01*
X0056023Y0201023D01*
X0055967Y0200972D01*
X0055907Y0200923D01*
X0055846Y0200877D01*
X0055782Y0200835D01*
X0055716Y0200796D01*
X0055648Y0200761D01*
X0055578Y0200729D01*
X0055507Y0200701D01*
X0055434Y0200676D01*
X0055360Y0200656D01*
X0055286Y0200639D01*
X0055210Y0200626D01*
X0055134Y0200617D01*
X0055057Y0200612D01*
X0054981Y0200611D01*
X0054904Y0200614D01*
X0054828Y0200621D01*
X0054752Y0200632D01*
X0054677Y0200647D01*
X0054603Y0200666D01*
X0054529Y0200688D01*
X0054457Y0200714D01*
X0054387Y0200744D01*
X0054318Y0200778D01*
X0054251Y0200815D01*
X0054186Y0200856D01*
X0054123Y0200900D01*
X0054063Y0200947D01*
X0054005Y0200997D01*
X0053950Y0201050D01*
X0053897Y0201106D01*
X0053848Y0201165D01*
X0053801Y0201226D01*
X0053758Y0201289D01*
X0053719Y0201355D01*
X0053682Y0201422D01*
X0053650Y0201491D01*
X0053620Y0201562D01*
X0053595Y0201635D01*
X0053573Y0201708D01*
X0053556Y0201783D01*
X0053542Y0201858D01*
X0053532Y0201934D01*
X0053526Y0202010D01*
X0053524Y0202087D01*
X0053526Y0202164D01*
X0053532Y0202240D01*
X0053542Y0202316D01*
X0053556Y0202391D01*
X0053573Y0202466D01*
X0053595Y0202539D01*
X0053620Y0202612D01*
X0053650Y0202683D01*
X0053682Y0202752D01*
X0053719Y0202819D01*
X0053758Y0202885D01*
X0053801Y0202948D01*
X0053848Y0203009D01*
X0053897Y0203068D01*
X0053950Y0203124D01*
X0054005Y0203177D01*
X0054063Y0203227D01*
X0054123Y0203274D01*
X0054186Y0203318D01*
X0054251Y0203359D01*
X0054318Y0203396D01*
X0054387Y0203430D01*
X0054457Y0203460D01*
X0054529Y0203486D01*
X0054603Y0203508D01*
X0054677Y0203527D01*
X0054752Y0203542D01*
X0054828Y0203553D01*
X0054904Y0203560D01*
X0054981Y0203563D01*
X0055057Y0203562D01*
X0055134Y0203557D01*
X0055210Y0203548D01*
X0055286Y0203535D01*
X0055360Y0203518D01*
X0055434Y0203498D01*
X0055507Y0203473D01*
X0055578Y0203445D01*
X0055648Y0203413D01*
X0055716Y0203378D01*
X0055782Y0203339D01*
X0055846Y0203297D01*
X0055907Y0203251D01*
X0055967Y0203202D01*
X0056023Y0203151D01*
X0056077Y0203096D01*
X0056128Y0203039D01*
X0056176Y0202979D01*
X0056221Y0202917D01*
X0056262Y0202852D01*
X0056300Y0202786D01*
X0056335Y0202718D01*
X0056365Y0202647D01*
X0056393Y0202576D01*
X0056416Y0202503D01*
X0056436Y0202429D01*
X0056452Y0202354D01*
X0056464Y0202278D01*
X0056472Y0202202D01*
X0056476Y0202125D01*
X0056476Y0202049D01*
X0056472Y0201972D01*
X0056464Y0201896D01*
X0056452Y0201820D01*
X0056436Y0201745D01*
X0056416Y0201671D01*
X0056393Y0201598D01*
X0056365Y0201527D01*
X0056335Y0201456D01*
X0056300Y0201388D01*
X0056262Y0201322D01*
X0056221Y0201257D01*
X0056176Y0201195D01*
X0056128Y0201135D01*
X0056077Y0201078D01*
X0056023Y0201023D01*
X0055967Y0200972D01*
X0055907Y0200923D01*
X0055846Y0200877D01*
X0055782Y0200835D01*
X0055716Y0200796D01*
X0055648Y0200761D01*
X0055578Y0200729D01*
X0055507Y0200701D01*
X0055434Y0200676D01*
X0055360Y0200656D01*
X0055286Y0200639D01*
X0055210Y0200626D01*
X0055134Y0200617D01*
X0055057Y0200612D01*
X0054981Y0200611D01*
X0054904Y0200614D01*
X0054828Y0200621D01*
X0054752Y0200632D01*
X0054677Y0200647D01*
X0054603Y0200666D01*
X0054529Y0200688D01*
X0054457Y0200714D01*
X0054387Y0200744D01*
X0054318Y0200778D01*
X0054251Y0200815D01*
X0054186Y0200856D01*
X0054123Y0200900D01*
X0054063Y0200947D01*
X0054005Y0200997D01*
X0053950Y0201050D01*
X0053897Y0201106D01*
X0053848Y0201165D01*
X0053801Y0201226D01*
X0053758Y0201289D01*
X0053719Y0201355D01*
X0053682Y0201422D01*
X0053650Y0201491D01*
X0053620Y0201562D01*
X0053595Y0201635D01*
X0053573Y0201708D01*
X0053556Y0201783D01*
X0053542Y0201858D01*
X0053532Y0201934D01*
X0053526Y0202010D01*
X0053524Y0202087D01*
X0053526Y0202164D01*
X0053532Y0202240D01*
X0053542Y0202316D01*
X0053556Y0202391D01*
X0053573Y0202466D01*
X0053595Y0202539D01*
X0053620Y0202612D01*
X0053650Y0202683D01*
X0053682Y0202752D01*
X0053719Y0202819D01*
X0053758Y0202885D01*
X0053801Y0202948D01*
X0053848Y0203009D01*
X0053897Y0203068D01*
X0053950Y0203124D01*
X0054005Y0203177D01*
X0054063Y0203227D01*
X0054123Y0203274D01*
X0054186Y0203318D01*
X0054251Y0203359D01*
X0054318Y0203396D01*
X0054387Y0203430D01*
X0054457Y0203460D01*
X0054529Y0203486D01*
X0054603Y0203508D01*
X0054677Y0203527D01*
X0054752Y0203542D01*
X0054828Y0203553D01*
X0054904Y0203560D01*
X0054981Y0203563D01*
X0055057Y0203562D01*
X0055134Y0203557D01*
X0055210Y0203548D01*
X0055286Y0203535D01*
X0055360Y0203518D01*
X0055434Y0203498D01*
X0055507Y0203473D01*
X0055578Y0203445D01*
X0055648Y0203413D01*
X0055716Y0203378D01*
X0055782Y0203339D01*
X0055846Y0203297D01*
X0055907Y0203251D01*
X0055967Y0203202D01*
X0056023Y0203151D01*
X0056077Y0203096D01*
X0056128Y0203039D01*
X0056176Y0202979D01*
X0056221Y0202917D01*
X0056262Y0202852D01*
X0056300Y0202786D01*
X0056335Y0202718D01*
X0056365Y0202647D01*
X0056393Y0202576D01*
X0056416Y0202503D01*
X0056436Y0202429D01*
X0056452Y0202354D01*
X0056464Y0202278D01*
X0056472Y0202202D01*
X0056476Y0202125D01*
X0056476Y0202049D01*
X0056472Y0201972D01*
X0056464Y0201896D01*
X0056452Y0201820D01*
X0056436Y0201745D01*
X0056416Y0201671D01*
X0056393Y0201598D01*
X0056365Y0201527D01*
X0056335Y0201456D01*
X0056300Y0201388D01*
X0056262Y0201322D01*
X0056221Y0201257D01*
X0056176Y0201195D01*
X0056128Y0201135D01*
X0056077Y0201078D01*
X0056023Y0201023D01*
X0055967Y0200972D01*
X0055907Y0200923D01*
X0055846Y0200877D01*
X0055782Y0200835D01*
X0055716Y0200796D01*
X0055648Y0200761D01*
X0055578Y0200729D01*
X0055507Y0200701D01*
X0055434Y0200676D01*
X0055360Y0200656D01*
X0055286Y0200639D01*
X0055210Y0200626D01*
X0055134Y0200617D01*
X0055057Y0200612D01*
X0054981Y0200611D01*
X0054904Y0200614D01*
X0054828Y0200621D01*
X0054752Y0200632D01*
X0054677Y0200647D01*
X0054603Y0200666D01*
X0054529Y0200688D01*
X0054457Y0200714D01*
X0054387Y0200744D01*
X0054318Y0200778D01*
X0054251Y0200815D01*
X0054186Y0200856D01*
X0054123Y0200900D01*
X0054063Y0200947D01*
X0054005Y0200997D01*
X0053950Y0201050D01*
X0053897Y0201106D01*
X0053848Y0201165D01*
X0053801Y0201226D01*
X0053758Y0201289D01*
X0053719Y0201355D01*
X0053682Y0201422D01*
X0053650Y0201491D01*
X0053620Y0201562D01*
X0053595Y0201635D01*
X0053573Y0201708D01*
X0053556Y0201783D01*
X0053542Y0201858D01*
X0053532Y0201934D01*
X0053526Y0202010D01*
X0053524Y0202087D01*
X0053526Y0202164D01*
X0053532Y0202240D01*
X0053542Y0202316D01*
X0053556Y0202391D01*
X0053573Y0202466D01*
X0053595Y0202539D01*
X0053620Y0202612D01*
X0053650Y0202683D01*
X0053682Y0202752D01*
X0053719Y0202819D01*
X0053758Y0202885D01*
X0053801Y0202948D01*
X0053848Y0203009D01*
X0053897Y0203068D01*
X0053950Y0203124D01*
X0054005Y0203177D01*
X0054063Y0203227D01*
X0054123Y0203274D01*
X0054186Y0203318D01*
X0054251Y0203359D01*
X0054318Y0203396D01*
X0054387Y0203430D01*
X0054457Y0203460D01*
X0054529Y0203486D01*
X0054603Y0203508D01*
X0054677Y0203527D01*
X0054752Y0203542D01*
X0054828Y0203553D01*
X0054904Y0203560D01*
X0054981Y0203563D01*
X0055057Y0203562D01*
X0055134Y0203557D01*
X0055210Y0203548D01*
X0055286Y0203535D01*
X0055360Y0203518D01*
X0055434Y0203498D01*
X0055507Y0203473D01*
X0055578Y0203445D01*
X0055648Y0203413D01*
X0055716Y0203378D01*
X0055782Y0203339D01*
X0055846Y0203297D01*
X0055907Y0203251D01*
X0055967Y0203202D01*
X0056023Y0203151D01*
X0056077Y0203096D01*
X0056128Y0203039D01*
X0056176Y0202979D01*
X0056221Y0202917D01*
X0056262Y0202852D01*
X0056300Y0202786D01*
X0056335Y0202718D01*
X0056365Y0202647D01*
X0056393Y0202576D01*
X0056416Y0202503D01*
X0056436Y0202429D01*
X0056452Y0202354D01*
X0056464Y0202278D01*
X0056472Y0202202D01*
X0056476Y0202125D01*
X0056476Y0202049D01*
X0056472Y0201972D01*
X0056464Y0201896D01*
X0056452Y0201820D01*
X0056436Y0201745D01*
X0056416Y0201671D01*
X0056393Y0201598D01*
X0056365Y0201527D01*
X0056335Y0201456D01*
X0056300Y0201388D01*
X0056262Y0201322D01*
X0056221Y0201257D01*
X0056176Y0201195D01*
X0056128Y0201135D01*
X0056077Y0201078D01*
X0056023Y0201023D01*
X0055967Y0200972D01*
X0055907Y0200923D01*
X0055846Y0200877D01*
X0055782Y0200835D01*
X0055716Y0200796D01*
X0055648Y0200761D01*
X0055578Y0200729D01*
X0055507Y0200701D01*
X0055434Y0200676D01*
X0055360Y0200656D01*
X0055286Y0200639D01*
X0055210Y0200626D01*
X0055134Y0200617D01*
X0055057Y0200612D01*
X0054981Y0200611D01*
X0054904Y0200614D01*
X0054828Y0200621D01*
X0054752Y0200632D01*
X0054677Y0200647D01*
X0054603Y0200666D01*
X0054529Y0200688D01*
X0054457Y0200714D01*
X0054387Y0200744D01*
X0054318Y0200778D01*
X0054251Y0200815D01*
X0054186Y0200856D01*
X0054123Y0200900D01*
X0054063Y0200947D01*
X0054005Y0200997D01*
X0053950Y0201050D01*
X0053897Y0201106D01*
X0053848Y0201165D01*
X0053801Y0201226D01*
X0053758Y0201289D01*
X0053719Y0201355D01*
X0053682Y0201422D01*
X0053650Y0201491D01*
X0053620Y0201562D01*
X0053595Y0201635D01*
X0053573Y0201708D01*
X0053556Y0201783D01*
X0053542Y0201858D01*
X0053532Y0201934D01*
X0053526Y0202010D01*
X0053524Y0202087D01*
X0053526Y0202164D01*
X0053532Y0202240D01*
X0053542Y0202316D01*
X0053556Y0202391D01*
X0053573Y0202466D01*
X0053595Y0202539D01*
X0053620Y0202612D01*
X0053650Y0202683D01*
X0053682Y0202752D01*
X0053719Y0202819D01*
X0053758Y0202885D01*
X0053801Y0202948D01*
X0053848Y0203009D01*
X0053897Y0203068D01*
X0053950Y0203124D01*
X0054005Y0203177D01*
X0054063Y0203227D01*
X0054123Y0203274D01*
X0054186Y0203318D01*
X0054251Y0203359D01*
X0054318Y0203396D01*
X0054387Y0203430D01*
X0054457Y0203460D01*
X0054529Y0203486D01*
X0054603Y0203508D01*
X0054677Y0203527D01*
X0054752Y0203542D01*
X0054828Y0203553D01*
X0054904Y0203560D01*
X0054981Y0203563D01*
X0055057Y0203562D01*
X0055134Y0203557D01*
X0055210Y0203548D01*
X0055286Y0203535D01*
X0055360Y0203518D01*
X0055434Y0203498D01*
X0055507Y0203473D01*
X0055578Y0203445D01*
X0055648Y0203413D01*
X0055716Y0203378D01*
X0055782Y0203339D01*
X0055846Y0203297D01*
X0055907Y0203251D01*
X0055967Y0203202D01*
X0056023Y0203151D01*
X0056077Y0203096D01*
X0056128Y0203039D01*
X0056176Y0202979D01*
X0056221Y0202917D01*
X0056262Y0202852D01*
X0056300Y0202786D01*
X0056335Y0202718D01*
X0056365Y0202647D01*
X0056393Y0202576D01*
X0056416Y0202503D01*
X0056436Y0202429D01*
X0056452Y0202354D01*
X0056464Y0202278D01*
X0056472Y0202202D01*
X0056476Y0202125D01*
X0056476Y0202049D01*
X0056472Y0201972D01*
X0056464Y0201896D01*
X0056452Y0201820D01*
X0056436Y0201745D01*
X0056416Y0201671D01*
X0056393Y0201598D01*
X0056365Y0201527D01*
X0056335Y0201456D01*
X0056300Y0201388D01*
X0056262Y0201322D01*
X0056221Y0201257D01*
X0056176Y0201195D01*
X0056128Y0201135D01*
X0056077Y0201078D01*
X0056023Y0201023D01*
X0055967Y0200972D01*
X0055907Y0200923D01*
X0055846Y0200877D01*
X0055782Y0200835D01*
X0055716Y0200796D01*
X0055648Y0200761D01*
X0055578Y0200729D01*
X0055507Y0200701D01*
X0055434Y0200676D01*
X0055360Y0200656D01*
X0055286Y0200639D01*
X0055210Y0200626D01*
X0055134Y0200617D01*
X0055057Y0200612D01*
X0054981Y0200611D01*
X0054904Y0200614D01*
X0054828Y0200621D01*
X0054752Y0200632D01*
X0054677Y0200647D01*
X0054603Y0200666D01*
X0054529Y0200688D01*
X0054457Y0200714D01*
X0054387Y0200744D01*
X0054318Y0200778D01*
X0054251Y0200815D01*
X0054186Y0200856D01*
X0054123Y0200900D01*
X0054063Y0200947D01*
X0054005Y0200997D01*
X0053950Y0201050D01*
X0053897Y0201106D01*
X0053848Y0201165D01*
X0053801Y0201226D01*
X0053758Y0201289D01*
X0053719Y0201355D01*
X0053682Y0201422D01*
X0053650Y0201491D01*
X0053620Y0201562D01*
X0053595Y0201635D01*
X0053573Y0201708D01*
X0053556Y0201783D01*
X0053542Y0201858D01*
X0053532Y0201934D01*
X0053526Y0202010D01*
X0053524Y0202087D01*
X0053526Y0202164D01*
X0053532Y0202240D01*
X0053542Y0202316D01*
X0053556Y0202391D01*
X0053573Y0202466D01*
X0053595Y0202539D01*
X0053620Y0202612D01*
X0053650Y0202683D01*
X0053682Y0202752D01*
X0053719Y0202819D01*
X0053758Y0202885D01*
X0053801Y0202948D01*
X0053848Y0203009D01*
X0053897Y0203068D01*
X0053950Y0203124D01*
X0054005Y0203177D01*
X0054063Y0203227D01*
X0054123Y0203274D01*
X0054186Y0203318D01*
X0054251Y0203359D01*
X0054318Y0203396D01*
X0054387Y0203430D01*
X0054457Y0203460D01*
X0054529Y0203486D01*
X0054603Y0203508D01*
X0054677Y0203527D01*
X0054752Y0203542D01*
X0054828Y0203553D01*
X0054904Y0203560D01*
X0054981Y0203563D01*
X0055057Y0203562D01*
X0055134Y0203557D01*
X0055210Y0203548D01*
X0055286Y0203535D01*
X0055360Y0203518D01*
X0055434Y0203498D01*
X0055507Y0203473D01*
X0055578Y0203445D01*
X0055648Y0203413D01*
X0055716Y0203378D01*
X0055782Y0203339D01*
X0055846Y0203297D01*
X0055907Y0203251D01*
X0055967Y0203202D01*
X0056023Y0203151D01*
X0056077Y0203096D01*
X0056128Y0203039D01*
X0056176Y0202979D01*
X0056221Y0202917D01*
X0056262Y0202852D01*
X0056300Y0202786D01*
X0056335Y0202718D01*
X0056365Y0202647D01*
X0056393Y0202576D01*
X0056416Y0202503D01*
X0056436Y0202429D01*
X0056452Y0202354D01*
X0056464Y0202278D01*
X0056472Y0202202D01*
X0056476Y0202125D01*
X0056476Y0202049D01*
X0056472Y0201972D01*
X0056464Y0201896D01*
X0056452Y0201820D01*
X0056436Y0201745D01*
X0056416Y0201671D01*
X0056393Y0201598D01*
X0056365Y0201527D01*
X0056335Y0201456D01*
X0056300Y0201388D01*
X0056262Y0201322D01*
X0056221Y0201257D01*
X0056176Y0201195D01*
X0056128Y0201135D01*
X0056077Y0201078D01*
X0056023Y0201023D01*
X0055967Y0200972D01*
X0055907Y0200923D01*
X0055846Y0200877D01*
X0055782Y0200835D01*
X0055716Y0200796D01*
X0055648Y0200761D01*
X0055578Y0200729D01*
X0055507Y0200701D01*
X0055434Y0200676D01*
X0055360Y0200656D01*
X0055286Y0200639D01*
X0055210Y0200626D01*
X0055134Y0200617D01*
X0055057Y0200612D01*
X0054981Y0200611D01*
X0054904Y0200614D01*
X0054828Y0200621D01*
X0054752Y0200632D01*
X0054677Y0200647D01*
X0054603Y0200666D01*
X0054529Y0200688D01*
X0054457Y0200714D01*
X0054387Y0200744D01*
X0054318Y0200778D01*
X0054251Y0200815D01*
X0054186Y0200856D01*
X0054123Y0200900D01*
X0054063Y0200947D01*
X0054005Y0200997D01*
X0053950Y0201050D01*
X0053897Y0201106D01*
X0053848Y0201165D01*
X0053801Y0201226D01*
X0053758Y0201289D01*
X0053719Y0201355D01*
X0053682Y0201422D01*
X0053650Y0201491D01*
X0053620Y0201562D01*
X0053595Y0201635D01*
X0053573Y0201708D01*
X0053556Y0201783D01*
X0053542Y0201858D01*
X0053532Y0201934D01*
X0053526Y0202010D01*
X0053524Y0202087D01*
X0053524Y0212913D02*
X0053526Y0212990D01*
X0053532Y0213066D01*
X0053542Y0213142D01*
X0053556Y0213217D01*
X0053573Y0213292D01*
X0053595Y0213365D01*
X0053620Y0213438D01*
X0053650Y0213509D01*
X0053682Y0213578D01*
X0053719Y0213645D01*
X0053758Y0213711D01*
X0053801Y0213774D01*
X0053848Y0213835D01*
X0053897Y0213894D01*
X0053950Y0213950D01*
X0054005Y0214003D01*
X0054063Y0214053D01*
X0054123Y0214100D01*
X0054186Y0214144D01*
X0054251Y0214185D01*
X0054318Y0214222D01*
X0054387Y0214256D01*
X0054457Y0214286D01*
X0054529Y0214312D01*
X0054603Y0214334D01*
X0054677Y0214353D01*
X0054752Y0214368D01*
X0054828Y0214379D01*
X0054904Y0214386D01*
X0054981Y0214389D01*
X0055057Y0214388D01*
X0055134Y0214383D01*
X0055210Y0214374D01*
X0055286Y0214361D01*
X0055360Y0214344D01*
X0055434Y0214324D01*
X0055507Y0214299D01*
X0055578Y0214271D01*
X0055648Y0214239D01*
X0055716Y0214204D01*
X0055782Y0214165D01*
X0055846Y0214123D01*
X0055907Y0214077D01*
X0055967Y0214028D01*
X0056023Y0213977D01*
X0056077Y0213922D01*
X0056128Y0213865D01*
X0056176Y0213805D01*
X0056221Y0213743D01*
X0056262Y0213678D01*
X0056300Y0213612D01*
X0056335Y0213544D01*
X0056365Y0213473D01*
X0056393Y0213402D01*
X0056416Y0213329D01*
X0056436Y0213255D01*
X0056452Y0213180D01*
X0056464Y0213104D01*
X0056472Y0213028D01*
X0056476Y0212951D01*
X0056476Y0212875D01*
X0056472Y0212798D01*
X0056464Y0212722D01*
X0056452Y0212646D01*
X0056436Y0212571D01*
X0056416Y0212497D01*
X0056393Y0212424D01*
X0056365Y0212353D01*
X0056335Y0212282D01*
X0056300Y0212214D01*
X0056262Y0212148D01*
X0056221Y0212083D01*
X0056176Y0212021D01*
X0056128Y0211961D01*
X0056077Y0211904D01*
X0056023Y0211849D01*
X0055967Y0211798D01*
X0055907Y0211749D01*
X0055846Y0211703D01*
X0055782Y0211661D01*
X0055716Y0211622D01*
X0055648Y0211587D01*
X0055578Y0211555D01*
X0055507Y0211527D01*
X0055434Y0211502D01*
X0055360Y0211482D01*
X0055286Y0211465D01*
X0055210Y0211452D01*
X0055134Y0211443D01*
X0055057Y0211438D01*
X0054981Y0211437D01*
X0054904Y0211440D01*
X0054828Y0211447D01*
X0054752Y0211458D01*
X0054677Y0211473D01*
X0054603Y0211492D01*
X0054529Y0211514D01*
X0054457Y0211540D01*
X0054387Y0211570D01*
X0054318Y0211604D01*
X0054251Y0211641D01*
X0054186Y0211682D01*
X0054123Y0211726D01*
X0054063Y0211773D01*
X0054005Y0211823D01*
X0053950Y0211876D01*
X0053897Y0211932D01*
X0053848Y0211991D01*
X0053801Y0212052D01*
X0053758Y0212115D01*
X0053719Y0212181D01*
X0053682Y0212248D01*
X0053650Y0212317D01*
X0053620Y0212388D01*
X0053595Y0212461D01*
X0053573Y0212534D01*
X0053556Y0212609D01*
X0053542Y0212684D01*
X0053532Y0212760D01*
X0053526Y0212836D01*
X0053524Y0212913D01*
X0053526Y0212990D01*
X0053532Y0213066D01*
X0053542Y0213142D01*
X0053556Y0213217D01*
X0053573Y0213292D01*
X0053595Y0213365D01*
X0053620Y0213438D01*
X0053650Y0213509D01*
X0053682Y0213578D01*
X0053719Y0213645D01*
X0053758Y0213711D01*
X0053801Y0213774D01*
X0053848Y0213835D01*
X0053897Y0213894D01*
X0053950Y0213950D01*
X0054005Y0214003D01*
X0054063Y0214053D01*
X0054123Y0214100D01*
X0054186Y0214144D01*
X0054251Y0214185D01*
X0054318Y0214222D01*
X0054387Y0214256D01*
X0054457Y0214286D01*
X0054529Y0214312D01*
X0054603Y0214334D01*
X0054677Y0214353D01*
X0054752Y0214368D01*
X0054828Y0214379D01*
X0054904Y0214386D01*
X0054981Y0214389D01*
X0055057Y0214388D01*
X0055134Y0214383D01*
X0055210Y0214374D01*
X0055286Y0214361D01*
X0055360Y0214344D01*
X0055434Y0214324D01*
X0055507Y0214299D01*
X0055578Y0214271D01*
X0055648Y0214239D01*
X0055716Y0214204D01*
X0055782Y0214165D01*
X0055846Y0214123D01*
X0055907Y0214077D01*
X0055967Y0214028D01*
X0056023Y0213977D01*
X0056077Y0213922D01*
X0056128Y0213865D01*
X0056176Y0213805D01*
X0056221Y0213743D01*
X0056262Y0213678D01*
X0056300Y0213612D01*
X0056335Y0213544D01*
X0056365Y0213473D01*
X0056393Y0213402D01*
X0056416Y0213329D01*
X0056436Y0213255D01*
X0056452Y0213180D01*
X0056464Y0213104D01*
X0056472Y0213028D01*
X0056476Y0212951D01*
X0056476Y0212875D01*
X0056472Y0212798D01*
X0056464Y0212722D01*
X0056452Y0212646D01*
X0056436Y0212571D01*
X0056416Y0212497D01*
X0056393Y0212424D01*
X0056365Y0212353D01*
X0056335Y0212282D01*
X0056300Y0212214D01*
X0056262Y0212148D01*
X0056221Y0212083D01*
X0056176Y0212021D01*
X0056128Y0211961D01*
X0056077Y0211904D01*
X0056023Y0211849D01*
X0055967Y0211798D01*
X0055907Y0211749D01*
X0055846Y0211703D01*
X0055782Y0211661D01*
X0055716Y0211622D01*
X0055648Y0211587D01*
X0055578Y0211555D01*
X0055507Y0211527D01*
X0055434Y0211502D01*
X0055360Y0211482D01*
X0055286Y0211465D01*
X0055210Y0211452D01*
X0055134Y0211443D01*
X0055057Y0211438D01*
X0054981Y0211437D01*
X0054904Y0211440D01*
X0054828Y0211447D01*
X0054752Y0211458D01*
X0054677Y0211473D01*
X0054603Y0211492D01*
X0054529Y0211514D01*
X0054457Y0211540D01*
X0054387Y0211570D01*
X0054318Y0211604D01*
X0054251Y0211641D01*
X0054186Y0211682D01*
X0054123Y0211726D01*
X0054063Y0211773D01*
X0054005Y0211823D01*
X0053950Y0211876D01*
X0053897Y0211932D01*
X0053848Y0211991D01*
X0053801Y0212052D01*
X0053758Y0212115D01*
X0053719Y0212181D01*
X0053682Y0212248D01*
X0053650Y0212317D01*
X0053620Y0212388D01*
X0053595Y0212461D01*
X0053573Y0212534D01*
X0053556Y0212609D01*
X0053542Y0212684D01*
X0053532Y0212760D01*
X0053526Y0212836D01*
X0053524Y0212913D01*
X0053526Y0212990D01*
X0053532Y0213066D01*
X0053542Y0213142D01*
X0053556Y0213217D01*
X0053573Y0213292D01*
X0053595Y0213365D01*
X0053620Y0213438D01*
X0053650Y0213509D01*
X0053682Y0213578D01*
X0053719Y0213645D01*
X0053758Y0213711D01*
X0053801Y0213774D01*
X0053848Y0213835D01*
X0053897Y0213894D01*
X0053950Y0213950D01*
X0054005Y0214003D01*
X0054063Y0214053D01*
X0054123Y0214100D01*
X0054186Y0214144D01*
X0054251Y0214185D01*
X0054318Y0214222D01*
X0054387Y0214256D01*
X0054457Y0214286D01*
X0054529Y0214312D01*
X0054603Y0214334D01*
X0054677Y0214353D01*
X0054752Y0214368D01*
X0054828Y0214379D01*
X0054904Y0214386D01*
X0054981Y0214389D01*
X0055057Y0214388D01*
X0055134Y0214383D01*
X0055210Y0214374D01*
X0055286Y0214361D01*
X0055360Y0214344D01*
X0055434Y0214324D01*
X0055507Y0214299D01*
X0055578Y0214271D01*
X0055648Y0214239D01*
X0055716Y0214204D01*
X0055782Y0214165D01*
X0055846Y0214123D01*
X0055907Y0214077D01*
X0055967Y0214028D01*
X0056023Y0213977D01*
X0056077Y0213922D01*
X0056128Y0213865D01*
X0056176Y0213805D01*
X0056221Y0213743D01*
X0056262Y0213678D01*
X0056300Y0213612D01*
X0056335Y0213544D01*
X0056365Y0213473D01*
X0056393Y0213402D01*
X0056416Y0213329D01*
X0056436Y0213255D01*
X0056452Y0213180D01*
X0056464Y0213104D01*
X0056472Y0213028D01*
X0056476Y0212951D01*
X0056476Y0212875D01*
X0056472Y0212798D01*
X0056464Y0212722D01*
X0056452Y0212646D01*
X0056436Y0212571D01*
X0056416Y0212497D01*
X0056393Y0212424D01*
X0056365Y0212353D01*
X0056335Y0212282D01*
X0056300Y0212214D01*
X0056262Y0212148D01*
X0056221Y0212083D01*
X0056176Y0212021D01*
X0056128Y0211961D01*
X0056077Y0211904D01*
X0056023Y0211849D01*
X0055967Y0211798D01*
X0055907Y0211749D01*
X0055846Y0211703D01*
X0055782Y0211661D01*
X0055716Y0211622D01*
X0055648Y0211587D01*
X0055578Y0211555D01*
X0055507Y0211527D01*
X0055434Y0211502D01*
X0055360Y0211482D01*
X0055286Y0211465D01*
X0055210Y0211452D01*
X0055134Y0211443D01*
X0055057Y0211438D01*
X0054981Y0211437D01*
X0054904Y0211440D01*
X0054828Y0211447D01*
X0054752Y0211458D01*
X0054677Y0211473D01*
X0054603Y0211492D01*
X0054529Y0211514D01*
X0054457Y0211540D01*
X0054387Y0211570D01*
X0054318Y0211604D01*
X0054251Y0211641D01*
X0054186Y0211682D01*
X0054123Y0211726D01*
X0054063Y0211773D01*
X0054005Y0211823D01*
X0053950Y0211876D01*
X0053897Y0211932D01*
X0053848Y0211991D01*
X0053801Y0212052D01*
X0053758Y0212115D01*
X0053719Y0212181D01*
X0053682Y0212248D01*
X0053650Y0212317D01*
X0053620Y0212388D01*
X0053595Y0212461D01*
X0053573Y0212534D01*
X0053556Y0212609D01*
X0053542Y0212684D01*
X0053532Y0212760D01*
X0053526Y0212836D01*
X0053524Y0212913D01*
X0053526Y0212990D01*
X0053532Y0213066D01*
X0053542Y0213142D01*
X0053556Y0213217D01*
X0053573Y0213292D01*
X0053595Y0213365D01*
X0053620Y0213438D01*
X0053650Y0213509D01*
X0053682Y0213578D01*
X0053719Y0213645D01*
X0053758Y0213711D01*
X0053801Y0213774D01*
X0053848Y0213835D01*
X0053897Y0213894D01*
X0053950Y0213950D01*
X0054005Y0214003D01*
X0054063Y0214053D01*
X0054123Y0214100D01*
X0054186Y0214144D01*
X0054251Y0214185D01*
X0054318Y0214222D01*
X0054387Y0214256D01*
X0054457Y0214286D01*
X0054529Y0214312D01*
X0054603Y0214334D01*
X0054677Y0214353D01*
X0054752Y0214368D01*
X0054828Y0214379D01*
X0054904Y0214386D01*
X0054981Y0214389D01*
X0055057Y0214388D01*
X0055134Y0214383D01*
X0055210Y0214374D01*
X0055286Y0214361D01*
X0055360Y0214344D01*
X0055434Y0214324D01*
X0055507Y0214299D01*
X0055578Y0214271D01*
X0055648Y0214239D01*
X0055716Y0214204D01*
X0055782Y0214165D01*
X0055846Y0214123D01*
X0055907Y0214077D01*
X0055967Y0214028D01*
X0056023Y0213977D01*
X0056077Y0213922D01*
X0056128Y0213865D01*
X0056176Y0213805D01*
X0056221Y0213743D01*
X0056262Y0213678D01*
X0056300Y0213612D01*
X0056335Y0213544D01*
X0056365Y0213473D01*
X0056393Y0213402D01*
X0056416Y0213329D01*
X0056436Y0213255D01*
X0056452Y0213180D01*
X0056464Y0213104D01*
X0056472Y0213028D01*
X0056476Y0212951D01*
X0056476Y0212875D01*
X0056472Y0212798D01*
X0056464Y0212722D01*
X0056452Y0212646D01*
X0056436Y0212571D01*
X0056416Y0212497D01*
X0056393Y0212424D01*
X0056365Y0212353D01*
X0056335Y0212282D01*
X0056300Y0212214D01*
X0056262Y0212148D01*
X0056221Y0212083D01*
X0056176Y0212021D01*
X0056128Y0211961D01*
X0056077Y0211904D01*
X0056023Y0211849D01*
X0055967Y0211798D01*
X0055907Y0211749D01*
X0055846Y0211703D01*
X0055782Y0211661D01*
X0055716Y0211622D01*
X0055648Y0211587D01*
X0055578Y0211555D01*
X0055507Y0211527D01*
X0055434Y0211502D01*
X0055360Y0211482D01*
X0055286Y0211465D01*
X0055210Y0211452D01*
X0055134Y0211443D01*
X0055057Y0211438D01*
X0054981Y0211437D01*
X0054904Y0211440D01*
X0054828Y0211447D01*
X0054752Y0211458D01*
X0054677Y0211473D01*
X0054603Y0211492D01*
X0054529Y0211514D01*
X0054457Y0211540D01*
X0054387Y0211570D01*
X0054318Y0211604D01*
X0054251Y0211641D01*
X0054186Y0211682D01*
X0054123Y0211726D01*
X0054063Y0211773D01*
X0054005Y0211823D01*
X0053950Y0211876D01*
X0053897Y0211932D01*
X0053848Y0211991D01*
X0053801Y0212052D01*
X0053758Y0212115D01*
X0053719Y0212181D01*
X0053682Y0212248D01*
X0053650Y0212317D01*
X0053620Y0212388D01*
X0053595Y0212461D01*
X0053573Y0212534D01*
X0053556Y0212609D01*
X0053542Y0212684D01*
X0053532Y0212760D01*
X0053526Y0212836D01*
X0053524Y0212913D01*
X0053526Y0212990D01*
X0053532Y0213066D01*
X0053542Y0213142D01*
X0053556Y0213217D01*
X0053573Y0213292D01*
X0053595Y0213365D01*
X0053620Y0213438D01*
X0053650Y0213509D01*
X0053682Y0213578D01*
X0053719Y0213645D01*
X0053758Y0213711D01*
X0053801Y0213774D01*
X0053848Y0213835D01*
X0053897Y0213894D01*
X0053950Y0213950D01*
X0054005Y0214003D01*
X0054063Y0214053D01*
X0054123Y0214100D01*
X0054186Y0214144D01*
X0054251Y0214185D01*
X0054318Y0214222D01*
X0054387Y0214256D01*
X0054457Y0214286D01*
X0054529Y0214312D01*
X0054603Y0214334D01*
X0054677Y0214353D01*
X0054752Y0214368D01*
X0054828Y0214379D01*
X0054904Y0214386D01*
X0054981Y0214389D01*
X0055057Y0214388D01*
X0055134Y0214383D01*
X0055210Y0214374D01*
X0055286Y0214361D01*
X0055360Y0214344D01*
X0055434Y0214324D01*
X0055507Y0214299D01*
X0055578Y0214271D01*
X0055648Y0214239D01*
X0055716Y0214204D01*
X0055782Y0214165D01*
X0055846Y0214123D01*
X0055907Y0214077D01*
X0055967Y0214028D01*
X0056023Y0213977D01*
X0056077Y0213922D01*
X0056128Y0213865D01*
X0056176Y0213805D01*
X0056221Y0213743D01*
X0056262Y0213678D01*
X0056300Y0213612D01*
X0056335Y0213544D01*
X0056365Y0213473D01*
X0056393Y0213402D01*
X0056416Y0213329D01*
X0056436Y0213255D01*
X0056452Y0213180D01*
X0056464Y0213104D01*
X0056472Y0213028D01*
X0056476Y0212951D01*
X0056476Y0212875D01*
X0056472Y0212798D01*
X0056464Y0212722D01*
X0056452Y0212646D01*
X0056436Y0212571D01*
X0056416Y0212497D01*
X0056393Y0212424D01*
X0056365Y0212353D01*
X0056335Y0212282D01*
X0056300Y0212214D01*
X0056262Y0212148D01*
X0056221Y0212083D01*
X0056176Y0212021D01*
X0056128Y0211961D01*
X0056077Y0211904D01*
X0056023Y0211849D01*
X0055967Y0211798D01*
X0055907Y0211749D01*
X0055846Y0211703D01*
X0055782Y0211661D01*
X0055716Y0211622D01*
X0055648Y0211587D01*
X0055578Y0211555D01*
X0055507Y0211527D01*
X0055434Y0211502D01*
X0055360Y0211482D01*
X0055286Y0211465D01*
X0055210Y0211452D01*
X0055134Y0211443D01*
X0055057Y0211438D01*
X0054981Y0211437D01*
X0054904Y0211440D01*
X0054828Y0211447D01*
X0054752Y0211458D01*
X0054677Y0211473D01*
X0054603Y0211492D01*
X0054529Y0211514D01*
X0054457Y0211540D01*
X0054387Y0211570D01*
X0054318Y0211604D01*
X0054251Y0211641D01*
X0054186Y0211682D01*
X0054123Y0211726D01*
X0054063Y0211773D01*
X0054005Y0211823D01*
X0053950Y0211876D01*
X0053897Y0211932D01*
X0053848Y0211991D01*
X0053801Y0212052D01*
X0053758Y0212115D01*
X0053719Y0212181D01*
X0053682Y0212248D01*
X0053650Y0212317D01*
X0053620Y0212388D01*
X0053595Y0212461D01*
X0053573Y0212534D01*
X0053556Y0212609D01*
X0053542Y0212684D01*
X0053532Y0212760D01*
X0053526Y0212836D01*
X0053524Y0212913D01*
X0053526Y0212990D01*
X0053532Y0213066D01*
X0053542Y0213142D01*
X0053556Y0213217D01*
X0053573Y0213292D01*
X0053595Y0213365D01*
X0053620Y0213438D01*
X0053650Y0213509D01*
X0053682Y0213578D01*
X0053719Y0213645D01*
X0053758Y0213711D01*
X0053801Y0213774D01*
X0053848Y0213835D01*
X0053897Y0213894D01*
X0053950Y0213950D01*
X0054005Y0214003D01*
X0054063Y0214053D01*
X0054123Y0214100D01*
X0054186Y0214144D01*
X0054251Y0214185D01*
X0054318Y0214222D01*
X0054387Y0214256D01*
X0054457Y0214286D01*
X0054529Y0214312D01*
X0054603Y0214334D01*
X0054677Y0214353D01*
X0054752Y0214368D01*
X0054828Y0214379D01*
X0054904Y0214386D01*
X0054981Y0214389D01*
X0055057Y0214388D01*
X0055134Y0214383D01*
X0055210Y0214374D01*
X0055286Y0214361D01*
X0055360Y0214344D01*
X0055434Y0214324D01*
X0055507Y0214299D01*
X0055578Y0214271D01*
X0055648Y0214239D01*
X0055716Y0214204D01*
X0055782Y0214165D01*
X0055846Y0214123D01*
X0055907Y0214077D01*
X0055967Y0214028D01*
X0056023Y0213977D01*
X0056077Y0213922D01*
X0056128Y0213865D01*
X0056176Y0213805D01*
X0056221Y0213743D01*
X0056262Y0213678D01*
X0056300Y0213612D01*
X0056335Y0213544D01*
X0056365Y0213473D01*
X0056393Y0213402D01*
X0056416Y0213329D01*
X0056436Y0213255D01*
X0056452Y0213180D01*
X0056464Y0213104D01*
X0056472Y0213028D01*
X0056476Y0212951D01*
X0056476Y0212875D01*
X0056472Y0212798D01*
X0056464Y0212722D01*
X0056452Y0212646D01*
X0056436Y0212571D01*
X0056416Y0212497D01*
X0056393Y0212424D01*
X0056365Y0212353D01*
X0056335Y0212282D01*
X0056300Y0212214D01*
X0056262Y0212148D01*
X0056221Y0212083D01*
X0056176Y0212021D01*
X0056128Y0211961D01*
X0056077Y0211904D01*
X0056023Y0211849D01*
X0055967Y0211798D01*
X0055907Y0211749D01*
X0055846Y0211703D01*
X0055782Y0211661D01*
X0055716Y0211622D01*
X0055648Y0211587D01*
X0055578Y0211555D01*
X0055507Y0211527D01*
X0055434Y0211502D01*
X0055360Y0211482D01*
X0055286Y0211465D01*
X0055210Y0211452D01*
X0055134Y0211443D01*
X0055057Y0211438D01*
X0054981Y0211437D01*
X0054904Y0211440D01*
X0054828Y0211447D01*
X0054752Y0211458D01*
X0054677Y0211473D01*
X0054603Y0211492D01*
X0054529Y0211514D01*
X0054457Y0211540D01*
X0054387Y0211570D01*
X0054318Y0211604D01*
X0054251Y0211641D01*
X0054186Y0211682D01*
X0054123Y0211726D01*
X0054063Y0211773D01*
X0054005Y0211823D01*
X0053950Y0211876D01*
X0053897Y0211932D01*
X0053848Y0211991D01*
X0053801Y0212052D01*
X0053758Y0212115D01*
X0053719Y0212181D01*
X0053682Y0212248D01*
X0053650Y0212317D01*
X0053620Y0212388D01*
X0053595Y0212461D01*
X0053573Y0212534D01*
X0053556Y0212609D01*
X0053542Y0212684D01*
X0053532Y0212760D01*
X0053526Y0212836D01*
X0053524Y0212913D01*
X0053526Y0212990D01*
X0053532Y0213066D01*
X0053542Y0213142D01*
X0053556Y0213217D01*
X0053573Y0213292D01*
X0053595Y0213365D01*
X0053620Y0213438D01*
X0053650Y0213509D01*
X0053682Y0213578D01*
X0053719Y0213645D01*
X0053758Y0213711D01*
X0053801Y0213774D01*
X0053848Y0213835D01*
X0053897Y0213894D01*
X0053950Y0213950D01*
X0054005Y0214003D01*
X0054063Y0214053D01*
X0054123Y0214100D01*
X0054186Y0214144D01*
X0054251Y0214185D01*
X0054318Y0214222D01*
X0054387Y0214256D01*
X0054457Y0214286D01*
X0054529Y0214312D01*
X0054603Y0214334D01*
X0054677Y0214353D01*
X0054752Y0214368D01*
X0054828Y0214379D01*
X0054904Y0214386D01*
X0054981Y0214389D01*
X0055057Y0214388D01*
X0055134Y0214383D01*
X0055210Y0214374D01*
X0055286Y0214361D01*
X0055360Y0214344D01*
X0055434Y0214324D01*
X0055507Y0214299D01*
X0055578Y0214271D01*
X0055648Y0214239D01*
X0055716Y0214204D01*
X0055782Y0214165D01*
X0055846Y0214123D01*
X0055907Y0214077D01*
X0055967Y0214028D01*
X0056023Y0213977D01*
X0056077Y0213922D01*
X0056128Y0213865D01*
X0056176Y0213805D01*
X0056221Y0213743D01*
X0056262Y0213678D01*
X0056300Y0213612D01*
X0056335Y0213544D01*
X0056365Y0213473D01*
X0056393Y0213402D01*
X0056416Y0213329D01*
X0056436Y0213255D01*
X0056452Y0213180D01*
X0056464Y0213104D01*
X0056472Y0213028D01*
X0056476Y0212951D01*
X0056476Y0212875D01*
X0056472Y0212798D01*
X0056464Y0212722D01*
X0056452Y0212646D01*
X0056436Y0212571D01*
X0056416Y0212497D01*
X0056393Y0212424D01*
X0056365Y0212353D01*
X0056335Y0212282D01*
X0056300Y0212214D01*
X0056262Y0212148D01*
X0056221Y0212083D01*
X0056176Y0212021D01*
X0056128Y0211961D01*
X0056077Y0211904D01*
X0056023Y0211849D01*
X0055967Y0211798D01*
X0055907Y0211749D01*
X0055846Y0211703D01*
X0055782Y0211661D01*
X0055716Y0211622D01*
X0055648Y0211587D01*
X0055578Y0211555D01*
X0055507Y0211527D01*
X0055434Y0211502D01*
X0055360Y0211482D01*
X0055286Y0211465D01*
X0055210Y0211452D01*
X0055134Y0211443D01*
X0055057Y0211438D01*
X0054981Y0211437D01*
X0054904Y0211440D01*
X0054828Y0211447D01*
X0054752Y0211458D01*
X0054677Y0211473D01*
X0054603Y0211492D01*
X0054529Y0211514D01*
X0054457Y0211540D01*
X0054387Y0211570D01*
X0054318Y0211604D01*
X0054251Y0211641D01*
X0054186Y0211682D01*
X0054123Y0211726D01*
X0054063Y0211773D01*
X0054005Y0211823D01*
X0053950Y0211876D01*
X0053897Y0211932D01*
X0053848Y0211991D01*
X0053801Y0212052D01*
X0053758Y0212115D01*
X0053719Y0212181D01*
X0053682Y0212248D01*
X0053650Y0212317D01*
X0053620Y0212388D01*
X0053595Y0212461D01*
X0053573Y0212534D01*
X0053556Y0212609D01*
X0053542Y0212684D01*
X0053532Y0212760D01*
X0053526Y0212836D01*
X0053524Y0212913D01*
X0053526Y0212990D01*
X0053532Y0213066D01*
X0053542Y0213142D01*
X0053556Y0213217D01*
X0053573Y0213292D01*
X0053595Y0213365D01*
X0053620Y0213438D01*
X0053650Y0213509D01*
X0053682Y0213578D01*
X0053719Y0213645D01*
X0053758Y0213711D01*
X0053801Y0213774D01*
X0053848Y0213835D01*
X0053897Y0213894D01*
X0053950Y0213950D01*
X0054005Y0214003D01*
X0054063Y0214053D01*
X0054123Y0214100D01*
X0054186Y0214144D01*
X0054251Y0214185D01*
X0054318Y0214222D01*
X0054387Y0214256D01*
X0054457Y0214286D01*
X0054529Y0214312D01*
X0054603Y0214334D01*
X0054677Y0214353D01*
X0054752Y0214368D01*
X0054828Y0214379D01*
X0054904Y0214386D01*
X0054981Y0214389D01*
X0055057Y0214388D01*
X0055134Y0214383D01*
X0055210Y0214374D01*
X0055286Y0214361D01*
X0055360Y0214344D01*
X0055434Y0214324D01*
X0055507Y0214299D01*
X0055578Y0214271D01*
X0055648Y0214239D01*
X0055716Y0214204D01*
X0055782Y0214165D01*
X0055846Y0214123D01*
X0055907Y0214077D01*
X0055967Y0214028D01*
X0056023Y0213977D01*
X0056077Y0213922D01*
X0056128Y0213865D01*
X0056176Y0213805D01*
X0056221Y0213743D01*
X0056262Y0213678D01*
X0056300Y0213612D01*
X0056335Y0213544D01*
X0056365Y0213473D01*
X0056393Y0213402D01*
X0056416Y0213329D01*
X0056436Y0213255D01*
X0056452Y0213180D01*
X0056464Y0213104D01*
X0056472Y0213028D01*
X0056476Y0212951D01*
X0056476Y0212875D01*
X0056472Y0212798D01*
X0056464Y0212722D01*
X0056452Y0212646D01*
X0056436Y0212571D01*
X0056416Y0212497D01*
X0056393Y0212424D01*
X0056365Y0212353D01*
X0056335Y0212282D01*
X0056300Y0212214D01*
X0056262Y0212148D01*
X0056221Y0212083D01*
X0056176Y0212021D01*
X0056128Y0211961D01*
X0056077Y0211904D01*
X0056023Y0211849D01*
X0055967Y0211798D01*
X0055907Y0211749D01*
X0055846Y0211703D01*
X0055782Y0211661D01*
X0055716Y0211622D01*
X0055648Y0211587D01*
X0055578Y0211555D01*
X0055507Y0211527D01*
X0055434Y0211502D01*
X0055360Y0211482D01*
X0055286Y0211465D01*
X0055210Y0211452D01*
X0055134Y0211443D01*
X0055057Y0211438D01*
X0054981Y0211437D01*
X0054904Y0211440D01*
X0054828Y0211447D01*
X0054752Y0211458D01*
X0054677Y0211473D01*
X0054603Y0211492D01*
X0054529Y0211514D01*
X0054457Y0211540D01*
X0054387Y0211570D01*
X0054318Y0211604D01*
X0054251Y0211641D01*
X0054186Y0211682D01*
X0054123Y0211726D01*
X0054063Y0211773D01*
X0054005Y0211823D01*
X0053950Y0211876D01*
X0053897Y0211932D01*
X0053848Y0211991D01*
X0053801Y0212052D01*
X0053758Y0212115D01*
X0053719Y0212181D01*
X0053682Y0212248D01*
X0053650Y0212317D01*
X0053620Y0212388D01*
X0053595Y0212461D01*
X0053573Y0212534D01*
X0053556Y0212609D01*
X0053542Y0212684D01*
X0053532Y0212760D01*
X0053526Y0212836D01*
X0053524Y0212913D01*
X0053526Y0212990D01*
X0053532Y0213066D01*
X0053542Y0213142D01*
X0053556Y0213217D01*
X0053573Y0213292D01*
X0053595Y0213365D01*
X0053620Y0213438D01*
X0053650Y0213509D01*
X0053682Y0213578D01*
X0053719Y0213645D01*
X0053758Y0213711D01*
X0053801Y0213774D01*
X0053848Y0213835D01*
X0053897Y0213894D01*
X0053950Y0213950D01*
X0054005Y0214003D01*
X0054063Y0214053D01*
X0054123Y0214100D01*
X0054186Y0214144D01*
X0054251Y0214185D01*
X0054318Y0214222D01*
X0054387Y0214256D01*
X0054457Y0214286D01*
X0054529Y0214312D01*
X0054603Y0214334D01*
X0054677Y0214353D01*
X0054752Y0214368D01*
X0054828Y0214379D01*
X0054904Y0214386D01*
X0054981Y0214389D01*
X0055057Y0214388D01*
X0055134Y0214383D01*
X0055210Y0214374D01*
X0055286Y0214361D01*
X0055360Y0214344D01*
X0055434Y0214324D01*
X0055507Y0214299D01*
X0055578Y0214271D01*
X0055648Y0214239D01*
X0055716Y0214204D01*
X0055782Y0214165D01*
X0055846Y0214123D01*
X0055907Y0214077D01*
X0055967Y0214028D01*
X0056023Y0213977D01*
X0056077Y0213922D01*
X0056128Y0213865D01*
X0056176Y0213805D01*
X0056221Y0213743D01*
X0056262Y0213678D01*
X0056300Y0213612D01*
X0056335Y0213544D01*
X0056365Y0213473D01*
X0056393Y0213402D01*
X0056416Y0213329D01*
X0056436Y0213255D01*
X0056452Y0213180D01*
X0056464Y0213104D01*
X0056472Y0213028D01*
X0056476Y0212951D01*
X0056476Y0212875D01*
X0056472Y0212798D01*
X0056464Y0212722D01*
X0056452Y0212646D01*
X0056436Y0212571D01*
X0056416Y0212497D01*
X0056393Y0212424D01*
X0056365Y0212353D01*
X0056335Y0212282D01*
X0056300Y0212214D01*
X0056262Y0212148D01*
X0056221Y0212083D01*
X0056176Y0212021D01*
X0056128Y0211961D01*
X0056077Y0211904D01*
X0056023Y0211849D01*
X0055967Y0211798D01*
X0055907Y0211749D01*
X0055846Y0211703D01*
X0055782Y0211661D01*
X0055716Y0211622D01*
X0055648Y0211587D01*
X0055578Y0211555D01*
X0055507Y0211527D01*
X0055434Y0211502D01*
X0055360Y0211482D01*
X0055286Y0211465D01*
X0055210Y0211452D01*
X0055134Y0211443D01*
X0055057Y0211438D01*
X0054981Y0211437D01*
X0054904Y0211440D01*
X0054828Y0211447D01*
X0054752Y0211458D01*
X0054677Y0211473D01*
X0054603Y0211492D01*
X0054529Y0211514D01*
X0054457Y0211540D01*
X0054387Y0211570D01*
X0054318Y0211604D01*
X0054251Y0211641D01*
X0054186Y0211682D01*
X0054123Y0211726D01*
X0054063Y0211773D01*
X0054005Y0211823D01*
X0053950Y0211876D01*
X0053897Y0211932D01*
X0053848Y0211991D01*
X0053801Y0212052D01*
X0053758Y0212115D01*
X0053719Y0212181D01*
X0053682Y0212248D01*
X0053650Y0212317D01*
X0053620Y0212388D01*
X0053595Y0212461D01*
X0053573Y0212534D01*
X0053556Y0212609D01*
X0053542Y0212684D01*
X0053532Y0212760D01*
X0053526Y0212836D01*
X0053524Y0212913D01*
X0053526Y0212990D01*
X0053532Y0213066D01*
X0053542Y0213142D01*
X0053556Y0213217D01*
X0053573Y0213292D01*
X0053595Y0213365D01*
X0053620Y0213438D01*
X0053650Y0213509D01*
X0053682Y0213578D01*
X0053719Y0213645D01*
X0053758Y0213711D01*
X0053801Y0213774D01*
X0053848Y0213835D01*
X0053897Y0213894D01*
X0053950Y0213950D01*
X0054005Y0214003D01*
X0054063Y0214053D01*
X0054123Y0214100D01*
X0054186Y0214144D01*
X0054251Y0214185D01*
X0054318Y0214222D01*
X0054387Y0214256D01*
X0054457Y0214286D01*
X0054529Y0214312D01*
X0054603Y0214334D01*
X0054677Y0214353D01*
X0054752Y0214368D01*
X0054828Y0214379D01*
X0054904Y0214386D01*
X0054981Y0214389D01*
X0055057Y0214388D01*
X0055134Y0214383D01*
X0055210Y0214374D01*
X0055286Y0214361D01*
X0055360Y0214344D01*
X0055434Y0214324D01*
X0055507Y0214299D01*
X0055578Y0214271D01*
X0055648Y0214239D01*
X0055716Y0214204D01*
X0055782Y0214165D01*
X0055846Y0214123D01*
X0055907Y0214077D01*
X0055967Y0214028D01*
X0056023Y0213977D01*
X0056077Y0213922D01*
X0056128Y0213865D01*
X0056176Y0213805D01*
X0056221Y0213743D01*
X0056262Y0213678D01*
X0056300Y0213612D01*
X0056335Y0213544D01*
X0056365Y0213473D01*
X0056393Y0213402D01*
X0056416Y0213329D01*
X0056436Y0213255D01*
X0056452Y0213180D01*
X0056464Y0213104D01*
X0056472Y0213028D01*
X0056476Y0212951D01*
X0056476Y0212875D01*
X0056472Y0212798D01*
X0056464Y0212722D01*
X0056452Y0212646D01*
X0056436Y0212571D01*
X0056416Y0212497D01*
X0056393Y0212424D01*
X0056365Y0212353D01*
X0056335Y0212282D01*
X0056300Y0212214D01*
X0056262Y0212148D01*
X0056221Y0212083D01*
X0056176Y0212021D01*
X0056128Y0211961D01*
X0056077Y0211904D01*
X0056023Y0211849D01*
X0055967Y0211798D01*
X0055907Y0211749D01*
X0055846Y0211703D01*
X0055782Y0211661D01*
X0055716Y0211622D01*
X0055648Y0211587D01*
X0055578Y0211555D01*
X0055507Y0211527D01*
X0055434Y0211502D01*
X0055360Y0211482D01*
X0055286Y0211465D01*
X0055210Y0211452D01*
X0055134Y0211443D01*
X0055057Y0211438D01*
X0054981Y0211437D01*
X0054904Y0211440D01*
X0054828Y0211447D01*
X0054752Y0211458D01*
X0054677Y0211473D01*
X0054603Y0211492D01*
X0054529Y0211514D01*
X0054457Y0211540D01*
X0054387Y0211570D01*
X0054318Y0211604D01*
X0054251Y0211641D01*
X0054186Y0211682D01*
X0054123Y0211726D01*
X0054063Y0211773D01*
X0054005Y0211823D01*
X0053950Y0211876D01*
X0053897Y0211932D01*
X0053848Y0211991D01*
X0053801Y0212052D01*
X0053758Y0212115D01*
X0053719Y0212181D01*
X0053682Y0212248D01*
X0053650Y0212317D01*
X0053620Y0212388D01*
X0053595Y0212461D01*
X0053573Y0212534D01*
X0053556Y0212609D01*
X0053542Y0212684D01*
X0053532Y0212760D01*
X0053526Y0212836D01*
X0053524Y0212913D01*
X0053526Y0212990D01*
X0053532Y0213066D01*
X0053542Y0213142D01*
X0053556Y0213217D01*
X0053573Y0213292D01*
X0053595Y0213365D01*
X0053620Y0213438D01*
X0053650Y0213509D01*
X0053682Y0213578D01*
X0053719Y0213645D01*
X0053758Y0213711D01*
X0053801Y0213774D01*
X0053848Y0213835D01*
X0053897Y0213894D01*
X0053950Y0213950D01*
X0054005Y0214003D01*
X0054063Y0214053D01*
X0054123Y0214100D01*
X0054186Y0214144D01*
X0054251Y0214185D01*
X0054318Y0214222D01*
X0054387Y0214256D01*
X0054457Y0214286D01*
X0054529Y0214312D01*
X0054603Y0214334D01*
X0054677Y0214353D01*
X0054752Y0214368D01*
X0054828Y0214379D01*
X0054904Y0214386D01*
X0054981Y0214389D01*
X0055057Y0214388D01*
X0055134Y0214383D01*
X0055210Y0214374D01*
X0055286Y0214361D01*
X0055360Y0214344D01*
X0055434Y0214324D01*
X0055507Y0214299D01*
X0055578Y0214271D01*
X0055648Y0214239D01*
X0055716Y0214204D01*
X0055782Y0214165D01*
X0055846Y0214123D01*
X0055907Y0214077D01*
X0055967Y0214028D01*
X0056023Y0213977D01*
X0056077Y0213922D01*
X0056128Y0213865D01*
X0056176Y0213805D01*
X0056221Y0213743D01*
X0056262Y0213678D01*
X0056300Y0213612D01*
X0056335Y0213544D01*
X0056365Y0213473D01*
X0056393Y0213402D01*
X0056416Y0213329D01*
X0056436Y0213255D01*
X0056452Y0213180D01*
X0056464Y0213104D01*
X0056472Y0213028D01*
X0056476Y0212951D01*
X0056476Y0212875D01*
X0056472Y0212798D01*
X0056464Y0212722D01*
X0056452Y0212646D01*
X0056436Y0212571D01*
X0056416Y0212497D01*
X0056393Y0212424D01*
X0056365Y0212353D01*
X0056335Y0212282D01*
X0056300Y0212214D01*
X0056262Y0212148D01*
X0056221Y0212083D01*
X0056176Y0212021D01*
X0056128Y0211961D01*
X0056077Y0211904D01*
X0056023Y0211849D01*
X0055967Y0211798D01*
X0055907Y0211749D01*
X0055846Y0211703D01*
X0055782Y0211661D01*
X0055716Y0211622D01*
X0055648Y0211587D01*
X0055578Y0211555D01*
X0055507Y0211527D01*
X0055434Y0211502D01*
X0055360Y0211482D01*
X0055286Y0211465D01*
X0055210Y0211452D01*
X0055134Y0211443D01*
X0055057Y0211438D01*
X0054981Y0211437D01*
X0054904Y0211440D01*
X0054828Y0211447D01*
X0054752Y0211458D01*
X0054677Y0211473D01*
X0054603Y0211492D01*
X0054529Y0211514D01*
X0054457Y0211540D01*
X0054387Y0211570D01*
X0054318Y0211604D01*
X0054251Y0211641D01*
X0054186Y0211682D01*
X0054123Y0211726D01*
X0054063Y0211773D01*
X0054005Y0211823D01*
X0053950Y0211876D01*
X0053897Y0211932D01*
X0053848Y0211991D01*
X0053801Y0212052D01*
X0053758Y0212115D01*
X0053719Y0212181D01*
X0053682Y0212248D01*
X0053650Y0212317D01*
X0053620Y0212388D01*
X0053595Y0212461D01*
X0053573Y0212534D01*
X0053556Y0212609D01*
X0053542Y0212684D01*
X0053532Y0212760D01*
X0053526Y0212836D01*
X0053524Y0212913D01*
X0023524Y0212913D02*
X0023526Y0212990D01*
X0023532Y0213066D01*
X0023542Y0213142D01*
X0023556Y0213217D01*
X0023573Y0213292D01*
X0023595Y0213365D01*
X0023620Y0213438D01*
X0023650Y0213509D01*
X0023682Y0213578D01*
X0023719Y0213645D01*
X0023758Y0213711D01*
X0023801Y0213774D01*
X0023848Y0213835D01*
X0023897Y0213894D01*
X0023950Y0213950D01*
X0024005Y0214003D01*
X0024063Y0214053D01*
X0024123Y0214100D01*
X0024186Y0214144D01*
X0024251Y0214185D01*
X0024318Y0214222D01*
X0024387Y0214256D01*
X0024457Y0214286D01*
X0024529Y0214312D01*
X0024603Y0214334D01*
X0024677Y0214353D01*
X0024752Y0214368D01*
X0024828Y0214379D01*
X0024904Y0214386D01*
X0024981Y0214389D01*
X0025057Y0214388D01*
X0025134Y0214383D01*
X0025210Y0214374D01*
X0025286Y0214361D01*
X0025360Y0214344D01*
X0025434Y0214324D01*
X0025507Y0214299D01*
X0025578Y0214271D01*
X0025648Y0214239D01*
X0025716Y0214204D01*
X0025782Y0214165D01*
X0025846Y0214123D01*
X0025907Y0214077D01*
X0025967Y0214028D01*
X0026023Y0213977D01*
X0026077Y0213922D01*
X0026128Y0213865D01*
X0026176Y0213805D01*
X0026221Y0213743D01*
X0026262Y0213678D01*
X0026300Y0213612D01*
X0026335Y0213544D01*
X0026365Y0213473D01*
X0026393Y0213402D01*
X0026416Y0213329D01*
X0026436Y0213255D01*
X0026452Y0213180D01*
X0026464Y0213104D01*
X0026472Y0213028D01*
X0026476Y0212951D01*
X0026476Y0212875D01*
X0026472Y0212798D01*
X0026464Y0212722D01*
X0026452Y0212646D01*
X0026436Y0212571D01*
X0026416Y0212497D01*
X0026393Y0212424D01*
X0026365Y0212353D01*
X0026335Y0212282D01*
X0026300Y0212214D01*
X0026262Y0212148D01*
X0026221Y0212083D01*
X0026176Y0212021D01*
X0026128Y0211961D01*
X0026077Y0211904D01*
X0026023Y0211849D01*
X0025967Y0211798D01*
X0025907Y0211749D01*
X0025846Y0211703D01*
X0025782Y0211661D01*
X0025716Y0211622D01*
X0025648Y0211587D01*
X0025578Y0211555D01*
X0025507Y0211527D01*
X0025434Y0211502D01*
X0025360Y0211482D01*
X0025286Y0211465D01*
X0025210Y0211452D01*
X0025134Y0211443D01*
X0025057Y0211438D01*
X0024981Y0211437D01*
X0024904Y0211440D01*
X0024828Y0211447D01*
X0024752Y0211458D01*
X0024677Y0211473D01*
X0024603Y0211492D01*
X0024529Y0211514D01*
X0024457Y0211540D01*
X0024387Y0211570D01*
X0024318Y0211604D01*
X0024251Y0211641D01*
X0024186Y0211682D01*
X0024123Y0211726D01*
X0024063Y0211773D01*
X0024005Y0211823D01*
X0023950Y0211876D01*
X0023897Y0211932D01*
X0023848Y0211991D01*
X0023801Y0212052D01*
X0023758Y0212115D01*
X0023719Y0212181D01*
X0023682Y0212248D01*
X0023650Y0212317D01*
X0023620Y0212388D01*
X0023595Y0212461D01*
X0023573Y0212534D01*
X0023556Y0212609D01*
X0023542Y0212684D01*
X0023532Y0212760D01*
X0023526Y0212836D01*
X0023524Y0212913D01*
X0023526Y0212990D01*
X0023532Y0213066D01*
X0023542Y0213142D01*
X0023556Y0213217D01*
X0023573Y0213292D01*
X0023595Y0213365D01*
X0023620Y0213438D01*
X0023650Y0213509D01*
X0023682Y0213578D01*
X0023719Y0213645D01*
X0023758Y0213711D01*
X0023801Y0213774D01*
X0023848Y0213835D01*
X0023897Y0213894D01*
X0023950Y0213950D01*
X0024005Y0214003D01*
X0024063Y0214053D01*
X0024123Y0214100D01*
X0024186Y0214144D01*
X0024251Y0214185D01*
X0024318Y0214222D01*
X0024387Y0214256D01*
X0024457Y0214286D01*
X0024529Y0214312D01*
X0024603Y0214334D01*
X0024677Y0214353D01*
X0024752Y0214368D01*
X0024828Y0214379D01*
X0024904Y0214386D01*
X0024981Y0214389D01*
X0025057Y0214388D01*
X0025134Y0214383D01*
X0025210Y0214374D01*
X0025286Y0214361D01*
X0025360Y0214344D01*
X0025434Y0214324D01*
X0025507Y0214299D01*
X0025578Y0214271D01*
X0025648Y0214239D01*
X0025716Y0214204D01*
X0025782Y0214165D01*
X0025846Y0214123D01*
X0025907Y0214077D01*
X0025967Y0214028D01*
X0026023Y0213977D01*
X0026077Y0213922D01*
X0026128Y0213865D01*
X0026176Y0213805D01*
X0026221Y0213743D01*
X0026262Y0213678D01*
X0026300Y0213612D01*
X0026335Y0213544D01*
X0026365Y0213473D01*
X0026393Y0213402D01*
X0026416Y0213329D01*
X0026436Y0213255D01*
X0026452Y0213180D01*
X0026464Y0213104D01*
X0026472Y0213028D01*
X0026476Y0212951D01*
X0026476Y0212875D01*
X0026472Y0212798D01*
X0026464Y0212722D01*
X0026452Y0212646D01*
X0026436Y0212571D01*
X0026416Y0212497D01*
X0026393Y0212424D01*
X0026365Y0212353D01*
X0026335Y0212282D01*
X0026300Y0212214D01*
X0026262Y0212148D01*
X0026221Y0212083D01*
X0026176Y0212021D01*
X0026128Y0211961D01*
X0026077Y0211904D01*
X0026023Y0211849D01*
X0025967Y0211798D01*
X0025907Y0211749D01*
X0025846Y0211703D01*
X0025782Y0211661D01*
X0025716Y0211622D01*
X0025648Y0211587D01*
X0025578Y0211555D01*
X0025507Y0211527D01*
X0025434Y0211502D01*
X0025360Y0211482D01*
X0025286Y0211465D01*
X0025210Y0211452D01*
X0025134Y0211443D01*
X0025057Y0211438D01*
X0024981Y0211437D01*
X0024904Y0211440D01*
X0024828Y0211447D01*
X0024752Y0211458D01*
X0024677Y0211473D01*
X0024603Y0211492D01*
X0024529Y0211514D01*
X0024457Y0211540D01*
X0024387Y0211570D01*
X0024318Y0211604D01*
X0024251Y0211641D01*
X0024186Y0211682D01*
X0024123Y0211726D01*
X0024063Y0211773D01*
X0024005Y0211823D01*
X0023950Y0211876D01*
X0023897Y0211932D01*
X0023848Y0211991D01*
X0023801Y0212052D01*
X0023758Y0212115D01*
X0023719Y0212181D01*
X0023682Y0212248D01*
X0023650Y0212317D01*
X0023620Y0212388D01*
X0023595Y0212461D01*
X0023573Y0212534D01*
X0023556Y0212609D01*
X0023542Y0212684D01*
X0023532Y0212760D01*
X0023526Y0212836D01*
X0023524Y0212913D01*
X0023526Y0212990D01*
X0023532Y0213066D01*
X0023542Y0213142D01*
X0023556Y0213217D01*
X0023573Y0213292D01*
X0023595Y0213365D01*
X0023620Y0213438D01*
X0023650Y0213509D01*
X0023682Y0213578D01*
X0023719Y0213645D01*
X0023758Y0213711D01*
X0023801Y0213774D01*
X0023848Y0213835D01*
X0023897Y0213894D01*
X0023950Y0213950D01*
X0024005Y0214003D01*
X0024063Y0214053D01*
X0024123Y0214100D01*
X0024186Y0214144D01*
X0024251Y0214185D01*
X0024318Y0214222D01*
X0024387Y0214256D01*
X0024457Y0214286D01*
X0024529Y0214312D01*
X0024603Y0214334D01*
X0024677Y0214353D01*
X0024752Y0214368D01*
X0024828Y0214379D01*
X0024904Y0214386D01*
X0024981Y0214389D01*
X0025057Y0214388D01*
X0025134Y0214383D01*
X0025210Y0214374D01*
X0025286Y0214361D01*
X0025360Y0214344D01*
X0025434Y0214324D01*
X0025507Y0214299D01*
X0025578Y0214271D01*
X0025648Y0214239D01*
X0025716Y0214204D01*
X0025782Y0214165D01*
X0025846Y0214123D01*
X0025907Y0214077D01*
X0025967Y0214028D01*
X0026023Y0213977D01*
X0026077Y0213922D01*
X0026128Y0213865D01*
X0026176Y0213805D01*
X0026221Y0213743D01*
X0026262Y0213678D01*
X0026300Y0213612D01*
X0026335Y0213544D01*
X0026365Y0213473D01*
X0026393Y0213402D01*
X0026416Y0213329D01*
X0026436Y0213255D01*
X0026452Y0213180D01*
X0026464Y0213104D01*
X0026472Y0213028D01*
X0026476Y0212951D01*
X0026476Y0212875D01*
X0026472Y0212798D01*
X0026464Y0212722D01*
X0026452Y0212646D01*
X0026436Y0212571D01*
X0026416Y0212497D01*
X0026393Y0212424D01*
X0026365Y0212353D01*
X0026335Y0212282D01*
X0026300Y0212214D01*
X0026262Y0212148D01*
X0026221Y0212083D01*
X0026176Y0212021D01*
X0026128Y0211961D01*
X0026077Y0211904D01*
X0026023Y0211849D01*
X0025967Y0211798D01*
X0025907Y0211749D01*
X0025846Y0211703D01*
X0025782Y0211661D01*
X0025716Y0211622D01*
X0025648Y0211587D01*
X0025578Y0211555D01*
X0025507Y0211527D01*
X0025434Y0211502D01*
X0025360Y0211482D01*
X0025286Y0211465D01*
X0025210Y0211452D01*
X0025134Y0211443D01*
X0025057Y0211438D01*
X0024981Y0211437D01*
X0024904Y0211440D01*
X0024828Y0211447D01*
X0024752Y0211458D01*
X0024677Y0211473D01*
X0024603Y0211492D01*
X0024529Y0211514D01*
X0024457Y0211540D01*
X0024387Y0211570D01*
X0024318Y0211604D01*
X0024251Y0211641D01*
X0024186Y0211682D01*
X0024123Y0211726D01*
X0024063Y0211773D01*
X0024005Y0211823D01*
X0023950Y0211876D01*
X0023897Y0211932D01*
X0023848Y0211991D01*
X0023801Y0212052D01*
X0023758Y0212115D01*
X0023719Y0212181D01*
X0023682Y0212248D01*
X0023650Y0212317D01*
X0023620Y0212388D01*
X0023595Y0212461D01*
X0023573Y0212534D01*
X0023556Y0212609D01*
X0023542Y0212684D01*
X0023532Y0212760D01*
X0023526Y0212836D01*
X0023524Y0212913D01*
X0023526Y0212990D01*
X0023532Y0213066D01*
X0023542Y0213142D01*
X0023556Y0213217D01*
X0023573Y0213292D01*
X0023595Y0213365D01*
X0023620Y0213438D01*
X0023650Y0213509D01*
X0023682Y0213578D01*
X0023719Y0213645D01*
X0023758Y0213711D01*
X0023801Y0213774D01*
X0023848Y0213835D01*
X0023897Y0213894D01*
X0023950Y0213950D01*
X0024005Y0214003D01*
X0024063Y0214053D01*
X0024123Y0214100D01*
X0024186Y0214144D01*
X0024251Y0214185D01*
X0024318Y0214222D01*
X0024387Y0214256D01*
X0024457Y0214286D01*
X0024529Y0214312D01*
X0024603Y0214334D01*
X0024677Y0214353D01*
X0024752Y0214368D01*
X0024828Y0214379D01*
X0024904Y0214386D01*
X0024981Y0214389D01*
X0025057Y0214388D01*
X0025134Y0214383D01*
X0025210Y0214374D01*
X0025286Y0214361D01*
X0025360Y0214344D01*
X0025434Y0214324D01*
X0025507Y0214299D01*
X0025578Y0214271D01*
X0025648Y0214239D01*
X0025716Y0214204D01*
X0025782Y0214165D01*
X0025846Y0214123D01*
X0025907Y0214077D01*
X0025967Y0214028D01*
X0026023Y0213977D01*
X0026077Y0213922D01*
X0026128Y0213865D01*
X0026176Y0213805D01*
X0026221Y0213743D01*
X0026262Y0213678D01*
X0026300Y0213612D01*
X0026335Y0213544D01*
X0026365Y0213473D01*
X0026393Y0213402D01*
X0026416Y0213329D01*
X0026436Y0213255D01*
X0026452Y0213180D01*
X0026464Y0213104D01*
X0026472Y0213028D01*
X0026476Y0212951D01*
X0026476Y0212875D01*
X0026472Y0212798D01*
X0026464Y0212722D01*
X0026452Y0212646D01*
X0026436Y0212571D01*
X0026416Y0212497D01*
X0026393Y0212424D01*
X0026365Y0212353D01*
X0026335Y0212282D01*
X0026300Y0212214D01*
X0026262Y0212148D01*
X0026221Y0212083D01*
X0026176Y0212021D01*
X0026128Y0211961D01*
X0026077Y0211904D01*
X0026023Y0211849D01*
X0025967Y0211798D01*
X0025907Y0211749D01*
X0025846Y0211703D01*
X0025782Y0211661D01*
X0025716Y0211622D01*
X0025648Y0211587D01*
X0025578Y0211555D01*
X0025507Y0211527D01*
X0025434Y0211502D01*
X0025360Y0211482D01*
X0025286Y0211465D01*
X0025210Y0211452D01*
X0025134Y0211443D01*
X0025057Y0211438D01*
X0024981Y0211437D01*
X0024904Y0211440D01*
X0024828Y0211447D01*
X0024752Y0211458D01*
X0024677Y0211473D01*
X0024603Y0211492D01*
X0024529Y0211514D01*
X0024457Y0211540D01*
X0024387Y0211570D01*
X0024318Y0211604D01*
X0024251Y0211641D01*
X0024186Y0211682D01*
X0024123Y0211726D01*
X0024063Y0211773D01*
X0024005Y0211823D01*
X0023950Y0211876D01*
X0023897Y0211932D01*
X0023848Y0211991D01*
X0023801Y0212052D01*
X0023758Y0212115D01*
X0023719Y0212181D01*
X0023682Y0212248D01*
X0023650Y0212317D01*
X0023620Y0212388D01*
X0023595Y0212461D01*
X0023573Y0212534D01*
X0023556Y0212609D01*
X0023542Y0212684D01*
X0023532Y0212760D01*
X0023526Y0212836D01*
X0023524Y0212913D01*
X0023526Y0212990D01*
X0023532Y0213066D01*
X0023542Y0213142D01*
X0023556Y0213217D01*
X0023573Y0213292D01*
X0023595Y0213365D01*
X0023620Y0213438D01*
X0023650Y0213509D01*
X0023682Y0213578D01*
X0023719Y0213645D01*
X0023758Y0213711D01*
X0023801Y0213774D01*
X0023848Y0213835D01*
X0023897Y0213894D01*
X0023950Y0213950D01*
X0024005Y0214003D01*
X0024063Y0214053D01*
X0024123Y0214100D01*
X0024186Y0214144D01*
X0024251Y0214185D01*
X0024318Y0214222D01*
X0024387Y0214256D01*
X0024457Y0214286D01*
X0024529Y0214312D01*
X0024603Y0214334D01*
X0024677Y0214353D01*
X0024752Y0214368D01*
X0024828Y0214379D01*
X0024904Y0214386D01*
X0024981Y0214389D01*
X0025057Y0214388D01*
X0025134Y0214383D01*
X0025210Y0214374D01*
X0025286Y0214361D01*
X0025360Y0214344D01*
X0025434Y0214324D01*
X0025507Y0214299D01*
X0025578Y0214271D01*
X0025648Y0214239D01*
X0025716Y0214204D01*
X0025782Y0214165D01*
X0025846Y0214123D01*
X0025907Y0214077D01*
X0025967Y0214028D01*
X0026023Y0213977D01*
X0026077Y0213922D01*
X0026128Y0213865D01*
X0026176Y0213805D01*
X0026221Y0213743D01*
X0026262Y0213678D01*
X0026300Y0213612D01*
X0026335Y0213544D01*
X0026365Y0213473D01*
X0026393Y0213402D01*
X0026416Y0213329D01*
X0026436Y0213255D01*
X0026452Y0213180D01*
X0026464Y0213104D01*
X0026472Y0213028D01*
X0026476Y0212951D01*
X0026476Y0212875D01*
X0026472Y0212798D01*
X0026464Y0212722D01*
X0026452Y0212646D01*
X0026436Y0212571D01*
X0026416Y0212497D01*
X0026393Y0212424D01*
X0026365Y0212353D01*
X0026335Y0212282D01*
X0026300Y0212214D01*
X0026262Y0212148D01*
X0026221Y0212083D01*
X0026176Y0212021D01*
X0026128Y0211961D01*
X0026077Y0211904D01*
X0026023Y0211849D01*
X0025967Y0211798D01*
X0025907Y0211749D01*
X0025846Y0211703D01*
X0025782Y0211661D01*
X0025716Y0211622D01*
X0025648Y0211587D01*
X0025578Y0211555D01*
X0025507Y0211527D01*
X0025434Y0211502D01*
X0025360Y0211482D01*
X0025286Y0211465D01*
X0025210Y0211452D01*
X0025134Y0211443D01*
X0025057Y0211438D01*
X0024981Y0211437D01*
X0024904Y0211440D01*
X0024828Y0211447D01*
X0024752Y0211458D01*
X0024677Y0211473D01*
X0024603Y0211492D01*
X0024529Y0211514D01*
X0024457Y0211540D01*
X0024387Y0211570D01*
X0024318Y0211604D01*
X0024251Y0211641D01*
X0024186Y0211682D01*
X0024123Y0211726D01*
X0024063Y0211773D01*
X0024005Y0211823D01*
X0023950Y0211876D01*
X0023897Y0211932D01*
X0023848Y0211991D01*
X0023801Y0212052D01*
X0023758Y0212115D01*
X0023719Y0212181D01*
X0023682Y0212248D01*
X0023650Y0212317D01*
X0023620Y0212388D01*
X0023595Y0212461D01*
X0023573Y0212534D01*
X0023556Y0212609D01*
X0023542Y0212684D01*
X0023532Y0212760D01*
X0023526Y0212836D01*
X0023524Y0212913D01*
X0023526Y0212990D01*
X0023532Y0213066D01*
X0023542Y0213142D01*
X0023556Y0213217D01*
X0023573Y0213292D01*
X0023595Y0213365D01*
X0023620Y0213438D01*
X0023650Y0213509D01*
X0023682Y0213578D01*
X0023719Y0213645D01*
X0023758Y0213711D01*
X0023801Y0213774D01*
X0023848Y0213835D01*
X0023897Y0213894D01*
X0023950Y0213950D01*
X0024005Y0214003D01*
X0024063Y0214053D01*
X0024123Y0214100D01*
X0024186Y0214144D01*
X0024251Y0214185D01*
X0024318Y0214222D01*
X0024387Y0214256D01*
X0024457Y0214286D01*
X0024529Y0214312D01*
X0024603Y0214334D01*
X0024677Y0214353D01*
X0024752Y0214368D01*
X0024828Y0214379D01*
X0024904Y0214386D01*
X0024981Y0214389D01*
X0025057Y0214388D01*
X0025134Y0214383D01*
X0025210Y0214374D01*
X0025286Y0214361D01*
X0025360Y0214344D01*
X0025434Y0214324D01*
X0025507Y0214299D01*
X0025578Y0214271D01*
X0025648Y0214239D01*
X0025716Y0214204D01*
X0025782Y0214165D01*
X0025846Y0214123D01*
X0025907Y0214077D01*
X0025967Y0214028D01*
X0026023Y0213977D01*
X0026077Y0213922D01*
X0026128Y0213865D01*
X0026176Y0213805D01*
X0026221Y0213743D01*
X0026262Y0213678D01*
X0026300Y0213612D01*
X0026335Y0213544D01*
X0026365Y0213473D01*
X0026393Y0213402D01*
X0026416Y0213329D01*
X0026436Y0213255D01*
X0026452Y0213180D01*
X0026464Y0213104D01*
X0026472Y0213028D01*
X0026476Y0212951D01*
X0026476Y0212875D01*
X0026472Y0212798D01*
X0026464Y0212722D01*
X0026452Y0212646D01*
X0026436Y0212571D01*
X0026416Y0212497D01*
X0026393Y0212424D01*
X0026365Y0212353D01*
X0026335Y0212282D01*
X0026300Y0212214D01*
X0026262Y0212148D01*
X0026221Y0212083D01*
X0026176Y0212021D01*
X0026128Y0211961D01*
X0026077Y0211904D01*
X0026023Y0211849D01*
X0025967Y0211798D01*
X0025907Y0211749D01*
X0025846Y0211703D01*
X0025782Y0211661D01*
X0025716Y0211622D01*
X0025648Y0211587D01*
X0025578Y0211555D01*
X0025507Y0211527D01*
X0025434Y0211502D01*
X0025360Y0211482D01*
X0025286Y0211465D01*
X0025210Y0211452D01*
X0025134Y0211443D01*
X0025057Y0211438D01*
X0024981Y0211437D01*
X0024904Y0211440D01*
X0024828Y0211447D01*
X0024752Y0211458D01*
X0024677Y0211473D01*
X0024603Y0211492D01*
X0024529Y0211514D01*
X0024457Y0211540D01*
X0024387Y0211570D01*
X0024318Y0211604D01*
X0024251Y0211641D01*
X0024186Y0211682D01*
X0024123Y0211726D01*
X0024063Y0211773D01*
X0024005Y0211823D01*
X0023950Y0211876D01*
X0023897Y0211932D01*
X0023848Y0211991D01*
X0023801Y0212052D01*
X0023758Y0212115D01*
X0023719Y0212181D01*
X0023682Y0212248D01*
X0023650Y0212317D01*
X0023620Y0212388D01*
X0023595Y0212461D01*
X0023573Y0212534D01*
X0023556Y0212609D01*
X0023542Y0212684D01*
X0023532Y0212760D01*
X0023526Y0212836D01*
X0023524Y0212913D01*
X0023526Y0212990D01*
X0023532Y0213066D01*
X0023542Y0213142D01*
X0023556Y0213217D01*
X0023573Y0213292D01*
X0023595Y0213365D01*
X0023620Y0213438D01*
X0023650Y0213509D01*
X0023682Y0213578D01*
X0023719Y0213645D01*
X0023758Y0213711D01*
X0023801Y0213774D01*
X0023848Y0213835D01*
X0023897Y0213894D01*
X0023950Y0213950D01*
X0024005Y0214003D01*
X0024063Y0214053D01*
X0024123Y0214100D01*
X0024186Y0214144D01*
X0024251Y0214185D01*
X0024318Y0214222D01*
X0024387Y0214256D01*
X0024457Y0214286D01*
X0024529Y0214312D01*
X0024603Y0214334D01*
X0024677Y0214353D01*
X0024752Y0214368D01*
X0024828Y0214379D01*
X0024904Y0214386D01*
X0024981Y0214389D01*
X0025057Y0214388D01*
X0025134Y0214383D01*
X0025210Y0214374D01*
X0025286Y0214361D01*
X0025360Y0214344D01*
X0025434Y0214324D01*
X0025507Y0214299D01*
X0025578Y0214271D01*
X0025648Y0214239D01*
X0025716Y0214204D01*
X0025782Y0214165D01*
X0025846Y0214123D01*
X0025907Y0214077D01*
X0025967Y0214028D01*
X0026023Y0213977D01*
X0026077Y0213922D01*
X0026128Y0213865D01*
X0026176Y0213805D01*
X0026221Y0213743D01*
X0026262Y0213678D01*
X0026300Y0213612D01*
X0026335Y0213544D01*
X0026365Y0213473D01*
X0026393Y0213402D01*
X0026416Y0213329D01*
X0026436Y0213255D01*
X0026452Y0213180D01*
X0026464Y0213104D01*
X0026472Y0213028D01*
X0026476Y0212951D01*
X0026476Y0212875D01*
X0026472Y0212798D01*
X0026464Y0212722D01*
X0026452Y0212646D01*
X0026436Y0212571D01*
X0026416Y0212497D01*
X0026393Y0212424D01*
X0026365Y0212353D01*
X0026335Y0212282D01*
X0026300Y0212214D01*
X0026262Y0212148D01*
X0026221Y0212083D01*
X0026176Y0212021D01*
X0026128Y0211961D01*
X0026077Y0211904D01*
X0026023Y0211849D01*
X0025967Y0211798D01*
X0025907Y0211749D01*
X0025846Y0211703D01*
X0025782Y0211661D01*
X0025716Y0211622D01*
X0025648Y0211587D01*
X0025578Y0211555D01*
X0025507Y0211527D01*
X0025434Y0211502D01*
X0025360Y0211482D01*
X0025286Y0211465D01*
X0025210Y0211452D01*
X0025134Y0211443D01*
X0025057Y0211438D01*
X0024981Y0211437D01*
X0024904Y0211440D01*
X0024828Y0211447D01*
X0024752Y0211458D01*
X0024677Y0211473D01*
X0024603Y0211492D01*
X0024529Y0211514D01*
X0024457Y0211540D01*
X0024387Y0211570D01*
X0024318Y0211604D01*
X0024251Y0211641D01*
X0024186Y0211682D01*
X0024123Y0211726D01*
X0024063Y0211773D01*
X0024005Y0211823D01*
X0023950Y0211876D01*
X0023897Y0211932D01*
X0023848Y0211991D01*
X0023801Y0212052D01*
X0023758Y0212115D01*
X0023719Y0212181D01*
X0023682Y0212248D01*
X0023650Y0212317D01*
X0023620Y0212388D01*
X0023595Y0212461D01*
X0023573Y0212534D01*
X0023556Y0212609D01*
X0023542Y0212684D01*
X0023532Y0212760D01*
X0023526Y0212836D01*
X0023524Y0212913D01*
X0023526Y0212990D01*
X0023532Y0213066D01*
X0023542Y0213142D01*
X0023556Y0213217D01*
X0023573Y0213292D01*
X0023595Y0213365D01*
X0023620Y0213438D01*
X0023650Y0213509D01*
X0023682Y0213578D01*
X0023719Y0213645D01*
X0023758Y0213711D01*
X0023801Y0213774D01*
X0023848Y0213835D01*
X0023897Y0213894D01*
X0023950Y0213950D01*
X0024005Y0214003D01*
X0024063Y0214053D01*
X0024123Y0214100D01*
X0024186Y0214144D01*
X0024251Y0214185D01*
X0024318Y0214222D01*
X0024387Y0214256D01*
X0024457Y0214286D01*
X0024529Y0214312D01*
X0024603Y0214334D01*
X0024677Y0214353D01*
X0024752Y0214368D01*
X0024828Y0214379D01*
X0024904Y0214386D01*
X0024981Y0214389D01*
X0025057Y0214388D01*
X0025134Y0214383D01*
X0025210Y0214374D01*
X0025286Y0214361D01*
X0025360Y0214344D01*
X0025434Y0214324D01*
X0025507Y0214299D01*
X0025578Y0214271D01*
X0025648Y0214239D01*
X0025716Y0214204D01*
X0025782Y0214165D01*
X0025846Y0214123D01*
X0025907Y0214077D01*
X0025967Y0214028D01*
X0026023Y0213977D01*
X0026077Y0213922D01*
X0026128Y0213865D01*
X0026176Y0213805D01*
X0026221Y0213743D01*
X0026262Y0213678D01*
X0026300Y0213612D01*
X0026335Y0213544D01*
X0026365Y0213473D01*
X0026393Y0213402D01*
X0026416Y0213329D01*
X0026436Y0213255D01*
X0026452Y0213180D01*
X0026464Y0213104D01*
X0026472Y0213028D01*
X0026476Y0212951D01*
X0026476Y0212875D01*
X0026472Y0212798D01*
X0026464Y0212722D01*
X0026452Y0212646D01*
X0026436Y0212571D01*
X0026416Y0212497D01*
X0026393Y0212424D01*
X0026365Y0212353D01*
X0026335Y0212282D01*
X0026300Y0212214D01*
X0026262Y0212148D01*
X0026221Y0212083D01*
X0026176Y0212021D01*
X0026128Y0211961D01*
X0026077Y0211904D01*
X0026023Y0211849D01*
X0025967Y0211798D01*
X0025907Y0211749D01*
X0025846Y0211703D01*
X0025782Y0211661D01*
X0025716Y0211622D01*
X0025648Y0211587D01*
X0025578Y0211555D01*
X0025507Y0211527D01*
X0025434Y0211502D01*
X0025360Y0211482D01*
X0025286Y0211465D01*
X0025210Y0211452D01*
X0025134Y0211443D01*
X0025057Y0211438D01*
X0024981Y0211437D01*
X0024904Y0211440D01*
X0024828Y0211447D01*
X0024752Y0211458D01*
X0024677Y0211473D01*
X0024603Y0211492D01*
X0024529Y0211514D01*
X0024457Y0211540D01*
X0024387Y0211570D01*
X0024318Y0211604D01*
X0024251Y0211641D01*
X0024186Y0211682D01*
X0024123Y0211726D01*
X0024063Y0211773D01*
X0024005Y0211823D01*
X0023950Y0211876D01*
X0023897Y0211932D01*
X0023848Y0211991D01*
X0023801Y0212052D01*
X0023758Y0212115D01*
X0023719Y0212181D01*
X0023682Y0212248D01*
X0023650Y0212317D01*
X0023620Y0212388D01*
X0023595Y0212461D01*
X0023573Y0212534D01*
X0023556Y0212609D01*
X0023542Y0212684D01*
X0023532Y0212760D01*
X0023526Y0212836D01*
X0023524Y0212913D01*
X0023526Y0212990D01*
X0023532Y0213066D01*
X0023542Y0213142D01*
X0023556Y0213217D01*
X0023573Y0213292D01*
X0023595Y0213365D01*
X0023620Y0213438D01*
X0023650Y0213509D01*
X0023682Y0213578D01*
X0023719Y0213645D01*
X0023758Y0213711D01*
X0023801Y0213774D01*
X0023848Y0213835D01*
X0023897Y0213894D01*
X0023950Y0213950D01*
X0024005Y0214003D01*
X0024063Y0214053D01*
X0024123Y0214100D01*
X0024186Y0214144D01*
X0024251Y0214185D01*
X0024318Y0214222D01*
X0024387Y0214256D01*
X0024457Y0214286D01*
X0024529Y0214312D01*
X0024603Y0214334D01*
X0024677Y0214353D01*
X0024752Y0214368D01*
X0024828Y0214379D01*
X0024904Y0214386D01*
X0024981Y0214389D01*
X0025057Y0214388D01*
X0025134Y0214383D01*
X0025210Y0214374D01*
X0025286Y0214361D01*
X0025360Y0214344D01*
X0025434Y0214324D01*
X0025507Y0214299D01*
X0025578Y0214271D01*
X0025648Y0214239D01*
X0025716Y0214204D01*
X0025782Y0214165D01*
X0025846Y0214123D01*
X0025907Y0214077D01*
X0025967Y0214028D01*
X0026023Y0213977D01*
X0026077Y0213922D01*
X0026128Y0213865D01*
X0026176Y0213805D01*
X0026221Y0213743D01*
X0026262Y0213678D01*
X0026300Y0213612D01*
X0026335Y0213544D01*
X0026365Y0213473D01*
X0026393Y0213402D01*
X0026416Y0213329D01*
X0026436Y0213255D01*
X0026452Y0213180D01*
X0026464Y0213104D01*
X0026472Y0213028D01*
X0026476Y0212951D01*
X0026476Y0212875D01*
X0026472Y0212798D01*
X0026464Y0212722D01*
X0026452Y0212646D01*
X0026436Y0212571D01*
X0026416Y0212497D01*
X0026393Y0212424D01*
X0026365Y0212353D01*
X0026335Y0212282D01*
X0026300Y0212214D01*
X0026262Y0212148D01*
X0026221Y0212083D01*
X0026176Y0212021D01*
X0026128Y0211961D01*
X0026077Y0211904D01*
X0026023Y0211849D01*
X0025967Y0211798D01*
X0025907Y0211749D01*
X0025846Y0211703D01*
X0025782Y0211661D01*
X0025716Y0211622D01*
X0025648Y0211587D01*
X0025578Y0211555D01*
X0025507Y0211527D01*
X0025434Y0211502D01*
X0025360Y0211482D01*
X0025286Y0211465D01*
X0025210Y0211452D01*
X0025134Y0211443D01*
X0025057Y0211438D01*
X0024981Y0211437D01*
X0024904Y0211440D01*
X0024828Y0211447D01*
X0024752Y0211458D01*
X0024677Y0211473D01*
X0024603Y0211492D01*
X0024529Y0211514D01*
X0024457Y0211540D01*
X0024387Y0211570D01*
X0024318Y0211604D01*
X0024251Y0211641D01*
X0024186Y0211682D01*
X0024123Y0211726D01*
X0024063Y0211773D01*
X0024005Y0211823D01*
X0023950Y0211876D01*
X0023897Y0211932D01*
X0023848Y0211991D01*
X0023801Y0212052D01*
X0023758Y0212115D01*
X0023719Y0212181D01*
X0023682Y0212248D01*
X0023650Y0212317D01*
X0023620Y0212388D01*
X0023595Y0212461D01*
X0023573Y0212534D01*
X0023556Y0212609D01*
X0023542Y0212684D01*
X0023532Y0212760D01*
X0023526Y0212836D01*
X0023524Y0212913D01*
X0023526Y0212990D01*
X0023532Y0213066D01*
X0023542Y0213142D01*
X0023556Y0213217D01*
X0023573Y0213292D01*
X0023595Y0213365D01*
X0023620Y0213438D01*
X0023650Y0213509D01*
X0023682Y0213578D01*
X0023719Y0213645D01*
X0023758Y0213711D01*
X0023801Y0213774D01*
X0023848Y0213835D01*
X0023897Y0213894D01*
X0023950Y0213950D01*
X0024005Y0214003D01*
X0024063Y0214053D01*
X0024123Y0214100D01*
X0024186Y0214144D01*
X0024251Y0214185D01*
X0024318Y0214222D01*
X0024387Y0214256D01*
X0024457Y0214286D01*
X0024529Y0214312D01*
X0024603Y0214334D01*
X0024677Y0214353D01*
X0024752Y0214368D01*
X0024828Y0214379D01*
X0024904Y0214386D01*
X0024981Y0214389D01*
X0025057Y0214388D01*
X0025134Y0214383D01*
X0025210Y0214374D01*
X0025286Y0214361D01*
X0025360Y0214344D01*
X0025434Y0214324D01*
X0025507Y0214299D01*
X0025578Y0214271D01*
X0025648Y0214239D01*
X0025716Y0214204D01*
X0025782Y0214165D01*
X0025846Y0214123D01*
X0025907Y0214077D01*
X0025967Y0214028D01*
X0026023Y0213977D01*
X0026077Y0213922D01*
X0026128Y0213865D01*
X0026176Y0213805D01*
X0026221Y0213743D01*
X0026262Y0213678D01*
X0026300Y0213612D01*
X0026335Y0213544D01*
X0026365Y0213473D01*
X0026393Y0213402D01*
X0026416Y0213329D01*
X0026436Y0213255D01*
X0026452Y0213180D01*
X0026464Y0213104D01*
X0026472Y0213028D01*
X0026476Y0212951D01*
X0026476Y0212875D01*
X0026472Y0212798D01*
X0026464Y0212722D01*
X0026452Y0212646D01*
X0026436Y0212571D01*
X0026416Y0212497D01*
X0026393Y0212424D01*
X0026365Y0212353D01*
X0026335Y0212282D01*
X0026300Y0212214D01*
X0026262Y0212148D01*
X0026221Y0212083D01*
X0026176Y0212021D01*
X0026128Y0211961D01*
X0026077Y0211904D01*
X0026023Y0211849D01*
X0025967Y0211798D01*
X0025907Y0211749D01*
X0025846Y0211703D01*
X0025782Y0211661D01*
X0025716Y0211622D01*
X0025648Y0211587D01*
X0025578Y0211555D01*
X0025507Y0211527D01*
X0025434Y0211502D01*
X0025360Y0211482D01*
X0025286Y0211465D01*
X0025210Y0211452D01*
X0025134Y0211443D01*
X0025057Y0211438D01*
X0024981Y0211437D01*
X0024904Y0211440D01*
X0024828Y0211447D01*
X0024752Y0211458D01*
X0024677Y0211473D01*
X0024603Y0211492D01*
X0024529Y0211514D01*
X0024457Y0211540D01*
X0024387Y0211570D01*
X0024318Y0211604D01*
X0024251Y0211641D01*
X0024186Y0211682D01*
X0024123Y0211726D01*
X0024063Y0211773D01*
X0024005Y0211823D01*
X0023950Y0211876D01*
X0023897Y0211932D01*
X0023848Y0211991D01*
X0023801Y0212052D01*
X0023758Y0212115D01*
X0023719Y0212181D01*
X0023682Y0212248D01*
X0023650Y0212317D01*
X0023620Y0212388D01*
X0023595Y0212461D01*
X0023573Y0212534D01*
X0023556Y0212609D01*
X0023542Y0212684D01*
X0023532Y0212760D01*
X0023526Y0212836D01*
X0023524Y0212913D01*
X0023526Y0212990D01*
X0023532Y0213066D01*
X0023542Y0213142D01*
X0023556Y0213217D01*
X0023573Y0213292D01*
X0023595Y0213365D01*
X0023620Y0213438D01*
X0023650Y0213509D01*
X0023682Y0213578D01*
X0023719Y0213645D01*
X0023758Y0213711D01*
X0023801Y0213774D01*
X0023848Y0213835D01*
X0023897Y0213894D01*
X0023950Y0213950D01*
X0024005Y0214003D01*
X0024063Y0214053D01*
X0024123Y0214100D01*
X0024186Y0214144D01*
X0024251Y0214185D01*
X0024318Y0214222D01*
X0024387Y0214256D01*
X0024457Y0214286D01*
X0024529Y0214312D01*
X0024603Y0214334D01*
X0024677Y0214353D01*
X0024752Y0214368D01*
X0024828Y0214379D01*
X0024904Y0214386D01*
X0024981Y0214389D01*
X0025057Y0214388D01*
X0025134Y0214383D01*
X0025210Y0214374D01*
X0025286Y0214361D01*
X0025360Y0214344D01*
X0025434Y0214324D01*
X0025507Y0214299D01*
X0025578Y0214271D01*
X0025648Y0214239D01*
X0025716Y0214204D01*
X0025782Y0214165D01*
X0025846Y0214123D01*
X0025907Y0214077D01*
X0025967Y0214028D01*
X0026023Y0213977D01*
X0026077Y0213922D01*
X0026128Y0213865D01*
X0026176Y0213805D01*
X0026221Y0213743D01*
X0026262Y0213678D01*
X0026300Y0213612D01*
X0026335Y0213544D01*
X0026365Y0213473D01*
X0026393Y0213402D01*
X0026416Y0213329D01*
X0026436Y0213255D01*
X0026452Y0213180D01*
X0026464Y0213104D01*
X0026472Y0213028D01*
X0026476Y0212951D01*
X0026476Y0212875D01*
X0026472Y0212798D01*
X0026464Y0212722D01*
X0026452Y0212646D01*
X0026436Y0212571D01*
X0026416Y0212497D01*
X0026393Y0212424D01*
X0026365Y0212353D01*
X0026335Y0212282D01*
X0026300Y0212214D01*
X0026262Y0212148D01*
X0026221Y0212083D01*
X0026176Y0212021D01*
X0026128Y0211961D01*
X0026077Y0211904D01*
X0026023Y0211849D01*
X0025967Y0211798D01*
X0025907Y0211749D01*
X0025846Y0211703D01*
X0025782Y0211661D01*
X0025716Y0211622D01*
X0025648Y0211587D01*
X0025578Y0211555D01*
X0025507Y0211527D01*
X0025434Y0211502D01*
X0025360Y0211482D01*
X0025286Y0211465D01*
X0025210Y0211452D01*
X0025134Y0211443D01*
X0025057Y0211438D01*
X0024981Y0211437D01*
X0024904Y0211440D01*
X0024828Y0211447D01*
X0024752Y0211458D01*
X0024677Y0211473D01*
X0024603Y0211492D01*
X0024529Y0211514D01*
X0024457Y0211540D01*
X0024387Y0211570D01*
X0024318Y0211604D01*
X0024251Y0211641D01*
X0024186Y0211682D01*
X0024123Y0211726D01*
X0024063Y0211773D01*
X0024005Y0211823D01*
X0023950Y0211876D01*
X0023897Y0211932D01*
X0023848Y0211991D01*
X0023801Y0212052D01*
X0023758Y0212115D01*
X0023719Y0212181D01*
X0023682Y0212248D01*
X0023650Y0212317D01*
X0023620Y0212388D01*
X0023595Y0212461D01*
X0023573Y0212534D01*
X0023556Y0212609D01*
X0023542Y0212684D01*
X0023532Y0212760D01*
X0023526Y0212836D01*
X0023524Y0212913D01*
X0023524Y0202087D02*
X0023526Y0202164D01*
X0023532Y0202240D01*
X0023542Y0202316D01*
X0023556Y0202391D01*
X0023573Y0202466D01*
X0023595Y0202539D01*
X0023620Y0202612D01*
X0023650Y0202683D01*
X0023682Y0202752D01*
X0023719Y0202819D01*
X0023758Y0202885D01*
X0023801Y0202948D01*
X0023848Y0203009D01*
X0023897Y0203068D01*
X0023950Y0203124D01*
X0024005Y0203177D01*
X0024063Y0203227D01*
X0024123Y0203274D01*
X0024186Y0203318D01*
X0024251Y0203359D01*
X0024318Y0203396D01*
X0024387Y0203430D01*
X0024457Y0203460D01*
X0024529Y0203486D01*
X0024603Y0203508D01*
X0024677Y0203527D01*
X0024752Y0203542D01*
X0024828Y0203553D01*
X0024904Y0203560D01*
X0024981Y0203563D01*
X0025057Y0203562D01*
X0025134Y0203557D01*
X0025210Y0203548D01*
X0025286Y0203535D01*
X0025360Y0203518D01*
X0025434Y0203498D01*
X0025507Y0203473D01*
X0025578Y0203445D01*
X0025648Y0203413D01*
X0025716Y0203378D01*
X0025782Y0203339D01*
X0025846Y0203297D01*
X0025907Y0203251D01*
X0025967Y0203202D01*
X0026023Y0203151D01*
X0026077Y0203096D01*
X0026128Y0203039D01*
X0026176Y0202979D01*
X0026221Y0202917D01*
X0026262Y0202852D01*
X0026300Y0202786D01*
X0026335Y0202718D01*
X0026365Y0202647D01*
X0026393Y0202576D01*
X0026416Y0202503D01*
X0026436Y0202429D01*
X0026452Y0202354D01*
X0026464Y0202278D01*
X0026472Y0202202D01*
X0026476Y0202125D01*
X0026476Y0202049D01*
X0026472Y0201972D01*
X0026464Y0201896D01*
X0026452Y0201820D01*
X0026436Y0201745D01*
X0026416Y0201671D01*
X0026393Y0201598D01*
X0026365Y0201527D01*
X0026335Y0201456D01*
X0026300Y0201388D01*
X0026262Y0201322D01*
X0026221Y0201257D01*
X0026176Y0201195D01*
X0026128Y0201135D01*
X0026077Y0201078D01*
X0026023Y0201023D01*
X0025967Y0200972D01*
X0025907Y0200923D01*
X0025846Y0200877D01*
X0025782Y0200835D01*
X0025716Y0200796D01*
X0025648Y0200761D01*
X0025578Y0200729D01*
X0025507Y0200701D01*
X0025434Y0200676D01*
X0025360Y0200656D01*
X0025286Y0200639D01*
X0025210Y0200626D01*
X0025134Y0200617D01*
X0025057Y0200612D01*
X0024981Y0200611D01*
X0024904Y0200614D01*
X0024828Y0200621D01*
X0024752Y0200632D01*
X0024677Y0200647D01*
X0024603Y0200666D01*
X0024529Y0200688D01*
X0024457Y0200714D01*
X0024387Y0200744D01*
X0024318Y0200778D01*
X0024251Y0200815D01*
X0024186Y0200856D01*
X0024123Y0200900D01*
X0024063Y0200947D01*
X0024005Y0200997D01*
X0023950Y0201050D01*
X0023897Y0201106D01*
X0023848Y0201165D01*
X0023801Y0201226D01*
X0023758Y0201289D01*
X0023719Y0201355D01*
X0023682Y0201422D01*
X0023650Y0201491D01*
X0023620Y0201562D01*
X0023595Y0201635D01*
X0023573Y0201708D01*
X0023556Y0201783D01*
X0023542Y0201858D01*
X0023532Y0201934D01*
X0023526Y0202010D01*
X0023524Y0202087D01*
X0023526Y0202164D01*
X0023532Y0202240D01*
X0023542Y0202316D01*
X0023556Y0202391D01*
X0023573Y0202466D01*
X0023595Y0202539D01*
X0023620Y0202612D01*
X0023650Y0202683D01*
X0023682Y0202752D01*
X0023719Y0202819D01*
X0023758Y0202885D01*
X0023801Y0202948D01*
X0023848Y0203009D01*
X0023897Y0203068D01*
X0023950Y0203124D01*
X0024005Y0203177D01*
X0024063Y0203227D01*
X0024123Y0203274D01*
X0024186Y0203318D01*
X0024251Y0203359D01*
X0024318Y0203396D01*
X0024387Y0203430D01*
X0024457Y0203460D01*
X0024529Y0203486D01*
X0024603Y0203508D01*
X0024677Y0203527D01*
X0024752Y0203542D01*
X0024828Y0203553D01*
X0024904Y0203560D01*
X0024981Y0203563D01*
X0025057Y0203562D01*
X0025134Y0203557D01*
X0025210Y0203548D01*
X0025286Y0203535D01*
X0025360Y0203518D01*
X0025434Y0203498D01*
X0025507Y0203473D01*
X0025578Y0203445D01*
X0025648Y0203413D01*
X0025716Y0203378D01*
X0025782Y0203339D01*
X0025846Y0203297D01*
X0025907Y0203251D01*
X0025967Y0203202D01*
X0026023Y0203151D01*
X0026077Y0203096D01*
X0026128Y0203039D01*
X0026176Y0202979D01*
X0026221Y0202917D01*
X0026262Y0202852D01*
X0026300Y0202786D01*
X0026335Y0202718D01*
X0026365Y0202647D01*
X0026393Y0202576D01*
X0026416Y0202503D01*
X0026436Y0202429D01*
X0026452Y0202354D01*
X0026464Y0202278D01*
X0026472Y0202202D01*
X0026476Y0202125D01*
X0026476Y0202049D01*
X0026472Y0201972D01*
X0026464Y0201896D01*
X0026452Y0201820D01*
X0026436Y0201745D01*
X0026416Y0201671D01*
X0026393Y0201598D01*
X0026365Y0201527D01*
X0026335Y0201456D01*
X0026300Y0201388D01*
X0026262Y0201322D01*
X0026221Y0201257D01*
X0026176Y0201195D01*
X0026128Y0201135D01*
X0026077Y0201078D01*
X0026023Y0201023D01*
X0025967Y0200972D01*
X0025907Y0200923D01*
X0025846Y0200877D01*
X0025782Y0200835D01*
X0025716Y0200796D01*
X0025648Y0200761D01*
X0025578Y0200729D01*
X0025507Y0200701D01*
X0025434Y0200676D01*
X0025360Y0200656D01*
X0025286Y0200639D01*
X0025210Y0200626D01*
X0025134Y0200617D01*
X0025057Y0200612D01*
X0024981Y0200611D01*
X0024904Y0200614D01*
X0024828Y0200621D01*
X0024752Y0200632D01*
X0024677Y0200647D01*
X0024603Y0200666D01*
X0024529Y0200688D01*
X0024457Y0200714D01*
X0024387Y0200744D01*
X0024318Y0200778D01*
X0024251Y0200815D01*
X0024186Y0200856D01*
X0024123Y0200900D01*
X0024063Y0200947D01*
X0024005Y0200997D01*
X0023950Y0201050D01*
X0023897Y0201106D01*
X0023848Y0201165D01*
X0023801Y0201226D01*
X0023758Y0201289D01*
X0023719Y0201355D01*
X0023682Y0201422D01*
X0023650Y0201491D01*
X0023620Y0201562D01*
X0023595Y0201635D01*
X0023573Y0201708D01*
X0023556Y0201783D01*
X0023542Y0201858D01*
X0023532Y0201934D01*
X0023526Y0202010D01*
X0023524Y0202087D01*
X0023526Y0202164D01*
X0023532Y0202240D01*
X0023542Y0202316D01*
X0023556Y0202391D01*
X0023573Y0202466D01*
X0023595Y0202539D01*
X0023620Y0202612D01*
X0023650Y0202683D01*
X0023682Y0202752D01*
X0023719Y0202819D01*
X0023758Y0202885D01*
X0023801Y0202948D01*
X0023848Y0203009D01*
X0023897Y0203068D01*
X0023950Y0203124D01*
X0024005Y0203177D01*
X0024063Y0203227D01*
X0024123Y0203274D01*
X0024186Y0203318D01*
X0024251Y0203359D01*
X0024318Y0203396D01*
X0024387Y0203430D01*
X0024457Y0203460D01*
X0024529Y0203486D01*
X0024603Y0203508D01*
X0024677Y0203527D01*
X0024752Y0203542D01*
X0024828Y0203553D01*
X0024904Y0203560D01*
X0024981Y0203563D01*
X0025057Y0203562D01*
X0025134Y0203557D01*
X0025210Y0203548D01*
X0025286Y0203535D01*
X0025360Y0203518D01*
X0025434Y0203498D01*
X0025507Y0203473D01*
X0025578Y0203445D01*
X0025648Y0203413D01*
X0025716Y0203378D01*
X0025782Y0203339D01*
X0025846Y0203297D01*
X0025907Y0203251D01*
X0025967Y0203202D01*
X0026023Y0203151D01*
X0026077Y0203096D01*
X0026128Y0203039D01*
X0026176Y0202979D01*
X0026221Y0202917D01*
X0026262Y0202852D01*
X0026300Y0202786D01*
X0026335Y0202718D01*
X0026365Y0202647D01*
X0026393Y0202576D01*
X0026416Y0202503D01*
X0026436Y0202429D01*
X0026452Y0202354D01*
X0026464Y0202278D01*
X0026472Y0202202D01*
X0026476Y0202125D01*
X0026476Y0202049D01*
X0026472Y0201972D01*
X0026464Y0201896D01*
X0026452Y0201820D01*
X0026436Y0201745D01*
X0026416Y0201671D01*
X0026393Y0201598D01*
X0026365Y0201527D01*
X0026335Y0201456D01*
X0026300Y0201388D01*
X0026262Y0201322D01*
X0026221Y0201257D01*
X0026176Y0201195D01*
X0026128Y0201135D01*
X0026077Y0201078D01*
X0026023Y0201023D01*
X0025967Y0200972D01*
X0025907Y0200923D01*
X0025846Y0200877D01*
X0025782Y0200835D01*
X0025716Y0200796D01*
X0025648Y0200761D01*
X0025578Y0200729D01*
X0025507Y0200701D01*
X0025434Y0200676D01*
X0025360Y0200656D01*
X0025286Y0200639D01*
X0025210Y0200626D01*
X0025134Y0200617D01*
X0025057Y0200612D01*
X0024981Y0200611D01*
X0024904Y0200614D01*
X0024828Y0200621D01*
X0024752Y0200632D01*
X0024677Y0200647D01*
X0024603Y0200666D01*
X0024529Y0200688D01*
X0024457Y0200714D01*
X0024387Y0200744D01*
X0024318Y0200778D01*
X0024251Y0200815D01*
X0024186Y0200856D01*
X0024123Y0200900D01*
X0024063Y0200947D01*
X0024005Y0200997D01*
X0023950Y0201050D01*
X0023897Y0201106D01*
X0023848Y0201165D01*
X0023801Y0201226D01*
X0023758Y0201289D01*
X0023719Y0201355D01*
X0023682Y0201422D01*
X0023650Y0201491D01*
X0023620Y0201562D01*
X0023595Y0201635D01*
X0023573Y0201708D01*
X0023556Y0201783D01*
X0023542Y0201858D01*
X0023532Y0201934D01*
X0023526Y0202010D01*
X0023524Y0202087D01*
X0023526Y0202164D01*
X0023532Y0202240D01*
X0023542Y0202316D01*
X0023556Y0202391D01*
X0023573Y0202466D01*
X0023595Y0202539D01*
X0023620Y0202612D01*
X0023650Y0202683D01*
X0023682Y0202752D01*
X0023719Y0202819D01*
X0023758Y0202885D01*
X0023801Y0202948D01*
X0023848Y0203009D01*
X0023897Y0203068D01*
X0023950Y0203124D01*
X0024005Y0203177D01*
X0024063Y0203227D01*
X0024123Y0203274D01*
X0024186Y0203318D01*
X0024251Y0203359D01*
X0024318Y0203396D01*
X0024387Y0203430D01*
X0024457Y0203460D01*
X0024529Y0203486D01*
X0024603Y0203508D01*
X0024677Y0203527D01*
X0024752Y0203542D01*
X0024828Y0203553D01*
X0024904Y0203560D01*
X0024981Y0203563D01*
X0025057Y0203562D01*
X0025134Y0203557D01*
X0025210Y0203548D01*
X0025286Y0203535D01*
X0025360Y0203518D01*
X0025434Y0203498D01*
X0025507Y0203473D01*
X0025578Y0203445D01*
X0025648Y0203413D01*
X0025716Y0203378D01*
X0025782Y0203339D01*
X0025846Y0203297D01*
X0025907Y0203251D01*
X0025967Y0203202D01*
X0026023Y0203151D01*
X0026077Y0203096D01*
X0026128Y0203039D01*
X0026176Y0202979D01*
X0026221Y0202917D01*
X0026262Y0202852D01*
X0026300Y0202786D01*
X0026335Y0202718D01*
X0026365Y0202647D01*
X0026393Y0202576D01*
X0026416Y0202503D01*
X0026436Y0202429D01*
X0026452Y0202354D01*
X0026464Y0202278D01*
X0026472Y0202202D01*
X0026476Y0202125D01*
X0026476Y0202049D01*
X0026472Y0201972D01*
X0026464Y0201896D01*
X0026452Y0201820D01*
X0026436Y0201745D01*
X0026416Y0201671D01*
X0026393Y0201598D01*
X0026365Y0201527D01*
X0026335Y0201456D01*
X0026300Y0201388D01*
X0026262Y0201322D01*
X0026221Y0201257D01*
X0026176Y0201195D01*
X0026128Y0201135D01*
X0026077Y0201078D01*
X0026023Y0201023D01*
X0025967Y0200972D01*
X0025907Y0200923D01*
X0025846Y0200877D01*
X0025782Y0200835D01*
X0025716Y0200796D01*
X0025648Y0200761D01*
X0025578Y0200729D01*
X0025507Y0200701D01*
X0025434Y0200676D01*
X0025360Y0200656D01*
X0025286Y0200639D01*
X0025210Y0200626D01*
X0025134Y0200617D01*
X0025057Y0200612D01*
X0024981Y0200611D01*
X0024904Y0200614D01*
X0024828Y0200621D01*
X0024752Y0200632D01*
X0024677Y0200647D01*
X0024603Y0200666D01*
X0024529Y0200688D01*
X0024457Y0200714D01*
X0024387Y0200744D01*
X0024318Y0200778D01*
X0024251Y0200815D01*
X0024186Y0200856D01*
X0024123Y0200900D01*
X0024063Y0200947D01*
X0024005Y0200997D01*
X0023950Y0201050D01*
X0023897Y0201106D01*
X0023848Y0201165D01*
X0023801Y0201226D01*
X0023758Y0201289D01*
X0023719Y0201355D01*
X0023682Y0201422D01*
X0023650Y0201491D01*
X0023620Y0201562D01*
X0023595Y0201635D01*
X0023573Y0201708D01*
X0023556Y0201783D01*
X0023542Y0201858D01*
X0023532Y0201934D01*
X0023526Y0202010D01*
X0023524Y0202087D01*
X0023526Y0202164D01*
X0023532Y0202240D01*
X0023542Y0202316D01*
X0023556Y0202391D01*
X0023573Y0202466D01*
X0023595Y0202539D01*
X0023620Y0202612D01*
X0023650Y0202683D01*
X0023682Y0202752D01*
X0023719Y0202819D01*
X0023758Y0202885D01*
X0023801Y0202948D01*
X0023848Y0203009D01*
X0023897Y0203068D01*
X0023950Y0203124D01*
X0024005Y0203177D01*
X0024063Y0203227D01*
X0024123Y0203274D01*
X0024186Y0203318D01*
X0024251Y0203359D01*
X0024318Y0203396D01*
X0024387Y0203430D01*
X0024457Y0203460D01*
X0024529Y0203486D01*
X0024603Y0203508D01*
X0024677Y0203527D01*
X0024752Y0203542D01*
X0024828Y0203553D01*
X0024904Y0203560D01*
X0024981Y0203563D01*
X0025057Y0203562D01*
X0025134Y0203557D01*
X0025210Y0203548D01*
X0025286Y0203535D01*
X0025360Y0203518D01*
X0025434Y0203498D01*
X0025507Y0203473D01*
X0025578Y0203445D01*
X0025648Y0203413D01*
X0025716Y0203378D01*
X0025782Y0203339D01*
X0025846Y0203297D01*
X0025907Y0203251D01*
X0025967Y0203202D01*
X0026023Y0203151D01*
X0026077Y0203096D01*
X0026128Y0203039D01*
X0026176Y0202979D01*
X0026221Y0202917D01*
X0026262Y0202852D01*
X0026300Y0202786D01*
X0026335Y0202718D01*
X0026365Y0202647D01*
X0026393Y0202576D01*
X0026416Y0202503D01*
X0026436Y0202429D01*
X0026452Y0202354D01*
X0026464Y0202278D01*
X0026472Y0202202D01*
X0026476Y0202125D01*
X0026476Y0202049D01*
X0026472Y0201972D01*
X0026464Y0201896D01*
X0026452Y0201820D01*
X0026436Y0201745D01*
X0026416Y0201671D01*
X0026393Y0201598D01*
X0026365Y0201527D01*
X0026335Y0201456D01*
X0026300Y0201388D01*
X0026262Y0201322D01*
X0026221Y0201257D01*
X0026176Y0201195D01*
X0026128Y0201135D01*
X0026077Y0201078D01*
X0026023Y0201023D01*
X0025967Y0200972D01*
X0025907Y0200923D01*
X0025846Y0200877D01*
X0025782Y0200835D01*
X0025716Y0200796D01*
X0025648Y0200761D01*
X0025578Y0200729D01*
X0025507Y0200701D01*
X0025434Y0200676D01*
X0025360Y0200656D01*
X0025286Y0200639D01*
X0025210Y0200626D01*
X0025134Y0200617D01*
X0025057Y0200612D01*
X0024981Y0200611D01*
X0024904Y0200614D01*
X0024828Y0200621D01*
X0024752Y0200632D01*
X0024677Y0200647D01*
X0024603Y0200666D01*
X0024529Y0200688D01*
X0024457Y0200714D01*
X0024387Y0200744D01*
X0024318Y0200778D01*
X0024251Y0200815D01*
X0024186Y0200856D01*
X0024123Y0200900D01*
X0024063Y0200947D01*
X0024005Y0200997D01*
X0023950Y0201050D01*
X0023897Y0201106D01*
X0023848Y0201165D01*
X0023801Y0201226D01*
X0023758Y0201289D01*
X0023719Y0201355D01*
X0023682Y0201422D01*
X0023650Y0201491D01*
X0023620Y0201562D01*
X0023595Y0201635D01*
X0023573Y0201708D01*
X0023556Y0201783D01*
X0023542Y0201858D01*
X0023532Y0201934D01*
X0023526Y0202010D01*
X0023524Y0202087D01*
X0023526Y0202164D01*
X0023532Y0202240D01*
X0023542Y0202316D01*
X0023556Y0202391D01*
X0023573Y0202466D01*
X0023595Y0202539D01*
X0023620Y0202612D01*
X0023650Y0202683D01*
X0023682Y0202752D01*
X0023719Y0202819D01*
X0023758Y0202885D01*
X0023801Y0202948D01*
X0023848Y0203009D01*
X0023897Y0203068D01*
X0023950Y0203124D01*
X0024005Y0203177D01*
X0024063Y0203227D01*
X0024123Y0203274D01*
X0024186Y0203318D01*
X0024251Y0203359D01*
X0024318Y0203396D01*
X0024387Y0203430D01*
X0024457Y0203460D01*
X0024529Y0203486D01*
X0024603Y0203508D01*
X0024677Y0203527D01*
X0024752Y0203542D01*
X0024828Y0203553D01*
X0024904Y0203560D01*
X0024981Y0203563D01*
X0025057Y0203562D01*
X0025134Y0203557D01*
X0025210Y0203548D01*
X0025286Y0203535D01*
X0025360Y0203518D01*
X0025434Y0203498D01*
X0025507Y0203473D01*
X0025578Y0203445D01*
X0025648Y0203413D01*
X0025716Y0203378D01*
X0025782Y0203339D01*
X0025846Y0203297D01*
X0025907Y0203251D01*
X0025967Y0203202D01*
X0026023Y0203151D01*
X0026077Y0203096D01*
X0026128Y0203039D01*
X0026176Y0202979D01*
X0026221Y0202917D01*
X0026262Y0202852D01*
X0026300Y0202786D01*
X0026335Y0202718D01*
X0026365Y0202647D01*
X0026393Y0202576D01*
X0026416Y0202503D01*
X0026436Y0202429D01*
X0026452Y0202354D01*
X0026464Y0202278D01*
X0026472Y0202202D01*
X0026476Y0202125D01*
X0026476Y0202049D01*
X0026472Y0201972D01*
X0026464Y0201896D01*
X0026452Y0201820D01*
X0026436Y0201745D01*
X0026416Y0201671D01*
X0026393Y0201598D01*
X0026365Y0201527D01*
X0026335Y0201456D01*
X0026300Y0201388D01*
X0026262Y0201322D01*
X0026221Y0201257D01*
X0026176Y0201195D01*
X0026128Y0201135D01*
X0026077Y0201078D01*
X0026023Y0201023D01*
X0025967Y0200972D01*
X0025907Y0200923D01*
X0025846Y0200877D01*
X0025782Y0200835D01*
X0025716Y0200796D01*
X0025648Y0200761D01*
X0025578Y0200729D01*
X0025507Y0200701D01*
X0025434Y0200676D01*
X0025360Y0200656D01*
X0025286Y0200639D01*
X0025210Y0200626D01*
X0025134Y0200617D01*
X0025057Y0200612D01*
X0024981Y0200611D01*
X0024904Y0200614D01*
X0024828Y0200621D01*
X0024752Y0200632D01*
X0024677Y0200647D01*
X0024603Y0200666D01*
X0024529Y0200688D01*
X0024457Y0200714D01*
X0024387Y0200744D01*
X0024318Y0200778D01*
X0024251Y0200815D01*
X0024186Y0200856D01*
X0024123Y0200900D01*
X0024063Y0200947D01*
X0024005Y0200997D01*
X0023950Y0201050D01*
X0023897Y0201106D01*
X0023848Y0201165D01*
X0023801Y0201226D01*
X0023758Y0201289D01*
X0023719Y0201355D01*
X0023682Y0201422D01*
X0023650Y0201491D01*
X0023620Y0201562D01*
X0023595Y0201635D01*
X0023573Y0201708D01*
X0023556Y0201783D01*
X0023542Y0201858D01*
X0023532Y0201934D01*
X0023526Y0202010D01*
X0023524Y0202087D01*
X0023526Y0202164D01*
X0023532Y0202240D01*
X0023542Y0202316D01*
X0023556Y0202391D01*
X0023573Y0202466D01*
X0023595Y0202539D01*
X0023620Y0202612D01*
X0023650Y0202683D01*
X0023682Y0202752D01*
X0023719Y0202819D01*
X0023758Y0202885D01*
X0023801Y0202948D01*
X0023848Y0203009D01*
X0023897Y0203068D01*
X0023950Y0203124D01*
X0024005Y0203177D01*
X0024063Y0203227D01*
X0024123Y0203274D01*
X0024186Y0203318D01*
X0024251Y0203359D01*
X0024318Y0203396D01*
X0024387Y0203430D01*
X0024457Y0203460D01*
X0024529Y0203486D01*
X0024603Y0203508D01*
X0024677Y0203527D01*
X0024752Y0203542D01*
X0024828Y0203553D01*
X0024904Y0203560D01*
X0024981Y0203563D01*
X0025057Y0203562D01*
X0025134Y0203557D01*
X0025210Y0203548D01*
X0025286Y0203535D01*
X0025360Y0203518D01*
X0025434Y0203498D01*
X0025507Y0203473D01*
X0025578Y0203445D01*
X0025648Y0203413D01*
X0025716Y0203378D01*
X0025782Y0203339D01*
X0025846Y0203297D01*
X0025907Y0203251D01*
X0025967Y0203202D01*
X0026023Y0203151D01*
X0026077Y0203096D01*
X0026128Y0203039D01*
X0026176Y0202979D01*
X0026221Y0202917D01*
X0026262Y0202852D01*
X0026300Y0202786D01*
X0026335Y0202718D01*
X0026365Y0202647D01*
X0026393Y0202576D01*
X0026416Y0202503D01*
X0026436Y0202429D01*
X0026452Y0202354D01*
X0026464Y0202278D01*
X0026472Y0202202D01*
X0026476Y0202125D01*
X0026476Y0202049D01*
X0026472Y0201972D01*
X0026464Y0201896D01*
X0026452Y0201820D01*
X0026436Y0201745D01*
X0026416Y0201671D01*
X0026393Y0201598D01*
X0026365Y0201527D01*
X0026335Y0201456D01*
X0026300Y0201388D01*
X0026262Y0201322D01*
X0026221Y0201257D01*
X0026176Y0201195D01*
X0026128Y0201135D01*
X0026077Y0201078D01*
X0026023Y0201023D01*
X0025967Y0200972D01*
X0025907Y0200923D01*
X0025846Y0200877D01*
X0025782Y0200835D01*
X0025716Y0200796D01*
X0025648Y0200761D01*
X0025578Y0200729D01*
X0025507Y0200701D01*
X0025434Y0200676D01*
X0025360Y0200656D01*
X0025286Y0200639D01*
X0025210Y0200626D01*
X0025134Y0200617D01*
X0025057Y0200612D01*
X0024981Y0200611D01*
X0024904Y0200614D01*
X0024828Y0200621D01*
X0024752Y0200632D01*
X0024677Y0200647D01*
X0024603Y0200666D01*
X0024529Y0200688D01*
X0024457Y0200714D01*
X0024387Y0200744D01*
X0024318Y0200778D01*
X0024251Y0200815D01*
X0024186Y0200856D01*
X0024123Y0200900D01*
X0024063Y0200947D01*
X0024005Y0200997D01*
X0023950Y0201050D01*
X0023897Y0201106D01*
X0023848Y0201165D01*
X0023801Y0201226D01*
X0023758Y0201289D01*
X0023719Y0201355D01*
X0023682Y0201422D01*
X0023650Y0201491D01*
X0023620Y0201562D01*
X0023595Y0201635D01*
X0023573Y0201708D01*
X0023556Y0201783D01*
X0023542Y0201858D01*
X0023532Y0201934D01*
X0023526Y0202010D01*
X0023524Y0202087D01*
X0023526Y0202164D01*
X0023532Y0202240D01*
X0023542Y0202316D01*
X0023556Y0202391D01*
X0023573Y0202466D01*
X0023595Y0202539D01*
X0023620Y0202612D01*
X0023650Y0202683D01*
X0023682Y0202752D01*
X0023719Y0202819D01*
X0023758Y0202885D01*
X0023801Y0202948D01*
X0023848Y0203009D01*
X0023897Y0203068D01*
X0023950Y0203124D01*
X0024005Y0203177D01*
X0024063Y0203227D01*
X0024123Y0203274D01*
X0024186Y0203318D01*
X0024251Y0203359D01*
X0024318Y0203396D01*
X0024387Y0203430D01*
X0024457Y0203460D01*
X0024529Y0203486D01*
X0024603Y0203508D01*
X0024677Y0203527D01*
X0024752Y0203542D01*
X0024828Y0203553D01*
X0024904Y0203560D01*
X0024981Y0203563D01*
X0025057Y0203562D01*
X0025134Y0203557D01*
X0025210Y0203548D01*
X0025286Y0203535D01*
X0025360Y0203518D01*
X0025434Y0203498D01*
X0025507Y0203473D01*
X0025578Y0203445D01*
X0025648Y0203413D01*
X0025716Y0203378D01*
X0025782Y0203339D01*
X0025846Y0203297D01*
X0025907Y0203251D01*
X0025967Y0203202D01*
X0026023Y0203151D01*
X0026077Y0203096D01*
X0026128Y0203039D01*
X0026176Y0202979D01*
X0026221Y0202917D01*
X0026262Y0202852D01*
X0026300Y0202786D01*
X0026335Y0202718D01*
X0026365Y0202647D01*
X0026393Y0202576D01*
X0026416Y0202503D01*
X0026436Y0202429D01*
X0026452Y0202354D01*
X0026464Y0202278D01*
X0026472Y0202202D01*
X0026476Y0202125D01*
X0026476Y0202049D01*
X0026472Y0201972D01*
X0026464Y0201896D01*
X0026452Y0201820D01*
X0026436Y0201745D01*
X0026416Y0201671D01*
X0026393Y0201598D01*
X0026365Y0201527D01*
X0026335Y0201456D01*
X0026300Y0201388D01*
X0026262Y0201322D01*
X0026221Y0201257D01*
X0026176Y0201195D01*
X0026128Y0201135D01*
X0026077Y0201078D01*
X0026023Y0201023D01*
X0025967Y0200972D01*
X0025907Y0200923D01*
X0025846Y0200877D01*
X0025782Y0200835D01*
X0025716Y0200796D01*
X0025648Y0200761D01*
X0025578Y0200729D01*
X0025507Y0200701D01*
X0025434Y0200676D01*
X0025360Y0200656D01*
X0025286Y0200639D01*
X0025210Y0200626D01*
X0025134Y0200617D01*
X0025057Y0200612D01*
X0024981Y0200611D01*
X0024904Y0200614D01*
X0024828Y0200621D01*
X0024752Y0200632D01*
X0024677Y0200647D01*
X0024603Y0200666D01*
X0024529Y0200688D01*
X0024457Y0200714D01*
X0024387Y0200744D01*
X0024318Y0200778D01*
X0024251Y0200815D01*
X0024186Y0200856D01*
X0024123Y0200900D01*
X0024063Y0200947D01*
X0024005Y0200997D01*
X0023950Y0201050D01*
X0023897Y0201106D01*
X0023848Y0201165D01*
X0023801Y0201226D01*
X0023758Y0201289D01*
X0023719Y0201355D01*
X0023682Y0201422D01*
X0023650Y0201491D01*
X0023620Y0201562D01*
X0023595Y0201635D01*
X0023573Y0201708D01*
X0023556Y0201783D01*
X0023542Y0201858D01*
X0023532Y0201934D01*
X0023526Y0202010D01*
X0023524Y0202087D01*
X0023526Y0202164D01*
X0023532Y0202240D01*
X0023542Y0202316D01*
X0023556Y0202391D01*
X0023573Y0202466D01*
X0023595Y0202539D01*
X0023620Y0202612D01*
X0023650Y0202683D01*
X0023682Y0202752D01*
X0023719Y0202819D01*
X0023758Y0202885D01*
X0023801Y0202948D01*
X0023848Y0203009D01*
X0023897Y0203068D01*
X0023950Y0203124D01*
X0024005Y0203177D01*
X0024063Y0203227D01*
X0024123Y0203274D01*
X0024186Y0203318D01*
X0024251Y0203359D01*
X0024318Y0203396D01*
X0024387Y0203430D01*
X0024457Y0203460D01*
X0024529Y0203486D01*
X0024603Y0203508D01*
X0024677Y0203527D01*
X0024752Y0203542D01*
X0024828Y0203553D01*
X0024904Y0203560D01*
X0024981Y0203563D01*
X0025057Y0203562D01*
X0025134Y0203557D01*
X0025210Y0203548D01*
X0025286Y0203535D01*
X0025360Y0203518D01*
X0025434Y0203498D01*
X0025507Y0203473D01*
X0025578Y0203445D01*
X0025648Y0203413D01*
X0025716Y0203378D01*
X0025782Y0203339D01*
X0025846Y0203297D01*
X0025907Y0203251D01*
X0025967Y0203202D01*
X0026023Y0203151D01*
X0026077Y0203096D01*
X0026128Y0203039D01*
X0026176Y0202979D01*
X0026221Y0202917D01*
X0026262Y0202852D01*
X0026300Y0202786D01*
X0026335Y0202718D01*
X0026365Y0202647D01*
X0026393Y0202576D01*
X0026416Y0202503D01*
X0026436Y0202429D01*
X0026452Y0202354D01*
X0026464Y0202278D01*
X0026472Y0202202D01*
X0026476Y0202125D01*
X0026476Y0202049D01*
X0026472Y0201972D01*
X0026464Y0201896D01*
X0026452Y0201820D01*
X0026436Y0201745D01*
X0026416Y0201671D01*
X0026393Y0201598D01*
X0026365Y0201527D01*
X0026335Y0201456D01*
X0026300Y0201388D01*
X0026262Y0201322D01*
X0026221Y0201257D01*
X0026176Y0201195D01*
X0026128Y0201135D01*
X0026077Y0201078D01*
X0026023Y0201023D01*
X0025967Y0200972D01*
X0025907Y0200923D01*
X0025846Y0200877D01*
X0025782Y0200835D01*
X0025716Y0200796D01*
X0025648Y0200761D01*
X0025578Y0200729D01*
X0025507Y0200701D01*
X0025434Y0200676D01*
X0025360Y0200656D01*
X0025286Y0200639D01*
X0025210Y0200626D01*
X0025134Y0200617D01*
X0025057Y0200612D01*
X0024981Y0200611D01*
X0024904Y0200614D01*
X0024828Y0200621D01*
X0024752Y0200632D01*
X0024677Y0200647D01*
X0024603Y0200666D01*
X0024529Y0200688D01*
X0024457Y0200714D01*
X0024387Y0200744D01*
X0024318Y0200778D01*
X0024251Y0200815D01*
X0024186Y0200856D01*
X0024123Y0200900D01*
X0024063Y0200947D01*
X0024005Y0200997D01*
X0023950Y0201050D01*
X0023897Y0201106D01*
X0023848Y0201165D01*
X0023801Y0201226D01*
X0023758Y0201289D01*
X0023719Y0201355D01*
X0023682Y0201422D01*
X0023650Y0201491D01*
X0023620Y0201562D01*
X0023595Y0201635D01*
X0023573Y0201708D01*
X0023556Y0201783D01*
X0023542Y0201858D01*
X0023532Y0201934D01*
X0023526Y0202010D01*
X0023524Y0202087D01*
X0023526Y0202164D01*
X0023532Y0202240D01*
X0023542Y0202316D01*
X0023556Y0202391D01*
X0023573Y0202466D01*
X0023595Y0202539D01*
X0023620Y0202612D01*
X0023650Y0202683D01*
X0023682Y0202752D01*
X0023719Y0202819D01*
X0023758Y0202885D01*
X0023801Y0202948D01*
X0023848Y0203009D01*
X0023897Y0203068D01*
X0023950Y0203124D01*
X0024005Y0203177D01*
X0024063Y0203227D01*
X0024123Y0203274D01*
X0024186Y0203318D01*
X0024251Y0203359D01*
X0024318Y0203396D01*
X0024387Y0203430D01*
X0024457Y0203460D01*
X0024529Y0203486D01*
X0024603Y0203508D01*
X0024677Y0203527D01*
X0024752Y0203542D01*
X0024828Y0203553D01*
X0024904Y0203560D01*
X0024981Y0203563D01*
X0025057Y0203562D01*
X0025134Y0203557D01*
X0025210Y0203548D01*
X0025286Y0203535D01*
X0025360Y0203518D01*
X0025434Y0203498D01*
X0025507Y0203473D01*
X0025578Y0203445D01*
X0025648Y0203413D01*
X0025716Y0203378D01*
X0025782Y0203339D01*
X0025846Y0203297D01*
X0025907Y0203251D01*
X0025967Y0203202D01*
X0026023Y0203151D01*
X0026077Y0203096D01*
X0026128Y0203039D01*
X0026176Y0202979D01*
X0026221Y0202917D01*
X0026262Y0202852D01*
X0026300Y0202786D01*
X0026335Y0202718D01*
X0026365Y0202647D01*
X0026393Y0202576D01*
X0026416Y0202503D01*
X0026436Y0202429D01*
X0026452Y0202354D01*
X0026464Y0202278D01*
X0026472Y0202202D01*
X0026476Y0202125D01*
X0026476Y0202049D01*
X0026472Y0201972D01*
X0026464Y0201896D01*
X0026452Y0201820D01*
X0026436Y0201745D01*
X0026416Y0201671D01*
X0026393Y0201598D01*
X0026365Y0201527D01*
X0026335Y0201456D01*
X0026300Y0201388D01*
X0026262Y0201322D01*
X0026221Y0201257D01*
X0026176Y0201195D01*
X0026128Y0201135D01*
X0026077Y0201078D01*
X0026023Y0201023D01*
X0025967Y0200972D01*
X0025907Y0200923D01*
X0025846Y0200877D01*
X0025782Y0200835D01*
X0025716Y0200796D01*
X0025648Y0200761D01*
X0025578Y0200729D01*
X0025507Y0200701D01*
X0025434Y0200676D01*
X0025360Y0200656D01*
X0025286Y0200639D01*
X0025210Y0200626D01*
X0025134Y0200617D01*
X0025057Y0200612D01*
X0024981Y0200611D01*
X0024904Y0200614D01*
X0024828Y0200621D01*
X0024752Y0200632D01*
X0024677Y0200647D01*
X0024603Y0200666D01*
X0024529Y0200688D01*
X0024457Y0200714D01*
X0024387Y0200744D01*
X0024318Y0200778D01*
X0024251Y0200815D01*
X0024186Y0200856D01*
X0024123Y0200900D01*
X0024063Y0200947D01*
X0024005Y0200997D01*
X0023950Y0201050D01*
X0023897Y0201106D01*
X0023848Y0201165D01*
X0023801Y0201226D01*
X0023758Y0201289D01*
X0023719Y0201355D01*
X0023682Y0201422D01*
X0023650Y0201491D01*
X0023620Y0201562D01*
X0023595Y0201635D01*
X0023573Y0201708D01*
X0023556Y0201783D01*
X0023542Y0201858D01*
X0023532Y0201934D01*
X0023526Y0202010D01*
X0023524Y0202087D01*
X0023526Y0202164D01*
X0023532Y0202240D01*
X0023542Y0202316D01*
X0023556Y0202391D01*
X0023573Y0202466D01*
X0023595Y0202539D01*
X0023620Y0202612D01*
X0023650Y0202683D01*
X0023682Y0202752D01*
X0023719Y0202819D01*
X0023758Y0202885D01*
X0023801Y0202948D01*
X0023848Y0203009D01*
X0023897Y0203068D01*
X0023950Y0203124D01*
X0024005Y0203177D01*
X0024063Y0203227D01*
X0024123Y0203274D01*
X0024186Y0203318D01*
X0024251Y0203359D01*
X0024318Y0203396D01*
X0024387Y0203430D01*
X0024457Y0203460D01*
X0024529Y0203486D01*
X0024603Y0203508D01*
X0024677Y0203527D01*
X0024752Y0203542D01*
X0024828Y0203553D01*
X0024904Y0203560D01*
X0024981Y0203563D01*
X0025057Y0203562D01*
X0025134Y0203557D01*
X0025210Y0203548D01*
X0025286Y0203535D01*
X0025360Y0203518D01*
X0025434Y0203498D01*
X0025507Y0203473D01*
X0025578Y0203445D01*
X0025648Y0203413D01*
X0025716Y0203378D01*
X0025782Y0203339D01*
X0025846Y0203297D01*
X0025907Y0203251D01*
X0025967Y0203202D01*
X0026023Y0203151D01*
X0026077Y0203096D01*
X0026128Y0203039D01*
X0026176Y0202979D01*
X0026221Y0202917D01*
X0026262Y0202852D01*
X0026300Y0202786D01*
X0026335Y0202718D01*
X0026365Y0202647D01*
X0026393Y0202576D01*
X0026416Y0202503D01*
X0026436Y0202429D01*
X0026452Y0202354D01*
X0026464Y0202278D01*
X0026472Y0202202D01*
X0026476Y0202125D01*
X0026476Y0202049D01*
X0026472Y0201972D01*
X0026464Y0201896D01*
X0026452Y0201820D01*
X0026436Y0201745D01*
X0026416Y0201671D01*
X0026393Y0201598D01*
X0026365Y0201527D01*
X0026335Y0201456D01*
X0026300Y0201388D01*
X0026262Y0201322D01*
X0026221Y0201257D01*
X0026176Y0201195D01*
X0026128Y0201135D01*
X0026077Y0201078D01*
X0026023Y0201023D01*
X0025967Y0200972D01*
X0025907Y0200923D01*
X0025846Y0200877D01*
X0025782Y0200835D01*
X0025716Y0200796D01*
X0025648Y0200761D01*
X0025578Y0200729D01*
X0025507Y0200701D01*
X0025434Y0200676D01*
X0025360Y0200656D01*
X0025286Y0200639D01*
X0025210Y0200626D01*
X0025134Y0200617D01*
X0025057Y0200612D01*
X0024981Y0200611D01*
X0024904Y0200614D01*
X0024828Y0200621D01*
X0024752Y0200632D01*
X0024677Y0200647D01*
X0024603Y0200666D01*
X0024529Y0200688D01*
X0024457Y0200714D01*
X0024387Y0200744D01*
X0024318Y0200778D01*
X0024251Y0200815D01*
X0024186Y0200856D01*
X0024123Y0200900D01*
X0024063Y0200947D01*
X0024005Y0200997D01*
X0023950Y0201050D01*
X0023897Y0201106D01*
X0023848Y0201165D01*
X0023801Y0201226D01*
X0023758Y0201289D01*
X0023719Y0201355D01*
X0023682Y0201422D01*
X0023650Y0201491D01*
X0023620Y0201562D01*
X0023595Y0201635D01*
X0023573Y0201708D01*
X0023556Y0201783D01*
X0023542Y0201858D01*
X0023532Y0201934D01*
X0023526Y0202010D01*
X0023524Y0202087D01*
D11*
X0000000Y0205000D02*
X0000000Y0010000D01*
X0000003Y0009758D01*
X0000012Y0009517D01*
X0000026Y0009276D01*
X0000047Y0009035D01*
X0000073Y0008795D01*
X0000105Y0008555D01*
X0000143Y0008316D01*
X0000186Y0008079D01*
X0000236Y0007842D01*
X0000291Y0007607D01*
X0000351Y0007373D01*
X0000418Y0007141D01*
X0000489Y0006910D01*
X0000567Y0006681D01*
X0000650Y0006454D01*
X0000738Y0006229D01*
X0000832Y0006006D01*
X0000931Y0005786D01*
X0001036Y0005568D01*
X0001145Y0005353D01*
X0001260Y0005140D01*
X0001380Y0004930D01*
X0001505Y0004724D01*
X0001635Y0004520D01*
X0001770Y0004319D01*
X0001910Y0004122D01*
X0002054Y0003928D01*
X0002203Y0003738D01*
X0002357Y0003552D01*
X0002515Y0003369D01*
X0002677Y0003190D01*
X0002844Y0003015D01*
X0003015Y0002844D01*
X0003190Y0002677D01*
X0003369Y0002515D01*
X0003552Y0002357D01*
X0003738Y0002203D01*
X0003928Y0002054D01*
X0004122Y0001910D01*
X0004319Y0001770D01*
X0004520Y0001635D01*
X0004724Y0001505D01*
X0004930Y0001380D01*
X0005140Y0001260D01*
X0005353Y0001145D01*
X0005568Y0001036D01*
X0005786Y0000931D01*
X0006006Y0000832D01*
X0006229Y0000738D01*
X0006454Y0000650D01*
X0006681Y0000567D01*
X0006910Y0000489D01*
X0007141Y0000418D01*
X0007373Y0000351D01*
X0007607Y0000291D01*
X0007842Y0000236D01*
X0008079Y0000186D01*
X0008316Y0000143D01*
X0008555Y0000105D01*
X0008795Y0000073D01*
X0009035Y0000047D01*
X0009276Y0000026D01*
X0009517Y0000012D01*
X0009758Y0000003D01*
X0010000Y0000000D01*
X0115000Y0000000D01*
X0115242Y0000003D01*
X0115483Y0000012D01*
X0115724Y0000026D01*
X0115965Y0000047D01*
X0116205Y0000073D01*
X0116445Y0000105D01*
X0116684Y0000143D01*
X0116921Y0000186D01*
X0117158Y0000236D01*
X0117393Y0000291D01*
X0117627Y0000351D01*
X0117859Y0000418D01*
X0118090Y0000489D01*
X0118319Y0000567D01*
X0118546Y0000650D01*
X0118771Y0000738D01*
X0118994Y0000832D01*
X0119214Y0000931D01*
X0119432Y0001036D01*
X0119647Y0001145D01*
X0119860Y0001260D01*
X0120070Y0001380D01*
X0120276Y0001505D01*
X0120480Y0001635D01*
X0120681Y0001770D01*
X0120878Y0001910D01*
X0121072Y0002054D01*
X0121262Y0002203D01*
X0121448Y0002357D01*
X0121631Y0002515D01*
X0121810Y0002677D01*
X0121985Y0002844D01*
X0122156Y0003015D01*
X0122323Y0003190D01*
X0122485Y0003369D01*
X0122643Y0003552D01*
X0122797Y0003738D01*
X0122946Y0003928D01*
X0123090Y0004122D01*
X0123230Y0004319D01*
X0123365Y0004520D01*
X0123495Y0004724D01*
X0123620Y0004930D01*
X0123740Y0005140D01*
X0123855Y0005353D01*
X0123964Y0005568D01*
X0124069Y0005786D01*
X0124168Y0006006D01*
X0124262Y0006229D01*
X0124350Y0006454D01*
X0124433Y0006681D01*
X0124511Y0006910D01*
X0124582Y0007141D01*
X0124649Y0007373D01*
X0124709Y0007607D01*
X0124764Y0007842D01*
X0124814Y0008079D01*
X0124857Y0008316D01*
X0124895Y0008555D01*
X0124927Y0008795D01*
X0124953Y0009035D01*
X0124974Y0009276D01*
X0124988Y0009517D01*
X0124997Y0009758D01*
X0125000Y0010000D01*
X0125000Y0187500D01*
X0124860Y0187502D01*
X0124720Y0187508D01*
X0124580Y0187518D01*
X0124440Y0187531D01*
X0124301Y0187549D01*
X0124162Y0187571D01*
X0124025Y0187596D01*
X0123887Y0187625D01*
X0123751Y0187658D01*
X0123616Y0187695D01*
X0123482Y0187736D01*
X0123349Y0187781D01*
X0123217Y0187829D01*
X0123087Y0187881D01*
X0122958Y0187936D01*
X0122831Y0187995D01*
X0122705Y0188058D01*
X0122581Y0188124D01*
X0122460Y0188193D01*
X0122340Y0188266D01*
X0122222Y0188343D01*
X0122107Y0188422D01*
X0121993Y0188505D01*
X0121883Y0188591D01*
X0121774Y0188680D01*
X0121668Y0188772D01*
X0121565Y0188867D01*
X0121464Y0188964D01*
X0121367Y0189065D01*
X0121272Y0189168D01*
X0121180Y0189274D01*
X0121091Y0189383D01*
X0121005Y0189493D01*
X0120922Y0189607D01*
X0120843Y0189722D01*
X0120766Y0189840D01*
X0120693Y0189960D01*
X0120624Y0190081D01*
X0120558Y0190205D01*
X0120495Y0190331D01*
X0120436Y0190458D01*
X0120381Y0190587D01*
X0120329Y0190717D01*
X0120281Y0190849D01*
X0120236Y0190982D01*
X0120195Y0191116D01*
X0120158Y0191251D01*
X0120125Y0191387D01*
X0120096Y0191525D01*
X0120071Y0191662D01*
X0120049Y0191801D01*
X0120031Y0191940D01*
X0120018Y0192080D01*
X0120008Y0192220D01*
X0120002Y0192360D01*
X0120000Y0192500D01*
X0120002Y0192640D01*
X0120008Y0192780D01*
X0120018Y0192920D01*
X0120031Y0193060D01*
X0120049Y0193199D01*
X0120071Y0193338D01*
X0120096Y0193475D01*
X0120125Y0193613D01*
X0120158Y0193749D01*
X0120195Y0193884D01*
X0120236Y0194018D01*
X0120281Y0194151D01*
X0120329Y0194283D01*
X0120381Y0194413D01*
X0120436Y0194542D01*
X0120495Y0194669D01*
X0120558Y0194795D01*
X0120624Y0194919D01*
X0120693Y0195040D01*
X0120766Y0195160D01*
X0120843Y0195278D01*
X0120922Y0195393D01*
X0121005Y0195507D01*
X0121091Y0195617D01*
X0121180Y0195726D01*
X0121272Y0195832D01*
X0121367Y0195935D01*
X0121464Y0196036D01*
X0121565Y0196133D01*
X0121668Y0196228D01*
X0121774Y0196320D01*
X0121883Y0196409D01*
X0121993Y0196495D01*
X0122107Y0196578D01*
X0122222Y0196657D01*
X0122340Y0196734D01*
X0122460Y0196807D01*
X0122581Y0196876D01*
X0122705Y0196942D01*
X0122831Y0197005D01*
X0122958Y0197064D01*
X0123087Y0197119D01*
X0123217Y0197171D01*
X0123349Y0197219D01*
X0123482Y0197264D01*
X0123616Y0197305D01*
X0123751Y0197342D01*
X0123887Y0197375D01*
X0124025Y0197404D01*
X0124162Y0197429D01*
X0124301Y0197451D01*
X0124440Y0197469D01*
X0124580Y0197482D01*
X0124720Y0197492D01*
X0124860Y0197498D01*
X0125000Y0197500D01*
X0125000Y0205000D01*
X0124997Y0205242D01*
X0124988Y0205483D01*
X0124974Y0205724D01*
X0124953Y0205965D01*
X0124927Y0206205D01*
X0124895Y0206445D01*
X0124857Y0206684D01*
X0124814Y0206921D01*
X0124764Y0207158D01*
X0124709Y0207393D01*
X0124649Y0207627D01*
X0124582Y0207859D01*
X0124511Y0208090D01*
X0124433Y0208319D01*
X0124350Y0208546D01*
X0124262Y0208771D01*
X0124168Y0208994D01*
X0124069Y0209214D01*
X0123964Y0209432D01*
X0123855Y0209647D01*
X0123740Y0209860D01*
X0123620Y0210070D01*
X0123495Y0210276D01*
X0123365Y0210480D01*
X0123230Y0210681D01*
X0123090Y0210878D01*
X0122946Y0211072D01*
X0122797Y0211262D01*
X0122643Y0211448D01*
X0122485Y0211631D01*
X0122323Y0211810D01*
X0122156Y0211985D01*
X0121985Y0212156D01*
X0121810Y0212323D01*
X0121631Y0212485D01*
X0121448Y0212643D01*
X0121262Y0212797D01*
X0121072Y0212946D01*
X0120878Y0213090D01*
X0120681Y0213230D01*
X0120480Y0213365D01*
X0120276Y0213495D01*
X0120070Y0213620D01*
X0119860Y0213740D01*
X0119647Y0213855D01*
X0119432Y0213964D01*
X0119214Y0214069D01*
X0118994Y0214168D01*
X0118771Y0214262D01*
X0118546Y0214350D01*
X0118319Y0214433D01*
X0118090Y0214511D01*
X0117859Y0214582D01*
X0117627Y0214649D01*
X0117393Y0214709D01*
X0117158Y0214764D01*
X0116921Y0214814D01*
X0116684Y0214857D01*
X0116445Y0214895D01*
X0116205Y0214927D01*
X0115965Y0214953D01*
X0115724Y0214974D01*
X0115483Y0214988D01*
X0115242Y0214997D01*
X0115000Y0215000D01*
X0010000Y0215000D01*
X0009758Y0214997D01*
X0009517Y0214988D01*
X0009276Y0214974D01*
X0009035Y0214953D01*
X0008795Y0214927D01*
X0008555Y0214895D01*
X0008316Y0214857D01*
X0008079Y0214814D01*
X0007842Y0214764D01*
X0007607Y0214709D01*
X0007373Y0214649D01*
X0007141Y0214582D01*
X0006910Y0214511D01*
X0006681Y0214433D01*
X0006454Y0214350D01*
X0006229Y0214262D01*
X0006006Y0214168D01*
X0005786Y0214069D01*
X0005568Y0213964D01*
X0005353Y0213855D01*
X0005140Y0213740D01*
X0004930Y0213620D01*
X0004724Y0213495D01*
X0004520Y0213365D01*
X0004319Y0213230D01*
X0004122Y0213090D01*
X0003928Y0212946D01*
X0003738Y0212797D01*
X0003552Y0212643D01*
X0003369Y0212485D01*
X0003190Y0212323D01*
X0003015Y0212156D01*
X0002844Y0211985D01*
X0002677Y0211810D01*
X0002515Y0211631D01*
X0002357Y0211448D01*
X0002203Y0211262D01*
X0002054Y0211072D01*
X0001910Y0210878D01*
X0001770Y0210681D01*
X0001635Y0210480D01*
X0001505Y0210276D01*
X0001380Y0210070D01*
X0001260Y0209860D01*
X0001145Y0209647D01*
X0001036Y0209432D01*
X0000931Y0209214D01*
X0000832Y0208994D01*
X0000738Y0208771D01*
X0000650Y0208546D01*
X0000567Y0208319D01*
X0000489Y0208090D01*
X0000418Y0207859D01*
X0000351Y0207627D01*
X0000291Y0207393D01*
X0000236Y0207158D01*
X0000186Y0206921D01*
X0000143Y0206684D01*
X0000105Y0206445D01*
X0000073Y0206205D01*
X0000047Y0205965D01*
X0000026Y0205724D01*
X0000012Y0205483D01*
X0000003Y0205242D01*
X0000000Y0205000D01*
M02*
