G75*
%MOIN*%
%OFA0B0*%
%FSLAX25Y25*%
%IPPOS*%
%LPD*%
%AMOC8*
5,1,8,0,0,1.08239X$1,22.5*
%
%ADD10C,0.03953*%
%ADD11C,0.04150*%
%ADD12C,0.00039*%
%ADD13C,0.01224*%
%ADD14C,0.07378*%
%ADD15C,0.01210*%
%ADD16C,0.08200*%
%ADD17C,0.01237*%
D10*
X0007500Y0026250D03*
X0011250Y0026250D03*
X0015000Y0026250D03*
X0043750Y0026250D03*
X0058750Y0007500D03*
X0062500Y0007500D03*
X0066250Y0007500D03*
X0087500Y0030000D03*
X0078750Y0041250D03*
X0075000Y0041250D03*
X0051250Y0062500D03*
X0046250Y0067500D03*
X0042500Y0060000D03*
X0051250Y0082500D03*
X0046250Y0087500D03*
X0046250Y0093750D03*
X0046250Y0100000D03*
X0051250Y0105000D03*
X0057500Y0105000D03*
X0063750Y0105000D03*
X0068750Y0100000D03*
X0068750Y0093750D03*
X0068750Y0087500D03*
X0063750Y0082500D03*
X0057500Y0082500D03*
X0037500Y0090000D03*
X0032500Y0090000D03*
X0023750Y0102500D03*
X0023750Y0106250D03*
X0023750Y0110000D03*
X0027500Y0115000D03*
X0018750Y0148750D03*
X0028750Y0157500D03*
X0036250Y0168750D03*
X0038750Y0166250D03*
X0041250Y0168750D03*
X0038750Y0171250D03*
X0047500Y0177500D03*
X0046250Y0157500D03*
X0067500Y0165000D03*
X0072500Y0165000D03*
X0083750Y0158750D03*
X0086250Y0156250D03*
X0088750Y0153750D03*
X0087500Y0147500D03*
X0082500Y0142500D03*
X0082500Y0138750D03*
X0078750Y0138750D03*
X0078750Y0142500D03*
X0078750Y0146250D03*
X0075000Y0128750D03*
X0071250Y0128750D03*
X0082500Y0127500D03*
X0093750Y0126250D03*
X0093750Y0122500D03*
X0097500Y0122500D03*
X0097500Y0126250D03*
X0097500Y0130000D03*
X0093750Y0130000D03*
X0082500Y0115000D03*
X0097500Y0097500D03*
X0097500Y0093750D03*
X0101250Y0093750D03*
X0101250Y0097500D03*
X0100000Y0072500D03*
X0100000Y0068750D03*
X0100000Y0065000D03*
X0100000Y0061250D03*
X0105000Y0047500D03*
X0090000Y0010000D03*
X0062500Y0115000D03*
X0022500Y0178750D03*
X0007500Y0185000D03*
X0007500Y0190000D03*
X0007500Y0195000D03*
X0018750Y0206250D03*
X0025000Y0202087D03*
X0025000Y0202087D03*
X0025000Y0212913D03*
X0025000Y0212913D03*
X0040000Y0197500D03*
X0055000Y0202087D03*
X0055000Y0202087D03*
X0061250Y0206250D03*
X0055000Y0212913D03*
X0055000Y0212913D03*
X0085000Y0182500D03*
X0090000Y0182500D03*
D11*
X0080157Y0197217D03*
X0099843Y0197217D03*
D12*
X0101994Y0195998D02*
X0107337Y0195998D01*
X0107359Y0195960D02*
X0101972Y0195960D01*
X0101950Y0195923D02*
X0107381Y0195923D01*
X0107403Y0195885D02*
X0101928Y0195885D01*
X0101906Y0195847D02*
X0107425Y0195847D01*
X0107446Y0195809D02*
X0101884Y0195809D01*
X0101862Y0195771D02*
X0107468Y0195771D01*
X0107490Y0195733D02*
X0101841Y0195733D01*
X0101819Y0195695D02*
X0107512Y0195695D01*
X0107534Y0195657D02*
X0101797Y0195657D01*
X0101775Y0195620D02*
X0107556Y0195620D01*
X0107578Y0195582D02*
X0101753Y0195582D01*
X0101731Y0195544D02*
X0107599Y0195544D01*
X0107621Y0195506D02*
X0101709Y0195506D01*
X0101698Y0195486D02*
X0102038Y0196074D01*
X0102037Y0196074D02*
X0107293Y0196074D01*
X0107633Y0195486D01*
X0107842Y0194841D01*
X0107913Y0194165D01*
X0107913Y0192000D01*
X0107842Y0191325D01*
X0107633Y0190679D01*
X0107293Y0190091D01*
X0106839Y0189586D01*
X0106289Y0189187D01*
X0105669Y0188911D01*
X0105005Y0188770D01*
X0104326Y0188770D01*
X0103662Y0188911D01*
X0103041Y0189187D01*
X0102492Y0189586D01*
X0102038Y0190091D01*
X0101698Y0190679D01*
X0101488Y0191325D01*
X0101417Y0192000D01*
X0101417Y0194165D01*
X0101488Y0194841D01*
X0101698Y0195486D01*
X0101692Y0195468D02*
X0107639Y0195468D01*
X0107651Y0195430D02*
X0101680Y0195430D01*
X0101668Y0195392D02*
X0107663Y0195392D01*
X0107675Y0195354D02*
X0101655Y0195354D01*
X0101643Y0195316D02*
X0107688Y0195316D01*
X0107700Y0195279D02*
X0101631Y0195279D01*
X0101618Y0195241D02*
X0107712Y0195241D01*
X0107725Y0195203D02*
X0101606Y0195203D01*
X0101594Y0195165D02*
X0107737Y0195165D01*
X0107749Y0195127D02*
X0101581Y0195127D01*
X0101569Y0195089D02*
X0107762Y0195089D01*
X0107774Y0195051D02*
X0101557Y0195051D01*
X0101544Y0195013D02*
X0107786Y0195013D01*
X0107799Y0194976D02*
X0101532Y0194976D01*
X0101520Y0194938D02*
X0107811Y0194938D01*
X0107823Y0194900D02*
X0101508Y0194900D01*
X0101495Y0194862D02*
X0107835Y0194862D01*
X0107844Y0194824D02*
X0101487Y0194824D01*
X0101483Y0194786D02*
X0107848Y0194786D01*
X0107852Y0194748D02*
X0101479Y0194748D01*
X0101475Y0194710D02*
X0107856Y0194710D01*
X0107860Y0194673D02*
X0101471Y0194673D01*
X0101467Y0194635D02*
X0107864Y0194635D01*
X0107868Y0194597D02*
X0101463Y0194597D01*
X0101459Y0194559D02*
X0107872Y0194559D01*
X0107876Y0194521D02*
X0101455Y0194521D01*
X0101451Y0194483D02*
X0107880Y0194483D01*
X0107884Y0194445D02*
X0101447Y0194445D01*
X0101443Y0194407D02*
X0107888Y0194407D01*
X0107892Y0194369D02*
X0101439Y0194369D01*
X0101435Y0194332D02*
X0107896Y0194332D01*
X0107900Y0194294D02*
X0101431Y0194294D01*
X0101427Y0194256D02*
X0107904Y0194256D01*
X0107908Y0194218D02*
X0101423Y0194218D01*
X0101419Y0194180D02*
X0107912Y0194180D01*
X0107913Y0194142D02*
X0101417Y0194142D01*
X0101417Y0194104D02*
X0107913Y0194104D01*
X0107913Y0194066D02*
X0101417Y0194066D01*
X0101417Y0194029D02*
X0107913Y0194029D01*
X0107913Y0193991D02*
X0101417Y0193991D01*
X0101417Y0193953D02*
X0107913Y0193953D01*
X0107913Y0193915D02*
X0101417Y0193915D01*
X0101417Y0193877D02*
X0107913Y0193877D01*
X0107913Y0193839D02*
X0101417Y0193839D01*
X0101417Y0193801D02*
X0107913Y0193801D01*
X0107913Y0193763D02*
X0101417Y0193763D01*
X0101417Y0193725D02*
X0107913Y0193725D01*
X0107913Y0193688D02*
X0101417Y0193688D01*
X0101417Y0193650D02*
X0107913Y0193650D01*
X0107913Y0193612D02*
X0101417Y0193612D01*
X0101417Y0193574D02*
X0107913Y0193574D01*
X0107913Y0193536D02*
X0101417Y0193536D01*
X0101417Y0193498D02*
X0107913Y0193498D01*
X0107913Y0193460D02*
X0101417Y0193460D01*
X0101417Y0193422D02*
X0107913Y0193422D01*
X0107913Y0193385D02*
X0101417Y0193385D01*
X0101417Y0193347D02*
X0107913Y0193347D01*
X0107913Y0193309D02*
X0101417Y0193309D01*
X0101417Y0193271D02*
X0107913Y0193271D01*
X0107913Y0193233D02*
X0101417Y0193233D01*
X0101417Y0193195D02*
X0107913Y0193195D01*
X0107913Y0193157D02*
X0101417Y0193157D01*
X0101417Y0193119D02*
X0107913Y0193119D01*
X0107913Y0193081D02*
X0101417Y0193081D01*
X0101417Y0193044D02*
X0107913Y0193044D01*
X0107913Y0193006D02*
X0101417Y0193006D01*
X0101417Y0192968D02*
X0107913Y0192968D01*
X0107913Y0192930D02*
X0101417Y0192930D01*
X0101417Y0192892D02*
X0107913Y0192892D01*
X0107913Y0192854D02*
X0101417Y0192854D01*
X0101417Y0192816D02*
X0107913Y0192816D01*
X0107913Y0192778D02*
X0101417Y0192778D01*
X0101417Y0192741D02*
X0107913Y0192741D01*
X0107913Y0192703D02*
X0101417Y0192703D01*
X0101417Y0192665D02*
X0107913Y0192665D01*
X0107913Y0192627D02*
X0101417Y0192627D01*
X0101417Y0192589D02*
X0107913Y0192589D01*
X0107913Y0192551D02*
X0101417Y0192551D01*
X0101417Y0192513D02*
X0107913Y0192513D01*
X0107913Y0192475D02*
X0101417Y0192475D01*
X0101417Y0192437D02*
X0107913Y0192437D01*
X0107913Y0192400D02*
X0101417Y0192400D01*
X0101417Y0192362D02*
X0107913Y0192362D01*
X0107913Y0192324D02*
X0101417Y0192324D01*
X0101417Y0192286D02*
X0107913Y0192286D01*
X0107913Y0192248D02*
X0101417Y0192248D01*
X0101417Y0192210D02*
X0107913Y0192210D01*
X0107913Y0192172D02*
X0101417Y0192172D01*
X0101417Y0192134D02*
X0107913Y0192134D01*
X0107913Y0192097D02*
X0101417Y0192097D01*
X0101417Y0192059D02*
X0107913Y0192059D01*
X0107913Y0192021D02*
X0101417Y0192021D01*
X0101419Y0191983D02*
X0107912Y0191983D01*
X0107908Y0191945D02*
X0101423Y0191945D01*
X0101427Y0191907D02*
X0107904Y0191907D01*
X0107900Y0191869D02*
X0101431Y0191869D01*
X0101435Y0191831D02*
X0107896Y0191831D01*
X0107892Y0191794D02*
X0101439Y0191794D01*
X0101443Y0191756D02*
X0107888Y0191756D01*
X0107884Y0191718D02*
X0101447Y0191718D01*
X0101451Y0191680D02*
X0107880Y0191680D01*
X0107876Y0191642D02*
X0101455Y0191642D01*
X0101459Y0191604D02*
X0107872Y0191604D01*
X0107868Y0191566D02*
X0101463Y0191566D01*
X0101467Y0191528D02*
X0107864Y0191528D01*
X0107860Y0191490D02*
X0101471Y0191490D01*
X0101475Y0191453D02*
X0107856Y0191453D01*
X0107852Y0191415D02*
X0101479Y0191415D01*
X0101483Y0191377D02*
X0107848Y0191377D01*
X0107844Y0191339D02*
X0101487Y0191339D01*
X0101496Y0191301D02*
X0107835Y0191301D01*
X0107822Y0191263D02*
X0101508Y0191263D01*
X0101521Y0191225D02*
X0107810Y0191225D01*
X0107798Y0191187D02*
X0101533Y0191187D01*
X0101545Y0191150D02*
X0107786Y0191150D01*
X0107773Y0191112D02*
X0101558Y0191112D01*
X0101570Y0191074D02*
X0107761Y0191074D01*
X0107749Y0191036D02*
X0101582Y0191036D01*
X0101594Y0190998D02*
X0107736Y0190998D01*
X0107724Y0190960D02*
X0101607Y0190960D01*
X0101619Y0190922D02*
X0107712Y0190922D01*
X0107699Y0190884D02*
X0101631Y0190884D01*
X0101644Y0190846D02*
X0107687Y0190846D01*
X0107675Y0190809D02*
X0101656Y0190809D01*
X0101668Y0190771D02*
X0107662Y0190771D01*
X0107650Y0190733D02*
X0101681Y0190733D01*
X0101693Y0190695D02*
X0107638Y0190695D01*
X0107620Y0190657D02*
X0101711Y0190657D01*
X0101733Y0190619D02*
X0107598Y0190619D01*
X0107576Y0190581D02*
X0101754Y0190581D01*
X0101776Y0190543D02*
X0107554Y0190543D01*
X0107532Y0190506D02*
X0101798Y0190506D01*
X0101820Y0190468D02*
X0107511Y0190468D01*
X0107489Y0190430D02*
X0101842Y0190430D01*
X0101864Y0190392D02*
X0107467Y0190392D01*
X0107445Y0190354D02*
X0101886Y0190354D01*
X0101908Y0190316D02*
X0107423Y0190316D01*
X0107401Y0190278D02*
X0101929Y0190278D01*
X0101951Y0190240D02*
X0107379Y0190240D01*
X0107358Y0190202D02*
X0101973Y0190202D01*
X0101995Y0190165D02*
X0107336Y0190165D01*
X0107314Y0190127D02*
X0102017Y0190127D01*
X0102039Y0190089D02*
X0107291Y0190089D01*
X0107257Y0190051D02*
X0102074Y0190051D01*
X0102108Y0190013D02*
X0107223Y0190013D01*
X0107189Y0189975D02*
X0102142Y0189975D01*
X0102176Y0189937D02*
X0107155Y0189937D01*
X0107121Y0189899D02*
X0102210Y0189899D01*
X0102244Y0189862D02*
X0107087Y0189862D01*
X0107052Y0189824D02*
X0102278Y0189824D01*
X0102312Y0189786D02*
X0107018Y0189786D01*
X0106984Y0189748D02*
X0102346Y0189748D01*
X0102381Y0189710D02*
X0106950Y0189710D01*
X0106916Y0189672D02*
X0102415Y0189672D01*
X0102449Y0189634D02*
X0106882Y0189634D01*
X0106848Y0189596D02*
X0102483Y0189596D01*
X0102530Y0189559D02*
X0106801Y0189559D01*
X0106748Y0189521D02*
X0102582Y0189521D01*
X0102634Y0189483D02*
X0106696Y0189483D01*
X0106644Y0189445D02*
X0102687Y0189445D01*
X0102739Y0189407D02*
X0106592Y0189407D01*
X0106540Y0189369D02*
X0102791Y0189369D01*
X0102843Y0189331D02*
X0106488Y0189331D01*
X0106436Y0189293D02*
X0102895Y0189293D01*
X0102947Y0189255D02*
X0106383Y0189255D01*
X0106331Y0189218D02*
X0102999Y0189218D01*
X0103058Y0189180D02*
X0106273Y0189180D01*
X0106188Y0189142D02*
X0103143Y0189142D01*
X0103228Y0189104D02*
X0106103Y0189104D01*
X0106017Y0189066D02*
X0103313Y0189066D01*
X0103398Y0189028D02*
X0105932Y0189028D01*
X0105847Y0188990D02*
X0103483Y0188990D01*
X0103569Y0188952D02*
X0105762Y0188952D01*
X0105677Y0188915D02*
X0103654Y0188915D01*
X0103823Y0188877D02*
X0105508Y0188877D01*
X0105330Y0188839D02*
X0104001Y0188839D01*
X0104179Y0188801D02*
X0105151Y0188801D01*
X0107315Y0196036D02*
X0102016Y0196036D01*
X0102038Y0196074D02*
X0102492Y0196579D01*
X0103041Y0196978D01*
X0103662Y0197254D01*
X0104326Y0197396D01*
X0105005Y0197396D01*
X0105669Y0197254D01*
X0106289Y0196978D01*
X0106839Y0196579D01*
X0107293Y0196074D01*
X0107259Y0196112D02*
X0102071Y0196112D01*
X0102106Y0196150D02*
X0107225Y0196150D01*
X0107191Y0196188D02*
X0102140Y0196188D01*
X0102174Y0196226D02*
X0107157Y0196226D01*
X0107123Y0196264D02*
X0102208Y0196264D01*
X0102242Y0196301D02*
X0107089Y0196301D01*
X0107055Y0196339D02*
X0102276Y0196339D01*
X0102310Y0196377D02*
X0107021Y0196377D01*
X0106986Y0196415D02*
X0102344Y0196415D01*
X0102378Y0196453D02*
X0106952Y0196453D01*
X0106918Y0196491D02*
X0102412Y0196491D01*
X0102447Y0196529D02*
X0106884Y0196529D01*
X0106850Y0196567D02*
X0102481Y0196567D01*
X0102527Y0196604D02*
X0106804Y0196604D01*
X0106752Y0196642D02*
X0102579Y0196642D01*
X0102631Y0196680D02*
X0106700Y0196680D01*
X0106647Y0196718D02*
X0102683Y0196718D01*
X0102735Y0196756D02*
X0106595Y0196756D01*
X0106543Y0196794D02*
X0102788Y0196794D01*
X0102840Y0196832D02*
X0106491Y0196832D01*
X0106439Y0196870D02*
X0102892Y0196870D01*
X0102944Y0196908D02*
X0106387Y0196908D01*
X0106335Y0196945D02*
X0102996Y0196945D01*
X0103053Y0196983D02*
X0106278Y0196983D01*
X0106193Y0197021D02*
X0103138Y0197021D01*
X0103223Y0197059D02*
X0106108Y0197059D01*
X0106023Y0197097D02*
X0103308Y0197097D01*
X0103393Y0197135D02*
X0105938Y0197135D01*
X0105853Y0197173D02*
X0103478Y0197173D01*
X0103563Y0197211D02*
X0105768Y0197211D01*
X0105682Y0197248D02*
X0103648Y0197248D01*
X0103812Y0197286D02*
X0105519Y0197286D01*
X0105341Y0197324D02*
X0103990Y0197324D01*
X0104168Y0197362D02*
X0105163Y0197362D01*
X0104978Y0204121D02*
X0104435Y0204236D01*
X0103927Y0204462D01*
X0103478Y0204789D01*
X0103106Y0205202D01*
X0102828Y0205683D01*
X0102656Y0206211D01*
X0102598Y0206764D01*
X0102598Y0209323D01*
X0102656Y0209875D01*
X0102828Y0210404D01*
X0103106Y0210885D01*
X0103478Y0211298D01*
X0103927Y0211624D01*
X0104435Y0211850D01*
X0104978Y0211966D01*
X0105534Y0211966D01*
X0106077Y0211850D01*
X0106585Y0211624D01*
X0107034Y0211298D01*
X0107406Y0210885D01*
X0107684Y0210404D01*
X0107855Y0209875D01*
X0107913Y0209323D01*
X0107913Y0206764D01*
X0107855Y0206211D01*
X0107684Y0205683D01*
X0107406Y0205202D01*
X0107034Y0204789D01*
X0106585Y0204462D01*
X0106077Y0204236D01*
X0105534Y0204121D01*
X0104978Y0204121D01*
X0104875Y0204143D02*
X0105637Y0204143D01*
X0105815Y0204181D02*
X0104696Y0204181D01*
X0104518Y0204219D02*
X0105994Y0204219D01*
X0106122Y0204256D02*
X0104389Y0204256D01*
X0104304Y0204294D02*
X0106207Y0204294D01*
X0106292Y0204332D02*
X0104219Y0204332D01*
X0104134Y0204370D02*
X0106378Y0204370D01*
X0106463Y0204408D02*
X0104049Y0204408D01*
X0103964Y0204446D02*
X0106548Y0204446D01*
X0106614Y0204484D02*
X0103898Y0204484D01*
X0103846Y0204522D02*
X0106666Y0204522D01*
X0106718Y0204560D02*
X0103793Y0204560D01*
X0103741Y0204597D02*
X0106771Y0204597D01*
X0106823Y0204635D02*
X0103689Y0204635D01*
X0103637Y0204673D02*
X0106875Y0204673D01*
X0106927Y0204711D02*
X0103585Y0204711D01*
X0103533Y0204749D02*
X0106979Y0204749D01*
X0107031Y0204787D02*
X0103481Y0204787D01*
X0103445Y0204825D02*
X0107066Y0204825D01*
X0107100Y0204863D02*
X0103411Y0204863D01*
X0103377Y0204900D02*
X0107135Y0204900D01*
X0107169Y0204938D02*
X0103343Y0204938D01*
X0103309Y0204976D02*
X0107203Y0204976D01*
X0107237Y0205014D02*
X0103275Y0205014D01*
X0103241Y0205052D02*
X0107271Y0205052D01*
X0107305Y0205090D02*
X0103207Y0205090D01*
X0103173Y0205128D02*
X0107339Y0205128D01*
X0107373Y0205166D02*
X0103138Y0205166D01*
X0103105Y0205204D02*
X0107407Y0205204D01*
X0107429Y0205241D02*
X0103083Y0205241D01*
X0103061Y0205279D02*
X0107451Y0205279D01*
X0107473Y0205317D02*
X0103039Y0205317D01*
X0103017Y0205355D02*
X0107494Y0205355D01*
X0107516Y0205393D02*
X0102996Y0205393D01*
X0102974Y0205431D02*
X0107538Y0205431D01*
X0107560Y0205469D02*
X0102952Y0205469D01*
X0102930Y0205507D02*
X0107582Y0205507D01*
X0107604Y0205544D02*
X0102908Y0205544D01*
X0102886Y0205582D02*
X0107626Y0205582D01*
X0107647Y0205620D02*
X0102864Y0205620D01*
X0102842Y0205658D02*
X0107669Y0205658D01*
X0107688Y0205696D02*
X0102824Y0205696D01*
X0102812Y0205734D02*
X0107700Y0205734D01*
X0107713Y0205772D02*
X0102799Y0205772D01*
X0102787Y0205810D02*
X0107725Y0205810D01*
X0107737Y0205848D02*
X0102775Y0205848D01*
X0102762Y0205885D02*
X0107749Y0205885D01*
X0107762Y0205923D02*
X0102750Y0205923D01*
X0102738Y0205961D02*
X0107774Y0205961D01*
X0107786Y0205999D02*
X0102725Y0205999D01*
X0102713Y0206037D02*
X0107799Y0206037D01*
X0107811Y0206075D02*
X0102701Y0206075D01*
X0102689Y0206113D02*
X0107823Y0206113D01*
X0107836Y0206151D02*
X0102676Y0206151D01*
X0102664Y0206188D02*
X0107848Y0206188D01*
X0107857Y0206226D02*
X0102655Y0206226D01*
X0102651Y0206264D02*
X0107861Y0206264D01*
X0107865Y0206302D02*
X0102647Y0206302D01*
X0102643Y0206340D02*
X0107869Y0206340D01*
X0107873Y0206378D02*
X0102639Y0206378D01*
X0102635Y0206416D02*
X0107877Y0206416D01*
X0107881Y0206454D02*
X0102631Y0206454D01*
X0102627Y0206491D02*
X0107885Y0206491D01*
X0107889Y0206529D02*
X0102623Y0206529D01*
X0102619Y0206567D02*
X0107893Y0206567D01*
X0107897Y0206605D02*
X0102615Y0206605D01*
X0102611Y0206643D02*
X0107901Y0206643D01*
X0107905Y0206681D02*
X0102607Y0206681D01*
X0102603Y0206719D02*
X0107909Y0206719D01*
X0107913Y0206757D02*
X0102599Y0206757D01*
X0102598Y0206795D02*
X0107913Y0206795D01*
X0107913Y0206832D02*
X0102598Y0206832D01*
X0102598Y0206870D02*
X0107913Y0206870D01*
X0107913Y0206908D02*
X0102598Y0206908D01*
X0102598Y0206946D02*
X0107913Y0206946D01*
X0107913Y0206984D02*
X0102598Y0206984D01*
X0102598Y0207022D02*
X0107913Y0207022D01*
X0107913Y0207060D02*
X0102598Y0207060D01*
X0102598Y0207098D02*
X0107913Y0207098D01*
X0107913Y0207135D02*
X0102598Y0207135D01*
X0102598Y0207173D02*
X0107913Y0207173D01*
X0107913Y0207211D02*
X0102598Y0207211D01*
X0102598Y0207249D02*
X0107913Y0207249D01*
X0107913Y0207287D02*
X0102598Y0207287D01*
X0102598Y0207325D02*
X0107913Y0207325D01*
X0107913Y0207363D02*
X0102598Y0207363D01*
X0102598Y0207401D02*
X0107913Y0207401D01*
X0107913Y0207439D02*
X0102598Y0207439D01*
X0102598Y0207476D02*
X0107913Y0207476D01*
X0107913Y0207514D02*
X0102598Y0207514D01*
X0102598Y0207552D02*
X0107913Y0207552D01*
X0107913Y0207590D02*
X0102598Y0207590D01*
X0102598Y0207628D02*
X0107913Y0207628D01*
X0107913Y0207666D02*
X0102598Y0207666D01*
X0102598Y0207704D02*
X0107913Y0207704D01*
X0107913Y0207742D02*
X0102598Y0207742D01*
X0102598Y0207779D02*
X0107913Y0207779D01*
X0107913Y0207817D02*
X0102598Y0207817D01*
X0102598Y0207855D02*
X0107913Y0207855D01*
X0107913Y0207893D02*
X0102598Y0207893D01*
X0102598Y0207931D02*
X0107913Y0207931D01*
X0107913Y0207969D02*
X0102598Y0207969D01*
X0102598Y0208007D02*
X0107913Y0208007D01*
X0107913Y0208045D02*
X0102598Y0208045D01*
X0102598Y0208083D02*
X0107913Y0208083D01*
X0107913Y0208120D02*
X0102598Y0208120D01*
X0102598Y0208158D02*
X0107913Y0208158D01*
X0107913Y0208196D02*
X0102598Y0208196D01*
X0102598Y0208234D02*
X0107913Y0208234D01*
X0107913Y0208272D02*
X0102598Y0208272D01*
X0102598Y0208310D02*
X0107913Y0208310D01*
X0107913Y0208348D02*
X0102598Y0208348D01*
X0102598Y0208386D02*
X0107913Y0208386D01*
X0107913Y0208423D02*
X0102598Y0208423D01*
X0102598Y0208461D02*
X0107913Y0208461D01*
X0107913Y0208499D02*
X0102598Y0208499D01*
X0102598Y0208537D02*
X0107913Y0208537D01*
X0107913Y0208575D02*
X0102598Y0208575D01*
X0102598Y0208613D02*
X0107913Y0208613D01*
X0107913Y0208651D02*
X0102598Y0208651D01*
X0102598Y0208689D02*
X0107913Y0208689D01*
X0107913Y0208727D02*
X0102598Y0208727D01*
X0102598Y0208764D02*
X0107913Y0208764D01*
X0107913Y0208802D02*
X0102598Y0208802D01*
X0102598Y0208840D02*
X0107913Y0208840D01*
X0107913Y0208878D02*
X0102598Y0208878D01*
X0102598Y0208916D02*
X0107913Y0208916D01*
X0107913Y0208954D02*
X0102598Y0208954D01*
X0102598Y0208992D02*
X0107913Y0208992D01*
X0107913Y0209030D02*
X0102598Y0209030D01*
X0102598Y0209067D02*
X0107913Y0209067D01*
X0107913Y0209105D02*
X0102598Y0209105D01*
X0102598Y0209143D02*
X0107913Y0209143D01*
X0107913Y0209181D02*
X0102598Y0209181D01*
X0102598Y0209219D02*
X0107913Y0209219D01*
X0107913Y0209257D02*
X0102598Y0209257D01*
X0102598Y0209295D02*
X0107913Y0209295D01*
X0107912Y0209333D02*
X0102599Y0209333D01*
X0102603Y0209370D02*
X0107908Y0209370D01*
X0107904Y0209408D02*
X0102607Y0209408D01*
X0102611Y0209446D02*
X0107900Y0209446D01*
X0107896Y0209484D02*
X0102615Y0209484D01*
X0102619Y0209522D02*
X0107892Y0209522D01*
X0107888Y0209560D02*
X0102623Y0209560D01*
X0102627Y0209598D02*
X0107884Y0209598D01*
X0107880Y0209636D02*
X0102631Y0209636D01*
X0102635Y0209674D02*
X0107877Y0209674D01*
X0107873Y0209711D02*
X0102639Y0209711D01*
X0102643Y0209749D02*
X0107869Y0209749D01*
X0107865Y0209787D02*
X0102647Y0209787D01*
X0102651Y0209825D02*
X0107861Y0209825D01*
X0107857Y0209863D02*
X0102655Y0209863D01*
X0102665Y0209901D02*
X0107847Y0209901D01*
X0107835Y0209939D02*
X0102677Y0209939D01*
X0102689Y0209977D02*
X0107822Y0209977D01*
X0107810Y0210014D02*
X0102702Y0210014D01*
X0102714Y0210052D02*
X0107798Y0210052D01*
X0107785Y0210090D02*
X0102726Y0210090D01*
X0102739Y0210128D02*
X0107773Y0210128D01*
X0107761Y0210166D02*
X0102751Y0210166D01*
X0102763Y0210204D02*
X0107749Y0210204D01*
X0107736Y0210242D02*
X0102776Y0210242D01*
X0102788Y0210280D02*
X0107724Y0210280D01*
X0107712Y0210318D02*
X0102800Y0210318D01*
X0102812Y0210355D02*
X0107699Y0210355D01*
X0107687Y0210393D02*
X0102825Y0210393D01*
X0102844Y0210431D02*
X0107668Y0210431D01*
X0107646Y0210469D02*
X0102866Y0210469D01*
X0102888Y0210507D02*
X0107624Y0210507D01*
X0107602Y0210545D02*
X0102910Y0210545D01*
X0102931Y0210583D02*
X0107580Y0210583D01*
X0107558Y0210621D02*
X0102953Y0210621D01*
X0102975Y0210658D02*
X0107537Y0210658D01*
X0107515Y0210696D02*
X0102997Y0210696D01*
X0103019Y0210734D02*
X0107493Y0210734D01*
X0107471Y0210772D02*
X0103041Y0210772D01*
X0103063Y0210810D02*
X0107449Y0210810D01*
X0107427Y0210848D02*
X0103085Y0210848D01*
X0103107Y0210886D02*
X0107405Y0210886D01*
X0107371Y0210924D02*
X0103141Y0210924D01*
X0103175Y0210962D02*
X0107337Y0210962D01*
X0107303Y0210999D02*
X0103209Y0210999D01*
X0103243Y0211037D02*
X0107269Y0211037D01*
X0107235Y0211075D02*
X0103277Y0211075D01*
X0103311Y0211113D02*
X0107200Y0211113D01*
X0107166Y0211151D02*
X0103346Y0211151D01*
X0103380Y0211189D02*
X0107132Y0211189D01*
X0107098Y0211227D02*
X0103414Y0211227D01*
X0103448Y0211265D02*
X0107064Y0211265D01*
X0107028Y0211302D02*
X0103484Y0211302D01*
X0103536Y0211340D02*
X0106975Y0211340D01*
X0106923Y0211378D02*
X0103588Y0211378D01*
X0103641Y0211416D02*
X0106871Y0211416D01*
X0106819Y0211454D02*
X0103693Y0211454D01*
X0103745Y0211492D02*
X0106767Y0211492D01*
X0106715Y0211530D02*
X0103797Y0211530D01*
X0103849Y0211568D02*
X0106663Y0211568D01*
X0106610Y0211605D02*
X0103901Y0211605D01*
X0103970Y0211643D02*
X0106542Y0211643D01*
X0106457Y0211681D02*
X0104055Y0211681D01*
X0104140Y0211719D02*
X0106372Y0211719D01*
X0106287Y0211757D02*
X0104225Y0211757D01*
X0104310Y0211795D02*
X0106201Y0211795D01*
X0106116Y0211833D02*
X0104395Y0211833D01*
X0104531Y0211871D02*
X0105981Y0211871D01*
X0105803Y0211909D02*
X0104709Y0211909D01*
X0104887Y0211946D02*
X0105625Y0211946D01*
X0077402Y0209323D02*
X0077402Y0206764D01*
X0077344Y0206211D01*
X0077172Y0205683D01*
X0076894Y0205202D01*
X0076522Y0204789D01*
X0076073Y0204462D01*
X0075565Y0204236D01*
X0075022Y0204121D01*
X0074466Y0204121D01*
X0073923Y0204236D01*
X0073415Y0204462D01*
X0072966Y0204789D01*
X0072594Y0205202D01*
X0072316Y0205683D01*
X0072145Y0206211D01*
X0072087Y0206764D01*
X0072087Y0209323D01*
X0072145Y0209875D01*
X0072316Y0210404D01*
X0072594Y0210885D01*
X0072966Y0211298D01*
X0073415Y0211624D01*
X0073923Y0211850D01*
X0074466Y0211966D01*
X0075022Y0211966D01*
X0075565Y0211850D01*
X0076073Y0211624D01*
X0076522Y0211298D01*
X0076894Y0210885D01*
X0077172Y0210404D01*
X0077344Y0209875D01*
X0077402Y0209323D01*
X0077401Y0209333D02*
X0072088Y0209333D01*
X0072092Y0209370D02*
X0077397Y0209370D01*
X0077393Y0209408D02*
X0072096Y0209408D01*
X0072100Y0209446D02*
X0077389Y0209446D01*
X0077385Y0209484D02*
X0072104Y0209484D01*
X0072108Y0209522D02*
X0077381Y0209522D01*
X0077377Y0209560D02*
X0072112Y0209560D01*
X0072116Y0209598D02*
X0077373Y0209598D01*
X0077369Y0209636D02*
X0072119Y0209636D01*
X0072123Y0209674D02*
X0077365Y0209674D01*
X0077361Y0209711D02*
X0072127Y0209711D01*
X0072131Y0209749D02*
X0077357Y0209749D01*
X0077353Y0209787D02*
X0072135Y0209787D01*
X0072139Y0209825D02*
X0077349Y0209825D01*
X0077345Y0209863D02*
X0072143Y0209863D01*
X0072153Y0209901D02*
X0077335Y0209901D01*
X0077323Y0209939D02*
X0072165Y0209939D01*
X0072178Y0209977D02*
X0077311Y0209977D01*
X0077298Y0210014D02*
X0072190Y0210014D01*
X0072202Y0210052D02*
X0077286Y0210052D01*
X0077274Y0210090D02*
X0072214Y0210090D01*
X0072227Y0210128D02*
X0077261Y0210128D01*
X0077249Y0210166D02*
X0072239Y0210166D01*
X0072251Y0210204D02*
X0077237Y0210204D01*
X0077224Y0210242D02*
X0072264Y0210242D01*
X0072276Y0210280D02*
X0077212Y0210280D01*
X0077200Y0210318D02*
X0072288Y0210318D01*
X0072301Y0210355D02*
X0077188Y0210355D01*
X0077175Y0210393D02*
X0072313Y0210393D01*
X0072332Y0210431D02*
X0077156Y0210431D01*
X0077134Y0210469D02*
X0072354Y0210469D01*
X0072376Y0210507D02*
X0077112Y0210507D01*
X0077090Y0210545D02*
X0072398Y0210545D01*
X0072420Y0210583D02*
X0077069Y0210583D01*
X0077047Y0210621D02*
X0072442Y0210621D01*
X0072463Y0210658D02*
X0077025Y0210658D01*
X0077003Y0210696D02*
X0072485Y0210696D01*
X0072507Y0210734D02*
X0076981Y0210734D01*
X0076959Y0210772D02*
X0072529Y0210772D01*
X0072551Y0210810D02*
X0076937Y0210810D01*
X0076915Y0210848D02*
X0072573Y0210848D01*
X0072595Y0210886D02*
X0076893Y0210886D01*
X0076859Y0210924D02*
X0072629Y0210924D01*
X0072663Y0210962D02*
X0076825Y0210962D01*
X0076791Y0210999D02*
X0072697Y0210999D01*
X0072731Y0211037D02*
X0076757Y0211037D01*
X0076723Y0211075D02*
X0072765Y0211075D01*
X0072800Y0211113D02*
X0076689Y0211113D01*
X0076654Y0211151D02*
X0072834Y0211151D01*
X0072868Y0211189D02*
X0076620Y0211189D01*
X0076586Y0211227D02*
X0072902Y0211227D01*
X0072936Y0211265D02*
X0076552Y0211265D01*
X0076516Y0211302D02*
X0072972Y0211302D01*
X0073025Y0211340D02*
X0076464Y0211340D01*
X0076412Y0211378D02*
X0073077Y0211378D01*
X0073129Y0211416D02*
X0076359Y0211416D01*
X0076307Y0211454D02*
X0073181Y0211454D01*
X0073233Y0211492D02*
X0076255Y0211492D01*
X0076203Y0211530D02*
X0073285Y0211530D01*
X0073337Y0211568D02*
X0076151Y0211568D01*
X0076099Y0211605D02*
X0073389Y0211605D01*
X0073458Y0211643D02*
X0076030Y0211643D01*
X0075945Y0211681D02*
X0073543Y0211681D01*
X0073628Y0211719D02*
X0075860Y0211719D01*
X0075775Y0211757D02*
X0073713Y0211757D01*
X0073799Y0211795D02*
X0075690Y0211795D01*
X0075605Y0211833D02*
X0073884Y0211833D01*
X0074019Y0211871D02*
X0075469Y0211871D01*
X0075291Y0211909D02*
X0074197Y0211909D01*
X0074375Y0211946D02*
X0075113Y0211946D01*
X0077402Y0209295D02*
X0072087Y0209295D01*
X0072087Y0209257D02*
X0077402Y0209257D01*
X0077402Y0209219D02*
X0072087Y0209219D01*
X0072087Y0209181D02*
X0077402Y0209181D01*
X0077402Y0209143D02*
X0072087Y0209143D01*
X0072087Y0209105D02*
X0077402Y0209105D01*
X0077402Y0209067D02*
X0072087Y0209067D01*
X0072087Y0209030D02*
X0077402Y0209030D01*
X0077402Y0208992D02*
X0072087Y0208992D01*
X0072087Y0208954D02*
X0077402Y0208954D01*
X0077402Y0208916D02*
X0072087Y0208916D01*
X0072087Y0208878D02*
X0077402Y0208878D01*
X0077402Y0208840D02*
X0072087Y0208840D01*
X0072087Y0208802D02*
X0077402Y0208802D01*
X0077402Y0208764D02*
X0072087Y0208764D01*
X0072087Y0208727D02*
X0077402Y0208727D01*
X0077402Y0208689D02*
X0072087Y0208689D01*
X0072087Y0208651D02*
X0077402Y0208651D01*
X0077402Y0208613D02*
X0072087Y0208613D01*
X0072087Y0208575D02*
X0077402Y0208575D01*
X0077402Y0208537D02*
X0072087Y0208537D01*
X0072087Y0208499D02*
X0077402Y0208499D01*
X0077402Y0208461D02*
X0072087Y0208461D01*
X0072087Y0208423D02*
X0077402Y0208423D01*
X0077402Y0208386D02*
X0072087Y0208386D01*
X0072087Y0208348D02*
X0077402Y0208348D01*
X0077402Y0208310D02*
X0072087Y0208310D01*
X0072087Y0208272D02*
X0077402Y0208272D01*
X0077402Y0208234D02*
X0072087Y0208234D01*
X0072087Y0208196D02*
X0077402Y0208196D01*
X0077402Y0208158D02*
X0072087Y0208158D01*
X0072087Y0208120D02*
X0077402Y0208120D01*
X0077402Y0208083D02*
X0072087Y0208083D01*
X0072087Y0208045D02*
X0077402Y0208045D01*
X0077402Y0208007D02*
X0072087Y0208007D01*
X0072087Y0207969D02*
X0077402Y0207969D01*
X0077402Y0207931D02*
X0072087Y0207931D01*
X0072087Y0207893D02*
X0077402Y0207893D01*
X0077402Y0207855D02*
X0072087Y0207855D01*
X0072087Y0207817D02*
X0077402Y0207817D01*
X0077402Y0207779D02*
X0072087Y0207779D01*
X0072087Y0207742D02*
X0077402Y0207742D01*
X0077402Y0207704D02*
X0072087Y0207704D01*
X0072087Y0207666D02*
X0077402Y0207666D01*
X0077402Y0207628D02*
X0072087Y0207628D01*
X0072087Y0207590D02*
X0077402Y0207590D01*
X0077402Y0207552D02*
X0072087Y0207552D01*
X0072087Y0207514D02*
X0077402Y0207514D01*
X0077402Y0207476D02*
X0072087Y0207476D01*
X0072087Y0207439D02*
X0077402Y0207439D01*
X0077402Y0207401D02*
X0072087Y0207401D01*
X0072087Y0207363D02*
X0077402Y0207363D01*
X0077402Y0207325D02*
X0072087Y0207325D01*
X0072087Y0207287D02*
X0077402Y0207287D01*
X0077402Y0207249D02*
X0072087Y0207249D01*
X0072087Y0207211D02*
X0077402Y0207211D01*
X0077402Y0207173D02*
X0072087Y0207173D01*
X0072087Y0207135D02*
X0077402Y0207135D01*
X0077402Y0207098D02*
X0072087Y0207098D01*
X0072087Y0207060D02*
X0077402Y0207060D01*
X0077402Y0207022D02*
X0072087Y0207022D01*
X0072087Y0206984D02*
X0077402Y0206984D01*
X0077402Y0206946D02*
X0072087Y0206946D01*
X0072087Y0206908D02*
X0077402Y0206908D01*
X0077402Y0206870D02*
X0072087Y0206870D01*
X0072087Y0206832D02*
X0077402Y0206832D01*
X0077402Y0206795D02*
X0072087Y0206795D01*
X0072087Y0206757D02*
X0077401Y0206757D01*
X0077397Y0206719D02*
X0072091Y0206719D01*
X0072095Y0206681D02*
X0077393Y0206681D01*
X0077389Y0206643D02*
X0072099Y0206643D01*
X0072103Y0206605D02*
X0077385Y0206605D01*
X0077381Y0206567D02*
X0072107Y0206567D01*
X0072111Y0206529D02*
X0077377Y0206529D01*
X0077373Y0206491D02*
X0072115Y0206491D01*
X0072119Y0206454D02*
X0077369Y0206454D01*
X0077365Y0206416D02*
X0072123Y0206416D01*
X0072127Y0206378D02*
X0077361Y0206378D01*
X0077357Y0206340D02*
X0072131Y0206340D01*
X0072135Y0206302D02*
X0077353Y0206302D01*
X0077349Y0206264D02*
X0072139Y0206264D01*
X0072143Y0206226D02*
X0077345Y0206226D01*
X0077336Y0206188D02*
X0072152Y0206188D01*
X0072164Y0206151D02*
X0077324Y0206151D01*
X0077311Y0206113D02*
X0072177Y0206113D01*
X0072189Y0206075D02*
X0077299Y0206075D01*
X0077287Y0206037D02*
X0072201Y0206037D01*
X0072214Y0205999D02*
X0077275Y0205999D01*
X0077262Y0205961D02*
X0072226Y0205961D01*
X0072238Y0205923D02*
X0077250Y0205923D01*
X0077238Y0205885D02*
X0072251Y0205885D01*
X0072263Y0205848D02*
X0077225Y0205848D01*
X0077213Y0205810D02*
X0072275Y0205810D01*
X0072288Y0205772D02*
X0077201Y0205772D01*
X0077188Y0205734D02*
X0072300Y0205734D01*
X0072312Y0205696D02*
X0077176Y0205696D01*
X0077158Y0205658D02*
X0072331Y0205658D01*
X0072353Y0205620D02*
X0077136Y0205620D01*
X0077114Y0205582D02*
X0072374Y0205582D01*
X0072396Y0205544D02*
X0077092Y0205544D01*
X0077070Y0205507D02*
X0072418Y0205507D01*
X0072440Y0205469D02*
X0077048Y0205469D01*
X0077026Y0205431D02*
X0072462Y0205431D01*
X0072484Y0205393D02*
X0077004Y0205393D01*
X0076983Y0205355D02*
X0072506Y0205355D01*
X0072528Y0205317D02*
X0076961Y0205317D01*
X0076939Y0205279D02*
X0072549Y0205279D01*
X0072571Y0205241D02*
X0076917Y0205241D01*
X0076895Y0205204D02*
X0072593Y0205204D01*
X0072627Y0205166D02*
X0076862Y0205166D01*
X0076827Y0205128D02*
X0072661Y0205128D01*
X0072695Y0205090D02*
X0076793Y0205090D01*
X0076759Y0205052D02*
X0072729Y0205052D01*
X0072763Y0205014D02*
X0076725Y0205014D01*
X0076691Y0204976D02*
X0072797Y0204976D01*
X0072831Y0204938D02*
X0076657Y0204938D01*
X0076623Y0204900D02*
X0072865Y0204900D01*
X0072900Y0204863D02*
X0076589Y0204863D01*
X0076555Y0204825D02*
X0072934Y0204825D01*
X0072969Y0204787D02*
X0076519Y0204787D01*
X0076467Y0204749D02*
X0073021Y0204749D01*
X0073073Y0204711D02*
X0076415Y0204711D01*
X0076363Y0204673D02*
X0073125Y0204673D01*
X0073177Y0204635D02*
X0076311Y0204635D01*
X0076259Y0204597D02*
X0073229Y0204597D01*
X0073282Y0204560D02*
X0076207Y0204560D01*
X0076154Y0204522D02*
X0073334Y0204522D01*
X0073386Y0204484D02*
X0076102Y0204484D01*
X0076036Y0204446D02*
X0073452Y0204446D01*
X0073537Y0204408D02*
X0075951Y0204408D01*
X0075866Y0204370D02*
X0073622Y0204370D01*
X0073708Y0204332D02*
X0075781Y0204332D01*
X0075696Y0204294D02*
X0073793Y0204294D01*
X0073878Y0204256D02*
X0075611Y0204256D01*
X0075482Y0204219D02*
X0074006Y0204219D01*
X0074185Y0204181D02*
X0075304Y0204181D01*
X0075125Y0204143D02*
X0074363Y0204143D01*
X0074995Y0197396D02*
X0074331Y0197254D01*
X0073711Y0196978D01*
X0073161Y0196579D01*
X0072707Y0196074D01*
X0077963Y0196074D01*
X0077962Y0196074D02*
X0077508Y0196579D01*
X0076959Y0196978D01*
X0076338Y0197254D01*
X0075674Y0197396D01*
X0074995Y0197396D01*
X0074837Y0197362D02*
X0075832Y0197362D01*
X0076010Y0197324D02*
X0074659Y0197324D01*
X0074481Y0197286D02*
X0076188Y0197286D01*
X0076352Y0197248D02*
X0074318Y0197248D01*
X0074232Y0197211D02*
X0076437Y0197211D01*
X0076522Y0197173D02*
X0074147Y0197173D01*
X0074062Y0197135D02*
X0076607Y0197135D01*
X0076692Y0197097D02*
X0073977Y0197097D01*
X0073892Y0197059D02*
X0076777Y0197059D01*
X0076862Y0197021D02*
X0073807Y0197021D01*
X0073722Y0196983D02*
X0076947Y0196983D01*
X0077004Y0196945D02*
X0073665Y0196945D01*
X0073613Y0196908D02*
X0077056Y0196908D01*
X0077108Y0196870D02*
X0073561Y0196870D01*
X0073509Y0196832D02*
X0077160Y0196832D01*
X0077212Y0196794D02*
X0073457Y0196794D01*
X0073405Y0196756D02*
X0077265Y0196756D01*
X0077317Y0196718D02*
X0073353Y0196718D01*
X0073300Y0196680D02*
X0077369Y0196680D01*
X0077421Y0196642D02*
X0073248Y0196642D01*
X0073196Y0196604D02*
X0077473Y0196604D01*
X0077519Y0196567D02*
X0073150Y0196567D01*
X0073116Y0196529D02*
X0077553Y0196529D01*
X0077588Y0196491D02*
X0073082Y0196491D01*
X0073048Y0196453D02*
X0077622Y0196453D01*
X0077656Y0196415D02*
X0073014Y0196415D01*
X0072979Y0196377D02*
X0077690Y0196377D01*
X0077724Y0196339D02*
X0072945Y0196339D01*
X0072911Y0196301D02*
X0077758Y0196301D01*
X0077792Y0196264D02*
X0072877Y0196264D01*
X0072843Y0196226D02*
X0077826Y0196226D01*
X0077860Y0196188D02*
X0072809Y0196188D01*
X0072775Y0196150D02*
X0077894Y0196150D01*
X0077929Y0196112D02*
X0072741Y0196112D01*
X0072707Y0196074D02*
X0072367Y0195486D01*
X0072158Y0194841D01*
X0072087Y0194165D01*
X0072087Y0192000D01*
X0072158Y0191325D01*
X0072367Y0190679D01*
X0072707Y0190091D01*
X0073161Y0189586D01*
X0073711Y0189187D01*
X0074331Y0188911D01*
X0074995Y0188770D01*
X0075674Y0188770D01*
X0076338Y0188911D01*
X0076959Y0189187D01*
X0077508Y0189586D01*
X0077962Y0190091D01*
X0078302Y0190679D01*
X0078512Y0191325D01*
X0078583Y0192000D01*
X0078583Y0194165D01*
X0078512Y0194841D01*
X0078302Y0195486D01*
X0077962Y0196074D01*
X0077984Y0196036D02*
X0072685Y0196036D01*
X0072663Y0195998D02*
X0078006Y0195998D01*
X0078028Y0195960D02*
X0072641Y0195960D01*
X0072619Y0195923D02*
X0078050Y0195923D01*
X0078072Y0195885D02*
X0072597Y0195885D01*
X0072575Y0195847D02*
X0078094Y0195847D01*
X0078116Y0195809D02*
X0072554Y0195809D01*
X0072532Y0195771D02*
X0078138Y0195771D01*
X0078159Y0195733D02*
X0072510Y0195733D01*
X0072488Y0195695D02*
X0078181Y0195695D01*
X0078203Y0195657D02*
X0072466Y0195657D01*
X0072444Y0195620D02*
X0078225Y0195620D01*
X0078247Y0195582D02*
X0072422Y0195582D01*
X0072401Y0195544D02*
X0078269Y0195544D01*
X0078291Y0195506D02*
X0072379Y0195506D01*
X0072361Y0195468D02*
X0078308Y0195468D01*
X0078320Y0195430D02*
X0072349Y0195430D01*
X0072337Y0195392D02*
X0078332Y0195392D01*
X0078345Y0195354D02*
X0072325Y0195354D01*
X0072312Y0195316D02*
X0078357Y0195316D01*
X0078369Y0195279D02*
X0072300Y0195279D01*
X0072288Y0195241D02*
X0078382Y0195241D01*
X0078394Y0195203D02*
X0072275Y0195203D01*
X0072263Y0195165D02*
X0078406Y0195165D01*
X0078419Y0195127D02*
X0072251Y0195127D01*
X0072238Y0195089D02*
X0078431Y0195089D01*
X0078443Y0195051D02*
X0072226Y0195051D01*
X0072214Y0195013D02*
X0078456Y0195013D01*
X0078468Y0194976D02*
X0072201Y0194976D01*
X0072189Y0194938D02*
X0078480Y0194938D01*
X0078492Y0194900D02*
X0072177Y0194900D01*
X0072165Y0194862D02*
X0078505Y0194862D01*
X0078513Y0194824D02*
X0072156Y0194824D01*
X0072152Y0194786D02*
X0078517Y0194786D01*
X0078521Y0194748D02*
X0072148Y0194748D01*
X0072144Y0194710D02*
X0078525Y0194710D01*
X0078529Y0194673D02*
X0072140Y0194673D01*
X0072136Y0194635D02*
X0078533Y0194635D01*
X0078537Y0194597D02*
X0072132Y0194597D01*
X0072128Y0194559D02*
X0078541Y0194559D01*
X0078545Y0194521D02*
X0072124Y0194521D01*
X0072120Y0194483D02*
X0078549Y0194483D01*
X0078553Y0194445D02*
X0072116Y0194445D01*
X0072112Y0194407D02*
X0078557Y0194407D01*
X0078561Y0194369D02*
X0072108Y0194369D01*
X0072104Y0194332D02*
X0078565Y0194332D01*
X0078569Y0194294D02*
X0072100Y0194294D01*
X0072096Y0194256D02*
X0078573Y0194256D01*
X0078577Y0194218D02*
X0072092Y0194218D01*
X0072088Y0194180D02*
X0078581Y0194180D01*
X0078583Y0194142D02*
X0072087Y0194142D01*
X0072087Y0194104D02*
X0078583Y0194104D01*
X0078583Y0194066D02*
X0072087Y0194066D01*
X0072087Y0194029D02*
X0078583Y0194029D01*
X0078583Y0193991D02*
X0072087Y0193991D01*
X0072087Y0193953D02*
X0078583Y0193953D01*
X0078583Y0193915D02*
X0072087Y0193915D01*
X0072087Y0193877D02*
X0078583Y0193877D01*
X0078583Y0193839D02*
X0072087Y0193839D01*
X0072087Y0193801D02*
X0078583Y0193801D01*
X0078583Y0193763D02*
X0072087Y0193763D01*
X0072087Y0193725D02*
X0078583Y0193725D01*
X0078583Y0193688D02*
X0072087Y0193688D01*
X0072087Y0193650D02*
X0078583Y0193650D01*
X0078583Y0193612D02*
X0072087Y0193612D01*
X0072087Y0193574D02*
X0078583Y0193574D01*
X0078583Y0193536D02*
X0072087Y0193536D01*
X0072087Y0193498D02*
X0078583Y0193498D01*
X0078583Y0193460D02*
X0072087Y0193460D01*
X0072087Y0193422D02*
X0078583Y0193422D01*
X0078583Y0193385D02*
X0072087Y0193385D01*
X0072087Y0193347D02*
X0078583Y0193347D01*
X0078583Y0193309D02*
X0072087Y0193309D01*
X0072087Y0193271D02*
X0078583Y0193271D01*
X0078583Y0193233D02*
X0072087Y0193233D01*
X0072087Y0193195D02*
X0078583Y0193195D01*
X0078583Y0193157D02*
X0072087Y0193157D01*
X0072087Y0193119D02*
X0078583Y0193119D01*
X0078583Y0193081D02*
X0072087Y0193081D01*
X0072087Y0193044D02*
X0078583Y0193044D01*
X0078583Y0193006D02*
X0072087Y0193006D01*
X0072087Y0192968D02*
X0078583Y0192968D01*
X0078583Y0192930D02*
X0072087Y0192930D01*
X0072087Y0192892D02*
X0078583Y0192892D01*
X0078583Y0192854D02*
X0072087Y0192854D01*
X0072087Y0192816D02*
X0078583Y0192816D01*
X0078583Y0192778D02*
X0072087Y0192778D01*
X0072087Y0192741D02*
X0078583Y0192741D01*
X0078583Y0192703D02*
X0072087Y0192703D01*
X0072087Y0192665D02*
X0078583Y0192665D01*
X0078583Y0192627D02*
X0072087Y0192627D01*
X0072087Y0192589D02*
X0078583Y0192589D01*
X0078583Y0192551D02*
X0072087Y0192551D01*
X0072087Y0192513D02*
X0078583Y0192513D01*
X0078583Y0192475D02*
X0072087Y0192475D01*
X0072087Y0192437D02*
X0078583Y0192437D01*
X0078583Y0192400D02*
X0072087Y0192400D01*
X0072087Y0192362D02*
X0078583Y0192362D01*
X0078583Y0192324D02*
X0072087Y0192324D01*
X0072087Y0192286D02*
X0078583Y0192286D01*
X0078583Y0192248D02*
X0072087Y0192248D01*
X0072087Y0192210D02*
X0078583Y0192210D01*
X0078583Y0192172D02*
X0072087Y0192172D01*
X0072087Y0192134D02*
X0078583Y0192134D01*
X0078583Y0192097D02*
X0072087Y0192097D01*
X0072087Y0192059D02*
X0078583Y0192059D01*
X0078583Y0192021D02*
X0072087Y0192021D01*
X0072088Y0191983D02*
X0078581Y0191983D01*
X0078577Y0191945D02*
X0072092Y0191945D01*
X0072096Y0191907D02*
X0078573Y0191907D01*
X0078569Y0191869D02*
X0072100Y0191869D01*
X0072104Y0191831D02*
X0078565Y0191831D01*
X0078561Y0191794D02*
X0072108Y0191794D01*
X0072112Y0191756D02*
X0078557Y0191756D01*
X0078553Y0191718D02*
X0072116Y0191718D01*
X0072120Y0191680D02*
X0078549Y0191680D01*
X0078545Y0191642D02*
X0072124Y0191642D01*
X0072128Y0191604D02*
X0078541Y0191604D01*
X0078537Y0191566D02*
X0072132Y0191566D01*
X0072136Y0191528D02*
X0078533Y0191528D01*
X0078529Y0191490D02*
X0072140Y0191490D01*
X0072144Y0191453D02*
X0078525Y0191453D01*
X0078521Y0191415D02*
X0072148Y0191415D01*
X0072152Y0191377D02*
X0078517Y0191377D01*
X0078513Y0191339D02*
X0072156Y0191339D01*
X0072165Y0191301D02*
X0078504Y0191301D01*
X0078492Y0191263D02*
X0072178Y0191263D01*
X0072190Y0191225D02*
X0078479Y0191225D01*
X0078467Y0191187D02*
X0072202Y0191187D01*
X0072214Y0191150D02*
X0078455Y0191150D01*
X0078442Y0191112D02*
X0072227Y0191112D01*
X0072239Y0191074D02*
X0078430Y0191074D01*
X0078418Y0191036D02*
X0072251Y0191036D01*
X0072264Y0190998D02*
X0078406Y0190998D01*
X0078393Y0190960D02*
X0072276Y0190960D01*
X0072288Y0190922D02*
X0078381Y0190922D01*
X0078369Y0190884D02*
X0072301Y0190884D01*
X0072313Y0190846D02*
X0078356Y0190846D01*
X0078344Y0190809D02*
X0072325Y0190809D01*
X0072338Y0190771D02*
X0078332Y0190771D01*
X0078319Y0190733D02*
X0072350Y0190733D01*
X0072362Y0190695D02*
X0078307Y0190695D01*
X0078289Y0190657D02*
X0072380Y0190657D01*
X0072402Y0190619D02*
X0078267Y0190619D01*
X0078246Y0190581D02*
X0072424Y0190581D01*
X0072446Y0190543D02*
X0078224Y0190543D01*
X0078202Y0190506D02*
X0072468Y0190506D01*
X0072489Y0190468D02*
X0078180Y0190468D01*
X0078158Y0190430D02*
X0072511Y0190430D01*
X0072533Y0190392D02*
X0078136Y0190392D01*
X0078114Y0190354D02*
X0072555Y0190354D01*
X0072577Y0190316D02*
X0078092Y0190316D01*
X0078071Y0190278D02*
X0072599Y0190278D01*
X0072621Y0190240D02*
X0078049Y0190240D01*
X0078027Y0190202D02*
X0072642Y0190202D01*
X0072664Y0190165D02*
X0078005Y0190165D01*
X0077983Y0190127D02*
X0072686Y0190127D01*
X0072709Y0190089D02*
X0077961Y0190089D01*
X0077926Y0190051D02*
X0072743Y0190051D01*
X0072777Y0190013D02*
X0077892Y0190013D01*
X0077858Y0189975D02*
X0072811Y0189975D01*
X0072845Y0189937D02*
X0077824Y0189937D01*
X0077790Y0189899D02*
X0072879Y0189899D01*
X0072913Y0189862D02*
X0077756Y0189862D01*
X0077722Y0189824D02*
X0072948Y0189824D01*
X0072982Y0189786D02*
X0077688Y0189786D01*
X0077654Y0189748D02*
X0073016Y0189748D01*
X0073050Y0189710D02*
X0077619Y0189710D01*
X0077585Y0189672D02*
X0073084Y0189672D01*
X0073118Y0189634D02*
X0077551Y0189634D01*
X0077517Y0189596D02*
X0073152Y0189596D01*
X0073199Y0189559D02*
X0077470Y0189559D01*
X0077418Y0189521D02*
X0073252Y0189521D01*
X0073304Y0189483D02*
X0077366Y0189483D01*
X0077313Y0189445D02*
X0073356Y0189445D01*
X0073408Y0189407D02*
X0077261Y0189407D01*
X0077209Y0189369D02*
X0073460Y0189369D01*
X0073512Y0189331D02*
X0077157Y0189331D01*
X0077105Y0189293D02*
X0073564Y0189293D01*
X0073617Y0189255D02*
X0077053Y0189255D01*
X0077001Y0189218D02*
X0073669Y0189218D01*
X0073727Y0189180D02*
X0076942Y0189180D01*
X0076857Y0189142D02*
X0073812Y0189142D01*
X0073897Y0189104D02*
X0076772Y0189104D01*
X0076687Y0189066D02*
X0073983Y0189066D01*
X0074068Y0189028D02*
X0076602Y0189028D01*
X0076517Y0188990D02*
X0074153Y0188990D01*
X0074238Y0188952D02*
X0076431Y0188952D01*
X0076346Y0188915D02*
X0074323Y0188915D01*
X0074492Y0188877D02*
X0076177Y0188877D01*
X0075999Y0188839D02*
X0074670Y0188839D01*
X0074849Y0188801D02*
X0075821Y0188801D01*
D13*
X0073793Y0112159D02*
X0078687Y0112159D01*
X0073793Y0112159D02*
X0073793Y0117841D01*
X0078687Y0117841D01*
X0078687Y0112159D01*
X0078687Y0113322D02*
X0073793Y0113322D01*
X0073793Y0114485D02*
X0078687Y0114485D01*
X0078687Y0115648D02*
X0073793Y0115648D01*
X0073793Y0116811D02*
X0078687Y0116811D01*
X0071207Y0112159D02*
X0066313Y0112159D01*
X0066313Y0117841D01*
X0071207Y0117841D01*
X0071207Y0112159D01*
X0071207Y0113322D02*
X0066313Y0113322D01*
X0066313Y0114485D02*
X0071207Y0114485D01*
X0071207Y0115648D02*
X0066313Y0115648D01*
X0066313Y0116811D02*
X0071207Y0116811D01*
X0058687Y0117841D02*
X0053793Y0117841D01*
X0058687Y0117841D02*
X0058687Y0112159D01*
X0053793Y0112159D01*
X0053793Y0117841D01*
X0053793Y0113322D02*
X0058687Y0113322D01*
X0058687Y0114485D02*
X0053793Y0114485D01*
X0053793Y0115648D02*
X0058687Y0115648D01*
X0058687Y0116811D02*
X0053793Y0116811D01*
X0051207Y0117841D02*
X0046313Y0117841D01*
X0051207Y0117841D02*
X0051207Y0112159D01*
X0046313Y0112159D01*
X0046313Y0117841D01*
X0046313Y0113322D02*
X0051207Y0113322D01*
X0051207Y0114485D02*
X0046313Y0114485D01*
X0046313Y0115648D02*
X0051207Y0115648D01*
X0051207Y0116811D02*
X0046313Y0116811D01*
X0105063Y0038409D02*
X0109957Y0038409D01*
X0105063Y0038409D02*
X0105063Y0044091D01*
X0109957Y0044091D01*
X0109957Y0038409D01*
X0109957Y0039572D02*
X0105063Y0039572D01*
X0105063Y0040735D02*
X0109957Y0040735D01*
X0109957Y0041898D02*
X0105063Y0041898D01*
X0105063Y0043061D02*
X0109957Y0043061D01*
X0112543Y0038409D02*
X0117437Y0038409D01*
X0112543Y0038409D02*
X0112543Y0044091D01*
X0117437Y0044091D01*
X0117437Y0038409D01*
X0117437Y0039572D02*
X0112543Y0039572D01*
X0112543Y0040735D02*
X0117437Y0040735D01*
X0117437Y0041898D02*
X0112543Y0041898D01*
X0112543Y0043061D02*
X0117437Y0043061D01*
X0117437Y0029659D02*
X0112543Y0029659D01*
X0112543Y0035341D01*
X0117437Y0035341D01*
X0117437Y0029659D01*
X0117437Y0030822D02*
X0112543Y0030822D01*
X0112543Y0031985D02*
X0117437Y0031985D01*
X0117437Y0033148D02*
X0112543Y0033148D01*
X0112543Y0034311D02*
X0117437Y0034311D01*
X0109957Y0029659D02*
X0105063Y0029659D01*
X0105063Y0035341D01*
X0109957Y0035341D01*
X0109957Y0029659D01*
X0109957Y0030822D02*
X0105063Y0030822D01*
X0105063Y0031985D02*
X0109957Y0031985D01*
X0109957Y0033148D02*
X0105063Y0033148D01*
X0105063Y0034311D02*
X0109957Y0034311D01*
X0109957Y0015909D02*
X0105063Y0015909D01*
X0105063Y0021591D01*
X0109957Y0021591D01*
X0109957Y0015909D01*
X0109957Y0017072D02*
X0105063Y0017072D01*
X0105063Y0018235D02*
X0109957Y0018235D01*
X0109957Y0019398D02*
X0105063Y0019398D01*
X0105063Y0020561D02*
X0109957Y0020561D01*
X0112543Y0015909D02*
X0117437Y0015909D01*
X0112543Y0015909D02*
X0112543Y0021591D01*
X0117437Y0021591D01*
X0117437Y0015909D01*
X0117437Y0017072D02*
X0112543Y0017072D01*
X0112543Y0018235D02*
X0117437Y0018235D01*
X0117437Y0019398D02*
X0112543Y0019398D01*
X0112543Y0020561D02*
X0117437Y0020561D01*
X0104937Y0007159D02*
X0100043Y0007159D01*
X0100043Y0012841D01*
X0104937Y0012841D01*
X0104937Y0007159D01*
X0104937Y0008322D02*
X0100043Y0008322D01*
X0100043Y0009485D02*
X0104937Y0009485D01*
X0104937Y0010648D02*
X0100043Y0010648D01*
X0100043Y0011811D02*
X0104937Y0011811D01*
X0097457Y0007159D02*
X0092563Y0007159D01*
X0092563Y0012841D01*
X0097457Y0012841D01*
X0097457Y0007159D01*
X0097457Y0008322D02*
X0092563Y0008322D01*
X0092563Y0009485D02*
X0097457Y0009485D01*
X0097457Y0010648D02*
X0092563Y0010648D01*
X0092563Y0011811D02*
X0097457Y0011811D01*
D14*
X0056093Y0136004D03*
X0056093Y0148996D03*
X0046250Y0148996D03*
X0036407Y0148996D03*
X0036407Y0136004D03*
X0046250Y0136004D03*
D15*
X0084924Y0043478D02*
X0084924Y0037782D01*
X0082576Y0037782D01*
X0082576Y0043478D01*
X0084924Y0043478D01*
X0084924Y0038931D02*
X0082576Y0038931D01*
X0082576Y0040080D02*
X0084924Y0040080D01*
X0084924Y0041229D02*
X0082576Y0041229D01*
X0082576Y0042378D02*
X0084924Y0042378D01*
X0089924Y0043478D02*
X0089924Y0037782D01*
X0087576Y0037782D01*
X0087576Y0043478D01*
X0089924Y0043478D01*
X0089924Y0038931D02*
X0087576Y0038931D01*
X0087576Y0040080D02*
X0089924Y0040080D01*
X0089924Y0041229D02*
X0087576Y0041229D01*
X0087576Y0042378D02*
X0089924Y0042378D01*
X0094924Y0043478D02*
X0094924Y0037782D01*
X0092576Y0037782D01*
X0092576Y0043478D01*
X0094924Y0043478D01*
X0094924Y0038931D02*
X0092576Y0038931D01*
X0092576Y0040080D02*
X0094924Y0040080D01*
X0094924Y0041229D02*
X0092576Y0041229D01*
X0092576Y0042378D02*
X0094924Y0042378D01*
X0099924Y0043478D02*
X0099924Y0037782D01*
X0097576Y0037782D01*
X0097576Y0043478D01*
X0099924Y0043478D01*
X0099924Y0038931D02*
X0097576Y0038931D01*
X0097576Y0040080D02*
X0099924Y0040080D01*
X0099924Y0041229D02*
X0097576Y0041229D01*
X0097576Y0042378D02*
X0099924Y0042378D01*
X0099924Y0022218D02*
X0099924Y0016522D01*
X0097576Y0016522D01*
X0097576Y0022218D01*
X0099924Y0022218D01*
X0099924Y0017671D02*
X0097576Y0017671D01*
X0097576Y0018820D02*
X0099924Y0018820D01*
X0099924Y0019969D02*
X0097576Y0019969D01*
X0097576Y0021118D02*
X0099924Y0021118D01*
X0094924Y0022218D02*
X0094924Y0016522D01*
X0092576Y0016522D01*
X0092576Y0022218D01*
X0094924Y0022218D01*
X0094924Y0017671D02*
X0092576Y0017671D01*
X0092576Y0018820D02*
X0094924Y0018820D01*
X0094924Y0019969D02*
X0092576Y0019969D01*
X0092576Y0021118D02*
X0094924Y0021118D01*
X0089924Y0022218D02*
X0089924Y0016522D01*
X0087576Y0016522D01*
X0087576Y0022218D01*
X0089924Y0022218D01*
X0089924Y0017671D02*
X0087576Y0017671D01*
X0087576Y0018820D02*
X0089924Y0018820D01*
X0089924Y0019969D02*
X0087576Y0019969D01*
X0087576Y0021118D02*
X0089924Y0021118D01*
X0084924Y0022218D02*
X0084924Y0016522D01*
X0082576Y0016522D01*
X0082576Y0022218D01*
X0084924Y0022218D01*
X0084924Y0017671D02*
X0082576Y0017671D01*
X0082576Y0018820D02*
X0084924Y0018820D01*
X0084924Y0019969D02*
X0082576Y0019969D01*
X0082576Y0021118D02*
X0084924Y0021118D01*
D16*
X0008750Y0018600D02*
X0008750Y0011400D01*
X0018750Y0011400D02*
X0018750Y0018600D01*
X0028750Y0018600D02*
X0028750Y0011400D01*
X0038750Y0011400D02*
X0038750Y0018600D01*
D17*
X0055788Y0057638D02*
X0064212Y0057638D01*
X0064212Y0052362D01*
X0055788Y0052362D01*
X0055788Y0057638D01*
X0055788Y0053537D02*
X0064212Y0053537D01*
X0064212Y0054712D02*
X0055788Y0054712D01*
X0055788Y0055887D02*
X0064212Y0055887D01*
X0064212Y0057062D02*
X0055788Y0057062D01*
X0055788Y0072638D02*
X0064212Y0072638D01*
X0064212Y0067362D01*
X0055788Y0067362D01*
X0055788Y0072638D01*
X0055788Y0068537D02*
X0064212Y0068537D01*
X0064212Y0069712D02*
X0055788Y0069712D01*
X0055788Y0070887D02*
X0064212Y0070887D01*
X0064212Y0072062D02*
X0055788Y0072062D01*
X0068288Y0065138D02*
X0076712Y0065138D01*
X0076712Y0059862D01*
X0068288Y0059862D01*
X0068288Y0065138D01*
X0068288Y0061037D02*
X0076712Y0061037D01*
X0076712Y0062212D02*
X0068288Y0062212D01*
X0068288Y0063387D02*
X0076712Y0063387D01*
X0076712Y0064562D02*
X0068288Y0064562D01*
M02*
