G75*
%MOIN*%
%OFA0B0*%
%FSLAX25Y25*%
%IPPOS*%
%LPD*%
%AMOC8*
5,1,8,0,0,1.08239X$1,22.5*
%
%ADD10R,0.00111X0.01110*%
%ADD11R,0.00111X0.02670*%
%ADD12R,0.00111X0.01890*%
%ADD13R,0.00111X0.02560*%
%ADD14R,0.00112X0.02770*%
%ADD15R,0.00112X0.02450*%
%ADD16R,0.00112X0.03220*%
%ADD17R,0.00112X0.02440*%
%ADD18R,0.00112X0.00440*%
%ADD19R,0.00112X0.00670*%
%ADD20R,0.00111X0.02780*%
%ADD21R,0.00111X0.02890*%
%ADD22R,0.00111X0.03550*%
%ADD23R,0.00111X0.03110*%
%ADD24R,0.00111X0.00660*%
%ADD25R,0.00111X0.01340*%
%ADD26R,0.00111X0.02890*%
%ADD27R,0.00111X0.03330*%
%ADD28R,0.00111X0.03780*%
%ADD29R,0.00111X0.03340*%
%ADD30R,0.00111X0.01560*%
%ADD31R,0.00111X0.03000*%
%ADD32R,0.00111X0.03660*%
%ADD33R,0.00111X0.03890*%
%ADD34R,0.00111X0.03670*%
%ADD35R,0.00111X0.01890*%
%ADD36R,0.00111X0.00340*%
%ADD37R,0.00111X0.04000*%
%ADD38R,0.00111X0.02000*%
%ADD39R,0.00111X0.00450*%
%ADD40R,0.00111X0.04440*%
%ADD41R,0.00111X0.02220*%
%ADD42R,0.00111X0.03220*%
%ADD43R,0.00111X0.04770*%
%ADD44R,0.00111X0.01000*%
%ADD45R,0.00111X0.02330*%
%ADD46R,0.00111X0.00440*%
%ADD47R,0.00111X0.03440*%
%ADD48R,0.00111X0.05330*%
%ADD49R,0.00111X0.00890*%
%ADD50R,0.00111X0.00890*%
%ADD51R,0.00111X0.00780*%
%ADD52R,0.00111X0.00670*%
%ADD53R,0.00111X0.00550*%
%ADD54R,0.00111X0.10330*%
%ADD55R,0.00112X0.00550*%
%ADD56R,0.00112X0.10340*%
%ADD57R,0.00112X0.00780*%
%ADD58R,0.00112X0.00660*%
%ADD59R,0.00112X0.01110*%
%ADD60R,0.00112X0.00670*%
%ADD61R,0.00111X0.00670*%
%ADD62R,0.00111X0.08230*%
%ADD63R,0.00111X0.01230*%
%ADD64R,0.00111X0.07330*%
%ADD65R,0.00111X0.01120*%
%ADD66R,0.00111X0.06780*%
%ADD67R,0.00111X0.06220*%
%ADD68R,0.00111X0.05670*%
%ADD69R,0.00111X0.05110*%
%ADD70R,0.00111X0.00560*%
%ADD71R,0.00111X0.00770*%
%ADD72R,0.00111X0.04660*%
%ADD73R,0.00111X0.01770*%
%ADD74R,0.00111X0.04220*%
%ADD75R,0.00111X0.01550*%
%ADD76R,0.00112X0.03780*%
%ADD77R,0.00112X0.01340*%
%ADD78R,0.00112X0.03560*%
%ADD79R,0.00112X0.01440*%
%ADD80R,0.00111X0.03220*%
%ADD81R,0.00111X0.01440*%
%ADD82R,0.00111X0.03440*%
%ADD83R,0.00111X0.00110*%
%ADD84R,0.00111X0.01660*%
%ADD85R,0.00111X0.02670*%
%ADD86R,0.00111X0.00230*%
%ADD87R,0.00111X0.01780*%
%ADD88R,0.00111X0.02340*%
%ADD89R,0.00111X0.01670*%
%ADD90R,0.00111X0.01670*%
%ADD91R,0.00112X0.00890*%
%ADD92R,0.00112X0.01660*%
%ADD93R,0.00112X0.00220*%
%ADD94R,0.00112X0.01550*%
%ADD95R,0.00111X0.00220*%
%ADD96R,0.00111X0.01330*%
%ADD97R,0.00111X0.00330*%
%ADD98R,0.00111X0.00880*%
%ADD99R,0.00111X0.00440*%
%ADD100R,0.00112X0.01450*%
%ADD101R,0.00112X0.00560*%
%ADD102R,0.00112X0.01000*%
%ADD103R,0.00112X0.02000*%
%ADD104R,0.00111X0.02440*%
%ADD105R,0.00111X0.01450*%
%ADD106R,0.00111X0.02770*%
%ADD107R,0.00111X0.01220*%
%ADD108R,0.00111X0.03230*%
%ADD109R,0.00111X0.04890*%
%ADD110R,0.00111X0.02340*%
%ADD111R,0.00112X0.00890*%
%ADD112R,0.00112X0.08110*%
%ADD113R,0.00112X0.01670*%
%ADD114R,0.00112X0.03770*%
%ADD115R,0.00111X0.12230*%
%ADD116R,0.00111X0.14450*%
%ADD117R,0.00111X0.01440*%
%ADD118R,0.00111X0.22110*%
%ADD119R,0.00111X0.19890*%
%ADD120R,0.00111X0.18000*%
%ADD121R,0.00111X0.15890*%
%ADD122R,0.00111X0.12450*%
%ADD123R,0.00111X0.07890*%
%ADD124R,0.00112X0.02780*%
%ADD125R,0.00111X0.01340*%
%ADD126R,0.00111X0.04110*%
%ADD127R,0.00111X0.05440*%
%ADD128R,0.00111X0.06550*%
%ADD129R,0.00111X0.05000*%
%ADD130R,0.00111X0.07890*%
%ADD131R,0.00111X0.05890*%
%ADD132R,0.00111X0.09110*%
%ADD133R,0.00111X0.07110*%
%ADD134R,0.00111X0.08220*%
%ADD135R,0.00111X0.07670*%
%ADD136R,0.00112X0.07220*%
%ADD137R,0.00112X0.01330*%
%ADD138R,0.00112X0.07890*%
%ADD139R,0.00111X0.06110*%
%ADD140R,0.00111X0.07550*%
%ADD141R,0.00111X0.05220*%
%ADD142R,0.00111X0.06450*%
%ADD143R,0.00111X0.04670*%
%ADD144R,0.00111X0.05550*%
%ADD145R,0.00111X0.06770*%
%ADD146R,0.00111X0.09450*%
%ADD147R,0.00111X0.10560*%
%ADD148R,0.00111X0.10220*%
%ADD149R,0.00112X0.09000*%
%ADD150R,0.00111X0.02550*%
%ADD151R,0.00111X0.00220*%
%ADD152R,0.00112X0.01120*%
%ADD153R,0.00112X0.00110*%
%ADD154R,0.00111X0.04220*%
%ADD155R,0.00111X0.04890*%
%ADD156R,0.00111X0.06330*%
%ADD157R,0.00112X0.01220*%
%ADD158R,0.00112X0.07000*%
%ADD159R,0.00111X0.01220*%
%ADD160R,0.00111X0.03120*%
%ADD161R,0.00111X0.02220*%
%ADD162R,0.00111X0.05560*%
%ADD163R,0.00111X0.02230*%
%ADD164R,0.00111X0.04560*%
%ADD165R,0.00112X0.01780*%
%ADD166R,0.00112X0.03330*%
%ADD167R,0.00111X0.05340*%
%ADD168R,0.00111X0.04330*%
%ADD169R,0.00111X0.02110*%
%ADD170C,0.00000*%
%ADD171C,0.00600*%
%ADD172C,0.00400*%
%ADD173R,0.02953X0.05709*%
%ADD174R,0.02559X0.05512*%
%ADD175C,0.00197*%
%ADD176C,0.00394*%
%ADD177C,0.00787*%
D10*
X0017105Y0055632D03*
X0017327Y0055742D03*
X0017551Y0055852D03*
X0017884Y0056072D03*
X0018105Y0056182D03*
X0018327Y0056412D03*
X0014105Y0069632D03*
X0013995Y0069632D03*
X0013884Y0069632D03*
X0013773Y0069632D03*
X0014216Y0069742D03*
X0014327Y0069742D03*
X0014551Y0069852D03*
X0014662Y0069852D03*
X0014773Y0069852D03*
X0014884Y0069962D03*
X0014995Y0069962D03*
X0015105Y0070072D03*
X0015216Y0070182D03*
X0015327Y0070182D03*
X0015551Y0070412D03*
X0013327Y0069522D03*
X0013216Y0069522D03*
X0013105Y0069522D03*
X0012995Y0069522D03*
X0009884Y0071412D03*
X0007105Y0075852D03*
X0006216Y0072072D03*
X0007105Y0080742D03*
X0008551Y0085632D03*
X0007884Y0086522D03*
X0007773Y0086632D03*
X0007662Y0086742D03*
X0007327Y0087182D03*
X0010105Y0093522D03*
X0011327Y0092852D03*
X0012884Y0079522D03*
X0012995Y0079522D03*
D11*
X0006327Y0061742D03*
D12*
X0006327Y0072022D03*
D13*
X0006327Y0077907D03*
X0019551Y0073907D03*
X0019551Y0062907D03*
D14*
X0006439Y0062242D03*
D15*
X0006439Y0071962D03*
D16*
X0006439Y0077687D03*
D17*
X0006439Y0082187D03*
X0019439Y0063187D03*
D18*
X0006439Y0085297D03*
D19*
X0006439Y0088522D03*
X0018439Y0076072D03*
X0011439Y0069632D03*
D20*
X0006551Y0062687D03*
X0011551Y0091907D03*
D21*
X0006551Y0071852D03*
X0006884Y0063852D03*
X0018662Y0070852D03*
D22*
X0006551Y0077632D03*
D23*
X0008662Y0077632D03*
X0006551Y0082182D03*
D24*
X0007551Y0080407D03*
X0007662Y0080407D03*
X0007773Y0080407D03*
X0007773Y0085297D03*
X0007884Y0085297D03*
X0007662Y0085297D03*
X0007551Y0085297D03*
X0007327Y0085297D03*
X0007216Y0085297D03*
X0007105Y0085297D03*
X0006995Y0085297D03*
X0006884Y0085297D03*
X0006773Y0085297D03*
X0006662Y0085297D03*
X0006551Y0085297D03*
X0009995Y0093407D03*
X0010995Y0093187D03*
X0011105Y0093187D03*
X0014995Y0074187D03*
D25*
X0007216Y0087407D03*
X0006551Y0088407D03*
D26*
X0006662Y0063072D03*
D27*
X0006662Y0071742D03*
X0017884Y0067962D03*
D28*
X0013773Y0066297D03*
X0008216Y0077407D03*
X0006662Y0077517D03*
X0008327Y0082077D03*
D29*
X0006662Y0082187D03*
D30*
X0006662Y0088297D03*
X0013662Y0079517D03*
X0010884Y0067517D03*
X0010551Y0067407D03*
X0010327Y0067297D03*
X0010216Y0067297D03*
X0010105Y0067187D03*
X0009884Y0067077D03*
X0019216Y0057297D03*
D31*
X0020551Y0060467D03*
X0019662Y0062467D03*
X0006995Y0064127D03*
X0006773Y0063467D03*
D32*
X0006773Y0071687D03*
X0018884Y0071907D03*
D33*
X0006995Y0077242D03*
X0006773Y0077462D03*
X0006995Y0082132D03*
X0008216Y0082132D03*
X0011662Y0091132D03*
X0012884Y0099352D03*
D34*
X0006884Y0082132D03*
X0006773Y0082132D03*
X0008327Y0077462D03*
D35*
X0008105Y0076352D03*
X0007995Y0083132D03*
X0008105Y0085912D03*
X0006773Y0088242D03*
X0019551Y0057912D03*
D36*
X0006884Y0057907D03*
X0015662Y0073907D03*
X0015773Y0073907D03*
X0015884Y0073907D03*
D37*
X0019327Y0073737D03*
X0006884Y0071517D03*
X0006884Y0077407D03*
X0008105Y0082077D03*
D38*
X0007995Y0085967D03*
X0006884Y0088187D03*
D39*
X0008551Y0088852D03*
X0013662Y0077962D03*
X0015327Y0073962D03*
X0015551Y0073852D03*
X0010105Y0069962D03*
X0009995Y0069962D03*
X0006995Y0057742D03*
X0007105Y0057632D03*
X0012551Y0100962D03*
D40*
X0011327Y0098407D03*
X0006995Y0071407D03*
D41*
X0019105Y0063967D03*
X0006995Y0088077D03*
D42*
X0008551Y0082127D03*
X0007105Y0064467D03*
D43*
X0007105Y0071242D03*
D44*
X0007773Y0073357D03*
X0007884Y0073467D03*
X0007995Y0073467D03*
X0008105Y0073467D03*
X0008216Y0073357D03*
X0007995Y0075907D03*
X0010105Y0071237D03*
X0010216Y0071127D03*
X0010327Y0071127D03*
X0010551Y0071017D03*
X0010884Y0071017D03*
X0012773Y0069577D03*
X0012884Y0069577D03*
X0013551Y0069577D03*
X0013662Y0069577D03*
X0015662Y0070467D03*
X0015773Y0070577D03*
X0014773Y0074467D03*
X0018773Y0075687D03*
X0019662Y0073907D03*
X0012773Y0079467D03*
X0012662Y0079467D03*
X0012551Y0079467D03*
X0007105Y0083577D03*
X0007551Y0086907D03*
X0011551Y0054797D03*
X0011662Y0054797D03*
X0012216Y0054687D03*
X0012327Y0054687D03*
X0012551Y0054687D03*
X0012662Y0054687D03*
X0012773Y0054687D03*
X0012884Y0054687D03*
X0013662Y0054687D03*
X0013773Y0054687D03*
X0013884Y0054687D03*
X0013995Y0054687D03*
X0014105Y0054687D03*
X0014551Y0054797D03*
X0014662Y0054797D03*
X0014773Y0054797D03*
X0015105Y0054907D03*
X0015216Y0054907D03*
X0015551Y0055017D03*
X0015662Y0055017D03*
X0015884Y0055127D03*
X0015995Y0055127D03*
X0016216Y0055237D03*
X0016327Y0055237D03*
X0016551Y0055357D03*
X0016773Y0055467D03*
X0016995Y0055577D03*
X0017216Y0055687D03*
X0017662Y0055907D03*
X0017773Y0056017D03*
X0017995Y0056127D03*
D45*
X0019327Y0063462D03*
X0018884Y0064572D03*
X0017773Y0068022D03*
X0008662Y0066572D03*
X0007105Y0088022D03*
X0012773Y0100132D03*
D46*
X0012216Y0084517D03*
X0014551Y0080077D03*
X0018216Y0076187D03*
X0009773Y0070077D03*
X0007216Y0057407D03*
D47*
X0007216Y0064797D03*
D48*
X0007216Y0071072D03*
X0011105Y0097742D03*
D49*
X0007884Y0075742D03*
X0007216Y0075742D03*
X0010662Y0070962D03*
X0010773Y0070962D03*
X0015884Y0070632D03*
X0016662Y0055412D03*
X0016105Y0055182D03*
X0015327Y0054962D03*
X0014995Y0054852D03*
X0014884Y0054852D03*
X0014327Y0054742D03*
X0014216Y0054742D03*
X0013551Y0054632D03*
X0013327Y0054632D03*
X0013216Y0054632D03*
X0013105Y0054632D03*
X0012995Y0054632D03*
X0012105Y0054742D03*
X0011995Y0054742D03*
X0011884Y0054742D03*
X0011773Y0054742D03*
X0011327Y0054852D03*
X0011216Y0054852D03*
X0011105Y0054852D03*
X0010995Y0054962D03*
X0010884Y0054962D03*
X0010773Y0054962D03*
X0010662Y0054962D03*
X0010216Y0055182D03*
X0010105Y0055182D03*
X0009662Y0055412D03*
X0009216Y0055632D03*
X0008995Y0055742D03*
X0008662Y0055962D03*
D50*
X0010327Y0055072D03*
X0010551Y0055072D03*
X0015773Y0055072D03*
X0016884Y0055522D03*
X0012662Y0069522D03*
X0012551Y0069522D03*
X0012327Y0069522D03*
X0012216Y0069522D03*
X0012105Y0069522D03*
X0007995Y0080522D03*
X0007216Y0080522D03*
D51*
X0007327Y0080467D03*
X0007884Y0080467D03*
X0007884Y0083797D03*
X0007773Y0083797D03*
X0007662Y0083797D03*
X0007551Y0083797D03*
X0007327Y0083797D03*
X0007216Y0083797D03*
X0008662Y0085577D03*
X0011216Y0093017D03*
X0018662Y0075907D03*
X0015995Y0070687D03*
X0011995Y0069577D03*
X0011884Y0069577D03*
X0011773Y0069577D03*
X0011662Y0069577D03*
X0011551Y0069577D03*
X0011216Y0069687D03*
X0011105Y0069687D03*
X0007773Y0075687D03*
X0007551Y0075577D03*
X0007327Y0075577D03*
X0007995Y0056577D03*
X0008105Y0056467D03*
X0008551Y0056017D03*
X0008773Y0055907D03*
X0008884Y0055797D03*
X0009105Y0055687D03*
X0009327Y0055577D03*
X0009551Y0055467D03*
D52*
X0007773Y0056742D03*
X0007662Y0056852D03*
X0010773Y0069742D03*
X0010884Y0069742D03*
X0010995Y0069742D03*
X0008327Y0088852D03*
X0008216Y0088852D03*
X0008105Y0088852D03*
X0007995Y0088852D03*
X0007884Y0088852D03*
X0007773Y0088852D03*
X0007662Y0088852D03*
X0007551Y0088852D03*
X0007327Y0088852D03*
X0007216Y0088852D03*
X0012105Y0100742D03*
D53*
X0010884Y0093242D03*
X0010773Y0093242D03*
X0018327Y0076132D03*
X0007327Y0057242D03*
D54*
X0007327Y0068572D03*
D55*
X0007439Y0057132D03*
D56*
X0007439Y0068687D03*
D57*
X0007439Y0075577D03*
X0007439Y0083797D03*
X0008439Y0056127D03*
D58*
X0007439Y0080407D03*
X0007439Y0085297D03*
D59*
X0007439Y0087072D03*
X0014439Y0069742D03*
D60*
X0008439Y0088852D03*
X0007439Y0088852D03*
D61*
X0011662Y0100522D03*
X0011884Y0100632D03*
X0018551Y0075962D03*
X0015105Y0074072D03*
X0011327Y0069632D03*
X0007662Y0075632D03*
X0007551Y0056962D03*
X0007884Y0056632D03*
D62*
X0007551Y0067852D03*
D63*
X0007551Y0073242D03*
X0008327Y0073242D03*
D64*
X0007662Y0067632D03*
D65*
X0009995Y0071297D03*
X0007662Y0073297D03*
X0018216Y0056297D03*
D66*
X0007773Y0067577D03*
D67*
X0007884Y0067517D03*
D68*
X0007995Y0067462D03*
X0019995Y0060462D03*
D69*
X0019105Y0073412D03*
X0008105Y0067412D03*
D70*
X0010216Y0069907D03*
X0010327Y0069907D03*
X0010551Y0069797D03*
X0010662Y0069797D03*
X0016105Y0070907D03*
X0015216Y0074017D03*
X0008105Y0078797D03*
X0011773Y0100577D03*
X0011995Y0100687D03*
X0012216Y0100797D03*
X0012327Y0100907D03*
X0012662Y0101017D03*
D71*
X0008216Y0056352D03*
X0008327Y0056242D03*
X0009773Y0055352D03*
X0009995Y0055242D03*
D72*
X0008216Y0067297D03*
X0013773Y0093407D03*
D73*
X0008216Y0085852D03*
X0009327Y0066742D03*
D74*
X0008327Y0067187D03*
D75*
X0009662Y0066962D03*
X0011216Y0067632D03*
X0011662Y0067742D03*
X0012216Y0067852D03*
X0012327Y0067852D03*
X0012662Y0067852D03*
X0008327Y0085742D03*
D76*
X0008439Y0067077D03*
X0020439Y0060407D03*
D77*
X0008439Y0073187D03*
D78*
X0008439Y0077517D03*
X0008439Y0082077D03*
D79*
X0008439Y0085687D03*
X0012439Y0067907D03*
X0011439Y0067687D03*
D80*
X0008551Y0066907D03*
D81*
X0010995Y0067577D03*
X0011105Y0067577D03*
X0011327Y0067687D03*
X0011551Y0067687D03*
X0012551Y0067907D03*
X0008551Y0073017D03*
X0014662Y0074687D03*
X0018995Y0057017D03*
X0010216Y0093687D03*
D82*
X0008551Y0077577D03*
D83*
X0009105Y0070352D03*
X0009216Y0070242D03*
X0009327Y0070242D03*
X0008662Y0067912D03*
X0016327Y0074352D03*
X0017551Y0076462D03*
D84*
X0009551Y0066907D03*
X0009216Y0066687D03*
X0008773Y0072797D03*
X0008662Y0072907D03*
X0010327Y0093797D03*
X0011551Y0099907D03*
D85*
X0010884Y0095522D03*
X0008662Y0082072D03*
X0018551Y0065522D03*
D86*
X0008662Y0088852D03*
D87*
X0008884Y0072627D03*
X0011216Y0071407D03*
X0008995Y0066517D03*
X0008884Y0066407D03*
X0008773Y0066407D03*
D88*
X0008773Y0077797D03*
X0018773Y0064797D03*
D89*
X0013884Y0066462D03*
X0009995Y0067132D03*
X0009773Y0067022D03*
X0009105Y0066572D03*
X0009327Y0072022D03*
X0009216Y0072132D03*
X0008995Y0072462D03*
X0019327Y0057462D03*
D90*
X0018884Y0075352D03*
X0009105Y0072352D03*
D91*
X0012439Y0069522D03*
X0009439Y0055522D03*
X0010439Y0055072D03*
D92*
X0009439Y0066797D03*
D93*
X0009439Y0070187D03*
D94*
X0009439Y0071852D03*
D95*
X0009551Y0070187D03*
X0016216Y0074187D03*
X0017662Y0076407D03*
D96*
X0013551Y0079522D03*
X0009551Y0071742D03*
X0009662Y0071632D03*
X0009773Y0071522D03*
X0018884Y0056852D03*
D97*
X0017662Y0068132D03*
X0015995Y0074022D03*
X0017773Y0076352D03*
X0017884Y0076352D03*
X0018105Y0076242D03*
X0014551Y0077242D03*
X0009884Y0070022D03*
X0009662Y0070132D03*
D98*
X0014884Y0074297D03*
X0009884Y0055297D03*
D99*
X0017995Y0076297D03*
X0009884Y0093297D03*
D100*
X0010439Y0067352D03*
D101*
X0010439Y0069797D03*
X0015439Y0073907D03*
X0012439Y0100907D03*
D102*
X0012439Y0079467D03*
X0010439Y0071017D03*
X0013439Y0069577D03*
X0017439Y0055797D03*
X0016439Y0055357D03*
X0012439Y0054687D03*
D103*
X0010439Y0093967D03*
D104*
X0010551Y0094187D03*
X0010773Y0095077D03*
X0018662Y0065187D03*
D105*
X0019105Y0057132D03*
X0010773Y0067462D03*
X0010662Y0067462D03*
X0011105Y0071242D03*
D106*
X0010662Y0094352D03*
D107*
X0013105Y0079467D03*
X0013216Y0079467D03*
X0013327Y0079467D03*
X0010995Y0071127D03*
X0018551Y0056577D03*
D108*
X0018551Y0070352D03*
X0010995Y0096242D03*
D109*
X0011216Y0098072D03*
D110*
X0011327Y0071687D03*
D111*
X0011439Y0054852D03*
X0013439Y0054632D03*
X0014439Y0054742D03*
X0015439Y0054962D03*
D112*
X0011439Y0074682D03*
D113*
X0011439Y0092462D03*
D114*
X0011439Y0098742D03*
D115*
X0011551Y0076742D03*
D116*
X0011662Y0077962D03*
D117*
X0011773Y0067797D03*
X0011884Y0067797D03*
X0011995Y0067797D03*
X0012105Y0067797D03*
D118*
X0011773Y0081912D03*
D119*
X0011884Y0080912D03*
D120*
X0011995Y0080077D03*
D121*
X0012105Y0079242D03*
D122*
X0012216Y0077852D03*
D123*
X0012327Y0076022D03*
D124*
X0012439Y0074017D03*
D125*
X0012662Y0066297D03*
D126*
X0012773Y0066572D03*
D127*
X0012884Y0065907D03*
D128*
X0012995Y0065352D03*
X0019773Y0060462D03*
D129*
X0012995Y0098907D03*
D130*
X0013105Y0064682D03*
D131*
X0013105Y0098462D03*
D132*
X0013216Y0064072D03*
D133*
X0013216Y0097852D03*
D134*
X0013327Y0064517D03*
D135*
X0013327Y0097352D03*
D136*
X0013439Y0065017D03*
D137*
X0013439Y0079522D03*
D138*
X0013439Y0096682D03*
D139*
X0013551Y0065462D03*
X0019884Y0060462D03*
D140*
X0013551Y0095852D03*
D141*
X0013662Y0065907D03*
D142*
X0013662Y0094632D03*
D143*
X0013773Y0078072D03*
D144*
X0013884Y0077962D03*
X0018216Y0067962D03*
D145*
X0013995Y0078242D03*
D146*
X0014105Y0079352D03*
D147*
X0014216Y0079687D03*
D148*
X0014327Y0079407D03*
D149*
X0014439Y0078687D03*
D150*
X0014551Y0075352D03*
D151*
X0016105Y0074077D03*
X0014551Y0078627D03*
D152*
X0015439Y0070297D03*
D153*
X0016439Y0074462D03*
D154*
X0017995Y0067967D03*
D155*
X0018105Y0067962D03*
X0020216Y0060412D03*
D156*
X0018327Y0068022D03*
D157*
X0018439Y0056467D03*
D158*
X0018439Y0068017D03*
D159*
X0018773Y0056797D03*
X0018662Y0056687D03*
D160*
X0018773Y0071297D03*
D161*
X0018995Y0064297D03*
X0019662Y0058187D03*
D162*
X0018995Y0073297D03*
D163*
X0019216Y0063742D03*
D164*
X0019216Y0073577D03*
D165*
X0019439Y0057627D03*
D166*
X0019439Y0073742D03*
D167*
X0020105Y0060407D03*
D168*
X0020327Y0060462D03*
D169*
X0020662Y0060462D03*
D170*
X0078582Y0197217D02*
X0078584Y0197296D01*
X0078590Y0197375D01*
X0078600Y0197454D01*
X0078614Y0197532D01*
X0078631Y0197609D01*
X0078653Y0197685D01*
X0078678Y0197760D01*
X0078708Y0197833D01*
X0078740Y0197905D01*
X0078777Y0197976D01*
X0078817Y0198044D01*
X0078860Y0198110D01*
X0078906Y0198174D01*
X0078956Y0198236D01*
X0079009Y0198295D01*
X0079064Y0198351D01*
X0079123Y0198405D01*
X0079184Y0198455D01*
X0079247Y0198503D01*
X0079313Y0198547D01*
X0079381Y0198588D01*
X0079451Y0198625D01*
X0079522Y0198659D01*
X0079596Y0198689D01*
X0079670Y0198715D01*
X0079746Y0198737D01*
X0079823Y0198756D01*
X0079901Y0198771D01*
X0079979Y0198782D01*
X0080058Y0198789D01*
X0080137Y0198792D01*
X0080216Y0198791D01*
X0080295Y0198786D01*
X0080374Y0198777D01*
X0080452Y0198764D01*
X0080529Y0198747D01*
X0080606Y0198727D01*
X0080681Y0198702D01*
X0080755Y0198674D01*
X0080828Y0198642D01*
X0080898Y0198607D01*
X0080967Y0198568D01*
X0081034Y0198525D01*
X0081099Y0198479D01*
X0081161Y0198431D01*
X0081221Y0198379D01*
X0081278Y0198324D01*
X0081332Y0198266D01*
X0081383Y0198206D01*
X0081431Y0198143D01*
X0081476Y0198078D01*
X0081518Y0198010D01*
X0081556Y0197941D01*
X0081590Y0197870D01*
X0081621Y0197797D01*
X0081649Y0197722D01*
X0081672Y0197647D01*
X0081692Y0197570D01*
X0081708Y0197493D01*
X0081720Y0197414D01*
X0081728Y0197336D01*
X0081732Y0197257D01*
X0081732Y0197177D01*
X0081728Y0197098D01*
X0081720Y0197020D01*
X0081708Y0196941D01*
X0081692Y0196864D01*
X0081672Y0196787D01*
X0081649Y0196712D01*
X0081621Y0196637D01*
X0081590Y0196564D01*
X0081556Y0196493D01*
X0081518Y0196424D01*
X0081476Y0196356D01*
X0081431Y0196291D01*
X0081383Y0196228D01*
X0081332Y0196168D01*
X0081278Y0196110D01*
X0081221Y0196055D01*
X0081161Y0196003D01*
X0081099Y0195955D01*
X0081034Y0195909D01*
X0080967Y0195866D01*
X0080898Y0195827D01*
X0080828Y0195792D01*
X0080755Y0195760D01*
X0080681Y0195732D01*
X0080606Y0195707D01*
X0080529Y0195687D01*
X0080452Y0195670D01*
X0080374Y0195657D01*
X0080295Y0195648D01*
X0080216Y0195643D01*
X0080137Y0195642D01*
X0080058Y0195645D01*
X0079979Y0195652D01*
X0079901Y0195663D01*
X0079823Y0195678D01*
X0079746Y0195697D01*
X0079670Y0195719D01*
X0079596Y0195745D01*
X0079522Y0195775D01*
X0079451Y0195809D01*
X0079381Y0195846D01*
X0079313Y0195887D01*
X0079247Y0195931D01*
X0079184Y0195979D01*
X0079123Y0196029D01*
X0079064Y0196083D01*
X0079009Y0196139D01*
X0078956Y0196198D01*
X0078906Y0196260D01*
X0078860Y0196324D01*
X0078817Y0196390D01*
X0078777Y0196458D01*
X0078740Y0196529D01*
X0078708Y0196601D01*
X0078678Y0196674D01*
X0078653Y0196749D01*
X0078631Y0196825D01*
X0078614Y0196902D01*
X0078600Y0196980D01*
X0078590Y0197059D01*
X0078584Y0197138D01*
X0078582Y0197217D01*
X0098268Y0197217D02*
X0098270Y0197296D01*
X0098276Y0197375D01*
X0098286Y0197454D01*
X0098300Y0197532D01*
X0098317Y0197609D01*
X0098339Y0197685D01*
X0098364Y0197760D01*
X0098394Y0197833D01*
X0098426Y0197905D01*
X0098463Y0197976D01*
X0098503Y0198044D01*
X0098546Y0198110D01*
X0098592Y0198174D01*
X0098642Y0198236D01*
X0098695Y0198295D01*
X0098750Y0198351D01*
X0098809Y0198405D01*
X0098870Y0198455D01*
X0098933Y0198503D01*
X0098999Y0198547D01*
X0099067Y0198588D01*
X0099137Y0198625D01*
X0099208Y0198659D01*
X0099282Y0198689D01*
X0099356Y0198715D01*
X0099432Y0198737D01*
X0099509Y0198756D01*
X0099587Y0198771D01*
X0099665Y0198782D01*
X0099744Y0198789D01*
X0099823Y0198792D01*
X0099902Y0198791D01*
X0099981Y0198786D01*
X0100060Y0198777D01*
X0100138Y0198764D01*
X0100215Y0198747D01*
X0100292Y0198727D01*
X0100367Y0198702D01*
X0100441Y0198674D01*
X0100514Y0198642D01*
X0100584Y0198607D01*
X0100653Y0198568D01*
X0100720Y0198525D01*
X0100785Y0198479D01*
X0100847Y0198431D01*
X0100907Y0198379D01*
X0100964Y0198324D01*
X0101018Y0198266D01*
X0101069Y0198206D01*
X0101117Y0198143D01*
X0101162Y0198078D01*
X0101204Y0198010D01*
X0101242Y0197941D01*
X0101276Y0197870D01*
X0101307Y0197797D01*
X0101335Y0197722D01*
X0101358Y0197647D01*
X0101378Y0197570D01*
X0101394Y0197493D01*
X0101406Y0197414D01*
X0101414Y0197336D01*
X0101418Y0197257D01*
X0101418Y0197177D01*
X0101414Y0197098D01*
X0101406Y0197020D01*
X0101394Y0196941D01*
X0101378Y0196864D01*
X0101358Y0196787D01*
X0101335Y0196712D01*
X0101307Y0196637D01*
X0101276Y0196564D01*
X0101242Y0196493D01*
X0101204Y0196424D01*
X0101162Y0196356D01*
X0101117Y0196291D01*
X0101069Y0196228D01*
X0101018Y0196168D01*
X0100964Y0196110D01*
X0100907Y0196055D01*
X0100847Y0196003D01*
X0100785Y0195955D01*
X0100720Y0195909D01*
X0100653Y0195866D01*
X0100584Y0195827D01*
X0100514Y0195792D01*
X0100441Y0195760D01*
X0100367Y0195732D01*
X0100292Y0195707D01*
X0100215Y0195687D01*
X0100138Y0195670D01*
X0100060Y0195657D01*
X0099981Y0195648D01*
X0099902Y0195643D01*
X0099823Y0195642D01*
X0099744Y0195645D01*
X0099665Y0195652D01*
X0099587Y0195663D01*
X0099509Y0195678D01*
X0099432Y0195697D01*
X0099356Y0195719D01*
X0099282Y0195745D01*
X0099208Y0195775D01*
X0099137Y0195809D01*
X0099067Y0195846D01*
X0098999Y0195887D01*
X0098933Y0195931D01*
X0098870Y0195979D01*
X0098809Y0196029D01*
X0098750Y0196083D01*
X0098695Y0196139D01*
X0098642Y0196198D01*
X0098592Y0196260D01*
X0098546Y0196324D01*
X0098503Y0196390D01*
X0098463Y0196458D01*
X0098426Y0196529D01*
X0098394Y0196601D01*
X0098364Y0196674D01*
X0098339Y0196749D01*
X0098317Y0196825D01*
X0098300Y0196902D01*
X0098286Y0196980D01*
X0098276Y0197059D01*
X0098270Y0197138D01*
X0098268Y0197217D01*
X0053524Y0202087D02*
X0053526Y0202164D01*
X0053532Y0202240D01*
X0053542Y0202316D01*
X0053556Y0202391D01*
X0053573Y0202466D01*
X0053595Y0202539D01*
X0053620Y0202612D01*
X0053650Y0202683D01*
X0053682Y0202752D01*
X0053719Y0202819D01*
X0053758Y0202885D01*
X0053801Y0202948D01*
X0053848Y0203009D01*
X0053897Y0203068D01*
X0053950Y0203124D01*
X0054005Y0203177D01*
X0054063Y0203227D01*
X0054123Y0203274D01*
X0054186Y0203318D01*
X0054251Y0203359D01*
X0054318Y0203396D01*
X0054387Y0203430D01*
X0054457Y0203460D01*
X0054529Y0203486D01*
X0054603Y0203508D01*
X0054677Y0203527D01*
X0054752Y0203542D01*
X0054828Y0203553D01*
X0054904Y0203560D01*
X0054981Y0203563D01*
X0055057Y0203562D01*
X0055134Y0203557D01*
X0055210Y0203548D01*
X0055286Y0203535D01*
X0055360Y0203518D01*
X0055434Y0203498D01*
X0055507Y0203473D01*
X0055578Y0203445D01*
X0055648Y0203413D01*
X0055716Y0203378D01*
X0055782Y0203339D01*
X0055846Y0203297D01*
X0055907Y0203251D01*
X0055967Y0203202D01*
X0056023Y0203151D01*
X0056077Y0203096D01*
X0056128Y0203039D01*
X0056176Y0202979D01*
X0056221Y0202917D01*
X0056262Y0202852D01*
X0056300Y0202786D01*
X0056335Y0202718D01*
X0056365Y0202647D01*
X0056393Y0202576D01*
X0056416Y0202503D01*
X0056436Y0202429D01*
X0056452Y0202354D01*
X0056464Y0202278D01*
X0056472Y0202202D01*
X0056476Y0202125D01*
X0056476Y0202049D01*
X0056472Y0201972D01*
X0056464Y0201896D01*
X0056452Y0201820D01*
X0056436Y0201745D01*
X0056416Y0201671D01*
X0056393Y0201598D01*
X0056365Y0201527D01*
X0056335Y0201456D01*
X0056300Y0201388D01*
X0056262Y0201322D01*
X0056221Y0201257D01*
X0056176Y0201195D01*
X0056128Y0201135D01*
X0056077Y0201078D01*
X0056023Y0201023D01*
X0055967Y0200972D01*
X0055907Y0200923D01*
X0055846Y0200877D01*
X0055782Y0200835D01*
X0055716Y0200796D01*
X0055648Y0200761D01*
X0055578Y0200729D01*
X0055507Y0200701D01*
X0055434Y0200676D01*
X0055360Y0200656D01*
X0055286Y0200639D01*
X0055210Y0200626D01*
X0055134Y0200617D01*
X0055057Y0200612D01*
X0054981Y0200611D01*
X0054904Y0200614D01*
X0054828Y0200621D01*
X0054752Y0200632D01*
X0054677Y0200647D01*
X0054603Y0200666D01*
X0054529Y0200688D01*
X0054457Y0200714D01*
X0054387Y0200744D01*
X0054318Y0200778D01*
X0054251Y0200815D01*
X0054186Y0200856D01*
X0054123Y0200900D01*
X0054063Y0200947D01*
X0054005Y0200997D01*
X0053950Y0201050D01*
X0053897Y0201106D01*
X0053848Y0201165D01*
X0053801Y0201226D01*
X0053758Y0201289D01*
X0053719Y0201355D01*
X0053682Y0201422D01*
X0053650Y0201491D01*
X0053620Y0201562D01*
X0053595Y0201635D01*
X0053573Y0201708D01*
X0053556Y0201783D01*
X0053542Y0201858D01*
X0053532Y0201934D01*
X0053526Y0202010D01*
X0053524Y0202087D01*
X0053526Y0202164D01*
X0053532Y0202240D01*
X0053542Y0202316D01*
X0053556Y0202391D01*
X0053573Y0202466D01*
X0053595Y0202539D01*
X0053620Y0202612D01*
X0053650Y0202683D01*
X0053682Y0202752D01*
X0053719Y0202819D01*
X0053758Y0202885D01*
X0053801Y0202948D01*
X0053848Y0203009D01*
X0053897Y0203068D01*
X0053950Y0203124D01*
X0054005Y0203177D01*
X0054063Y0203227D01*
X0054123Y0203274D01*
X0054186Y0203318D01*
X0054251Y0203359D01*
X0054318Y0203396D01*
X0054387Y0203430D01*
X0054457Y0203460D01*
X0054529Y0203486D01*
X0054603Y0203508D01*
X0054677Y0203527D01*
X0054752Y0203542D01*
X0054828Y0203553D01*
X0054904Y0203560D01*
X0054981Y0203563D01*
X0055057Y0203562D01*
X0055134Y0203557D01*
X0055210Y0203548D01*
X0055286Y0203535D01*
X0055360Y0203518D01*
X0055434Y0203498D01*
X0055507Y0203473D01*
X0055578Y0203445D01*
X0055648Y0203413D01*
X0055716Y0203378D01*
X0055782Y0203339D01*
X0055846Y0203297D01*
X0055907Y0203251D01*
X0055967Y0203202D01*
X0056023Y0203151D01*
X0056077Y0203096D01*
X0056128Y0203039D01*
X0056176Y0202979D01*
X0056221Y0202917D01*
X0056262Y0202852D01*
X0056300Y0202786D01*
X0056335Y0202718D01*
X0056365Y0202647D01*
X0056393Y0202576D01*
X0056416Y0202503D01*
X0056436Y0202429D01*
X0056452Y0202354D01*
X0056464Y0202278D01*
X0056472Y0202202D01*
X0056476Y0202125D01*
X0056476Y0202049D01*
X0056472Y0201972D01*
X0056464Y0201896D01*
X0056452Y0201820D01*
X0056436Y0201745D01*
X0056416Y0201671D01*
X0056393Y0201598D01*
X0056365Y0201527D01*
X0056335Y0201456D01*
X0056300Y0201388D01*
X0056262Y0201322D01*
X0056221Y0201257D01*
X0056176Y0201195D01*
X0056128Y0201135D01*
X0056077Y0201078D01*
X0056023Y0201023D01*
X0055967Y0200972D01*
X0055907Y0200923D01*
X0055846Y0200877D01*
X0055782Y0200835D01*
X0055716Y0200796D01*
X0055648Y0200761D01*
X0055578Y0200729D01*
X0055507Y0200701D01*
X0055434Y0200676D01*
X0055360Y0200656D01*
X0055286Y0200639D01*
X0055210Y0200626D01*
X0055134Y0200617D01*
X0055057Y0200612D01*
X0054981Y0200611D01*
X0054904Y0200614D01*
X0054828Y0200621D01*
X0054752Y0200632D01*
X0054677Y0200647D01*
X0054603Y0200666D01*
X0054529Y0200688D01*
X0054457Y0200714D01*
X0054387Y0200744D01*
X0054318Y0200778D01*
X0054251Y0200815D01*
X0054186Y0200856D01*
X0054123Y0200900D01*
X0054063Y0200947D01*
X0054005Y0200997D01*
X0053950Y0201050D01*
X0053897Y0201106D01*
X0053848Y0201165D01*
X0053801Y0201226D01*
X0053758Y0201289D01*
X0053719Y0201355D01*
X0053682Y0201422D01*
X0053650Y0201491D01*
X0053620Y0201562D01*
X0053595Y0201635D01*
X0053573Y0201708D01*
X0053556Y0201783D01*
X0053542Y0201858D01*
X0053532Y0201934D01*
X0053526Y0202010D01*
X0053524Y0202087D01*
X0053524Y0212913D02*
X0053526Y0212990D01*
X0053532Y0213066D01*
X0053542Y0213142D01*
X0053556Y0213217D01*
X0053573Y0213292D01*
X0053595Y0213365D01*
X0053620Y0213438D01*
X0053650Y0213509D01*
X0053682Y0213578D01*
X0053719Y0213645D01*
X0053758Y0213711D01*
X0053801Y0213774D01*
X0053848Y0213835D01*
X0053897Y0213894D01*
X0053950Y0213950D01*
X0054005Y0214003D01*
X0054063Y0214053D01*
X0054123Y0214100D01*
X0054186Y0214144D01*
X0054251Y0214185D01*
X0054318Y0214222D01*
X0054387Y0214256D01*
X0054457Y0214286D01*
X0054529Y0214312D01*
X0054603Y0214334D01*
X0054677Y0214353D01*
X0054752Y0214368D01*
X0054828Y0214379D01*
X0054904Y0214386D01*
X0054981Y0214389D01*
X0055057Y0214388D01*
X0055134Y0214383D01*
X0055210Y0214374D01*
X0055286Y0214361D01*
X0055360Y0214344D01*
X0055434Y0214324D01*
X0055507Y0214299D01*
X0055578Y0214271D01*
X0055648Y0214239D01*
X0055716Y0214204D01*
X0055782Y0214165D01*
X0055846Y0214123D01*
X0055907Y0214077D01*
X0055967Y0214028D01*
X0056023Y0213977D01*
X0056077Y0213922D01*
X0056128Y0213865D01*
X0056176Y0213805D01*
X0056221Y0213743D01*
X0056262Y0213678D01*
X0056300Y0213612D01*
X0056335Y0213544D01*
X0056365Y0213473D01*
X0056393Y0213402D01*
X0056416Y0213329D01*
X0056436Y0213255D01*
X0056452Y0213180D01*
X0056464Y0213104D01*
X0056472Y0213028D01*
X0056476Y0212951D01*
X0056476Y0212875D01*
X0056472Y0212798D01*
X0056464Y0212722D01*
X0056452Y0212646D01*
X0056436Y0212571D01*
X0056416Y0212497D01*
X0056393Y0212424D01*
X0056365Y0212353D01*
X0056335Y0212282D01*
X0056300Y0212214D01*
X0056262Y0212148D01*
X0056221Y0212083D01*
X0056176Y0212021D01*
X0056128Y0211961D01*
X0056077Y0211904D01*
X0056023Y0211849D01*
X0055967Y0211798D01*
X0055907Y0211749D01*
X0055846Y0211703D01*
X0055782Y0211661D01*
X0055716Y0211622D01*
X0055648Y0211587D01*
X0055578Y0211555D01*
X0055507Y0211527D01*
X0055434Y0211502D01*
X0055360Y0211482D01*
X0055286Y0211465D01*
X0055210Y0211452D01*
X0055134Y0211443D01*
X0055057Y0211438D01*
X0054981Y0211437D01*
X0054904Y0211440D01*
X0054828Y0211447D01*
X0054752Y0211458D01*
X0054677Y0211473D01*
X0054603Y0211492D01*
X0054529Y0211514D01*
X0054457Y0211540D01*
X0054387Y0211570D01*
X0054318Y0211604D01*
X0054251Y0211641D01*
X0054186Y0211682D01*
X0054123Y0211726D01*
X0054063Y0211773D01*
X0054005Y0211823D01*
X0053950Y0211876D01*
X0053897Y0211932D01*
X0053848Y0211991D01*
X0053801Y0212052D01*
X0053758Y0212115D01*
X0053719Y0212181D01*
X0053682Y0212248D01*
X0053650Y0212317D01*
X0053620Y0212388D01*
X0053595Y0212461D01*
X0053573Y0212534D01*
X0053556Y0212609D01*
X0053542Y0212684D01*
X0053532Y0212760D01*
X0053526Y0212836D01*
X0053524Y0212913D01*
X0053526Y0212990D01*
X0053532Y0213066D01*
X0053542Y0213142D01*
X0053556Y0213217D01*
X0053573Y0213292D01*
X0053595Y0213365D01*
X0053620Y0213438D01*
X0053650Y0213509D01*
X0053682Y0213578D01*
X0053719Y0213645D01*
X0053758Y0213711D01*
X0053801Y0213774D01*
X0053848Y0213835D01*
X0053897Y0213894D01*
X0053950Y0213950D01*
X0054005Y0214003D01*
X0054063Y0214053D01*
X0054123Y0214100D01*
X0054186Y0214144D01*
X0054251Y0214185D01*
X0054318Y0214222D01*
X0054387Y0214256D01*
X0054457Y0214286D01*
X0054529Y0214312D01*
X0054603Y0214334D01*
X0054677Y0214353D01*
X0054752Y0214368D01*
X0054828Y0214379D01*
X0054904Y0214386D01*
X0054981Y0214389D01*
X0055057Y0214388D01*
X0055134Y0214383D01*
X0055210Y0214374D01*
X0055286Y0214361D01*
X0055360Y0214344D01*
X0055434Y0214324D01*
X0055507Y0214299D01*
X0055578Y0214271D01*
X0055648Y0214239D01*
X0055716Y0214204D01*
X0055782Y0214165D01*
X0055846Y0214123D01*
X0055907Y0214077D01*
X0055967Y0214028D01*
X0056023Y0213977D01*
X0056077Y0213922D01*
X0056128Y0213865D01*
X0056176Y0213805D01*
X0056221Y0213743D01*
X0056262Y0213678D01*
X0056300Y0213612D01*
X0056335Y0213544D01*
X0056365Y0213473D01*
X0056393Y0213402D01*
X0056416Y0213329D01*
X0056436Y0213255D01*
X0056452Y0213180D01*
X0056464Y0213104D01*
X0056472Y0213028D01*
X0056476Y0212951D01*
X0056476Y0212875D01*
X0056472Y0212798D01*
X0056464Y0212722D01*
X0056452Y0212646D01*
X0056436Y0212571D01*
X0056416Y0212497D01*
X0056393Y0212424D01*
X0056365Y0212353D01*
X0056335Y0212282D01*
X0056300Y0212214D01*
X0056262Y0212148D01*
X0056221Y0212083D01*
X0056176Y0212021D01*
X0056128Y0211961D01*
X0056077Y0211904D01*
X0056023Y0211849D01*
X0055967Y0211798D01*
X0055907Y0211749D01*
X0055846Y0211703D01*
X0055782Y0211661D01*
X0055716Y0211622D01*
X0055648Y0211587D01*
X0055578Y0211555D01*
X0055507Y0211527D01*
X0055434Y0211502D01*
X0055360Y0211482D01*
X0055286Y0211465D01*
X0055210Y0211452D01*
X0055134Y0211443D01*
X0055057Y0211438D01*
X0054981Y0211437D01*
X0054904Y0211440D01*
X0054828Y0211447D01*
X0054752Y0211458D01*
X0054677Y0211473D01*
X0054603Y0211492D01*
X0054529Y0211514D01*
X0054457Y0211540D01*
X0054387Y0211570D01*
X0054318Y0211604D01*
X0054251Y0211641D01*
X0054186Y0211682D01*
X0054123Y0211726D01*
X0054063Y0211773D01*
X0054005Y0211823D01*
X0053950Y0211876D01*
X0053897Y0211932D01*
X0053848Y0211991D01*
X0053801Y0212052D01*
X0053758Y0212115D01*
X0053719Y0212181D01*
X0053682Y0212248D01*
X0053650Y0212317D01*
X0053620Y0212388D01*
X0053595Y0212461D01*
X0053573Y0212534D01*
X0053556Y0212609D01*
X0053542Y0212684D01*
X0053532Y0212760D01*
X0053526Y0212836D01*
X0053524Y0212913D01*
X0023524Y0212913D02*
X0023526Y0212990D01*
X0023532Y0213066D01*
X0023542Y0213142D01*
X0023556Y0213217D01*
X0023573Y0213292D01*
X0023595Y0213365D01*
X0023620Y0213438D01*
X0023650Y0213509D01*
X0023682Y0213578D01*
X0023719Y0213645D01*
X0023758Y0213711D01*
X0023801Y0213774D01*
X0023848Y0213835D01*
X0023897Y0213894D01*
X0023950Y0213950D01*
X0024005Y0214003D01*
X0024063Y0214053D01*
X0024123Y0214100D01*
X0024186Y0214144D01*
X0024251Y0214185D01*
X0024318Y0214222D01*
X0024387Y0214256D01*
X0024457Y0214286D01*
X0024529Y0214312D01*
X0024603Y0214334D01*
X0024677Y0214353D01*
X0024752Y0214368D01*
X0024828Y0214379D01*
X0024904Y0214386D01*
X0024981Y0214389D01*
X0025057Y0214388D01*
X0025134Y0214383D01*
X0025210Y0214374D01*
X0025286Y0214361D01*
X0025360Y0214344D01*
X0025434Y0214324D01*
X0025507Y0214299D01*
X0025578Y0214271D01*
X0025648Y0214239D01*
X0025716Y0214204D01*
X0025782Y0214165D01*
X0025846Y0214123D01*
X0025907Y0214077D01*
X0025967Y0214028D01*
X0026023Y0213977D01*
X0026077Y0213922D01*
X0026128Y0213865D01*
X0026176Y0213805D01*
X0026221Y0213743D01*
X0026262Y0213678D01*
X0026300Y0213612D01*
X0026335Y0213544D01*
X0026365Y0213473D01*
X0026393Y0213402D01*
X0026416Y0213329D01*
X0026436Y0213255D01*
X0026452Y0213180D01*
X0026464Y0213104D01*
X0026472Y0213028D01*
X0026476Y0212951D01*
X0026476Y0212875D01*
X0026472Y0212798D01*
X0026464Y0212722D01*
X0026452Y0212646D01*
X0026436Y0212571D01*
X0026416Y0212497D01*
X0026393Y0212424D01*
X0026365Y0212353D01*
X0026335Y0212282D01*
X0026300Y0212214D01*
X0026262Y0212148D01*
X0026221Y0212083D01*
X0026176Y0212021D01*
X0026128Y0211961D01*
X0026077Y0211904D01*
X0026023Y0211849D01*
X0025967Y0211798D01*
X0025907Y0211749D01*
X0025846Y0211703D01*
X0025782Y0211661D01*
X0025716Y0211622D01*
X0025648Y0211587D01*
X0025578Y0211555D01*
X0025507Y0211527D01*
X0025434Y0211502D01*
X0025360Y0211482D01*
X0025286Y0211465D01*
X0025210Y0211452D01*
X0025134Y0211443D01*
X0025057Y0211438D01*
X0024981Y0211437D01*
X0024904Y0211440D01*
X0024828Y0211447D01*
X0024752Y0211458D01*
X0024677Y0211473D01*
X0024603Y0211492D01*
X0024529Y0211514D01*
X0024457Y0211540D01*
X0024387Y0211570D01*
X0024318Y0211604D01*
X0024251Y0211641D01*
X0024186Y0211682D01*
X0024123Y0211726D01*
X0024063Y0211773D01*
X0024005Y0211823D01*
X0023950Y0211876D01*
X0023897Y0211932D01*
X0023848Y0211991D01*
X0023801Y0212052D01*
X0023758Y0212115D01*
X0023719Y0212181D01*
X0023682Y0212248D01*
X0023650Y0212317D01*
X0023620Y0212388D01*
X0023595Y0212461D01*
X0023573Y0212534D01*
X0023556Y0212609D01*
X0023542Y0212684D01*
X0023532Y0212760D01*
X0023526Y0212836D01*
X0023524Y0212913D01*
X0023526Y0212990D01*
X0023532Y0213066D01*
X0023542Y0213142D01*
X0023556Y0213217D01*
X0023573Y0213292D01*
X0023595Y0213365D01*
X0023620Y0213438D01*
X0023650Y0213509D01*
X0023682Y0213578D01*
X0023719Y0213645D01*
X0023758Y0213711D01*
X0023801Y0213774D01*
X0023848Y0213835D01*
X0023897Y0213894D01*
X0023950Y0213950D01*
X0024005Y0214003D01*
X0024063Y0214053D01*
X0024123Y0214100D01*
X0024186Y0214144D01*
X0024251Y0214185D01*
X0024318Y0214222D01*
X0024387Y0214256D01*
X0024457Y0214286D01*
X0024529Y0214312D01*
X0024603Y0214334D01*
X0024677Y0214353D01*
X0024752Y0214368D01*
X0024828Y0214379D01*
X0024904Y0214386D01*
X0024981Y0214389D01*
X0025057Y0214388D01*
X0025134Y0214383D01*
X0025210Y0214374D01*
X0025286Y0214361D01*
X0025360Y0214344D01*
X0025434Y0214324D01*
X0025507Y0214299D01*
X0025578Y0214271D01*
X0025648Y0214239D01*
X0025716Y0214204D01*
X0025782Y0214165D01*
X0025846Y0214123D01*
X0025907Y0214077D01*
X0025967Y0214028D01*
X0026023Y0213977D01*
X0026077Y0213922D01*
X0026128Y0213865D01*
X0026176Y0213805D01*
X0026221Y0213743D01*
X0026262Y0213678D01*
X0026300Y0213612D01*
X0026335Y0213544D01*
X0026365Y0213473D01*
X0026393Y0213402D01*
X0026416Y0213329D01*
X0026436Y0213255D01*
X0026452Y0213180D01*
X0026464Y0213104D01*
X0026472Y0213028D01*
X0026476Y0212951D01*
X0026476Y0212875D01*
X0026472Y0212798D01*
X0026464Y0212722D01*
X0026452Y0212646D01*
X0026436Y0212571D01*
X0026416Y0212497D01*
X0026393Y0212424D01*
X0026365Y0212353D01*
X0026335Y0212282D01*
X0026300Y0212214D01*
X0026262Y0212148D01*
X0026221Y0212083D01*
X0026176Y0212021D01*
X0026128Y0211961D01*
X0026077Y0211904D01*
X0026023Y0211849D01*
X0025967Y0211798D01*
X0025907Y0211749D01*
X0025846Y0211703D01*
X0025782Y0211661D01*
X0025716Y0211622D01*
X0025648Y0211587D01*
X0025578Y0211555D01*
X0025507Y0211527D01*
X0025434Y0211502D01*
X0025360Y0211482D01*
X0025286Y0211465D01*
X0025210Y0211452D01*
X0025134Y0211443D01*
X0025057Y0211438D01*
X0024981Y0211437D01*
X0024904Y0211440D01*
X0024828Y0211447D01*
X0024752Y0211458D01*
X0024677Y0211473D01*
X0024603Y0211492D01*
X0024529Y0211514D01*
X0024457Y0211540D01*
X0024387Y0211570D01*
X0024318Y0211604D01*
X0024251Y0211641D01*
X0024186Y0211682D01*
X0024123Y0211726D01*
X0024063Y0211773D01*
X0024005Y0211823D01*
X0023950Y0211876D01*
X0023897Y0211932D01*
X0023848Y0211991D01*
X0023801Y0212052D01*
X0023758Y0212115D01*
X0023719Y0212181D01*
X0023682Y0212248D01*
X0023650Y0212317D01*
X0023620Y0212388D01*
X0023595Y0212461D01*
X0023573Y0212534D01*
X0023556Y0212609D01*
X0023542Y0212684D01*
X0023532Y0212760D01*
X0023526Y0212836D01*
X0023524Y0212913D01*
X0023524Y0202087D02*
X0023526Y0202164D01*
X0023532Y0202240D01*
X0023542Y0202316D01*
X0023556Y0202391D01*
X0023573Y0202466D01*
X0023595Y0202539D01*
X0023620Y0202612D01*
X0023650Y0202683D01*
X0023682Y0202752D01*
X0023719Y0202819D01*
X0023758Y0202885D01*
X0023801Y0202948D01*
X0023848Y0203009D01*
X0023897Y0203068D01*
X0023950Y0203124D01*
X0024005Y0203177D01*
X0024063Y0203227D01*
X0024123Y0203274D01*
X0024186Y0203318D01*
X0024251Y0203359D01*
X0024318Y0203396D01*
X0024387Y0203430D01*
X0024457Y0203460D01*
X0024529Y0203486D01*
X0024603Y0203508D01*
X0024677Y0203527D01*
X0024752Y0203542D01*
X0024828Y0203553D01*
X0024904Y0203560D01*
X0024981Y0203563D01*
X0025057Y0203562D01*
X0025134Y0203557D01*
X0025210Y0203548D01*
X0025286Y0203535D01*
X0025360Y0203518D01*
X0025434Y0203498D01*
X0025507Y0203473D01*
X0025578Y0203445D01*
X0025648Y0203413D01*
X0025716Y0203378D01*
X0025782Y0203339D01*
X0025846Y0203297D01*
X0025907Y0203251D01*
X0025967Y0203202D01*
X0026023Y0203151D01*
X0026077Y0203096D01*
X0026128Y0203039D01*
X0026176Y0202979D01*
X0026221Y0202917D01*
X0026262Y0202852D01*
X0026300Y0202786D01*
X0026335Y0202718D01*
X0026365Y0202647D01*
X0026393Y0202576D01*
X0026416Y0202503D01*
X0026436Y0202429D01*
X0026452Y0202354D01*
X0026464Y0202278D01*
X0026472Y0202202D01*
X0026476Y0202125D01*
X0026476Y0202049D01*
X0026472Y0201972D01*
X0026464Y0201896D01*
X0026452Y0201820D01*
X0026436Y0201745D01*
X0026416Y0201671D01*
X0026393Y0201598D01*
X0026365Y0201527D01*
X0026335Y0201456D01*
X0026300Y0201388D01*
X0026262Y0201322D01*
X0026221Y0201257D01*
X0026176Y0201195D01*
X0026128Y0201135D01*
X0026077Y0201078D01*
X0026023Y0201023D01*
X0025967Y0200972D01*
X0025907Y0200923D01*
X0025846Y0200877D01*
X0025782Y0200835D01*
X0025716Y0200796D01*
X0025648Y0200761D01*
X0025578Y0200729D01*
X0025507Y0200701D01*
X0025434Y0200676D01*
X0025360Y0200656D01*
X0025286Y0200639D01*
X0025210Y0200626D01*
X0025134Y0200617D01*
X0025057Y0200612D01*
X0024981Y0200611D01*
X0024904Y0200614D01*
X0024828Y0200621D01*
X0024752Y0200632D01*
X0024677Y0200647D01*
X0024603Y0200666D01*
X0024529Y0200688D01*
X0024457Y0200714D01*
X0024387Y0200744D01*
X0024318Y0200778D01*
X0024251Y0200815D01*
X0024186Y0200856D01*
X0024123Y0200900D01*
X0024063Y0200947D01*
X0024005Y0200997D01*
X0023950Y0201050D01*
X0023897Y0201106D01*
X0023848Y0201165D01*
X0023801Y0201226D01*
X0023758Y0201289D01*
X0023719Y0201355D01*
X0023682Y0201422D01*
X0023650Y0201491D01*
X0023620Y0201562D01*
X0023595Y0201635D01*
X0023573Y0201708D01*
X0023556Y0201783D01*
X0023542Y0201858D01*
X0023532Y0201934D01*
X0023526Y0202010D01*
X0023524Y0202087D01*
X0023526Y0202164D01*
X0023532Y0202240D01*
X0023542Y0202316D01*
X0023556Y0202391D01*
X0023573Y0202466D01*
X0023595Y0202539D01*
X0023620Y0202612D01*
X0023650Y0202683D01*
X0023682Y0202752D01*
X0023719Y0202819D01*
X0023758Y0202885D01*
X0023801Y0202948D01*
X0023848Y0203009D01*
X0023897Y0203068D01*
X0023950Y0203124D01*
X0024005Y0203177D01*
X0024063Y0203227D01*
X0024123Y0203274D01*
X0024186Y0203318D01*
X0024251Y0203359D01*
X0024318Y0203396D01*
X0024387Y0203430D01*
X0024457Y0203460D01*
X0024529Y0203486D01*
X0024603Y0203508D01*
X0024677Y0203527D01*
X0024752Y0203542D01*
X0024828Y0203553D01*
X0024904Y0203560D01*
X0024981Y0203563D01*
X0025057Y0203562D01*
X0025134Y0203557D01*
X0025210Y0203548D01*
X0025286Y0203535D01*
X0025360Y0203518D01*
X0025434Y0203498D01*
X0025507Y0203473D01*
X0025578Y0203445D01*
X0025648Y0203413D01*
X0025716Y0203378D01*
X0025782Y0203339D01*
X0025846Y0203297D01*
X0025907Y0203251D01*
X0025967Y0203202D01*
X0026023Y0203151D01*
X0026077Y0203096D01*
X0026128Y0203039D01*
X0026176Y0202979D01*
X0026221Y0202917D01*
X0026262Y0202852D01*
X0026300Y0202786D01*
X0026335Y0202718D01*
X0026365Y0202647D01*
X0026393Y0202576D01*
X0026416Y0202503D01*
X0026436Y0202429D01*
X0026452Y0202354D01*
X0026464Y0202278D01*
X0026472Y0202202D01*
X0026476Y0202125D01*
X0026476Y0202049D01*
X0026472Y0201972D01*
X0026464Y0201896D01*
X0026452Y0201820D01*
X0026436Y0201745D01*
X0026416Y0201671D01*
X0026393Y0201598D01*
X0026365Y0201527D01*
X0026335Y0201456D01*
X0026300Y0201388D01*
X0026262Y0201322D01*
X0026221Y0201257D01*
X0026176Y0201195D01*
X0026128Y0201135D01*
X0026077Y0201078D01*
X0026023Y0201023D01*
X0025967Y0200972D01*
X0025907Y0200923D01*
X0025846Y0200877D01*
X0025782Y0200835D01*
X0025716Y0200796D01*
X0025648Y0200761D01*
X0025578Y0200729D01*
X0025507Y0200701D01*
X0025434Y0200676D01*
X0025360Y0200656D01*
X0025286Y0200639D01*
X0025210Y0200626D01*
X0025134Y0200617D01*
X0025057Y0200612D01*
X0024981Y0200611D01*
X0024904Y0200614D01*
X0024828Y0200621D01*
X0024752Y0200632D01*
X0024677Y0200647D01*
X0024603Y0200666D01*
X0024529Y0200688D01*
X0024457Y0200714D01*
X0024387Y0200744D01*
X0024318Y0200778D01*
X0024251Y0200815D01*
X0024186Y0200856D01*
X0024123Y0200900D01*
X0024063Y0200947D01*
X0024005Y0200997D01*
X0023950Y0201050D01*
X0023897Y0201106D01*
X0023848Y0201165D01*
X0023801Y0201226D01*
X0023758Y0201289D01*
X0023719Y0201355D01*
X0023682Y0201422D01*
X0023650Y0201491D01*
X0023620Y0201562D01*
X0023595Y0201635D01*
X0023573Y0201708D01*
X0023556Y0201783D01*
X0023542Y0201858D01*
X0023532Y0201934D01*
X0023526Y0202010D01*
X0023524Y0202087D01*
D171*
X0000000Y0205000D02*
X0000000Y0010000D01*
X0000003Y0009758D01*
X0000012Y0009517D01*
X0000026Y0009276D01*
X0000047Y0009035D01*
X0000073Y0008795D01*
X0000105Y0008555D01*
X0000143Y0008316D01*
X0000186Y0008079D01*
X0000236Y0007842D01*
X0000291Y0007607D01*
X0000351Y0007373D01*
X0000418Y0007141D01*
X0000489Y0006910D01*
X0000567Y0006681D01*
X0000650Y0006454D01*
X0000738Y0006229D01*
X0000832Y0006006D01*
X0000931Y0005786D01*
X0001036Y0005568D01*
X0001145Y0005353D01*
X0001260Y0005140D01*
X0001380Y0004930D01*
X0001505Y0004724D01*
X0001635Y0004520D01*
X0001770Y0004319D01*
X0001910Y0004122D01*
X0002054Y0003928D01*
X0002203Y0003738D01*
X0002357Y0003552D01*
X0002515Y0003369D01*
X0002677Y0003190D01*
X0002844Y0003015D01*
X0003015Y0002844D01*
X0003190Y0002677D01*
X0003369Y0002515D01*
X0003552Y0002357D01*
X0003738Y0002203D01*
X0003928Y0002054D01*
X0004122Y0001910D01*
X0004319Y0001770D01*
X0004520Y0001635D01*
X0004724Y0001505D01*
X0004930Y0001380D01*
X0005140Y0001260D01*
X0005353Y0001145D01*
X0005568Y0001036D01*
X0005786Y0000931D01*
X0006006Y0000832D01*
X0006229Y0000738D01*
X0006454Y0000650D01*
X0006681Y0000567D01*
X0006910Y0000489D01*
X0007141Y0000418D01*
X0007373Y0000351D01*
X0007607Y0000291D01*
X0007842Y0000236D01*
X0008079Y0000186D01*
X0008316Y0000143D01*
X0008555Y0000105D01*
X0008795Y0000073D01*
X0009035Y0000047D01*
X0009276Y0000026D01*
X0009517Y0000012D01*
X0009758Y0000003D01*
X0010000Y0000000D01*
X0115000Y0000000D01*
X0115242Y0000003D01*
X0115483Y0000012D01*
X0115724Y0000026D01*
X0115965Y0000047D01*
X0116205Y0000073D01*
X0116445Y0000105D01*
X0116684Y0000143D01*
X0116921Y0000186D01*
X0117158Y0000236D01*
X0117393Y0000291D01*
X0117627Y0000351D01*
X0117859Y0000418D01*
X0118090Y0000489D01*
X0118319Y0000567D01*
X0118546Y0000650D01*
X0118771Y0000738D01*
X0118994Y0000832D01*
X0119214Y0000931D01*
X0119432Y0001036D01*
X0119647Y0001145D01*
X0119860Y0001260D01*
X0120070Y0001380D01*
X0120276Y0001505D01*
X0120480Y0001635D01*
X0120681Y0001770D01*
X0120878Y0001910D01*
X0121072Y0002054D01*
X0121262Y0002203D01*
X0121448Y0002357D01*
X0121631Y0002515D01*
X0121810Y0002677D01*
X0121985Y0002844D01*
X0122156Y0003015D01*
X0122323Y0003190D01*
X0122485Y0003369D01*
X0122643Y0003552D01*
X0122797Y0003738D01*
X0122946Y0003928D01*
X0123090Y0004122D01*
X0123230Y0004319D01*
X0123365Y0004520D01*
X0123495Y0004724D01*
X0123620Y0004930D01*
X0123740Y0005140D01*
X0123855Y0005353D01*
X0123964Y0005568D01*
X0124069Y0005786D01*
X0124168Y0006006D01*
X0124262Y0006229D01*
X0124350Y0006454D01*
X0124433Y0006681D01*
X0124511Y0006910D01*
X0124582Y0007141D01*
X0124649Y0007373D01*
X0124709Y0007607D01*
X0124764Y0007842D01*
X0124814Y0008079D01*
X0124857Y0008316D01*
X0124895Y0008555D01*
X0124927Y0008795D01*
X0124953Y0009035D01*
X0124974Y0009276D01*
X0124988Y0009517D01*
X0124997Y0009758D01*
X0125000Y0010000D01*
X0125000Y0187972D01*
X0124848Y0187974D01*
X0124696Y0187980D01*
X0124544Y0187990D01*
X0124393Y0188003D01*
X0124242Y0188021D01*
X0124091Y0188042D01*
X0123941Y0188068D01*
X0123792Y0188097D01*
X0123643Y0188130D01*
X0123496Y0188167D01*
X0123349Y0188207D01*
X0123204Y0188252D01*
X0123060Y0188300D01*
X0122917Y0188352D01*
X0122775Y0188407D01*
X0122635Y0188466D01*
X0122496Y0188529D01*
X0122359Y0188595D01*
X0122224Y0188665D01*
X0122091Y0188738D01*
X0121960Y0188815D01*
X0121830Y0188895D01*
X0121703Y0188978D01*
X0121578Y0189064D01*
X0121455Y0189154D01*
X0121335Y0189247D01*
X0121217Y0189343D01*
X0121101Y0189442D01*
X0120988Y0189544D01*
X0120878Y0189648D01*
X0120770Y0189756D01*
X0120666Y0189866D01*
X0120564Y0189979D01*
X0120465Y0190095D01*
X0120369Y0190213D01*
X0120276Y0190333D01*
X0120186Y0190456D01*
X0120100Y0190581D01*
X0120017Y0190708D01*
X0119937Y0190838D01*
X0119860Y0190969D01*
X0119787Y0191102D01*
X0119717Y0191237D01*
X0119651Y0191374D01*
X0119588Y0191513D01*
X0119529Y0191653D01*
X0119474Y0191795D01*
X0119422Y0191938D01*
X0119374Y0192082D01*
X0119329Y0192227D01*
X0119289Y0192374D01*
X0119252Y0192521D01*
X0119219Y0192670D01*
X0119190Y0192819D01*
X0119164Y0192969D01*
X0119143Y0193120D01*
X0119125Y0193271D01*
X0119112Y0193422D01*
X0119102Y0193574D01*
X0119096Y0193726D01*
X0119094Y0193878D01*
X0119096Y0194030D01*
X0119102Y0194182D01*
X0119112Y0194334D01*
X0119125Y0194485D01*
X0119143Y0194636D01*
X0119164Y0194787D01*
X0119190Y0194937D01*
X0119219Y0195086D01*
X0119252Y0195235D01*
X0119289Y0195382D01*
X0119329Y0195529D01*
X0119374Y0195674D01*
X0119422Y0195818D01*
X0119474Y0195961D01*
X0119529Y0196103D01*
X0119588Y0196243D01*
X0119651Y0196382D01*
X0119717Y0196519D01*
X0119787Y0196654D01*
X0119860Y0196787D01*
X0119937Y0196918D01*
X0120017Y0197048D01*
X0120100Y0197175D01*
X0120186Y0197300D01*
X0120276Y0197423D01*
X0120369Y0197543D01*
X0120465Y0197661D01*
X0120564Y0197777D01*
X0120666Y0197890D01*
X0120770Y0198000D01*
X0120878Y0198108D01*
X0120988Y0198212D01*
X0121101Y0198314D01*
X0121217Y0198413D01*
X0121335Y0198509D01*
X0121455Y0198602D01*
X0121578Y0198692D01*
X0121703Y0198778D01*
X0121830Y0198861D01*
X0121960Y0198941D01*
X0122091Y0199018D01*
X0122224Y0199091D01*
X0122359Y0199161D01*
X0122496Y0199227D01*
X0122635Y0199290D01*
X0122775Y0199349D01*
X0122917Y0199404D01*
X0123060Y0199456D01*
X0123204Y0199504D01*
X0123349Y0199549D01*
X0123496Y0199589D01*
X0123643Y0199626D01*
X0123792Y0199659D01*
X0123941Y0199688D01*
X0124091Y0199714D01*
X0124242Y0199735D01*
X0124393Y0199753D01*
X0124544Y0199766D01*
X0124696Y0199776D01*
X0124848Y0199782D01*
X0125000Y0199784D01*
X0125000Y0199783D02*
X0125000Y0205000D01*
X0124997Y0205242D01*
X0124988Y0205483D01*
X0124974Y0205724D01*
X0124953Y0205965D01*
X0124927Y0206205D01*
X0124895Y0206445D01*
X0124857Y0206684D01*
X0124814Y0206921D01*
X0124764Y0207158D01*
X0124709Y0207393D01*
X0124649Y0207627D01*
X0124582Y0207859D01*
X0124511Y0208090D01*
X0124433Y0208319D01*
X0124350Y0208546D01*
X0124262Y0208771D01*
X0124168Y0208994D01*
X0124069Y0209214D01*
X0123964Y0209432D01*
X0123855Y0209647D01*
X0123740Y0209860D01*
X0123620Y0210070D01*
X0123495Y0210276D01*
X0123365Y0210480D01*
X0123230Y0210681D01*
X0123090Y0210878D01*
X0122946Y0211072D01*
X0122797Y0211262D01*
X0122643Y0211448D01*
X0122485Y0211631D01*
X0122323Y0211810D01*
X0122156Y0211985D01*
X0121985Y0212156D01*
X0121810Y0212323D01*
X0121631Y0212485D01*
X0121448Y0212643D01*
X0121262Y0212797D01*
X0121072Y0212946D01*
X0120878Y0213090D01*
X0120681Y0213230D01*
X0120480Y0213365D01*
X0120276Y0213495D01*
X0120070Y0213620D01*
X0119860Y0213740D01*
X0119647Y0213855D01*
X0119432Y0213964D01*
X0119214Y0214069D01*
X0118994Y0214168D01*
X0118771Y0214262D01*
X0118546Y0214350D01*
X0118319Y0214433D01*
X0118090Y0214511D01*
X0117859Y0214582D01*
X0117627Y0214649D01*
X0117393Y0214709D01*
X0117158Y0214764D01*
X0116921Y0214814D01*
X0116684Y0214857D01*
X0116445Y0214895D01*
X0116205Y0214927D01*
X0115965Y0214953D01*
X0115724Y0214974D01*
X0115483Y0214988D01*
X0115242Y0214997D01*
X0115000Y0215000D01*
X0010000Y0215000D01*
X0009758Y0214997D01*
X0009517Y0214988D01*
X0009276Y0214974D01*
X0009035Y0214953D01*
X0008795Y0214927D01*
X0008555Y0214895D01*
X0008316Y0214857D01*
X0008079Y0214814D01*
X0007842Y0214764D01*
X0007607Y0214709D01*
X0007373Y0214649D01*
X0007141Y0214582D01*
X0006910Y0214511D01*
X0006681Y0214433D01*
X0006454Y0214350D01*
X0006229Y0214262D01*
X0006006Y0214168D01*
X0005786Y0214069D01*
X0005568Y0213964D01*
X0005353Y0213855D01*
X0005140Y0213740D01*
X0004930Y0213620D01*
X0004724Y0213495D01*
X0004520Y0213365D01*
X0004319Y0213230D01*
X0004122Y0213090D01*
X0003928Y0212946D01*
X0003738Y0212797D01*
X0003552Y0212643D01*
X0003369Y0212485D01*
X0003190Y0212323D01*
X0003015Y0212156D01*
X0002844Y0211985D01*
X0002677Y0211810D01*
X0002515Y0211631D01*
X0002357Y0211448D01*
X0002203Y0211262D01*
X0002054Y0211072D01*
X0001910Y0210878D01*
X0001770Y0210681D01*
X0001635Y0210480D01*
X0001505Y0210276D01*
X0001380Y0210070D01*
X0001260Y0209860D01*
X0001145Y0209647D01*
X0001036Y0209432D01*
X0000931Y0209214D01*
X0000832Y0208994D01*
X0000738Y0208771D01*
X0000650Y0208546D01*
X0000567Y0208319D01*
X0000489Y0208090D01*
X0000418Y0207859D01*
X0000351Y0207627D01*
X0000291Y0207393D01*
X0000236Y0207158D01*
X0000186Y0206921D01*
X0000143Y0206684D01*
X0000105Y0206445D01*
X0000073Y0206205D01*
X0000047Y0205965D01*
X0000026Y0205724D01*
X0000012Y0205483D01*
X0000003Y0205242D01*
X0000000Y0205000D01*
X0070886Y0117500D02*
X0074114Y0117500D01*
X0074114Y0112500D02*
X0070886Y0112500D01*
X0063937Y0072362D02*
X0056063Y0072362D01*
X0056063Y0067638D01*
X0063937Y0067638D01*
X0063937Y0072362D01*
X0068563Y0064862D02*
X0068563Y0060138D01*
X0076437Y0060138D01*
X0076437Y0064862D01*
X0068563Y0064862D01*
X0063937Y0057362D02*
X0056063Y0057362D01*
X0056063Y0052638D01*
X0063937Y0052638D01*
X0063937Y0057362D01*
D172*
X0097348Y0012598D02*
X0100250Y0012598D01*
X0100250Y0007402D02*
X0097250Y0007402D01*
X0109750Y0016152D02*
X0112750Y0016152D01*
X0112750Y0021348D02*
X0109848Y0021348D01*
X0109750Y0029902D02*
X0112750Y0029902D01*
X0112750Y0035098D02*
X0109848Y0035098D01*
X0109750Y0038652D02*
X0112750Y0038652D01*
X0112750Y0043848D02*
X0109848Y0043848D01*
X0053902Y0112402D02*
X0051000Y0112402D01*
X0051000Y0117598D02*
X0054000Y0117598D01*
D173*
X0055323Y0115005D03*
X0049623Y0115005D03*
X0108427Y0041245D03*
X0114127Y0041245D03*
X0114127Y0032495D03*
X0108427Y0032495D03*
X0108427Y0018745D03*
X0114127Y0018745D03*
X0101627Y0009995D03*
X0095927Y0009995D03*
D174*
X0075380Y0114994D03*
X0069580Y0114994D03*
D175*
X0080620Y0044567D02*
X0080620Y0015433D01*
X0101880Y0015433D01*
X0101880Y0044567D01*
X0080620Y0044567D01*
D176*
X0081604Y0037677D02*
X0081604Y0022323D01*
X0100896Y0022323D01*
X0100896Y0037677D01*
X0081604Y0037677D01*
X0095896Y0022323D02*
X0100896Y0027323D01*
D177*
X0100896Y0023701D02*
X0081604Y0023701D01*
X0081604Y0036299D01*
X0100896Y0036299D01*
X0100896Y0023701D01*
X0101407Y0022323D02*
X0101407Y0016417D01*
M02*
