%
M48
M72
T01C0.01378
T02C0.02165
T03C0.02953
T04C0.03150
T05C0.03346
T06C0.03543
T07C0.04000
%
T01
X7500Y26250
X11250Y26250
X15000Y26250
X43750Y26250
X58750Y7500
X62500Y7500
X66250Y7500
X87500Y30000
X78750Y41250
X75000Y41250
X51250Y62500
X46250Y67500
X42500Y60000
X51250Y82500
X46250Y87500
X46250Y93750
X46250Y100000
X51250Y105000
X57500Y105000
X63750Y105000
X68750Y100000
X68750Y93750
X68750Y87500
X63750Y82500
X57500Y82500
X37500Y90000
X32500Y90000
X23750Y102500
X23750Y106250
X23750Y110000
X27500Y115000
X18750Y148750
X28750Y157500
X36250Y168750
X38750Y166250
X41250Y168750
X38750Y171250
X47500Y177500
X46250Y157500
X67500Y165000
X72500Y165000
X83750Y158750
X86250Y156250
X88750Y153750
X87500Y147500
X82500Y142500
X82500Y138750
X78750Y138750
X78750Y142500
X78750Y146250
X75000Y128750
X71250Y128750
X82500Y127500
X93750Y126250
X93750Y122500
X97500Y122500
X97500Y126250
X97500Y130000
X93750Y130000
X82500Y115000
X97500Y97500
X97500Y93750
X101250Y93750
X101250Y97500
X100000Y72500
X100000Y68750
X100000Y65000
X100000Y61250
X105000Y47500
X90000Y10000
X62500Y115000
X22500Y178750
X7500Y185000
X7500Y190000
X7500Y195000
X18750Y206250
X40000Y197500
X61250Y206250
X85000Y182500
X90000Y182500
T02
X74744Y208043
X105256Y208043
T03
X55000Y212913
X55000Y212913
X55000Y202087
X55000Y202087
X25000Y202087
X25000Y202087
X25000Y212913
X25000Y212913
T04
X80157Y197217
X99843Y197217
T05
X104665Y193083
X75335Y193083
T06
X56093Y148996
X56093Y136004
X46250Y136004
X36407Y136004
X36407Y148996
X46250Y148996
T07
X8750Y15000
X18750Y15000
X28750Y15000
X38750Y15000
M30
