G75*
%MOIN*%
%OFA0B0*%
%FSLAX25Y25*%
%IPPOS*%
%LPD*%
%AMOC8*
5,1,8,0,0,1.08239X$1,22.5*
%
%ADD10C,0.00205*%
%ADD11C,0.00198*%
%ADD12C,0.00189*%
%ADD13C,0.00187*%
%ADD14C,0.00228*%
%ADD15C,0.00197*%
%ADD16C,0.00184*%
%ADD17C,0.00195*%
%ADD18C,0.00213*%
%ADD19C,0.00201*%
%ADD20C,0.00220*%
D10*
X0019101Y0031303D02*
X0019101Y0036217D01*
X0019101Y0031303D02*
X0013399Y0031303D01*
X0013399Y0036217D01*
X0019101Y0036217D01*
X0019101Y0031498D02*
X0013399Y0031498D01*
X0013399Y0031693D02*
X0019101Y0031693D01*
X0019101Y0031888D02*
X0013399Y0031888D01*
X0013399Y0032083D02*
X0019101Y0032083D01*
X0019101Y0032278D02*
X0013399Y0032278D01*
X0013399Y0032473D02*
X0019101Y0032473D01*
X0019101Y0032668D02*
X0013399Y0032668D01*
X0013399Y0032863D02*
X0019101Y0032863D01*
X0019101Y0033058D02*
X0013399Y0033058D01*
X0013399Y0033253D02*
X0019101Y0033253D01*
X0019101Y0033448D02*
X0013399Y0033448D01*
X0013399Y0033643D02*
X0019101Y0033643D01*
X0019101Y0033838D02*
X0013399Y0033838D01*
X0013399Y0034033D02*
X0019101Y0034033D01*
X0019101Y0034228D02*
X0013399Y0034228D01*
X0013399Y0034423D02*
X0019101Y0034423D01*
X0019101Y0034618D02*
X0013399Y0034618D01*
X0013399Y0034813D02*
X0019101Y0034813D01*
X0019101Y0035008D02*
X0013399Y0035008D01*
X0013399Y0035203D02*
X0019101Y0035203D01*
X0019101Y0035398D02*
X0013399Y0035398D01*
X0013399Y0035593D02*
X0019101Y0035593D01*
X0019101Y0035788D02*
X0013399Y0035788D01*
X0013399Y0035983D02*
X0019101Y0035983D01*
X0019101Y0036178D02*
X0013399Y0036178D01*
X0019101Y0038783D02*
X0019101Y0043697D01*
X0019101Y0038783D02*
X0013399Y0038783D01*
X0013399Y0043697D01*
X0019101Y0043697D01*
X0019101Y0038978D02*
X0013399Y0038978D01*
X0013399Y0039173D02*
X0019101Y0039173D01*
X0019101Y0039368D02*
X0013399Y0039368D01*
X0013399Y0039563D02*
X0019101Y0039563D01*
X0019101Y0039758D02*
X0013399Y0039758D01*
X0013399Y0039953D02*
X0019101Y0039953D01*
X0019101Y0040148D02*
X0013399Y0040148D01*
X0013399Y0040343D02*
X0019101Y0040343D01*
X0019101Y0040538D02*
X0013399Y0040538D01*
X0013399Y0040733D02*
X0019101Y0040733D01*
X0019101Y0040928D02*
X0013399Y0040928D01*
X0013399Y0041123D02*
X0019101Y0041123D01*
X0019101Y0041318D02*
X0013399Y0041318D01*
X0013399Y0041513D02*
X0019101Y0041513D01*
X0019101Y0041708D02*
X0013399Y0041708D01*
X0013399Y0041903D02*
X0019101Y0041903D01*
X0019101Y0042098D02*
X0013399Y0042098D01*
X0013399Y0042293D02*
X0019101Y0042293D01*
X0019101Y0042488D02*
X0013399Y0042488D01*
X0013399Y0042683D02*
X0019101Y0042683D01*
X0019101Y0042878D02*
X0013399Y0042878D01*
X0013399Y0043073D02*
X0019101Y0043073D01*
X0019101Y0043268D02*
X0013399Y0043268D01*
X0013399Y0043463D02*
X0019101Y0043463D01*
X0019101Y0043658D02*
X0013399Y0043658D01*
X0022149Y0043697D02*
X0022149Y0038783D01*
X0022149Y0043697D02*
X0027851Y0043697D01*
X0027851Y0038783D01*
X0022149Y0038783D01*
X0022149Y0038978D02*
X0027851Y0038978D01*
X0027851Y0039173D02*
X0022149Y0039173D01*
X0022149Y0039368D02*
X0027851Y0039368D01*
X0027851Y0039563D02*
X0022149Y0039563D01*
X0022149Y0039758D02*
X0027851Y0039758D01*
X0027851Y0039953D02*
X0022149Y0039953D01*
X0022149Y0040148D02*
X0027851Y0040148D01*
X0027851Y0040343D02*
X0022149Y0040343D01*
X0022149Y0040538D02*
X0027851Y0040538D01*
X0027851Y0040733D02*
X0022149Y0040733D01*
X0022149Y0040928D02*
X0027851Y0040928D01*
X0027851Y0041123D02*
X0022149Y0041123D01*
X0022149Y0041318D02*
X0027851Y0041318D01*
X0027851Y0041513D02*
X0022149Y0041513D01*
X0022149Y0041708D02*
X0027851Y0041708D01*
X0027851Y0041903D02*
X0022149Y0041903D01*
X0022149Y0042098D02*
X0027851Y0042098D01*
X0027851Y0042293D02*
X0022149Y0042293D01*
X0022149Y0042488D02*
X0027851Y0042488D01*
X0027851Y0042683D02*
X0022149Y0042683D01*
X0022149Y0042878D02*
X0027851Y0042878D01*
X0027851Y0043073D02*
X0022149Y0043073D01*
X0022149Y0043268D02*
X0027851Y0043268D01*
X0027851Y0043463D02*
X0022149Y0043463D01*
X0022149Y0043658D02*
X0027851Y0043658D01*
X0031303Y0038399D02*
X0036217Y0038399D01*
X0031303Y0038399D02*
X0031303Y0044101D01*
X0036217Y0044101D01*
X0036217Y0038399D01*
X0036217Y0038594D02*
X0031303Y0038594D01*
X0031303Y0038789D02*
X0036217Y0038789D01*
X0036217Y0038984D02*
X0031303Y0038984D01*
X0031303Y0039179D02*
X0036217Y0039179D01*
X0036217Y0039374D02*
X0031303Y0039374D01*
X0031303Y0039569D02*
X0036217Y0039569D01*
X0036217Y0039764D02*
X0031303Y0039764D01*
X0031303Y0039959D02*
X0036217Y0039959D01*
X0036217Y0040154D02*
X0031303Y0040154D01*
X0031303Y0040349D02*
X0036217Y0040349D01*
X0036217Y0040544D02*
X0031303Y0040544D01*
X0031303Y0040739D02*
X0036217Y0040739D01*
X0036217Y0040934D02*
X0031303Y0040934D01*
X0031303Y0041129D02*
X0036217Y0041129D01*
X0036217Y0041324D02*
X0031303Y0041324D01*
X0031303Y0041519D02*
X0036217Y0041519D01*
X0036217Y0041714D02*
X0031303Y0041714D01*
X0031303Y0041909D02*
X0036217Y0041909D01*
X0036217Y0042104D02*
X0031303Y0042104D01*
X0031303Y0042299D02*
X0036217Y0042299D01*
X0036217Y0042494D02*
X0031303Y0042494D01*
X0031303Y0042689D02*
X0036217Y0042689D01*
X0036217Y0042884D02*
X0031303Y0042884D01*
X0031303Y0043079D02*
X0036217Y0043079D01*
X0036217Y0043274D02*
X0031303Y0043274D01*
X0031303Y0043469D02*
X0036217Y0043469D01*
X0036217Y0043664D02*
X0031303Y0043664D01*
X0031303Y0043859D02*
X0036217Y0043859D01*
X0036217Y0044054D02*
X0031303Y0044054D01*
X0038783Y0038399D02*
X0043697Y0038399D01*
X0038783Y0038399D02*
X0038783Y0044101D01*
X0043697Y0044101D01*
X0043697Y0038399D01*
X0043697Y0038594D02*
X0038783Y0038594D01*
X0038783Y0038789D02*
X0043697Y0038789D01*
X0043697Y0038984D02*
X0038783Y0038984D01*
X0038783Y0039179D02*
X0043697Y0039179D01*
X0043697Y0039374D02*
X0038783Y0039374D01*
X0038783Y0039569D02*
X0043697Y0039569D01*
X0043697Y0039764D02*
X0038783Y0039764D01*
X0038783Y0039959D02*
X0043697Y0039959D01*
X0043697Y0040154D02*
X0038783Y0040154D01*
X0038783Y0040349D02*
X0043697Y0040349D01*
X0043697Y0040544D02*
X0038783Y0040544D01*
X0038783Y0040739D02*
X0043697Y0040739D01*
X0043697Y0040934D02*
X0038783Y0040934D01*
X0038783Y0041129D02*
X0043697Y0041129D01*
X0043697Y0041324D02*
X0038783Y0041324D01*
X0038783Y0041519D02*
X0043697Y0041519D01*
X0043697Y0041714D02*
X0038783Y0041714D01*
X0038783Y0041909D02*
X0043697Y0041909D01*
X0043697Y0042104D02*
X0038783Y0042104D01*
X0038783Y0042299D02*
X0043697Y0042299D01*
X0043697Y0042494D02*
X0038783Y0042494D01*
X0038783Y0042689D02*
X0043697Y0042689D01*
X0043697Y0042884D02*
X0038783Y0042884D01*
X0038783Y0043079D02*
X0043697Y0043079D01*
X0043697Y0043274D02*
X0038783Y0043274D01*
X0038783Y0043469D02*
X0043697Y0043469D01*
X0043697Y0043664D02*
X0038783Y0043664D01*
X0038783Y0043859D02*
X0043697Y0043859D01*
X0043697Y0044054D02*
X0038783Y0044054D01*
X0038783Y0029649D02*
X0043697Y0029649D01*
X0038783Y0029649D02*
X0038783Y0035351D01*
X0043697Y0035351D01*
X0043697Y0029649D01*
X0043697Y0029844D02*
X0038783Y0029844D01*
X0038783Y0030039D02*
X0043697Y0030039D01*
X0043697Y0030234D02*
X0038783Y0030234D01*
X0038783Y0030429D02*
X0043697Y0030429D01*
X0043697Y0030624D02*
X0038783Y0030624D01*
X0038783Y0030819D02*
X0043697Y0030819D01*
X0043697Y0031014D02*
X0038783Y0031014D01*
X0038783Y0031209D02*
X0043697Y0031209D01*
X0043697Y0031404D02*
X0038783Y0031404D01*
X0038783Y0031599D02*
X0043697Y0031599D01*
X0043697Y0031794D02*
X0038783Y0031794D01*
X0038783Y0031989D02*
X0043697Y0031989D01*
X0043697Y0032184D02*
X0038783Y0032184D01*
X0038783Y0032379D02*
X0043697Y0032379D01*
X0043697Y0032574D02*
X0038783Y0032574D01*
X0038783Y0032769D02*
X0043697Y0032769D01*
X0043697Y0032964D02*
X0038783Y0032964D01*
X0038783Y0033159D02*
X0043697Y0033159D01*
X0043697Y0033354D02*
X0038783Y0033354D01*
X0038783Y0033549D02*
X0043697Y0033549D01*
X0043697Y0033744D02*
X0038783Y0033744D01*
X0038783Y0033939D02*
X0043697Y0033939D01*
X0043697Y0034134D02*
X0038783Y0034134D01*
X0038783Y0034329D02*
X0043697Y0034329D01*
X0043697Y0034524D02*
X0038783Y0034524D01*
X0038783Y0034719D02*
X0043697Y0034719D01*
X0043697Y0034914D02*
X0038783Y0034914D01*
X0038783Y0035109D02*
X0043697Y0035109D01*
X0043697Y0035304D02*
X0038783Y0035304D01*
X0036217Y0029649D02*
X0031303Y0029649D01*
X0031303Y0035351D01*
X0036217Y0035351D01*
X0036217Y0029649D01*
X0036217Y0029844D02*
X0031303Y0029844D01*
X0031303Y0030039D02*
X0036217Y0030039D01*
X0036217Y0030234D02*
X0031303Y0030234D01*
X0031303Y0030429D02*
X0036217Y0030429D01*
X0036217Y0030624D02*
X0031303Y0030624D01*
X0031303Y0030819D02*
X0036217Y0030819D01*
X0036217Y0031014D02*
X0031303Y0031014D01*
X0031303Y0031209D02*
X0036217Y0031209D01*
X0036217Y0031404D02*
X0031303Y0031404D01*
X0031303Y0031599D02*
X0036217Y0031599D01*
X0036217Y0031794D02*
X0031303Y0031794D01*
X0031303Y0031989D02*
X0036217Y0031989D01*
X0036217Y0032184D02*
X0031303Y0032184D01*
X0031303Y0032379D02*
X0036217Y0032379D01*
X0036217Y0032574D02*
X0031303Y0032574D01*
X0031303Y0032769D02*
X0036217Y0032769D01*
X0036217Y0032964D02*
X0031303Y0032964D01*
X0031303Y0033159D02*
X0036217Y0033159D01*
X0036217Y0033354D02*
X0031303Y0033354D01*
X0031303Y0033549D02*
X0036217Y0033549D01*
X0036217Y0033744D02*
X0031303Y0033744D01*
X0031303Y0033939D02*
X0036217Y0033939D01*
X0036217Y0034134D02*
X0031303Y0034134D01*
X0031303Y0034329D02*
X0036217Y0034329D01*
X0036217Y0034524D02*
X0031303Y0034524D01*
X0031303Y0034719D02*
X0036217Y0034719D01*
X0036217Y0034914D02*
X0031303Y0034914D01*
X0031303Y0035109D02*
X0036217Y0035109D01*
X0036217Y0035304D02*
X0031303Y0035304D01*
X0022149Y0036217D02*
X0022149Y0031303D01*
X0022149Y0036217D02*
X0027851Y0036217D01*
X0027851Y0031303D01*
X0022149Y0031303D01*
X0022149Y0031498D02*
X0027851Y0031498D01*
X0027851Y0031693D02*
X0022149Y0031693D01*
X0022149Y0031888D02*
X0027851Y0031888D01*
X0027851Y0032083D02*
X0022149Y0032083D01*
X0022149Y0032278D02*
X0027851Y0032278D01*
X0027851Y0032473D02*
X0022149Y0032473D01*
X0022149Y0032668D02*
X0027851Y0032668D01*
X0027851Y0032863D02*
X0022149Y0032863D01*
X0022149Y0033058D02*
X0027851Y0033058D01*
X0027851Y0033253D02*
X0022149Y0033253D01*
X0022149Y0033448D02*
X0027851Y0033448D01*
X0027851Y0033643D02*
X0022149Y0033643D01*
X0022149Y0033838D02*
X0027851Y0033838D01*
X0027851Y0034033D02*
X0022149Y0034033D01*
X0022149Y0034228D02*
X0027851Y0034228D01*
X0027851Y0034423D02*
X0022149Y0034423D01*
X0022149Y0034618D02*
X0027851Y0034618D01*
X0027851Y0034813D02*
X0022149Y0034813D01*
X0022149Y0035008D02*
X0027851Y0035008D01*
X0027851Y0035203D02*
X0022149Y0035203D01*
X0022149Y0035398D02*
X0027851Y0035398D01*
X0027851Y0035593D02*
X0022149Y0035593D01*
X0022149Y0035788D02*
X0027851Y0035788D01*
X0027851Y0035983D02*
X0022149Y0035983D01*
X0022149Y0036178D02*
X0027851Y0036178D01*
X0047553Y0035351D02*
X0052467Y0035351D01*
X0052467Y0029649D01*
X0047553Y0029649D01*
X0047553Y0035351D01*
X0047553Y0029844D02*
X0052467Y0029844D01*
X0052467Y0030039D02*
X0047553Y0030039D01*
X0047553Y0030234D02*
X0052467Y0030234D01*
X0052467Y0030429D02*
X0047553Y0030429D01*
X0047553Y0030624D02*
X0052467Y0030624D01*
X0052467Y0030819D02*
X0047553Y0030819D01*
X0047553Y0031014D02*
X0052467Y0031014D01*
X0052467Y0031209D02*
X0047553Y0031209D01*
X0047553Y0031404D02*
X0052467Y0031404D01*
X0052467Y0031599D02*
X0047553Y0031599D01*
X0047553Y0031794D02*
X0052467Y0031794D01*
X0052467Y0031989D02*
X0047553Y0031989D01*
X0047553Y0032184D02*
X0052467Y0032184D01*
X0052467Y0032379D02*
X0047553Y0032379D01*
X0047553Y0032574D02*
X0052467Y0032574D01*
X0052467Y0032769D02*
X0047553Y0032769D01*
X0047553Y0032964D02*
X0052467Y0032964D01*
X0052467Y0033159D02*
X0047553Y0033159D01*
X0047553Y0033354D02*
X0052467Y0033354D01*
X0052467Y0033549D02*
X0047553Y0033549D01*
X0047553Y0033744D02*
X0052467Y0033744D01*
X0052467Y0033939D02*
X0047553Y0033939D01*
X0047553Y0034134D02*
X0052467Y0034134D01*
X0052467Y0034329D02*
X0047553Y0034329D01*
X0047553Y0034524D02*
X0052467Y0034524D01*
X0052467Y0034719D02*
X0047553Y0034719D01*
X0047553Y0034914D02*
X0052467Y0034914D01*
X0052467Y0035109D02*
X0047553Y0035109D01*
X0047553Y0035304D02*
X0052467Y0035304D01*
X0055033Y0035351D02*
X0059947Y0035351D01*
X0059947Y0029649D01*
X0055033Y0029649D01*
X0055033Y0035351D01*
X0055033Y0029844D02*
X0059947Y0029844D01*
X0059947Y0030039D02*
X0055033Y0030039D01*
X0055033Y0030234D02*
X0059947Y0030234D01*
X0059947Y0030429D02*
X0055033Y0030429D01*
X0055033Y0030624D02*
X0059947Y0030624D01*
X0059947Y0030819D02*
X0055033Y0030819D01*
X0055033Y0031014D02*
X0059947Y0031014D01*
X0059947Y0031209D02*
X0055033Y0031209D01*
X0055033Y0031404D02*
X0059947Y0031404D01*
X0059947Y0031599D02*
X0055033Y0031599D01*
X0055033Y0031794D02*
X0059947Y0031794D01*
X0059947Y0031989D02*
X0055033Y0031989D01*
X0055033Y0032184D02*
X0059947Y0032184D01*
X0059947Y0032379D02*
X0055033Y0032379D01*
X0055033Y0032574D02*
X0059947Y0032574D01*
X0059947Y0032769D02*
X0055033Y0032769D01*
X0055033Y0032964D02*
X0059947Y0032964D01*
X0059947Y0033159D02*
X0055033Y0033159D01*
X0055033Y0033354D02*
X0059947Y0033354D01*
X0059947Y0033549D02*
X0055033Y0033549D01*
X0055033Y0033744D02*
X0059947Y0033744D01*
X0059947Y0033939D02*
X0055033Y0033939D01*
X0055033Y0034134D02*
X0059947Y0034134D01*
X0059947Y0034329D02*
X0055033Y0034329D01*
X0055033Y0034524D02*
X0059947Y0034524D01*
X0059947Y0034719D02*
X0055033Y0034719D01*
X0055033Y0034914D02*
X0059947Y0034914D01*
X0059947Y0035109D02*
X0055033Y0035109D01*
X0055033Y0035304D02*
X0059947Y0035304D01*
X0059947Y0038399D02*
X0055033Y0038399D01*
X0055033Y0044101D01*
X0059947Y0044101D01*
X0059947Y0038399D01*
X0059947Y0038594D02*
X0055033Y0038594D01*
X0055033Y0038789D02*
X0059947Y0038789D01*
X0059947Y0038984D02*
X0055033Y0038984D01*
X0055033Y0039179D02*
X0059947Y0039179D01*
X0059947Y0039374D02*
X0055033Y0039374D01*
X0055033Y0039569D02*
X0059947Y0039569D01*
X0059947Y0039764D02*
X0055033Y0039764D01*
X0055033Y0039959D02*
X0059947Y0039959D01*
X0059947Y0040154D02*
X0055033Y0040154D01*
X0055033Y0040349D02*
X0059947Y0040349D01*
X0059947Y0040544D02*
X0055033Y0040544D01*
X0055033Y0040739D02*
X0059947Y0040739D01*
X0059947Y0040934D02*
X0055033Y0040934D01*
X0055033Y0041129D02*
X0059947Y0041129D01*
X0059947Y0041324D02*
X0055033Y0041324D01*
X0055033Y0041519D02*
X0059947Y0041519D01*
X0059947Y0041714D02*
X0055033Y0041714D01*
X0055033Y0041909D02*
X0059947Y0041909D01*
X0059947Y0042104D02*
X0055033Y0042104D01*
X0055033Y0042299D02*
X0059947Y0042299D01*
X0059947Y0042494D02*
X0055033Y0042494D01*
X0055033Y0042689D02*
X0059947Y0042689D01*
X0059947Y0042884D02*
X0055033Y0042884D01*
X0055033Y0043079D02*
X0059947Y0043079D01*
X0059947Y0043274D02*
X0055033Y0043274D01*
X0055033Y0043469D02*
X0059947Y0043469D01*
X0059947Y0043664D02*
X0055033Y0043664D01*
X0055033Y0043859D02*
X0059947Y0043859D01*
X0059947Y0044054D02*
X0055033Y0044054D01*
X0052467Y0038399D02*
X0047553Y0038399D01*
X0047553Y0044101D01*
X0052467Y0044101D01*
X0052467Y0038399D01*
X0052467Y0038594D02*
X0047553Y0038594D01*
X0047553Y0038789D02*
X0052467Y0038789D01*
X0052467Y0038984D02*
X0047553Y0038984D01*
X0047553Y0039179D02*
X0052467Y0039179D01*
X0052467Y0039374D02*
X0047553Y0039374D01*
X0047553Y0039569D02*
X0052467Y0039569D01*
X0052467Y0039764D02*
X0047553Y0039764D01*
X0047553Y0039959D02*
X0052467Y0039959D01*
X0052467Y0040154D02*
X0047553Y0040154D01*
X0047553Y0040349D02*
X0052467Y0040349D01*
X0052467Y0040544D02*
X0047553Y0040544D01*
X0047553Y0040739D02*
X0052467Y0040739D01*
X0052467Y0040934D02*
X0047553Y0040934D01*
X0047553Y0041129D02*
X0052467Y0041129D01*
X0052467Y0041324D02*
X0047553Y0041324D01*
X0047553Y0041519D02*
X0052467Y0041519D01*
X0052467Y0041714D02*
X0047553Y0041714D01*
X0047553Y0041909D02*
X0052467Y0041909D01*
X0052467Y0042104D02*
X0047553Y0042104D01*
X0047553Y0042299D02*
X0052467Y0042299D01*
X0052467Y0042494D02*
X0047553Y0042494D01*
X0047553Y0042689D02*
X0052467Y0042689D01*
X0052467Y0042884D02*
X0047553Y0042884D01*
X0047553Y0043079D02*
X0052467Y0043079D01*
X0052467Y0043274D02*
X0047553Y0043274D01*
X0047553Y0043469D02*
X0052467Y0043469D01*
X0052467Y0043664D02*
X0047553Y0043664D01*
X0047553Y0043859D02*
X0052467Y0043859D01*
X0052467Y0044054D02*
X0047553Y0044054D01*
X0047149Y0026197D02*
X0047149Y0021283D01*
X0047149Y0026197D02*
X0052851Y0026197D01*
X0052851Y0021283D01*
X0047149Y0021283D01*
X0047149Y0021478D02*
X0052851Y0021478D01*
X0052851Y0021673D02*
X0047149Y0021673D01*
X0047149Y0021868D02*
X0052851Y0021868D01*
X0052851Y0022063D02*
X0047149Y0022063D01*
X0047149Y0022258D02*
X0052851Y0022258D01*
X0052851Y0022453D02*
X0047149Y0022453D01*
X0047149Y0022648D02*
X0052851Y0022648D01*
X0052851Y0022843D02*
X0047149Y0022843D01*
X0047149Y0023038D02*
X0052851Y0023038D01*
X0052851Y0023233D02*
X0047149Y0023233D01*
X0047149Y0023428D02*
X0052851Y0023428D01*
X0052851Y0023623D02*
X0047149Y0023623D01*
X0047149Y0023818D02*
X0052851Y0023818D01*
X0052851Y0024013D02*
X0047149Y0024013D01*
X0047149Y0024208D02*
X0052851Y0024208D01*
X0052851Y0024403D02*
X0047149Y0024403D01*
X0047149Y0024598D02*
X0052851Y0024598D01*
X0052851Y0024793D02*
X0047149Y0024793D01*
X0047149Y0024988D02*
X0052851Y0024988D01*
X0052851Y0025183D02*
X0047149Y0025183D01*
X0047149Y0025378D02*
X0052851Y0025378D01*
X0052851Y0025573D02*
X0047149Y0025573D01*
X0047149Y0025768D02*
X0052851Y0025768D01*
X0052851Y0025963D02*
X0047149Y0025963D01*
X0047149Y0026158D02*
X0052851Y0026158D01*
X0055899Y0026197D02*
X0055899Y0021283D01*
X0055899Y0026197D02*
X0061601Y0026197D01*
X0061601Y0021283D01*
X0055899Y0021283D01*
X0055899Y0021478D02*
X0061601Y0021478D01*
X0061601Y0021673D02*
X0055899Y0021673D01*
X0055899Y0021868D02*
X0061601Y0021868D01*
X0061601Y0022063D02*
X0055899Y0022063D01*
X0055899Y0022258D02*
X0061601Y0022258D01*
X0061601Y0022453D02*
X0055899Y0022453D01*
X0055899Y0022648D02*
X0061601Y0022648D01*
X0061601Y0022843D02*
X0055899Y0022843D01*
X0055899Y0023038D02*
X0061601Y0023038D01*
X0061601Y0023233D02*
X0055899Y0023233D01*
X0055899Y0023428D02*
X0061601Y0023428D01*
X0061601Y0023623D02*
X0055899Y0023623D01*
X0055899Y0023818D02*
X0061601Y0023818D01*
X0061601Y0024013D02*
X0055899Y0024013D01*
X0055899Y0024208D02*
X0061601Y0024208D01*
X0061601Y0024403D02*
X0055899Y0024403D01*
X0055899Y0024598D02*
X0061601Y0024598D01*
X0061601Y0024793D02*
X0055899Y0024793D01*
X0055899Y0024988D02*
X0061601Y0024988D01*
X0061601Y0025183D02*
X0055899Y0025183D01*
X0055899Y0025378D02*
X0061601Y0025378D01*
X0061601Y0025573D02*
X0055899Y0025573D01*
X0055899Y0025768D02*
X0061601Y0025768D01*
X0061601Y0025963D02*
X0055899Y0025963D01*
X0055899Y0026158D02*
X0061601Y0026158D01*
X0070351Y0026197D02*
X0070351Y0021283D01*
X0064649Y0021283D01*
X0064649Y0026197D01*
X0070351Y0026197D01*
X0070351Y0021478D02*
X0064649Y0021478D01*
X0064649Y0021673D02*
X0070351Y0021673D01*
X0070351Y0021868D02*
X0064649Y0021868D01*
X0064649Y0022063D02*
X0070351Y0022063D01*
X0070351Y0022258D02*
X0064649Y0022258D01*
X0064649Y0022453D02*
X0070351Y0022453D01*
X0070351Y0022648D02*
X0064649Y0022648D01*
X0064649Y0022843D02*
X0070351Y0022843D01*
X0070351Y0023038D02*
X0064649Y0023038D01*
X0064649Y0023233D02*
X0070351Y0023233D01*
X0070351Y0023428D02*
X0064649Y0023428D01*
X0064649Y0023623D02*
X0070351Y0023623D01*
X0070351Y0023818D02*
X0064649Y0023818D01*
X0064649Y0024013D02*
X0070351Y0024013D01*
X0070351Y0024208D02*
X0064649Y0024208D01*
X0064649Y0024403D02*
X0070351Y0024403D01*
X0070351Y0024598D02*
X0064649Y0024598D01*
X0064649Y0024793D02*
X0070351Y0024793D01*
X0070351Y0024988D02*
X0064649Y0024988D01*
X0064649Y0025183D02*
X0070351Y0025183D01*
X0070351Y0025378D02*
X0064649Y0025378D01*
X0064649Y0025573D02*
X0070351Y0025573D01*
X0070351Y0025768D02*
X0064649Y0025768D01*
X0064649Y0025963D02*
X0070351Y0025963D01*
X0070351Y0026158D02*
X0064649Y0026158D01*
X0070351Y0031303D02*
X0070351Y0036217D01*
X0070351Y0031303D02*
X0064649Y0031303D01*
X0064649Y0036217D01*
X0070351Y0036217D01*
X0070351Y0031498D02*
X0064649Y0031498D01*
X0064649Y0031693D02*
X0070351Y0031693D01*
X0070351Y0031888D02*
X0064649Y0031888D01*
X0064649Y0032083D02*
X0070351Y0032083D01*
X0070351Y0032278D02*
X0064649Y0032278D01*
X0064649Y0032473D02*
X0070351Y0032473D01*
X0070351Y0032668D02*
X0064649Y0032668D01*
X0064649Y0032863D02*
X0070351Y0032863D01*
X0070351Y0033058D02*
X0064649Y0033058D01*
X0064649Y0033253D02*
X0070351Y0033253D01*
X0070351Y0033448D02*
X0064649Y0033448D01*
X0064649Y0033643D02*
X0070351Y0033643D01*
X0070351Y0033838D02*
X0064649Y0033838D01*
X0064649Y0034033D02*
X0070351Y0034033D01*
X0070351Y0034228D02*
X0064649Y0034228D01*
X0064649Y0034423D02*
X0070351Y0034423D01*
X0070351Y0034618D02*
X0064649Y0034618D01*
X0064649Y0034813D02*
X0070351Y0034813D01*
X0070351Y0035008D02*
X0064649Y0035008D01*
X0064649Y0035203D02*
X0070351Y0035203D01*
X0070351Y0035398D02*
X0064649Y0035398D01*
X0064649Y0035593D02*
X0070351Y0035593D01*
X0070351Y0035788D02*
X0064649Y0035788D01*
X0064649Y0035983D02*
X0070351Y0035983D01*
X0070351Y0036178D02*
X0064649Y0036178D01*
X0070351Y0038783D02*
X0070351Y0043697D01*
X0070351Y0038783D02*
X0064649Y0038783D01*
X0064649Y0043697D01*
X0070351Y0043697D01*
X0070351Y0038978D02*
X0064649Y0038978D01*
X0064649Y0039173D02*
X0070351Y0039173D01*
X0070351Y0039368D02*
X0064649Y0039368D01*
X0064649Y0039563D02*
X0070351Y0039563D01*
X0070351Y0039758D02*
X0064649Y0039758D01*
X0064649Y0039953D02*
X0070351Y0039953D01*
X0070351Y0040148D02*
X0064649Y0040148D01*
X0064649Y0040343D02*
X0070351Y0040343D01*
X0070351Y0040538D02*
X0064649Y0040538D01*
X0064649Y0040733D02*
X0070351Y0040733D01*
X0070351Y0040928D02*
X0064649Y0040928D01*
X0064649Y0041123D02*
X0070351Y0041123D01*
X0070351Y0041318D02*
X0064649Y0041318D01*
X0064649Y0041513D02*
X0070351Y0041513D01*
X0070351Y0041708D02*
X0064649Y0041708D01*
X0064649Y0041903D02*
X0070351Y0041903D01*
X0070351Y0042098D02*
X0064649Y0042098D01*
X0064649Y0042293D02*
X0070351Y0042293D01*
X0070351Y0042488D02*
X0064649Y0042488D01*
X0064649Y0042683D02*
X0070351Y0042683D01*
X0070351Y0042878D02*
X0064649Y0042878D01*
X0064649Y0043073D02*
X0070351Y0043073D01*
X0070351Y0043268D02*
X0064649Y0043268D01*
X0064649Y0043463D02*
X0070351Y0043463D01*
X0070351Y0043658D02*
X0064649Y0043658D01*
X0070351Y0018717D02*
X0070351Y0013803D01*
X0064649Y0013803D01*
X0064649Y0018717D01*
X0070351Y0018717D01*
X0070351Y0013998D02*
X0064649Y0013998D01*
X0064649Y0014193D02*
X0070351Y0014193D01*
X0070351Y0014388D02*
X0064649Y0014388D01*
X0064649Y0014583D02*
X0070351Y0014583D01*
X0070351Y0014778D02*
X0064649Y0014778D01*
X0064649Y0014973D02*
X0070351Y0014973D01*
X0070351Y0015168D02*
X0064649Y0015168D01*
X0064649Y0015363D02*
X0070351Y0015363D01*
X0070351Y0015558D02*
X0064649Y0015558D01*
X0064649Y0015753D02*
X0070351Y0015753D01*
X0070351Y0015948D02*
X0064649Y0015948D01*
X0064649Y0016143D02*
X0070351Y0016143D01*
X0070351Y0016338D02*
X0064649Y0016338D01*
X0064649Y0016533D02*
X0070351Y0016533D01*
X0070351Y0016728D02*
X0064649Y0016728D01*
X0064649Y0016923D02*
X0070351Y0016923D01*
X0070351Y0017118D02*
X0064649Y0017118D01*
X0064649Y0017313D02*
X0070351Y0017313D01*
X0070351Y0017508D02*
X0064649Y0017508D01*
X0064649Y0017703D02*
X0070351Y0017703D01*
X0070351Y0017898D02*
X0064649Y0017898D01*
X0064649Y0018093D02*
X0070351Y0018093D01*
X0070351Y0018288D02*
X0064649Y0018288D01*
X0064649Y0018483D02*
X0070351Y0018483D01*
X0070351Y0018678D02*
X0064649Y0018678D01*
X0055899Y0018717D02*
X0055899Y0013803D01*
X0055899Y0018717D02*
X0061601Y0018717D01*
X0061601Y0013803D01*
X0055899Y0013803D01*
X0055899Y0013998D02*
X0061601Y0013998D01*
X0061601Y0014193D02*
X0055899Y0014193D01*
X0055899Y0014388D02*
X0061601Y0014388D01*
X0061601Y0014583D02*
X0055899Y0014583D01*
X0055899Y0014778D02*
X0061601Y0014778D01*
X0061601Y0014973D02*
X0055899Y0014973D01*
X0055899Y0015168D02*
X0061601Y0015168D01*
X0061601Y0015363D02*
X0055899Y0015363D01*
X0055899Y0015558D02*
X0061601Y0015558D01*
X0061601Y0015753D02*
X0055899Y0015753D01*
X0055899Y0015948D02*
X0061601Y0015948D01*
X0061601Y0016143D02*
X0055899Y0016143D01*
X0055899Y0016338D02*
X0061601Y0016338D01*
X0061601Y0016533D02*
X0055899Y0016533D01*
X0055899Y0016728D02*
X0061601Y0016728D01*
X0061601Y0016923D02*
X0055899Y0016923D01*
X0055899Y0017118D02*
X0061601Y0017118D01*
X0061601Y0017313D02*
X0055899Y0017313D01*
X0055899Y0017508D02*
X0061601Y0017508D01*
X0061601Y0017703D02*
X0055899Y0017703D01*
X0055899Y0017898D02*
X0061601Y0017898D01*
X0061601Y0018093D02*
X0055899Y0018093D01*
X0055899Y0018288D02*
X0061601Y0018288D01*
X0061601Y0018483D02*
X0055899Y0018483D01*
X0055899Y0018678D02*
X0061601Y0018678D01*
X0047149Y0018717D02*
X0047149Y0013803D01*
X0047149Y0018717D02*
X0052851Y0018717D01*
X0052851Y0013803D01*
X0047149Y0013803D01*
X0047149Y0013998D02*
X0052851Y0013998D01*
X0052851Y0014193D02*
X0047149Y0014193D01*
X0047149Y0014388D02*
X0052851Y0014388D01*
X0052851Y0014583D02*
X0047149Y0014583D01*
X0047149Y0014778D02*
X0052851Y0014778D01*
X0052851Y0014973D02*
X0047149Y0014973D01*
X0047149Y0015168D02*
X0052851Y0015168D01*
X0052851Y0015363D02*
X0047149Y0015363D01*
X0047149Y0015558D02*
X0052851Y0015558D01*
X0052851Y0015753D02*
X0047149Y0015753D01*
X0047149Y0015948D02*
X0052851Y0015948D01*
X0052851Y0016143D02*
X0047149Y0016143D01*
X0047149Y0016338D02*
X0052851Y0016338D01*
X0052851Y0016533D02*
X0047149Y0016533D01*
X0047149Y0016728D02*
X0052851Y0016728D01*
X0052851Y0016923D02*
X0047149Y0016923D01*
X0047149Y0017118D02*
X0052851Y0017118D01*
X0052851Y0017313D02*
X0047149Y0017313D01*
X0047149Y0017508D02*
X0052851Y0017508D01*
X0052851Y0017703D02*
X0047149Y0017703D01*
X0047149Y0017898D02*
X0052851Y0017898D01*
X0052851Y0018093D02*
X0047149Y0018093D01*
X0047149Y0018288D02*
X0052851Y0018288D01*
X0052851Y0018483D02*
X0047149Y0018483D01*
X0047149Y0018678D02*
X0052851Y0018678D01*
X0097553Y0056601D02*
X0102467Y0056601D01*
X0102467Y0050899D01*
X0097553Y0050899D01*
X0097553Y0056601D01*
X0097553Y0051094D02*
X0102467Y0051094D01*
X0102467Y0051289D02*
X0097553Y0051289D01*
X0097553Y0051484D02*
X0102467Y0051484D01*
X0102467Y0051679D02*
X0097553Y0051679D01*
X0097553Y0051874D02*
X0102467Y0051874D01*
X0102467Y0052069D02*
X0097553Y0052069D01*
X0097553Y0052264D02*
X0102467Y0052264D01*
X0102467Y0052459D02*
X0097553Y0052459D01*
X0097553Y0052654D02*
X0102467Y0052654D01*
X0102467Y0052849D02*
X0097553Y0052849D01*
X0097553Y0053044D02*
X0102467Y0053044D01*
X0102467Y0053239D02*
X0097553Y0053239D01*
X0097553Y0053434D02*
X0102467Y0053434D01*
X0102467Y0053629D02*
X0097553Y0053629D01*
X0097553Y0053824D02*
X0102467Y0053824D01*
X0102467Y0054019D02*
X0097553Y0054019D01*
X0097553Y0054214D02*
X0102467Y0054214D01*
X0102467Y0054409D02*
X0097553Y0054409D01*
X0097553Y0054604D02*
X0102467Y0054604D01*
X0102467Y0054799D02*
X0097553Y0054799D01*
X0097553Y0054994D02*
X0102467Y0054994D01*
X0102467Y0055189D02*
X0097553Y0055189D01*
X0097553Y0055384D02*
X0102467Y0055384D01*
X0102467Y0055579D02*
X0097553Y0055579D01*
X0097553Y0055774D02*
X0102467Y0055774D01*
X0102467Y0055969D02*
X0097553Y0055969D01*
X0097553Y0056164D02*
X0102467Y0056164D01*
X0102467Y0056359D02*
X0097553Y0056359D01*
X0097553Y0056554D02*
X0102467Y0056554D01*
X0105033Y0056601D02*
X0109947Y0056601D01*
X0109947Y0050899D01*
X0105033Y0050899D01*
X0105033Y0056601D01*
X0105033Y0051094D02*
X0109947Y0051094D01*
X0109947Y0051289D02*
X0105033Y0051289D01*
X0105033Y0051484D02*
X0109947Y0051484D01*
X0109947Y0051679D02*
X0105033Y0051679D01*
X0105033Y0051874D02*
X0109947Y0051874D01*
X0109947Y0052069D02*
X0105033Y0052069D01*
X0105033Y0052264D02*
X0109947Y0052264D01*
X0109947Y0052459D02*
X0105033Y0052459D01*
X0105033Y0052654D02*
X0109947Y0052654D01*
X0109947Y0052849D02*
X0105033Y0052849D01*
X0105033Y0053044D02*
X0109947Y0053044D01*
X0109947Y0053239D02*
X0105033Y0053239D01*
X0105033Y0053434D02*
X0109947Y0053434D01*
X0109947Y0053629D02*
X0105033Y0053629D01*
X0105033Y0053824D02*
X0109947Y0053824D01*
X0109947Y0054019D02*
X0105033Y0054019D01*
X0105033Y0054214D02*
X0109947Y0054214D01*
X0109947Y0054409D02*
X0105033Y0054409D01*
X0105033Y0054604D02*
X0109947Y0054604D01*
X0109947Y0054799D02*
X0105033Y0054799D01*
X0105033Y0054994D02*
X0109947Y0054994D01*
X0109947Y0055189D02*
X0105033Y0055189D01*
X0105033Y0055384D02*
X0109947Y0055384D01*
X0109947Y0055579D02*
X0105033Y0055579D01*
X0105033Y0055774D02*
X0109947Y0055774D01*
X0109947Y0055969D02*
X0105033Y0055969D01*
X0105033Y0056164D02*
X0109947Y0056164D01*
X0109947Y0056359D02*
X0105033Y0056359D01*
X0105033Y0056554D02*
X0109947Y0056554D01*
X0096197Y0129649D02*
X0091283Y0129649D01*
X0091283Y0135351D01*
X0096197Y0135351D01*
X0096197Y0129649D01*
X0096197Y0129844D02*
X0091283Y0129844D01*
X0091283Y0130039D02*
X0096197Y0130039D01*
X0096197Y0130234D02*
X0091283Y0130234D01*
X0091283Y0130429D02*
X0096197Y0130429D01*
X0096197Y0130624D02*
X0091283Y0130624D01*
X0091283Y0130819D02*
X0096197Y0130819D01*
X0096197Y0131014D02*
X0091283Y0131014D01*
X0091283Y0131209D02*
X0096197Y0131209D01*
X0096197Y0131404D02*
X0091283Y0131404D01*
X0091283Y0131599D02*
X0096197Y0131599D01*
X0096197Y0131794D02*
X0091283Y0131794D01*
X0091283Y0131989D02*
X0096197Y0131989D01*
X0096197Y0132184D02*
X0091283Y0132184D01*
X0091283Y0132379D02*
X0096197Y0132379D01*
X0096197Y0132574D02*
X0091283Y0132574D01*
X0091283Y0132769D02*
X0096197Y0132769D01*
X0096197Y0132964D02*
X0091283Y0132964D01*
X0091283Y0133159D02*
X0096197Y0133159D01*
X0096197Y0133354D02*
X0091283Y0133354D01*
X0091283Y0133549D02*
X0096197Y0133549D01*
X0096197Y0133744D02*
X0091283Y0133744D01*
X0091283Y0133939D02*
X0096197Y0133939D01*
X0096197Y0134134D02*
X0091283Y0134134D01*
X0091283Y0134329D02*
X0096197Y0134329D01*
X0096197Y0134524D02*
X0091283Y0134524D01*
X0091283Y0134719D02*
X0096197Y0134719D01*
X0096197Y0134914D02*
X0091283Y0134914D01*
X0091283Y0135109D02*
X0096197Y0135109D01*
X0096197Y0135304D02*
X0091283Y0135304D01*
X0088717Y0129649D02*
X0083803Y0129649D01*
X0083803Y0135351D01*
X0088717Y0135351D01*
X0088717Y0129649D01*
X0088717Y0129844D02*
X0083803Y0129844D01*
X0083803Y0130039D02*
X0088717Y0130039D01*
X0088717Y0130234D02*
X0083803Y0130234D01*
X0083803Y0130429D02*
X0088717Y0130429D01*
X0088717Y0130624D02*
X0083803Y0130624D01*
X0083803Y0130819D02*
X0088717Y0130819D01*
X0088717Y0131014D02*
X0083803Y0131014D01*
X0083803Y0131209D02*
X0088717Y0131209D01*
X0088717Y0131404D02*
X0083803Y0131404D01*
X0083803Y0131599D02*
X0088717Y0131599D01*
X0088717Y0131794D02*
X0083803Y0131794D01*
X0083803Y0131989D02*
X0088717Y0131989D01*
X0088717Y0132184D02*
X0083803Y0132184D01*
X0083803Y0132379D02*
X0088717Y0132379D01*
X0088717Y0132574D02*
X0083803Y0132574D01*
X0083803Y0132769D02*
X0088717Y0132769D01*
X0088717Y0132964D02*
X0083803Y0132964D01*
X0083803Y0133159D02*
X0088717Y0133159D01*
X0088717Y0133354D02*
X0083803Y0133354D01*
X0083803Y0133549D02*
X0088717Y0133549D01*
X0088717Y0133744D02*
X0083803Y0133744D01*
X0083803Y0133939D02*
X0088717Y0133939D01*
X0088717Y0134134D02*
X0083803Y0134134D01*
X0083803Y0134329D02*
X0088717Y0134329D01*
X0088717Y0134524D02*
X0083803Y0134524D01*
X0083803Y0134719D02*
X0088717Y0134719D01*
X0088717Y0134914D02*
X0083803Y0134914D01*
X0083803Y0135109D02*
X0088717Y0135109D01*
X0088717Y0135304D02*
X0083803Y0135304D01*
X0079947Y0135351D02*
X0075033Y0135351D01*
X0079947Y0135351D02*
X0079947Y0129649D01*
X0075033Y0129649D01*
X0075033Y0135351D01*
X0075033Y0129844D02*
X0079947Y0129844D01*
X0079947Y0130039D02*
X0075033Y0130039D01*
X0075033Y0130234D02*
X0079947Y0130234D01*
X0079947Y0130429D02*
X0075033Y0130429D01*
X0075033Y0130624D02*
X0079947Y0130624D01*
X0079947Y0130819D02*
X0075033Y0130819D01*
X0075033Y0131014D02*
X0079947Y0131014D01*
X0079947Y0131209D02*
X0075033Y0131209D01*
X0075033Y0131404D02*
X0079947Y0131404D01*
X0079947Y0131599D02*
X0075033Y0131599D01*
X0075033Y0131794D02*
X0079947Y0131794D01*
X0079947Y0131989D02*
X0075033Y0131989D01*
X0075033Y0132184D02*
X0079947Y0132184D01*
X0079947Y0132379D02*
X0075033Y0132379D01*
X0075033Y0132574D02*
X0079947Y0132574D01*
X0079947Y0132769D02*
X0075033Y0132769D01*
X0075033Y0132964D02*
X0079947Y0132964D01*
X0079947Y0133159D02*
X0075033Y0133159D01*
X0075033Y0133354D02*
X0079947Y0133354D01*
X0079947Y0133549D02*
X0075033Y0133549D01*
X0075033Y0133744D02*
X0079947Y0133744D01*
X0079947Y0133939D02*
X0075033Y0133939D01*
X0075033Y0134134D02*
X0079947Y0134134D01*
X0079947Y0134329D02*
X0075033Y0134329D01*
X0075033Y0134524D02*
X0079947Y0134524D01*
X0079947Y0134719D02*
X0075033Y0134719D01*
X0075033Y0134914D02*
X0079947Y0134914D01*
X0079947Y0135109D02*
X0075033Y0135109D01*
X0075033Y0135304D02*
X0079947Y0135304D01*
X0072467Y0135351D02*
X0067553Y0135351D01*
X0072467Y0135351D02*
X0072467Y0129649D01*
X0067553Y0129649D01*
X0067553Y0135351D01*
X0067553Y0129844D02*
X0072467Y0129844D01*
X0072467Y0130039D02*
X0067553Y0130039D01*
X0067553Y0130234D02*
X0072467Y0130234D01*
X0072467Y0130429D02*
X0067553Y0130429D01*
X0067553Y0130624D02*
X0072467Y0130624D01*
X0072467Y0130819D02*
X0067553Y0130819D01*
X0067553Y0131014D02*
X0072467Y0131014D01*
X0072467Y0131209D02*
X0067553Y0131209D01*
X0067553Y0131404D02*
X0072467Y0131404D01*
X0072467Y0131599D02*
X0067553Y0131599D01*
X0067553Y0131794D02*
X0072467Y0131794D01*
X0072467Y0131989D02*
X0067553Y0131989D01*
X0067553Y0132184D02*
X0072467Y0132184D01*
X0072467Y0132379D02*
X0067553Y0132379D01*
X0067553Y0132574D02*
X0072467Y0132574D01*
X0072467Y0132769D02*
X0067553Y0132769D01*
X0067553Y0132964D02*
X0072467Y0132964D01*
X0072467Y0133159D02*
X0067553Y0133159D01*
X0067553Y0133354D02*
X0072467Y0133354D01*
X0072467Y0133549D02*
X0067553Y0133549D01*
X0067553Y0133744D02*
X0072467Y0133744D01*
X0072467Y0133939D02*
X0067553Y0133939D01*
X0067553Y0134134D02*
X0072467Y0134134D01*
X0072467Y0134329D02*
X0067553Y0134329D01*
X0067553Y0134524D02*
X0072467Y0134524D01*
X0072467Y0134719D02*
X0067553Y0134719D01*
X0067553Y0134914D02*
X0072467Y0134914D01*
X0072467Y0135109D02*
X0067553Y0135109D01*
X0067553Y0135304D02*
X0072467Y0135304D01*
X0086303Y0174101D02*
X0091217Y0174101D01*
X0091217Y0168399D01*
X0086303Y0168399D01*
X0086303Y0174101D01*
X0086303Y0168594D02*
X0091217Y0168594D01*
X0091217Y0168789D02*
X0086303Y0168789D01*
X0086303Y0168984D02*
X0091217Y0168984D01*
X0091217Y0169179D02*
X0086303Y0169179D01*
X0086303Y0169374D02*
X0091217Y0169374D01*
X0091217Y0169569D02*
X0086303Y0169569D01*
X0086303Y0169764D02*
X0091217Y0169764D01*
X0091217Y0169959D02*
X0086303Y0169959D01*
X0086303Y0170154D02*
X0091217Y0170154D01*
X0091217Y0170349D02*
X0086303Y0170349D01*
X0086303Y0170544D02*
X0091217Y0170544D01*
X0091217Y0170739D02*
X0086303Y0170739D01*
X0086303Y0170934D02*
X0091217Y0170934D01*
X0091217Y0171129D02*
X0086303Y0171129D01*
X0086303Y0171324D02*
X0091217Y0171324D01*
X0091217Y0171519D02*
X0086303Y0171519D01*
X0086303Y0171714D02*
X0091217Y0171714D01*
X0091217Y0171909D02*
X0086303Y0171909D01*
X0086303Y0172104D02*
X0091217Y0172104D01*
X0091217Y0172299D02*
X0086303Y0172299D01*
X0086303Y0172494D02*
X0091217Y0172494D01*
X0091217Y0172689D02*
X0086303Y0172689D01*
X0086303Y0172884D02*
X0091217Y0172884D01*
X0091217Y0173079D02*
X0086303Y0173079D01*
X0086303Y0173274D02*
X0091217Y0173274D01*
X0091217Y0173469D02*
X0086303Y0173469D01*
X0086303Y0173664D02*
X0091217Y0173664D01*
X0091217Y0173859D02*
X0086303Y0173859D01*
X0086303Y0174054D02*
X0091217Y0174054D01*
X0093783Y0174101D02*
X0098697Y0174101D01*
X0098697Y0168399D01*
X0093783Y0168399D01*
X0093783Y0174101D01*
X0093783Y0168594D02*
X0098697Y0168594D01*
X0098697Y0168789D02*
X0093783Y0168789D01*
X0093783Y0168984D02*
X0098697Y0168984D01*
X0098697Y0169179D02*
X0093783Y0169179D01*
X0093783Y0169374D02*
X0098697Y0169374D01*
X0098697Y0169569D02*
X0093783Y0169569D01*
X0093783Y0169764D02*
X0098697Y0169764D01*
X0098697Y0169959D02*
X0093783Y0169959D01*
X0093783Y0170154D02*
X0098697Y0170154D01*
X0098697Y0170349D02*
X0093783Y0170349D01*
X0093783Y0170544D02*
X0098697Y0170544D01*
X0098697Y0170739D02*
X0093783Y0170739D01*
X0093783Y0170934D02*
X0098697Y0170934D01*
X0098697Y0171129D02*
X0093783Y0171129D01*
X0093783Y0171324D02*
X0098697Y0171324D01*
X0098697Y0171519D02*
X0093783Y0171519D01*
X0093783Y0171714D02*
X0098697Y0171714D01*
X0098697Y0171909D02*
X0093783Y0171909D01*
X0093783Y0172104D02*
X0098697Y0172104D01*
X0098697Y0172299D02*
X0093783Y0172299D01*
X0093783Y0172494D02*
X0098697Y0172494D01*
X0098697Y0172689D02*
X0093783Y0172689D01*
X0093783Y0172884D02*
X0098697Y0172884D01*
X0098697Y0173079D02*
X0093783Y0173079D01*
X0093783Y0173274D02*
X0098697Y0173274D01*
X0098697Y0173469D02*
X0093783Y0173469D01*
X0093783Y0173664D02*
X0098697Y0173664D01*
X0098697Y0173859D02*
X0093783Y0173859D01*
X0093783Y0174054D02*
X0098697Y0174054D01*
X0102553Y0165351D02*
X0107467Y0165351D01*
X0107467Y0159649D01*
X0102553Y0159649D01*
X0102553Y0165351D01*
X0102553Y0159844D02*
X0107467Y0159844D01*
X0107467Y0160039D02*
X0102553Y0160039D01*
X0102553Y0160234D02*
X0107467Y0160234D01*
X0107467Y0160429D02*
X0102553Y0160429D01*
X0102553Y0160624D02*
X0107467Y0160624D01*
X0107467Y0160819D02*
X0102553Y0160819D01*
X0102553Y0161014D02*
X0107467Y0161014D01*
X0107467Y0161209D02*
X0102553Y0161209D01*
X0102553Y0161404D02*
X0107467Y0161404D01*
X0107467Y0161599D02*
X0102553Y0161599D01*
X0102553Y0161794D02*
X0107467Y0161794D01*
X0107467Y0161989D02*
X0102553Y0161989D01*
X0102553Y0162184D02*
X0107467Y0162184D01*
X0107467Y0162379D02*
X0102553Y0162379D01*
X0102553Y0162574D02*
X0107467Y0162574D01*
X0107467Y0162769D02*
X0102553Y0162769D01*
X0102553Y0162964D02*
X0107467Y0162964D01*
X0107467Y0163159D02*
X0102553Y0163159D01*
X0102553Y0163354D02*
X0107467Y0163354D01*
X0107467Y0163549D02*
X0102553Y0163549D01*
X0102553Y0163744D02*
X0107467Y0163744D01*
X0107467Y0163939D02*
X0102553Y0163939D01*
X0102553Y0164134D02*
X0107467Y0164134D01*
X0107467Y0164329D02*
X0102553Y0164329D01*
X0102553Y0164524D02*
X0107467Y0164524D01*
X0107467Y0164719D02*
X0102553Y0164719D01*
X0102553Y0164914D02*
X0107467Y0164914D01*
X0107467Y0165109D02*
X0102553Y0165109D01*
X0102553Y0165304D02*
X0107467Y0165304D01*
X0110033Y0165351D02*
X0114947Y0165351D01*
X0114947Y0159649D01*
X0110033Y0159649D01*
X0110033Y0165351D01*
X0110033Y0159844D02*
X0114947Y0159844D01*
X0114947Y0160039D02*
X0110033Y0160039D01*
X0110033Y0160234D02*
X0114947Y0160234D01*
X0114947Y0160429D02*
X0110033Y0160429D01*
X0110033Y0160624D02*
X0114947Y0160624D01*
X0114947Y0160819D02*
X0110033Y0160819D01*
X0110033Y0161014D02*
X0114947Y0161014D01*
X0114947Y0161209D02*
X0110033Y0161209D01*
X0110033Y0161404D02*
X0114947Y0161404D01*
X0114947Y0161599D02*
X0110033Y0161599D01*
X0110033Y0161794D02*
X0114947Y0161794D01*
X0114947Y0161989D02*
X0110033Y0161989D01*
X0110033Y0162184D02*
X0114947Y0162184D01*
X0114947Y0162379D02*
X0110033Y0162379D01*
X0110033Y0162574D02*
X0114947Y0162574D01*
X0114947Y0162769D02*
X0110033Y0162769D01*
X0110033Y0162964D02*
X0114947Y0162964D01*
X0114947Y0163159D02*
X0110033Y0163159D01*
X0110033Y0163354D02*
X0114947Y0163354D01*
X0114947Y0163549D02*
X0110033Y0163549D01*
X0110033Y0163744D02*
X0114947Y0163744D01*
X0114947Y0163939D02*
X0110033Y0163939D01*
X0110033Y0164134D02*
X0114947Y0164134D01*
X0114947Y0164329D02*
X0110033Y0164329D01*
X0110033Y0164524D02*
X0114947Y0164524D01*
X0114947Y0164719D02*
X0110033Y0164719D01*
X0110033Y0164914D02*
X0114947Y0164914D01*
X0114947Y0165109D02*
X0110033Y0165109D01*
X0110033Y0165304D02*
X0114947Y0165304D01*
X0103399Y0154947D02*
X0103399Y0150033D01*
X0103399Y0154947D02*
X0109101Y0154947D01*
X0109101Y0150033D01*
X0103399Y0150033D01*
X0103399Y0150228D02*
X0109101Y0150228D01*
X0109101Y0150423D02*
X0103399Y0150423D01*
X0103399Y0150618D02*
X0109101Y0150618D01*
X0109101Y0150813D02*
X0103399Y0150813D01*
X0103399Y0151008D02*
X0109101Y0151008D01*
X0109101Y0151203D02*
X0103399Y0151203D01*
X0103399Y0151398D02*
X0109101Y0151398D01*
X0109101Y0151593D02*
X0103399Y0151593D01*
X0103399Y0151788D02*
X0109101Y0151788D01*
X0109101Y0151983D02*
X0103399Y0151983D01*
X0103399Y0152178D02*
X0109101Y0152178D01*
X0109101Y0152373D02*
X0103399Y0152373D01*
X0103399Y0152568D02*
X0109101Y0152568D01*
X0109101Y0152763D02*
X0103399Y0152763D01*
X0103399Y0152958D02*
X0109101Y0152958D01*
X0109101Y0153153D02*
X0103399Y0153153D01*
X0103399Y0153348D02*
X0109101Y0153348D01*
X0109101Y0153543D02*
X0103399Y0153543D01*
X0103399Y0153738D02*
X0109101Y0153738D01*
X0109101Y0153933D02*
X0103399Y0153933D01*
X0103399Y0154128D02*
X0109101Y0154128D01*
X0109101Y0154323D02*
X0103399Y0154323D01*
X0103399Y0154518D02*
X0109101Y0154518D01*
X0109101Y0154713D02*
X0103399Y0154713D01*
X0103399Y0154908D02*
X0109101Y0154908D01*
X0103399Y0147467D02*
X0103399Y0142553D01*
X0103399Y0147467D02*
X0109101Y0147467D01*
X0109101Y0142553D01*
X0103399Y0142553D01*
X0103399Y0142748D02*
X0109101Y0142748D01*
X0109101Y0142943D02*
X0103399Y0142943D01*
X0103399Y0143138D02*
X0109101Y0143138D01*
X0109101Y0143333D02*
X0103399Y0143333D01*
X0103399Y0143528D02*
X0109101Y0143528D01*
X0109101Y0143723D02*
X0103399Y0143723D01*
X0103399Y0143918D02*
X0109101Y0143918D01*
X0109101Y0144113D02*
X0103399Y0144113D01*
X0103399Y0144308D02*
X0109101Y0144308D01*
X0109101Y0144503D02*
X0103399Y0144503D01*
X0103399Y0144698D02*
X0109101Y0144698D01*
X0109101Y0144893D02*
X0103399Y0144893D01*
X0103399Y0145088D02*
X0109101Y0145088D01*
X0109101Y0145283D02*
X0103399Y0145283D01*
X0103399Y0145478D02*
X0109101Y0145478D01*
X0109101Y0145673D02*
X0103399Y0145673D01*
X0103399Y0145868D02*
X0109101Y0145868D01*
X0109101Y0146063D02*
X0103399Y0146063D01*
X0103399Y0146258D02*
X0109101Y0146258D01*
X0109101Y0146453D02*
X0103399Y0146453D01*
X0103399Y0146648D02*
X0109101Y0146648D01*
X0109101Y0146843D02*
X0103399Y0146843D01*
X0103399Y0147038D02*
X0109101Y0147038D01*
X0109101Y0147233D02*
X0103399Y0147233D01*
X0103399Y0147428D02*
X0109101Y0147428D01*
X0067447Y0174649D02*
X0062533Y0174649D01*
X0062533Y0180351D01*
X0067447Y0180351D01*
X0067447Y0174649D01*
X0067447Y0174844D02*
X0062533Y0174844D01*
X0062533Y0175039D02*
X0067447Y0175039D01*
X0067447Y0175234D02*
X0062533Y0175234D01*
X0062533Y0175429D02*
X0067447Y0175429D01*
X0067447Y0175624D02*
X0062533Y0175624D01*
X0062533Y0175819D02*
X0067447Y0175819D01*
X0067447Y0176014D02*
X0062533Y0176014D01*
X0062533Y0176209D02*
X0067447Y0176209D01*
X0067447Y0176404D02*
X0062533Y0176404D01*
X0062533Y0176599D02*
X0067447Y0176599D01*
X0067447Y0176794D02*
X0062533Y0176794D01*
X0062533Y0176989D02*
X0067447Y0176989D01*
X0067447Y0177184D02*
X0062533Y0177184D01*
X0062533Y0177379D02*
X0067447Y0177379D01*
X0067447Y0177574D02*
X0062533Y0177574D01*
X0062533Y0177769D02*
X0067447Y0177769D01*
X0067447Y0177964D02*
X0062533Y0177964D01*
X0062533Y0178159D02*
X0067447Y0178159D01*
X0067447Y0178354D02*
X0062533Y0178354D01*
X0062533Y0178549D02*
X0067447Y0178549D01*
X0067447Y0178744D02*
X0062533Y0178744D01*
X0062533Y0178939D02*
X0067447Y0178939D01*
X0067447Y0179134D02*
X0062533Y0179134D01*
X0062533Y0179329D02*
X0067447Y0179329D01*
X0067447Y0179524D02*
X0062533Y0179524D01*
X0062533Y0179719D02*
X0067447Y0179719D01*
X0067447Y0179914D02*
X0062533Y0179914D01*
X0062533Y0180109D02*
X0067447Y0180109D01*
X0067447Y0180304D02*
X0062533Y0180304D01*
X0059967Y0174649D02*
X0055053Y0174649D01*
X0055053Y0180351D01*
X0059967Y0180351D01*
X0059967Y0174649D01*
X0059967Y0174844D02*
X0055053Y0174844D01*
X0055053Y0175039D02*
X0059967Y0175039D01*
X0059967Y0175234D02*
X0055053Y0175234D01*
X0055053Y0175429D02*
X0059967Y0175429D01*
X0059967Y0175624D02*
X0055053Y0175624D01*
X0055053Y0175819D02*
X0059967Y0175819D01*
X0059967Y0176014D02*
X0055053Y0176014D01*
X0055053Y0176209D02*
X0059967Y0176209D01*
X0059967Y0176404D02*
X0055053Y0176404D01*
X0055053Y0176599D02*
X0059967Y0176599D01*
X0059967Y0176794D02*
X0055053Y0176794D01*
X0055053Y0176989D02*
X0059967Y0176989D01*
X0059967Y0177184D02*
X0055053Y0177184D01*
X0055053Y0177379D02*
X0059967Y0177379D01*
X0059967Y0177574D02*
X0055053Y0177574D01*
X0055053Y0177769D02*
X0059967Y0177769D01*
X0059967Y0177964D02*
X0055053Y0177964D01*
X0055053Y0178159D02*
X0059967Y0178159D01*
X0059967Y0178354D02*
X0055053Y0178354D01*
X0055053Y0178549D02*
X0059967Y0178549D01*
X0059967Y0178744D02*
X0055053Y0178744D01*
X0055053Y0178939D02*
X0059967Y0178939D01*
X0059967Y0179134D02*
X0055053Y0179134D01*
X0055053Y0179329D02*
X0059967Y0179329D01*
X0059967Y0179524D02*
X0055053Y0179524D01*
X0055053Y0179719D02*
X0059967Y0179719D01*
X0059967Y0179914D02*
X0055053Y0179914D01*
X0055053Y0180109D02*
X0059967Y0180109D01*
X0059967Y0180304D02*
X0055053Y0180304D01*
X0055053Y0183399D02*
X0059967Y0183399D01*
X0055053Y0183399D02*
X0055053Y0189101D01*
X0059967Y0189101D01*
X0059967Y0183399D01*
X0059967Y0183594D02*
X0055053Y0183594D01*
X0055053Y0183789D02*
X0059967Y0183789D01*
X0059967Y0183984D02*
X0055053Y0183984D01*
X0055053Y0184179D02*
X0059967Y0184179D01*
X0059967Y0184374D02*
X0055053Y0184374D01*
X0055053Y0184569D02*
X0059967Y0184569D01*
X0059967Y0184764D02*
X0055053Y0184764D01*
X0055053Y0184959D02*
X0059967Y0184959D01*
X0059967Y0185154D02*
X0055053Y0185154D01*
X0055053Y0185349D02*
X0059967Y0185349D01*
X0059967Y0185544D02*
X0055053Y0185544D01*
X0055053Y0185739D02*
X0059967Y0185739D01*
X0059967Y0185934D02*
X0055053Y0185934D01*
X0055053Y0186129D02*
X0059967Y0186129D01*
X0059967Y0186324D02*
X0055053Y0186324D01*
X0055053Y0186519D02*
X0059967Y0186519D01*
X0059967Y0186714D02*
X0055053Y0186714D01*
X0055053Y0186909D02*
X0059967Y0186909D01*
X0059967Y0187104D02*
X0055053Y0187104D01*
X0055053Y0187299D02*
X0059967Y0187299D01*
X0059967Y0187494D02*
X0055053Y0187494D01*
X0055053Y0187689D02*
X0059967Y0187689D01*
X0059967Y0187884D02*
X0055053Y0187884D01*
X0055053Y0188079D02*
X0059967Y0188079D01*
X0059967Y0188274D02*
X0055053Y0188274D01*
X0055053Y0188469D02*
X0059967Y0188469D01*
X0059967Y0188664D02*
X0055053Y0188664D01*
X0055053Y0188859D02*
X0059967Y0188859D01*
X0059967Y0189054D02*
X0055053Y0189054D01*
X0055053Y0197851D02*
X0059967Y0197851D01*
X0059967Y0192149D01*
X0055053Y0192149D01*
X0055053Y0197851D01*
X0055053Y0192344D02*
X0059967Y0192344D01*
X0059967Y0192539D02*
X0055053Y0192539D01*
X0055053Y0192734D02*
X0059967Y0192734D01*
X0059967Y0192929D02*
X0055053Y0192929D01*
X0055053Y0193124D02*
X0059967Y0193124D01*
X0059967Y0193319D02*
X0055053Y0193319D01*
X0055053Y0193514D02*
X0059967Y0193514D01*
X0059967Y0193709D02*
X0055053Y0193709D01*
X0055053Y0193904D02*
X0059967Y0193904D01*
X0059967Y0194099D02*
X0055053Y0194099D01*
X0055053Y0194294D02*
X0059967Y0194294D01*
X0059967Y0194489D02*
X0055053Y0194489D01*
X0055053Y0194684D02*
X0059967Y0194684D01*
X0059967Y0194879D02*
X0055053Y0194879D01*
X0055053Y0195074D02*
X0059967Y0195074D01*
X0059967Y0195269D02*
X0055053Y0195269D01*
X0055053Y0195464D02*
X0059967Y0195464D01*
X0059967Y0195659D02*
X0055053Y0195659D01*
X0055053Y0195854D02*
X0059967Y0195854D01*
X0059967Y0196049D02*
X0055053Y0196049D01*
X0055053Y0196244D02*
X0059967Y0196244D01*
X0059967Y0196439D02*
X0055053Y0196439D01*
X0055053Y0196634D02*
X0059967Y0196634D01*
X0059967Y0196829D02*
X0055053Y0196829D01*
X0055053Y0197024D02*
X0059967Y0197024D01*
X0059967Y0197219D02*
X0055053Y0197219D01*
X0055053Y0197414D02*
X0059967Y0197414D01*
X0059967Y0197609D02*
X0055053Y0197609D01*
X0055053Y0197804D02*
X0059967Y0197804D01*
X0062533Y0197851D02*
X0067447Y0197851D01*
X0067447Y0192149D01*
X0062533Y0192149D01*
X0062533Y0197851D01*
X0062533Y0192344D02*
X0067447Y0192344D01*
X0067447Y0192539D02*
X0062533Y0192539D01*
X0062533Y0192734D02*
X0067447Y0192734D01*
X0067447Y0192929D02*
X0062533Y0192929D01*
X0062533Y0193124D02*
X0067447Y0193124D01*
X0067447Y0193319D02*
X0062533Y0193319D01*
X0062533Y0193514D02*
X0067447Y0193514D01*
X0067447Y0193709D02*
X0062533Y0193709D01*
X0062533Y0193904D02*
X0067447Y0193904D01*
X0067447Y0194099D02*
X0062533Y0194099D01*
X0062533Y0194294D02*
X0067447Y0194294D01*
X0067447Y0194489D02*
X0062533Y0194489D01*
X0062533Y0194684D02*
X0067447Y0194684D01*
X0067447Y0194879D02*
X0062533Y0194879D01*
X0062533Y0195074D02*
X0067447Y0195074D01*
X0067447Y0195269D02*
X0062533Y0195269D01*
X0062533Y0195464D02*
X0067447Y0195464D01*
X0067447Y0195659D02*
X0062533Y0195659D01*
X0062533Y0195854D02*
X0067447Y0195854D01*
X0067447Y0196049D02*
X0062533Y0196049D01*
X0062533Y0196244D02*
X0067447Y0196244D01*
X0067447Y0196439D02*
X0062533Y0196439D01*
X0062533Y0196634D02*
X0067447Y0196634D01*
X0067447Y0196829D02*
X0062533Y0196829D01*
X0062533Y0197024D02*
X0067447Y0197024D01*
X0067447Y0197219D02*
X0062533Y0197219D01*
X0062533Y0197414D02*
X0067447Y0197414D01*
X0067447Y0197609D02*
X0062533Y0197609D01*
X0062533Y0197804D02*
X0067447Y0197804D01*
X0067447Y0183399D02*
X0062533Y0183399D01*
X0062533Y0189101D01*
X0067447Y0189101D01*
X0067447Y0183399D01*
X0067447Y0183594D02*
X0062533Y0183594D01*
X0062533Y0183789D02*
X0067447Y0183789D01*
X0067447Y0183984D02*
X0062533Y0183984D01*
X0062533Y0184179D02*
X0067447Y0184179D01*
X0067447Y0184374D02*
X0062533Y0184374D01*
X0062533Y0184569D02*
X0067447Y0184569D01*
X0067447Y0184764D02*
X0062533Y0184764D01*
X0062533Y0184959D02*
X0067447Y0184959D01*
X0067447Y0185154D02*
X0062533Y0185154D01*
X0062533Y0185349D02*
X0067447Y0185349D01*
X0067447Y0185544D02*
X0062533Y0185544D01*
X0062533Y0185739D02*
X0067447Y0185739D01*
X0067447Y0185934D02*
X0062533Y0185934D01*
X0062533Y0186129D02*
X0067447Y0186129D01*
X0067447Y0186324D02*
X0062533Y0186324D01*
X0062533Y0186519D02*
X0067447Y0186519D01*
X0067447Y0186714D02*
X0062533Y0186714D01*
X0062533Y0186909D02*
X0067447Y0186909D01*
X0067447Y0187104D02*
X0062533Y0187104D01*
X0062533Y0187299D02*
X0067447Y0187299D01*
X0067447Y0187494D02*
X0062533Y0187494D01*
X0062533Y0187689D02*
X0067447Y0187689D01*
X0067447Y0187884D02*
X0062533Y0187884D01*
X0062533Y0188079D02*
X0067447Y0188079D01*
X0067447Y0188274D02*
X0062533Y0188274D01*
X0062533Y0188469D02*
X0067447Y0188469D01*
X0067447Y0188664D02*
X0062533Y0188664D01*
X0062533Y0188859D02*
X0067447Y0188859D01*
X0067447Y0189054D02*
X0062533Y0189054D01*
X0045899Y0190033D02*
X0045899Y0194947D01*
X0051601Y0194947D01*
X0051601Y0190033D01*
X0045899Y0190033D01*
X0045899Y0190228D02*
X0051601Y0190228D01*
X0051601Y0190423D02*
X0045899Y0190423D01*
X0045899Y0190618D02*
X0051601Y0190618D01*
X0051601Y0190813D02*
X0045899Y0190813D01*
X0045899Y0191008D02*
X0051601Y0191008D01*
X0051601Y0191203D02*
X0045899Y0191203D01*
X0045899Y0191398D02*
X0051601Y0191398D01*
X0051601Y0191593D02*
X0045899Y0191593D01*
X0045899Y0191788D02*
X0051601Y0191788D01*
X0051601Y0191983D02*
X0045899Y0191983D01*
X0045899Y0192178D02*
X0051601Y0192178D01*
X0051601Y0192373D02*
X0045899Y0192373D01*
X0045899Y0192568D02*
X0051601Y0192568D01*
X0051601Y0192763D02*
X0045899Y0192763D01*
X0045899Y0192958D02*
X0051601Y0192958D01*
X0051601Y0193153D02*
X0045899Y0193153D01*
X0045899Y0193348D02*
X0051601Y0193348D01*
X0051601Y0193543D02*
X0045899Y0193543D01*
X0045899Y0193738D02*
X0051601Y0193738D01*
X0051601Y0193933D02*
X0045899Y0193933D01*
X0045899Y0194128D02*
X0051601Y0194128D01*
X0051601Y0194323D02*
X0045899Y0194323D01*
X0045899Y0194518D02*
X0051601Y0194518D01*
X0051601Y0194713D02*
X0045899Y0194713D01*
X0045899Y0194908D02*
X0051601Y0194908D01*
X0045899Y0187467D02*
X0045899Y0182553D01*
X0045899Y0187467D02*
X0051601Y0187467D01*
X0051601Y0182553D01*
X0045899Y0182553D01*
X0045899Y0182748D02*
X0051601Y0182748D01*
X0051601Y0182943D02*
X0045899Y0182943D01*
X0045899Y0183138D02*
X0051601Y0183138D01*
X0051601Y0183333D02*
X0045899Y0183333D01*
X0045899Y0183528D02*
X0051601Y0183528D01*
X0051601Y0183723D02*
X0045899Y0183723D01*
X0045899Y0183918D02*
X0051601Y0183918D01*
X0051601Y0184113D02*
X0045899Y0184113D01*
X0045899Y0184308D02*
X0051601Y0184308D01*
X0051601Y0184503D02*
X0045899Y0184503D01*
X0045899Y0184698D02*
X0051601Y0184698D01*
X0051601Y0184893D02*
X0045899Y0184893D01*
X0045899Y0185088D02*
X0051601Y0185088D01*
X0051601Y0185283D02*
X0045899Y0185283D01*
X0045899Y0185478D02*
X0051601Y0185478D01*
X0051601Y0185673D02*
X0045899Y0185673D01*
X0045899Y0185868D02*
X0051601Y0185868D01*
X0051601Y0186063D02*
X0045899Y0186063D01*
X0045899Y0186258D02*
X0051601Y0186258D01*
X0051601Y0186453D02*
X0045899Y0186453D01*
X0045899Y0186648D02*
X0051601Y0186648D01*
X0051601Y0186843D02*
X0045899Y0186843D01*
X0045899Y0187038D02*
X0051601Y0187038D01*
X0051601Y0187233D02*
X0045899Y0187233D01*
X0045899Y0187428D02*
X0051601Y0187428D01*
X0037149Y0187467D02*
X0037149Y0182553D01*
X0037149Y0187467D02*
X0042851Y0187467D01*
X0042851Y0182553D01*
X0037149Y0182553D01*
X0037149Y0182748D02*
X0042851Y0182748D01*
X0042851Y0182943D02*
X0037149Y0182943D01*
X0037149Y0183138D02*
X0042851Y0183138D01*
X0042851Y0183333D02*
X0037149Y0183333D01*
X0037149Y0183528D02*
X0042851Y0183528D01*
X0042851Y0183723D02*
X0037149Y0183723D01*
X0037149Y0183918D02*
X0042851Y0183918D01*
X0042851Y0184113D02*
X0037149Y0184113D01*
X0037149Y0184308D02*
X0042851Y0184308D01*
X0042851Y0184503D02*
X0037149Y0184503D01*
X0037149Y0184698D02*
X0042851Y0184698D01*
X0042851Y0184893D02*
X0037149Y0184893D01*
X0037149Y0185088D02*
X0042851Y0185088D01*
X0042851Y0185283D02*
X0037149Y0185283D01*
X0037149Y0185478D02*
X0042851Y0185478D01*
X0042851Y0185673D02*
X0037149Y0185673D01*
X0037149Y0185868D02*
X0042851Y0185868D01*
X0042851Y0186063D02*
X0037149Y0186063D01*
X0037149Y0186258D02*
X0042851Y0186258D01*
X0042851Y0186453D02*
X0037149Y0186453D01*
X0037149Y0186648D02*
X0042851Y0186648D01*
X0042851Y0186843D02*
X0037149Y0186843D01*
X0037149Y0187038D02*
X0042851Y0187038D01*
X0042851Y0187233D02*
X0037149Y0187233D01*
X0037149Y0187428D02*
X0042851Y0187428D01*
X0037149Y0190033D02*
X0037149Y0194947D01*
X0042851Y0194947D01*
X0042851Y0190033D01*
X0037149Y0190033D01*
X0037149Y0190228D02*
X0042851Y0190228D01*
X0042851Y0190423D02*
X0037149Y0190423D01*
X0037149Y0190618D02*
X0042851Y0190618D01*
X0042851Y0190813D02*
X0037149Y0190813D01*
X0037149Y0191008D02*
X0042851Y0191008D01*
X0042851Y0191203D02*
X0037149Y0191203D01*
X0037149Y0191398D02*
X0042851Y0191398D01*
X0042851Y0191593D02*
X0037149Y0191593D01*
X0037149Y0191788D02*
X0042851Y0191788D01*
X0042851Y0191983D02*
X0037149Y0191983D01*
X0037149Y0192178D02*
X0042851Y0192178D01*
X0042851Y0192373D02*
X0037149Y0192373D01*
X0037149Y0192568D02*
X0042851Y0192568D01*
X0042851Y0192763D02*
X0037149Y0192763D01*
X0037149Y0192958D02*
X0042851Y0192958D01*
X0042851Y0193153D02*
X0037149Y0193153D01*
X0037149Y0193348D02*
X0042851Y0193348D01*
X0042851Y0193543D02*
X0037149Y0193543D01*
X0037149Y0193738D02*
X0042851Y0193738D01*
X0042851Y0193933D02*
X0037149Y0193933D01*
X0037149Y0194128D02*
X0042851Y0194128D01*
X0042851Y0194323D02*
X0037149Y0194323D01*
X0037149Y0194518D02*
X0042851Y0194518D01*
X0042851Y0194713D02*
X0037149Y0194713D01*
X0037149Y0194908D02*
X0042851Y0194908D01*
X0028399Y0194947D02*
X0028399Y0190033D01*
X0028399Y0194947D02*
X0034101Y0194947D01*
X0034101Y0190033D01*
X0028399Y0190033D01*
X0028399Y0190228D02*
X0034101Y0190228D01*
X0034101Y0190423D02*
X0028399Y0190423D01*
X0028399Y0190618D02*
X0034101Y0190618D01*
X0034101Y0190813D02*
X0028399Y0190813D01*
X0028399Y0191008D02*
X0034101Y0191008D01*
X0034101Y0191203D02*
X0028399Y0191203D01*
X0028399Y0191398D02*
X0034101Y0191398D01*
X0034101Y0191593D02*
X0028399Y0191593D01*
X0028399Y0191788D02*
X0034101Y0191788D01*
X0034101Y0191983D02*
X0028399Y0191983D01*
X0028399Y0192178D02*
X0034101Y0192178D01*
X0034101Y0192373D02*
X0028399Y0192373D01*
X0028399Y0192568D02*
X0034101Y0192568D01*
X0034101Y0192763D02*
X0028399Y0192763D01*
X0028399Y0192958D02*
X0034101Y0192958D01*
X0034101Y0193153D02*
X0028399Y0193153D01*
X0028399Y0193348D02*
X0034101Y0193348D01*
X0034101Y0193543D02*
X0028399Y0193543D01*
X0028399Y0193738D02*
X0034101Y0193738D01*
X0034101Y0193933D02*
X0028399Y0193933D01*
X0028399Y0194128D02*
X0034101Y0194128D01*
X0034101Y0194323D02*
X0028399Y0194323D01*
X0028399Y0194518D02*
X0034101Y0194518D01*
X0034101Y0194713D02*
X0028399Y0194713D01*
X0028399Y0194908D02*
X0034101Y0194908D01*
X0028399Y0187467D02*
X0028399Y0182553D01*
X0028399Y0187467D02*
X0034101Y0187467D01*
X0034101Y0182553D01*
X0028399Y0182553D01*
X0028399Y0182748D02*
X0034101Y0182748D01*
X0034101Y0182943D02*
X0028399Y0182943D01*
X0028399Y0183138D02*
X0034101Y0183138D01*
X0034101Y0183333D02*
X0028399Y0183333D01*
X0028399Y0183528D02*
X0034101Y0183528D01*
X0034101Y0183723D02*
X0028399Y0183723D01*
X0028399Y0183918D02*
X0034101Y0183918D01*
X0034101Y0184113D02*
X0028399Y0184113D01*
X0028399Y0184308D02*
X0034101Y0184308D01*
X0034101Y0184503D02*
X0028399Y0184503D01*
X0028399Y0184698D02*
X0034101Y0184698D01*
X0034101Y0184893D02*
X0028399Y0184893D01*
X0028399Y0185088D02*
X0034101Y0185088D01*
X0034101Y0185283D02*
X0028399Y0185283D01*
X0028399Y0185478D02*
X0034101Y0185478D01*
X0034101Y0185673D02*
X0028399Y0185673D01*
X0028399Y0185868D02*
X0034101Y0185868D01*
X0034101Y0186063D02*
X0028399Y0186063D01*
X0028399Y0186258D02*
X0034101Y0186258D01*
X0034101Y0186453D02*
X0028399Y0186453D01*
X0028399Y0186648D02*
X0034101Y0186648D01*
X0034101Y0186843D02*
X0028399Y0186843D01*
X0028399Y0187038D02*
X0034101Y0187038D01*
X0034101Y0187233D02*
X0028399Y0187233D01*
X0028399Y0187428D02*
X0034101Y0187428D01*
X0024947Y0187851D02*
X0020033Y0187851D01*
X0024947Y0187851D02*
X0024947Y0182149D01*
X0020033Y0182149D01*
X0020033Y0187851D01*
X0020033Y0182344D02*
X0024947Y0182344D01*
X0024947Y0182539D02*
X0020033Y0182539D01*
X0020033Y0182734D02*
X0024947Y0182734D01*
X0024947Y0182929D02*
X0020033Y0182929D01*
X0020033Y0183124D02*
X0024947Y0183124D01*
X0024947Y0183319D02*
X0020033Y0183319D01*
X0020033Y0183514D02*
X0024947Y0183514D01*
X0024947Y0183709D02*
X0020033Y0183709D01*
X0020033Y0183904D02*
X0024947Y0183904D01*
X0024947Y0184099D02*
X0020033Y0184099D01*
X0020033Y0184294D02*
X0024947Y0184294D01*
X0024947Y0184489D02*
X0020033Y0184489D01*
X0020033Y0184684D02*
X0024947Y0184684D01*
X0024947Y0184879D02*
X0020033Y0184879D01*
X0020033Y0185074D02*
X0024947Y0185074D01*
X0024947Y0185269D02*
X0020033Y0185269D01*
X0020033Y0185464D02*
X0024947Y0185464D01*
X0024947Y0185659D02*
X0020033Y0185659D01*
X0020033Y0185854D02*
X0024947Y0185854D01*
X0024947Y0186049D02*
X0020033Y0186049D01*
X0020033Y0186244D02*
X0024947Y0186244D01*
X0024947Y0186439D02*
X0020033Y0186439D01*
X0020033Y0186634D02*
X0024947Y0186634D01*
X0024947Y0186829D02*
X0020033Y0186829D01*
X0020033Y0187024D02*
X0024947Y0187024D01*
X0024947Y0187219D02*
X0020033Y0187219D01*
X0020033Y0187414D02*
X0024947Y0187414D01*
X0024947Y0187609D02*
X0020033Y0187609D01*
X0020033Y0187804D02*
X0024947Y0187804D01*
X0024947Y0192149D02*
X0020033Y0192149D01*
X0020033Y0197851D01*
X0024947Y0197851D01*
X0024947Y0192149D01*
X0024947Y0192344D02*
X0020033Y0192344D01*
X0020033Y0192539D02*
X0024947Y0192539D01*
X0024947Y0192734D02*
X0020033Y0192734D01*
X0020033Y0192929D02*
X0024947Y0192929D01*
X0024947Y0193124D02*
X0020033Y0193124D01*
X0020033Y0193319D02*
X0024947Y0193319D01*
X0024947Y0193514D02*
X0020033Y0193514D01*
X0020033Y0193709D02*
X0024947Y0193709D01*
X0024947Y0193904D02*
X0020033Y0193904D01*
X0020033Y0194099D02*
X0024947Y0194099D01*
X0024947Y0194294D02*
X0020033Y0194294D01*
X0020033Y0194489D02*
X0024947Y0194489D01*
X0024947Y0194684D02*
X0020033Y0194684D01*
X0020033Y0194879D02*
X0024947Y0194879D01*
X0024947Y0195074D02*
X0020033Y0195074D01*
X0020033Y0195269D02*
X0024947Y0195269D01*
X0024947Y0195464D02*
X0020033Y0195464D01*
X0020033Y0195659D02*
X0024947Y0195659D01*
X0024947Y0195854D02*
X0020033Y0195854D01*
X0020033Y0196049D02*
X0024947Y0196049D01*
X0024947Y0196244D02*
X0020033Y0196244D01*
X0020033Y0196439D02*
X0024947Y0196439D01*
X0024947Y0196634D02*
X0020033Y0196634D01*
X0020033Y0196829D02*
X0024947Y0196829D01*
X0024947Y0197024D02*
X0020033Y0197024D01*
X0020033Y0197219D02*
X0024947Y0197219D01*
X0024947Y0197414D02*
X0020033Y0197414D01*
X0020033Y0197609D02*
X0024947Y0197609D01*
X0024947Y0197804D02*
X0020033Y0197804D01*
X0017467Y0192149D02*
X0012553Y0192149D01*
X0012553Y0197851D01*
X0017467Y0197851D01*
X0017467Y0192149D01*
X0017467Y0192344D02*
X0012553Y0192344D01*
X0012553Y0192539D02*
X0017467Y0192539D01*
X0017467Y0192734D02*
X0012553Y0192734D01*
X0012553Y0192929D02*
X0017467Y0192929D01*
X0017467Y0193124D02*
X0012553Y0193124D01*
X0012553Y0193319D02*
X0017467Y0193319D01*
X0017467Y0193514D02*
X0012553Y0193514D01*
X0012553Y0193709D02*
X0017467Y0193709D01*
X0017467Y0193904D02*
X0012553Y0193904D01*
X0012553Y0194099D02*
X0017467Y0194099D01*
X0017467Y0194294D02*
X0012553Y0194294D01*
X0012553Y0194489D02*
X0017467Y0194489D01*
X0017467Y0194684D02*
X0012553Y0194684D01*
X0012553Y0194879D02*
X0017467Y0194879D01*
X0017467Y0195074D02*
X0012553Y0195074D01*
X0012553Y0195269D02*
X0017467Y0195269D01*
X0017467Y0195464D02*
X0012553Y0195464D01*
X0012553Y0195659D02*
X0017467Y0195659D01*
X0017467Y0195854D02*
X0012553Y0195854D01*
X0012553Y0196049D02*
X0017467Y0196049D01*
X0017467Y0196244D02*
X0012553Y0196244D01*
X0012553Y0196439D02*
X0017467Y0196439D01*
X0017467Y0196634D02*
X0012553Y0196634D01*
X0012553Y0196829D02*
X0017467Y0196829D01*
X0017467Y0197024D02*
X0012553Y0197024D01*
X0012553Y0197219D02*
X0017467Y0197219D01*
X0017467Y0197414D02*
X0012553Y0197414D01*
X0012553Y0197609D02*
X0017467Y0197609D01*
X0017467Y0197804D02*
X0012553Y0197804D01*
X0012553Y0187851D02*
X0017467Y0187851D01*
X0017467Y0182149D01*
X0012553Y0182149D01*
X0012553Y0187851D01*
X0012553Y0182344D02*
X0017467Y0182344D01*
X0017467Y0182539D02*
X0012553Y0182539D01*
X0012553Y0182734D02*
X0017467Y0182734D01*
X0017467Y0182929D02*
X0012553Y0182929D01*
X0012553Y0183124D02*
X0017467Y0183124D01*
X0017467Y0183319D02*
X0012553Y0183319D01*
X0012553Y0183514D02*
X0017467Y0183514D01*
X0017467Y0183709D02*
X0012553Y0183709D01*
X0012553Y0183904D02*
X0017467Y0183904D01*
X0017467Y0184099D02*
X0012553Y0184099D01*
X0012553Y0184294D02*
X0017467Y0184294D01*
X0017467Y0184489D02*
X0012553Y0184489D01*
X0012553Y0184684D02*
X0017467Y0184684D01*
X0017467Y0184879D02*
X0012553Y0184879D01*
X0012553Y0185074D02*
X0017467Y0185074D01*
X0017467Y0185269D02*
X0012553Y0185269D01*
X0012553Y0185464D02*
X0017467Y0185464D01*
X0017467Y0185659D02*
X0012553Y0185659D01*
X0012553Y0185854D02*
X0017467Y0185854D01*
X0017467Y0186049D02*
X0012553Y0186049D01*
X0012553Y0186244D02*
X0017467Y0186244D01*
X0017467Y0186439D02*
X0012553Y0186439D01*
X0012553Y0186634D02*
X0017467Y0186634D01*
X0017467Y0186829D02*
X0012553Y0186829D01*
X0012553Y0187024D02*
X0017467Y0187024D01*
X0017467Y0187219D02*
X0012553Y0187219D01*
X0012553Y0187414D02*
X0017467Y0187414D01*
X0017467Y0187609D02*
X0012553Y0187609D01*
X0012553Y0187804D02*
X0017467Y0187804D01*
X0017467Y0164101D02*
X0012553Y0164101D01*
X0017467Y0164101D02*
X0017467Y0158399D01*
X0012553Y0158399D01*
X0012553Y0164101D01*
X0012553Y0158594D02*
X0017467Y0158594D01*
X0017467Y0158789D02*
X0012553Y0158789D01*
X0012553Y0158984D02*
X0017467Y0158984D01*
X0017467Y0159179D02*
X0012553Y0159179D01*
X0012553Y0159374D02*
X0017467Y0159374D01*
X0017467Y0159569D02*
X0012553Y0159569D01*
X0012553Y0159764D02*
X0017467Y0159764D01*
X0017467Y0159959D02*
X0012553Y0159959D01*
X0012553Y0160154D02*
X0017467Y0160154D01*
X0017467Y0160349D02*
X0012553Y0160349D01*
X0012553Y0160544D02*
X0017467Y0160544D01*
X0017467Y0160739D02*
X0012553Y0160739D01*
X0012553Y0160934D02*
X0017467Y0160934D01*
X0017467Y0161129D02*
X0012553Y0161129D01*
X0012553Y0161324D02*
X0017467Y0161324D01*
X0017467Y0161519D02*
X0012553Y0161519D01*
X0012553Y0161714D02*
X0017467Y0161714D01*
X0017467Y0161909D02*
X0012553Y0161909D01*
X0012553Y0162104D02*
X0017467Y0162104D01*
X0017467Y0162299D02*
X0012553Y0162299D01*
X0012553Y0162494D02*
X0017467Y0162494D01*
X0017467Y0162689D02*
X0012553Y0162689D01*
X0012553Y0162884D02*
X0017467Y0162884D01*
X0017467Y0163079D02*
X0012553Y0163079D01*
X0012553Y0163274D02*
X0017467Y0163274D01*
X0017467Y0163469D02*
X0012553Y0163469D01*
X0012553Y0163664D02*
X0017467Y0163664D01*
X0017467Y0163859D02*
X0012553Y0163859D01*
X0012553Y0164054D02*
X0017467Y0164054D01*
X0020033Y0164101D02*
X0024947Y0164101D01*
X0024947Y0158399D01*
X0020033Y0158399D01*
X0020033Y0164101D01*
X0020033Y0158594D02*
X0024947Y0158594D01*
X0024947Y0158789D02*
X0020033Y0158789D01*
X0020033Y0158984D02*
X0024947Y0158984D01*
X0024947Y0159179D02*
X0020033Y0159179D01*
X0020033Y0159374D02*
X0024947Y0159374D01*
X0024947Y0159569D02*
X0020033Y0159569D01*
X0020033Y0159764D02*
X0024947Y0159764D01*
X0024947Y0159959D02*
X0020033Y0159959D01*
X0020033Y0160154D02*
X0024947Y0160154D01*
X0024947Y0160349D02*
X0020033Y0160349D01*
X0020033Y0160544D02*
X0024947Y0160544D01*
X0024947Y0160739D02*
X0020033Y0160739D01*
X0020033Y0160934D02*
X0024947Y0160934D01*
X0024947Y0161129D02*
X0020033Y0161129D01*
X0020033Y0161324D02*
X0024947Y0161324D01*
X0024947Y0161519D02*
X0020033Y0161519D01*
X0020033Y0161714D02*
X0024947Y0161714D01*
X0024947Y0161909D02*
X0020033Y0161909D01*
X0020033Y0162104D02*
X0024947Y0162104D01*
X0024947Y0162299D02*
X0020033Y0162299D01*
X0020033Y0162494D02*
X0024947Y0162494D01*
X0024947Y0162689D02*
X0020033Y0162689D01*
X0020033Y0162884D02*
X0024947Y0162884D01*
X0024947Y0163079D02*
X0020033Y0163079D01*
X0020033Y0163274D02*
X0024947Y0163274D01*
X0024947Y0163469D02*
X0020033Y0163469D01*
X0020033Y0163664D02*
X0024947Y0163664D01*
X0024947Y0163859D02*
X0020033Y0163859D01*
X0020033Y0164054D02*
X0024947Y0164054D01*
X0024947Y0139101D02*
X0020033Y0139101D01*
X0024947Y0139101D02*
X0024947Y0133399D01*
X0020033Y0133399D01*
X0020033Y0139101D01*
X0020033Y0133594D02*
X0024947Y0133594D01*
X0024947Y0133789D02*
X0020033Y0133789D01*
X0020033Y0133984D02*
X0024947Y0133984D01*
X0024947Y0134179D02*
X0020033Y0134179D01*
X0020033Y0134374D02*
X0024947Y0134374D01*
X0024947Y0134569D02*
X0020033Y0134569D01*
X0020033Y0134764D02*
X0024947Y0134764D01*
X0024947Y0134959D02*
X0020033Y0134959D01*
X0020033Y0135154D02*
X0024947Y0135154D01*
X0024947Y0135349D02*
X0020033Y0135349D01*
X0020033Y0135544D02*
X0024947Y0135544D01*
X0024947Y0135739D02*
X0020033Y0135739D01*
X0020033Y0135934D02*
X0024947Y0135934D01*
X0024947Y0136129D02*
X0020033Y0136129D01*
X0020033Y0136324D02*
X0024947Y0136324D01*
X0024947Y0136519D02*
X0020033Y0136519D01*
X0020033Y0136714D02*
X0024947Y0136714D01*
X0024947Y0136909D02*
X0020033Y0136909D01*
X0020033Y0137104D02*
X0024947Y0137104D01*
X0024947Y0137299D02*
X0020033Y0137299D01*
X0020033Y0137494D02*
X0024947Y0137494D01*
X0024947Y0137689D02*
X0020033Y0137689D01*
X0020033Y0137884D02*
X0024947Y0137884D01*
X0024947Y0138079D02*
X0020033Y0138079D01*
X0020033Y0138274D02*
X0024947Y0138274D01*
X0024947Y0138469D02*
X0020033Y0138469D01*
X0020033Y0138664D02*
X0024947Y0138664D01*
X0024947Y0138859D02*
X0020033Y0138859D01*
X0020033Y0139054D02*
X0024947Y0139054D01*
X0017467Y0139101D02*
X0012553Y0139101D01*
X0017467Y0139101D02*
X0017467Y0133399D01*
X0012553Y0133399D01*
X0012553Y0139101D01*
X0012553Y0133594D02*
X0017467Y0133594D01*
X0017467Y0133789D02*
X0012553Y0133789D01*
X0012553Y0133984D02*
X0017467Y0133984D01*
X0017467Y0134179D02*
X0012553Y0134179D01*
X0012553Y0134374D02*
X0017467Y0134374D01*
X0017467Y0134569D02*
X0012553Y0134569D01*
X0012553Y0134764D02*
X0017467Y0134764D01*
X0017467Y0134959D02*
X0012553Y0134959D01*
X0012553Y0135154D02*
X0017467Y0135154D01*
X0017467Y0135349D02*
X0012553Y0135349D01*
X0012553Y0135544D02*
X0017467Y0135544D01*
X0017467Y0135739D02*
X0012553Y0135739D01*
X0012553Y0135934D02*
X0017467Y0135934D01*
X0017467Y0136129D02*
X0012553Y0136129D01*
X0012553Y0136324D02*
X0017467Y0136324D01*
X0017467Y0136519D02*
X0012553Y0136519D01*
X0012553Y0136714D02*
X0017467Y0136714D01*
X0017467Y0136909D02*
X0012553Y0136909D01*
X0012553Y0137104D02*
X0017467Y0137104D01*
X0017467Y0137299D02*
X0012553Y0137299D01*
X0012553Y0137494D02*
X0017467Y0137494D01*
X0017467Y0137689D02*
X0012553Y0137689D01*
X0012553Y0137884D02*
X0017467Y0137884D01*
X0017467Y0138079D02*
X0012553Y0138079D01*
X0012553Y0138274D02*
X0017467Y0138274D01*
X0017467Y0138469D02*
X0012553Y0138469D01*
X0012553Y0138664D02*
X0017467Y0138664D01*
X0017467Y0138859D02*
X0012553Y0138859D01*
X0012553Y0139054D02*
X0017467Y0139054D01*
D11*
X0086772Y0178426D02*
X0086772Y0180472D01*
X0088228Y0180472D01*
X0088228Y0178426D01*
X0086772Y0178426D01*
X0086772Y0178614D02*
X0088228Y0178614D01*
X0088228Y0178802D02*
X0086772Y0178802D01*
X0086772Y0178990D02*
X0088228Y0178990D01*
X0088228Y0179178D02*
X0086772Y0179178D01*
X0086772Y0179366D02*
X0088228Y0179366D01*
X0088228Y0179554D02*
X0086772Y0179554D01*
X0086772Y0179742D02*
X0088228Y0179742D01*
X0088228Y0179930D02*
X0086772Y0179930D01*
X0086772Y0180118D02*
X0088228Y0180118D01*
X0088228Y0180306D02*
X0086772Y0180306D01*
X0086772Y0184528D02*
X0086772Y0186574D01*
X0088228Y0186574D01*
X0088228Y0184528D01*
X0086772Y0184528D01*
X0086772Y0184716D02*
X0088228Y0184716D01*
X0088228Y0184904D02*
X0086772Y0184904D01*
X0086772Y0185092D02*
X0088228Y0185092D01*
X0088228Y0185280D02*
X0086772Y0185280D01*
X0086772Y0185468D02*
X0088228Y0185468D01*
X0088228Y0185656D02*
X0086772Y0185656D01*
X0086772Y0185844D02*
X0088228Y0185844D01*
X0088228Y0186032D02*
X0086772Y0186032D01*
X0086772Y0186220D02*
X0088228Y0186220D01*
X0088228Y0186408D02*
X0086772Y0186408D01*
X0091772Y0186574D02*
X0091772Y0184528D01*
X0091772Y0186574D02*
X0093228Y0186574D01*
X0093228Y0184528D01*
X0091772Y0184528D01*
X0091772Y0184716D02*
X0093228Y0184716D01*
X0093228Y0184904D02*
X0091772Y0184904D01*
X0091772Y0185092D02*
X0093228Y0185092D01*
X0093228Y0185280D02*
X0091772Y0185280D01*
X0091772Y0185468D02*
X0093228Y0185468D01*
X0093228Y0185656D02*
X0091772Y0185656D01*
X0091772Y0185844D02*
X0093228Y0185844D01*
X0093228Y0186032D02*
X0091772Y0186032D01*
X0091772Y0186220D02*
X0093228Y0186220D01*
X0093228Y0186408D02*
X0091772Y0186408D01*
X0096772Y0186574D02*
X0096772Y0184528D01*
X0096772Y0186574D02*
X0098228Y0186574D01*
X0098228Y0184528D01*
X0096772Y0184528D01*
X0096772Y0184716D02*
X0098228Y0184716D01*
X0098228Y0184904D02*
X0096772Y0184904D01*
X0096772Y0185092D02*
X0098228Y0185092D01*
X0098228Y0185280D02*
X0096772Y0185280D01*
X0096772Y0185468D02*
X0098228Y0185468D01*
X0098228Y0185656D02*
X0096772Y0185656D01*
X0096772Y0185844D02*
X0098228Y0185844D01*
X0098228Y0186032D02*
X0096772Y0186032D01*
X0096772Y0186220D02*
X0098228Y0186220D01*
X0098228Y0186408D02*
X0096772Y0186408D01*
X0096772Y0180472D02*
X0096772Y0178426D01*
X0096772Y0180472D02*
X0098228Y0180472D01*
X0098228Y0178426D01*
X0096772Y0178426D01*
X0096772Y0178614D02*
X0098228Y0178614D01*
X0098228Y0178802D02*
X0096772Y0178802D01*
X0096772Y0178990D02*
X0098228Y0178990D01*
X0098228Y0179178D02*
X0096772Y0179178D01*
X0096772Y0179366D02*
X0098228Y0179366D01*
X0098228Y0179554D02*
X0096772Y0179554D01*
X0096772Y0179742D02*
X0098228Y0179742D01*
X0098228Y0179930D02*
X0096772Y0179930D01*
X0096772Y0180118D02*
X0098228Y0180118D01*
X0098228Y0180306D02*
X0096772Y0180306D01*
X0091772Y0180472D02*
X0091772Y0178426D01*
X0091772Y0180472D02*
X0093228Y0180472D01*
X0093228Y0178426D01*
X0091772Y0178426D01*
X0091772Y0178614D02*
X0093228Y0178614D01*
X0093228Y0178802D02*
X0091772Y0178802D01*
X0091772Y0178990D02*
X0093228Y0178990D01*
X0093228Y0179178D02*
X0091772Y0179178D01*
X0091772Y0179366D02*
X0093228Y0179366D01*
X0093228Y0179554D02*
X0091772Y0179554D01*
X0091772Y0179742D02*
X0093228Y0179742D01*
X0093228Y0179930D02*
X0091772Y0179930D01*
X0091772Y0180118D02*
X0093228Y0180118D01*
X0093228Y0180306D02*
X0091772Y0180306D01*
D12*
X0110232Y0178116D02*
X0114768Y0178116D01*
X0110232Y0178116D02*
X0110232Y0182652D01*
X0114768Y0182652D01*
X0114768Y0178116D01*
X0114768Y0178296D02*
X0110232Y0178296D01*
X0110232Y0178476D02*
X0114768Y0178476D01*
X0114768Y0178656D02*
X0110232Y0178656D01*
X0110232Y0178836D02*
X0114768Y0178836D01*
X0114768Y0179016D02*
X0110232Y0179016D01*
X0110232Y0179196D02*
X0114768Y0179196D01*
X0114768Y0179376D02*
X0110232Y0179376D01*
X0110232Y0179556D02*
X0114768Y0179556D01*
X0114768Y0179736D02*
X0110232Y0179736D01*
X0110232Y0179916D02*
X0114768Y0179916D01*
X0114768Y0180096D02*
X0110232Y0180096D01*
X0110232Y0180276D02*
X0114768Y0180276D01*
X0114768Y0180456D02*
X0110232Y0180456D01*
X0110232Y0180636D02*
X0114768Y0180636D01*
X0114768Y0180816D02*
X0110232Y0180816D01*
X0110232Y0180996D02*
X0114768Y0180996D01*
X0114768Y0181176D02*
X0110232Y0181176D01*
X0110232Y0181356D02*
X0114768Y0181356D01*
X0114768Y0181536D02*
X0110232Y0181536D01*
X0110232Y0181716D02*
X0114768Y0181716D01*
X0114768Y0181896D02*
X0110232Y0181896D01*
X0110232Y0182076D02*
X0114768Y0182076D01*
X0114768Y0182256D02*
X0110232Y0182256D01*
X0110232Y0182436D02*
X0114768Y0182436D01*
X0114768Y0182616D02*
X0110232Y0182616D01*
X0110232Y0169848D02*
X0114768Y0169848D01*
X0110232Y0169848D02*
X0110232Y0174384D01*
X0114768Y0174384D01*
X0114768Y0169848D01*
X0114768Y0170028D02*
X0110232Y0170028D01*
X0110232Y0170208D02*
X0114768Y0170208D01*
X0114768Y0170388D02*
X0110232Y0170388D01*
X0110232Y0170568D02*
X0114768Y0170568D01*
X0114768Y0170748D02*
X0110232Y0170748D01*
X0110232Y0170928D02*
X0114768Y0170928D01*
X0114768Y0171108D02*
X0110232Y0171108D01*
X0110232Y0171288D02*
X0114768Y0171288D01*
X0114768Y0171468D02*
X0110232Y0171468D01*
X0110232Y0171648D02*
X0114768Y0171648D01*
X0114768Y0171828D02*
X0110232Y0171828D01*
X0110232Y0172008D02*
X0114768Y0172008D01*
X0114768Y0172188D02*
X0110232Y0172188D01*
X0110232Y0172368D02*
X0114768Y0172368D01*
X0114768Y0172548D02*
X0110232Y0172548D01*
X0110232Y0172728D02*
X0114768Y0172728D01*
X0114768Y0172908D02*
X0110232Y0172908D01*
X0110232Y0173088D02*
X0114768Y0173088D01*
X0114768Y0173268D02*
X0110232Y0173268D01*
X0110232Y0173448D02*
X0114768Y0173448D01*
X0114768Y0173628D02*
X0110232Y0173628D01*
X0110232Y0173808D02*
X0114768Y0173808D01*
X0114768Y0173988D02*
X0110232Y0173988D01*
X0110232Y0174168D02*
X0114768Y0174168D01*
X0114768Y0174348D02*
X0110232Y0174348D01*
X0109445Y0076924D02*
X0109445Y0072388D01*
X0109445Y0076924D02*
X0115555Y0076924D01*
X0115555Y0072388D01*
X0109445Y0072388D01*
X0109445Y0072568D02*
X0115555Y0072568D01*
X0115555Y0072748D02*
X0109445Y0072748D01*
X0109445Y0072928D02*
X0115555Y0072928D01*
X0115555Y0073108D02*
X0109445Y0073108D01*
X0109445Y0073288D02*
X0115555Y0073288D01*
X0115555Y0073468D02*
X0109445Y0073468D01*
X0109445Y0073648D02*
X0115555Y0073648D01*
X0115555Y0073828D02*
X0109445Y0073828D01*
X0109445Y0074008D02*
X0115555Y0074008D01*
X0115555Y0074188D02*
X0109445Y0074188D01*
X0109445Y0074368D02*
X0115555Y0074368D01*
X0115555Y0074548D02*
X0109445Y0074548D01*
X0109445Y0074728D02*
X0115555Y0074728D01*
X0115555Y0074908D02*
X0109445Y0074908D01*
X0109445Y0075088D02*
X0115555Y0075088D01*
X0115555Y0075268D02*
X0109445Y0075268D01*
X0109445Y0075448D02*
X0115555Y0075448D01*
X0115555Y0075628D02*
X0109445Y0075628D01*
X0109445Y0075808D02*
X0115555Y0075808D01*
X0115555Y0075988D02*
X0109445Y0075988D01*
X0109445Y0076168D02*
X0115555Y0076168D01*
X0115555Y0076348D02*
X0109445Y0076348D01*
X0109445Y0076528D02*
X0115555Y0076528D01*
X0115555Y0076708D02*
X0109445Y0076708D01*
X0109445Y0076888D02*
X0115555Y0076888D01*
X0109445Y0065112D02*
X0109445Y0060576D01*
X0109445Y0065112D02*
X0115555Y0065112D01*
X0115555Y0060576D01*
X0109445Y0060576D01*
X0109445Y0060756D02*
X0115555Y0060756D01*
X0115555Y0060936D02*
X0109445Y0060936D01*
X0109445Y0061116D02*
X0115555Y0061116D01*
X0115555Y0061296D02*
X0109445Y0061296D01*
X0109445Y0061476D02*
X0115555Y0061476D01*
X0115555Y0061656D02*
X0109445Y0061656D01*
X0109445Y0061836D02*
X0115555Y0061836D01*
X0115555Y0062016D02*
X0109445Y0062016D01*
X0109445Y0062196D02*
X0115555Y0062196D01*
X0115555Y0062376D02*
X0109445Y0062376D01*
X0109445Y0062556D02*
X0115555Y0062556D01*
X0115555Y0062736D02*
X0109445Y0062736D01*
X0109445Y0062916D02*
X0115555Y0062916D01*
X0115555Y0063096D02*
X0109445Y0063096D01*
X0109445Y0063276D02*
X0115555Y0063276D01*
X0115555Y0063456D02*
X0109445Y0063456D01*
X0109445Y0063636D02*
X0115555Y0063636D01*
X0115555Y0063816D02*
X0109445Y0063816D01*
X0109445Y0063996D02*
X0115555Y0063996D01*
X0115555Y0064176D02*
X0109445Y0064176D01*
X0109445Y0064356D02*
X0115555Y0064356D01*
X0115555Y0064536D02*
X0109445Y0064536D01*
X0109445Y0064716D02*
X0115555Y0064716D01*
X0115555Y0064896D02*
X0109445Y0064896D01*
X0109445Y0065076D02*
X0115555Y0065076D01*
X0081403Y0035939D02*
X0081403Y0031403D01*
X0081403Y0035939D02*
X0083577Y0035939D01*
X0083577Y0031403D01*
X0081403Y0031403D01*
X0081403Y0031583D02*
X0083577Y0031583D01*
X0083577Y0031763D02*
X0081403Y0031763D01*
X0081403Y0031943D02*
X0083577Y0031943D01*
X0083577Y0032123D02*
X0081403Y0032123D01*
X0081403Y0032303D02*
X0083577Y0032303D01*
X0083577Y0032483D02*
X0081403Y0032483D01*
X0081403Y0032663D02*
X0083577Y0032663D01*
X0083577Y0032843D02*
X0081403Y0032843D01*
X0081403Y0033023D02*
X0083577Y0033023D01*
X0083577Y0033203D02*
X0081403Y0033203D01*
X0081403Y0033383D02*
X0083577Y0033383D01*
X0083577Y0033563D02*
X0081403Y0033563D01*
X0081403Y0033743D02*
X0083577Y0033743D01*
X0083577Y0033923D02*
X0081403Y0033923D01*
X0081403Y0034103D02*
X0083577Y0034103D01*
X0083577Y0034283D02*
X0081403Y0034283D01*
X0081403Y0034463D02*
X0083577Y0034463D01*
X0083577Y0034643D02*
X0081403Y0034643D01*
X0081403Y0034823D02*
X0083577Y0034823D01*
X0083577Y0035003D02*
X0081403Y0035003D01*
X0081403Y0035183D02*
X0083577Y0035183D01*
X0083577Y0035363D02*
X0081403Y0035363D01*
X0081403Y0035543D02*
X0083577Y0035543D01*
X0083577Y0035723D02*
X0081403Y0035723D01*
X0081403Y0035903D02*
X0083577Y0035903D01*
X0077663Y0035939D02*
X0077663Y0031403D01*
X0077663Y0035939D02*
X0079837Y0035939D01*
X0079837Y0031403D01*
X0077663Y0031403D01*
X0077663Y0031583D02*
X0079837Y0031583D01*
X0079837Y0031763D02*
X0077663Y0031763D01*
X0077663Y0031943D02*
X0079837Y0031943D01*
X0079837Y0032123D02*
X0077663Y0032123D01*
X0077663Y0032303D02*
X0079837Y0032303D01*
X0079837Y0032483D02*
X0077663Y0032483D01*
X0077663Y0032663D02*
X0079837Y0032663D01*
X0079837Y0032843D02*
X0077663Y0032843D01*
X0077663Y0033023D02*
X0079837Y0033023D01*
X0079837Y0033203D02*
X0077663Y0033203D01*
X0077663Y0033383D02*
X0079837Y0033383D01*
X0079837Y0033563D02*
X0077663Y0033563D01*
X0077663Y0033743D02*
X0079837Y0033743D01*
X0079837Y0033923D02*
X0077663Y0033923D01*
X0077663Y0034103D02*
X0079837Y0034103D01*
X0079837Y0034283D02*
X0077663Y0034283D01*
X0077663Y0034463D02*
X0079837Y0034463D01*
X0079837Y0034643D02*
X0077663Y0034643D01*
X0077663Y0034823D02*
X0079837Y0034823D01*
X0079837Y0035003D02*
X0077663Y0035003D01*
X0077663Y0035183D02*
X0079837Y0035183D01*
X0079837Y0035363D02*
X0077663Y0035363D01*
X0077663Y0035543D02*
X0079837Y0035543D01*
X0079837Y0035723D02*
X0077663Y0035723D01*
X0077663Y0035903D02*
X0079837Y0035903D01*
X0073923Y0035939D02*
X0073923Y0031403D01*
X0073923Y0035939D02*
X0076097Y0035939D01*
X0076097Y0031403D01*
X0073923Y0031403D01*
X0073923Y0031583D02*
X0076097Y0031583D01*
X0076097Y0031763D02*
X0073923Y0031763D01*
X0073923Y0031943D02*
X0076097Y0031943D01*
X0076097Y0032123D02*
X0073923Y0032123D01*
X0073923Y0032303D02*
X0076097Y0032303D01*
X0076097Y0032483D02*
X0073923Y0032483D01*
X0073923Y0032663D02*
X0076097Y0032663D01*
X0076097Y0032843D02*
X0073923Y0032843D01*
X0073923Y0033023D02*
X0076097Y0033023D01*
X0076097Y0033203D02*
X0073923Y0033203D01*
X0073923Y0033383D02*
X0076097Y0033383D01*
X0076097Y0033563D02*
X0073923Y0033563D01*
X0073923Y0033743D02*
X0076097Y0033743D01*
X0076097Y0033923D02*
X0073923Y0033923D01*
X0073923Y0034103D02*
X0076097Y0034103D01*
X0076097Y0034283D02*
X0073923Y0034283D01*
X0073923Y0034463D02*
X0076097Y0034463D01*
X0076097Y0034643D02*
X0073923Y0034643D01*
X0073923Y0034823D02*
X0076097Y0034823D01*
X0076097Y0035003D02*
X0073923Y0035003D01*
X0073923Y0035183D02*
X0076097Y0035183D01*
X0076097Y0035363D02*
X0073923Y0035363D01*
X0073923Y0035543D02*
X0076097Y0035543D01*
X0076097Y0035723D02*
X0073923Y0035723D01*
X0073923Y0035903D02*
X0076097Y0035903D01*
X0073923Y0026097D02*
X0073923Y0021561D01*
X0073923Y0026097D02*
X0076097Y0026097D01*
X0076097Y0021561D01*
X0073923Y0021561D01*
X0073923Y0021741D02*
X0076097Y0021741D01*
X0076097Y0021921D02*
X0073923Y0021921D01*
X0073923Y0022101D02*
X0076097Y0022101D01*
X0076097Y0022281D02*
X0073923Y0022281D01*
X0073923Y0022461D02*
X0076097Y0022461D01*
X0076097Y0022641D02*
X0073923Y0022641D01*
X0073923Y0022821D02*
X0076097Y0022821D01*
X0076097Y0023001D02*
X0073923Y0023001D01*
X0073923Y0023181D02*
X0076097Y0023181D01*
X0076097Y0023361D02*
X0073923Y0023361D01*
X0073923Y0023541D02*
X0076097Y0023541D01*
X0076097Y0023721D02*
X0073923Y0023721D01*
X0073923Y0023901D02*
X0076097Y0023901D01*
X0076097Y0024081D02*
X0073923Y0024081D01*
X0073923Y0024261D02*
X0076097Y0024261D01*
X0076097Y0024441D02*
X0073923Y0024441D01*
X0073923Y0024621D02*
X0076097Y0024621D01*
X0076097Y0024801D02*
X0073923Y0024801D01*
X0073923Y0024981D02*
X0076097Y0024981D01*
X0076097Y0025161D02*
X0073923Y0025161D01*
X0073923Y0025341D02*
X0076097Y0025341D01*
X0076097Y0025521D02*
X0073923Y0025521D01*
X0073923Y0025701D02*
X0076097Y0025701D01*
X0076097Y0025881D02*
X0073923Y0025881D01*
X0073923Y0026061D02*
X0076097Y0026061D01*
X0081403Y0026097D02*
X0081403Y0021561D01*
X0081403Y0026097D02*
X0083577Y0026097D01*
X0083577Y0021561D01*
X0081403Y0021561D01*
X0081403Y0021741D02*
X0083577Y0021741D01*
X0083577Y0021921D02*
X0081403Y0021921D01*
X0081403Y0022101D02*
X0083577Y0022101D01*
X0083577Y0022281D02*
X0081403Y0022281D01*
X0081403Y0022461D02*
X0083577Y0022461D01*
X0083577Y0022641D02*
X0081403Y0022641D01*
X0081403Y0022821D02*
X0083577Y0022821D01*
X0083577Y0023001D02*
X0081403Y0023001D01*
X0081403Y0023181D02*
X0083577Y0023181D01*
X0083577Y0023361D02*
X0081403Y0023361D01*
X0081403Y0023541D02*
X0083577Y0023541D01*
X0083577Y0023721D02*
X0081403Y0023721D01*
X0081403Y0023901D02*
X0083577Y0023901D01*
X0083577Y0024081D02*
X0081403Y0024081D01*
X0081403Y0024261D02*
X0083577Y0024261D01*
X0083577Y0024441D02*
X0081403Y0024441D01*
X0081403Y0024621D02*
X0083577Y0024621D01*
X0083577Y0024801D02*
X0081403Y0024801D01*
X0081403Y0024981D02*
X0083577Y0024981D01*
X0083577Y0025161D02*
X0081403Y0025161D01*
X0081403Y0025341D02*
X0083577Y0025341D01*
X0083577Y0025521D02*
X0081403Y0025521D01*
X0081403Y0025701D02*
X0083577Y0025701D01*
X0083577Y0025881D02*
X0081403Y0025881D01*
X0081403Y0026061D02*
X0083577Y0026061D01*
X0023577Y0142348D02*
X0023577Y0146490D01*
X0023577Y0142348D02*
X0021403Y0142348D01*
X0021403Y0146490D01*
X0023577Y0146490D01*
X0023577Y0142528D02*
X0021403Y0142528D01*
X0021403Y0142708D02*
X0023577Y0142708D01*
X0023577Y0142888D02*
X0021403Y0142888D01*
X0021403Y0143068D02*
X0023577Y0143068D01*
X0023577Y0143248D02*
X0021403Y0143248D01*
X0021403Y0143428D02*
X0023577Y0143428D01*
X0023577Y0143608D02*
X0021403Y0143608D01*
X0021403Y0143788D02*
X0023577Y0143788D01*
X0023577Y0143968D02*
X0021403Y0143968D01*
X0021403Y0144148D02*
X0023577Y0144148D01*
X0023577Y0144328D02*
X0021403Y0144328D01*
X0021403Y0144508D02*
X0023577Y0144508D01*
X0023577Y0144688D02*
X0021403Y0144688D01*
X0021403Y0144868D02*
X0023577Y0144868D01*
X0023577Y0145048D02*
X0021403Y0145048D01*
X0021403Y0145228D02*
X0023577Y0145228D01*
X0023577Y0145408D02*
X0021403Y0145408D01*
X0021403Y0145588D02*
X0023577Y0145588D01*
X0023577Y0145768D02*
X0021403Y0145768D01*
X0021403Y0145948D02*
X0023577Y0145948D01*
X0023577Y0146128D02*
X0021403Y0146128D01*
X0021403Y0146308D02*
X0023577Y0146308D01*
X0023577Y0146488D02*
X0021403Y0146488D01*
X0016097Y0146490D02*
X0016097Y0142348D01*
X0013923Y0142348D01*
X0013923Y0146490D01*
X0016097Y0146490D01*
X0016097Y0142528D02*
X0013923Y0142528D01*
X0013923Y0142708D02*
X0016097Y0142708D01*
X0016097Y0142888D02*
X0013923Y0142888D01*
X0013923Y0143068D02*
X0016097Y0143068D01*
X0016097Y0143248D02*
X0013923Y0143248D01*
X0013923Y0143428D02*
X0016097Y0143428D01*
X0016097Y0143608D02*
X0013923Y0143608D01*
X0013923Y0143788D02*
X0016097Y0143788D01*
X0016097Y0143968D02*
X0013923Y0143968D01*
X0013923Y0144148D02*
X0016097Y0144148D01*
X0016097Y0144328D02*
X0013923Y0144328D01*
X0013923Y0144508D02*
X0016097Y0144508D01*
X0016097Y0144688D02*
X0013923Y0144688D01*
X0013923Y0144868D02*
X0016097Y0144868D01*
X0016097Y0145048D02*
X0013923Y0145048D01*
X0013923Y0145228D02*
X0016097Y0145228D01*
X0016097Y0145408D02*
X0013923Y0145408D01*
X0013923Y0145588D02*
X0016097Y0145588D01*
X0016097Y0145768D02*
X0013923Y0145768D01*
X0013923Y0145948D02*
X0016097Y0145948D01*
X0016097Y0146128D02*
X0013923Y0146128D01*
X0013923Y0146308D02*
X0016097Y0146308D01*
X0016097Y0146488D02*
X0013923Y0146488D01*
X0019837Y0151010D02*
X0019837Y0155152D01*
X0019837Y0151010D02*
X0017663Y0151010D01*
X0017663Y0155152D01*
X0019837Y0155152D01*
X0019837Y0151190D02*
X0017663Y0151190D01*
X0017663Y0151370D02*
X0019837Y0151370D01*
X0019837Y0151550D02*
X0017663Y0151550D01*
X0017663Y0151730D02*
X0019837Y0151730D01*
X0019837Y0151910D02*
X0017663Y0151910D01*
X0017663Y0152090D02*
X0019837Y0152090D01*
X0019837Y0152270D02*
X0017663Y0152270D01*
X0017663Y0152450D02*
X0019837Y0152450D01*
X0019837Y0152630D02*
X0017663Y0152630D01*
X0017663Y0152810D02*
X0019837Y0152810D01*
X0019837Y0152990D02*
X0017663Y0152990D01*
X0017663Y0153170D02*
X0019837Y0153170D01*
X0019837Y0153350D02*
X0017663Y0153350D01*
X0017663Y0153530D02*
X0019837Y0153530D01*
X0019837Y0153710D02*
X0017663Y0153710D01*
X0017663Y0153890D02*
X0019837Y0153890D01*
X0019837Y0154070D02*
X0017663Y0154070D01*
X0017663Y0154250D02*
X0019837Y0154250D01*
X0019837Y0154430D02*
X0017663Y0154430D01*
X0017663Y0154610D02*
X0019837Y0154610D01*
X0019837Y0154790D02*
X0017663Y0154790D01*
X0017663Y0154970D02*
X0019837Y0154970D01*
X0019837Y0155150D02*
X0017663Y0155150D01*
X0016097Y0167348D02*
X0016097Y0171490D01*
X0016097Y0167348D02*
X0013923Y0167348D01*
X0013923Y0171490D01*
X0016097Y0171490D01*
X0016097Y0167528D02*
X0013923Y0167528D01*
X0013923Y0167708D02*
X0016097Y0167708D01*
X0016097Y0167888D02*
X0013923Y0167888D01*
X0013923Y0168068D02*
X0016097Y0168068D01*
X0016097Y0168248D02*
X0013923Y0168248D01*
X0013923Y0168428D02*
X0016097Y0168428D01*
X0016097Y0168608D02*
X0013923Y0168608D01*
X0013923Y0168788D02*
X0016097Y0168788D01*
X0016097Y0168968D02*
X0013923Y0168968D01*
X0013923Y0169148D02*
X0016097Y0169148D01*
X0016097Y0169328D02*
X0013923Y0169328D01*
X0013923Y0169508D02*
X0016097Y0169508D01*
X0016097Y0169688D02*
X0013923Y0169688D01*
X0013923Y0169868D02*
X0016097Y0169868D01*
X0016097Y0170048D02*
X0013923Y0170048D01*
X0013923Y0170228D02*
X0016097Y0170228D01*
X0016097Y0170408D02*
X0013923Y0170408D01*
X0013923Y0170588D02*
X0016097Y0170588D01*
X0016097Y0170768D02*
X0013923Y0170768D01*
X0013923Y0170948D02*
X0016097Y0170948D01*
X0016097Y0171128D02*
X0013923Y0171128D01*
X0013923Y0171308D02*
X0016097Y0171308D01*
X0016097Y0171488D02*
X0013923Y0171488D01*
X0019837Y0176010D02*
X0019837Y0180152D01*
X0019837Y0176010D02*
X0017663Y0176010D01*
X0017663Y0180152D01*
X0019837Y0180152D01*
X0019837Y0176190D02*
X0017663Y0176190D01*
X0017663Y0176370D02*
X0019837Y0176370D01*
X0019837Y0176550D02*
X0017663Y0176550D01*
X0017663Y0176730D02*
X0019837Y0176730D01*
X0019837Y0176910D02*
X0017663Y0176910D01*
X0017663Y0177090D02*
X0019837Y0177090D01*
X0019837Y0177270D02*
X0017663Y0177270D01*
X0017663Y0177450D02*
X0019837Y0177450D01*
X0019837Y0177630D02*
X0017663Y0177630D01*
X0017663Y0177810D02*
X0019837Y0177810D01*
X0019837Y0177990D02*
X0017663Y0177990D01*
X0017663Y0178170D02*
X0019837Y0178170D01*
X0019837Y0178350D02*
X0017663Y0178350D01*
X0017663Y0178530D02*
X0019837Y0178530D01*
X0019837Y0178710D02*
X0017663Y0178710D01*
X0017663Y0178890D02*
X0019837Y0178890D01*
X0019837Y0179070D02*
X0017663Y0179070D01*
X0017663Y0179250D02*
X0019837Y0179250D01*
X0019837Y0179430D02*
X0017663Y0179430D01*
X0017663Y0179610D02*
X0019837Y0179610D01*
X0019837Y0179790D02*
X0017663Y0179790D01*
X0017663Y0179970D02*
X0019837Y0179970D01*
X0019837Y0180150D02*
X0017663Y0180150D01*
X0023577Y0171490D02*
X0023577Y0167348D01*
X0021403Y0167348D01*
X0021403Y0171490D01*
X0023577Y0171490D01*
X0023577Y0167528D02*
X0021403Y0167528D01*
X0021403Y0167708D02*
X0023577Y0167708D01*
X0023577Y0167888D02*
X0021403Y0167888D01*
X0021403Y0168068D02*
X0023577Y0168068D01*
X0023577Y0168248D02*
X0021403Y0168248D01*
X0021403Y0168428D02*
X0023577Y0168428D01*
X0023577Y0168608D02*
X0021403Y0168608D01*
X0021403Y0168788D02*
X0023577Y0168788D01*
X0023577Y0168968D02*
X0021403Y0168968D01*
X0021403Y0169148D02*
X0023577Y0169148D01*
X0023577Y0169328D02*
X0021403Y0169328D01*
X0021403Y0169508D02*
X0023577Y0169508D01*
X0023577Y0169688D02*
X0021403Y0169688D01*
X0021403Y0169868D02*
X0023577Y0169868D01*
X0023577Y0170048D02*
X0021403Y0170048D01*
X0021403Y0170228D02*
X0023577Y0170228D01*
X0023577Y0170408D02*
X0021403Y0170408D01*
X0021403Y0170588D02*
X0023577Y0170588D01*
X0023577Y0170768D02*
X0021403Y0170768D01*
X0021403Y0170948D02*
X0023577Y0170948D01*
X0023577Y0171128D02*
X0021403Y0171128D01*
X0021403Y0171308D02*
X0023577Y0171308D01*
X0023577Y0171488D02*
X0021403Y0171488D01*
D13*
X0092731Y0163293D02*
X0098253Y0163293D01*
X0098253Y0159739D01*
X0092731Y0159739D01*
X0092731Y0163293D01*
X0092731Y0159917D02*
X0098253Y0159917D01*
X0098253Y0160095D02*
X0092731Y0160095D01*
X0092731Y0160273D02*
X0098253Y0160273D01*
X0098253Y0160451D02*
X0092731Y0160451D01*
X0092731Y0160629D02*
X0098253Y0160629D01*
X0098253Y0160807D02*
X0092731Y0160807D01*
X0092731Y0160985D02*
X0098253Y0160985D01*
X0098253Y0161163D02*
X0092731Y0161163D01*
X0092731Y0161341D02*
X0098253Y0161341D01*
X0098253Y0161519D02*
X0092731Y0161519D01*
X0092731Y0161697D02*
X0098253Y0161697D01*
X0098253Y0161875D02*
X0092731Y0161875D01*
X0092731Y0162053D02*
X0098253Y0162053D01*
X0098253Y0162231D02*
X0092731Y0162231D01*
X0092731Y0162409D02*
X0098253Y0162409D01*
X0098253Y0162587D02*
X0092731Y0162587D01*
X0092731Y0162765D02*
X0098253Y0162765D01*
X0098253Y0162943D02*
X0092731Y0162943D01*
X0092731Y0163121D02*
X0098253Y0163121D01*
X0098253Y0154277D02*
X0092731Y0154277D01*
X0098253Y0154277D02*
X0098253Y0150723D01*
X0092731Y0150723D01*
X0092731Y0154277D01*
X0092731Y0150901D02*
X0098253Y0150901D01*
X0098253Y0151079D02*
X0092731Y0151079D01*
X0092731Y0151257D02*
X0098253Y0151257D01*
X0098253Y0151435D02*
X0092731Y0151435D01*
X0092731Y0151613D02*
X0098253Y0151613D01*
X0098253Y0151791D02*
X0092731Y0151791D01*
X0092731Y0151969D02*
X0098253Y0151969D01*
X0098253Y0152147D02*
X0092731Y0152147D01*
X0092731Y0152325D02*
X0098253Y0152325D01*
X0098253Y0152503D02*
X0092731Y0152503D01*
X0092731Y0152681D02*
X0098253Y0152681D01*
X0098253Y0152859D02*
X0092731Y0152859D01*
X0092731Y0153037D02*
X0098253Y0153037D01*
X0098253Y0153215D02*
X0092731Y0153215D01*
X0092731Y0153393D02*
X0098253Y0153393D01*
X0098253Y0153571D02*
X0092731Y0153571D01*
X0092731Y0153749D02*
X0098253Y0153749D01*
X0098253Y0153927D02*
X0092731Y0153927D01*
X0092731Y0154105D02*
X0098253Y0154105D01*
X0098253Y0145261D02*
X0092731Y0145261D01*
X0098253Y0145261D02*
X0098253Y0141707D01*
X0092731Y0141707D01*
X0092731Y0145261D01*
X0092731Y0141885D02*
X0098253Y0141885D01*
X0098253Y0142063D02*
X0092731Y0142063D01*
X0092731Y0142241D02*
X0098253Y0142241D01*
X0098253Y0142419D02*
X0092731Y0142419D01*
X0092731Y0142597D02*
X0098253Y0142597D01*
X0098253Y0142775D02*
X0092731Y0142775D01*
X0092731Y0142953D02*
X0098253Y0142953D01*
X0098253Y0143131D02*
X0092731Y0143131D01*
X0092731Y0143309D02*
X0098253Y0143309D01*
X0098253Y0143487D02*
X0092731Y0143487D01*
X0092731Y0143665D02*
X0098253Y0143665D01*
X0098253Y0143843D02*
X0092731Y0143843D01*
X0092731Y0144021D02*
X0098253Y0144021D01*
X0098253Y0144199D02*
X0092731Y0144199D01*
X0092731Y0144377D02*
X0098253Y0144377D01*
X0098253Y0144555D02*
X0092731Y0144555D01*
X0092731Y0144733D02*
X0098253Y0144733D01*
X0098253Y0144911D02*
X0092731Y0144911D01*
X0092731Y0145089D02*
X0098253Y0145089D01*
D14*
X0066768Y0146217D02*
X0066768Y0158783D01*
X0072248Y0158783D01*
X0072248Y0146217D01*
X0066768Y0146217D01*
X0066768Y0146434D02*
X0072248Y0146434D01*
X0072248Y0146651D02*
X0066768Y0146651D01*
X0066768Y0146868D02*
X0072248Y0146868D01*
X0072248Y0147085D02*
X0066768Y0147085D01*
X0066768Y0147302D02*
X0072248Y0147302D01*
X0072248Y0147519D02*
X0066768Y0147519D01*
X0066768Y0147736D02*
X0072248Y0147736D01*
X0072248Y0147953D02*
X0066768Y0147953D01*
X0066768Y0148170D02*
X0072248Y0148170D01*
X0072248Y0148387D02*
X0066768Y0148387D01*
X0066768Y0148604D02*
X0072248Y0148604D01*
X0072248Y0148821D02*
X0066768Y0148821D01*
X0066768Y0149038D02*
X0072248Y0149038D01*
X0072248Y0149255D02*
X0066768Y0149255D01*
X0066768Y0149472D02*
X0072248Y0149472D01*
X0072248Y0149689D02*
X0066768Y0149689D01*
X0066768Y0149906D02*
X0072248Y0149906D01*
X0072248Y0150123D02*
X0066768Y0150123D01*
X0066768Y0150340D02*
X0072248Y0150340D01*
X0072248Y0150557D02*
X0066768Y0150557D01*
X0066768Y0150774D02*
X0072248Y0150774D01*
X0072248Y0150991D02*
X0066768Y0150991D01*
X0066768Y0151208D02*
X0072248Y0151208D01*
X0072248Y0151425D02*
X0066768Y0151425D01*
X0066768Y0151642D02*
X0072248Y0151642D01*
X0072248Y0151859D02*
X0066768Y0151859D01*
X0066768Y0152076D02*
X0072248Y0152076D01*
X0072248Y0152293D02*
X0066768Y0152293D01*
X0066768Y0152510D02*
X0072248Y0152510D01*
X0072248Y0152727D02*
X0066768Y0152727D01*
X0066768Y0152944D02*
X0072248Y0152944D01*
X0072248Y0153161D02*
X0066768Y0153161D01*
X0066768Y0153378D02*
X0072248Y0153378D01*
X0072248Y0153595D02*
X0066768Y0153595D01*
X0066768Y0153812D02*
X0072248Y0153812D01*
X0072248Y0154029D02*
X0066768Y0154029D01*
X0066768Y0154246D02*
X0072248Y0154246D01*
X0072248Y0154463D02*
X0066768Y0154463D01*
X0066768Y0154680D02*
X0072248Y0154680D01*
X0072248Y0154897D02*
X0066768Y0154897D01*
X0066768Y0155114D02*
X0072248Y0155114D01*
X0072248Y0155331D02*
X0066768Y0155331D01*
X0066768Y0155548D02*
X0072248Y0155548D01*
X0072248Y0155765D02*
X0066768Y0155765D01*
X0066768Y0155982D02*
X0072248Y0155982D01*
X0072248Y0156199D02*
X0066768Y0156199D01*
X0066768Y0156416D02*
X0072248Y0156416D01*
X0072248Y0156633D02*
X0066768Y0156633D01*
X0066768Y0156850D02*
X0072248Y0156850D01*
X0072248Y0157067D02*
X0066768Y0157067D01*
X0066768Y0157284D02*
X0072248Y0157284D01*
X0072248Y0157501D02*
X0066768Y0157501D01*
X0066768Y0157718D02*
X0072248Y0157718D01*
X0072248Y0157935D02*
X0066768Y0157935D01*
X0066768Y0158152D02*
X0072248Y0158152D01*
X0072248Y0158369D02*
X0066768Y0158369D01*
X0066768Y0158586D02*
X0072248Y0158586D01*
D15*
X0104114Y0169657D02*
X0104114Y0173693D01*
X0105886Y0173693D01*
X0105886Y0169657D01*
X0104114Y0169657D01*
X0104114Y0169844D02*
X0105886Y0169844D01*
X0105886Y0170031D02*
X0104114Y0170031D01*
X0104114Y0170218D02*
X0105886Y0170218D01*
X0105886Y0170405D02*
X0104114Y0170405D01*
X0104114Y0170592D02*
X0105886Y0170592D01*
X0105886Y0170779D02*
X0104114Y0170779D01*
X0104114Y0170966D02*
X0105886Y0170966D01*
X0105886Y0171153D02*
X0104114Y0171153D01*
X0104114Y0171340D02*
X0105886Y0171340D01*
X0105886Y0171527D02*
X0104114Y0171527D01*
X0104114Y0171714D02*
X0105886Y0171714D01*
X0105886Y0171901D02*
X0104114Y0171901D01*
X0104114Y0172088D02*
X0105886Y0172088D01*
X0105886Y0172275D02*
X0104114Y0172275D01*
X0104114Y0172462D02*
X0105886Y0172462D01*
X0105886Y0172649D02*
X0104114Y0172649D01*
X0104114Y0172836D02*
X0105886Y0172836D01*
X0105886Y0173023D02*
X0104114Y0173023D01*
X0104114Y0173210D02*
X0105886Y0173210D01*
X0105886Y0173397D02*
X0104114Y0173397D01*
X0104114Y0173584D02*
X0105886Y0173584D01*
X0104114Y0178807D02*
X0104114Y0182843D01*
X0105886Y0182843D01*
X0105886Y0178807D01*
X0104114Y0178807D01*
X0104114Y0178994D02*
X0105886Y0178994D01*
X0105886Y0179181D02*
X0104114Y0179181D01*
X0104114Y0179368D02*
X0105886Y0179368D01*
X0105886Y0179555D02*
X0104114Y0179555D01*
X0104114Y0179742D02*
X0105886Y0179742D01*
X0105886Y0179929D02*
X0104114Y0179929D01*
X0104114Y0180116D02*
X0105886Y0180116D01*
X0105886Y0180303D02*
X0104114Y0180303D01*
X0104114Y0180490D02*
X0105886Y0180490D01*
X0105886Y0180677D02*
X0104114Y0180677D01*
X0104114Y0180864D02*
X0105886Y0180864D01*
X0105886Y0181051D02*
X0104114Y0181051D01*
X0104114Y0181238D02*
X0105886Y0181238D01*
X0105886Y0181425D02*
X0104114Y0181425D01*
X0104114Y0181612D02*
X0105886Y0181612D01*
X0105886Y0181799D02*
X0104114Y0181799D01*
X0104114Y0181986D02*
X0105886Y0181986D01*
X0105886Y0182173D02*
X0104114Y0182173D01*
X0104114Y0182360D02*
X0105886Y0182360D01*
X0105886Y0182547D02*
X0104114Y0182547D01*
X0104114Y0182734D02*
X0105886Y0182734D01*
X0068288Y0206024D02*
X0063760Y0206024D01*
X0068288Y0206024D02*
X0068288Y0202284D01*
X0063760Y0202284D01*
X0063760Y0206024D01*
X0063760Y0202471D02*
X0068288Y0202471D01*
X0068288Y0202658D02*
X0063760Y0202658D01*
X0063760Y0202845D02*
X0068288Y0202845D01*
X0068288Y0203032D02*
X0063760Y0203032D01*
X0063760Y0203219D02*
X0068288Y0203219D01*
X0068288Y0203406D02*
X0063760Y0203406D01*
X0063760Y0203593D02*
X0068288Y0203593D01*
X0068288Y0203780D02*
X0063760Y0203780D01*
X0063760Y0203967D02*
X0068288Y0203967D01*
X0068288Y0204154D02*
X0063760Y0204154D01*
X0063760Y0204341D02*
X0068288Y0204341D01*
X0068288Y0204528D02*
X0063760Y0204528D01*
X0063760Y0204715D02*
X0068288Y0204715D01*
X0068288Y0204902D02*
X0063760Y0204902D01*
X0063760Y0205089D02*
X0068288Y0205089D01*
X0068288Y0205276D02*
X0063760Y0205276D01*
X0063760Y0205463D02*
X0068288Y0205463D01*
X0068288Y0205650D02*
X0063760Y0205650D01*
X0063760Y0205837D02*
X0068288Y0205837D01*
X0068288Y0206024D02*
X0063760Y0206024D01*
X0063760Y0212716D02*
X0068288Y0212716D01*
X0068288Y0208976D01*
X0063760Y0208976D01*
X0063760Y0212716D01*
X0063760Y0209163D02*
X0068288Y0209163D01*
X0068288Y0209350D02*
X0063760Y0209350D01*
X0063760Y0209537D02*
X0068288Y0209537D01*
X0068288Y0209724D02*
X0063760Y0209724D01*
X0063760Y0209911D02*
X0068288Y0209911D01*
X0068288Y0210098D02*
X0063760Y0210098D01*
X0063760Y0210285D02*
X0068288Y0210285D01*
X0068288Y0210472D02*
X0063760Y0210472D01*
X0063760Y0210659D02*
X0068288Y0210659D01*
X0068288Y0210846D02*
X0063760Y0210846D01*
X0063760Y0211033D02*
X0068288Y0211033D01*
X0068288Y0211220D02*
X0063760Y0211220D01*
X0063760Y0211407D02*
X0068288Y0211407D01*
X0068288Y0211594D02*
X0063760Y0211594D01*
X0063760Y0211781D02*
X0068288Y0211781D01*
X0068288Y0211968D02*
X0063760Y0211968D01*
X0063760Y0212155D02*
X0068288Y0212155D01*
X0068288Y0212342D02*
X0063760Y0212342D01*
X0063760Y0212529D02*
X0068288Y0212529D01*
X0068288Y0212716D02*
X0063760Y0212716D01*
X0046240Y0212716D02*
X0041712Y0212716D01*
X0046240Y0212716D02*
X0046240Y0208976D01*
X0041712Y0208976D01*
X0041712Y0212716D01*
X0041712Y0209163D02*
X0046240Y0209163D01*
X0046240Y0209350D02*
X0041712Y0209350D01*
X0041712Y0209537D02*
X0046240Y0209537D01*
X0046240Y0209724D02*
X0041712Y0209724D01*
X0041712Y0209911D02*
X0046240Y0209911D01*
X0046240Y0210098D02*
X0041712Y0210098D01*
X0041712Y0210285D02*
X0046240Y0210285D01*
X0046240Y0210472D02*
X0041712Y0210472D01*
X0041712Y0210659D02*
X0046240Y0210659D01*
X0046240Y0210846D02*
X0041712Y0210846D01*
X0041712Y0211033D02*
X0046240Y0211033D01*
X0046240Y0211220D02*
X0041712Y0211220D01*
X0041712Y0211407D02*
X0046240Y0211407D01*
X0046240Y0211594D02*
X0041712Y0211594D01*
X0041712Y0211781D02*
X0046240Y0211781D01*
X0046240Y0211968D02*
X0041712Y0211968D01*
X0041712Y0212155D02*
X0046240Y0212155D01*
X0046240Y0212342D02*
X0041712Y0212342D01*
X0041712Y0212529D02*
X0046240Y0212529D01*
X0046240Y0212716D02*
X0041712Y0212716D01*
X0041712Y0206024D02*
X0046240Y0206024D01*
X0046240Y0202284D01*
X0041712Y0202284D01*
X0041712Y0206024D01*
X0041712Y0202471D02*
X0046240Y0202471D01*
X0046240Y0202658D02*
X0041712Y0202658D01*
X0041712Y0202845D02*
X0046240Y0202845D01*
X0046240Y0203032D02*
X0041712Y0203032D01*
X0041712Y0203219D02*
X0046240Y0203219D01*
X0046240Y0203406D02*
X0041712Y0203406D01*
X0041712Y0203593D02*
X0046240Y0203593D01*
X0046240Y0203780D02*
X0041712Y0203780D01*
X0041712Y0203967D02*
X0046240Y0203967D01*
X0046240Y0204154D02*
X0041712Y0204154D01*
X0041712Y0204341D02*
X0046240Y0204341D01*
X0046240Y0204528D02*
X0041712Y0204528D01*
X0041712Y0204715D02*
X0046240Y0204715D01*
X0046240Y0204902D02*
X0041712Y0204902D01*
X0041712Y0205089D02*
X0046240Y0205089D01*
X0046240Y0205276D02*
X0041712Y0205276D01*
X0041712Y0205463D02*
X0046240Y0205463D01*
X0046240Y0205650D02*
X0041712Y0205650D01*
X0041712Y0205837D02*
X0046240Y0205837D01*
X0046240Y0206024D02*
X0041712Y0206024D01*
X0038288Y0206024D02*
X0033760Y0206024D01*
X0038288Y0206024D02*
X0038288Y0202284D01*
X0033760Y0202284D01*
X0033760Y0206024D01*
X0033760Y0202471D02*
X0038288Y0202471D01*
X0038288Y0202658D02*
X0033760Y0202658D01*
X0033760Y0202845D02*
X0038288Y0202845D01*
X0038288Y0203032D02*
X0033760Y0203032D01*
X0033760Y0203219D02*
X0038288Y0203219D01*
X0038288Y0203406D02*
X0033760Y0203406D01*
X0033760Y0203593D02*
X0038288Y0203593D01*
X0038288Y0203780D02*
X0033760Y0203780D01*
X0033760Y0203967D02*
X0038288Y0203967D01*
X0038288Y0204154D02*
X0033760Y0204154D01*
X0033760Y0204341D02*
X0038288Y0204341D01*
X0038288Y0204528D02*
X0033760Y0204528D01*
X0033760Y0204715D02*
X0038288Y0204715D01*
X0038288Y0204902D02*
X0033760Y0204902D01*
X0033760Y0205089D02*
X0038288Y0205089D01*
X0038288Y0205276D02*
X0033760Y0205276D01*
X0033760Y0205463D02*
X0038288Y0205463D01*
X0038288Y0205650D02*
X0033760Y0205650D01*
X0033760Y0205837D02*
X0038288Y0205837D01*
X0038288Y0206024D02*
X0033760Y0206024D01*
X0033760Y0212716D02*
X0038288Y0212716D01*
X0038288Y0208976D01*
X0033760Y0208976D01*
X0033760Y0212716D01*
X0033760Y0209163D02*
X0038288Y0209163D01*
X0038288Y0209350D02*
X0033760Y0209350D01*
X0033760Y0209537D02*
X0038288Y0209537D01*
X0038288Y0209724D02*
X0033760Y0209724D01*
X0033760Y0209911D02*
X0038288Y0209911D01*
X0038288Y0210098D02*
X0033760Y0210098D01*
X0033760Y0210285D02*
X0038288Y0210285D01*
X0038288Y0210472D02*
X0033760Y0210472D01*
X0033760Y0210659D02*
X0038288Y0210659D01*
X0038288Y0210846D02*
X0033760Y0210846D01*
X0033760Y0211033D02*
X0038288Y0211033D01*
X0038288Y0211220D02*
X0033760Y0211220D01*
X0033760Y0211407D02*
X0038288Y0211407D01*
X0038288Y0211594D02*
X0033760Y0211594D01*
X0033760Y0211781D02*
X0038288Y0211781D01*
X0038288Y0211968D02*
X0033760Y0211968D01*
X0033760Y0212155D02*
X0038288Y0212155D01*
X0038288Y0212342D02*
X0033760Y0212342D01*
X0033760Y0212529D02*
X0038288Y0212529D01*
X0038288Y0212716D02*
X0033760Y0212716D01*
X0016240Y0212716D02*
X0011712Y0212716D01*
X0016240Y0212716D02*
X0016240Y0208976D01*
X0011712Y0208976D01*
X0011712Y0212716D01*
X0011712Y0209163D02*
X0016240Y0209163D01*
X0016240Y0209350D02*
X0011712Y0209350D01*
X0011712Y0209537D02*
X0016240Y0209537D01*
X0016240Y0209724D02*
X0011712Y0209724D01*
X0011712Y0209911D02*
X0016240Y0209911D01*
X0016240Y0210098D02*
X0011712Y0210098D01*
X0011712Y0210285D02*
X0016240Y0210285D01*
X0016240Y0210472D02*
X0011712Y0210472D01*
X0011712Y0210659D02*
X0016240Y0210659D01*
X0016240Y0210846D02*
X0011712Y0210846D01*
X0011712Y0211033D02*
X0016240Y0211033D01*
X0016240Y0211220D02*
X0011712Y0211220D01*
X0011712Y0211407D02*
X0016240Y0211407D01*
X0016240Y0211594D02*
X0011712Y0211594D01*
X0011712Y0211781D02*
X0016240Y0211781D01*
X0016240Y0211968D02*
X0011712Y0211968D01*
X0011712Y0212155D02*
X0016240Y0212155D01*
X0016240Y0212342D02*
X0011712Y0212342D01*
X0011712Y0212529D02*
X0016240Y0212529D01*
X0016240Y0212716D02*
X0011712Y0212716D01*
X0011712Y0206024D02*
X0016240Y0206024D01*
X0016240Y0202284D01*
X0011712Y0202284D01*
X0011712Y0206024D01*
X0011712Y0202471D02*
X0016240Y0202471D01*
X0016240Y0202658D02*
X0011712Y0202658D01*
X0011712Y0202845D02*
X0016240Y0202845D01*
X0016240Y0203032D02*
X0011712Y0203032D01*
X0011712Y0203219D02*
X0016240Y0203219D01*
X0016240Y0203406D02*
X0011712Y0203406D01*
X0011712Y0203593D02*
X0016240Y0203593D01*
X0016240Y0203780D02*
X0011712Y0203780D01*
X0011712Y0203967D02*
X0016240Y0203967D01*
X0016240Y0204154D02*
X0011712Y0204154D01*
X0011712Y0204341D02*
X0016240Y0204341D01*
X0016240Y0204528D02*
X0011712Y0204528D01*
X0011712Y0204715D02*
X0016240Y0204715D01*
X0016240Y0204902D02*
X0011712Y0204902D01*
X0011712Y0205089D02*
X0016240Y0205089D01*
X0016240Y0205276D02*
X0011712Y0205276D01*
X0011712Y0205463D02*
X0016240Y0205463D01*
X0016240Y0205650D02*
X0011712Y0205650D01*
X0011712Y0205837D02*
X0016240Y0205837D01*
X0016240Y0206024D02*
X0011712Y0206024D01*
D16*
X0096942Y0087708D02*
X0096942Y0083292D01*
X0096942Y0087708D02*
X0103058Y0087708D01*
X0103058Y0083292D01*
X0096942Y0083292D01*
X0096942Y0083467D02*
X0103058Y0083467D01*
X0103058Y0083642D02*
X0096942Y0083642D01*
X0096942Y0083817D02*
X0103058Y0083817D01*
X0103058Y0083992D02*
X0096942Y0083992D01*
X0096942Y0084167D02*
X0103058Y0084167D01*
X0103058Y0084342D02*
X0096942Y0084342D01*
X0096942Y0084517D02*
X0103058Y0084517D01*
X0103058Y0084692D02*
X0096942Y0084692D01*
X0096942Y0084867D02*
X0103058Y0084867D01*
X0103058Y0085042D02*
X0096942Y0085042D01*
X0096942Y0085217D02*
X0103058Y0085217D01*
X0103058Y0085392D02*
X0096942Y0085392D01*
X0096942Y0085567D02*
X0103058Y0085567D01*
X0103058Y0085742D02*
X0096942Y0085742D01*
X0096942Y0085917D02*
X0103058Y0085917D01*
X0103058Y0086092D02*
X0096942Y0086092D01*
X0096942Y0086267D02*
X0103058Y0086267D01*
X0103058Y0086442D02*
X0096942Y0086442D01*
X0096942Y0086617D02*
X0103058Y0086617D01*
X0103058Y0086792D02*
X0096942Y0086792D01*
X0096942Y0086967D02*
X0103058Y0086967D01*
X0103058Y0087142D02*
X0096942Y0087142D01*
X0096942Y0087317D02*
X0103058Y0087317D01*
X0103058Y0087492D02*
X0096942Y0087492D01*
X0096942Y0087667D02*
X0103058Y0087667D01*
X0096942Y0081708D02*
X0096942Y0077292D01*
X0096942Y0081708D02*
X0103058Y0081708D01*
X0103058Y0077292D01*
X0096942Y0077292D01*
X0096942Y0077467D02*
X0103058Y0077467D01*
X0103058Y0077642D02*
X0096942Y0077642D01*
X0096942Y0077817D02*
X0103058Y0077817D01*
X0103058Y0077992D02*
X0096942Y0077992D01*
X0096942Y0078167D02*
X0103058Y0078167D01*
X0103058Y0078342D02*
X0096942Y0078342D01*
X0096942Y0078517D02*
X0103058Y0078517D01*
X0103058Y0078692D02*
X0096942Y0078692D01*
X0096942Y0078867D02*
X0103058Y0078867D01*
X0103058Y0079042D02*
X0096942Y0079042D01*
X0096942Y0079217D02*
X0103058Y0079217D01*
X0103058Y0079392D02*
X0096942Y0079392D01*
X0096942Y0079567D02*
X0103058Y0079567D01*
X0103058Y0079742D02*
X0096942Y0079742D01*
X0096942Y0079917D02*
X0103058Y0079917D01*
X0103058Y0080092D02*
X0096942Y0080092D01*
X0096942Y0080267D02*
X0103058Y0080267D01*
X0103058Y0080442D02*
X0096942Y0080442D01*
X0096942Y0080617D02*
X0103058Y0080617D01*
X0103058Y0080792D02*
X0096942Y0080792D01*
X0096942Y0080967D02*
X0103058Y0080967D01*
X0103058Y0081142D02*
X0096942Y0081142D01*
X0096942Y0081317D02*
X0103058Y0081317D01*
X0103058Y0081492D02*
X0096942Y0081492D01*
X0096942Y0081667D02*
X0103058Y0081667D01*
X0101042Y0130558D02*
X0105458Y0130558D01*
X0105458Y0124442D01*
X0101042Y0124442D01*
X0101042Y0130558D01*
X0101042Y0124617D02*
X0105458Y0124617D01*
X0105458Y0124792D02*
X0101042Y0124792D01*
X0101042Y0124967D02*
X0105458Y0124967D01*
X0105458Y0125142D02*
X0101042Y0125142D01*
X0101042Y0125317D02*
X0105458Y0125317D01*
X0105458Y0125492D02*
X0101042Y0125492D01*
X0101042Y0125667D02*
X0105458Y0125667D01*
X0105458Y0125842D02*
X0101042Y0125842D01*
X0101042Y0126017D02*
X0105458Y0126017D01*
X0105458Y0126192D02*
X0101042Y0126192D01*
X0101042Y0126367D02*
X0105458Y0126367D01*
X0105458Y0126542D02*
X0101042Y0126542D01*
X0101042Y0126717D02*
X0105458Y0126717D01*
X0105458Y0126892D02*
X0101042Y0126892D01*
X0101042Y0127067D02*
X0105458Y0127067D01*
X0105458Y0127242D02*
X0101042Y0127242D01*
X0101042Y0127417D02*
X0105458Y0127417D01*
X0105458Y0127592D02*
X0101042Y0127592D01*
X0101042Y0127767D02*
X0105458Y0127767D01*
X0105458Y0127942D02*
X0101042Y0127942D01*
X0101042Y0128117D02*
X0105458Y0128117D01*
X0105458Y0128292D02*
X0101042Y0128292D01*
X0101042Y0128467D02*
X0105458Y0128467D01*
X0105458Y0128642D02*
X0101042Y0128642D01*
X0101042Y0128817D02*
X0105458Y0128817D01*
X0105458Y0128992D02*
X0101042Y0128992D01*
X0101042Y0129167D02*
X0105458Y0129167D01*
X0105458Y0129342D02*
X0101042Y0129342D01*
X0101042Y0129517D02*
X0105458Y0129517D01*
X0105458Y0129692D02*
X0101042Y0129692D01*
X0101042Y0129867D02*
X0105458Y0129867D01*
X0105458Y0130042D02*
X0101042Y0130042D01*
X0101042Y0130217D02*
X0105458Y0130217D01*
X0105458Y0130392D02*
X0101042Y0130392D01*
X0107042Y0130558D02*
X0111458Y0130558D01*
X0111458Y0124442D01*
X0107042Y0124442D01*
X0107042Y0130558D01*
X0107042Y0124617D02*
X0111458Y0124617D01*
X0111458Y0124792D02*
X0107042Y0124792D01*
X0107042Y0124967D02*
X0111458Y0124967D01*
X0111458Y0125142D02*
X0107042Y0125142D01*
X0107042Y0125317D02*
X0111458Y0125317D01*
X0111458Y0125492D02*
X0107042Y0125492D01*
X0107042Y0125667D02*
X0111458Y0125667D01*
X0111458Y0125842D02*
X0107042Y0125842D01*
X0107042Y0126017D02*
X0111458Y0126017D01*
X0111458Y0126192D02*
X0107042Y0126192D01*
X0107042Y0126367D02*
X0111458Y0126367D01*
X0111458Y0126542D02*
X0107042Y0126542D01*
X0107042Y0126717D02*
X0111458Y0126717D01*
X0111458Y0126892D02*
X0107042Y0126892D01*
X0107042Y0127067D02*
X0111458Y0127067D01*
X0111458Y0127242D02*
X0107042Y0127242D01*
X0107042Y0127417D02*
X0111458Y0127417D01*
X0111458Y0127592D02*
X0107042Y0127592D01*
X0107042Y0127767D02*
X0111458Y0127767D01*
X0111458Y0127942D02*
X0107042Y0127942D01*
X0107042Y0128117D02*
X0111458Y0128117D01*
X0111458Y0128292D02*
X0107042Y0128292D01*
X0107042Y0128467D02*
X0111458Y0128467D01*
X0111458Y0128642D02*
X0107042Y0128642D01*
X0107042Y0128817D02*
X0111458Y0128817D01*
X0111458Y0128992D02*
X0107042Y0128992D01*
X0107042Y0129167D02*
X0111458Y0129167D01*
X0111458Y0129342D02*
X0107042Y0129342D01*
X0107042Y0129517D02*
X0111458Y0129517D01*
X0111458Y0129692D02*
X0107042Y0129692D01*
X0107042Y0129867D02*
X0111458Y0129867D01*
X0111458Y0130042D02*
X0107042Y0130042D01*
X0107042Y0130217D02*
X0111458Y0130217D01*
X0111458Y0130392D02*
X0107042Y0130392D01*
D17*
X0095907Y0195545D02*
X0094329Y0195545D01*
X0095907Y0195545D02*
X0095907Y0190621D01*
X0094329Y0190621D01*
X0094329Y0195545D01*
X0094329Y0190806D02*
X0095907Y0190806D01*
X0095907Y0190991D02*
X0094329Y0190991D01*
X0094329Y0191176D02*
X0095907Y0191176D01*
X0095907Y0191361D02*
X0094329Y0191361D01*
X0094329Y0191546D02*
X0095907Y0191546D01*
X0095907Y0191731D02*
X0094329Y0191731D01*
X0094329Y0191916D02*
X0095907Y0191916D01*
X0095907Y0192101D02*
X0094329Y0192101D01*
X0094329Y0192286D02*
X0095907Y0192286D01*
X0095907Y0192471D02*
X0094329Y0192471D01*
X0094329Y0192656D02*
X0095907Y0192656D01*
X0095907Y0192841D02*
X0094329Y0192841D01*
X0094329Y0193026D02*
X0095907Y0193026D01*
X0095907Y0193211D02*
X0094329Y0193211D01*
X0094329Y0193396D02*
X0095907Y0193396D01*
X0095907Y0193581D02*
X0094329Y0193581D01*
X0094329Y0193766D02*
X0095907Y0193766D01*
X0095907Y0193951D02*
X0094329Y0193951D01*
X0094329Y0194136D02*
X0095907Y0194136D01*
X0095907Y0194321D02*
X0094329Y0194321D01*
X0094329Y0194506D02*
X0095907Y0194506D01*
X0095907Y0194691D02*
X0094329Y0194691D01*
X0094329Y0194876D02*
X0095907Y0194876D01*
X0095907Y0195061D02*
X0094329Y0195061D01*
X0094329Y0195246D02*
X0095907Y0195246D01*
X0095907Y0195431D02*
X0094329Y0195431D01*
X0093348Y0195545D02*
X0091770Y0195545D01*
X0093348Y0195545D02*
X0093348Y0190621D01*
X0091770Y0190621D01*
X0091770Y0195545D01*
X0091770Y0190806D02*
X0093348Y0190806D01*
X0093348Y0190991D02*
X0091770Y0190991D01*
X0091770Y0191176D02*
X0093348Y0191176D01*
X0093348Y0191361D02*
X0091770Y0191361D01*
X0091770Y0191546D02*
X0093348Y0191546D01*
X0093348Y0191731D02*
X0091770Y0191731D01*
X0091770Y0191916D02*
X0093348Y0191916D01*
X0093348Y0192101D02*
X0091770Y0192101D01*
X0091770Y0192286D02*
X0093348Y0192286D01*
X0093348Y0192471D02*
X0091770Y0192471D01*
X0091770Y0192656D02*
X0093348Y0192656D01*
X0093348Y0192841D02*
X0091770Y0192841D01*
X0091770Y0193026D02*
X0093348Y0193026D01*
X0093348Y0193211D02*
X0091770Y0193211D01*
X0091770Y0193396D02*
X0093348Y0193396D01*
X0093348Y0193581D02*
X0091770Y0193581D01*
X0091770Y0193766D02*
X0093348Y0193766D01*
X0093348Y0193951D02*
X0091770Y0193951D01*
X0091770Y0194136D02*
X0093348Y0194136D01*
X0093348Y0194321D02*
X0091770Y0194321D01*
X0091770Y0194506D02*
X0093348Y0194506D01*
X0093348Y0194691D02*
X0091770Y0194691D01*
X0091770Y0194876D02*
X0093348Y0194876D01*
X0093348Y0195061D02*
X0091770Y0195061D01*
X0091770Y0195246D02*
X0093348Y0195246D01*
X0093348Y0195431D02*
X0091770Y0195431D01*
X0090789Y0195545D02*
X0089211Y0195545D01*
X0090789Y0195545D02*
X0090789Y0190621D01*
X0089211Y0190621D01*
X0089211Y0195545D01*
X0089211Y0190806D02*
X0090789Y0190806D01*
X0090789Y0190991D02*
X0089211Y0190991D01*
X0089211Y0191176D02*
X0090789Y0191176D01*
X0090789Y0191361D02*
X0089211Y0191361D01*
X0089211Y0191546D02*
X0090789Y0191546D01*
X0090789Y0191731D02*
X0089211Y0191731D01*
X0089211Y0191916D02*
X0090789Y0191916D01*
X0090789Y0192101D02*
X0089211Y0192101D01*
X0089211Y0192286D02*
X0090789Y0192286D01*
X0090789Y0192471D02*
X0089211Y0192471D01*
X0089211Y0192656D02*
X0090789Y0192656D01*
X0090789Y0192841D02*
X0089211Y0192841D01*
X0089211Y0193026D02*
X0090789Y0193026D01*
X0090789Y0193211D02*
X0089211Y0193211D01*
X0089211Y0193396D02*
X0090789Y0193396D01*
X0090789Y0193581D02*
X0089211Y0193581D01*
X0089211Y0193766D02*
X0090789Y0193766D01*
X0090789Y0193951D02*
X0089211Y0193951D01*
X0089211Y0194136D02*
X0090789Y0194136D01*
X0090789Y0194321D02*
X0089211Y0194321D01*
X0089211Y0194506D02*
X0090789Y0194506D01*
X0090789Y0194691D02*
X0089211Y0194691D01*
X0089211Y0194876D02*
X0090789Y0194876D01*
X0090789Y0195061D02*
X0089211Y0195061D01*
X0089211Y0195246D02*
X0090789Y0195246D01*
X0090789Y0195431D02*
X0089211Y0195431D01*
X0088230Y0195545D02*
X0086652Y0195545D01*
X0088230Y0195545D02*
X0088230Y0190621D01*
X0086652Y0190621D01*
X0086652Y0195545D01*
X0086652Y0190806D02*
X0088230Y0190806D01*
X0088230Y0190991D02*
X0086652Y0190991D01*
X0086652Y0191176D02*
X0088230Y0191176D01*
X0088230Y0191361D02*
X0086652Y0191361D01*
X0086652Y0191546D02*
X0088230Y0191546D01*
X0088230Y0191731D02*
X0086652Y0191731D01*
X0086652Y0191916D02*
X0088230Y0191916D01*
X0088230Y0192101D02*
X0086652Y0192101D01*
X0086652Y0192286D02*
X0088230Y0192286D01*
X0088230Y0192471D02*
X0086652Y0192471D01*
X0086652Y0192656D02*
X0088230Y0192656D01*
X0088230Y0192841D02*
X0086652Y0192841D01*
X0086652Y0193026D02*
X0088230Y0193026D01*
X0088230Y0193211D02*
X0086652Y0193211D01*
X0086652Y0193396D02*
X0088230Y0193396D01*
X0088230Y0193581D02*
X0086652Y0193581D01*
X0086652Y0193766D02*
X0088230Y0193766D01*
X0088230Y0193951D02*
X0086652Y0193951D01*
X0086652Y0194136D02*
X0088230Y0194136D01*
X0088230Y0194321D02*
X0086652Y0194321D01*
X0086652Y0194506D02*
X0088230Y0194506D01*
X0088230Y0194691D02*
X0086652Y0194691D01*
X0086652Y0194876D02*
X0088230Y0194876D01*
X0088230Y0195061D02*
X0086652Y0195061D01*
X0086652Y0195246D02*
X0088230Y0195246D01*
X0088230Y0195431D02*
X0086652Y0195431D01*
X0085671Y0195545D02*
X0084093Y0195545D01*
X0085671Y0195545D02*
X0085671Y0190621D01*
X0084093Y0190621D01*
X0084093Y0195545D01*
X0084093Y0190806D02*
X0085671Y0190806D01*
X0085671Y0190991D02*
X0084093Y0190991D01*
X0084093Y0191176D02*
X0085671Y0191176D01*
X0085671Y0191361D02*
X0084093Y0191361D01*
X0084093Y0191546D02*
X0085671Y0191546D01*
X0085671Y0191731D02*
X0084093Y0191731D01*
X0084093Y0191916D02*
X0085671Y0191916D01*
X0085671Y0192101D02*
X0084093Y0192101D01*
X0084093Y0192286D02*
X0085671Y0192286D01*
X0085671Y0192471D02*
X0084093Y0192471D01*
X0084093Y0192656D02*
X0085671Y0192656D01*
X0085671Y0192841D02*
X0084093Y0192841D01*
X0084093Y0193026D02*
X0085671Y0193026D01*
X0085671Y0193211D02*
X0084093Y0193211D01*
X0084093Y0193396D02*
X0085671Y0193396D01*
X0085671Y0193581D02*
X0084093Y0193581D01*
X0084093Y0193766D02*
X0085671Y0193766D01*
X0085671Y0193951D02*
X0084093Y0193951D01*
X0084093Y0194136D02*
X0085671Y0194136D01*
X0085671Y0194321D02*
X0084093Y0194321D01*
X0084093Y0194506D02*
X0085671Y0194506D01*
X0085671Y0194691D02*
X0084093Y0194691D01*
X0084093Y0194876D02*
X0085671Y0194876D01*
X0085671Y0195061D02*
X0084093Y0195061D01*
X0084093Y0195246D02*
X0085671Y0195246D01*
X0085671Y0195431D02*
X0084093Y0195431D01*
D18*
X0079929Y0124796D02*
X0079929Y0119102D01*
X0079929Y0124796D02*
X0083259Y0124796D01*
X0083259Y0119102D01*
X0079929Y0119102D01*
X0079929Y0119304D02*
X0083259Y0119304D01*
X0083259Y0119506D02*
X0079929Y0119506D01*
X0079929Y0119708D02*
X0083259Y0119708D01*
X0083259Y0119910D02*
X0079929Y0119910D01*
X0079929Y0120112D02*
X0083259Y0120112D01*
X0083259Y0120314D02*
X0079929Y0120314D01*
X0079929Y0120516D02*
X0083259Y0120516D01*
X0083259Y0120718D02*
X0079929Y0120718D01*
X0079929Y0120920D02*
X0083259Y0120920D01*
X0083259Y0121122D02*
X0079929Y0121122D01*
X0079929Y0121324D02*
X0083259Y0121324D01*
X0083259Y0121526D02*
X0079929Y0121526D01*
X0079929Y0121728D02*
X0083259Y0121728D01*
X0083259Y0121930D02*
X0079929Y0121930D01*
X0079929Y0122132D02*
X0083259Y0122132D01*
X0083259Y0122334D02*
X0079929Y0122334D01*
X0079929Y0122536D02*
X0083259Y0122536D01*
X0083259Y0122738D02*
X0079929Y0122738D01*
X0079929Y0122940D02*
X0083259Y0122940D01*
X0083259Y0123142D02*
X0079929Y0123142D01*
X0079929Y0123344D02*
X0083259Y0123344D01*
X0083259Y0123546D02*
X0079929Y0123546D01*
X0079929Y0123748D02*
X0083259Y0123748D01*
X0083259Y0123950D02*
X0079929Y0123950D01*
X0079929Y0124152D02*
X0083259Y0124152D01*
X0083259Y0124354D02*
X0079929Y0124354D01*
X0079929Y0124556D02*
X0083259Y0124556D01*
X0083259Y0124758D02*
X0079929Y0124758D01*
X0074929Y0124796D02*
X0074929Y0119102D01*
X0074929Y0124796D02*
X0078259Y0124796D01*
X0078259Y0119102D01*
X0074929Y0119102D01*
X0074929Y0119304D02*
X0078259Y0119304D01*
X0078259Y0119506D02*
X0074929Y0119506D01*
X0074929Y0119708D02*
X0078259Y0119708D01*
X0078259Y0119910D02*
X0074929Y0119910D01*
X0074929Y0120112D02*
X0078259Y0120112D01*
X0078259Y0120314D02*
X0074929Y0120314D01*
X0074929Y0120516D02*
X0078259Y0120516D01*
X0078259Y0120718D02*
X0074929Y0120718D01*
X0074929Y0120920D02*
X0078259Y0120920D01*
X0078259Y0121122D02*
X0074929Y0121122D01*
X0074929Y0121324D02*
X0078259Y0121324D01*
X0078259Y0121526D02*
X0074929Y0121526D01*
X0074929Y0121728D02*
X0078259Y0121728D01*
X0078259Y0121930D02*
X0074929Y0121930D01*
X0074929Y0122132D02*
X0078259Y0122132D01*
X0078259Y0122334D02*
X0074929Y0122334D01*
X0074929Y0122536D02*
X0078259Y0122536D01*
X0078259Y0122738D02*
X0074929Y0122738D01*
X0074929Y0122940D02*
X0078259Y0122940D01*
X0078259Y0123142D02*
X0074929Y0123142D01*
X0074929Y0123344D02*
X0078259Y0123344D01*
X0078259Y0123546D02*
X0074929Y0123546D01*
X0074929Y0123748D02*
X0078259Y0123748D01*
X0078259Y0123950D02*
X0074929Y0123950D01*
X0074929Y0124152D02*
X0078259Y0124152D01*
X0078259Y0124354D02*
X0074929Y0124354D01*
X0074929Y0124556D02*
X0078259Y0124556D01*
X0078259Y0124758D02*
X0074929Y0124758D01*
X0069929Y0124796D02*
X0069929Y0119102D01*
X0069929Y0124796D02*
X0073259Y0124796D01*
X0073259Y0119102D01*
X0069929Y0119102D01*
X0069929Y0119304D02*
X0073259Y0119304D01*
X0073259Y0119506D02*
X0069929Y0119506D01*
X0069929Y0119708D02*
X0073259Y0119708D01*
X0073259Y0119910D02*
X0069929Y0119910D01*
X0069929Y0120112D02*
X0073259Y0120112D01*
X0073259Y0120314D02*
X0069929Y0120314D01*
X0069929Y0120516D02*
X0073259Y0120516D01*
X0073259Y0120718D02*
X0069929Y0120718D01*
X0069929Y0120920D02*
X0073259Y0120920D01*
X0073259Y0121122D02*
X0069929Y0121122D01*
X0069929Y0121324D02*
X0073259Y0121324D01*
X0073259Y0121526D02*
X0069929Y0121526D01*
X0069929Y0121728D02*
X0073259Y0121728D01*
X0073259Y0121930D02*
X0069929Y0121930D01*
X0069929Y0122132D02*
X0073259Y0122132D01*
X0073259Y0122334D02*
X0069929Y0122334D01*
X0069929Y0122536D02*
X0073259Y0122536D01*
X0073259Y0122738D02*
X0069929Y0122738D01*
X0069929Y0122940D02*
X0073259Y0122940D01*
X0073259Y0123142D02*
X0069929Y0123142D01*
X0069929Y0123344D02*
X0073259Y0123344D01*
X0073259Y0123546D02*
X0069929Y0123546D01*
X0069929Y0123748D02*
X0073259Y0123748D01*
X0073259Y0123950D02*
X0069929Y0123950D01*
X0069929Y0124152D02*
X0073259Y0124152D01*
X0073259Y0124354D02*
X0069929Y0124354D01*
X0069929Y0124556D02*
X0073259Y0124556D01*
X0073259Y0124758D02*
X0069929Y0124758D01*
X0064929Y0124796D02*
X0064929Y0119102D01*
X0064929Y0124796D02*
X0068259Y0124796D01*
X0068259Y0119102D01*
X0064929Y0119102D01*
X0064929Y0119304D02*
X0068259Y0119304D01*
X0068259Y0119506D02*
X0064929Y0119506D01*
X0064929Y0119708D02*
X0068259Y0119708D01*
X0068259Y0119910D02*
X0064929Y0119910D01*
X0064929Y0120112D02*
X0068259Y0120112D01*
X0068259Y0120314D02*
X0064929Y0120314D01*
X0064929Y0120516D02*
X0068259Y0120516D01*
X0068259Y0120718D02*
X0064929Y0120718D01*
X0064929Y0120920D02*
X0068259Y0120920D01*
X0068259Y0121122D02*
X0064929Y0121122D01*
X0064929Y0121324D02*
X0068259Y0121324D01*
X0068259Y0121526D02*
X0064929Y0121526D01*
X0064929Y0121728D02*
X0068259Y0121728D01*
X0068259Y0121930D02*
X0064929Y0121930D01*
X0064929Y0122132D02*
X0068259Y0122132D01*
X0068259Y0122334D02*
X0064929Y0122334D01*
X0064929Y0122536D02*
X0068259Y0122536D01*
X0068259Y0122738D02*
X0064929Y0122738D01*
X0064929Y0122940D02*
X0068259Y0122940D01*
X0068259Y0123142D02*
X0064929Y0123142D01*
X0064929Y0123344D02*
X0068259Y0123344D01*
X0068259Y0123546D02*
X0064929Y0123546D01*
X0064929Y0123748D02*
X0068259Y0123748D01*
X0068259Y0123950D02*
X0064929Y0123950D01*
X0064929Y0124152D02*
X0068259Y0124152D01*
X0068259Y0124354D02*
X0064929Y0124354D01*
X0064929Y0124556D02*
X0068259Y0124556D01*
X0068259Y0124758D02*
X0064929Y0124758D01*
X0059929Y0124796D02*
X0059929Y0119102D01*
X0059929Y0124796D02*
X0063259Y0124796D01*
X0063259Y0119102D01*
X0059929Y0119102D01*
X0059929Y0119304D02*
X0063259Y0119304D01*
X0063259Y0119506D02*
X0059929Y0119506D01*
X0059929Y0119708D02*
X0063259Y0119708D01*
X0063259Y0119910D02*
X0059929Y0119910D01*
X0059929Y0120112D02*
X0063259Y0120112D01*
X0063259Y0120314D02*
X0059929Y0120314D01*
X0059929Y0120516D02*
X0063259Y0120516D01*
X0063259Y0120718D02*
X0059929Y0120718D01*
X0059929Y0120920D02*
X0063259Y0120920D01*
X0063259Y0121122D02*
X0059929Y0121122D01*
X0059929Y0121324D02*
X0063259Y0121324D01*
X0063259Y0121526D02*
X0059929Y0121526D01*
X0059929Y0121728D02*
X0063259Y0121728D01*
X0063259Y0121930D02*
X0059929Y0121930D01*
X0059929Y0122132D02*
X0063259Y0122132D01*
X0063259Y0122334D02*
X0059929Y0122334D01*
X0059929Y0122536D02*
X0063259Y0122536D01*
X0063259Y0122738D02*
X0059929Y0122738D01*
X0059929Y0122940D02*
X0063259Y0122940D01*
X0063259Y0123142D02*
X0059929Y0123142D01*
X0059929Y0123344D02*
X0063259Y0123344D01*
X0063259Y0123546D02*
X0059929Y0123546D01*
X0059929Y0123748D02*
X0063259Y0123748D01*
X0063259Y0123950D02*
X0059929Y0123950D01*
X0059929Y0124152D02*
X0063259Y0124152D01*
X0063259Y0124354D02*
X0059929Y0124354D01*
X0059929Y0124556D02*
X0063259Y0124556D01*
X0063259Y0124758D02*
X0059929Y0124758D01*
X0054929Y0124796D02*
X0054929Y0119102D01*
X0054929Y0124796D02*
X0058259Y0124796D01*
X0058259Y0119102D01*
X0054929Y0119102D01*
X0054929Y0119304D02*
X0058259Y0119304D01*
X0058259Y0119506D02*
X0054929Y0119506D01*
X0054929Y0119708D02*
X0058259Y0119708D01*
X0058259Y0119910D02*
X0054929Y0119910D01*
X0054929Y0120112D02*
X0058259Y0120112D01*
X0058259Y0120314D02*
X0054929Y0120314D01*
X0054929Y0120516D02*
X0058259Y0120516D01*
X0058259Y0120718D02*
X0054929Y0120718D01*
X0054929Y0120920D02*
X0058259Y0120920D01*
X0058259Y0121122D02*
X0054929Y0121122D01*
X0054929Y0121324D02*
X0058259Y0121324D01*
X0058259Y0121526D02*
X0054929Y0121526D01*
X0054929Y0121728D02*
X0058259Y0121728D01*
X0058259Y0121930D02*
X0054929Y0121930D01*
X0054929Y0122132D02*
X0058259Y0122132D01*
X0058259Y0122334D02*
X0054929Y0122334D01*
X0054929Y0122536D02*
X0058259Y0122536D01*
X0058259Y0122738D02*
X0054929Y0122738D01*
X0054929Y0122940D02*
X0058259Y0122940D01*
X0058259Y0123142D02*
X0054929Y0123142D01*
X0054929Y0123344D02*
X0058259Y0123344D01*
X0058259Y0123546D02*
X0054929Y0123546D01*
X0054929Y0123748D02*
X0058259Y0123748D01*
X0058259Y0123950D02*
X0054929Y0123950D01*
X0054929Y0124152D02*
X0058259Y0124152D01*
X0058259Y0124354D02*
X0054929Y0124354D01*
X0054929Y0124556D02*
X0058259Y0124556D01*
X0058259Y0124758D02*
X0054929Y0124758D01*
X0049929Y0124796D02*
X0049929Y0119102D01*
X0049929Y0124796D02*
X0053259Y0124796D01*
X0053259Y0119102D01*
X0049929Y0119102D01*
X0049929Y0119304D02*
X0053259Y0119304D01*
X0053259Y0119506D02*
X0049929Y0119506D01*
X0049929Y0119708D02*
X0053259Y0119708D01*
X0053259Y0119910D02*
X0049929Y0119910D01*
X0049929Y0120112D02*
X0053259Y0120112D01*
X0053259Y0120314D02*
X0049929Y0120314D01*
X0049929Y0120516D02*
X0053259Y0120516D01*
X0053259Y0120718D02*
X0049929Y0120718D01*
X0049929Y0120920D02*
X0053259Y0120920D01*
X0053259Y0121122D02*
X0049929Y0121122D01*
X0049929Y0121324D02*
X0053259Y0121324D01*
X0053259Y0121526D02*
X0049929Y0121526D01*
X0049929Y0121728D02*
X0053259Y0121728D01*
X0053259Y0121930D02*
X0049929Y0121930D01*
X0049929Y0122132D02*
X0053259Y0122132D01*
X0053259Y0122334D02*
X0049929Y0122334D01*
X0049929Y0122536D02*
X0053259Y0122536D01*
X0053259Y0122738D02*
X0049929Y0122738D01*
X0049929Y0122940D02*
X0053259Y0122940D01*
X0053259Y0123142D02*
X0049929Y0123142D01*
X0049929Y0123344D02*
X0053259Y0123344D01*
X0053259Y0123546D02*
X0049929Y0123546D01*
X0049929Y0123748D02*
X0053259Y0123748D01*
X0053259Y0123950D02*
X0049929Y0123950D01*
X0049929Y0124152D02*
X0053259Y0124152D01*
X0053259Y0124354D02*
X0049929Y0124354D01*
X0049929Y0124556D02*
X0053259Y0124556D01*
X0053259Y0124758D02*
X0049929Y0124758D01*
X0044929Y0124796D02*
X0044929Y0119102D01*
X0044929Y0124796D02*
X0048259Y0124796D01*
X0048259Y0119102D01*
X0044929Y0119102D01*
X0044929Y0119304D02*
X0048259Y0119304D01*
X0048259Y0119506D02*
X0044929Y0119506D01*
X0044929Y0119708D02*
X0048259Y0119708D01*
X0048259Y0119910D02*
X0044929Y0119910D01*
X0044929Y0120112D02*
X0048259Y0120112D01*
X0048259Y0120314D02*
X0044929Y0120314D01*
X0044929Y0120516D02*
X0048259Y0120516D01*
X0048259Y0120718D02*
X0044929Y0120718D01*
X0044929Y0120920D02*
X0048259Y0120920D01*
X0048259Y0121122D02*
X0044929Y0121122D01*
X0044929Y0121324D02*
X0048259Y0121324D01*
X0048259Y0121526D02*
X0044929Y0121526D01*
X0044929Y0121728D02*
X0048259Y0121728D01*
X0048259Y0121930D02*
X0044929Y0121930D01*
X0044929Y0122132D02*
X0048259Y0122132D01*
X0048259Y0122334D02*
X0044929Y0122334D01*
X0044929Y0122536D02*
X0048259Y0122536D01*
X0048259Y0122738D02*
X0044929Y0122738D01*
X0044929Y0122940D02*
X0048259Y0122940D01*
X0048259Y0123142D02*
X0044929Y0123142D01*
X0044929Y0123344D02*
X0048259Y0123344D01*
X0048259Y0123546D02*
X0044929Y0123546D01*
X0044929Y0123748D02*
X0048259Y0123748D01*
X0048259Y0123950D02*
X0044929Y0123950D01*
X0044929Y0124152D02*
X0048259Y0124152D01*
X0048259Y0124354D02*
X0044929Y0124354D01*
X0044929Y0124556D02*
X0048259Y0124556D01*
X0048259Y0124758D02*
X0044929Y0124758D01*
X0039929Y0124796D02*
X0039929Y0119102D01*
X0039929Y0124796D02*
X0043259Y0124796D01*
X0043259Y0119102D01*
X0039929Y0119102D01*
X0039929Y0119304D02*
X0043259Y0119304D01*
X0043259Y0119506D02*
X0039929Y0119506D01*
X0039929Y0119708D02*
X0043259Y0119708D01*
X0043259Y0119910D02*
X0039929Y0119910D01*
X0039929Y0120112D02*
X0043259Y0120112D01*
X0043259Y0120314D02*
X0039929Y0120314D01*
X0039929Y0120516D02*
X0043259Y0120516D01*
X0043259Y0120718D02*
X0039929Y0120718D01*
X0039929Y0120920D02*
X0043259Y0120920D01*
X0043259Y0121122D02*
X0039929Y0121122D01*
X0039929Y0121324D02*
X0043259Y0121324D01*
X0043259Y0121526D02*
X0039929Y0121526D01*
X0039929Y0121728D02*
X0043259Y0121728D01*
X0043259Y0121930D02*
X0039929Y0121930D01*
X0039929Y0122132D02*
X0043259Y0122132D01*
X0043259Y0122334D02*
X0039929Y0122334D01*
X0039929Y0122536D02*
X0043259Y0122536D01*
X0043259Y0122738D02*
X0039929Y0122738D01*
X0039929Y0122940D02*
X0043259Y0122940D01*
X0043259Y0123142D02*
X0039929Y0123142D01*
X0039929Y0123344D02*
X0043259Y0123344D01*
X0043259Y0123546D02*
X0039929Y0123546D01*
X0039929Y0123748D02*
X0043259Y0123748D01*
X0043259Y0123950D02*
X0039929Y0123950D01*
X0039929Y0124152D02*
X0043259Y0124152D01*
X0043259Y0124354D02*
X0039929Y0124354D01*
X0039929Y0124556D02*
X0043259Y0124556D01*
X0043259Y0124758D02*
X0039929Y0124758D01*
X0034929Y0124796D02*
X0034929Y0119102D01*
X0034929Y0124796D02*
X0038259Y0124796D01*
X0038259Y0119102D01*
X0034929Y0119102D01*
X0034929Y0119304D02*
X0038259Y0119304D01*
X0038259Y0119506D02*
X0034929Y0119506D01*
X0034929Y0119708D02*
X0038259Y0119708D01*
X0038259Y0119910D02*
X0034929Y0119910D01*
X0034929Y0120112D02*
X0038259Y0120112D01*
X0038259Y0120314D02*
X0034929Y0120314D01*
X0034929Y0120516D02*
X0038259Y0120516D01*
X0038259Y0120718D02*
X0034929Y0120718D01*
X0034929Y0120920D02*
X0038259Y0120920D01*
X0038259Y0121122D02*
X0034929Y0121122D01*
X0034929Y0121324D02*
X0038259Y0121324D01*
X0038259Y0121526D02*
X0034929Y0121526D01*
X0034929Y0121728D02*
X0038259Y0121728D01*
X0038259Y0121930D02*
X0034929Y0121930D01*
X0034929Y0122132D02*
X0038259Y0122132D01*
X0038259Y0122334D02*
X0034929Y0122334D01*
X0034929Y0122536D02*
X0038259Y0122536D01*
X0038259Y0122738D02*
X0034929Y0122738D01*
X0034929Y0122940D02*
X0038259Y0122940D01*
X0038259Y0123142D02*
X0034929Y0123142D01*
X0034929Y0123344D02*
X0038259Y0123344D01*
X0038259Y0123546D02*
X0034929Y0123546D01*
X0034929Y0123748D02*
X0038259Y0123748D01*
X0038259Y0123950D02*
X0034929Y0123950D01*
X0034929Y0124152D02*
X0038259Y0124152D01*
X0038259Y0124354D02*
X0034929Y0124354D01*
X0034929Y0124556D02*
X0038259Y0124556D01*
X0038259Y0124758D02*
X0034929Y0124758D01*
X0029929Y0124796D02*
X0029929Y0119102D01*
X0029929Y0124796D02*
X0033259Y0124796D01*
X0033259Y0119102D01*
X0029929Y0119102D01*
X0029929Y0119304D02*
X0033259Y0119304D01*
X0033259Y0119506D02*
X0029929Y0119506D01*
X0029929Y0119708D02*
X0033259Y0119708D01*
X0033259Y0119910D02*
X0029929Y0119910D01*
X0029929Y0120112D02*
X0033259Y0120112D01*
X0033259Y0120314D02*
X0029929Y0120314D01*
X0029929Y0120516D02*
X0033259Y0120516D01*
X0033259Y0120718D02*
X0029929Y0120718D01*
X0029929Y0120920D02*
X0033259Y0120920D01*
X0033259Y0121122D02*
X0029929Y0121122D01*
X0029929Y0121324D02*
X0033259Y0121324D01*
X0033259Y0121526D02*
X0029929Y0121526D01*
X0029929Y0121728D02*
X0033259Y0121728D01*
X0033259Y0121930D02*
X0029929Y0121930D01*
X0029929Y0122132D02*
X0033259Y0122132D01*
X0033259Y0122334D02*
X0029929Y0122334D01*
X0029929Y0122536D02*
X0033259Y0122536D01*
X0033259Y0122738D02*
X0029929Y0122738D01*
X0029929Y0122940D02*
X0033259Y0122940D01*
X0033259Y0123142D02*
X0029929Y0123142D01*
X0029929Y0123344D02*
X0033259Y0123344D01*
X0033259Y0123546D02*
X0029929Y0123546D01*
X0029929Y0123748D02*
X0033259Y0123748D01*
X0033259Y0123950D02*
X0029929Y0123950D01*
X0029929Y0124152D02*
X0033259Y0124152D01*
X0033259Y0124354D02*
X0029929Y0124354D01*
X0029929Y0124556D02*
X0033259Y0124556D01*
X0033259Y0124758D02*
X0029929Y0124758D01*
X0024929Y0124796D02*
X0024929Y0119102D01*
X0024929Y0124796D02*
X0028259Y0124796D01*
X0028259Y0119102D01*
X0024929Y0119102D01*
X0024929Y0119304D02*
X0028259Y0119304D01*
X0028259Y0119506D02*
X0024929Y0119506D01*
X0024929Y0119708D02*
X0028259Y0119708D01*
X0028259Y0119910D02*
X0024929Y0119910D01*
X0024929Y0120112D02*
X0028259Y0120112D01*
X0028259Y0120314D02*
X0024929Y0120314D01*
X0024929Y0120516D02*
X0028259Y0120516D01*
X0028259Y0120718D02*
X0024929Y0120718D01*
X0024929Y0120920D02*
X0028259Y0120920D01*
X0028259Y0121122D02*
X0024929Y0121122D01*
X0024929Y0121324D02*
X0028259Y0121324D01*
X0028259Y0121526D02*
X0024929Y0121526D01*
X0024929Y0121728D02*
X0028259Y0121728D01*
X0028259Y0121930D02*
X0024929Y0121930D01*
X0024929Y0122132D02*
X0028259Y0122132D01*
X0028259Y0122334D02*
X0024929Y0122334D01*
X0024929Y0122536D02*
X0028259Y0122536D01*
X0028259Y0122738D02*
X0024929Y0122738D01*
X0024929Y0122940D02*
X0028259Y0122940D01*
X0028259Y0123142D02*
X0024929Y0123142D01*
X0024929Y0123344D02*
X0028259Y0123344D01*
X0028259Y0123546D02*
X0024929Y0123546D01*
X0024929Y0123748D02*
X0028259Y0123748D01*
X0028259Y0123950D02*
X0024929Y0123950D01*
X0024929Y0124152D02*
X0028259Y0124152D01*
X0028259Y0124354D02*
X0024929Y0124354D01*
X0024929Y0124556D02*
X0028259Y0124556D01*
X0028259Y0124758D02*
X0024929Y0124758D01*
X0019929Y0124796D02*
X0019929Y0119102D01*
X0019929Y0124796D02*
X0023259Y0124796D01*
X0023259Y0119102D01*
X0019929Y0119102D01*
X0019929Y0119304D02*
X0023259Y0119304D01*
X0023259Y0119506D02*
X0019929Y0119506D01*
X0019929Y0119708D02*
X0023259Y0119708D01*
X0023259Y0119910D02*
X0019929Y0119910D01*
X0019929Y0120112D02*
X0023259Y0120112D01*
X0023259Y0120314D02*
X0019929Y0120314D01*
X0019929Y0120516D02*
X0023259Y0120516D01*
X0023259Y0120718D02*
X0019929Y0120718D01*
X0019929Y0120920D02*
X0023259Y0120920D01*
X0023259Y0121122D02*
X0019929Y0121122D01*
X0019929Y0121324D02*
X0023259Y0121324D01*
X0023259Y0121526D02*
X0019929Y0121526D01*
X0019929Y0121728D02*
X0023259Y0121728D01*
X0023259Y0121930D02*
X0019929Y0121930D01*
X0019929Y0122132D02*
X0023259Y0122132D01*
X0023259Y0122334D02*
X0019929Y0122334D01*
X0019929Y0122536D02*
X0023259Y0122536D01*
X0023259Y0122738D02*
X0019929Y0122738D01*
X0019929Y0122940D02*
X0023259Y0122940D01*
X0023259Y0123142D02*
X0019929Y0123142D01*
X0019929Y0123344D02*
X0023259Y0123344D01*
X0023259Y0123546D02*
X0019929Y0123546D01*
X0019929Y0123748D02*
X0023259Y0123748D01*
X0023259Y0123950D02*
X0019929Y0123950D01*
X0019929Y0124152D02*
X0023259Y0124152D01*
X0023259Y0124354D02*
X0019929Y0124354D01*
X0019929Y0124556D02*
X0023259Y0124556D01*
X0023259Y0124758D02*
X0019929Y0124758D01*
X0019520Y0108335D02*
X0013826Y0108335D01*
X0013826Y0111665D01*
X0019520Y0111665D01*
X0019520Y0108335D01*
X0019520Y0108537D02*
X0013826Y0108537D01*
X0013826Y0108739D02*
X0019520Y0108739D01*
X0019520Y0108941D02*
X0013826Y0108941D01*
X0013826Y0109143D02*
X0019520Y0109143D01*
X0019520Y0109345D02*
X0013826Y0109345D01*
X0013826Y0109547D02*
X0019520Y0109547D01*
X0019520Y0109749D02*
X0013826Y0109749D01*
X0013826Y0109951D02*
X0019520Y0109951D01*
X0019520Y0110153D02*
X0013826Y0110153D01*
X0013826Y0110355D02*
X0019520Y0110355D01*
X0019520Y0110557D02*
X0013826Y0110557D01*
X0013826Y0110759D02*
X0019520Y0110759D01*
X0019520Y0110961D02*
X0013826Y0110961D01*
X0013826Y0111163D02*
X0019520Y0111163D01*
X0019520Y0111365D02*
X0013826Y0111365D01*
X0013826Y0111567D02*
X0019520Y0111567D01*
X0019520Y0103335D02*
X0013826Y0103335D01*
X0013826Y0106665D01*
X0019520Y0106665D01*
X0019520Y0103335D01*
X0019520Y0103537D02*
X0013826Y0103537D01*
X0013826Y0103739D02*
X0019520Y0103739D01*
X0019520Y0103941D02*
X0013826Y0103941D01*
X0013826Y0104143D02*
X0019520Y0104143D01*
X0019520Y0104345D02*
X0013826Y0104345D01*
X0013826Y0104547D02*
X0019520Y0104547D01*
X0019520Y0104749D02*
X0013826Y0104749D01*
X0013826Y0104951D02*
X0019520Y0104951D01*
X0019520Y0105153D02*
X0013826Y0105153D01*
X0013826Y0105355D02*
X0019520Y0105355D01*
X0019520Y0105557D02*
X0013826Y0105557D01*
X0013826Y0105759D02*
X0019520Y0105759D01*
X0019520Y0105961D02*
X0013826Y0105961D01*
X0013826Y0106163D02*
X0019520Y0106163D01*
X0019520Y0106365D02*
X0013826Y0106365D01*
X0013826Y0106567D02*
X0019520Y0106567D01*
X0019520Y0098335D02*
X0013826Y0098335D01*
X0013826Y0101665D01*
X0019520Y0101665D01*
X0019520Y0098335D01*
X0019520Y0098537D02*
X0013826Y0098537D01*
X0013826Y0098739D02*
X0019520Y0098739D01*
X0019520Y0098941D02*
X0013826Y0098941D01*
X0013826Y0099143D02*
X0019520Y0099143D01*
X0019520Y0099345D02*
X0013826Y0099345D01*
X0013826Y0099547D02*
X0019520Y0099547D01*
X0019520Y0099749D02*
X0013826Y0099749D01*
X0013826Y0099951D02*
X0019520Y0099951D01*
X0019520Y0100153D02*
X0013826Y0100153D01*
X0013826Y0100355D02*
X0019520Y0100355D01*
X0019520Y0100557D02*
X0013826Y0100557D01*
X0013826Y0100759D02*
X0019520Y0100759D01*
X0019520Y0100961D02*
X0013826Y0100961D01*
X0013826Y0101163D02*
X0019520Y0101163D01*
X0019520Y0101365D02*
X0013826Y0101365D01*
X0013826Y0101567D02*
X0019520Y0101567D01*
X0019520Y0093335D02*
X0013826Y0093335D01*
X0013826Y0096665D01*
X0019520Y0096665D01*
X0019520Y0093335D01*
X0019520Y0093537D02*
X0013826Y0093537D01*
X0013826Y0093739D02*
X0019520Y0093739D01*
X0019520Y0093941D02*
X0013826Y0093941D01*
X0013826Y0094143D02*
X0019520Y0094143D01*
X0019520Y0094345D02*
X0013826Y0094345D01*
X0013826Y0094547D02*
X0019520Y0094547D01*
X0019520Y0094749D02*
X0013826Y0094749D01*
X0013826Y0094951D02*
X0019520Y0094951D01*
X0019520Y0095153D02*
X0013826Y0095153D01*
X0013826Y0095355D02*
X0019520Y0095355D01*
X0019520Y0095557D02*
X0013826Y0095557D01*
X0013826Y0095759D02*
X0019520Y0095759D01*
X0019520Y0095961D02*
X0013826Y0095961D01*
X0013826Y0096163D02*
X0019520Y0096163D01*
X0019520Y0096365D02*
X0013826Y0096365D01*
X0013826Y0096567D02*
X0019520Y0096567D01*
X0019520Y0088335D02*
X0013826Y0088335D01*
X0013826Y0091665D01*
X0019520Y0091665D01*
X0019520Y0088335D01*
X0019520Y0088537D02*
X0013826Y0088537D01*
X0013826Y0088739D02*
X0019520Y0088739D01*
X0019520Y0088941D02*
X0013826Y0088941D01*
X0013826Y0089143D02*
X0019520Y0089143D01*
X0019520Y0089345D02*
X0013826Y0089345D01*
X0013826Y0089547D02*
X0019520Y0089547D01*
X0019520Y0089749D02*
X0013826Y0089749D01*
X0013826Y0089951D02*
X0019520Y0089951D01*
X0019520Y0090153D02*
X0013826Y0090153D01*
X0013826Y0090355D02*
X0019520Y0090355D01*
X0019520Y0090557D02*
X0013826Y0090557D01*
X0013826Y0090759D02*
X0019520Y0090759D01*
X0019520Y0090961D02*
X0013826Y0090961D01*
X0013826Y0091163D02*
X0019520Y0091163D01*
X0019520Y0091365D02*
X0013826Y0091365D01*
X0013826Y0091567D02*
X0019520Y0091567D01*
X0019520Y0083335D02*
X0013826Y0083335D01*
X0013826Y0086665D01*
X0019520Y0086665D01*
X0019520Y0083335D01*
X0019520Y0083537D02*
X0013826Y0083537D01*
X0013826Y0083739D02*
X0019520Y0083739D01*
X0019520Y0083941D02*
X0013826Y0083941D01*
X0013826Y0084143D02*
X0019520Y0084143D01*
X0019520Y0084345D02*
X0013826Y0084345D01*
X0013826Y0084547D02*
X0019520Y0084547D01*
X0019520Y0084749D02*
X0013826Y0084749D01*
X0013826Y0084951D02*
X0019520Y0084951D01*
X0019520Y0085153D02*
X0013826Y0085153D01*
X0013826Y0085355D02*
X0019520Y0085355D01*
X0019520Y0085557D02*
X0013826Y0085557D01*
X0013826Y0085759D02*
X0019520Y0085759D01*
X0019520Y0085961D02*
X0013826Y0085961D01*
X0013826Y0086163D02*
X0019520Y0086163D01*
X0019520Y0086365D02*
X0013826Y0086365D01*
X0013826Y0086567D02*
X0019520Y0086567D01*
X0019520Y0078335D02*
X0013826Y0078335D01*
X0013826Y0081665D01*
X0019520Y0081665D01*
X0019520Y0078335D01*
X0019520Y0078537D02*
X0013826Y0078537D01*
X0013826Y0078739D02*
X0019520Y0078739D01*
X0019520Y0078941D02*
X0013826Y0078941D01*
X0013826Y0079143D02*
X0019520Y0079143D01*
X0019520Y0079345D02*
X0013826Y0079345D01*
X0013826Y0079547D02*
X0019520Y0079547D01*
X0019520Y0079749D02*
X0013826Y0079749D01*
X0013826Y0079951D02*
X0019520Y0079951D01*
X0019520Y0080153D02*
X0013826Y0080153D01*
X0013826Y0080355D02*
X0019520Y0080355D01*
X0019520Y0080557D02*
X0013826Y0080557D01*
X0013826Y0080759D02*
X0019520Y0080759D01*
X0019520Y0080961D02*
X0013826Y0080961D01*
X0013826Y0081163D02*
X0019520Y0081163D01*
X0019520Y0081365D02*
X0013826Y0081365D01*
X0013826Y0081567D02*
X0019520Y0081567D01*
X0019520Y0073335D02*
X0013826Y0073335D01*
X0013826Y0076665D01*
X0019520Y0076665D01*
X0019520Y0073335D01*
X0019520Y0073537D02*
X0013826Y0073537D01*
X0013826Y0073739D02*
X0019520Y0073739D01*
X0019520Y0073941D02*
X0013826Y0073941D01*
X0013826Y0074143D02*
X0019520Y0074143D01*
X0019520Y0074345D02*
X0013826Y0074345D01*
X0013826Y0074547D02*
X0019520Y0074547D01*
X0019520Y0074749D02*
X0013826Y0074749D01*
X0013826Y0074951D02*
X0019520Y0074951D01*
X0019520Y0075153D02*
X0013826Y0075153D01*
X0013826Y0075355D02*
X0019520Y0075355D01*
X0019520Y0075557D02*
X0013826Y0075557D01*
X0013826Y0075759D02*
X0019520Y0075759D01*
X0019520Y0075961D02*
X0013826Y0075961D01*
X0013826Y0076163D02*
X0019520Y0076163D01*
X0019520Y0076365D02*
X0013826Y0076365D01*
X0013826Y0076567D02*
X0019520Y0076567D01*
X0019520Y0068335D02*
X0013826Y0068335D01*
X0013826Y0071665D01*
X0019520Y0071665D01*
X0019520Y0068335D01*
X0019520Y0068537D02*
X0013826Y0068537D01*
X0013826Y0068739D02*
X0019520Y0068739D01*
X0019520Y0068941D02*
X0013826Y0068941D01*
X0013826Y0069143D02*
X0019520Y0069143D01*
X0019520Y0069345D02*
X0013826Y0069345D01*
X0013826Y0069547D02*
X0019520Y0069547D01*
X0019520Y0069749D02*
X0013826Y0069749D01*
X0013826Y0069951D02*
X0019520Y0069951D01*
X0019520Y0070153D02*
X0013826Y0070153D01*
X0013826Y0070355D02*
X0019520Y0070355D01*
X0019520Y0070557D02*
X0013826Y0070557D01*
X0013826Y0070759D02*
X0019520Y0070759D01*
X0019520Y0070961D02*
X0013826Y0070961D01*
X0013826Y0071163D02*
X0019520Y0071163D01*
X0019520Y0071365D02*
X0013826Y0071365D01*
X0013826Y0071567D02*
X0019520Y0071567D01*
X0019520Y0063335D02*
X0013826Y0063335D01*
X0013826Y0066665D01*
X0019520Y0066665D01*
X0019520Y0063335D01*
X0019520Y0063537D02*
X0013826Y0063537D01*
X0013826Y0063739D02*
X0019520Y0063739D01*
X0019520Y0063941D02*
X0013826Y0063941D01*
X0013826Y0064143D02*
X0019520Y0064143D01*
X0019520Y0064345D02*
X0013826Y0064345D01*
X0013826Y0064547D02*
X0019520Y0064547D01*
X0019520Y0064749D02*
X0013826Y0064749D01*
X0013826Y0064951D02*
X0019520Y0064951D01*
X0019520Y0065153D02*
X0013826Y0065153D01*
X0013826Y0065355D02*
X0019520Y0065355D01*
X0019520Y0065557D02*
X0013826Y0065557D01*
X0013826Y0065759D02*
X0019520Y0065759D01*
X0019520Y0065961D02*
X0013826Y0065961D01*
X0013826Y0066163D02*
X0019520Y0066163D01*
X0019520Y0066365D02*
X0013826Y0066365D01*
X0013826Y0066567D02*
X0019520Y0066567D01*
X0019929Y0055898D02*
X0019929Y0050204D01*
X0019929Y0055898D02*
X0023259Y0055898D01*
X0023259Y0050204D01*
X0019929Y0050204D01*
X0019929Y0050406D02*
X0023259Y0050406D01*
X0023259Y0050608D02*
X0019929Y0050608D01*
X0019929Y0050810D02*
X0023259Y0050810D01*
X0023259Y0051012D02*
X0019929Y0051012D01*
X0019929Y0051214D02*
X0023259Y0051214D01*
X0023259Y0051416D02*
X0019929Y0051416D01*
X0019929Y0051618D02*
X0023259Y0051618D01*
X0023259Y0051820D02*
X0019929Y0051820D01*
X0019929Y0052022D02*
X0023259Y0052022D01*
X0023259Y0052224D02*
X0019929Y0052224D01*
X0019929Y0052426D02*
X0023259Y0052426D01*
X0023259Y0052628D02*
X0019929Y0052628D01*
X0019929Y0052830D02*
X0023259Y0052830D01*
X0023259Y0053032D02*
X0019929Y0053032D01*
X0019929Y0053234D02*
X0023259Y0053234D01*
X0023259Y0053436D02*
X0019929Y0053436D01*
X0019929Y0053638D02*
X0023259Y0053638D01*
X0023259Y0053840D02*
X0019929Y0053840D01*
X0019929Y0054042D02*
X0023259Y0054042D01*
X0023259Y0054244D02*
X0019929Y0054244D01*
X0019929Y0054446D02*
X0023259Y0054446D01*
X0023259Y0054648D02*
X0019929Y0054648D01*
X0019929Y0054850D02*
X0023259Y0054850D01*
X0023259Y0055052D02*
X0019929Y0055052D01*
X0019929Y0055254D02*
X0023259Y0055254D01*
X0023259Y0055456D02*
X0019929Y0055456D01*
X0019929Y0055658D02*
X0023259Y0055658D01*
X0023259Y0055860D02*
X0019929Y0055860D01*
X0024929Y0055898D02*
X0024929Y0050204D01*
X0024929Y0055898D02*
X0028259Y0055898D01*
X0028259Y0050204D01*
X0024929Y0050204D01*
X0024929Y0050406D02*
X0028259Y0050406D01*
X0028259Y0050608D02*
X0024929Y0050608D01*
X0024929Y0050810D02*
X0028259Y0050810D01*
X0028259Y0051012D02*
X0024929Y0051012D01*
X0024929Y0051214D02*
X0028259Y0051214D01*
X0028259Y0051416D02*
X0024929Y0051416D01*
X0024929Y0051618D02*
X0028259Y0051618D01*
X0028259Y0051820D02*
X0024929Y0051820D01*
X0024929Y0052022D02*
X0028259Y0052022D01*
X0028259Y0052224D02*
X0024929Y0052224D01*
X0024929Y0052426D02*
X0028259Y0052426D01*
X0028259Y0052628D02*
X0024929Y0052628D01*
X0024929Y0052830D02*
X0028259Y0052830D01*
X0028259Y0053032D02*
X0024929Y0053032D01*
X0024929Y0053234D02*
X0028259Y0053234D01*
X0028259Y0053436D02*
X0024929Y0053436D01*
X0024929Y0053638D02*
X0028259Y0053638D01*
X0028259Y0053840D02*
X0024929Y0053840D01*
X0024929Y0054042D02*
X0028259Y0054042D01*
X0028259Y0054244D02*
X0024929Y0054244D01*
X0024929Y0054446D02*
X0028259Y0054446D01*
X0028259Y0054648D02*
X0024929Y0054648D01*
X0024929Y0054850D02*
X0028259Y0054850D01*
X0028259Y0055052D02*
X0024929Y0055052D01*
X0024929Y0055254D02*
X0028259Y0055254D01*
X0028259Y0055456D02*
X0024929Y0055456D01*
X0024929Y0055658D02*
X0028259Y0055658D01*
X0028259Y0055860D02*
X0024929Y0055860D01*
X0029929Y0055898D02*
X0029929Y0050204D01*
X0029929Y0055898D02*
X0033259Y0055898D01*
X0033259Y0050204D01*
X0029929Y0050204D01*
X0029929Y0050406D02*
X0033259Y0050406D01*
X0033259Y0050608D02*
X0029929Y0050608D01*
X0029929Y0050810D02*
X0033259Y0050810D01*
X0033259Y0051012D02*
X0029929Y0051012D01*
X0029929Y0051214D02*
X0033259Y0051214D01*
X0033259Y0051416D02*
X0029929Y0051416D01*
X0029929Y0051618D02*
X0033259Y0051618D01*
X0033259Y0051820D02*
X0029929Y0051820D01*
X0029929Y0052022D02*
X0033259Y0052022D01*
X0033259Y0052224D02*
X0029929Y0052224D01*
X0029929Y0052426D02*
X0033259Y0052426D01*
X0033259Y0052628D02*
X0029929Y0052628D01*
X0029929Y0052830D02*
X0033259Y0052830D01*
X0033259Y0053032D02*
X0029929Y0053032D01*
X0029929Y0053234D02*
X0033259Y0053234D01*
X0033259Y0053436D02*
X0029929Y0053436D01*
X0029929Y0053638D02*
X0033259Y0053638D01*
X0033259Y0053840D02*
X0029929Y0053840D01*
X0029929Y0054042D02*
X0033259Y0054042D01*
X0033259Y0054244D02*
X0029929Y0054244D01*
X0029929Y0054446D02*
X0033259Y0054446D01*
X0033259Y0054648D02*
X0029929Y0054648D01*
X0029929Y0054850D02*
X0033259Y0054850D01*
X0033259Y0055052D02*
X0029929Y0055052D01*
X0029929Y0055254D02*
X0033259Y0055254D01*
X0033259Y0055456D02*
X0029929Y0055456D01*
X0029929Y0055658D02*
X0033259Y0055658D01*
X0033259Y0055860D02*
X0029929Y0055860D01*
X0034929Y0055898D02*
X0034929Y0050204D01*
X0034929Y0055898D02*
X0038259Y0055898D01*
X0038259Y0050204D01*
X0034929Y0050204D01*
X0034929Y0050406D02*
X0038259Y0050406D01*
X0038259Y0050608D02*
X0034929Y0050608D01*
X0034929Y0050810D02*
X0038259Y0050810D01*
X0038259Y0051012D02*
X0034929Y0051012D01*
X0034929Y0051214D02*
X0038259Y0051214D01*
X0038259Y0051416D02*
X0034929Y0051416D01*
X0034929Y0051618D02*
X0038259Y0051618D01*
X0038259Y0051820D02*
X0034929Y0051820D01*
X0034929Y0052022D02*
X0038259Y0052022D01*
X0038259Y0052224D02*
X0034929Y0052224D01*
X0034929Y0052426D02*
X0038259Y0052426D01*
X0038259Y0052628D02*
X0034929Y0052628D01*
X0034929Y0052830D02*
X0038259Y0052830D01*
X0038259Y0053032D02*
X0034929Y0053032D01*
X0034929Y0053234D02*
X0038259Y0053234D01*
X0038259Y0053436D02*
X0034929Y0053436D01*
X0034929Y0053638D02*
X0038259Y0053638D01*
X0038259Y0053840D02*
X0034929Y0053840D01*
X0034929Y0054042D02*
X0038259Y0054042D01*
X0038259Y0054244D02*
X0034929Y0054244D01*
X0034929Y0054446D02*
X0038259Y0054446D01*
X0038259Y0054648D02*
X0034929Y0054648D01*
X0034929Y0054850D02*
X0038259Y0054850D01*
X0038259Y0055052D02*
X0034929Y0055052D01*
X0034929Y0055254D02*
X0038259Y0055254D01*
X0038259Y0055456D02*
X0034929Y0055456D01*
X0034929Y0055658D02*
X0038259Y0055658D01*
X0038259Y0055860D02*
X0034929Y0055860D01*
X0039929Y0055898D02*
X0039929Y0050204D01*
X0039929Y0055898D02*
X0043259Y0055898D01*
X0043259Y0050204D01*
X0039929Y0050204D01*
X0039929Y0050406D02*
X0043259Y0050406D01*
X0043259Y0050608D02*
X0039929Y0050608D01*
X0039929Y0050810D02*
X0043259Y0050810D01*
X0043259Y0051012D02*
X0039929Y0051012D01*
X0039929Y0051214D02*
X0043259Y0051214D01*
X0043259Y0051416D02*
X0039929Y0051416D01*
X0039929Y0051618D02*
X0043259Y0051618D01*
X0043259Y0051820D02*
X0039929Y0051820D01*
X0039929Y0052022D02*
X0043259Y0052022D01*
X0043259Y0052224D02*
X0039929Y0052224D01*
X0039929Y0052426D02*
X0043259Y0052426D01*
X0043259Y0052628D02*
X0039929Y0052628D01*
X0039929Y0052830D02*
X0043259Y0052830D01*
X0043259Y0053032D02*
X0039929Y0053032D01*
X0039929Y0053234D02*
X0043259Y0053234D01*
X0043259Y0053436D02*
X0039929Y0053436D01*
X0039929Y0053638D02*
X0043259Y0053638D01*
X0043259Y0053840D02*
X0039929Y0053840D01*
X0039929Y0054042D02*
X0043259Y0054042D01*
X0043259Y0054244D02*
X0039929Y0054244D01*
X0039929Y0054446D02*
X0043259Y0054446D01*
X0043259Y0054648D02*
X0039929Y0054648D01*
X0039929Y0054850D02*
X0043259Y0054850D01*
X0043259Y0055052D02*
X0039929Y0055052D01*
X0039929Y0055254D02*
X0043259Y0055254D01*
X0043259Y0055456D02*
X0039929Y0055456D01*
X0039929Y0055658D02*
X0043259Y0055658D01*
X0043259Y0055860D02*
X0039929Y0055860D01*
X0044929Y0055898D02*
X0044929Y0050204D01*
X0044929Y0055898D02*
X0048259Y0055898D01*
X0048259Y0050204D01*
X0044929Y0050204D01*
X0044929Y0050406D02*
X0048259Y0050406D01*
X0048259Y0050608D02*
X0044929Y0050608D01*
X0044929Y0050810D02*
X0048259Y0050810D01*
X0048259Y0051012D02*
X0044929Y0051012D01*
X0044929Y0051214D02*
X0048259Y0051214D01*
X0048259Y0051416D02*
X0044929Y0051416D01*
X0044929Y0051618D02*
X0048259Y0051618D01*
X0048259Y0051820D02*
X0044929Y0051820D01*
X0044929Y0052022D02*
X0048259Y0052022D01*
X0048259Y0052224D02*
X0044929Y0052224D01*
X0044929Y0052426D02*
X0048259Y0052426D01*
X0048259Y0052628D02*
X0044929Y0052628D01*
X0044929Y0052830D02*
X0048259Y0052830D01*
X0048259Y0053032D02*
X0044929Y0053032D01*
X0044929Y0053234D02*
X0048259Y0053234D01*
X0048259Y0053436D02*
X0044929Y0053436D01*
X0044929Y0053638D02*
X0048259Y0053638D01*
X0048259Y0053840D02*
X0044929Y0053840D01*
X0044929Y0054042D02*
X0048259Y0054042D01*
X0048259Y0054244D02*
X0044929Y0054244D01*
X0044929Y0054446D02*
X0048259Y0054446D01*
X0048259Y0054648D02*
X0044929Y0054648D01*
X0044929Y0054850D02*
X0048259Y0054850D01*
X0048259Y0055052D02*
X0044929Y0055052D01*
X0044929Y0055254D02*
X0048259Y0055254D01*
X0048259Y0055456D02*
X0044929Y0055456D01*
X0044929Y0055658D02*
X0048259Y0055658D01*
X0048259Y0055860D02*
X0044929Y0055860D01*
X0049929Y0055898D02*
X0049929Y0050204D01*
X0049929Y0055898D02*
X0053259Y0055898D01*
X0053259Y0050204D01*
X0049929Y0050204D01*
X0049929Y0050406D02*
X0053259Y0050406D01*
X0053259Y0050608D02*
X0049929Y0050608D01*
X0049929Y0050810D02*
X0053259Y0050810D01*
X0053259Y0051012D02*
X0049929Y0051012D01*
X0049929Y0051214D02*
X0053259Y0051214D01*
X0053259Y0051416D02*
X0049929Y0051416D01*
X0049929Y0051618D02*
X0053259Y0051618D01*
X0053259Y0051820D02*
X0049929Y0051820D01*
X0049929Y0052022D02*
X0053259Y0052022D01*
X0053259Y0052224D02*
X0049929Y0052224D01*
X0049929Y0052426D02*
X0053259Y0052426D01*
X0053259Y0052628D02*
X0049929Y0052628D01*
X0049929Y0052830D02*
X0053259Y0052830D01*
X0053259Y0053032D02*
X0049929Y0053032D01*
X0049929Y0053234D02*
X0053259Y0053234D01*
X0053259Y0053436D02*
X0049929Y0053436D01*
X0049929Y0053638D02*
X0053259Y0053638D01*
X0053259Y0053840D02*
X0049929Y0053840D01*
X0049929Y0054042D02*
X0053259Y0054042D01*
X0053259Y0054244D02*
X0049929Y0054244D01*
X0049929Y0054446D02*
X0053259Y0054446D01*
X0053259Y0054648D02*
X0049929Y0054648D01*
X0049929Y0054850D02*
X0053259Y0054850D01*
X0053259Y0055052D02*
X0049929Y0055052D01*
X0049929Y0055254D02*
X0053259Y0055254D01*
X0053259Y0055456D02*
X0049929Y0055456D01*
X0049929Y0055658D02*
X0053259Y0055658D01*
X0053259Y0055860D02*
X0049929Y0055860D01*
X0054929Y0055898D02*
X0054929Y0050204D01*
X0054929Y0055898D02*
X0058259Y0055898D01*
X0058259Y0050204D01*
X0054929Y0050204D01*
X0054929Y0050406D02*
X0058259Y0050406D01*
X0058259Y0050608D02*
X0054929Y0050608D01*
X0054929Y0050810D02*
X0058259Y0050810D01*
X0058259Y0051012D02*
X0054929Y0051012D01*
X0054929Y0051214D02*
X0058259Y0051214D01*
X0058259Y0051416D02*
X0054929Y0051416D01*
X0054929Y0051618D02*
X0058259Y0051618D01*
X0058259Y0051820D02*
X0054929Y0051820D01*
X0054929Y0052022D02*
X0058259Y0052022D01*
X0058259Y0052224D02*
X0054929Y0052224D01*
X0054929Y0052426D02*
X0058259Y0052426D01*
X0058259Y0052628D02*
X0054929Y0052628D01*
X0054929Y0052830D02*
X0058259Y0052830D01*
X0058259Y0053032D02*
X0054929Y0053032D01*
X0054929Y0053234D02*
X0058259Y0053234D01*
X0058259Y0053436D02*
X0054929Y0053436D01*
X0054929Y0053638D02*
X0058259Y0053638D01*
X0058259Y0053840D02*
X0054929Y0053840D01*
X0054929Y0054042D02*
X0058259Y0054042D01*
X0058259Y0054244D02*
X0054929Y0054244D01*
X0054929Y0054446D02*
X0058259Y0054446D01*
X0058259Y0054648D02*
X0054929Y0054648D01*
X0054929Y0054850D02*
X0058259Y0054850D01*
X0058259Y0055052D02*
X0054929Y0055052D01*
X0054929Y0055254D02*
X0058259Y0055254D01*
X0058259Y0055456D02*
X0054929Y0055456D01*
X0054929Y0055658D02*
X0058259Y0055658D01*
X0058259Y0055860D02*
X0054929Y0055860D01*
X0059929Y0055898D02*
X0059929Y0050204D01*
X0059929Y0055898D02*
X0063259Y0055898D01*
X0063259Y0050204D01*
X0059929Y0050204D01*
X0059929Y0050406D02*
X0063259Y0050406D01*
X0063259Y0050608D02*
X0059929Y0050608D01*
X0059929Y0050810D02*
X0063259Y0050810D01*
X0063259Y0051012D02*
X0059929Y0051012D01*
X0059929Y0051214D02*
X0063259Y0051214D01*
X0063259Y0051416D02*
X0059929Y0051416D01*
X0059929Y0051618D02*
X0063259Y0051618D01*
X0063259Y0051820D02*
X0059929Y0051820D01*
X0059929Y0052022D02*
X0063259Y0052022D01*
X0063259Y0052224D02*
X0059929Y0052224D01*
X0059929Y0052426D02*
X0063259Y0052426D01*
X0063259Y0052628D02*
X0059929Y0052628D01*
X0059929Y0052830D02*
X0063259Y0052830D01*
X0063259Y0053032D02*
X0059929Y0053032D01*
X0059929Y0053234D02*
X0063259Y0053234D01*
X0063259Y0053436D02*
X0059929Y0053436D01*
X0059929Y0053638D02*
X0063259Y0053638D01*
X0063259Y0053840D02*
X0059929Y0053840D01*
X0059929Y0054042D02*
X0063259Y0054042D01*
X0063259Y0054244D02*
X0059929Y0054244D01*
X0059929Y0054446D02*
X0063259Y0054446D01*
X0063259Y0054648D02*
X0059929Y0054648D01*
X0059929Y0054850D02*
X0063259Y0054850D01*
X0063259Y0055052D02*
X0059929Y0055052D01*
X0059929Y0055254D02*
X0063259Y0055254D01*
X0063259Y0055456D02*
X0059929Y0055456D01*
X0059929Y0055658D02*
X0063259Y0055658D01*
X0063259Y0055860D02*
X0059929Y0055860D01*
X0064929Y0055898D02*
X0064929Y0050204D01*
X0064929Y0055898D02*
X0068259Y0055898D01*
X0068259Y0050204D01*
X0064929Y0050204D01*
X0064929Y0050406D02*
X0068259Y0050406D01*
X0068259Y0050608D02*
X0064929Y0050608D01*
X0064929Y0050810D02*
X0068259Y0050810D01*
X0068259Y0051012D02*
X0064929Y0051012D01*
X0064929Y0051214D02*
X0068259Y0051214D01*
X0068259Y0051416D02*
X0064929Y0051416D01*
X0064929Y0051618D02*
X0068259Y0051618D01*
X0068259Y0051820D02*
X0064929Y0051820D01*
X0064929Y0052022D02*
X0068259Y0052022D01*
X0068259Y0052224D02*
X0064929Y0052224D01*
X0064929Y0052426D02*
X0068259Y0052426D01*
X0068259Y0052628D02*
X0064929Y0052628D01*
X0064929Y0052830D02*
X0068259Y0052830D01*
X0068259Y0053032D02*
X0064929Y0053032D01*
X0064929Y0053234D02*
X0068259Y0053234D01*
X0068259Y0053436D02*
X0064929Y0053436D01*
X0064929Y0053638D02*
X0068259Y0053638D01*
X0068259Y0053840D02*
X0064929Y0053840D01*
X0064929Y0054042D02*
X0068259Y0054042D01*
X0068259Y0054244D02*
X0064929Y0054244D01*
X0064929Y0054446D02*
X0068259Y0054446D01*
X0068259Y0054648D02*
X0064929Y0054648D01*
X0064929Y0054850D02*
X0068259Y0054850D01*
X0068259Y0055052D02*
X0064929Y0055052D01*
X0064929Y0055254D02*
X0068259Y0055254D01*
X0068259Y0055456D02*
X0064929Y0055456D01*
X0064929Y0055658D02*
X0068259Y0055658D01*
X0068259Y0055860D02*
X0064929Y0055860D01*
X0069929Y0055898D02*
X0069929Y0050204D01*
X0069929Y0055898D02*
X0073259Y0055898D01*
X0073259Y0050204D01*
X0069929Y0050204D01*
X0069929Y0050406D02*
X0073259Y0050406D01*
X0073259Y0050608D02*
X0069929Y0050608D01*
X0069929Y0050810D02*
X0073259Y0050810D01*
X0073259Y0051012D02*
X0069929Y0051012D01*
X0069929Y0051214D02*
X0073259Y0051214D01*
X0073259Y0051416D02*
X0069929Y0051416D01*
X0069929Y0051618D02*
X0073259Y0051618D01*
X0073259Y0051820D02*
X0069929Y0051820D01*
X0069929Y0052022D02*
X0073259Y0052022D01*
X0073259Y0052224D02*
X0069929Y0052224D01*
X0069929Y0052426D02*
X0073259Y0052426D01*
X0073259Y0052628D02*
X0069929Y0052628D01*
X0069929Y0052830D02*
X0073259Y0052830D01*
X0073259Y0053032D02*
X0069929Y0053032D01*
X0069929Y0053234D02*
X0073259Y0053234D01*
X0073259Y0053436D02*
X0069929Y0053436D01*
X0069929Y0053638D02*
X0073259Y0053638D01*
X0073259Y0053840D02*
X0069929Y0053840D01*
X0069929Y0054042D02*
X0073259Y0054042D01*
X0073259Y0054244D02*
X0069929Y0054244D01*
X0069929Y0054446D02*
X0073259Y0054446D01*
X0073259Y0054648D02*
X0069929Y0054648D01*
X0069929Y0054850D02*
X0073259Y0054850D01*
X0073259Y0055052D02*
X0069929Y0055052D01*
X0069929Y0055254D02*
X0073259Y0055254D01*
X0073259Y0055456D02*
X0069929Y0055456D01*
X0069929Y0055658D02*
X0073259Y0055658D01*
X0073259Y0055860D02*
X0069929Y0055860D01*
X0074929Y0055898D02*
X0074929Y0050204D01*
X0074929Y0055898D02*
X0078259Y0055898D01*
X0078259Y0050204D01*
X0074929Y0050204D01*
X0074929Y0050406D02*
X0078259Y0050406D01*
X0078259Y0050608D02*
X0074929Y0050608D01*
X0074929Y0050810D02*
X0078259Y0050810D01*
X0078259Y0051012D02*
X0074929Y0051012D01*
X0074929Y0051214D02*
X0078259Y0051214D01*
X0078259Y0051416D02*
X0074929Y0051416D01*
X0074929Y0051618D02*
X0078259Y0051618D01*
X0078259Y0051820D02*
X0074929Y0051820D01*
X0074929Y0052022D02*
X0078259Y0052022D01*
X0078259Y0052224D02*
X0074929Y0052224D01*
X0074929Y0052426D02*
X0078259Y0052426D01*
X0078259Y0052628D02*
X0074929Y0052628D01*
X0074929Y0052830D02*
X0078259Y0052830D01*
X0078259Y0053032D02*
X0074929Y0053032D01*
X0074929Y0053234D02*
X0078259Y0053234D01*
X0078259Y0053436D02*
X0074929Y0053436D01*
X0074929Y0053638D02*
X0078259Y0053638D01*
X0078259Y0053840D02*
X0074929Y0053840D01*
X0074929Y0054042D02*
X0078259Y0054042D01*
X0078259Y0054244D02*
X0074929Y0054244D01*
X0074929Y0054446D02*
X0078259Y0054446D01*
X0078259Y0054648D02*
X0074929Y0054648D01*
X0074929Y0054850D02*
X0078259Y0054850D01*
X0078259Y0055052D02*
X0074929Y0055052D01*
X0074929Y0055254D02*
X0078259Y0055254D01*
X0078259Y0055456D02*
X0074929Y0055456D01*
X0074929Y0055658D02*
X0078259Y0055658D01*
X0078259Y0055860D02*
X0074929Y0055860D01*
X0079929Y0055898D02*
X0079929Y0050204D01*
X0079929Y0055898D02*
X0083259Y0055898D01*
X0083259Y0050204D01*
X0079929Y0050204D01*
X0079929Y0050406D02*
X0083259Y0050406D01*
X0083259Y0050608D02*
X0079929Y0050608D01*
X0079929Y0050810D02*
X0083259Y0050810D01*
X0083259Y0051012D02*
X0079929Y0051012D01*
X0079929Y0051214D02*
X0083259Y0051214D01*
X0083259Y0051416D02*
X0079929Y0051416D01*
X0079929Y0051618D02*
X0083259Y0051618D01*
X0083259Y0051820D02*
X0079929Y0051820D01*
X0079929Y0052022D02*
X0083259Y0052022D01*
X0083259Y0052224D02*
X0079929Y0052224D01*
X0079929Y0052426D02*
X0083259Y0052426D01*
X0083259Y0052628D02*
X0079929Y0052628D01*
X0079929Y0052830D02*
X0083259Y0052830D01*
X0083259Y0053032D02*
X0079929Y0053032D01*
X0079929Y0053234D02*
X0083259Y0053234D01*
X0083259Y0053436D02*
X0079929Y0053436D01*
X0079929Y0053638D02*
X0083259Y0053638D01*
X0083259Y0053840D02*
X0079929Y0053840D01*
X0079929Y0054042D02*
X0083259Y0054042D01*
X0083259Y0054244D02*
X0079929Y0054244D01*
X0079929Y0054446D02*
X0083259Y0054446D01*
X0083259Y0054648D02*
X0079929Y0054648D01*
X0079929Y0054850D02*
X0083259Y0054850D01*
X0083259Y0055052D02*
X0079929Y0055052D01*
X0079929Y0055254D02*
X0083259Y0055254D01*
X0083259Y0055456D02*
X0079929Y0055456D01*
X0079929Y0055658D02*
X0083259Y0055658D01*
X0083259Y0055860D02*
X0079929Y0055860D01*
X0084929Y0055898D02*
X0084929Y0050204D01*
X0084929Y0055898D02*
X0088259Y0055898D01*
X0088259Y0050204D01*
X0084929Y0050204D01*
X0084929Y0050406D02*
X0088259Y0050406D01*
X0088259Y0050608D02*
X0084929Y0050608D01*
X0084929Y0050810D02*
X0088259Y0050810D01*
X0088259Y0051012D02*
X0084929Y0051012D01*
X0084929Y0051214D02*
X0088259Y0051214D01*
X0088259Y0051416D02*
X0084929Y0051416D01*
X0084929Y0051618D02*
X0088259Y0051618D01*
X0088259Y0051820D02*
X0084929Y0051820D01*
X0084929Y0052022D02*
X0088259Y0052022D01*
X0088259Y0052224D02*
X0084929Y0052224D01*
X0084929Y0052426D02*
X0088259Y0052426D01*
X0088259Y0052628D02*
X0084929Y0052628D01*
X0084929Y0052830D02*
X0088259Y0052830D01*
X0088259Y0053032D02*
X0084929Y0053032D01*
X0084929Y0053234D02*
X0088259Y0053234D01*
X0088259Y0053436D02*
X0084929Y0053436D01*
X0084929Y0053638D02*
X0088259Y0053638D01*
X0088259Y0053840D02*
X0084929Y0053840D01*
X0084929Y0054042D02*
X0088259Y0054042D01*
X0088259Y0054244D02*
X0084929Y0054244D01*
X0084929Y0054446D02*
X0088259Y0054446D01*
X0088259Y0054648D02*
X0084929Y0054648D01*
X0084929Y0054850D02*
X0088259Y0054850D01*
X0088259Y0055052D02*
X0084929Y0055052D01*
X0084929Y0055254D02*
X0088259Y0055254D01*
X0088259Y0055456D02*
X0084929Y0055456D01*
X0084929Y0055658D02*
X0088259Y0055658D01*
X0088259Y0055860D02*
X0084929Y0055860D01*
X0064874Y0086229D02*
X0061544Y0086229D01*
X0061544Y0089559D01*
X0064874Y0089559D01*
X0064874Y0086229D01*
X0064874Y0086431D02*
X0061544Y0086431D01*
X0061544Y0086633D02*
X0064874Y0086633D01*
X0064874Y0086835D02*
X0061544Y0086835D01*
X0061544Y0087037D02*
X0064874Y0087037D01*
X0064874Y0087239D02*
X0061544Y0087239D01*
X0061544Y0087441D02*
X0064874Y0087441D01*
X0064874Y0087643D02*
X0061544Y0087643D01*
X0061544Y0087845D02*
X0064874Y0087845D01*
X0064874Y0088047D02*
X0061544Y0088047D01*
X0061544Y0088249D02*
X0064874Y0088249D01*
X0064874Y0088451D02*
X0061544Y0088451D01*
X0061544Y0088653D02*
X0064874Y0088653D01*
X0064874Y0088855D02*
X0061544Y0088855D01*
X0061544Y0089057D02*
X0064874Y0089057D01*
X0064874Y0089259D02*
X0061544Y0089259D01*
X0061544Y0089461D02*
X0064874Y0089461D01*
X0064874Y0091741D02*
X0061544Y0091741D01*
X0061544Y0095071D01*
X0064874Y0095071D01*
X0064874Y0091741D01*
X0064874Y0091943D02*
X0061544Y0091943D01*
X0061544Y0092145D02*
X0064874Y0092145D01*
X0064874Y0092347D02*
X0061544Y0092347D01*
X0061544Y0092549D02*
X0064874Y0092549D01*
X0064874Y0092751D02*
X0061544Y0092751D01*
X0061544Y0092953D02*
X0064874Y0092953D01*
X0064874Y0093155D02*
X0061544Y0093155D01*
X0061544Y0093357D02*
X0064874Y0093357D01*
X0064874Y0093559D02*
X0061544Y0093559D01*
X0061544Y0093761D02*
X0064874Y0093761D01*
X0064874Y0093963D02*
X0061544Y0093963D01*
X0061544Y0094165D02*
X0064874Y0094165D01*
X0064874Y0094367D02*
X0061544Y0094367D01*
X0061544Y0094569D02*
X0064874Y0094569D01*
X0064874Y0094771D02*
X0061544Y0094771D01*
X0061544Y0094973D02*
X0064874Y0094973D01*
X0064874Y0097252D02*
X0061544Y0097252D01*
X0061544Y0100582D01*
X0064874Y0100582D01*
X0064874Y0097252D01*
X0064874Y0097454D02*
X0061544Y0097454D01*
X0061544Y0097656D02*
X0064874Y0097656D01*
X0064874Y0097858D02*
X0061544Y0097858D01*
X0061544Y0098060D02*
X0064874Y0098060D01*
X0064874Y0098262D02*
X0061544Y0098262D01*
X0061544Y0098464D02*
X0064874Y0098464D01*
X0064874Y0098666D02*
X0061544Y0098666D01*
X0061544Y0098868D02*
X0064874Y0098868D01*
X0064874Y0099070D02*
X0061544Y0099070D01*
X0061544Y0099272D02*
X0064874Y0099272D01*
X0064874Y0099474D02*
X0061544Y0099474D01*
X0061544Y0099676D02*
X0064874Y0099676D01*
X0064874Y0099878D02*
X0061544Y0099878D01*
X0061544Y0100080D02*
X0064874Y0100080D01*
X0064874Y0100282D02*
X0061544Y0100282D01*
X0061544Y0100484D02*
X0064874Y0100484D01*
X0059362Y0097252D02*
X0056032Y0097252D01*
X0056032Y0100582D01*
X0059362Y0100582D01*
X0059362Y0097252D01*
X0059362Y0097454D02*
X0056032Y0097454D01*
X0056032Y0097656D02*
X0059362Y0097656D01*
X0059362Y0097858D02*
X0056032Y0097858D01*
X0056032Y0098060D02*
X0059362Y0098060D01*
X0059362Y0098262D02*
X0056032Y0098262D01*
X0056032Y0098464D02*
X0059362Y0098464D01*
X0059362Y0098666D02*
X0056032Y0098666D01*
X0056032Y0098868D02*
X0059362Y0098868D01*
X0059362Y0099070D02*
X0056032Y0099070D01*
X0056032Y0099272D02*
X0059362Y0099272D01*
X0059362Y0099474D02*
X0056032Y0099474D01*
X0056032Y0099676D02*
X0059362Y0099676D01*
X0059362Y0099878D02*
X0056032Y0099878D01*
X0056032Y0100080D02*
X0059362Y0100080D01*
X0059362Y0100282D02*
X0056032Y0100282D01*
X0056032Y0100484D02*
X0059362Y0100484D01*
X0059362Y0091741D02*
X0056032Y0091741D01*
X0056032Y0095071D01*
X0059362Y0095071D01*
X0059362Y0091741D01*
X0059362Y0091943D02*
X0056032Y0091943D01*
X0056032Y0092145D02*
X0059362Y0092145D01*
X0059362Y0092347D02*
X0056032Y0092347D01*
X0056032Y0092549D02*
X0059362Y0092549D01*
X0059362Y0092751D02*
X0056032Y0092751D01*
X0056032Y0092953D02*
X0059362Y0092953D01*
X0059362Y0093155D02*
X0056032Y0093155D01*
X0056032Y0093357D02*
X0059362Y0093357D01*
X0059362Y0093559D02*
X0056032Y0093559D01*
X0056032Y0093761D02*
X0059362Y0093761D01*
X0059362Y0093963D02*
X0056032Y0093963D01*
X0056032Y0094165D02*
X0059362Y0094165D01*
X0059362Y0094367D02*
X0056032Y0094367D01*
X0056032Y0094569D02*
X0059362Y0094569D01*
X0059362Y0094771D02*
X0056032Y0094771D01*
X0056032Y0094973D02*
X0059362Y0094973D01*
X0059362Y0086229D02*
X0056032Y0086229D01*
X0056032Y0089559D01*
X0059362Y0089559D01*
X0059362Y0086229D01*
X0059362Y0086431D02*
X0056032Y0086431D01*
X0056032Y0086633D02*
X0059362Y0086633D01*
X0059362Y0086835D02*
X0056032Y0086835D01*
X0056032Y0087037D02*
X0059362Y0087037D01*
X0059362Y0087239D02*
X0056032Y0087239D01*
X0056032Y0087441D02*
X0059362Y0087441D01*
X0059362Y0087643D02*
X0056032Y0087643D01*
X0056032Y0087845D02*
X0059362Y0087845D01*
X0059362Y0088047D02*
X0056032Y0088047D01*
X0056032Y0088249D02*
X0059362Y0088249D01*
X0059362Y0088451D02*
X0056032Y0088451D01*
X0056032Y0088653D02*
X0059362Y0088653D01*
X0059362Y0088855D02*
X0056032Y0088855D01*
X0056032Y0089057D02*
X0059362Y0089057D01*
X0059362Y0089259D02*
X0056032Y0089259D01*
X0056032Y0089461D02*
X0059362Y0089461D01*
X0053850Y0086229D02*
X0050520Y0086229D01*
X0050520Y0089559D01*
X0053850Y0089559D01*
X0053850Y0086229D01*
X0053850Y0086431D02*
X0050520Y0086431D01*
X0050520Y0086633D02*
X0053850Y0086633D01*
X0053850Y0086835D02*
X0050520Y0086835D01*
X0050520Y0087037D02*
X0053850Y0087037D01*
X0053850Y0087239D02*
X0050520Y0087239D01*
X0050520Y0087441D02*
X0053850Y0087441D01*
X0053850Y0087643D02*
X0050520Y0087643D01*
X0050520Y0087845D02*
X0053850Y0087845D01*
X0053850Y0088047D02*
X0050520Y0088047D01*
X0050520Y0088249D02*
X0053850Y0088249D01*
X0053850Y0088451D02*
X0050520Y0088451D01*
X0050520Y0088653D02*
X0053850Y0088653D01*
X0053850Y0088855D02*
X0050520Y0088855D01*
X0050520Y0089057D02*
X0053850Y0089057D01*
X0053850Y0089259D02*
X0050520Y0089259D01*
X0050520Y0089461D02*
X0053850Y0089461D01*
X0053850Y0091741D02*
X0050520Y0091741D01*
X0050520Y0095071D01*
X0053850Y0095071D01*
X0053850Y0091741D01*
X0053850Y0091943D02*
X0050520Y0091943D01*
X0050520Y0092145D02*
X0053850Y0092145D01*
X0053850Y0092347D02*
X0050520Y0092347D01*
X0050520Y0092549D02*
X0053850Y0092549D01*
X0053850Y0092751D02*
X0050520Y0092751D01*
X0050520Y0092953D02*
X0053850Y0092953D01*
X0053850Y0093155D02*
X0050520Y0093155D01*
X0050520Y0093357D02*
X0053850Y0093357D01*
X0053850Y0093559D02*
X0050520Y0093559D01*
X0050520Y0093761D02*
X0053850Y0093761D01*
X0053850Y0093963D02*
X0050520Y0093963D01*
X0050520Y0094165D02*
X0053850Y0094165D01*
X0053850Y0094367D02*
X0050520Y0094367D01*
X0050520Y0094569D02*
X0053850Y0094569D01*
X0053850Y0094771D02*
X0050520Y0094771D01*
X0050520Y0094973D02*
X0053850Y0094973D01*
X0053850Y0097252D02*
X0050520Y0097252D01*
X0050520Y0100582D01*
X0053850Y0100582D01*
X0053850Y0097252D01*
X0053850Y0097454D02*
X0050520Y0097454D01*
X0050520Y0097656D02*
X0053850Y0097656D01*
X0053850Y0097858D02*
X0050520Y0097858D01*
X0050520Y0098060D02*
X0053850Y0098060D01*
X0053850Y0098262D02*
X0050520Y0098262D01*
X0050520Y0098464D02*
X0053850Y0098464D01*
X0053850Y0098666D02*
X0050520Y0098666D01*
X0050520Y0098868D02*
X0053850Y0098868D01*
X0053850Y0099070D02*
X0050520Y0099070D01*
X0050520Y0099272D02*
X0053850Y0099272D01*
X0053850Y0099474D02*
X0050520Y0099474D01*
X0050520Y0099676D02*
X0053850Y0099676D01*
X0053850Y0099878D02*
X0050520Y0099878D01*
X0050520Y0100080D02*
X0053850Y0100080D01*
X0053850Y0100282D02*
X0050520Y0100282D01*
X0050520Y0100484D02*
X0053850Y0100484D01*
X0084929Y0119102D02*
X0084929Y0124796D01*
X0088259Y0124796D01*
X0088259Y0119102D01*
X0084929Y0119102D01*
X0084929Y0119304D02*
X0088259Y0119304D01*
X0088259Y0119506D02*
X0084929Y0119506D01*
X0084929Y0119708D02*
X0088259Y0119708D01*
X0088259Y0119910D02*
X0084929Y0119910D01*
X0084929Y0120112D02*
X0088259Y0120112D01*
X0088259Y0120314D02*
X0084929Y0120314D01*
X0084929Y0120516D02*
X0088259Y0120516D01*
X0088259Y0120718D02*
X0084929Y0120718D01*
X0084929Y0120920D02*
X0088259Y0120920D01*
X0088259Y0121122D02*
X0084929Y0121122D01*
X0084929Y0121324D02*
X0088259Y0121324D01*
X0088259Y0121526D02*
X0084929Y0121526D01*
X0084929Y0121728D02*
X0088259Y0121728D01*
X0088259Y0121930D02*
X0084929Y0121930D01*
X0084929Y0122132D02*
X0088259Y0122132D01*
X0088259Y0122334D02*
X0084929Y0122334D01*
X0084929Y0122536D02*
X0088259Y0122536D01*
X0088259Y0122738D02*
X0084929Y0122738D01*
X0084929Y0122940D02*
X0088259Y0122940D01*
X0088259Y0123142D02*
X0084929Y0123142D01*
X0084929Y0123344D02*
X0088259Y0123344D01*
X0088259Y0123546D02*
X0084929Y0123546D01*
X0084929Y0123748D02*
X0088259Y0123748D01*
X0088259Y0123950D02*
X0084929Y0123950D01*
X0084929Y0124152D02*
X0088259Y0124152D01*
X0088259Y0124354D02*
X0084929Y0124354D01*
X0084929Y0124556D02*
X0088259Y0124556D01*
X0088259Y0124758D02*
X0084929Y0124758D01*
D19*
X0048000Y0164319D02*
X0044854Y0164319D01*
X0048000Y0164319D02*
X0048000Y0163339D01*
X0044854Y0163339D01*
X0044854Y0164319D01*
X0044854Y0163530D02*
X0048000Y0163530D01*
X0048000Y0163721D02*
X0044854Y0163721D01*
X0044854Y0163912D02*
X0048000Y0163912D01*
X0048000Y0164103D02*
X0044854Y0164103D01*
X0044854Y0164294D02*
X0048000Y0164294D01*
X0048000Y0166287D02*
X0044854Y0166287D01*
X0048000Y0166287D02*
X0048000Y0165307D01*
X0044854Y0165307D01*
X0044854Y0166287D01*
X0044854Y0165498D02*
X0048000Y0165498D01*
X0048000Y0165689D02*
X0044854Y0165689D01*
X0044854Y0165880D02*
X0048000Y0165880D01*
X0048000Y0166071D02*
X0044854Y0166071D01*
X0044854Y0166262D02*
X0048000Y0166262D01*
X0048000Y0168256D02*
X0044854Y0168256D01*
X0048000Y0168256D02*
X0048000Y0167276D01*
X0044854Y0167276D01*
X0044854Y0168256D01*
X0044854Y0167467D02*
X0048000Y0167467D01*
X0048000Y0167658D02*
X0044854Y0167658D01*
X0044854Y0167849D02*
X0048000Y0167849D01*
X0048000Y0168040D02*
X0044854Y0168040D01*
X0044854Y0168231D02*
X0048000Y0168231D01*
X0048000Y0170224D02*
X0044854Y0170224D01*
X0048000Y0170224D02*
X0048000Y0169244D01*
X0044854Y0169244D01*
X0044854Y0170224D01*
X0044854Y0169435D02*
X0048000Y0169435D01*
X0048000Y0169626D02*
X0044854Y0169626D01*
X0044854Y0169817D02*
X0048000Y0169817D01*
X0048000Y0170008D02*
X0044854Y0170008D01*
X0044854Y0170199D02*
X0048000Y0170199D01*
X0048000Y0172193D02*
X0044854Y0172193D01*
X0048000Y0172193D02*
X0048000Y0171213D01*
X0044854Y0171213D01*
X0044854Y0172193D01*
X0044854Y0171404D02*
X0048000Y0171404D01*
X0048000Y0171595D02*
X0044854Y0171595D01*
X0044854Y0171786D02*
X0048000Y0171786D01*
X0048000Y0171977D02*
X0044854Y0171977D01*
X0044854Y0172168D02*
X0048000Y0172168D01*
X0048000Y0174161D02*
X0044854Y0174161D01*
X0048000Y0174161D02*
X0048000Y0173181D01*
X0044854Y0173181D01*
X0044854Y0174161D01*
X0044854Y0173372D02*
X0048000Y0173372D01*
X0048000Y0173563D02*
X0044854Y0173563D01*
X0044854Y0173754D02*
X0048000Y0173754D01*
X0048000Y0173945D02*
X0044854Y0173945D01*
X0044854Y0174136D02*
X0048000Y0174136D01*
X0043181Y0174854D02*
X0043181Y0178000D01*
X0044161Y0178000D01*
X0044161Y0174854D01*
X0043181Y0174854D01*
X0043181Y0175045D02*
X0044161Y0175045D01*
X0044161Y0175236D02*
X0043181Y0175236D01*
X0043181Y0175427D02*
X0044161Y0175427D01*
X0044161Y0175618D02*
X0043181Y0175618D01*
X0043181Y0175809D02*
X0044161Y0175809D01*
X0044161Y0176000D02*
X0043181Y0176000D01*
X0043181Y0176191D02*
X0044161Y0176191D01*
X0044161Y0176382D02*
X0043181Y0176382D01*
X0043181Y0176573D02*
X0044161Y0176573D01*
X0044161Y0176764D02*
X0043181Y0176764D01*
X0043181Y0176955D02*
X0044161Y0176955D01*
X0044161Y0177146D02*
X0043181Y0177146D01*
X0043181Y0177337D02*
X0044161Y0177337D01*
X0044161Y0177528D02*
X0043181Y0177528D01*
X0043181Y0177719D02*
X0044161Y0177719D01*
X0044161Y0177910D02*
X0043181Y0177910D01*
X0041213Y0178000D02*
X0041213Y0174854D01*
X0041213Y0178000D02*
X0042193Y0178000D01*
X0042193Y0174854D01*
X0041213Y0174854D01*
X0041213Y0175045D02*
X0042193Y0175045D01*
X0042193Y0175236D02*
X0041213Y0175236D01*
X0041213Y0175427D02*
X0042193Y0175427D01*
X0042193Y0175618D02*
X0041213Y0175618D01*
X0041213Y0175809D02*
X0042193Y0175809D01*
X0042193Y0176000D02*
X0041213Y0176000D01*
X0041213Y0176191D02*
X0042193Y0176191D01*
X0042193Y0176382D02*
X0041213Y0176382D01*
X0041213Y0176573D02*
X0042193Y0176573D01*
X0042193Y0176764D02*
X0041213Y0176764D01*
X0041213Y0176955D02*
X0042193Y0176955D01*
X0042193Y0177146D02*
X0041213Y0177146D01*
X0041213Y0177337D02*
X0042193Y0177337D01*
X0042193Y0177528D02*
X0041213Y0177528D01*
X0041213Y0177719D02*
X0042193Y0177719D01*
X0042193Y0177910D02*
X0041213Y0177910D01*
X0039244Y0178000D02*
X0039244Y0174854D01*
X0039244Y0178000D02*
X0040224Y0178000D01*
X0040224Y0174854D01*
X0039244Y0174854D01*
X0039244Y0175045D02*
X0040224Y0175045D01*
X0040224Y0175236D02*
X0039244Y0175236D01*
X0039244Y0175427D02*
X0040224Y0175427D01*
X0040224Y0175618D02*
X0039244Y0175618D01*
X0039244Y0175809D02*
X0040224Y0175809D01*
X0040224Y0176000D02*
X0039244Y0176000D01*
X0039244Y0176191D02*
X0040224Y0176191D01*
X0040224Y0176382D02*
X0039244Y0176382D01*
X0039244Y0176573D02*
X0040224Y0176573D01*
X0040224Y0176764D02*
X0039244Y0176764D01*
X0039244Y0176955D02*
X0040224Y0176955D01*
X0040224Y0177146D02*
X0039244Y0177146D01*
X0039244Y0177337D02*
X0040224Y0177337D01*
X0040224Y0177528D02*
X0039244Y0177528D01*
X0039244Y0177719D02*
X0040224Y0177719D01*
X0040224Y0177910D02*
X0039244Y0177910D01*
X0037276Y0178000D02*
X0037276Y0174854D01*
X0037276Y0178000D02*
X0038256Y0178000D01*
X0038256Y0174854D01*
X0037276Y0174854D01*
X0037276Y0175045D02*
X0038256Y0175045D01*
X0038256Y0175236D02*
X0037276Y0175236D01*
X0037276Y0175427D02*
X0038256Y0175427D01*
X0038256Y0175618D02*
X0037276Y0175618D01*
X0037276Y0175809D02*
X0038256Y0175809D01*
X0038256Y0176000D02*
X0037276Y0176000D01*
X0037276Y0176191D02*
X0038256Y0176191D01*
X0038256Y0176382D02*
X0037276Y0176382D01*
X0037276Y0176573D02*
X0038256Y0176573D01*
X0038256Y0176764D02*
X0037276Y0176764D01*
X0037276Y0176955D02*
X0038256Y0176955D01*
X0038256Y0177146D02*
X0037276Y0177146D01*
X0037276Y0177337D02*
X0038256Y0177337D01*
X0038256Y0177528D02*
X0037276Y0177528D01*
X0037276Y0177719D02*
X0038256Y0177719D01*
X0038256Y0177910D02*
X0037276Y0177910D01*
X0035307Y0178000D02*
X0035307Y0174854D01*
X0035307Y0178000D02*
X0036287Y0178000D01*
X0036287Y0174854D01*
X0035307Y0174854D01*
X0035307Y0175045D02*
X0036287Y0175045D01*
X0036287Y0175236D02*
X0035307Y0175236D01*
X0035307Y0175427D02*
X0036287Y0175427D01*
X0036287Y0175618D02*
X0035307Y0175618D01*
X0035307Y0175809D02*
X0036287Y0175809D01*
X0036287Y0176000D02*
X0035307Y0176000D01*
X0035307Y0176191D02*
X0036287Y0176191D01*
X0036287Y0176382D02*
X0035307Y0176382D01*
X0035307Y0176573D02*
X0036287Y0176573D01*
X0036287Y0176764D02*
X0035307Y0176764D01*
X0035307Y0176955D02*
X0036287Y0176955D01*
X0036287Y0177146D02*
X0035307Y0177146D01*
X0035307Y0177337D02*
X0036287Y0177337D01*
X0036287Y0177528D02*
X0035307Y0177528D01*
X0035307Y0177719D02*
X0036287Y0177719D01*
X0036287Y0177910D02*
X0035307Y0177910D01*
X0033339Y0178000D02*
X0033339Y0174854D01*
X0033339Y0178000D02*
X0034319Y0178000D01*
X0034319Y0174854D01*
X0033339Y0174854D01*
X0033339Y0175045D02*
X0034319Y0175045D01*
X0034319Y0175236D02*
X0033339Y0175236D01*
X0033339Y0175427D02*
X0034319Y0175427D01*
X0034319Y0175618D02*
X0033339Y0175618D01*
X0033339Y0175809D02*
X0034319Y0175809D01*
X0034319Y0176000D02*
X0033339Y0176000D01*
X0033339Y0176191D02*
X0034319Y0176191D01*
X0034319Y0176382D02*
X0033339Y0176382D01*
X0033339Y0176573D02*
X0034319Y0176573D01*
X0034319Y0176764D02*
X0033339Y0176764D01*
X0033339Y0176955D02*
X0034319Y0176955D01*
X0034319Y0177146D02*
X0033339Y0177146D01*
X0033339Y0177337D02*
X0034319Y0177337D01*
X0034319Y0177528D02*
X0033339Y0177528D01*
X0033339Y0177719D02*
X0034319Y0177719D01*
X0034319Y0177910D02*
X0033339Y0177910D01*
X0032646Y0174161D02*
X0029500Y0174161D01*
X0032646Y0174161D02*
X0032646Y0173181D01*
X0029500Y0173181D01*
X0029500Y0174161D01*
X0029500Y0173372D02*
X0032646Y0173372D01*
X0032646Y0173563D02*
X0029500Y0173563D01*
X0029500Y0173754D02*
X0032646Y0173754D01*
X0032646Y0173945D02*
X0029500Y0173945D01*
X0029500Y0174136D02*
X0032646Y0174136D01*
X0032646Y0172193D02*
X0029500Y0172193D01*
X0032646Y0172193D02*
X0032646Y0171213D01*
X0029500Y0171213D01*
X0029500Y0172193D01*
X0029500Y0171404D02*
X0032646Y0171404D01*
X0032646Y0171595D02*
X0029500Y0171595D01*
X0029500Y0171786D02*
X0032646Y0171786D01*
X0032646Y0171977D02*
X0029500Y0171977D01*
X0029500Y0172168D02*
X0032646Y0172168D01*
X0032646Y0170224D02*
X0029500Y0170224D01*
X0032646Y0170224D02*
X0032646Y0169244D01*
X0029500Y0169244D01*
X0029500Y0170224D01*
X0029500Y0169435D02*
X0032646Y0169435D01*
X0032646Y0169626D02*
X0029500Y0169626D01*
X0029500Y0169817D02*
X0032646Y0169817D01*
X0032646Y0170008D02*
X0029500Y0170008D01*
X0029500Y0170199D02*
X0032646Y0170199D01*
X0032646Y0168256D02*
X0029500Y0168256D01*
X0032646Y0168256D02*
X0032646Y0167276D01*
X0029500Y0167276D01*
X0029500Y0168256D01*
X0029500Y0167467D02*
X0032646Y0167467D01*
X0032646Y0167658D02*
X0029500Y0167658D01*
X0029500Y0167849D02*
X0032646Y0167849D01*
X0032646Y0168040D02*
X0029500Y0168040D01*
X0029500Y0168231D02*
X0032646Y0168231D01*
X0032646Y0166287D02*
X0029500Y0166287D01*
X0032646Y0166287D02*
X0032646Y0165307D01*
X0029500Y0165307D01*
X0029500Y0166287D01*
X0029500Y0165498D02*
X0032646Y0165498D01*
X0032646Y0165689D02*
X0029500Y0165689D01*
X0029500Y0165880D02*
X0032646Y0165880D01*
X0032646Y0166071D02*
X0029500Y0166071D01*
X0029500Y0166262D02*
X0032646Y0166262D01*
X0032646Y0164319D02*
X0029500Y0164319D01*
X0032646Y0164319D02*
X0032646Y0163339D01*
X0029500Y0163339D01*
X0029500Y0164319D01*
X0029500Y0163530D02*
X0032646Y0163530D01*
X0032646Y0163721D02*
X0029500Y0163721D01*
X0029500Y0163912D02*
X0032646Y0163912D01*
X0032646Y0164103D02*
X0029500Y0164103D01*
X0029500Y0164294D02*
X0032646Y0164294D01*
X0033339Y0162646D02*
X0033339Y0159500D01*
X0033339Y0162646D02*
X0034319Y0162646D01*
X0034319Y0159500D01*
X0033339Y0159500D01*
X0033339Y0159691D02*
X0034319Y0159691D01*
X0034319Y0159882D02*
X0033339Y0159882D01*
X0033339Y0160073D02*
X0034319Y0160073D01*
X0034319Y0160264D02*
X0033339Y0160264D01*
X0033339Y0160455D02*
X0034319Y0160455D01*
X0034319Y0160646D02*
X0033339Y0160646D01*
X0033339Y0160837D02*
X0034319Y0160837D01*
X0034319Y0161028D02*
X0033339Y0161028D01*
X0033339Y0161219D02*
X0034319Y0161219D01*
X0034319Y0161410D02*
X0033339Y0161410D01*
X0033339Y0161601D02*
X0034319Y0161601D01*
X0034319Y0161792D02*
X0033339Y0161792D01*
X0033339Y0161983D02*
X0034319Y0161983D01*
X0034319Y0162174D02*
X0033339Y0162174D01*
X0033339Y0162365D02*
X0034319Y0162365D01*
X0034319Y0162556D02*
X0033339Y0162556D01*
X0035307Y0162646D02*
X0035307Y0159500D01*
X0035307Y0162646D02*
X0036287Y0162646D01*
X0036287Y0159500D01*
X0035307Y0159500D01*
X0035307Y0159691D02*
X0036287Y0159691D01*
X0036287Y0159882D02*
X0035307Y0159882D01*
X0035307Y0160073D02*
X0036287Y0160073D01*
X0036287Y0160264D02*
X0035307Y0160264D01*
X0035307Y0160455D02*
X0036287Y0160455D01*
X0036287Y0160646D02*
X0035307Y0160646D01*
X0035307Y0160837D02*
X0036287Y0160837D01*
X0036287Y0161028D02*
X0035307Y0161028D01*
X0035307Y0161219D02*
X0036287Y0161219D01*
X0036287Y0161410D02*
X0035307Y0161410D01*
X0035307Y0161601D02*
X0036287Y0161601D01*
X0036287Y0161792D02*
X0035307Y0161792D01*
X0035307Y0161983D02*
X0036287Y0161983D01*
X0036287Y0162174D02*
X0035307Y0162174D01*
X0035307Y0162365D02*
X0036287Y0162365D01*
X0036287Y0162556D02*
X0035307Y0162556D01*
X0037276Y0162646D02*
X0037276Y0159500D01*
X0037276Y0162646D02*
X0038256Y0162646D01*
X0038256Y0159500D01*
X0037276Y0159500D01*
X0037276Y0159691D02*
X0038256Y0159691D01*
X0038256Y0159882D02*
X0037276Y0159882D01*
X0037276Y0160073D02*
X0038256Y0160073D01*
X0038256Y0160264D02*
X0037276Y0160264D01*
X0037276Y0160455D02*
X0038256Y0160455D01*
X0038256Y0160646D02*
X0037276Y0160646D01*
X0037276Y0160837D02*
X0038256Y0160837D01*
X0038256Y0161028D02*
X0037276Y0161028D01*
X0037276Y0161219D02*
X0038256Y0161219D01*
X0038256Y0161410D02*
X0037276Y0161410D01*
X0037276Y0161601D02*
X0038256Y0161601D01*
X0038256Y0161792D02*
X0037276Y0161792D01*
X0037276Y0161983D02*
X0038256Y0161983D01*
X0038256Y0162174D02*
X0037276Y0162174D01*
X0037276Y0162365D02*
X0038256Y0162365D01*
X0038256Y0162556D02*
X0037276Y0162556D01*
X0039244Y0162646D02*
X0039244Y0159500D01*
X0039244Y0162646D02*
X0040224Y0162646D01*
X0040224Y0159500D01*
X0039244Y0159500D01*
X0039244Y0159691D02*
X0040224Y0159691D01*
X0040224Y0159882D02*
X0039244Y0159882D01*
X0039244Y0160073D02*
X0040224Y0160073D01*
X0040224Y0160264D02*
X0039244Y0160264D01*
X0039244Y0160455D02*
X0040224Y0160455D01*
X0040224Y0160646D02*
X0039244Y0160646D01*
X0039244Y0160837D02*
X0040224Y0160837D01*
X0040224Y0161028D02*
X0039244Y0161028D01*
X0039244Y0161219D02*
X0040224Y0161219D01*
X0040224Y0161410D02*
X0039244Y0161410D01*
X0039244Y0161601D02*
X0040224Y0161601D01*
X0040224Y0161792D02*
X0039244Y0161792D01*
X0039244Y0161983D02*
X0040224Y0161983D01*
X0040224Y0162174D02*
X0039244Y0162174D01*
X0039244Y0162365D02*
X0040224Y0162365D01*
X0040224Y0162556D02*
X0039244Y0162556D01*
X0041213Y0162646D02*
X0041213Y0159500D01*
X0041213Y0162646D02*
X0042193Y0162646D01*
X0042193Y0159500D01*
X0041213Y0159500D01*
X0041213Y0159691D02*
X0042193Y0159691D01*
X0042193Y0159882D02*
X0041213Y0159882D01*
X0041213Y0160073D02*
X0042193Y0160073D01*
X0042193Y0160264D02*
X0041213Y0160264D01*
X0041213Y0160455D02*
X0042193Y0160455D01*
X0042193Y0160646D02*
X0041213Y0160646D01*
X0041213Y0160837D02*
X0042193Y0160837D01*
X0042193Y0161028D02*
X0041213Y0161028D01*
X0041213Y0161219D02*
X0042193Y0161219D01*
X0042193Y0161410D02*
X0041213Y0161410D01*
X0041213Y0161601D02*
X0042193Y0161601D01*
X0042193Y0161792D02*
X0041213Y0161792D01*
X0041213Y0161983D02*
X0042193Y0161983D01*
X0042193Y0162174D02*
X0041213Y0162174D01*
X0041213Y0162365D02*
X0042193Y0162365D01*
X0042193Y0162556D02*
X0041213Y0162556D01*
X0043181Y0162646D02*
X0043181Y0159500D01*
X0043181Y0162646D02*
X0044161Y0162646D01*
X0044161Y0159500D01*
X0043181Y0159500D01*
X0043181Y0159691D02*
X0044161Y0159691D01*
X0044161Y0159882D02*
X0043181Y0159882D01*
X0043181Y0160073D02*
X0044161Y0160073D01*
X0044161Y0160264D02*
X0043181Y0160264D01*
X0043181Y0160455D02*
X0044161Y0160455D01*
X0044161Y0160646D02*
X0043181Y0160646D01*
X0043181Y0160837D02*
X0044161Y0160837D01*
X0044161Y0161028D02*
X0043181Y0161028D01*
X0043181Y0161219D02*
X0044161Y0161219D01*
X0044161Y0161410D02*
X0043181Y0161410D01*
X0043181Y0161601D02*
X0044161Y0161601D01*
X0044161Y0161792D02*
X0043181Y0161792D01*
X0043181Y0161983D02*
X0044161Y0161983D01*
X0044161Y0162174D02*
X0043181Y0162174D01*
X0043181Y0162365D02*
X0044161Y0162365D01*
X0044161Y0162556D02*
X0043181Y0162556D01*
X0033831Y0163831D02*
X0033831Y0173669D01*
X0043669Y0173669D01*
X0043669Y0163831D01*
X0033831Y0163831D01*
X0033831Y0164022D02*
X0043669Y0164022D01*
X0043669Y0164213D02*
X0033831Y0164213D01*
X0033831Y0164404D02*
X0043669Y0164404D01*
X0043669Y0164595D02*
X0033831Y0164595D01*
X0033831Y0164786D02*
X0043669Y0164786D01*
X0043669Y0164977D02*
X0033831Y0164977D01*
X0033831Y0165168D02*
X0043669Y0165168D01*
X0043669Y0165359D02*
X0033831Y0165359D01*
X0033831Y0165550D02*
X0043669Y0165550D01*
X0043669Y0165741D02*
X0033831Y0165741D01*
X0033831Y0165932D02*
X0043669Y0165932D01*
X0043669Y0166123D02*
X0033831Y0166123D01*
X0033831Y0166314D02*
X0043669Y0166314D01*
X0043669Y0166505D02*
X0033831Y0166505D01*
X0033831Y0166696D02*
X0043669Y0166696D01*
X0043669Y0166887D02*
X0033831Y0166887D01*
X0033831Y0167078D02*
X0043669Y0167078D01*
X0043669Y0167269D02*
X0033831Y0167269D01*
X0033831Y0167460D02*
X0043669Y0167460D01*
X0043669Y0167651D02*
X0033831Y0167651D01*
X0033831Y0167842D02*
X0043669Y0167842D01*
X0043669Y0168033D02*
X0033831Y0168033D01*
X0033831Y0168224D02*
X0043669Y0168224D01*
X0043669Y0168415D02*
X0033831Y0168415D01*
X0033831Y0168606D02*
X0043669Y0168606D01*
X0043669Y0168797D02*
X0033831Y0168797D01*
X0033831Y0168988D02*
X0043669Y0168988D01*
X0043669Y0169179D02*
X0033831Y0169179D01*
X0033831Y0169370D02*
X0043669Y0169370D01*
X0043669Y0169561D02*
X0033831Y0169561D01*
X0033831Y0169752D02*
X0043669Y0169752D01*
X0043669Y0169943D02*
X0033831Y0169943D01*
X0033831Y0170134D02*
X0043669Y0170134D01*
X0043669Y0170325D02*
X0033831Y0170325D01*
X0033831Y0170516D02*
X0043669Y0170516D01*
X0043669Y0170707D02*
X0033831Y0170707D01*
X0033831Y0170898D02*
X0043669Y0170898D01*
X0043669Y0171089D02*
X0033831Y0171089D01*
X0033831Y0171280D02*
X0043669Y0171280D01*
X0043669Y0171471D02*
X0033831Y0171471D01*
X0033831Y0171662D02*
X0043669Y0171662D01*
X0043669Y0171853D02*
X0033831Y0171853D01*
X0033831Y0172044D02*
X0043669Y0172044D01*
X0043669Y0172235D02*
X0033831Y0172235D01*
X0033831Y0172426D02*
X0043669Y0172426D01*
X0043669Y0172617D02*
X0033831Y0172617D01*
X0033831Y0172808D02*
X0043669Y0172808D01*
X0043669Y0172999D02*
X0033831Y0172999D01*
X0033831Y0173190D02*
X0043669Y0173190D01*
X0043669Y0173381D02*
X0033831Y0173381D01*
X0033831Y0173572D02*
X0043669Y0173572D01*
D20*
X0072354Y0172030D02*
X0072354Y0180470D01*
X0077646Y0180470D01*
X0077646Y0172030D01*
X0072354Y0172030D01*
X0072354Y0172239D02*
X0077646Y0172239D01*
X0077646Y0172448D02*
X0072354Y0172448D01*
X0072354Y0172657D02*
X0077646Y0172657D01*
X0077646Y0172866D02*
X0072354Y0172866D01*
X0072354Y0173075D02*
X0077646Y0173075D01*
X0077646Y0173284D02*
X0072354Y0173284D01*
X0072354Y0173493D02*
X0077646Y0173493D01*
X0077646Y0173702D02*
X0072354Y0173702D01*
X0072354Y0173911D02*
X0077646Y0173911D01*
X0077646Y0174120D02*
X0072354Y0174120D01*
X0072354Y0174329D02*
X0077646Y0174329D01*
X0077646Y0174538D02*
X0072354Y0174538D01*
X0072354Y0174747D02*
X0077646Y0174747D01*
X0077646Y0174956D02*
X0072354Y0174956D01*
X0072354Y0175165D02*
X0077646Y0175165D01*
X0077646Y0175374D02*
X0072354Y0175374D01*
X0072354Y0175583D02*
X0077646Y0175583D01*
X0077646Y0175792D02*
X0072354Y0175792D01*
X0072354Y0176001D02*
X0077646Y0176001D01*
X0077646Y0176210D02*
X0072354Y0176210D01*
X0072354Y0176419D02*
X0077646Y0176419D01*
X0077646Y0176628D02*
X0072354Y0176628D01*
X0072354Y0176837D02*
X0077646Y0176837D01*
X0077646Y0177046D02*
X0072354Y0177046D01*
X0072354Y0177255D02*
X0077646Y0177255D01*
X0077646Y0177464D02*
X0072354Y0177464D01*
X0072354Y0177673D02*
X0077646Y0177673D01*
X0077646Y0177882D02*
X0072354Y0177882D01*
X0072354Y0178091D02*
X0077646Y0178091D01*
X0077646Y0178300D02*
X0072354Y0178300D01*
X0072354Y0178509D02*
X0077646Y0178509D01*
X0077646Y0178718D02*
X0072354Y0178718D01*
X0072354Y0178927D02*
X0077646Y0178927D01*
X0077646Y0179136D02*
X0072354Y0179136D01*
X0072354Y0179345D02*
X0077646Y0179345D01*
X0077646Y0179554D02*
X0072354Y0179554D01*
X0072354Y0179763D02*
X0077646Y0179763D01*
X0077646Y0179972D02*
X0072354Y0179972D01*
X0072354Y0180181D02*
X0077646Y0180181D01*
X0077646Y0180390D02*
X0072354Y0180390D01*
X0110780Y0155146D02*
X0119220Y0155146D01*
X0119220Y0149854D01*
X0110780Y0149854D01*
X0110780Y0155146D01*
X0110780Y0150063D02*
X0119220Y0150063D01*
X0119220Y0150272D02*
X0110780Y0150272D01*
X0110780Y0150481D02*
X0119220Y0150481D01*
X0119220Y0150690D02*
X0110780Y0150690D01*
X0110780Y0150899D02*
X0119220Y0150899D01*
X0119220Y0151108D02*
X0110780Y0151108D01*
X0110780Y0151317D02*
X0119220Y0151317D01*
X0119220Y0151526D02*
X0110780Y0151526D01*
X0110780Y0151735D02*
X0119220Y0151735D01*
X0119220Y0151944D02*
X0110780Y0151944D01*
X0110780Y0152153D02*
X0119220Y0152153D01*
X0119220Y0152362D02*
X0110780Y0152362D01*
X0110780Y0152571D02*
X0119220Y0152571D01*
X0119220Y0152780D02*
X0110780Y0152780D01*
X0110780Y0152989D02*
X0119220Y0152989D01*
X0119220Y0153198D02*
X0110780Y0153198D01*
X0110780Y0153407D02*
X0119220Y0153407D01*
X0119220Y0153616D02*
X0110780Y0153616D01*
X0110780Y0153825D02*
X0119220Y0153825D01*
X0119220Y0154034D02*
X0110780Y0154034D01*
X0110780Y0154243D02*
X0119220Y0154243D01*
X0119220Y0154452D02*
X0110780Y0154452D01*
X0110780Y0154661D02*
X0119220Y0154661D01*
X0119220Y0154870D02*
X0110780Y0154870D01*
X0110780Y0155079D02*
X0119220Y0155079D01*
X0097354Y0036112D02*
X0091388Y0030146D01*
X0087646Y0033888D01*
X0093612Y0039854D01*
X0097354Y0036112D01*
X0091597Y0030355D02*
X0091179Y0030355D01*
X0090970Y0030564D02*
X0091806Y0030564D01*
X0092015Y0030773D02*
X0090761Y0030773D01*
X0090552Y0030982D02*
X0092224Y0030982D01*
X0092433Y0031191D02*
X0090343Y0031191D01*
X0090134Y0031400D02*
X0092642Y0031400D01*
X0092851Y0031609D02*
X0089925Y0031609D01*
X0089716Y0031818D02*
X0093060Y0031818D01*
X0093269Y0032027D02*
X0089507Y0032027D01*
X0089298Y0032236D02*
X0093478Y0032236D01*
X0093687Y0032445D02*
X0089089Y0032445D01*
X0088880Y0032654D02*
X0093896Y0032654D01*
X0094105Y0032863D02*
X0088671Y0032863D01*
X0088462Y0033072D02*
X0094314Y0033072D01*
X0094523Y0033281D02*
X0088253Y0033281D01*
X0088044Y0033490D02*
X0094732Y0033490D01*
X0094941Y0033699D02*
X0087835Y0033699D01*
X0087666Y0033908D02*
X0095150Y0033908D01*
X0095359Y0034117D02*
X0087875Y0034117D01*
X0088084Y0034326D02*
X0095568Y0034326D01*
X0095777Y0034535D02*
X0088293Y0034535D01*
X0088502Y0034744D02*
X0095986Y0034744D01*
X0096195Y0034953D02*
X0088711Y0034953D01*
X0088920Y0035162D02*
X0096404Y0035162D01*
X0096613Y0035371D02*
X0089129Y0035371D01*
X0089338Y0035580D02*
X0096822Y0035580D01*
X0097031Y0035789D02*
X0089547Y0035789D01*
X0089756Y0035998D02*
X0097240Y0035998D01*
X0097259Y0036207D02*
X0089965Y0036207D01*
X0090174Y0036416D02*
X0097050Y0036416D01*
X0096841Y0036625D02*
X0090383Y0036625D01*
X0090592Y0036834D02*
X0096632Y0036834D01*
X0096423Y0037043D02*
X0090801Y0037043D01*
X0091010Y0037252D02*
X0096214Y0037252D01*
X0096005Y0037461D02*
X0091219Y0037461D01*
X0091428Y0037670D02*
X0095796Y0037670D01*
X0095587Y0037879D02*
X0091637Y0037879D01*
X0091846Y0038088D02*
X0095378Y0038088D01*
X0095169Y0038297D02*
X0092055Y0038297D01*
X0092264Y0038506D02*
X0094960Y0038506D01*
X0094751Y0038715D02*
X0092473Y0038715D01*
X0092682Y0038924D02*
X0094542Y0038924D01*
X0094333Y0039133D02*
X0092891Y0039133D01*
X0093100Y0039342D02*
X0094124Y0039342D01*
X0093915Y0039551D02*
X0093309Y0039551D01*
X0093518Y0039760D02*
X0093706Y0039760D01*
X0104862Y0027354D02*
X0098896Y0021388D01*
X0104862Y0027354D02*
X0108604Y0023612D01*
X0102638Y0017646D01*
X0098896Y0021388D01*
X0102429Y0017855D02*
X0102847Y0017855D01*
X0103056Y0018064D02*
X0102220Y0018064D01*
X0102011Y0018273D02*
X0103265Y0018273D01*
X0103474Y0018482D02*
X0101802Y0018482D01*
X0101593Y0018691D02*
X0103683Y0018691D01*
X0103892Y0018900D02*
X0101384Y0018900D01*
X0101175Y0019109D02*
X0104101Y0019109D01*
X0104310Y0019318D02*
X0100966Y0019318D01*
X0100757Y0019527D02*
X0104519Y0019527D01*
X0104728Y0019736D02*
X0100548Y0019736D01*
X0100339Y0019945D02*
X0104937Y0019945D01*
X0105146Y0020154D02*
X0100130Y0020154D01*
X0099921Y0020363D02*
X0105355Y0020363D01*
X0105564Y0020572D02*
X0099712Y0020572D01*
X0099503Y0020781D02*
X0105773Y0020781D01*
X0105982Y0020990D02*
X0099294Y0020990D01*
X0099085Y0021199D02*
X0106191Y0021199D01*
X0106400Y0021408D02*
X0098916Y0021408D01*
X0099125Y0021617D02*
X0106609Y0021617D01*
X0106818Y0021826D02*
X0099334Y0021826D01*
X0099543Y0022035D02*
X0107027Y0022035D01*
X0107236Y0022244D02*
X0099752Y0022244D01*
X0099961Y0022453D02*
X0107445Y0022453D01*
X0107654Y0022662D02*
X0100170Y0022662D01*
X0100379Y0022871D02*
X0107863Y0022871D01*
X0108072Y0023080D02*
X0100588Y0023080D01*
X0100797Y0023289D02*
X0108281Y0023289D01*
X0108490Y0023498D02*
X0101006Y0023498D01*
X0101215Y0023707D02*
X0108509Y0023707D01*
X0108300Y0023916D02*
X0101424Y0023916D01*
X0101633Y0024125D02*
X0108091Y0024125D01*
X0107882Y0024334D02*
X0101842Y0024334D01*
X0102051Y0024543D02*
X0107673Y0024543D01*
X0107464Y0024752D02*
X0102260Y0024752D01*
X0102469Y0024961D02*
X0107255Y0024961D01*
X0107046Y0025170D02*
X0102678Y0025170D01*
X0102887Y0025379D02*
X0106837Y0025379D01*
X0106628Y0025588D02*
X0103096Y0025588D01*
X0103305Y0025797D02*
X0106419Y0025797D01*
X0106210Y0026006D02*
X0103514Y0026006D01*
X0103723Y0026215D02*
X0106001Y0026215D01*
X0105792Y0026424D02*
X0103932Y0026424D01*
X0104141Y0026633D02*
X0105583Y0026633D01*
X0105374Y0026842D02*
X0104350Y0026842D01*
X0104559Y0027051D02*
X0105165Y0027051D01*
X0104956Y0027260D02*
X0104768Y0027260D01*
X0083612Y0008896D02*
X0077646Y0014862D01*
X0081388Y0018604D01*
X0087354Y0012638D01*
X0083612Y0008896D01*
X0083821Y0009105D02*
X0083403Y0009105D01*
X0083194Y0009314D02*
X0084030Y0009314D01*
X0084239Y0009523D02*
X0082985Y0009523D01*
X0082776Y0009732D02*
X0084448Y0009732D01*
X0084657Y0009941D02*
X0082567Y0009941D01*
X0082358Y0010150D02*
X0084866Y0010150D01*
X0085075Y0010359D02*
X0082149Y0010359D01*
X0081940Y0010568D02*
X0085284Y0010568D01*
X0085493Y0010777D02*
X0081731Y0010777D01*
X0081522Y0010986D02*
X0085702Y0010986D01*
X0085911Y0011195D02*
X0081313Y0011195D01*
X0081104Y0011404D02*
X0086120Y0011404D01*
X0086329Y0011613D02*
X0080895Y0011613D01*
X0080686Y0011822D02*
X0086538Y0011822D01*
X0086747Y0012031D02*
X0080477Y0012031D01*
X0080268Y0012240D02*
X0086956Y0012240D01*
X0087165Y0012449D02*
X0080059Y0012449D01*
X0079850Y0012658D02*
X0087334Y0012658D01*
X0087125Y0012867D02*
X0079641Y0012867D01*
X0079432Y0013076D02*
X0086916Y0013076D01*
X0086707Y0013285D02*
X0079223Y0013285D01*
X0079014Y0013494D02*
X0086498Y0013494D01*
X0086289Y0013703D02*
X0078805Y0013703D01*
X0078596Y0013912D02*
X0086080Y0013912D01*
X0085871Y0014121D02*
X0078387Y0014121D01*
X0078178Y0014330D02*
X0085662Y0014330D01*
X0085453Y0014539D02*
X0077969Y0014539D01*
X0077760Y0014748D02*
X0085244Y0014748D01*
X0085035Y0014957D02*
X0077741Y0014957D01*
X0077950Y0015166D02*
X0084826Y0015166D01*
X0084617Y0015375D02*
X0078159Y0015375D01*
X0078368Y0015584D02*
X0084408Y0015584D01*
X0084199Y0015793D02*
X0078577Y0015793D01*
X0078786Y0016002D02*
X0083990Y0016002D01*
X0083781Y0016211D02*
X0078995Y0016211D01*
X0079204Y0016420D02*
X0083572Y0016420D01*
X0083363Y0016629D02*
X0079413Y0016629D01*
X0079622Y0016838D02*
X0083154Y0016838D01*
X0082945Y0017047D02*
X0079831Y0017047D01*
X0080040Y0017256D02*
X0082736Y0017256D01*
X0082527Y0017465D02*
X0080249Y0017465D01*
X0080458Y0017674D02*
X0082318Y0017674D01*
X0082109Y0017883D02*
X0080667Y0017883D01*
X0080876Y0018092D02*
X0081900Y0018092D01*
X0081691Y0018301D02*
X0081085Y0018301D01*
X0081294Y0018510D02*
X0081482Y0018510D01*
X0004854Y0035780D02*
X0004854Y0044220D01*
X0010146Y0044220D01*
X0010146Y0035780D01*
X0004854Y0035780D01*
X0004854Y0035989D02*
X0010146Y0035989D01*
X0010146Y0036198D02*
X0004854Y0036198D01*
X0004854Y0036407D02*
X0010146Y0036407D01*
X0010146Y0036616D02*
X0004854Y0036616D01*
X0004854Y0036825D02*
X0010146Y0036825D01*
X0010146Y0037034D02*
X0004854Y0037034D01*
X0004854Y0037243D02*
X0010146Y0037243D01*
X0010146Y0037452D02*
X0004854Y0037452D01*
X0004854Y0037661D02*
X0010146Y0037661D01*
X0010146Y0037870D02*
X0004854Y0037870D01*
X0004854Y0038079D02*
X0010146Y0038079D01*
X0010146Y0038288D02*
X0004854Y0038288D01*
X0004854Y0038497D02*
X0010146Y0038497D01*
X0010146Y0038706D02*
X0004854Y0038706D01*
X0004854Y0038915D02*
X0010146Y0038915D01*
X0010146Y0039124D02*
X0004854Y0039124D01*
X0004854Y0039333D02*
X0010146Y0039333D01*
X0010146Y0039542D02*
X0004854Y0039542D01*
X0004854Y0039751D02*
X0010146Y0039751D01*
X0010146Y0039960D02*
X0004854Y0039960D01*
X0004854Y0040169D02*
X0010146Y0040169D01*
X0010146Y0040378D02*
X0004854Y0040378D01*
X0004854Y0040587D02*
X0010146Y0040587D01*
X0010146Y0040796D02*
X0004854Y0040796D01*
X0004854Y0041005D02*
X0010146Y0041005D01*
X0010146Y0041214D02*
X0004854Y0041214D01*
X0004854Y0041423D02*
X0010146Y0041423D01*
X0010146Y0041632D02*
X0004854Y0041632D01*
X0004854Y0041841D02*
X0010146Y0041841D01*
X0010146Y0042050D02*
X0004854Y0042050D01*
X0004854Y0042259D02*
X0010146Y0042259D01*
X0010146Y0042468D02*
X0004854Y0042468D01*
X0004854Y0042677D02*
X0010146Y0042677D01*
X0010146Y0042886D02*
X0004854Y0042886D01*
X0004854Y0043095D02*
X0010146Y0043095D01*
X0010146Y0043304D02*
X0004854Y0043304D01*
X0004854Y0043513D02*
X0010146Y0043513D01*
X0010146Y0043722D02*
X0004854Y0043722D01*
X0004854Y0043931D02*
X0010146Y0043931D01*
X0010146Y0044140D02*
X0004854Y0044140D01*
M02*
